%TF.GenerationSoftware,KiCad,Pcbnew,7.0.1*%
%TF.CreationDate,2023-11-10T11:44:43+00:00*%
%TF.ProjectId,Filter,46696c74-6572-42e6-9b69-6361645f7063,rev?*%
%TF.SameCoordinates,Original*%
%TF.FileFunction,Drillmap*%
%TF.FilePolarity,Positive*%
%FSLAX45Y45*%
G04 Gerber Fmt 4.5, Leading zero omitted, Abs format (unit mm)*
G04 Created by KiCad (PCBNEW 7.0.1) date 2023-11-10 11:44:43*
%MOMM*%
%LPD*%
G01*
G04 APERTURE LIST*
%ADD10C,0.100000*%
%ADD11C,0.200000*%
G04 APERTURE END LIST*
D10*
X11642500Y-6173000D02*
X20173000Y-6173000D01*
X20173000Y-11077000D01*
X11642500Y-11077000D01*
X11642500Y-6173000D01*
D11*
X12135351Y-6630000D02*
G75*
G03*
X12135351Y-6630000I-160351J0D01*
G01*
X20028351Y-10633000D02*
G75*
G03*
X20028351Y-10633000I-160351J0D01*
G01*
X20034351Y-6631000D02*
G75*
G03*
X20034351Y-6631000I-160351J0D01*
G01*
X12119000Y-10634000D02*
G75*
G03*
X12119000Y-10634000I-152000J0D01*
G01*
X11885119Y-11394524D02*
X11885119Y-11194524D01*
X11885119Y-11194524D02*
X11932738Y-11194524D01*
X11932738Y-11194524D02*
X11961309Y-11204048D01*
X11961309Y-11204048D02*
X11980357Y-11223095D01*
X11980357Y-11223095D02*
X11989881Y-11242143D01*
X11989881Y-11242143D02*
X11999405Y-11280238D01*
X11999405Y-11280238D02*
X11999405Y-11308809D01*
X11999405Y-11308809D02*
X11989881Y-11346905D01*
X11989881Y-11346905D02*
X11980357Y-11365952D01*
X11980357Y-11365952D02*
X11961309Y-11385000D01*
X11961309Y-11385000D02*
X11932738Y-11394524D01*
X11932738Y-11394524D02*
X11885119Y-11394524D01*
X12085119Y-11394524D02*
X12085119Y-11261190D01*
X12085119Y-11299286D02*
X12094643Y-11280238D01*
X12094643Y-11280238D02*
X12104167Y-11270714D01*
X12104167Y-11270714D02*
X12123214Y-11261190D01*
X12123214Y-11261190D02*
X12142262Y-11261190D01*
X12208928Y-11394524D02*
X12208928Y-11261190D01*
X12208928Y-11194524D02*
X12199405Y-11204048D01*
X12199405Y-11204048D02*
X12208928Y-11213571D01*
X12208928Y-11213571D02*
X12218452Y-11204048D01*
X12218452Y-11204048D02*
X12208928Y-11194524D01*
X12208928Y-11194524D02*
X12208928Y-11213571D01*
X12332738Y-11394524D02*
X12313690Y-11385000D01*
X12313690Y-11385000D02*
X12304167Y-11365952D01*
X12304167Y-11365952D02*
X12304167Y-11194524D01*
X12437500Y-11394524D02*
X12418452Y-11385000D01*
X12418452Y-11385000D02*
X12408928Y-11365952D01*
X12408928Y-11365952D02*
X12408928Y-11194524D01*
X12666071Y-11394524D02*
X12666071Y-11194524D01*
X12666071Y-11194524D02*
X12732738Y-11337381D01*
X12732738Y-11337381D02*
X12799405Y-11194524D01*
X12799405Y-11194524D02*
X12799405Y-11394524D01*
X12980357Y-11394524D02*
X12980357Y-11289762D01*
X12980357Y-11289762D02*
X12970833Y-11270714D01*
X12970833Y-11270714D02*
X12951786Y-11261190D01*
X12951786Y-11261190D02*
X12913690Y-11261190D01*
X12913690Y-11261190D02*
X12894643Y-11270714D01*
X12980357Y-11385000D02*
X12961309Y-11394524D01*
X12961309Y-11394524D02*
X12913690Y-11394524D01*
X12913690Y-11394524D02*
X12894643Y-11385000D01*
X12894643Y-11385000D02*
X12885119Y-11365952D01*
X12885119Y-11365952D02*
X12885119Y-11346905D01*
X12885119Y-11346905D02*
X12894643Y-11327857D01*
X12894643Y-11327857D02*
X12913690Y-11318333D01*
X12913690Y-11318333D02*
X12961309Y-11318333D01*
X12961309Y-11318333D02*
X12980357Y-11308809D01*
X13075595Y-11261190D02*
X13075595Y-11461190D01*
X13075595Y-11270714D02*
X13094643Y-11261190D01*
X13094643Y-11261190D02*
X13132738Y-11261190D01*
X13132738Y-11261190D02*
X13151786Y-11270714D01*
X13151786Y-11270714D02*
X13161309Y-11280238D01*
X13161309Y-11280238D02*
X13170833Y-11299286D01*
X13170833Y-11299286D02*
X13170833Y-11356428D01*
X13170833Y-11356428D02*
X13161309Y-11375476D01*
X13161309Y-11375476D02*
X13151786Y-11385000D01*
X13151786Y-11385000D02*
X13132738Y-11394524D01*
X13132738Y-11394524D02*
X13094643Y-11394524D01*
X13094643Y-11394524D02*
X13075595Y-11385000D01*
X13256548Y-11375476D02*
X13266071Y-11385000D01*
X13266071Y-11385000D02*
X13256548Y-11394524D01*
X13256548Y-11394524D02*
X13247024Y-11385000D01*
X13247024Y-11385000D02*
X13256548Y-11375476D01*
X13256548Y-11375476D02*
X13256548Y-11394524D01*
X13256548Y-11270714D02*
X13266071Y-11280238D01*
X13266071Y-11280238D02*
X13256548Y-11289762D01*
X13256548Y-11289762D02*
X13247024Y-11280238D01*
X13247024Y-11280238D02*
X13256548Y-11270714D01*
X13256548Y-11270714D02*
X13256548Y-11289762D01*
M02*
