M48
; DRILL file {KiCad 7.0.1} date Сб 04 ноя 2023 13:42:54
; FORMAT={-:-/ absolute / metric / decimal}
; #@! TF.CreationDate,2023-11-04T13:42:54+00:00
; #@! TF.GenerationSoftware,Kicad,Pcbnew,7.0.1
; #@! TF.FileFunction,Plated,1,2,PTH
FMAT,2
METRIC
; #@! TA.AperFunction,Plated,PTH,ViaDrill
T1C0.400
; #@! TA.AperFunction,Plated,PTH,ComponentDrill
T2C0.800
; #@! TA.AperFunction,Plated,PTH,ComponentDrill
T3C1.000
; #@! TA.AperFunction,Plated,PTH,ComponentDrill
T4C1.200
; #@! TA.AperFunction,Plated,PTH,ComponentDrill
T5C1.500
; #@! TA.AperFunction,Plated,PTH,ComponentDrill
T6C1.700
%
G90
G05
T1
X132.531Y-98.562
X134.591Y-87.932
X136.474Y-93.77
X181.645Y-87.25
X182.865Y-89.14
X190.785Y-89.45
T2
X128.27Y-81.67
X132.36Y-68.55
X132.36Y-73.55
X133.27Y-81.67
X140.51Y-81.76
X141.6Y-88.93
X141.62Y-95.89
X141.86Y-65.83
X145.51Y-81.76
X146.6Y-88.93
X146.62Y-95.89
X146.86Y-65.83
X158.41Y-83.07
X158.41Y-88.07
X161.88Y-82.56
X161.89Y-86.48
X161.89Y-91.48
X161.91Y-67.69
X161.93Y-63.98
X162.91Y-94.19
X165.01Y-103.27
X165.04Y-99.49
X166.88Y-82.56
X166.91Y-67.69
X166.93Y-63.98
X167.91Y-94.19
X170.01Y-103.27
X170.04Y-99.49
T3
X118.45Y-70.89
X118.45Y-76.89
X128.787Y-104.267
X129.45Y-70.89
X129.45Y-76.89
X131.327Y-104.267
X133.868Y-104.267
X136.407Y-104.267
X145.23Y-85.46
X145.88Y-99.52
X146.41Y-92.43
X155.23Y-85.46
X155.88Y-99.52
X156.41Y-92.43
X160.84Y-96.92
X160.84Y-106.92
X172.76Y-94.43
X172.89Y-103.25
X182.76Y-94.43
X182.89Y-103.25
X188.36Y-69.67
X188.36Y-80.67
X194.36Y-69.67
X194.36Y-80.67
T4
X145.24Y-69.56
X145.45Y-77.72
X158.235Y-73.66
X158.24Y-69.56
X158.45Y-77.72
X164.88Y-86.49
X170.3Y-69.51
X170.31Y-77.82
X171.235Y-73.66
X177.88Y-86.49
X183.3Y-69.51
X183.31Y-77.82
T5
X121.68Y-87.7
X197.45Y-87.27
T6
X119.14Y-85.16
X119.14Y-90.24
X124.22Y-85.16
X124.22Y-90.24
X194.91Y-84.73
X194.91Y-89.81
X199.99Y-84.73
X199.99Y-89.81
T0
M30
