%TF.GenerationSoftware,KiCad,Pcbnew,8.0.0*%
%TF.CreationDate,2024-03-23T17:17:51+01:00*%
%TF.ProjectId,Filter,46696c74-6572-42e6-9b69-6361645f7063,rev?*%
%TF.SameCoordinates,Original*%
%TF.FileFunction,Drillmap*%
%TF.FilePolarity,Positive*%
%FSLAX45Y45*%
G04 Gerber Fmt 4.5, Leading zero omitted, Abs format (unit mm)*
G04 Created by KiCad (PCBNEW 8.0.0) date 2024-03-23 17:17:51*
%MOMM*%
%LPD*%
G01*
G04 APERTURE LIST*
%ADD10C,0.100000*%
%ADD11C,0.200000*%
G04 APERTURE END LIST*
D10*
X11642500Y-6173000D02*
X20173000Y-6173000D01*
X20173000Y-11077000D01*
X11642500Y-11077000D01*
X11642500Y-6173000D01*
D11*
X12135351Y-6630000D02*
G75*
G02*
X11814649Y-6630000I-160351J0D01*
G01*
X11814649Y-6630000D02*
G75*
G02*
X12135351Y-6630000I160351J0D01*
G01*
X20028351Y-10633000D02*
G75*
G02*
X19707649Y-10633000I-160351J0D01*
G01*
X19707649Y-10633000D02*
G75*
G02*
X20028351Y-10633000I160351J0D01*
G01*
X20034351Y-6631000D02*
G75*
G02*
X19713649Y-6631000I-160351J0D01*
G01*
X19713649Y-6631000D02*
G75*
G02*
X20034351Y-6631000I160351J0D01*
G01*
X12119000Y-10634000D02*
G75*
G02*
X11815000Y-10634000I-152000J0D01*
G01*
X11815000Y-10634000D02*
G75*
G02*
X12119000Y-10634000I152000J0D01*
G01*
D10*
X11718000Y-8340000D02*
X11718000Y-9200000D01*
X20195000Y-9157000D02*
X20195000Y-8297000D01*
D11*
X11898277Y-11393484D02*
X11898277Y-11193484D01*
X11898277Y-11193484D02*
X11945896Y-11193484D01*
X11945896Y-11193484D02*
X11974467Y-11203008D01*
X11974467Y-11203008D02*
X11993515Y-11222055D01*
X11993515Y-11222055D02*
X12003039Y-11241103D01*
X12003039Y-11241103D02*
X12012562Y-11279198D01*
X12012562Y-11279198D02*
X12012562Y-11307769D01*
X12012562Y-11307769D02*
X12003039Y-11345865D01*
X12003039Y-11345865D02*
X11993515Y-11364912D01*
X11993515Y-11364912D02*
X11974467Y-11383960D01*
X11974467Y-11383960D02*
X11945896Y-11393484D01*
X11945896Y-11393484D02*
X11898277Y-11393484D01*
X12098277Y-11393484D02*
X12098277Y-11260150D01*
X12098277Y-11298246D02*
X12107801Y-11279198D01*
X12107801Y-11279198D02*
X12117324Y-11269674D01*
X12117324Y-11269674D02*
X12136372Y-11260150D01*
X12136372Y-11260150D02*
X12155420Y-11260150D01*
X12222086Y-11393484D02*
X12222086Y-11260150D01*
X12222086Y-11193484D02*
X12212562Y-11203008D01*
X12212562Y-11203008D02*
X12222086Y-11212531D01*
X12222086Y-11212531D02*
X12231610Y-11203008D01*
X12231610Y-11203008D02*
X12222086Y-11193484D01*
X12222086Y-11193484D02*
X12222086Y-11212531D01*
X12345896Y-11393484D02*
X12326848Y-11383960D01*
X12326848Y-11383960D02*
X12317324Y-11364912D01*
X12317324Y-11364912D02*
X12317324Y-11193484D01*
X12450658Y-11393484D02*
X12431610Y-11383960D01*
X12431610Y-11383960D02*
X12422086Y-11364912D01*
X12422086Y-11364912D02*
X12422086Y-11193484D01*
X12679229Y-11393484D02*
X12679229Y-11193484D01*
X12679229Y-11193484D02*
X12745896Y-11336341D01*
X12745896Y-11336341D02*
X12812562Y-11193484D01*
X12812562Y-11193484D02*
X12812562Y-11393484D01*
X12993515Y-11393484D02*
X12993515Y-11288722D01*
X12993515Y-11288722D02*
X12983991Y-11269674D01*
X12983991Y-11269674D02*
X12964943Y-11260150D01*
X12964943Y-11260150D02*
X12926848Y-11260150D01*
X12926848Y-11260150D02*
X12907801Y-11269674D01*
X12993515Y-11383960D02*
X12974467Y-11393484D01*
X12974467Y-11393484D02*
X12926848Y-11393484D01*
X12926848Y-11393484D02*
X12907801Y-11383960D01*
X12907801Y-11383960D02*
X12898277Y-11364912D01*
X12898277Y-11364912D02*
X12898277Y-11345865D01*
X12898277Y-11345865D02*
X12907801Y-11326817D01*
X12907801Y-11326817D02*
X12926848Y-11317293D01*
X12926848Y-11317293D02*
X12974467Y-11317293D01*
X12974467Y-11317293D02*
X12993515Y-11307769D01*
X13088753Y-11260150D02*
X13088753Y-11460150D01*
X13088753Y-11269674D02*
X13107801Y-11260150D01*
X13107801Y-11260150D02*
X13145896Y-11260150D01*
X13145896Y-11260150D02*
X13164943Y-11269674D01*
X13164943Y-11269674D02*
X13174467Y-11279198D01*
X13174467Y-11279198D02*
X13183991Y-11298246D01*
X13183991Y-11298246D02*
X13183991Y-11355388D01*
X13183991Y-11355388D02*
X13174467Y-11374436D01*
X13174467Y-11374436D02*
X13164943Y-11383960D01*
X13164943Y-11383960D02*
X13145896Y-11393484D01*
X13145896Y-11393484D02*
X13107801Y-11393484D01*
X13107801Y-11393484D02*
X13088753Y-11383960D01*
X13269705Y-11374436D02*
X13279229Y-11383960D01*
X13279229Y-11383960D02*
X13269705Y-11393484D01*
X13269705Y-11393484D02*
X13260182Y-11383960D01*
X13260182Y-11383960D02*
X13269705Y-11374436D01*
X13269705Y-11374436D02*
X13269705Y-11393484D01*
X13269705Y-11269674D02*
X13279229Y-11279198D01*
X13279229Y-11279198D02*
X13269705Y-11288722D01*
X13269705Y-11288722D02*
X13260182Y-11279198D01*
X13260182Y-11279198D02*
X13269705Y-11269674D01*
X13269705Y-11269674D02*
X13269705Y-11288722D01*
M02*
