%TF.GenerationSoftware,KiCad,Pcbnew,7.0.1*%
%TF.CreationDate,2023-11-10T11:44:43+00:00*%
%TF.ProjectId,Filter,46696c74-6572-42e6-9b69-6361645f7063,rev?*%
%TF.SameCoordinates,Original*%
%TF.FileFunction,Drillmap*%
%TF.FilePolarity,Positive*%
%FSLAX45Y45*%
G04 Gerber Fmt 4.5, Leading zero omitted, Abs format (unit mm)*
G04 Created by KiCad (PCBNEW 7.0.1) date 2023-11-10 11:44:43*
%MOMM*%
%LPD*%
G01*
G04 APERTURE LIST*
%ADD10C,0.100000*%
%ADD11C,0.200000*%
%ADD12C,0.040000*%
%ADD13C,0.080000*%
%ADD14C,0.120000*%
%ADD15C,0.150000*%
%ADD16C,0.170000*%
G04 APERTURE END LIST*
D10*
X11642500Y-6173000D02*
X20173000Y-6173000D01*
X20173000Y-11077000D01*
X11642500Y-11077000D01*
X11642500Y-6173000D01*
D11*
X12135351Y-6630000D02*
G75*
G03*
X12135351Y-6630000I-160351J0D01*
G01*
X20028351Y-10633000D02*
G75*
G03*
X20028351Y-10633000I-160351J0D01*
G01*
X20034351Y-6631000D02*
G75*
G03*
X20034351Y-6631000I-160351J0D01*
G01*
X12119000Y-10634000D02*
G75*
G03*
X12119000Y-10634000I-152000J0D01*
G01*
D12*
X13233125Y-9836250D02*
X13273125Y-9876250D01*
X13273125Y-9836250D02*
X13233125Y-9876250D01*
X13439125Y-8773250D02*
X13479125Y-8813250D01*
X13479125Y-8773250D02*
X13439125Y-8813250D01*
X13627375Y-9357000D02*
X13667375Y-9397000D01*
X13667375Y-9357000D02*
X13627375Y-9397000D01*
X18144500Y-8705000D02*
X18184500Y-8745000D01*
X18184500Y-8705000D02*
X18144500Y-8745000D01*
X18266500Y-8894000D02*
X18306500Y-8934000D01*
X18306500Y-8894000D02*
X18266500Y-8934000D01*
X19058500Y-8925000D02*
X19098500Y-8965000D01*
X19098500Y-8925000D02*
X19058500Y-8965000D01*
D13*
X12867000Y-8167000D02*
G75*
G03*
X12867000Y-8167000I-40000J0D01*
G01*
X13276000Y-6855000D02*
G75*
G03*
X13276000Y-6855000I-40000J0D01*
G01*
X13276000Y-7355000D02*
G75*
G03*
X13276000Y-7355000I-40000J0D01*
G01*
X13367000Y-8167000D02*
G75*
G03*
X13367000Y-8167000I-40000J0D01*
G01*
X14091000Y-8176000D02*
G75*
G03*
X14091000Y-8176000I-40000J0D01*
G01*
X14200000Y-8893000D02*
G75*
G03*
X14200000Y-8893000I-40000J0D01*
G01*
X14202000Y-9589000D02*
G75*
G03*
X14202000Y-9589000I-40000J0D01*
G01*
X14226000Y-6583000D02*
G75*
G03*
X14226000Y-6583000I-40000J0D01*
G01*
X14591000Y-8176000D02*
G75*
G03*
X14591000Y-8176000I-40000J0D01*
G01*
X14700000Y-8893000D02*
G75*
G03*
X14700000Y-8893000I-40000J0D01*
G01*
X14702000Y-9589000D02*
G75*
G03*
X14702000Y-9589000I-40000J0D01*
G01*
X14726000Y-6583000D02*
G75*
G03*
X14726000Y-6583000I-40000J0D01*
G01*
X15881000Y-8307000D02*
G75*
G03*
X15881000Y-8307000I-40000J0D01*
G01*
X15881000Y-8807000D02*
G75*
G03*
X15881000Y-8807000I-40000J0D01*
G01*
X16228000Y-8256000D02*
G75*
G03*
X16228000Y-8256000I-40000J0D01*
G01*
X16229000Y-8648000D02*
G75*
G03*
X16229000Y-8648000I-40000J0D01*
G01*
X16229000Y-9148000D02*
G75*
G03*
X16229000Y-9148000I-40000J0D01*
G01*
X16231000Y-6769000D02*
G75*
G03*
X16231000Y-6769000I-40000J0D01*
G01*
X16233000Y-6398000D02*
G75*
G03*
X16233000Y-6398000I-40000J0D01*
G01*
X16331000Y-9419000D02*
G75*
G03*
X16331000Y-9419000I-40000J0D01*
G01*
X16541000Y-10327000D02*
G75*
G03*
X16541000Y-10327000I-40000J0D01*
G01*
X16544000Y-9949000D02*
G75*
G03*
X16544000Y-9949000I-40000J0D01*
G01*
X16728000Y-8256000D02*
G75*
G03*
X16728000Y-8256000I-40000J0D01*
G01*
X16731000Y-6769000D02*
G75*
G03*
X16731000Y-6769000I-40000J0D01*
G01*
X16733000Y-6398000D02*
G75*
G03*
X16733000Y-6398000I-40000J0D01*
G01*
X16831000Y-9419000D02*
G75*
G03*
X16831000Y-9419000I-40000J0D01*
G01*
X17041000Y-10327000D02*
G75*
G03*
X17041000Y-10327000I-40000J0D01*
G01*
X17044000Y-9949000D02*
G75*
G03*
X17044000Y-9949000I-40000J0D01*
G01*
D10*
X11845000Y-7039000D02*
X11845000Y-7139000D01*
X11795000Y-7089000D02*
X11895000Y-7089000D01*
X11845000Y-7639000D02*
X11845000Y-7739000D01*
X11795000Y-7689000D02*
X11895000Y-7689000D01*
X12878750Y-10376750D02*
X12878750Y-10476750D01*
X12828750Y-10426750D02*
X12928750Y-10426750D01*
X12945000Y-7039000D02*
X12945000Y-7139000D01*
X12895000Y-7089000D02*
X12995000Y-7089000D01*
X12945000Y-7639000D02*
X12945000Y-7739000D01*
X12895000Y-7689000D02*
X12995000Y-7689000D01*
X13132750Y-10376750D02*
X13132750Y-10476750D01*
X13082750Y-10426750D02*
X13182750Y-10426750D01*
X13386750Y-10376750D02*
X13386750Y-10476750D01*
X13336750Y-10426750D02*
X13436750Y-10426750D01*
X13640750Y-10376750D02*
X13640750Y-10476750D01*
X13590750Y-10426750D02*
X13690750Y-10426750D01*
X14523000Y-8496000D02*
X14523000Y-8596000D01*
X14473000Y-8546000D02*
X14573000Y-8546000D01*
X14588000Y-9902000D02*
X14588000Y-10002000D01*
X14538000Y-9952000D02*
X14638000Y-9952000D01*
X14641000Y-9193000D02*
X14641000Y-9293000D01*
X14591000Y-9243000D02*
X14691000Y-9243000D01*
X15523000Y-8496000D02*
X15523000Y-8596000D01*
X15473000Y-8546000D02*
X15573000Y-8546000D01*
X15588000Y-9902000D02*
X15588000Y-10002000D01*
X15538000Y-9952000D02*
X15638000Y-9952000D01*
X15641000Y-9193000D02*
X15641000Y-9293000D01*
X15591000Y-9243000D02*
X15691000Y-9243000D01*
X16084000Y-9642000D02*
X16084000Y-9742000D01*
X16034000Y-9692000D02*
X16134000Y-9692000D01*
X16084000Y-10642000D02*
X16084000Y-10742000D01*
X16034000Y-10692000D02*
X16134000Y-10692000D01*
X17276000Y-9393000D02*
X17276000Y-9493000D01*
X17226000Y-9443000D02*
X17326000Y-9443000D01*
X17289000Y-10275000D02*
X17289000Y-10375000D01*
X17239000Y-10325000D02*
X17339000Y-10325000D01*
X18276000Y-9393000D02*
X18276000Y-9493000D01*
X18226000Y-9443000D02*
X18326000Y-9443000D01*
X18289000Y-10275000D02*
X18289000Y-10375000D01*
X18239000Y-10325000D02*
X18339000Y-10325000D01*
X18836000Y-6917000D02*
X18836000Y-7017000D01*
X18786000Y-6967000D02*
X18886000Y-6967000D01*
X18836000Y-8017000D02*
X18836000Y-8117000D01*
X18786000Y-8067000D02*
X18886000Y-8067000D01*
X19436000Y-6917000D02*
X19436000Y-7017000D01*
X19386000Y-6967000D02*
X19486000Y-6967000D01*
X19436000Y-8017000D02*
X19436000Y-8117000D01*
X19386000Y-8067000D02*
X19486000Y-8067000D01*
D14*
X14566427Y-6998427D02*
X14566427Y-6913573D01*
X14481573Y-6913573D01*
X14481573Y-6998427D01*
X14566427Y-6998427D01*
X14587427Y-7814427D02*
X14587427Y-7729573D01*
X14502573Y-7729573D01*
X14502573Y-7814427D01*
X14587427Y-7814427D01*
X15865927Y-7408427D02*
X15865927Y-7323573D01*
X15781073Y-7323573D01*
X15781073Y-7408427D01*
X15865927Y-7408427D01*
X15866427Y-6998427D02*
X15866427Y-6913573D01*
X15781573Y-6913573D01*
X15781573Y-6998427D01*
X15866427Y-6998427D01*
X15887427Y-7814427D02*
X15887427Y-7729573D01*
X15802573Y-7729573D01*
X15802573Y-7814427D01*
X15887427Y-7814427D01*
X16530427Y-8691427D02*
X16530427Y-8606573D01*
X16445573Y-8606573D01*
X16445573Y-8691427D01*
X16530427Y-8691427D01*
X17072427Y-6993427D02*
X17072427Y-6908573D01*
X16987573Y-6908573D01*
X16987573Y-6993427D01*
X17072427Y-6993427D01*
X17073427Y-7824427D02*
X17073427Y-7739573D01*
X16988573Y-7739573D01*
X16988573Y-7824427D01*
X17073427Y-7824427D01*
X17165927Y-7408427D02*
X17165927Y-7323573D01*
X17081073Y-7323573D01*
X17081073Y-7408427D01*
X17165927Y-7408427D01*
X17830427Y-8691427D02*
X17830427Y-8606573D01*
X17745573Y-8606573D01*
X17745573Y-8691427D01*
X17830427Y-8691427D01*
X18372427Y-6993427D02*
X18372427Y-6908573D01*
X18287573Y-6908573D01*
X18287573Y-6993427D01*
X18372427Y-6993427D01*
X18373427Y-7824427D02*
X18373427Y-7739573D01*
X18288573Y-7739573D01*
X18288573Y-7824427D01*
X18373427Y-7824427D01*
D15*
X12168000Y-8845000D02*
X12243000Y-8770000D01*
X12168000Y-8695000D01*
X12093000Y-8770000D01*
X12168000Y-8845000D01*
X19745000Y-8802000D02*
X19820000Y-8727000D01*
X19745000Y-8652000D01*
X19670000Y-8727000D01*
X19745000Y-8802000D01*
D16*
X11829000Y-8431000D02*
X11999000Y-8601000D01*
X11999000Y-8431000D02*
X11829000Y-8601000D01*
X11999000Y-8516000D02*
G75*
G03*
X11999000Y-8516000I-85000J0D01*
G01*
X11829000Y-8939000D02*
X11999000Y-9109000D01*
X11999000Y-8939000D02*
X11829000Y-9109000D01*
X11999000Y-9024000D02*
G75*
G03*
X11999000Y-9024000I-85000J0D01*
G01*
X12337000Y-8431000D02*
X12507000Y-8601000D01*
X12507000Y-8431000D02*
X12337000Y-8601000D01*
X12507000Y-8516000D02*
G75*
G03*
X12507000Y-8516000I-85000J0D01*
G01*
X12337000Y-8939000D02*
X12507000Y-9109000D01*
X12507000Y-8939000D02*
X12337000Y-9109000D01*
X12507000Y-9024000D02*
G75*
G03*
X12507000Y-9024000I-85000J0D01*
G01*
X19406000Y-8388000D02*
X19576000Y-8558000D01*
X19576000Y-8388000D02*
X19406000Y-8558000D01*
X19576000Y-8473000D02*
G75*
G03*
X19576000Y-8473000I-85000J0D01*
G01*
X19406000Y-8896000D02*
X19576000Y-9066000D01*
X19576000Y-8896000D02*
X19406000Y-9066000D01*
X19576000Y-8981000D02*
G75*
G03*
X19576000Y-8981000I-85000J0D01*
G01*
X19914000Y-8388000D02*
X20084000Y-8558000D01*
X20084000Y-8388000D02*
X19914000Y-8558000D01*
X20084000Y-8473000D02*
G75*
G03*
X20084000Y-8473000I-85000J0D01*
G01*
X19914000Y-8896000D02*
X20084000Y-9066000D01*
X20084000Y-8896000D02*
X19914000Y-9066000D01*
X20084000Y-8981000D02*
G75*
G03*
X20084000Y-8981000I-85000J0D01*
G01*
D11*
X11885119Y-11394524D02*
X11885119Y-11194524D01*
X11885119Y-11194524D02*
X11932738Y-11194524D01*
X11932738Y-11194524D02*
X11961309Y-11204048D01*
X11961309Y-11204048D02*
X11980357Y-11223095D01*
X11980357Y-11223095D02*
X11989881Y-11242143D01*
X11989881Y-11242143D02*
X11999405Y-11280238D01*
X11999405Y-11280238D02*
X11999405Y-11308809D01*
X11999405Y-11308809D02*
X11989881Y-11346905D01*
X11989881Y-11346905D02*
X11980357Y-11365952D01*
X11980357Y-11365952D02*
X11961309Y-11385000D01*
X11961309Y-11385000D02*
X11932738Y-11394524D01*
X11932738Y-11394524D02*
X11885119Y-11394524D01*
X12085119Y-11394524D02*
X12085119Y-11261190D01*
X12085119Y-11299286D02*
X12094643Y-11280238D01*
X12094643Y-11280238D02*
X12104167Y-11270714D01*
X12104167Y-11270714D02*
X12123214Y-11261190D01*
X12123214Y-11261190D02*
X12142262Y-11261190D01*
X12208928Y-11394524D02*
X12208928Y-11261190D01*
X12208928Y-11194524D02*
X12199405Y-11204048D01*
X12199405Y-11204048D02*
X12208928Y-11213571D01*
X12208928Y-11213571D02*
X12218452Y-11204048D01*
X12218452Y-11204048D02*
X12208928Y-11194524D01*
X12208928Y-11194524D02*
X12208928Y-11213571D01*
X12332738Y-11394524D02*
X12313690Y-11385000D01*
X12313690Y-11385000D02*
X12304167Y-11365952D01*
X12304167Y-11365952D02*
X12304167Y-11194524D01*
X12437500Y-11394524D02*
X12418452Y-11385000D01*
X12418452Y-11385000D02*
X12408928Y-11365952D01*
X12408928Y-11365952D02*
X12408928Y-11194524D01*
X12666071Y-11394524D02*
X12666071Y-11194524D01*
X12666071Y-11194524D02*
X12732738Y-11337381D01*
X12732738Y-11337381D02*
X12799405Y-11194524D01*
X12799405Y-11194524D02*
X12799405Y-11394524D01*
X12980357Y-11394524D02*
X12980357Y-11289762D01*
X12980357Y-11289762D02*
X12970833Y-11270714D01*
X12970833Y-11270714D02*
X12951786Y-11261190D01*
X12951786Y-11261190D02*
X12913690Y-11261190D01*
X12913690Y-11261190D02*
X12894643Y-11270714D01*
X12980357Y-11385000D02*
X12961309Y-11394524D01*
X12961309Y-11394524D02*
X12913690Y-11394524D01*
X12913690Y-11394524D02*
X12894643Y-11385000D01*
X12894643Y-11385000D02*
X12885119Y-11365952D01*
X12885119Y-11365952D02*
X12885119Y-11346905D01*
X12885119Y-11346905D02*
X12894643Y-11327857D01*
X12894643Y-11327857D02*
X12913690Y-11318333D01*
X12913690Y-11318333D02*
X12961309Y-11318333D01*
X12961309Y-11318333D02*
X12980357Y-11308809D01*
X13075595Y-11261190D02*
X13075595Y-11461190D01*
X13075595Y-11270714D02*
X13094643Y-11261190D01*
X13094643Y-11261190D02*
X13132738Y-11261190D01*
X13132738Y-11261190D02*
X13151786Y-11270714D01*
X13151786Y-11270714D02*
X13161309Y-11280238D01*
X13161309Y-11280238D02*
X13170833Y-11299286D01*
X13170833Y-11299286D02*
X13170833Y-11356428D01*
X13170833Y-11356428D02*
X13161309Y-11375476D01*
X13161309Y-11375476D02*
X13151786Y-11385000D01*
X13151786Y-11385000D02*
X13132738Y-11394524D01*
X13132738Y-11394524D02*
X13094643Y-11394524D01*
X13094643Y-11394524D02*
X13075595Y-11385000D01*
X13256548Y-11375476D02*
X13266071Y-11385000D01*
X13266071Y-11385000D02*
X13256548Y-11394524D01*
X13256548Y-11394524D02*
X13247024Y-11385000D01*
X13247024Y-11385000D02*
X13256548Y-11375476D01*
X13256548Y-11375476D02*
X13256548Y-11394524D01*
X13256548Y-11270714D02*
X13266071Y-11280238D01*
X13266071Y-11280238D02*
X13256548Y-11289762D01*
X13256548Y-11289762D02*
X13247024Y-11280238D01*
X13247024Y-11280238D02*
X13256548Y-11270714D01*
X13256548Y-11270714D02*
X13256548Y-11289762D01*
D12*
X11597500Y-11702000D02*
X11637500Y-11742000D01*
X11637500Y-11702000D02*
X11597500Y-11742000D01*
D11*
X11923214Y-11614524D02*
X11942262Y-11614524D01*
X11942262Y-11614524D02*
X11961309Y-11624048D01*
X11961309Y-11624048D02*
X11970833Y-11633571D01*
X11970833Y-11633571D02*
X11980357Y-11652619D01*
X11980357Y-11652619D02*
X11989881Y-11690714D01*
X11989881Y-11690714D02*
X11989881Y-11738333D01*
X11989881Y-11738333D02*
X11980357Y-11776428D01*
X11980357Y-11776428D02*
X11970833Y-11795476D01*
X11970833Y-11795476D02*
X11961309Y-11805000D01*
X11961309Y-11805000D02*
X11942262Y-11814524D01*
X11942262Y-11814524D02*
X11923214Y-11814524D01*
X11923214Y-11814524D02*
X11904167Y-11805000D01*
X11904167Y-11805000D02*
X11894643Y-11795476D01*
X11894643Y-11795476D02*
X11885119Y-11776428D01*
X11885119Y-11776428D02*
X11875595Y-11738333D01*
X11875595Y-11738333D02*
X11875595Y-11690714D01*
X11875595Y-11690714D02*
X11885119Y-11652619D01*
X11885119Y-11652619D02*
X11894643Y-11633571D01*
X11894643Y-11633571D02*
X11904167Y-11624048D01*
X11904167Y-11624048D02*
X11923214Y-11614524D01*
X12075595Y-11795476D02*
X12085119Y-11805000D01*
X12085119Y-11805000D02*
X12075595Y-11814524D01*
X12075595Y-11814524D02*
X12066071Y-11805000D01*
X12066071Y-11805000D02*
X12075595Y-11795476D01*
X12075595Y-11795476D02*
X12075595Y-11814524D01*
X12256548Y-11681190D02*
X12256548Y-11814524D01*
X12208928Y-11605000D02*
X12161309Y-11747857D01*
X12161309Y-11747857D02*
X12285119Y-11747857D01*
X12399405Y-11614524D02*
X12418452Y-11614524D01*
X12418452Y-11614524D02*
X12437500Y-11624048D01*
X12437500Y-11624048D02*
X12447024Y-11633571D01*
X12447024Y-11633571D02*
X12456548Y-11652619D01*
X12456548Y-11652619D02*
X12466071Y-11690714D01*
X12466071Y-11690714D02*
X12466071Y-11738333D01*
X12466071Y-11738333D02*
X12456548Y-11776428D01*
X12456548Y-11776428D02*
X12447024Y-11795476D01*
X12447024Y-11795476D02*
X12437500Y-11805000D01*
X12437500Y-11805000D02*
X12418452Y-11814524D01*
X12418452Y-11814524D02*
X12399405Y-11814524D01*
X12399405Y-11814524D02*
X12380357Y-11805000D01*
X12380357Y-11805000D02*
X12370833Y-11795476D01*
X12370833Y-11795476D02*
X12361309Y-11776428D01*
X12361309Y-11776428D02*
X12351786Y-11738333D01*
X12351786Y-11738333D02*
X12351786Y-11690714D01*
X12351786Y-11690714D02*
X12361309Y-11652619D01*
X12361309Y-11652619D02*
X12370833Y-11633571D01*
X12370833Y-11633571D02*
X12380357Y-11624048D01*
X12380357Y-11624048D02*
X12399405Y-11614524D01*
X12589881Y-11614524D02*
X12608929Y-11614524D01*
X12608929Y-11614524D02*
X12627976Y-11624048D01*
X12627976Y-11624048D02*
X12637500Y-11633571D01*
X12637500Y-11633571D02*
X12647024Y-11652619D01*
X12647024Y-11652619D02*
X12656548Y-11690714D01*
X12656548Y-11690714D02*
X12656548Y-11738333D01*
X12656548Y-11738333D02*
X12647024Y-11776428D01*
X12647024Y-11776428D02*
X12637500Y-11795476D01*
X12637500Y-11795476D02*
X12627976Y-11805000D01*
X12627976Y-11805000D02*
X12608929Y-11814524D01*
X12608929Y-11814524D02*
X12589881Y-11814524D01*
X12589881Y-11814524D02*
X12570833Y-11805000D01*
X12570833Y-11805000D02*
X12561309Y-11795476D01*
X12561309Y-11795476D02*
X12551786Y-11776428D01*
X12551786Y-11776428D02*
X12542262Y-11738333D01*
X12542262Y-11738333D02*
X12542262Y-11690714D01*
X12542262Y-11690714D02*
X12551786Y-11652619D01*
X12551786Y-11652619D02*
X12561309Y-11633571D01*
X12561309Y-11633571D02*
X12570833Y-11624048D01*
X12570833Y-11624048D02*
X12589881Y-11614524D01*
X12742262Y-11814524D02*
X12742262Y-11681190D01*
X12742262Y-11700238D02*
X12751786Y-11690714D01*
X12751786Y-11690714D02*
X12770833Y-11681190D01*
X12770833Y-11681190D02*
X12799405Y-11681190D01*
X12799405Y-11681190D02*
X12818452Y-11690714D01*
X12818452Y-11690714D02*
X12827976Y-11709762D01*
X12827976Y-11709762D02*
X12827976Y-11814524D01*
X12827976Y-11709762D02*
X12837500Y-11690714D01*
X12837500Y-11690714D02*
X12856548Y-11681190D01*
X12856548Y-11681190D02*
X12885119Y-11681190D01*
X12885119Y-11681190D02*
X12904167Y-11690714D01*
X12904167Y-11690714D02*
X12913690Y-11709762D01*
X12913690Y-11709762D02*
X12913690Y-11814524D01*
X13008929Y-11814524D02*
X13008929Y-11681190D01*
X13008929Y-11700238D02*
X13018452Y-11690714D01*
X13018452Y-11690714D02*
X13037500Y-11681190D01*
X13037500Y-11681190D02*
X13066071Y-11681190D01*
X13066071Y-11681190D02*
X13085119Y-11690714D01*
X13085119Y-11690714D02*
X13094643Y-11709762D01*
X13094643Y-11709762D02*
X13094643Y-11814524D01*
X13094643Y-11709762D02*
X13104167Y-11690714D01*
X13104167Y-11690714D02*
X13123214Y-11681190D01*
X13123214Y-11681190D02*
X13151786Y-11681190D01*
X13151786Y-11681190D02*
X13170833Y-11690714D01*
X13170833Y-11690714D02*
X13180357Y-11709762D01*
X13180357Y-11709762D02*
X13180357Y-11814524D01*
X13570833Y-11605000D02*
X13399405Y-11862143D01*
X13827976Y-11614524D02*
X13847024Y-11614524D01*
X13847024Y-11614524D02*
X13866072Y-11624048D01*
X13866072Y-11624048D02*
X13875595Y-11633571D01*
X13875595Y-11633571D02*
X13885119Y-11652619D01*
X13885119Y-11652619D02*
X13894643Y-11690714D01*
X13894643Y-11690714D02*
X13894643Y-11738333D01*
X13894643Y-11738333D02*
X13885119Y-11776428D01*
X13885119Y-11776428D02*
X13875595Y-11795476D01*
X13875595Y-11795476D02*
X13866072Y-11805000D01*
X13866072Y-11805000D02*
X13847024Y-11814524D01*
X13847024Y-11814524D02*
X13827976Y-11814524D01*
X13827976Y-11814524D02*
X13808929Y-11805000D01*
X13808929Y-11805000D02*
X13799405Y-11795476D01*
X13799405Y-11795476D02*
X13789881Y-11776428D01*
X13789881Y-11776428D02*
X13780357Y-11738333D01*
X13780357Y-11738333D02*
X13780357Y-11690714D01*
X13780357Y-11690714D02*
X13789881Y-11652619D01*
X13789881Y-11652619D02*
X13799405Y-11633571D01*
X13799405Y-11633571D02*
X13808929Y-11624048D01*
X13808929Y-11624048D02*
X13827976Y-11614524D01*
X13980357Y-11795476D02*
X13989881Y-11805000D01*
X13989881Y-11805000D02*
X13980357Y-11814524D01*
X13980357Y-11814524D02*
X13970833Y-11805000D01*
X13970833Y-11805000D02*
X13980357Y-11795476D01*
X13980357Y-11795476D02*
X13980357Y-11814524D01*
X14113691Y-11614524D02*
X14132738Y-11614524D01*
X14132738Y-11614524D02*
X14151786Y-11624048D01*
X14151786Y-11624048D02*
X14161310Y-11633571D01*
X14161310Y-11633571D02*
X14170833Y-11652619D01*
X14170833Y-11652619D02*
X14180357Y-11690714D01*
X14180357Y-11690714D02*
X14180357Y-11738333D01*
X14180357Y-11738333D02*
X14170833Y-11776428D01*
X14170833Y-11776428D02*
X14161310Y-11795476D01*
X14161310Y-11795476D02*
X14151786Y-11805000D01*
X14151786Y-11805000D02*
X14132738Y-11814524D01*
X14132738Y-11814524D02*
X14113691Y-11814524D01*
X14113691Y-11814524D02*
X14094643Y-11805000D01*
X14094643Y-11805000D02*
X14085119Y-11795476D01*
X14085119Y-11795476D02*
X14075595Y-11776428D01*
X14075595Y-11776428D02*
X14066072Y-11738333D01*
X14066072Y-11738333D02*
X14066072Y-11690714D01*
X14066072Y-11690714D02*
X14075595Y-11652619D01*
X14075595Y-11652619D02*
X14085119Y-11633571D01*
X14085119Y-11633571D02*
X14094643Y-11624048D01*
X14094643Y-11624048D02*
X14113691Y-11614524D01*
X14370833Y-11814524D02*
X14256548Y-11814524D01*
X14313691Y-11814524D02*
X14313691Y-11614524D01*
X14313691Y-11614524D02*
X14294643Y-11643095D01*
X14294643Y-11643095D02*
X14275595Y-11662143D01*
X14275595Y-11662143D02*
X14256548Y-11671667D01*
X14551786Y-11614524D02*
X14456548Y-11614524D01*
X14456548Y-11614524D02*
X14447024Y-11709762D01*
X14447024Y-11709762D02*
X14456548Y-11700238D01*
X14456548Y-11700238D02*
X14475595Y-11690714D01*
X14475595Y-11690714D02*
X14523214Y-11690714D01*
X14523214Y-11690714D02*
X14542262Y-11700238D01*
X14542262Y-11700238D02*
X14551786Y-11709762D01*
X14551786Y-11709762D02*
X14561310Y-11728809D01*
X14561310Y-11728809D02*
X14561310Y-11776428D01*
X14561310Y-11776428D02*
X14551786Y-11795476D01*
X14551786Y-11795476D02*
X14542262Y-11805000D01*
X14542262Y-11805000D02*
X14523214Y-11814524D01*
X14523214Y-11814524D02*
X14475595Y-11814524D01*
X14475595Y-11814524D02*
X14456548Y-11805000D01*
X14456548Y-11805000D02*
X14447024Y-11795476D01*
X14627976Y-11614524D02*
X14761310Y-11614524D01*
X14761310Y-11614524D02*
X14675595Y-11814524D01*
X14827976Y-11614524D02*
X14827976Y-11652619D01*
X14904167Y-11614524D02*
X14904167Y-11652619D01*
X15199405Y-11890714D02*
X15189881Y-11881190D01*
X15189881Y-11881190D02*
X15170834Y-11852619D01*
X15170834Y-11852619D02*
X15161310Y-11833571D01*
X15161310Y-11833571D02*
X15151786Y-11805000D01*
X15151786Y-11805000D02*
X15142262Y-11757381D01*
X15142262Y-11757381D02*
X15142262Y-11719286D01*
X15142262Y-11719286D02*
X15151786Y-11671667D01*
X15151786Y-11671667D02*
X15161310Y-11643095D01*
X15161310Y-11643095D02*
X15170834Y-11624048D01*
X15170834Y-11624048D02*
X15189881Y-11595476D01*
X15189881Y-11595476D02*
X15199405Y-11585952D01*
X15361310Y-11614524D02*
X15323214Y-11614524D01*
X15323214Y-11614524D02*
X15304167Y-11624048D01*
X15304167Y-11624048D02*
X15294643Y-11633571D01*
X15294643Y-11633571D02*
X15275595Y-11662143D01*
X15275595Y-11662143D02*
X15266072Y-11700238D01*
X15266072Y-11700238D02*
X15266072Y-11776428D01*
X15266072Y-11776428D02*
X15275595Y-11795476D01*
X15275595Y-11795476D02*
X15285119Y-11805000D01*
X15285119Y-11805000D02*
X15304167Y-11814524D01*
X15304167Y-11814524D02*
X15342262Y-11814524D01*
X15342262Y-11814524D02*
X15361310Y-11805000D01*
X15361310Y-11805000D02*
X15370834Y-11795476D01*
X15370834Y-11795476D02*
X15380357Y-11776428D01*
X15380357Y-11776428D02*
X15380357Y-11728809D01*
X15380357Y-11728809D02*
X15370834Y-11709762D01*
X15370834Y-11709762D02*
X15361310Y-11700238D01*
X15361310Y-11700238D02*
X15342262Y-11690714D01*
X15342262Y-11690714D02*
X15304167Y-11690714D01*
X15304167Y-11690714D02*
X15285119Y-11700238D01*
X15285119Y-11700238D02*
X15275595Y-11709762D01*
X15275595Y-11709762D02*
X15266072Y-11728809D01*
X15618453Y-11814524D02*
X15618453Y-11614524D01*
X15704167Y-11814524D02*
X15704167Y-11709762D01*
X15704167Y-11709762D02*
X15694643Y-11690714D01*
X15694643Y-11690714D02*
X15675596Y-11681190D01*
X15675596Y-11681190D02*
X15647024Y-11681190D01*
X15647024Y-11681190D02*
X15627976Y-11690714D01*
X15627976Y-11690714D02*
X15618453Y-11700238D01*
X15827976Y-11814524D02*
X15808929Y-11805000D01*
X15808929Y-11805000D02*
X15799405Y-11795476D01*
X15799405Y-11795476D02*
X15789881Y-11776428D01*
X15789881Y-11776428D02*
X15789881Y-11719286D01*
X15789881Y-11719286D02*
X15799405Y-11700238D01*
X15799405Y-11700238D02*
X15808929Y-11690714D01*
X15808929Y-11690714D02*
X15827976Y-11681190D01*
X15827976Y-11681190D02*
X15856548Y-11681190D01*
X15856548Y-11681190D02*
X15875596Y-11690714D01*
X15875596Y-11690714D02*
X15885119Y-11700238D01*
X15885119Y-11700238D02*
X15894643Y-11719286D01*
X15894643Y-11719286D02*
X15894643Y-11776428D01*
X15894643Y-11776428D02*
X15885119Y-11795476D01*
X15885119Y-11795476D02*
X15875596Y-11805000D01*
X15875596Y-11805000D02*
X15856548Y-11814524D01*
X15856548Y-11814524D02*
X15827976Y-11814524D01*
X16008929Y-11814524D02*
X15989881Y-11805000D01*
X15989881Y-11805000D02*
X15980357Y-11785952D01*
X15980357Y-11785952D02*
X15980357Y-11614524D01*
X16161310Y-11805000D02*
X16142262Y-11814524D01*
X16142262Y-11814524D02*
X16104167Y-11814524D01*
X16104167Y-11814524D02*
X16085119Y-11805000D01*
X16085119Y-11805000D02*
X16075596Y-11785952D01*
X16075596Y-11785952D02*
X16075596Y-11709762D01*
X16075596Y-11709762D02*
X16085119Y-11690714D01*
X16085119Y-11690714D02*
X16104167Y-11681190D01*
X16104167Y-11681190D02*
X16142262Y-11681190D01*
X16142262Y-11681190D02*
X16161310Y-11690714D01*
X16161310Y-11690714D02*
X16170834Y-11709762D01*
X16170834Y-11709762D02*
X16170834Y-11728809D01*
X16170834Y-11728809D02*
X16075596Y-11747857D01*
X16247024Y-11805000D02*
X16266072Y-11814524D01*
X16266072Y-11814524D02*
X16304167Y-11814524D01*
X16304167Y-11814524D02*
X16323215Y-11805000D01*
X16323215Y-11805000D02*
X16332738Y-11785952D01*
X16332738Y-11785952D02*
X16332738Y-11776428D01*
X16332738Y-11776428D02*
X16323215Y-11757381D01*
X16323215Y-11757381D02*
X16304167Y-11747857D01*
X16304167Y-11747857D02*
X16275596Y-11747857D01*
X16275596Y-11747857D02*
X16256548Y-11738333D01*
X16256548Y-11738333D02*
X16247024Y-11719286D01*
X16247024Y-11719286D02*
X16247024Y-11709762D01*
X16247024Y-11709762D02*
X16256548Y-11690714D01*
X16256548Y-11690714D02*
X16275596Y-11681190D01*
X16275596Y-11681190D02*
X16304167Y-11681190D01*
X16304167Y-11681190D02*
X16323215Y-11690714D01*
X16399405Y-11890714D02*
X16408929Y-11881190D01*
X16408929Y-11881190D02*
X16427977Y-11852619D01*
X16427977Y-11852619D02*
X16437500Y-11833571D01*
X16437500Y-11833571D02*
X16447024Y-11805000D01*
X16447024Y-11805000D02*
X16456548Y-11757381D01*
X16456548Y-11757381D02*
X16456548Y-11719286D01*
X16456548Y-11719286D02*
X16447024Y-11671667D01*
X16447024Y-11671667D02*
X16437500Y-11643095D01*
X16437500Y-11643095D02*
X16427977Y-11624048D01*
X16427977Y-11624048D02*
X16408929Y-11595476D01*
X16408929Y-11595476D02*
X16399405Y-11585952D01*
D13*
X11637500Y-11986000D02*
G75*
G03*
X11637500Y-11986000I-40000J0D01*
G01*
D11*
X11923214Y-11878524D02*
X11942262Y-11878524D01*
X11942262Y-11878524D02*
X11961309Y-11888048D01*
X11961309Y-11888048D02*
X11970833Y-11897571D01*
X11970833Y-11897571D02*
X11980357Y-11916619D01*
X11980357Y-11916619D02*
X11989881Y-11954714D01*
X11989881Y-11954714D02*
X11989881Y-12002333D01*
X11989881Y-12002333D02*
X11980357Y-12040428D01*
X11980357Y-12040428D02*
X11970833Y-12059476D01*
X11970833Y-12059476D02*
X11961309Y-12069000D01*
X11961309Y-12069000D02*
X11942262Y-12078524D01*
X11942262Y-12078524D02*
X11923214Y-12078524D01*
X11923214Y-12078524D02*
X11904167Y-12069000D01*
X11904167Y-12069000D02*
X11894643Y-12059476D01*
X11894643Y-12059476D02*
X11885119Y-12040428D01*
X11885119Y-12040428D02*
X11875595Y-12002333D01*
X11875595Y-12002333D02*
X11875595Y-11954714D01*
X11875595Y-11954714D02*
X11885119Y-11916619D01*
X11885119Y-11916619D02*
X11894643Y-11897571D01*
X11894643Y-11897571D02*
X11904167Y-11888048D01*
X11904167Y-11888048D02*
X11923214Y-11878524D01*
X12075595Y-12059476D02*
X12085119Y-12069000D01*
X12085119Y-12069000D02*
X12075595Y-12078524D01*
X12075595Y-12078524D02*
X12066071Y-12069000D01*
X12066071Y-12069000D02*
X12075595Y-12059476D01*
X12075595Y-12059476D02*
X12075595Y-12078524D01*
X12199405Y-11964238D02*
X12180357Y-11954714D01*
X12180357Y-11954714D02*
X12170833Y-11945190D01*
X12170833Y-11945190D02*
X12161309Y-11926143D01*
X12161309Y-11926143D02*
X12161309Y-11916619D01*
X12161309Y-11916619D02*
X12170833Y-11897571D01*
X12170833Y-11897571D02*
X12180357Y-11888048D01*
X12180357Y-11888048D02*
X12199405Y-11878524D01*
X12199405Y-11878524D02*
X12237500Y-11878524D01*
X12237500Y-11878524D02*
X12256548Y-11888048D01*
X12256548Y-11888048D02*
X12266071Y-11897571D01*
X12266071Y-11897571D02*
X12275595Y-11916619D01*
X12275595Y-11916619D02*
X12275595Y-11926143D01*
X12275595Y-11926143D02*
X12266071Y-11945190D01*
X12266071Y-11945190D02*
X12256548Y-11954714D01*
X12256548Y-11954714D02*
X12237500Y-11964238D01*
X12237500Y-11964238D02*
X12199405Y-11964238D01*
X12199405Y-11964238D02*
X12180357Y-11973762D01*
X12180357Y-11973762D02*
X12170833Y-11983286D01*
X12170833Y-11983286D02*
X12161309Y-12002333D01*
X12161309Y-12002333D02*
X12161309Y-12040428D01*
X12161309Y-12040428D02*
X12170833Y-12059476D01*
X12170833Y-12059476D02*
X12180357Y-12069000D01*
X12180357Y-12069000D02*
X12199405Y-12078524D01*
X12199405Y-12078524D02*
X12237500Y-12078524D01*
X12237500Y-12078524D02*
X12256548Y-12069000D01*
X12256548Y-12069000D02*
X12266071Y-12059476D01*
X12266071Y-12059476D02*
X12275595Y-12040428D01*
X12275595Y-12040428D02*
X12275595Y-12002333D01*
X12275595Y-12002333D02*
X12266071Y-11983286D01*
X12266071Y-11983286D02*
X12256548Y-11973762D01*
X12256548Y-11973762D02*
X12237500Y-11964238D01*
X12399405Y-11878524D02*
X12418452Y-11878524D01*
X12418452Y-11878524D02*
X12437500Y-11888048D01*
X12437500Y-11888048D02*
X12447024Y-11897571D01*
X12447024Y-11897571D02*
X12456548Y-11916619D01*
X12456548Y-11916619D02*
X12466071Y-11954714D01*
X12466071Y-11954714D02*
X12466071Y-12002333D01*
X12466071Y-12002333D02*
X12456548Y-12040428D01*
X12456548Y-12040428D02*
X12447024Y-12059476D01*
X12447024Y-12059476D02*
X12437500Y-12069000D01*
X12437500Y-12069000D02*
X12418452Y-12078524D01*
X12418452Y-12078524D02*
X12399405Y-12078524D01*
X12399405Y-12078524D02*
X12380357Y-12069000D01*
X12380357Y-12069000D02*
X12370833Y-12059476D01*
X12370833Y-12059476D02*
X12361309Y-12040428D01*
X12361309Y-12040428D02*
X12351786Y-12002333D01*
X12351786Y-12002333D02*
X12351786Y-11954714D01*
X12351786Y-11954714D02*
X12361309Y-11916619D01*
X12361309Y-11916619D02*
X12370833Y-11897571D01*
X12370833Y-11897571D02*
X12380357Y-11888048D01*
X12380357Y-11888048D02*
X12399405Y-11878524D01*
X12589881Y-11878524D02*
X12608929Y-11878524D01*
X12608929Y-11878524D02*
X12627976Y-11888048D01*
X12627976Y-11888048D02*
X12637500Y-11897571D01*
X12637500Y-11897571D02*
X12647024Y-11916619D01*
X12647024Y-11916619D02*
X12656548Y-11954714D01*
X12656548Y-11954714D02*
X12656548Y-12002333D01*
X12656548Y-12002333D02*
X12647024Y-12040428D01*
X12647024Y-12040428D02*
X12637500Y-12059476D01*
X12637500Y-12059476D02*
X12627976Y-12069000D01*
X12627976Y-12069000D02*
X12608929Y-12078524D01*
X12608929Y-12078524D02*
X12589881Y-12078524D01*
X12589881Y-12078524D02*
X12570833Y-12069000D01*
X12570833Y-12069000D02*
X12561309Y-12059476D01*
X12561309Y-12059476D02*
X12551786Y-12040428D01*
X12551786Y-12040428D02*
X12542262Y-12002333D01*
X12542262Y-12002333D02*
X12542262Y-11954714D01*
X12542262Y-11954714D02*
X12551786Y-11916619D01*
X12551786Y-11916619D02*
X12561309Y-11897571D01*
X12561309Y-11897571D02*
X12570833Y-11888048D01*
X12570833Y-11888048D02*
X12589881Y-11878524D01*
X12742262Y-12078524D02*
X12742262Y-11945190D01*
X12742262Y-11964238D02*
X12751786Y-11954714D01*
X12751786Y-11954714D02*
X12770833Y-11945190D01*
X12770833Y-11945190D02*
X12799405Y-11945190D01*
X12799405Y-11945190D02*
X12818452Y-11954714D01*
X12818452Y-11954714D02*
X12827976Y-11973762D01*
X12827976Y-11973762D02*
X12827976Y-12078524D01*
X12827976Y-11973762D02*
X12837500Y-11954714D01*
X12837500Y-11954714D02*
X12856548Y-11945190D01*
X12856548Y-11945190D02*
X12885119Y-11945190D01*
X12885119Y-11945190D02*
X12904167Y-11954714D01*
X12904167Y-11954714D02*
X12913690Y-11973762D01*
X12913690Y-11973762D02*
X12913690Y-12078524D01*
X13008929Y-12078524D02*
X13008929Y-11945190D01*
X13008929Y-11964238D02*
X13018452Y-11954714D01*
X13018452Y-11954714D02*
X13037500Y-11945190D01*
X13037500Y-11945190D02*
X13066071Y-11945190D01*
X13066071Y-11945190D02*
X13085119Y-11954714D01*
X13085119Y-11954714D02*
X13094643Y-11973762D01*
X13094643Y-11973762D02*
X13094643Y-12078524D01*
X13094643Y-11973762D02*
X13104167Y-11954714D01*
X13104167Y-11954714D02*
X13123214Y-11945190D01*
X13123214Y-11945190D02*
X13151786Y-11945190D01*
X13151786Y-11945190D02*
X13170833Y-11954714D01*
X13170833Y-11954714D02*
X13180357Y-11973762D01*
X13180357Y-11973762D02*
X13180357Y-12078524D01*
X13570833Y-11869000D02*
X13399405Y-12126143D01*
X13827976Y-11878524D02*
X13847024Y-11878524D01*
X13847024Y-11878524D02*
X13866072Y-11888048D01*
X13866072Y-11888048D02*
X13875595Y-11897571D01*
X13875595Y-11897571D02*
X13885119Y-11916619D01*
X13885119Y-11916619D02*
X13894643Y-11954714D01*
X13894643Y-11954714D02*
X13894643Y-12002333D01*
X13894643Y-12002333D02*
X13885119Y-12040428D01*
X13885119Y-12040428D02*
X13875595Y-12059476D01*
X13875595Y-12059476D02*
X13866072Y-12069000D01*
X13866072Y-12069000D02*
X13847024Y-12078524D01*
X13847024Y-12078524D02*
X13827976Y-12078524D01*
X13827976Y-12078524D02*
X13808929Y-12069000D01*
X13808929Y-12069000D02*
X13799405Y-12059476D01*
X13799405Y-12059476D02*
X13789881Y-12040428D01*
X13789881Y-12040428D02*
X13780357Y-12002333D01*
X13780357Y-12002333D02*
X13780357Y-11954714D01*
X13780357Y-11954714D02*
X13789881Y-11916619D01*
X13789881Y-11916619D02*
X13799405Y-11897571D01*
X13799405Y-11897571D02*
X13808929Y-11888048D01*
X13808929Y-11888048D02*
X13827976Y-11878524D01*
X13980357Y-12059476D02*
X13989881Y-12069000D01*
X13989881Y-12069000D02*
X13980357Y-12078524D01*
X13980357Y-12078524D02*
X13970833Y-12069000D01*
X13970833Y-12069000D02*
X13980357Y-12059476D01*
X13980357Y-12059476D02*
X13980357Y-12078524D01*
X14113691Y-11878524D02*
X14132738Y-11878524D01*
X14132738Y-11878524D02*
X14151786Y-11888048D01*
X14151786Y-11888048D02*
X14161310Y-11897571D01*
X14161310Y-11897571D02*
X14170833Y-11916619D01*
X14170833Y-11916619D02*
X14180357Y-11954714D01*
X14180357Y-11954714D02*
X14180357Y-12002333D01*
X14180357Y-12002333D02*
X14170833Y-12040428D01*
X14170833Y-12040428D02*
X14161310Y-12059476D01*
X14161310Y-12059476D02*
X14151786Y-12069000D01*
X14151786Y-12069000D02*
X14132738Y-12078524D01*
X14132738Y-12078524D02*
X14113691Y-12078524D01*
X14113691Y-12078524D02*
X14094643Y-12069000D01*
X14094643Y-12069000D02*
X14085119Y-12059476D01*
X14085119Y-12059476D02*
X14075595Y-12040428D01*
X14075595Y-12040428D02*
X14066072Y-12002333D01*
X14066072Y-12002333D02*
X14066072Y-11954714D01*
X14066072Y-11954714D02*
X14075595Y-11916619D01*
X14075595Y-11916619D02*
X14085119Y-11897571D01*
X14085119Y-11897571D02*
X14094643Y-11888048D01*
X14094643Y-11888048D02*
X14113691Y-11878524D01*
X14247024Y-11878524D02*
X14370833Y-11878524D01*
X14370833Y-11878524D02*
X14304167Y-11954714D01*
X14304167Y-11954714D02*
X14332738Y-11954714D01*
X14332738Y-11954714D02*
X14351786Y-11964238D01*
X14351786Y-11964238D02*
X14361310Y-11973762D01*
X14361310Y-11973762D02*
X14370833Y-11992809D01*
X14370833Y-11992809D02*
X14370833Y-12040428D01*
X14370833Y-12040428D02*
X14361310Y-12059476D01*
X14361310Y-12059476D02*
X14351786Y-12069000D01*
X14351786Y-12069000D02*
X14332738Y-12078524D01*
X14332738Y-12078524D02*
X14275595Y-12078524D01*
X14275595Y-12078524D02*
X14256548Y-12069000D01*
X14256548Y-12069000D02*
X14247024Y-12059476D01*
X14561310Y-12078524D02*
X14447024Y-12078524D01*
X14504167Y-12078524D02*
X14504167Y-11878524D01*
X14504167Y-11878524D02*
X14485119Y-11907095D01*
X14485119Y-11907095D02*
X14466072Y-11926143D01*
X14466072Y-11926143D02*
X14447024Y-11935667D01*
X14742262Y-11878524D02*
X14647024Y-11878524D01*
X14647024Y-11878524D02*
X14637500Y-11973762D01*
X14637500Y-11973762D02*
X14647024Y-11964238D01*
X14647024Y-11964238D02*
X14666072Y-11954714D01*
X14666072Y-11954714D02*
X14713691Y-11954714D01*
X14713691Y-11954714D02*
X14732738Y-11964238D01*
X14732738Y-11964238D02*
X14742262Y-11973762D01*
X14742262Y-11973762D02*
X14751786Y-11992809D01*
X14751786Y-11992809D02*
X14751786Y-12040428D01*
X14751786Y-12040428D02*
X14742262Y-12059476D01*
X14742262Y-12059476D02*
X14732738Y-12069000D01*
X14732738Y-12069000D02*
X14713691Y-12078524D01*
X14713691Y-12078524D02*
X14666072Y-12078524D01*
X14666072Y-12078524D02*
X14647024Y-12069000D01*
X14647024Y-12069000D02*
X14637500Y-12059476D01*
X14827976Y-11878524D02*
X14827976Y-11916619D01*
X14904167Y-11878524D02*
X14904167Y-11916619D01*
X15199405Y-12154714D02*
X15189881Y-12145190D01*
X15189881Y-12145190D02*
X15170834Y-12116619D01*
X15170834Y-12116619D02*
X15161310Y-12097571D01*
X15161310Y-12097571D02*
X15151786Y-12069000D01*
X15151786Y-12069000D02*
X15142262Y-12021381D01*
X15142262Y-12021381D02*
X15142262Y-11983286D01*
X15142262Y-11983286D02*
X15151786Y-11935667D01*
X15151786Y-11935667D02*
X15161310Y-11907095D01*
X15161310Y-11907095D02*
X15170834Y-11888048D01*
X15170834Y-11888048D02*
X15189881Y-11859476D01*
X15189881Y-11859476D02*
X15199405Y-11849952D01*
X15266072Y-11897571D02*
X15275595Y-11888048D01*
X15275595Y-11888048D02*
X15294643Y-11878524D01*
X15294643Y-11878524D02*
X15342262Y-11878524D01*
X15342262Y-11878524D02*
X15361310Y-11888048D01*
X15361310Y-11888048D02*
X15370834Y-11897571D01*
X15370834Y-11897571D02*
X15380357Y-11916619D01*
X15380357Y-11916619D02*
X15380357Y-11935667D01*
X15380357Y-11935667D02*
X15370834Y-11964238D01*
X15370834Y-11964238D02*
X15256548Y-12078524D01*
X15256548Y-12078524D02*
X15380357Y-12078524D01*
X15494643Y-11964238D02*
X15475595Y-11954714D01*
X15475595Y-11954714D02*
X15466072Y-11945190D01*
X15466072Y-11945190D02*
X15456548Y-11926143D01*
X15456548Y-11926143D02*
X15456548Y-11916619D01*
X15456548Y-11916619D02*
X15466072Y-11897571D01*
X15466072Y-11897571D02*
X15475595Y-11888048D01*
X15475595Y-11888048D02*
X15494643Y-11878524D01*
X15494643Y-11878524D02*
X15532738Y-11878524D01*
X15532738Y-11878524D02*
X15551786Y-11888048D01*
X15551786Y-11888048D02*
X15561310Y-11897571D01*
X15561310Y-11897571D02*
X15570834Y-11916619D01*
X15570834Y-11916619D02*
X15570834Y-11926143D01*
X15570834Y-11926143D02*
X15561310Y-11945190D01*
X15561310Y-11945190D02*
X15551786Y-11954714D01*
X15551786Y-11954714D02*
X15532738Y-11964238D01*
X15532738Y-11964238D02*
X15494643Y-11964238D01*
X15494643Y-11964238D02*
X15475595Y-11973762D01*
X15475595Y-11973762D02*
X15466072Y-11983286D01*
X15466072Y-11983286D02*
X15456548Y-12002333D01*
X15456548Y-12002333D02*
X15456548Y-12040428D01*
X15456548Y-12040428D02*
X15466072Y-12059476D01*
X15466072Y-12059476D02*
X15475595Y-12069000D01*
X15475595Y-12069000D02*
X15494643Y-12078524D01*
X15494643Y-12078524D02*
X15532738Y-12078524D01*
X15532738Y-12078524D02*
X15551786Y-12069000D01*
X15551786Y-12069000D02*
X15561310Y-12059476D01*
X15561310Y-12059476D02*
X15570834Y-12040428D01*
X15570834Y-12040428D02*
X15570834Y-12002333D01*
X15570834Y-12002333D02*
X15561310Y-11983286D01*
X15561310Y-11983286D02*
X15551786Y-11973762D01*
X15551786Y-11973762D02*
X15532738Y-11964238D01*
X15808929Y-12078524D02*
X15808929Y-11878524D01*
X15894643Y-12078524D02*
X15894643Y-11973762D01*
X15894643Y-11973762D02*
X15885119Y-11954714D01*
X15885119Y-11954714D02*
X15866072Y-11945190D01*
X15866072Y-11945190D02*
X15837500Y-11945190D01*
X15837500Y-11945190D02*
X15818453Y-11954714D01*
X15818453Y-11954714D02*
X15808929Y-11964238D01*
X16018453Y-12078524D02*
X15999405Y-12069000D01*
X15999405Y-12069000D02*
X15989881Y-12059476D01*
X15989881Y-12059476D02*
X15980357Y-12040428D01*
X15980357Y-12040428D02*
X15980357Y-11983286D01*
X15980357Y-11983286D02*
X15989881Y-11964238D01*
X15989881Y-11964238D02*
X15999405Y-11954714D01*
X15999405Y-11954714D02*
X16018453Y-11945190D01*
X16018453Y-11945190D02*
X16047024Y-11945190D01*
X16047024Y-11945190D02*
X16066072Y-11954714D01*
X16066072Y-11954714D02*
X16075596Y-11964238D01*
X16075596Y-11964238D02*
X16085119Y-11983286D01*
X16085119Y-11983286D02*
X16085119Y-12040428D01*
X16085119Y-12040428D02*
X16075596Y-12059476D01*
X16075596Y-12059476D02*
X16066072Y-12069000D01*
X16066072Y-12069000D02*
X16047024Y-12078524D01*
X16047024Y-12078524D02*
X16018453Y-12078524D01*
X16199405Y-12078524D02*
X16180357Y-12069000D01*
X16180357Y-12069000D02*
X16170834Y-12049952D01*
X16170834Y-12049952D02*
X16170834Y-11878524D01*
X16351786Y-12069000D02*
X16332738Y-12078524D01*
X16332738Y-12078524D02*
X16294643Y-12078524D01*
X16294643Y-12078524D02*
X16275596Y-12069000D01*
X16275596Y-12069000D02*
X16266072Y-12049952D01*
X16266072Y-12049952D02*
X16266072Y-11973762D01*
X16266072Y-11973762D02*
X16275596Y-11954714D01*
X16275596Y-11954714D02*
X16294643Y-11945190D01*
X16294643Y-11945190D02*
X16332738Y-11945190D01*
X16332738Y-11945190D02*
X16351786Y-11954714D01*
X16351786Y-11954714D02*
X16361310Y-11973762D01*
X16361310Y-11973762D02*
X16361310Y-11992809D01*
X16361310Y-11992809D02*
X16266072Y-12011857D01*
X16437500Y-12069000D02*
X16456548Y-12078524D01*
X16456548Y-12078524D02*
X16494643Y-12078524D01*
X16494643Y-12078524D02*
X16513691Y-12069000D01*
X16513691Y-12069000D02*
X16523215Y-12049952D01*
X16523215Y-12049952D02*
X16523215Y-12040428D01*
X16523215Y-12040428D02*
X16513691Y-12021381D01*
X16513691Y-12021381D02*
X16494643Y-12011857D01*
X16494643Y-12011857D02*
X16466072Y-12011857D01*
X16466072Y-12011857D02*
X16447024Y-12002333D01*
X16447024Y-12002333D02*
X16437500Y-11983286D01*
X16437500Y-11983286D02*
X16437500Y-11973762D01*
X16437500Y-11973762D02*
X16447024Y-11954714D01*
X16447024Y-11954714D02*
X16466072Y-11945190D01*
X16466072Y-11945190D02*
X16494643Y-11945190D01*
X16494643Y-11945190D02*
X16513691Y-11954714D01*
X16589881Y-12154714D02*
X16599405Y-12145190D01*
X16599405Y-12145190D02*
X16618453Y-12116619D01*
X16618453Y-12116619D02*
X16627977Y-12097571D01*
X16627977Y-12097571D02*
X16637500Y-12069000D01*
X16637500Y-12069000D02*
X16647024Y-12021381D01*
X16647024Y-12021381D02*
X16647024Y-11983286D01*
X16647024Y-11983286D02*
X16637500Y-11935667D01*
X16637500Y-11935667D02*
X16627977Y-11907095D01*
X16627977Y-11907095D02*
X16618453Y-11888048D01*
X16618453Y-11888048D02*
X16599405Y-11859476D01*
X16599405Y-11859476D02*
X16589881Y-11849952D01*
D10*
X11587500Y-12200000D02*
X11587500Y-12300000D01*
X11537500Y-12250000D02*
X11637500Y-12250000D01*
D11*
X11989881Y-12342524D02*
X11875595Y-12342524D01*
X11932738Y-12342524D02*
X11932738Y-12142524D01*
X11932738Y-12142524D02*
X11913690Y-12171095D01*
X11913690Y-12171095D02*
X11894643Y-12190143D01*
X11894643Y-12190143D02*
X11875595Y-12199667D01*
X12075595Y-12323476D02*
X12085119Y-12333000D01*
X12085119Y-12333000D02*
X12075595Y-12342524D01*
X12075595Y-12342524D02*
X12066071Y-12333000D01*
X12066071Y-12333000D02*
X12075595Y-12323476D01*
X12075595Y-12323476D02*
X12075595Y-12342524D01*
X12208928Y-12142524D02*
X12227976Y-12142524D01*
X12227976Y-12142524D02*
X12247024Y-12152048D01*
X12247024Y-12152048D02*
X12256548Y-12161571D01*
X12256548Y-12161571D02*
X12266071Y-12180619D01*
X12266071Y-12180619D02*
X12275595Y-12218714D01*
X12275595Y-12218714D02*
X12275595Y-12266333D01*
X12275595Y-12266333D02*
X12266071Y-12304428D01*
X12266071Y-12304428D02*
X12256548Y-12323476D01*
X12256548Y-12323476D02*
X12247024Y-12333000D01*
X12247024Y-12333000D02*
X12227976Y-12342524D01*
X12227976Y-12342524D02*
X12208928Y-12342524D01*
X12208928Y-12342524D02*
X12189881Y-12333000D01*
X12189881Y-12333000D02*
X12180357Y-12323476D01*
X12180357Y-12323476D02*
X12170833Y-12304428D01*
X12170833Y-12304428D02*
X12161309Y-12266333D01*
X12161309Y-12266333D02*
X12161309Y-12218714D01*
X12161309Y-12218714D02*
X12170833Y-12180619D01*
X12170833Y-12180619D02*
X12180357Y-12161571D01*
X12180357Y-12161571D02*
X12189881Y-12152048D01*
X12189881Y-12152048D02*
X12208928Y-12142524D01*
X12399405Y-12142524D02*
X12418452Y-12142524D01*
X12418452Y-12142524D02*
X12437500Y-12152048D01*
X12437500Y-12152048D02*
X12447024Y-12161571D01*
X12447024Y-12161571D02*
X12456548Y-12180619D01*
X12456548Y-12180619D02*
X12466071Y-12218714D01*
X12466071Y-12218714D02*
X12466071Y-12266333D01*
X12466071Y-12266333D02*
X12456548Y-12304428D01*
X12456548Y-12304428D02*
X12447024Y-12323476D01*
X12447024Y-12323476D02*
X12437500Y-12333000D01*
X12437500Y-12333000D02*
X12418452Y-12342524D01*
X12418452Y-12342524D02*
X12399405Y-12342524D01*
X12399405Y-12342524D02*
X12380357Y-12333000D01*
X12380357Y-12333000D02*
X12370833Y-12323476D01*
X12370833Y-12323476D02*
X12361309Y-12304428D01*
X12361309Y-12304428D02*
X12351786Y-12266333D01*
X12351786Y-12266333D02*
X12351786Y-12218714D01*
X12351786Y-12218714D02*
X12361309Y-12180619D01*
X12361309Y-12180619D02*
X12370833Y-12161571D01*
X12370833Y-12161571D02*
X12380357Y-12152048D01*
X12380357Y-12152048D02*
X12399405Y-12142524D01*
X12589881Y-12142524D02*
X12608929Y-12142524D01*
X12608929Y-12142524D02*
X12627976Y-12152048D01*
X12627976Y-12152048D02*
X12637500Y-12161571D01*
X12637500Y-12161571D02*
X12647024Y-12180619D01*
X12647024Y-12180619D02*
X12656548Y-12218714D01*
X12656548Y-12218714D02*
X12656548Y-12266333D01*
X12656548Y-12266333D02*
X12647024Y-12304428D01*
X12647024Y-12304428D02*
X12637500Y-12323476D01*
X12637500Y-12323476D02*
X12627976Y-12333000D01*
X12627976Y-12333000D02*
X12608929Y-12342524D01*
X12608929Y-12342524D02*
X12589881Y-12342524D01*
X12589881Y-12342524D02*
X12570833Y-12333000D01*
X12570833Y-12333000D02*
X12561309Y-12323476D01*
X12561309Y-12323476D02*
X12551786Y-12304428D01*
X12551786Y-12304428D02*
X12542262Y-12266333D01*
X12542262Y-12266333D02*
X12542262Y-12218714D01*
X12542262Y-12218714D02*
X12551786Y-12180619D01*
X12551786Y-12180619D02*
X12561309Y-12161571D01*
X12561309Y-12161571D02*
X12570833Y-12152048D01*
X12570833Y-12152048D02*
X12589881Y-12142524D01*
X12742262Y-12342524D02*
X12742262Y-12209190D01*
X12742262Y-12228238D02*
X12751786Y-12218714D01*
X12751786Y-12218714D02*
X12770833Y-12209190D01*
X12770833Y-12209190D02*
X12799405Y-12209190D01*
X12799405Y-12209190D02*
X12818452Y-12218714D01*
X12818452Y-12218714D02*
X12827976Y-12237762D01*
X12827976Y-12237762D02*
X12827976Y-12342524D01*
X12827976Y-12237762D02*
X12837500Y-12218714D01*
X12837500Y-12218714D02*
X12856548Y-12209190D01*
X12856548Y-12209190D02*
X12885119Y-12209190D01*
X12885119Y-12209190D02*
X12904167Y-12218714D01*
X12904167Y-12218714D02*
X12913690Y-12237762D01*
X12913690Y-12237762D02*
X12913690Y-12342524D01*
X13008929Y-12342524D02*
X13008929Y-12209190D01*
X13008929Y-12228238D02*
X13018452Y-12218714D01*
X13018452Y-12218714D02*
X13037500Y-12209190D01*
X13037500Y-12209190D02*
X13066071Y-12209190D01*
X13066071Y-12209190D02*
X13085119Y-12218714D01*
X13085119Y-12218714D02*
X13094643Y-12237762D01*
X13094643Y-12237762D02*
X13094643Y-12342524D01*
X13094643Y-12237762D02*
X13104167Y-12218714D01*
X13104167Y-12218714D02*
X13123214Y-12209190D01*
X13123214Y-12209190D02*
X13151786Y-12209190D01*
X13151786Y-12209190D02*
X13170833Y-12218714D01*
X13170833Y-12218714D02*
X13180357Y-12237762D01*
X13180357Y-12237762D02*
X13180357Y-12342524D01*
X13570833Y-12133000D02*
X13399405Y-12390143D01*
X13827976Y-12142524D02*
X13847024Y-12142524D01*
X13847024Y-12142524D02*
X13866072Y-12152048D01*
X13866072Y-12152048D02*
X13875595Y-12161571D01*
X13875595Y-12161571D02*
X13885119Y-12180619D01*
X13885119Y-12180619D02*
X13894643Y-12218714D01*
X13894643Y-12218714D02*
X13894643Y-12266333D01*
X13894643Y-12266333D02*
X13885119Y-12304428D01*
X13885119Y-12304428D02*
X13875595Y-12323476D01*
X13875595Y-12323476D02*
X13866072Y-12333000D01*
X13866072Y-12333000D02*
X13847024Y-12342524D01*
X13847024Y-12342524D02*
X13827976Y-12342524D01*
X13827976Y-12342524D02*
X13808929Y-12333000D01*
X13808929Y-12333000D02*
X13799405Y-12323476D01*
X13799405Y-12323476D02*
X13789881Y-12304428D01*
X13789881Y-12304428D02*
X13780357Y-12266333D01*
X13780357Y-12266333D02*
X13780357Y-12218714D01*
X13780357Y-12218714D02*
X13789881Y-12180619D01*
X13789881Y-12180619D02*
X13799405Y-12161571D01*
X13799405Y-12161571D02*
X13808929Y-12152048D01*
X13808929Y-12152048D02*
X13827976Y-12142524D01*
X13980357Y-12323476D02*
X13989881Y-12333000D01*
X13989881Y-12333000D02*
X13980357Y-12342524D01*
X13980357Y-12342524D02*
X13970833Y-12333000D01*
X13970833Y-12333000D02*
X13980357Y-12323476D01*
X13980357Y-12323476D02*
X13980357Y-12342524D01*
X14113691Y-12142524D02*
X14132738Y-12142524D01*
X14132738Y-12142524D02*
X14151786Y-12152048D01*
X14151786Y-12152048D02*
X14161310Y-12161571D01*
X14161310Y-12161571D02*
X14170833Y-12180619D01*
X14170833Y-12180619D02*
X14180357Y-12218714D01*
X14180357Y-12218714D02*
X14180357Y-12266333D01*
X14180357Y-12266333D02*
X14170833Y-12304428D01*
X14170833Y-12304428D02*
X14161310Y-12323476D01*
X14161310Y-12323476D02*
X14151786Y-12333000D01*
X14151786Y-12333000D02*
X14132738Y-12342524D01*
X14132738Y-12342524D02*
X14113691Y-12342524D01*
X14113691Y-12342524D02*
X14094643Y-12333000D01*
X14094643Y-12333000D02*
X14085119Y-12323476D01*
X14085119Y-12323476D02*
X14075595Y-12304428D01*
X14075595Y-12304428D02*
X14066072Y-12266333D01*
X14066072Y-12266333D02*
X14066072Y-12218714D01*
X14066072Y-12218714D02*
X14075595Y-12180619D01*
X14075595Y-12180619D02*
X14085119Y-12161571D01*
X14085119Y-12161571D02*
X14094643Y-12152048D01*
X14094643Y-12152048D02*
X14113691Y-12142524D01*
X14247024Y-12142524D02*
X14370833Y-12142524D01*
X14370833Y-12142524D02*
X14304167Y-12218714D01*
X14304167Y-12218714D02*
X14332738Y-12218714D01*
X14332738Y-12218714D02*
X14351786Y-12228238D01*
X14351786Y-12228238D02*
X14361310Y-12237762D01*
X14361310Y-12237762D02*
X14370833Y-12256809D01*
X14370833Y-12256809D02*
X14370833Y-12304428D01*
X14370833Y-12304428D02*
X14361310Y-12323476D01*
X14361310Y-12323476D02*
X14351786Y-12333000D01*
X14351786Y-12333000D02*
X14332738Y-12342524D01*
X14332738Y-12342524D02*
X14275595Y-12342524D01*
X14275595Y-12342524D02*
X14256548Y-12333000D01*
X14256548Y-12333000D02*
X14247024Y-12323476D01*
X14466072Y-12342524D02*
X14504167Y-12342524D01*
X14504167Y-12342524D02*
X14523214Y-12333000D01*
X14523214Y-12333000D02*
X14532738Y-12323476D01*
X14532738Y-12323476D02*
X14551786Y-12294905D01*
X14551786Y-12294905D02*
X14561310Y-12256809D01*
X14561310Y-12256809D02*
X14561310Y-12180619D01*
X14561310Y-12180619D02*
X14551786Y-12161571D01*
X14551786Y-12161571D02*
X14542262Y-12152048D01*
X14542262Y-12152048D02*
X14523214Y-12142524D01*
X14523214Y-12142524D02*
X14485119Y-12142524D01*
X14485119Y-12142524D02*
X14466072Y-12152048D01*
X14466072Y-12152048D02*
X14456548Y-12161571D01*
X14456548Y-12161571D02*
X14447024Y-12180619D01*
X14447024Y-12180619D02*
X14447024Y-12228238D01*
X14447024Y-12228238D02*
X14456548Y-12247286D01*
X14456548Y-12247286D02*
X14466072Y-12256809D01*
X14466072Y-12256809D02*
X14485119Y-12266333D01*
X14485119Y-12266333D02*
X14523214Y-12266333D01*
X14523214Y-12266333D02*
X14542262Y-12256809D01*
X14542262Y-12256809D02*
X14551786Y-12247286D01*
X14551786Y-12247286D02*
X14561310Y-12228238D01*
X14732738Y-12209190D02*
X14732738Y-12342524D01*
X14685119Y-12133000D02*
X14637500Y-12275857D01*
X14637500Y-12275857D02*
X14761310Y-12275857D01*
X14827976Y-12142524D02*
X14827976Y-12180619D01*
X14904167Y-12142524D02*
X14904167Y-12180619D01*
X15199405Y-12418714D02*
X15189881Y-12409190D01*
X15189881Y-12409190D02*
X15170834Y-12380619D01*
X15170834Y-12380619D02*
X15161310Y-12361571D01*
X15161310Y-12361571D02*
X15151786Y-12333000D01*
X15151786Y-12333000D02*
X15142262Y-12285381D01*
X15142262Y-12285381D02*
X15142262Y-12247286D01*
X15142262Y-12247286D02*
X15151786Y-12199667D01*
X15151786Y-12199667D02*
X15161310Y-12171095D01*
X15161310Y-12171095D02*
X15170834Y-12152048D01*
X15170834Y-12152048D02*
X15189881Y-12123476D01*
X15189881Y-12123476D02*
X15199405Y-12113952D01*
X15266072Y-12161571D02*
X15275595Y-12152048D01*
X15275595Y-12152048D02*
X15294643Y-12142524D01*
X15294643Y-12142524D02*
X15342262Y-12142524D01*
X15342262Y-12142524D02*
X15361310Y-12152048D01*
X15361310Y-12152048D02*
X15370834Y-12161571D01*
X15370834Y-12161571D02*
X15380357Y-12180619D01*
X15380357Y-12180619D02*
X15380357Y-12199667D01*
X15380357Y-12199667D02*
X15370834Y-12228238D01*
X15370834Y-12228238D02*
X15256548Y-12342524D01*
X15256548Y-12342524D02*
X15380357Y-12342524D01*
X15551786Y-12209190D02*
X15551786Y-12342524D01*
X15504167Y-12133000D02*
X15456548Y-12275857D01*
X15456548Y-12275857D02*
X15580357Y-12275857D01*
X15808929Y-12342524D02*
X15808929Y-12142524D01*
X15894643Y-12342524D02*
X15894643Y-12237762D01*
X15894643Y-12237762D02*
X15885119Y-12218714D01*
X15885119Y-12218714D02*
X15866072Y-12209190D01*
X15866072Y-12209190D02*
X15837500Y-12209190D01*
X15837500Y-12209190D02*
X15818453Y-12218714D01*
X15818453Y-12218714D02*
X15808929Y-12228238D01*
X16018453Y-12342524D02*
X15999405Y-12333000D01*
X15999405Y-12333000D02*
X15989881Y-12323476D01*
X15989881Y-12323476D02*
X15980357Y-12304428D01*
X15980357Y-12304428D02*
X15980357Y-12247286D01*
X15980357Y-12247286D02*
X15989881Y-12228238D01*
X15989881Y-12228238D02*
X15999405Y-12218714D01*
X15999405Y-12218714D02*
X16018453Y-12209190D01*
X16018453Y-12209190D02*
X16047024Y-12209190D01*
X16047024Y-12209190D02*
X16066072Y-12218714D01*
X16066072Y-12218714D02*
X16075596Y-12228238D01*
X16075596Y-12228238D02*
X16085119Y-12247286D01*
X16085119Y-12247286D02*
X16085119Y-12304428D01*
X16085119Y-12304428D02*
X16075596Y-12323476D01*
X16075596Y-12323476D02*
X16066072Y-12333000D01*
X16066072Y-12333000D02*
X16047024Y-12342524D01*
X16047024Y-12342524D02*
X16018453Y-12342524D01*
X16199405Y-12342524D02*
X16180357Y-12333000D01*
X16180357Y-12333000D02*
X16170834Y-12313952D01*
X16170834Y-12313952D02*
X16170834Y-12142524D01*
X16351786Y-12333000D02*
X16332738Y-12342524D01*
X16332738Y-12342524D02*
X16294643Y-12342524D01*
X16294643Y-12342524D02*
X16275596Y-12333000D01*
X16275596Y-12333000D02*
X16266072Y-12313952D01*
X16266072Y-12313952D02*
X16266072Y-12237762D01*
X16266072Y-12237762D02*
X16275596Y-12218714D01*
X16275596Y-12218714D02*
X16294643Y-12209190D01*
X16294643Y-12209190D02*
X16332738Y-12209190D01*
X16332738Y-12209190D02*
X16351786Y-12218714D01*
X16351786Y-12218714D02*
X16361310Y-12237762D01*
X16361310Y-12237762D02*
X16361310Y-12256809D01*
X16361310Y-12256809D02*
X16266072Y-12275857D01*
X16437500Y-12333000D02*
X16456548Y-12342524D01*
X16456548Y-12342524D02*
X16494643Y-12342524D01*
X16494643Y-12342524D02*
X16513691Y-12333000D01*
X16513691Y-12333000D02*
X16523215Y-12313952D01*
X16523215Y-12313952D02*
X16523215Y-12304428D01*
X16523215Y-12304428D02*
X16513691Y-12285381D01*
X16513691Y-12285381D02*
X16494643Y-12275857D01*
X16494643Y-12275857D02*
X16466072Y-12275857D01*
X16466072Y-12275857D02*
X16447024Y-12266333D01*
X16447024Y-12266333D02*
X16437500Y-12247286D01*
X16437500Y-12247286D02*
X16437500Y-12237762D01*
X16437500Y-12237762D02*
X16447024Y-12218714D01*
X16447024Y-12218714D02*
X16466072Y-12209190D01*
X16466072Y-12209190D02*
X16494643Y-12209190D01*
X16494643Y-12209190D02*
X16513691Y-12218714D01*
X16589881Y-12418714D02*
X16599405Y-12409190D01*
X16599405Y-12409190D02*
X16618453Y-12380619D01*
X16618453Y-12380619D02*
X16627977Y-12361571D01*
X16627977Y-12361571D02*
X16637500Y-12333000D01*
X16637500Y-12333000D02*
X16647024Y-12285381D01*
X16647024Y-12285381D02*
X16647024Y-12247286D01*
X16647024Y-12247286D02*
X16637500Y-12199667D01*
X16637500Y-12199667D02*
X16627977Y-12171095D01*
X16627977Y-12171095D02*
X16618453Y-12152048D01*
X16618453Y-12152048D02*
X16599405Y-12123476D01*
X16599405Y-12123476D02*
X16589881Y-12113952D01*
D14*
X11619927Y-12556427D02*
X11619927Y-12471573D01*
X11535073Y-12471573D01*
X11535073Y-12556427D01*
X11619927Y-12556427D01*
D11*
X11989881Y-12606524D02*
X11875595Y-12606524D01*
X11932738Y-12606524D02*
X11932738Y-12406524D01*
X11932738Y-12406524D02*
X11913690Y-12435095D01*
X11913690Y-12435095D02*
X11894643Y-12454143D01*
X11894643Y-12454143D02*
X11875595Y-12463667D01*
X12075595Y-12587476D02*
X12085119Y-12597000D01*
X12085119Y-12597000D02*
X12075595Y-12606524D01*
X12075595Y-12606524D02*
X12066071Y-12597000D01*
X12066071Y-12597000D02*
X12075595Y-12587476D01*
X12075595Y-12587476D02*
X12075595Y-12606524D01*
X12161309Y-12425571D02*
X12170833Y-12416048D01*
X12170833Y-12416048D02*
X12189881Y-12406524D01*
X12189881Y-12406524D02*
X12237500Y-12406524D01*
X12237500Y-12406524D02*
X12256548Y-12416048D01*
X12256548Y-12416048D02*
X12266071Y-12425571D01*
X12266071Y-12425571D02*
X12275595Y-12444619D01*
X12275595Y-12444619D02*
X12275595Y-12463667D01*
X12275595Y-12463667D02*
X12266071Y-12492238D01*
X12266071Y-12492238D02*
X12151786Y-12606524D01*
X12151786Y-12606524D02*
X12275595Y-12606524D01*
X12399405Y-12406524D02*
X12418452Y-12406524D01*
X12418452Y-12406524D02*
X12437500Y-12416048D01*
X12437500Y-12416048D02*
X12447024Y-12425571D01*
X12447024Y-12425571D02*
X12456548Y-12444619D01*
X12456548Y-12444619D02*
X12466071Y-12482714D01*
X12466071Y-12482714D02*
X12466071Y-12530333D01*
X12466071Y-12530333D02*
X12456548Y-12568428D01*
X12456548Y-12568428D02*
X12447024Y-12587476D01*
X12447024Y-12587476D02*
X12437500Y-12597000D01*
X12437500Y-12597000D02*
X12418452Y-12606524D01*
X12418452Y-12606524D02*
X12399405Y-12606524D01*
X12399405Y-12606524D02*
X12380357Y-12597000D01*
X12380357Y-12597000D02*
X12370833Y-12587476D01*
X12370833Y-12587476D02*
X12361309Y-12568428D01*
X12361309Y-12568428D02*
X12351786Y-12530333D01*
X12351786Y-12530333D02*
X12351786Y-12482714D01*
X12351786Y-12482714D02*
X12361309Y-12444619D01*
X12361309Y-12444619D02*
X12370833Y-12425571D01*
X12370833Y-12425571D02*
X12380357Y-12416048D01*
X12380357Y-12416048D02*
X12399405Y-12406524D01*
X12589881Y-12406524D02*
X12608929Y-12406524D01*
X12608929Y-12406524D02*
X12627976Y-12416048D01*
X12627976Y-12416048D02*
X12637500Y-12425571D01*
X12637500Y-12425571D02*
X12647024Y-12444619D01*
X12647024Y-12444619D02*
X12656548Y-12482714D01*
X12656548Y-12482714D02*
X12656548Y-12530333D01*
X12656548Y-12530333D02*
X12647024Y-12568428D01*
X12647024Y-12568428D02*
X12637500Y-12587476D01*
X12637500Y-12587476D02*
X12627976Y-12597000D01*
X12627976Y-12597000D02*
X12608929Y-12606524D01*
X12608929Y-12606524D02*
X12589881Y-12606524D01*
X12589881Y-12606524D02*
X12570833Y-12597000D01*
X12570833Y-12597000D02*
X12561309Y-12587476D01*
X12561309Y-12587476D02*
X12551786Y-12568428D01*
X12551786Y-12568428D02*
X12542262Y-12530333D01*
X12542262Y-12530333D02*
X12542262Y-12482714D01*
X12542262Y-12482714D02*
X12551786Y-12444619D01*
X12551786Y-12444619D02*
X12561309Y-12425571D01*
X12561309Y-12425571D02*
X12570833Y-12416048D01*
X12570833Y-12416048D02*
X12589881Y-12406524D01*
X12742262Y-12606524D02*
X12742262Y-12473190D01*
X12742262Y-12492238D02*
X12751786Y-12482714D01*
X12751786Y-12482714D02*
X12770833Y-12473190D01*
X12770833Y-12473190D02*
X12799405Y-12473190D01*
X12799405Y-12473190D02*
X12818452Y-12482714D01*
X12818452Y-12482714D02*
X12827976Y-12501762D01*
X12827976Y-12501762D02*
X12827976Y-12606524D01*
X12827976Y-12501762D02*
X12837500Y-12482714D01*
X12837500Y-12482714D02*
X12856548Y-12473190D01*
X12856548Y-12473190D02*
X12885119Y-12473190D01*
X12885119Y-12473190D02*
X12904167Y-12482714D01*
X12904167Y-12482714D02*
X12913690Y-12501762D01*
X12913690Y-12501762D02*
X12913690Y-12606524D01*
X13008929Y-12606524D02*
X13008929Y-12473190D01*
X13008929Y-12492238D02*
X13018452Y-12482714D01*
X13018452Y-12482714D02*
X13037500Y-12473190D01*
X13037500Y-12473190D02*
X13066071Y-12473190D01*
X13066071Y-12473190D02*
X13085119Y-12482714D01*
X13085119Y-12482714D02*
X13094643Y-12501762D01*
X13094643Y-12501762D02*
X13094643Y-12606524D01*
X13094643Y-12501762D02*
X13104167Y-12482714D01*
X13104167Y-12482714D02*
X13123214Y-12473190D01*
X13123214Y-12473190D02*
X13151786Y-12473190D01*
X13151786Y-12473190D02*
X13170833Y-12482714D01*
X13170833Y-12482714D02*
X13180357Y-12501762D01*
X13180357Y-12501762D02*
X13180357Y-12606524D01*
X13570833Y-12397000D02*
X13399405Y-12654143D01*
X13827976Y-12406524D02*
X13847024Y-12406524D01*
X13847024Y-12406524D02*
X13866072Y-12416048D01*
X13866072Y-12416048D02*
X13875595Y-12425571D01*
X13875595Y-12425571D02*
X13885119Y-12444619D01*
X13885119Y-12444619D02*
X13894643Y-12482714D01*
X13894643Y-12482714D02*
X13894643Y-12530333D01*
X13894643Y-12530333D02*
X13885119Y-12568428D01*
X13885119Y-12568428D02*
X13875595Y-12587476D01*
X13875595Y-12587476D02*
X13866072Y-12597000D01*
X13866072Y-12597000D02*
X13847024Y-12606524D01*
X13847024Y-12606524D02*
X13827976Y-12606524D01*
X13827976Y-12606524D02*
X13808929Y-12597000D01*
X13808929Y-12597000D02*
X13799405Y-12587476D01*
X13799405Y-12587476D02*
X13789881Y-12568428D01*
X13789881Y-12568428D02*
X13780357Y-12530333D01*
X13780357Y-12530333D02*
X13780357Y-12482714D01*
X13780357Y-12482714D02*
X13789881Y-12444619D01*
X13789881Y-12444619D02*
X13799405Y-12425571D01*
X13799405Y-12425571D02*
X13808929Y-12416048D01*
X13808929Y-12416048D02*
X13827976Y-12406524D01*
X13980357Y-12587476D02*
X13989881Y-12597000D01*
X13989881Y-12597000D02*
X13980357Y-12606524D01*
X13980357Y-12606524D02*
X13970833Y-12597000D01*
X13970833Y-12597000D02*
X13980357Y-12587476D01*
X13980357Y-12587476D02*
X13980357Y-12606524D01*
X14113691Y-12406524D02*
X14132738Y-12406524D01*
X14132738Y-12406524D02*
X14151786Y-12416048D01*
X14151786Y-12416048D02*
X14161310Y-12425571D01*
X14161310Y-12425571D02*
X14170833Y-12444619D01*
X14170833Y-12444619D02*
X14180357Y-12482714D01*
X14180357Y-12482714D02*
X14180357Y-12530333D01*
X14180357Y-12530333D02*
X14170833Y-12568428D01*
X14170833Y-12568428D02*
X14161310Y-12587476D01*
X14161310Y-12587476D02*
X14151786Y-12597000D01*
X14151786Y-12597000D02*
X14132738Y-12606524D01*
X14132738Y-12606524D02*
X14113691Y-12606524D01*
X14113691Y-12606524D02*
X14094643Y-12597000D01*
X14094643Y-12597000D02*
X14085119Y-12587476D01*
X14085119Y-12587476D02*
X14075595Y-12568428D01*
X14075595Y-12568428D02*
X14066072Y-12530333D01*
X14066072Y-12530333D02*
X14066072Y-12482714D01*
X14066072Y-12482714D02*
X14075595Y-12444619D01*
X14075595Y-12444619D02*
X14085119Y-12425571D01*
X14085119Y-12425571D02*
X14094643Y-12416048D01*
X14094643Y-12416048D02*
X14113691Y-12406524D01*
X14351786Y-12473190D02*
X14351786Y-12606524D01*
X14304167Y-12397000D02*
X14256548Y-12539857D01*
X14256548Y-12539857D02*
X14380357Y-12539857D01*
X14437500Y-12406524D02*
X14570833Y-12406524D01*
X14570833Y-12406524D02*
X14485119Y-12606524D01*
X14637500Y-12425571D02*
X14647024Y-12416048D01*
X14647024Y-12416048D02*
X14666072Y-12406524D01*
X14666072Y-12406524D02*
X14713691Y-12406524D01*
X14713691Y-12406524D02*
X14732738Y-12416048D01*
X14732738Y-12416048D02*
X14742262Y-12425571D01*
X14742262Y-12425571D02*
X14751786Y-12444619D01*
X14751786Y-12444619D02*
X14751786Y-12463667D01*
X14751786Y-12463667D02*
X14742262Y-12492238D01*
X14742262Y-12492238D02*
X14627976Y-12606524D01*
X14627976Y-12606524D02*
X14751786Y-12606524D01*
X14827976Y-12406524D02*
X14827976Y-12444619D01*
X14904167Y-12406524D02*
X14904167Y-12444619D01*
X15199405Y-12682714D02*
X15189881Y-12673190D01*
X15189881Y-12673190D02*
X15170834Y-12644619D01*
X15170834Y-12644619D02*
X15161310Y-12625571D01*
X15161310Y-12625571D02*
X15151786Y-12597000D01*
X15151786Y-12597000D02*
X15142262Y-12549381D01*
X15142262Y-12549381D02*
X15142262Y-12511286D01*
X15142262Y-12511286D02*
X15151786Y-12463667D01*
X15151786Y-12463667D02*
X15161310Y-12435095D01*
X15161310Y-12435095D02*
X15170834Y-12416048D01*
X15170834Y-12416048D02*
X15189881Y-12387476D01*
X15189881Y-12387476D02*
X15199405Y-12377952D01*
X15380357Y-12606524D02*
X15266072Y-12606524D01*
X15323214Y-12606524D02*
X15323214Y-12406524D01*
X15323214Y-12406524D02*
X15304167Y-12435095D01*
X15304167Y-12435095D02*
X15285119Y-12454143D01*
X15285119Y-12454143D02*
X15266072Y-12463667D01*
X15456548Y-12425571D02*
X15466072Y-12416048D01*
X15466072Y-12416048D02*
X15485119Y-12406524D01*
X15485119Y-12406524D02*
X15532738Y-12406524D01*
X15532738Y-12406524D02*
X15551786Y-12416048D01*
X15551786Y-12416048D02*
X15561310Y-12425571D01*
X15561310Y-12425571D02*
X15570834Y-12444619D01*
X15570834Y-12444619D02*
X15570834Y-12463667D01*
X15570834Y-12463667D02*
X15561310Y-12492238D01*
X15561310Y-12492238D02*
X15447024Y-12606524D01*
X15447024Y-12606524D02*
X15570834Y-12606524D01*
X15808929Y-12606524D02*
X15808929Y-12406524D01*
X15894643Y-12606524D02*
X15894643Y-12501762D01*
X15894643Y-12501762D02*
X15885119Y-12482714D01*
X15885119Y-12482714D02*
X15866072Y-12473190D01*
X15866072Y-12473190D02*
X15837500Y-12473190D01*
X15837500Y-12473190D02*
X15818453Y-12482714D01*
X15818453Y-12482714D02*
X15808929Y-12492238D01*
X16018453Y-12606524D02*
X15999405Y-12597000D01*
X15999405Y-12597000D02*
X15989881Y-12587476D01*
X15989881Y-12587476D02*
X15980357Y-12568428D01*
X15980357Y-12568428D02*
X15980357Y-12511286D01*
X15980357Y-12511286D02*
X15989881Y-12492238D01*
X15989881Y-12492238D02*
X15999405Y-12482714D01*
X15999405Y-12482714D02*
X16018453Y-12473190D01*
X16018453Y-12473190D02*
X16047024Y-12473190D01*
X16047024Y-12473190D02*
X16066072Y-12482714D01*
X16066072Y-12482714D02*
X16075596Y-12492238D01*
X16075596Y-12492238D02*
X16085119Y-12511286D01*
X16085119Y-12511286D02*
X16085119Y-12568428D01*
X16085119Y-12568428D02*
X16075596Y-12587476D01*
X16075596Y-12587476D02*
X16066072Y-12597000D01*
X16066072Y-12597000D02*
X16047024Y-12606524D01*
X16047024Y-12606524D02*
X16018453Y-12606524D01*
X16199405Y-12606524D02*
X16180357Y-12597000D01*
X16180357Y-12597000D02*
X16170834Y-12577952D01*
X16170834Y-12577952D02*
X16170834Y-12406524D01*
X16351786Y-12597000D02*
X16332738Y-12606524D01*
X16332738Y-12606524D02*
X16294643Y-12606524D01*
X16294643Y-12606524D02*
X16275596Y-12597000D01*
X16275596Y-12597000D02*
X16266072Y-12577952D01*
X16266072Y-12577952D02*
X16266072Y-12501762D01*
X16266072Y-12501762D02*
X16275596Y-12482714D01*
X16275596Y-12482714D02*
X16294643Y-12473190D01*
X16294643Y-12473190D02*
X16332738Y-12473190D01*
X16332738Y-12473190D02*
X16351786Y-12482714D01*
X16351786Y-12482714D02*
X16361310Y-12501762D01*
X16361310Y-12501762D02*
X16361310Y-12520809D01*
X16361310Y-12520809D02*
X16266072Y-12539857D01*
X16437500Y-12597000D02*
X16456548Y-12606524D01*
X16456548Y-12606524D02*
X16494643Y-12606524D01*
X16494643Y-12606524D02*
X16513691Y-12597000D01*
X16513691Y-12597000D02*
X16523215Y-12577952D01*
X16523215Y-12577952D02*
X16523215Y-12568428D01*
X16523215Y-12568428D02*
X16513691Y-12549381D01*
X16513691Y-12549381D02*
X16494643Y-12539857D01*
X16494643Y-12539857D02*
X16466072Y-12539857D01*
X16466072Y-12539857D02*
X16447024Y-12530333D01*
X16447024Y-12530333D02*
X16437500Y-12511286D01*
X16437500Y-12511286D02*
X16437500Y-12501762D01*
X16437500Y-12501762D02*
X16447024Y-12482714D01*
X16447024Y-12482714D02*
X16466072Y-12473190D01*
X16466072Y-12473190D02*
X16494643Y-12473190D01*
X16494643Y-12473190D02*
X16513691Y-12482714D01*
X16589881Y-12682714D02*
X16599405Y-12673190D01*
X16599405Y-12673190D02*
X16618453Y-12644619D01*
X16618453Y-12644619D02*
X16627977Y-12625571D01*
X16627977Y-12625571D02*
X16637500Y-12597000D01*
X16637500Y-12597000D02*
X16647024Y-12549381D01*
X16647024Y-12549381D02*
X16647024Y-12511286D01*
X16647024Y-12511286D02*
X16637500Y-12463667D01*
X16637500Y-12463667D02*
X16627977Y-12435095D01*
X16627977Y-12435095D02*
X16618453Y-12416048D01*
X16618453Y-12416048D02*
X16599405Y-12387476D01*
X16599405Y-12387476D02*
X16589881Y-12377952D01*
D15*
X11562500Y-12853000D02*
X11637500Y-12778000D01*
X11562500Y-12703000D01*
X11487500Y-12778000D01*
X11562500Y-12853000D01*
D11*
X11989881Y-12870524D02*
X11875595Y-12870524D01*
X11932738Y-12870524D02*
X11932738Y-12670524D01*
X11932738Y-12670524D02*
X11913690Y-12699095D01*
X11913690Y-12699095D02*
X11894643Y-12718143D01*
X11894643Y-12718143D02*
X11875595Y-12727667D01*
X12075595Y-12851476D02*
X12085119Y-12861000D01*
X12085119Y-12861000D02*
X12075595Y-12870524D01*
X12075595Y-12870524D02*
X12066071Y-12861000D01*
X12066071Y-12861000D02*
X12075595Y-12851476D01*
X12075595Y-12851476D02*
X12075595Y-12870524D01*
X12266071Y-12670524D02*
X12170833Y-12670524D01*
X12170833Y-12670524D02*
X12161309Y-12765762D01*
X12161309Y-12765762D02*
X12170833Y-12756238D01*
X12170833Y-12756238D02*
X12189881Y-12746714D01*
X12189881Y-12746714D02*
X12237500Y-12746714D01*
X12237500Y-12746714D02*
X12256548Y-12756238D01*
X12256548Y-12756238D02*
X12266071Y-12765762D01*
X12266071Y-12765762D02*
X12275595Y-12784809D01*
X12275595Y-12784809D02*
X12275595Y-12832428D01*
X12275595Y-12832428D02*
X12266071Y-12851476D01*
X12266071Y-12851476D02*
X12256548Y-12861000D01*
X12256548Y-12861000D02*
X12237500Y-12870524D01*
X12237500Y-12870524D02*
X12189881Y-12870524D01*
X12189881Y-12870524D02*
X12170833Y-12861000D01*
X12170833Y-12861000D02*
X12161309Y-12851476D01*
X12399405Y-12670524D02*
X12418452Y-12670524D01*
X12418452Y-12670524D02*
X12437500Y-12680048D01*
X12437500Y-12680048D02*
X12447024Y-12689571D01*
X12447024Y-12689571D02*
X12456548Y-12708619D01*
X12456548Y-12708619D02*
X12466071Y-12746714D01*
X12466071Y-12746714D02*
X12466071Y-12794333D01*
X12466071Y-12794333D02*
X12456548Y-12832428D01*
X12456548Y-12832428D02*
X12447024Y-12851476D01*
X12447024Y-12851476D02*
X12437500Y-12861000D01*
X12437500Y-12861000D02*
X12418452Y-12870524D01*
X12418452Y-12870524D02*
X12399405Y-12870524D01*
X12399405Y-12870524D02*
X12380357Y-12861000D01*
X12380357Y-12861000D02*
X12370833Y-12851476D01*
X12370833Y-12851476D02*
X12361309Y-12832428D01*
X12361309Y-12832428D02*
X12351786Y-12794333D01*
X12351786Y-12794333D02*
X12351786Y-12746714D01*
X12351786Y-12746714D02*
X12361309Y-12708619D01*
X12361309Y-12708619D02*
X12370833Y-12689571D01*
X12370833Y-12689571D02*
X12380357Y-12680048D01*
X12380357Y-12680048D02*
X12399405Y-12670524D01*
X12589881Y-12670524D02*
X12608929Y-12670524D01*
X12608929Y-12670524D02*
X12627976Y-12680048D01*
X12627976Y-12680048D02*
X12637500Y-12689571D01*
X12637500Y-12689571D02*
X12647024Y-12708619D01*
X12647024Y-12708619D02*
X12656548Y-12746714D01*
X12656548Y-12746714D02*
X12656548Y-12794333D01*
X12656548Y-12794333D02*
X12647024Y-12832428D01*
X12647024Y-12832428D02*
X12637500Y-12851476D01*
X12637500Y-12851476D02*
X12627976Y-12861000D01*
X12627976Y-12861000D02*
X12608929Y-12870524D01*
X12608929Y-12870524D02*
X12589881Y-12870524D01*
X12589881Y-12870524D02*
X12570833Y-12861000D01*
X12570833Y-12861000D02*
X12561309Y-12851476D01*
X12561309Y-12851476D02*
X12551786Y-12832428D01*
X12551786Y-12832428D02*
X12542262Y-12794333D01*
X12542262Y-12794333D02*
X12542262Y-12746714D01*
X12542262Y-12746714D02*
X12551786Y-12708619D01*
X12551786Y-12708619D02*
X12561309Y-12689571D01*
X12561309Y-12689571D02*
X12570833Y-12680048D01*
X12570833Y-12680048D02*
X12589881Y-12670524D01*
X12742262Y-12870524D02*
X12742262Y-12737190D01*
X12742262Y-12756238D02*
X12751786Y-12746714D01*
X12751786Y-12746714D02*
X12770833Y-12737190D01*
X12770833Y-12737190D02*
X12799405Y-12737190D01*
X12799405Y-12737190D02*
X12818452Y-12746714D01*
X12818452Y-12746714D02*
X12827976Y-12765762D01*
X12827976Y-12765762D02*
X12827976Y-12870524D01*
X12827976Y-12765762D02*
X12837500Y-12746714D01*
X12837500Y-12746714D02*
X12856548Y-12737190D01*
X12856548Y-12737190D02*
X12885119Y-12737190D01*
X12885119Y-12737190D02*
X12904167Y-12746714D01*
X12904167Y-12746714D02*
X12913690Y-12765762D01*
X12913690Y-12765762D02*
X12913690Y-12870524D01*
X13008929Y-12870524D02*
X13008929Y-12737190D01*
X13008929Y-12756238D02*
X13018452Y-12746714D01*
X13018452Y-12746714D02*
X13037500Y-12737190D01*
X13037500Y-12737190D02*
X13066071Y-12737190D01*
X13066071Y-12737190D02*
X13085119Y-12746714D01*
X13085119Y-12746714D02*
X13094643Y-12765762D01*
X13094643Y-12765762D02*
X13094643Y-12870524D01*
X13094643Y-12765762D02*
X13104167Y-12746714D01*
X13104167Y-12746714D02*
X13123214Y-12737190D01*
X13123214Y-12737190D02*
X13151786Y-12737190D01*
X13151786Y-12737190D02*
X13170833Y-12746714D01*
X13170833Y-12746714D02*
X13180357Y-12765762D01*
X13180357Y-12765762D02*
X13180357Y-12870524D01*
X13570833Y-12661000D02*
X13399405Y-12918143D01*
X13827976Y-12670524D02*
X13847024Y-12670524D01*
X13847024Y-12670524D02*
X13866072Y-12680048D01*
X13866072Y-12680048D02*
X13875595Y-12689571D01*
X13875595Y-12689571D02*
X13885119Y-12708619D01*
X13885119Y-12708619D02*
X13894643Y-12746714D01*
X13894643Y-12746714D02*
X13894643Y-12794333D01*
X13894643Y-12794333D02*
X13885119Y-12832428D01*
X13885119Y-12832428D02*
X13875595Y-12851476D01*
X13875595Y-12851476D02*
X13866072Y-12861000D01*
X13866072Y-12861000D02*
X13847024Y-12870524D01*
X13847024Y-12870524D02*
X13827976Y-12870524D01*
X13827976Y-12870524D02*
X13808929Y-12861000D01*
X13808929Y-12861000D02*
X13799405Y-12851476D01*
X13799405Y-12851476D02*
X13789881Y-12832428D01*
X13789881Y-12832428D02*
X13780357Y-12794333D01*
X13780357Y-12794333D02*
X13780357Y-12746714D01*
X13780357Y-12746714D02*
X13789881Y-12708619D01*
X13789881Y-12708619D02*
X13799405Y-12689571D01*
X13799405Y-12689571D02*
X13808929Y-12680048D01*
X13808929Y-12680048D02*
X13827976Y-12670524D01*
X13980357Y-12851476D02*
X13989881Y-12861000D01*
X13989881Y-12861000D02*
X13980357Y-12870524D01*
X13980357Y-12870524D02*
X13970833Y-12861000D01*
X13970833Y-12861000D02*
X13980357Y-12851476D01*
X13980357Y-12851476D02*
X13980357Y-12870524D01*
X14113691Y-12670524D02*
X14132738Y-12670524D01*
X14132738Y-12670524D02*
X14151786Y-12680048D01*
X14151786Y-12680048D02*
X14161310Y-12689571D01*
X14161310Y-12689571D02*
X14170833Y-12708619D01*
X14170833Y-12708619D02*
X14180357Y-12746714D01*
X14180357Y-12746714D02*
X14180357Y-12794333D01*
X14180357Y-12794333D02*
X14170833Y-12832428D01*
X14170833Y-12832428D02*
X14161310Y-12851476D01*
X14161310Y-12851476D02*
X14151786Y-12861000D01*
X14151786Y-12861000D02*
X14132738Y-12870524D01*
X14132738Y-12870524D02*
X14113691Y-12870524D01*
X14113691Y-12870524D02*
X14094643Y-12861000D01*
X14094643Y-12861000D02*
X14085119Y-12851476D01*
X14085119Y-12851476D02*
X14075595Y-12832428D01*
X14075595Y-12832428D02*
X14066072Y-12794333D01*
X14066072Y-12794333D02*
X14066072Y-12746714D01*
X14066072Y-12746714D02*
X14075595Y-12708619D01*
X14075595Y-12708619D02*
X14085119Y-12689571D01*
X14085119Y-12689571D02*
X14094643Y-12680048D01*
X14094643Y-12680048D02*
X14113691Y-12670524D01*
X14361310Y-12670524D02*
X14266072Y-12670524D01*
X14266072Y-12670524D02*
X14256548Y-12765762D01*
X14256548Y-12765762D02*
X14266072Y-12756238D01*
X14266072Y-12756238D02*
X14285119Y-12746714D01*
X14285119Y-12746714D02*
X14332738Y-12746714D01*
X14332738Y-12746714D02*
X14351786Y-12756238D01*
X14351786Y-12756238D02*
X14361310Y-12765762D01*
X14361310Y-12765762D02*
X14370833Y-12784809D01*
X14370833Y-12784809D02*
X14370833Y-12832428D01*
X14370833Y-12832428D02*
X14361310Y-12851476D01*
X14361310Y-12851476D02*
X14351786Y-12861000D01*
X14351786Y-12861000D02*
X14332738Y-12870524D01*
X14332738Y-12870524D02*
X14285119Y-12870524D01*
X14285119Y-12870524D02*
X14266072Y-12861000D01*
X14266072Y-12861000D02*
X14256548Y-12851476D01*
X14466072Y-12870524D02*
X14504167Y-12870524D01*
X14504167Y-12870524D02*
X14523214Y-12861000D01*
X14523214Y-12861000D02*
X14532738Y-12851476D01*
X14532738Y-12851476D02*
X14551786Y-12822905D01*
X14551786Y-12822905D02*
X14561310Y-12784809D01*
X14561310Y-12784809D02*
X14561310Y-12708619D01*
X14561310Y-12708619D02*
X14551786Y-12689571D01*
X14551786Y-12689571D02*
X14542262Y-12680048D01*
X14542262Y-12680048D02*
X14523214Y-12670524D01*
X14523214Y-12670524D02*
X14485119Y-12670524D01*
X14485119Y-12670524D02*
X14466072Y-12680048D01*
X14466072Y-12680048D02*
X14456548Y-12689571D01*
X14456548Y-12689571D02*
X14447024Y-12708619D01*
X14447024Y-12708619D02*
X14447024Y-12756238D01*
X14447024Y-12756238D02*
X14456548Y-12775286D01*
X14456548Y-12775286D02*
X14466072Y-12784809D01*
X14466072Y-12784809D02*
X14485119Y-12794333D01*
X14485119Y-12794333D02*
X14523214Y-12794333D01*
X14523214Y-12794333D02*
X14542262Y-12784809D01*
X14542262Y-12784809D02*
X14551786Y-12775286D01*
X14551786Y-12775286D02*
X14561310Y-12756238D01*
X14751786Y-12870524D02*
X14637500Y-12870524D01*
X14694643Y-12870524D02*
X14694643Y-12670524D01*
X14694643Y-12670524D02*
X14675595Y-12699095D01*
X14675595Y-12699095D02*
X14656548Y-12718143D01*
X14656548Y-12718143D02*
X14637500Y-12727667D01*
X14827976Y-12670524D02*
X14827976Y-12708619D01*
X14904167Y-12670524D02*
X14904167Y-12708619D01*
X15199405Y-12946714D02*
X15189881Y-12937190D01*
X15189881Y-12937190D02*
X15170834Y-12908619D01*
X15170834Y-12908619D02*
X15161310Y-12889571D01*
X15161310Y-12889571D02*
X15151786Y-12861000D01*
X15151786Y-12861000D02*
X15142262Y-12813381D01*
X15142262Y-12813381D02*
X15142262Y-12775286D01*
X15142262Y-12775286D02*
X15151786Y-12727667D01*
X15151786Y-12727667D02*
X15161310Y-12699095D01*
X15161310Y-12699095D02*
X15170834Y-12680048D01*
X15170834Y-12680048D02*
X15189881Y-12651476D01*
X15189881Y-12651476D02*
X15199405Y-12641952D01*
X15266072Y-12689571D02*
X15275595Y-12680048D01*
X15275595Y-12680048D02*
X15294643Y-12670524D01*
X15294643Y-12670524D02*
X15342262Y-12670524D01*
X15342262Y-12670524D02*
X15361310Y-12680048D01*
X15361310Y-12680048D02*
X15370834Y-12689571D01*
X15370834Y-12689571D02*
X15380357Y-12708619D01*
X15380357Y-12708619D02*
X15380357Y-12727667D01*
X15380357Y-12727667D02*
X15370834Y-12756238D01*
X15370834Y-12756238D02*
X15256548Y-12870524D01*
X15256548Y-12870524D02*
X15380357Y-12870524D01*
X15618453Y-12870524D02*
X15618453Y-12670524D01*
X15704167Y-12870524D02*
X15704167Y-12765762D01*
X15704167Y-12765762D02*
X15694643Y-12746714D01*
X15694643Y-12746714D02*
X15675596Y-12737190D01*
X15675596Y-12737190D02*
X15647024Y-12737190D01*
X15647024Y-12737190D02*
X15627976Y-12746714D01*
X15627976Y-12746714D02*
X15618453Y-12756238D01*
X15827976Y-12870524D02*
X15808929Y-12861000D01*
X15808929Y-12861000D02*
X15799405Y-12851476D01*
X15799405Y-12851476D02*
X15789881Y-12832428D01*
X15789881Y-12832428D02*
X15789881Y-12775286D01*
X15789881Y-12775286D02*
X15799405Y-12756238D01*
X15799405Y-12756238D02*
X15808929Y-12746714D01*
X15808929Y-12746714D02*
X15827976Y-12737190D01*
X15827976Y-12737190D02*
X15856548Y-12737190D01*
X15856548Y-12737190D02*
X15875596Y-12746714D01*
X15875596Y-12746714D02*
X15885119Y-12756238D01*
X15885119Y-12756238D02*
X15894643Y-12775286D01*
X15894643Y-12775286D02*
X15894643Y-12832428D01*
X15894643Y-12832428D02*
X15885119Y-12851476D01*
X15885119Y-12851476D02*
X15875596Y-12861000D01*
X15875596Y-12861000D02*
X15856548Y-12870524D01*
X15856548Y-12870524D02*
X15827976Y-12870524D01*
X16008929Y-12870524D02*
X15989881Y-12861000D01*
X15989881Y-12861000D02*
X15980357Y-12841952D01*
X15980357Y-12841952D02*
X15980357Y-12670524D01*
X16161310Y-12861000D02*
X16142262Y-12870524D01*
X16142262Y-12870524D02*
X16104167Y-12870524D01*
X16104167Y-12870524D02*
X16085119Y-12861000D01*
X16085119Y-12861000D02*
X16075596Y-12841952D01*
X16075596Y-12841952D02*
X16075596Y-12765762D01*
X16075596Y-12765762D02*
X16085119Y-12746714D01*
X16085119Y-12746714D02*
X16104167Y-12737190D01*
X16104167Y-12737190D02*
X16142262Y-12737190D01*
X16142262Y-12737190D02*
X16161310Y-12746714D01*
X16161310Y-12746714D02*
X16170834Y-12765762D01*
X16170834Y-12765762D02*
X16170834Y-12784809D01*
X16170834Y-12784809D02*
X16075596Y-12803857D01*
X16247024Y-12861000D02*
X16266072Y-12870524D01*
X16266072Y-12870524D02*
X16304167Y-12870524D01*
X16304167Y-12870524D02*
X16323215Y-12861000D01*
X16323215Y-12861000D02*
X16332738Y-12841952D01*
X16332738Y-12841952D02*
X16332738Y-12832428D01*
X16332738Y-12832428D02*
X16323215Y-12813381D01*
X16323215Y-12813381D02*
X16304167Y-12803857D01*
X16304167Y-12803857D02*
X16275596Y-12803857D01*
X16275596Y-12803857D02*
X16256548Y-12794333D01*
X16256548Y-12794333D02*
X16247024Y-12775286D01*
X16247024Y-12775286D02*
X16247024Y-12765762D01*
X16247024Y-12765762D02*
X16256548Y-12746714D01*
X16256548Y-12746714D02*
X16275596Y-12737190D01*
X16275596Y-12737190D02*
X16304167Y-12737190D01*
X16304167Y-12737190D02*
X16323215Y-12746714D01*
X16399405Y-12946714D02*
X16408929Y-12937190D01*
X16408929Y-12937190D02*
X16427977Y-12908619D01*
X16427977Y-12908619D02*
X16437500Y-12889571D01*
X16437500Y-12889571D02*
X16447024Y-12861000D01*
X16447024Y-12861000D02*
X16456548Y-12813381D01*
X16456548Y-12813381D02*
X16456548Y-12775286D01*
X16456548Y-12775286D02*
X16447024Y-12727667D01*
X16447024Y-12727667D02*
X16437500Y-12699095D01*
X16437500Y-12699095D02*
X16427977Y-12680048D01*
X16427977Y-12680048D02*
X16408929Y-12651476D01*
X16408929Y-12651476D02*
X16399405Y-12641952D01*
D16*
X11467500Y-12963000D02*
X11637500Y-13133000D01*
X11637500Y-12963000D02*
X11467500Y-13133000D01*
X11637500Y-13048000D02*
G75*
G03*
X11637500Y-13048000I-85000J0D01*
G01*
D11*
X11989881Y-13140524D02*
X11875595Y-13140524D01*
X11932738Y-13140524D02*
X11932738Y-12940524D01*
X11932738Y-12940524D02*
X11913690Y-12969095D01*
X11913690Y-12969095D02*
X11894643Y-12988143D01*
X11894643Y-12988143D02*
X11875595Y-12997667D01*
X12075595Y-13121476D02*
X12085119Y-13131000D01*
X12085119Y-13131000D02*
X12075595Y-13140524D01*
X12075595Y-13140524D02*
X12066071Y-13131000D01*
X12066071Y-13131000D02*
X12075595Y-13121476D01*
X12075595Y-13121476D02*
X12075595Y-13140524D01*
X12151786Y-12940524D02*
X12285119Y-12940524D01*
X12285119Y-12940524D02*
X12199405Y-13140524D01*
X12399405Y-12940524D02*
X12418452Y-12940524D01*
X12418452Y-12940524D02*
X12437500Y-12950048D01*
X12437500Y-12950048D02*
X12447024Y-12959571D01*
X12447024Y-12959571D02*
X12456548Y-12978619D01*
X12456548Y-12978619D02*
X12466071Y-13016714D01*
X12466071Y-13016714D02*
X12466071Y-13064333D01*
X12466071Y-13064333D02*
X12456548Y-13102428D01*
X12456548Y-13102428D02*
X12447024Y-13121476D01*
X12447024Y-13121476D02*
X12437500Y-13131000D01*
X12437500Y-13131000D02*
X12418452Y-13140524D01*
X12418452Y-13140524D02*
X12399405Y-13140524D01*
X12399405Y-13140524D02*
X12380357Y-13131000D01*
X12380357Y-13131000D02*
X12370833Y-13121476D01*
X12370833Y-13121476D02*
X12361309Y-13102428D01*
X12361309Y-13102428D02*
X12351786Y-13064333D01*
X12351786Y-13064333D02*
X12351786Y-13016714D01*
X12351786Y-13016714D02*
X12361309Y-12978619D01*
X12361309Y-12978619D02*
X12370833Y-12959571D01*
X12370833Y-12959571D02*
X12380357Y-12950048D01*
X12380357Y-12950048D02*
X12399405Y-12940524D01*
X12589881Y-12940524D02*
X12608929Y-12940524D01*
X12608929Y-12940524D02*
X12627976Y-12950048D01*
X12627976Y-12950048D02*
X12637500Y-12959571D01*
X12637500Y-12959571D02*
X12647024Y-12978619D01*
X12647024Y-12978619D02*
X12656548Y-13016714D01*
X12656548Y-13016714D02*
X12656548Y-13064333D01*
X12656548Y-13064333D02*
X12647024Y-13102428D01*
X12647024Y-13102428D02*
X12637500Y-13121476D01*
X12637500Y-13121476D02*
X12627976Y-13131000D01*
X12627976Y-13131000D02*
X12608929Y-13140524D01*
X12608929Y-13140524D02*
X12589881Y-13140524D01*
X12589881Y-13140524D02*
X12570833Y-13131000D01*
X12570833Y-13131000D02*
X12561309Y-13121476D01*
X12561309Y-13121476D02*
X12551786Y-13102428D01*
X12551786Y-13102428D02*
X12542262Y-13064333D01*
X12542262Y-13064333D02*
X12542262Y-13016714D01*
X12542262Y-13016714D02*
X12551786Y-12978619D01*
X12551786Y-12978619D02*
X12561309Y-12959571D01*
X12561309Y-12959571D02*
X12570833Y-12950048D01*
X12570833Y-12950048D02*
X12589881Y-12940524D01*
X12742262Y-13140524D02*
X12742262Y-13007190D01*
X12742262Y-13026238D02*
X12751786Y-13016714D01*
X12751786Y-13016714D02*
X12770833Y-13007190D01*
X12770833Y-13007190D02*
X12799405Y-13007190D01*
X12799405Y-13007190D02*
X12818452Y-13016714D01*
X12818452Y-13016714D02*
X12827976Y-13035762D01*
X12827976Y-13035762D02*
X12827976Y-13140524D01*
X12827976Y-13035762D02*
X12837500Y-13016714D01*
X12837500Y-13016714D02*
X12856548Y-13007190D01*
X12856548Y-13007190D02*
X12885119Y-13007190D01*
X12885119Y-13007190D02*
X12904167Y-13016714D01*
X12904167Y-13016714D02*
X12913690Y-13035762D01*
X12913690Y-13035762D02*
X12913690Y-13140524D01*
X13008929Y-13140524D02*
X13008929Y-13007190D01*
X13008929Y-13026238D02*
X13018452Y-13016714D01*
X13018452Y-13016714D02*
X13037500Y-13007190D01*
X13037500Y-13007190D02*
X13066071Y-13007190D01*
X13066071Y-13007190D02*
X13085119Y-13016714D01*
X13085119Y-13016714D02*
X13094643Y-13035762D01*
X13094643Y-13035762D02*
X13094643Y-13140524D01*
X13094643Y-13035762D02*
X13104167Y-13016714D01*
X13104167Y-13016714D02*
X13123214Y-13007190D01*
X13123214Y-13007190D02*
X13151786Y-13007190D01*
X13151786Y-13007190D02*
X13170833Y-13016714D01*
X13170833Y-13016714D02*
X13180357Y-13035762D01*
X13180357Y-13035762D02*
X13180357Y-13140524D01*
X13570833Y-12931000D02*
X13399405Y-13188143D01*
X13827976Y-12940524D02*
X13847024Y-12940524D01*
X13847024Y-12940524D02*
X13866072Y-12950048D01*
X13866072Y-12950048D02*
X13875595Y-12959571D01*
X13875595Y-12959571D02*
X13885119Y-12978619D01*
X13885119Y-12978619D02*
X13894643Y-13016714D01*
X13894643Y-13016714D02*
X13894643Y-13064333D01*
X13894643Y-13064333D02*
X13885119Y-13102428D01*
X13885119Y-13102428D02*
X13875595Y-13121476D01*
X13875595Y-13121476D02*
X13866072Y-13131000D01*
X13866072Y-13131000D02*
X13847024Y-13140524D01*
X13847024Y-13140524D02*
X13827976Y-13140524D01*
X13827976Y-13140524D02*
X13808929Y-13131000D01*
X13808929Y-13131000D02*
X13799405Y-13121476D01*
X13799405Y-13121476D02*
X13789881Y-13102428D01*
X13789881Y-13102428D02*
X13780357Y-13064333D01*
X13780357Y-13064333D02*
X13780357Y-13016714D01*
X13780357Y-13016714D02*
X13789881Y-12978619D01*
X13789881Y-12978619D02*
X13799405Y-12959571D01*
X13799405Y-12959571D02*
X13808929Y-12950048D01*
X13808929Y-12950048D02*
X13827976Y-12940524D01*
X13980357Y-13121476D02*
X13989881Y-13131000D01*
X13989881Y-13131000D02*
X13980357Y-13140524D01*
X13980357Y-13140524D02*
X13970833Y-13131000D01*
X13970833Y-13131000D02*
X13980357Y-13121476D01*
X13980357Y-13121476D02*
X13980357Y-13140524D01*
X14113691Y-12940524D02*
X14132738Y-12940524D01*
X14132738Y-12940524D02*
X14151786Y-12950048D01*
X14151786Y-12950048D02*
X14161310Y-12959571D01*
X14161310Y-12959571D02*
X14170833Y-12978619D01*
X14170833Y-12978619D02*
X14180357Y-13016714D01*
X14180357Y-13016714D02*
X14180357Y-13064333D01*
X14180357Y-13064333D02*
X14170833Y-13102428D01*
X14170833Y-13102428D02*
X14161310Y-13121476D01*
X14161310Y-13121476D02*
X14151786Y-13131000D01*
X14151786Y-13131000D02*
X14132738Y-13140524D01*
X14132738Y-13140524D02*
X14113691Y-13140524D01*
X14113691Y-13140524D02*
X14094643Y-13131000D01*
X14094643Y-13131000D02*
X14085119Y-13121476D01*
X14085119Y-13121476D02*
X14075595Y-13102428D01*
X14075595Y-13102428D02*
X14066072Y-13064333D01*
X14066072Y-13064333D02*
X14066072Y-13016714D01*
X14066072Y-13016714D02*
X14075595Y-12978619D01*
X14075595Y-12978619D02*
X14085119Y-12959571D01*
X14085119Y-12959571D02*
X14094643Y-12950048D01*
X14094643Y-12950048D02*
X14113691Y-12940524D01*
X14351786Y-12940524D02*
X14313691Y-12940524D01*
X14313691Y-12940524D02*
X14294643Y-12950048D01*
X14294643Y-12950048D02*
X14285119Y-12959571D01*
X14285119Y-12959571D02*
X14266072Y-12988143D01*
X14266072Y-12988143D02*
X14256548Y-13026238D01*
X14256548Y-13026238D02*
X14256548Y-13102428D01*
X14256548Y-13102428D02*
X14266072Y-13121476D01*
X14266072Y-13121476D02*
X14275595Y-13131000D01*
X14275595Y-13131000D02*
X14294643Y-13140524D01*
X14294643Y-13140524D02*
X14332738Y-13140524D01*
X14332738Y-13140524D02*
X14351786Y-13131000D01*
X14351786Y-13131000D02*
X14361310Y-13121476D01*
X14361310Y-13121476D02*
X14370833Y-13102428D01*
X14370833Y-13102428D02*
X14370833Y-13054809D01*
X14370833Y-13054809D02*
X14361310Y-13035762D01*
X14361310Y-13035762D02*
X14351786Y-13026238D01*
X14351786Y-13026238D02*
X14332738Y-13016714D01*
X14332738Y-13016714D02*
X14294643Y-13016714D01*
X14294643Y-13016714D02*
X14275595Y-13026238D01*
X14275595Y-13026238D02*
X14266072Y-13035762D01*
X14266072Y-13035762D02*
X14256548Y-13054809D01*
X14542262Y-12940524D02*
X14504167Y-12940524D01*
X14504167Y-12940524D02*
X14485119Y-12950048D01*
X14485119Y-12950048D02*
X14475595Y-12959571D01*
X14475595Y-12959571D02*
X14456548Y-12988143D01*
X14456548Y-12988143D02*
X14447024Y-13026238D01*
X14447024Y-13026238D02*
X14447024Y-13102428D01*
X14447024Y-13102428D02*
X14456548Y-13121476D01*
X14456548Y-13121476D02*
X14466072Y-13131000D01*
X14466072Y-13131000D02*
X14485119Y-13140524D01*
X14485119Y-13140524D02*
X14523214Y-13140524D01*
X14523214Y-13140524D02*
X14542262Y-13131000D01*
X14542262Y-13131000D02*
X14551786Y-13121476D01*
X14551786Y-13121476D02*
X14561310Y-13102428D01*
X14561310Y-13102428D02*
X14561310Y-13054809D01*
X14561310Y-13054809D02*
X14551786Y-13035762D01*
X14551786Y-13035762D02*
X14542262Y-13026238D01*
X14542262Y-13026238D02*
X14523214Y-13016714D01*
X14523214Y-13016714D02*
X14485119Y-13016714D01*
X14485119Y-13016714D02*
X14466072Y-13026238D01*
X14466072Y-13026238D02*
X14456548Y-13035762D01*
X14456548Y-13035762D02*
X14447024Y-13054809D01*
X14656548Y-13140524D02*
X14694643Y-13140524D01*
X14694643Y-13140524D02*
X14713691Y-13131000D01*
X14713691Y-13131000D02*
X14723214Y-13121476D01*
X14723214Y-13121476D02*
X14742262Y-13092905D01*
X14742262Y-13092905D02*
X14751786Y-13054809D01*
X14751786Y-13054809D02*
X14751786Y-12978619D01*
X14751786Y-12978619D02*
X14742262Y-12959571D01*
X14742262Y-12959571D02*
X14732738Y-12950048D01*
X14732738Y-12950048D02*
X14713691Y-12940524D01*
X14713691Y-12940524D02*
X14675595Y-12940524D01*
X14675595Y-12940524D02*
X14656548Y-12950048D01*
X14656548Y-12950048D02*
X14647024Y-12959571D01*
X14647024Y-12959571D02*
X14637500Y-12978619D01*
X14637500Y-12978619D02*
X14637500Y-13026238D01*
X14637500Y-13026238D02*
X14647024Y-13045286D01*
X14647024Y-13045286D02*
X14656548Y-13054809D01*
X14656548Y-13054809D02*
X14675595Y-13064333D01*
X14675595Y-13064333D02*
X14713691Y-13064333D01*
X14713691Y-13064333D02*
X14732738Y-13054809D01*
X14732738Y-13054809D02*
X14742262Y-13045286D01*
X14742262Y-13045286D02*
X14751786Y-13026238D01*
X14827976Y-12940524D02*
X14827976Y-12978619D01*
X14904167Y-12940524D02*
X14904167Y-12978619D01*
X15199405Y-13216714D02*
X15189881Y-13207190D01*
X15189881Y-13207190D02*
X15170834Y-13178619D01*
X15170834Y-13178619D02*
X15161310Y-13159571D01*
X15161310Y-13159571D02*
X15151786Y-13131000D01*
X15151786Y-13131000D02*
X15142262Y-13083381D01*
X15142262Y-13083381D02*
X15142262Y-13045286D01*
X15142262Y-13045286D02*
X15151786Y-12997667D01*
X15151786Y-12997667D02*
X15161310Y-12969095D01*
X15161310Y-12969095D02*
X15170834Y-12950048D01*
X15170834Y-12950048D02*
X15189881Y-12921476D01*
X15189881Y-12921476D02*
X15199405Y-12911952D01*
X15304167Y-13026238D02*
X15285119Y-13016714D01*
X15285119Y-13016714D02*
X15275595Y-13007190D01*
X15275595Y-13007190D02*
X15266072Y-12988143D01*
X15266072Y-12988143D02*
X15266072Y-12978619D01*
X15266072Y-12978619D02*
X15275595Y-12959571D01*
X15275595Y-12959571D02*
X15285119Y-12950048D01*
X15285119Y-12950048D02*
X15304167Y-12940524D01*
X15304167Y-12940524D02*
X15342262Y-12940524D01*
X15342262Y-12940524D02*
X15361310Y-12950048D01*
X15361310Y-12950048D02*
X15370834Y-12959571D01*
X15370834Y-12959571D02*
X15380357Y-12978619D01*
X15380357Y-12978619D02*
X15380357Y-12988143D01*
X15380357Y-12988143D02*
X15370834Y-13007190D01*
X15370834Y-13007190D02*
X15361310Y-13016714D01*
X15361310Y-13016714D02*
X15342262Y-13026238D01*
X15342262Y-13026238D02*
X15304167Y-13026238D01*
X15304167Y-13026238D02*
X15285119Y-13035762D01*
X15285119Y-13035762D02*
X15275595Y-13045286D01*
X15275595Y-13045286D02*
X15266072Y-13064333D01*
X15266072Y-13064333D02*
X15266072Y-13102428D01*
X15266072Y-13102428D02*
X15275595Y-13121476D01*
X15275595Y-13121476D02*
X15285119Y-13131000D01*
X15285119Y-13131000D02*
X15304167Y-13140524D01*
X15304167Y-13140524D02*
X15342262Y-13140524D01*
X15342262Y-13140524D02*
X15361310Y-13131000D01*
X15361310Y-13131000D02*
X15370834Y-13121476D01*
X15370834Y-13121476D02*
X15380357Y-13102428D01*
X15380357Y-13102428D02*
X15380357Y-13064333D01*
X15380357Y-13064333D02*
X15370834Y-13045286D01*
X15370834Y-13045286D02*
X15361310Y-13035762D01*
X15361310Y-13035762D02*
X15342262Y-13026238D01*
X15618453Y-13140524D02*
X15618453Y-12940524D01*
X15704167Y-13140524D02*
X15704167Y-13035762D01*
X15704167Y-13035762D02*
X15694643Y-13016714D01*
X15694643Y-13016714D02*
X15675596Y-13007190D01*
X15675596Y-13007190D02*
X15647024Y-13007190D01*
X15647024Y-13007190D02*
X15627976Y-13016714D01*
X15627976Y-13016714D02*
X15618453Y-13026238D01*
X15827976Y-13140524D02*
X15808929Y-13131000D01*
X15808929Y-13131000D02*
X15799405Y-13121476D01*
X15799405Y-13121476D02*
X15789881Y-13102428D01*
X15789881Y-13102428D02*
X15789881Y-13045286D01*
X15789881Y-13045286D02*
X15799405Y-13026238D01*
X15799405Y-13026238D02*
X15808929Y-13016714D01*
X15808929Y-13016714D02*
X15827976Y-13007190D01*
X15827976Y-13007190D02*
X15856548Y-13007190D01*
X15856548Y-13007190D02*
X15875596Y-13016714D01*
X15875596Y-13016714D02*
X15885119Y-13026238D01*
X15885119Y-13026238D02*
X15894643Y-13045286D01*
X15894643Y-13045286D02*
X15894643Y-13102428D01*
X15894643Y-13102428D02*
X15885119Y-13121476D01*
X15885119Y-13121476D02*
X15875596Y-13131000D01*
X15875596Y-13131000D02*
X15856548Y-13140524D01*
X15856548Y-13140524D02*
X15827976Y-13140524D01*
X16008929Y-13140524D02*
X15989881Y-13131000D01*
X15989881Y-13131000D02*
X15980357Y-13111952D01*
X15980357Y-13111952D02*
X15980357Y-12940524D01*
X16161310Y-13131000D02*
X16142262Y-13140524D01*
X16142262Y-13140524D02*
X16104167Y-13140524D01*
X16104167Y-13140524D02*
X16085119Y-13131000D01*
X16085119Y-13131000D02*
X16075596Y-13111952D01*
X16075596Y-13111952D02*
X16075596Y-13035762D01*
X16075596Y-13035762D02*
X16085119Y-13016714D01*
X16085119Y-13016714D02*
X16104167Y-13007190D01*
X16104167Y-13007190D02*
X16142262Y-13007190D01*
X16142262Y-13007190D02*
X16161310Y-13016714D01*
X16161310Y-13016714D02*
X16170834Y-13035762D01*
X16170834Y-13035762D02*
X16170834Y-13054809D01*
X16170834Y-13054809D02*
X16075596Y-13073857D01*
X16247024Y-13131000D02*
X16266072Y-13140524D01*
X16266072Y-13140524D02*
X16304167Y-13140524D01*
X16304167Y-13140524D02*
X16323215Y-13131000D01*
X16323215Y-13131000D02*
X16332738Y-13111952D01*
X16332738Y-13111952D02*
X16332738Y-13102428D01*
X16332738Y-13102428D02*
X16323215Y-13083381D01*
X16323215Y-13083381D02*
X16304167Y-13073857D01*
X16304167Y-13073857D02*
X16275596Y-13073857D01*
X16275596Y-13073857D02*
X16256548Y-13064333D01*
X16256548Y-13064333D02*
X16247024Y-13045286D01*
X16247024Y-13045286D02*
X16247024Y-13035762D01*
X16247024Y-13035762D02*
X16256548Y-13016714D01*
X16256548Y-13016714D02*
X16275596Y-13007190D01*
X16275596Y-13007190D02*
X16304167Y-13007190D01*
X16304167Y-13007190D02*
X16323215Y-13016714D01*
X16399405Y-13216714D02*
X16408929Y-13207190D01*
X16408929Y-13207190D02*
X16427977Y-13178619D01*
X16427977Y-13178619D02*
X16437500Y-13159571D01*
X16437500Y-13159571D02*
X16447024Y-13131000D01*
X16447024Y-13131000D02*
X16456548Y-13083381D01*
X16456548Y-13083381D02*
X16456548Y-13045286D01*
X16456548Y-13045286D02*
X16447024Y-12997667D01*
X16447024Y-12997667D02*
X16437500Y-12969095D01*
X16437500Y-12969095D02*
X16427977Y-12950048D01*
X16427977Y-12950048D02*
X16408929Y-12921476D01*
X16408929Y-12921476D02*
X16399405Y-12911952D01*
M02*
