%TF.GenerationSoftware,KiCad,Pcbnew,8.0.0*%
%TF.CreationDate,2024-03-23T17:17:28+01:00*%
%TF.ProjectId,Filter,46696c74-6572-42e6-9b69-6361645f7063,rev?*%
%TF.SameCoordinates,Original*%
%TF.FileFunction,Copper,L2,Bot*%
%TF.FilePolarity,Positive*%
%FSLAX45Y45*%
G04 Gerber Fmt 4.5, Leading zero omitted, Abs format (unit mm)*
G04 Created by KiCad (PCBNEW 8.0.0) date 2024-03-23 17:17:28*
%MOMM*%
%LPD*%
G01*
G04 APERTURE LIST*
G04 Aperture macros list*
%AMRoundRect*
0 Rectangle with rounded corners*
0 $1 Rounding radius*
0 $2 $3 $4 $5 $6 $7 $8 $9 X,Y pos of 4 corners*
0 Add a 4 corners polygon primitive as box body*
4,1,4,$2,$3,$4,$5,$6,$7,$8,$9,$2,$3,0*
0 Add four circle primitives for the rounded corners*
1,1,$1+$1,$2,$3*
1,1,$1+$1,$4,$5*
1,1,$1+$1,$6,$7*
1,1,$1+$1,$8,$9*
0 Add four rect primitives between the rounded corners*
20,1,$1+$1,$2,$3,$4,$5,0*
20,1,$1+$1,$4,$5,$6,$7,0*
20,1,$1+$1,$6,$7,$8,$9,0*
20,1,$1+$1,$8,$9,$2,$3,0*%
G04 Aperture macros list end*
%TA.AperFunction,ComponentPad*%
%ADD10C,2.000000*%
%TD*%
%TA.AperFunction,ComponentPad*%
%ADD11C,1.600000*%
%TD*%
%TA.AperFunction,ComponentPad*%
%ADD12RoundRect,0.200100X0.949900X-0.949900X0.949900X0.949900X-0.949900X0.949900X-0.949900X-0.949900X0*%
%TD*%
%TA.AperFunction,ComponentPad*%
%ADD13C,2.500000*%
%TD*%
%TA.AperFunction,ComponentPad*%
%ADD14RoundRect,0.200100X-0.949900X0.949900X-0.949900X-0.949900X0.949900X-0.949900X0.949900X0.949900X0*%
%TD*%
%TA.AperFunction,ComponentPad*%
%ADD15C,2.400000*%
%TD*%
%TA.AperFunction,ComponentPad*%
%ADD16R,1.700000X1.700000*%
%TD*%
%TA.AperFunction,ComponentPad*%
%ADD17O,1.700000X1.700000*%
%TD*%
%TA.AperFunction,SMDPad,CuDef*%
%ADD18RoundRect,0.250000X0.312500X0.625000X-0.312500X0.625000X-0.312500X-0.625000X0.312500X-0.625000X0*%
%TD*%
%TA.AperFunction,SMDPad,CuDef*%
%ADD19RoundRect,0.250000X-0.325000X-0.650000X0.325000X-0.650000X0.325000X0.650000X-0.325000X0.650000X0*%
%TD*%
%TA.AperFunction,SMDPad,CuDef*%
%ADD20RoundRect,0.250000X0.650000X-0.325000X0.650000X0.325000X-0.650000X0.325000X-0.650000X-0.325000X0*%
%TD*%
%TA.AperFunction,SMDPad,CuDef*%
%ADD21RoundRect,0.250000X0.625000X-0.312500X0.625000X0.312500X-0.625000X0.312500X-0.625000X-0.312500X0*%
%TD*%
%TA.AperFunction,SMDPad,CuDef*%
%ADD22RoundRect,0.250000X-0.312500X-0.625000X0.312500X-0.625000X0.312500X0.625000X-0.312500X0.625000X0*%
%TD*%
%TA.AperFunction,ViaPad*%
%ADD23C,0.800000*%
%TD*%
%TA.AperFunction,Conductor*%
%ADD24C,2.000000*%
%TD*%
%TA.AperFunction,Conductor*%
%ADD25C,3.000000*%
%TD*%
%TA.AperFunction,Conductor*%
%ADD26C,0.700000*%
%TD*%
%TA.AperFunction,Conductor*%
%ADD27C,0.400000*%
%TD*%
%TA.AperFunction,Profile*%
%ADD28C,0.100000*%
%TD*%
%TA.AperFunction,Profile*%
%ADD29C,0.200000*%
%TD*%
G04 APERTURE END LIST*
D10*
%TO.P,L7,1,1*%
%TO.N,Net-(C9-Pad2)*%
X14641000Y-9243000D03*
%TO.P,L7,2,2*%
%TO.N,Net-(C10-Pad1)*%
X15641000Y-9243000D03*
%TD*%
%TO.P,L8,1,1*%
%TO.N,Net-(C10-Pad1)*%
X15523000Y-8546000D03*
%TO.P,L8,2,2*%
%TO.N,GND*%
X14523000Y-8546000D03*
%TD*%
D11*
%TO.P,C7,1*%
%TO.N,Net-(C7-Pad1)*%
X16189000Y-8648000D03*
%TO.P,C7,2*%
%TO.N,GND*%
X16189000Y-9148000D03*
%TD*%
D12*
%TO.P,J1,1,In*%
%TO.N,Net-(J1-In)*%
X12168000Y-8770000D03*
D13*
%TO.P,J1,2,Ext*%
%TO.N,GND*%
X11914000Y-9024000D03*
X12422000Y-9024000D03*
X11914000Y-8516000D03*
X12422000Y-8516000D03*
%TD*%
D11*
%TO.P,C6,1*%
%TO.N,Net-(C6-Pad1)*%
X14051000Y-8176000D03*
%TO.P,C6,2*%
%TO.N,Net-(C6-Pad2)*%
X14551000Y-8176000D03*
%TD*%
%TO.P,C9,1*%
%TO.N,Net-(U1-1B3)*%
X14160000Y-8893000D03*
%TO.P,C9,2*%
%TO.N,Net-(C9-Pad2)*%
X14660000Y-8893000D03*
%TD*%
%TO.P,C13,1*%
%TO.N,Net-(C13-Pad1)*%
X16504000Y-9949000D03*
%TO.P,C13,2*%
%TO.N,GND*%
X17004000Y-9949000D03*
%TD*%
%TO.P,C14,1*%
%TO.N,Net-(C13-Pad1)*%
X16501000Y-10327000D03*
%TO.P,C14,2*%
%TO.N,Net-(C14-Pad2)*%
X17001000Y-10327000D03*
%TD*%
D10*
%TO.P,T2,1,AA*%
%TO.N,Net-(T2-AA)*%
X18836000Y-6967000D03*
%TO.P,T2,2,AB*%
%TO.N,Net-(T2-AB)*%
X18836000Y-8067000D03*
%TO.P,T2,3,SA*%
%TO.N,GND*%
X19436000Y-6967000D03*
%TO.P,T2,4,SB*%
%TO.N,Net-(J4-In)*%
X19436000Y-8067000D03*
%TD*%
D11*
%TO.P,C2,1*%
%TO.N,Net-(C2-Pad1)*%
X14186000Y-6583000D03*
%TO.P,C2,2*%
%TO.N,Net-(C2-Pad2)*%
X14686000Y-6583000D03*
%TD*%
D14*
%TO.P,J4,1,In*%
%TO.N,Net-(J4-In)*%
X19745000Y-8727000D03*
D13*
%TO.P,J4,2,Ext*%
%TO.N,GND*%
X19999000Y-8473000D03*
X19491000Y-8473000D03*
X19999000Y-8981000D03*
X19491000Y-8981000D03*
%TD*%
D15*
%TO.P,L1,1,1*%
%TO.N,Net-(C2-Pad2)*%
X14524000Y-6956000D03*
%TO.P,L1,2,2*%
%TO.N,Net-(C3-Pad1)*%
X15824000Y-6956000D03*
%TD*%
%TO.P,L2,1,1*%
%TO.N,Net-(C3-Pad1)*%
X15823500Y-7366000D03*
%TO.P,L2,2,2*%
%TO.N,GND*%
X17123500Y-7366000D03*
%TD*%
D11*
%TO.P,C4,1*%
%TO.N,Net-(C3-Pad1)*%
X16191000Y-6769000D03*
%TO.P,C4,2*%
%TO.N,Net-(C4-Pad2)*%
X16691000Y-6769000D03*
%TD*%
D16*
%TO.P,J3,1,Pin_1*%
%TO.N,GND*%
X15442000Y-10585000D03*
D17*
%TO.P,J3,2,Pin_2*%
%TO.N,+5V*%
X15188000Y-10585000D03*
%TO.P,J3,3,Pin_3*%
%TO.N,Net-(J3-Pin_3)*%
X14934000Y-10585000D03*
%TO.P,J3,4,Pin_4*%
%TO.N,Net-(J3-Pin_4)*%
X14680000Y-10585000D03*
%TD*%
D11*
%TO.P,C5,1*%
%TO.N,Net-(U1-1B2)*%
X12885000Y-8165000D03*
%TO.P,C5,2*%
%TO.N,Net-(C5-Pad2)*%
X13385000Y-8165000D03*
%TD*%
%TO.P,C11,1*%
%TO.N,Net-(C10-Pad1)*%
X16291000Y-9419000D03*
%TO.P,C11,2*%
%TO.N,Net-(C11-Pad2)*%
X16791000Y-9419000D03*
%TD*%
D10*
%TO.P,T1,1,AA*%
%TO.N,Net-(T1-AA)*%
X12945000Y-7089000D03*
%TO.P,T1,2,AB*%
%TO.N,Net-(T1-AB)*%
X11845000Y-7089000D03*
%TO.P,T1,3,SA*%
%TO.N,GND*%
X12945000Y-7689000D03*
%TO.P,T1,4,SB*%
%TO.N,Net-(J1-In)*%
X11845000Y-7689000D03*
%TD*%
D15*
%TO.P,L4,1,1*%
%TO.N,Net-(C6-Pad2)*%
X14545000Y-7772000D03*
%TO.P,L4,2,2*%
%TO.N,Net-(C7-Pad1)*%
X15845000Y-7772000D03*
%TD*%
D11*
%TO.P,C1,1*%
%TO.N,Net-(U1-1B1)*%
X13236000Y-7355000D03*
%TO.P,C1,2*%
%TO.N,Net-(C1-Pad2)*%
X13236000Y-6855000D03*
%TD*%
%TO.P,C8,1*%
%TO.N,Net-(C7-Pad1)*%
X16188000Y-8256000D03*
%TO.P,C8,2*%
%TO.N,Net-(C8-Pad2)*%
X16688000Y-8256000D03*
%TD*%
%TO.P,C10,1*%
%TO.N,Net-(C10-Pad1)*%
X15841000Y-8807000D03*
%TO.P,C10,2*%
%TO.N,GND*%
X15841000Y-8307000D03*
%TD*%
D10*
%TO.P,L12,1,1*%
%TO.N,Net-(C14-Pad2)*%
X17289000Y-10325000D03*
%TO.P,L12,2,2*%
%TO.N,Net-(U2-1B4)*%
X18289000Y-10325000D03*
%TD*%
D15*
%TO.P,L3,1,1*%
%TO.N,Net-(C4-Pad2)*%
X17030000Y-6951000D03*
%TO.P,L3,2,2*%
%TO.N,Net-(U2-1B1)*%
X18330000Y-6951000D03*
%TD*%
D10*
%TO.P,L10,1,1*%
%TO.N,Net-(C12-Pad2)*%
X14588000Y-9952000D03*
%TO.P,L10,2,2*%
%TO.N,Net-(C13-Pad1)*%
X15588000Y-9952000D03*
%TD*%
%TO.P,L11,1,1*%
%TO.N,Net-(C13-Pad1)*%
X16084000Y-9692000D03*
%TO.P,L11,2,2*%
%TO.N,GND*%
X16084000Y-10692000D03*
%TD*%
D11*
%TO.P,C12,1*%
%TO.N,Net-(U1-1B4)*%
X14162000Y-9589000D03*
%TO.P,C12,2*%
%TO.N,Net-(C12-Pad2)*%
X14662000Y-9589000D03*
%TD*%
%TO.P,C3,1*%
%TO.N,Net-(C3-Pad1)*%
X16193000Y-6398000D03*
%TO.P,C3,2*%
%TO.N,GND*%
X16693000Y-6398000D03*
%TD*%
D15*
%TO.P,L5,1,1*%
%TO.N,Net-(C7-Pad1)*%
X16488000Y-8649000D03*
%TO.P,L5,2,2*%
%TO.N,GND*%
X17788000Y-8649000D03*
%TD*%
%TO.P,L6,1,1*%
%TO.N,Net-(C8-Pad2)*%
X17031000Y-7782000D03*
%TO.P,L6,2,2*%
%TO.N,Net-(U2-1B2)*%
X18331000Y-7782000D03*
%TD*%
D10*
%TO.P,L9,1,1*%
%TO.N,Net-(C11-Pad2)*%
X17276000Y-9443000D03*
%TO.P,L9,2,2*%
%TO.N,Net-(U2-1B3)*%
X18276000Y-9443000D03*
%TD*%
D18*
%TO.P,R1,1*%
%TO.N,+5V*%
X12647750Y-7672125D03*
%TO.P,R1,2*%
%TO.N,Net-(T1-AB)*%
X12355250Y-7672125D03*
%TD*%
%TO.P,R3,1*%
%TO.N,+5V*%
X19127000Y-7766000D03*
%TO.P,R3,2*%
%TO.N,Net-(T2-AB)*%
X18834500Y-7766000D03*
%TD*%
D19*
%TO.P,C21,1*%
%TO.N,Net-(J3-Pin_4)*%
X14015000Y-10590000D03*
%TO.P,C21,2*%
%TO.N,GND*%
X14310000Y-10590000D03*
%TD*%
%TO.P,C18,1*%
%TO.N,Net-(T2-AB)*%
X19329000Y-7324000D03*
%TO.P,C18,2*%
%TO.N,GND*%
X19624000Y-7324000D03*
%TD*%
D18*
%TO.P,R12,1*%
%TO.N,GND*%
X14305000Y-10830000D03*
%TO.P,R12,2*%
%TO.N,Net-(J3-Pin_4)*%
X14012500Y-10830000D03*
%TD*%
D19*
%TO.P,C20,1*%
%TO.N,Net-(J3-Pin_3)*%
X14015000Y-10345000D03*
%TO.P,C20,2*%
%TO.N,GND*%
X14310000Y-10345000D03*
%TD*%
D20*
%TO.P,C16,1*%
%TO.N,Net-(T1-AB)*%
X12477250Y-7343375D03*
%TO.P,C16,2*%
%TO.N,GND*%
X12477250Y-7048375D03*
%TD*%
D18*
%TO.P,R11,1*%
%TO.N,GND*%
X14307500Y-10110000D03*
%TO.P,R11,2*%
%TO.N,Net-(J3-Pin_3)*%
X14015000Y-10110000D03*
%TD*%
D21*
%TO.P,R2,1*%
%TO.N,Net-(T1-AB)*%
X12217250Y-7338875D03*
%TO.P,R2,2*%
%TO.N,GND*%
X12217250Y-7046375D03*
%TD*%
D22*
%TO.P,R4,1*%
%TO.N,Net-(T2-AB)*%
X19328500Y-7597000D03*
%TO.P,R4,2*%
%TO.N,GND*%
X19621000Y-7597000D03*
%TD*%
D23*
%TO.N,+5V*%
X18286500Y-8914000D03*
X13740000Y-9416500D03*
%TO.N,Net-(J3-Pin_4)*%
X13815000Y-10585000D03*
X13610000Y-9245000D03*
X19078500Y-8945000D03*
%TO.N,Net-(J3-Pin_3)*%
X18164500Y-8725000D03*
X13815000Y-10335000D03*
%TD*%
D24*
%TO.N,Net-(T2-AB)*%
X19328500Y-7597000D02*
X19328500Y-7449500D01*
X19329000Y-7596500D02*
X19328500Y-7597000D01*
X18836000Y-7767500D02*
X18834500Y-7766000D01*
X19329000Y-7324000D02*
X19329000Y-7596500D01*
X18834500Y-7547500D02*
X18834500Y-7766000D01*
X18836000Y-8067000D02*
X18836000Y-7767500D01*
X19328500Y-7449500D02*
X19311000Y-7432000D01*
X19311000Y-7432000D02*
X18950000Y-7432000D01*
X18950000Y-7432000D02*
X18834500Y-7547500D01*
%TO.N,GND*%
X15649000Y-8216000D02*
X15895000Y-8462000D01*
X15702000Y-8080000D02*
X15948000Y-8326000D01*
X19354000Y-7103000D02*
X19600000Y-6857000D01*
X19491000Y-8473000D02*
X19999000Y-8473000D01*
X19299000Y-8478000D02*
X19807000Y-8478000D01*
X12367000Y-7083000D02*
X12137000Y-7083000D01*
X16303000Y-9090000D02*
X16073000Y-9090000D01*
X14574000Y-8414000D02*
X14328000Y-8660000D01*
X15549000Y-10700000D02*
X15549000Y-10192000D01*
X13077000Y-7600000D02*
X12847000Y-7600000D01*
X20071000Y-8835000D02*
X20071000Y-8327000D01*
X17929000Y-8634000D02*
X17660000Y-8903000D01*
D25*
X12422000Y-8516000D02*
X12371000Y-8465000D01*
D24*
X16187000Y-10691000D02*
X15957000Y-10691000D01*
X19594000Y-7736000D02*
X19594000Y-7228000D01*
X19473000Y-7109000D02*
X19719000Y-6863000D01*
X19341000Y-8367000D02*
X19849000Y-8367000D01*
X17929000Y-8519000D02*
X17929000Y-8634000D01*
X17114000Y-9880000D02*
X16884000Y-9880000D01*
X20073000Y-9285000D02*
X20073000Y-8777000D01*
D25*
X11851000Y-9084000D02*
X11851000Y-8488000D01*
D24*
X15470000Y-10697000D02*
X15470000Y-10189000D01*
X19492000Y-9043000D02*
X19492000Y-8535000D01*
D25*
X12478000Y-9082000D02*
X11882000Y-9082000D01*
D24*
X16811000Y-6481000D02*
X16581000Y-6481000D01*
D25*
X12371000Y-8465000D02*
X11907000Y-8465000D01*
D24*
X19490000Y-8981000D02*
X19998000Y-8981000D01*
X19993000Y-8776000D02*
X19993000Y-8268000D01*
X16178000Y-10607000D02*
X15948000Y-10607000D01*
X16819000Y-6347000D02*
X16589000Y-6347000D01*
X17824000Y-8479000D02*
X17578000Y-8725000D01*
X12568000Y-7000000D02*
X12338000Y-7000000D01*
X15400000Y-10701000D02*
X15400000Y-10389000D01*
X17199000Y-7171000D02*
X16953000Y-7417000D01*
X12370000Y-6998000D02*
X12140000Y-6998000D01*
X19478000Y-6797000D02*
X19232000Y-7043000D01*
X17099000Y-9988000D02*
X16869000Y-9988000D01*
D25*
X12470000Y-9080000D02*
X12470000Y-8484000D01*
D24*
X19991000Y-9217000D02*
X19991000Y-8709000D01*
X17331000Y-7274000D02*
X17085000Y-7520000D01*
X16288000Y-9195000D02*
X16058000Y-9195000D01*
X19484000Y-9127000D02*
X19992000Y-9127000D01*
X19712000Y-7722000D02*
X19712000Y-7214000D01*
X14736000Y-8439000D02*
X14490000Y-8685000D01*
X13078000Y-7749000D02*
X12848000Y-7749000D01*
X12590000Y-7081000D02*
X12360000Y-7081000D01*
X19407000Y-9083000D02*
X19407000Y-8575000D01*
D26*
%TO.N,+5V*%
X13740000Y-9416500D02*
X13740000Y-8670000D01*
X12835000Y-8440000D02*
X12647750Y-8252750D01*
D27*
X13740000Y-9416500D02*
X13733000Y-9409500D01*
D26*
X12647750Y-8252750D02*
X12647750Y-7672125D01*
X13510000Y-8440000D02*
X12835000Y-8440000D01*
D27*
X19127000Y-7766000D02*
X19127000Y-8718000D01*
D26*
X13740000Y-8670000D02*
X13510000Y-8440000D01*
D27*
X18931000Y-8914000D02*
X18286500Y-8914000D01*
X19127000Y-8718000D02*
X18931000Y-8914000D01*
X19127000Y-8214500D02*
X19127000Y-7766000D01*
D24*
%TO.N,Net-(T1-AB)*%
X11845000Y-7137375D02*
X12051000Y-7343375D01*
X12355750Y-7343375D02*
X12354750Y-7344375D01*
X12051000Y-7343375D02*
X12477250Y-7343375D01*
X12354750Y-7344375D02*
X12354750Y-7676375D01*
X11845000Y-7089000D02*
X11845000Y-7137375D01*
D26*
%TO.N,Net-(J3-Pin_4)*%
X14015000Y-10830000D02*
X14015000Y-10590000D01*
X19078500Y-10551500D02*
X19078500Y-8945000D01*
X14855000Y-10960000D02*
X14680000Y-10785000D01*
D27*
X13815000Y-10585000D02*
X13810000Y-10590000D01*
D26*
X14015000Y-10590000D02*
X13810000Y-10590000D01*
X13810000Y-10590000D02*
X13610000Y-10390000D01*
X13610000Y-10390000D02*
X13610000Y-9245000D01*
X18685000Y-10945000D02*
X19078500Y-10551500D01*
X14680000Y-10785000D02*
X14680000Y-10585000D01*
X14855000Y-10960000D02*
X18670000Y-10960000D01*
X18670000Y-10960000D02*
X18685000Y-10945000D01*
%TO.N,Net-(J3-Pin_3)*%
X18610000Y-10855000D02*
X18970000Y-10495000D01*
X13815000Y-10335000D02*
X14005000Y-10335000D01*
X18970000Y-9300000D02*
X18820000Y-9150000D01*
D27*
X14005000Y-10335000D02*
X14015000Y-10345000D01*
D26*
X18595000Y-10870000D02*
X18610000Y-10855000D01*
X14015000Y-10345000D02*
X14015000Y-10110000D01*
X14934000Y-10585000D02*
X14934000Y-10789000D01*
X15015000Y-10870000D02*
X18595000Y-10870000D01*
X18164500Y-9009500D02*
X18164500Y-8725000D01*
X18970000Y-10495000D02*
X18970000Y-9300000D01*
X18305000Y-9150000D02*
X18164500Y-9009500D01*
X14934000Y-10789000D02*
X15015000Y-10870000D01*
X18820000Y-9150000D02*
X18305000Y-9150000D01*
%TD*%
%TA.AperFunction,Conductor*%
%TO.N,GND*%
G36*
X20168297Y-6185974D02*
G01*
X20172877Y-6191250D01*
X20174003Y-6196409D01*
X20174448Y-8380605D01*
X20172481Y-8387309D01*
X20167201Y-8391886D01*
X20160286Y-8392881D01*
X20153930Y-8389980D01*
X20151309Y-8386807D01*
X20143997Y-8374142D01*
X20139212Y-8368143D01*
X20074411Y-8432944D01*
X20074326Y-8432737D01*
X20065024Y-8418816D01*
X20053184Y-8406976D01*
X20039263Y-8397674D01*
X20039056Y-8397589D01*
X20103917Y-8332728D01*
X20086745Y-8321021D01*
X20086745Y-8321020D01*
X20063114Y-8309640D01*
X20063114Y-8309640D01*
X20038051Y-8301909D01*
X20038050Y-8301909D01*
X20012115Y-8298000D01*
X19985885Y-8298000D01*
X19959950Y-8301909D01*
X19959949Y-8301909D01*
X19934886Y-8309640D01*
X19934885Y-8309640D01*
X19911255Y-8321020D01*
X19911254Y-8321021D01*
X19894083Y-8332728D01*
X19958944Y-8397589D01*
X19958737Y-8397674D01*
X19944816Y-8406976D01*
X19932976Y-8418816D01*
X19923674Y-8432737D01*
X19923589Y-8432944D01*
X19858788Y-8368143D01*
X19858787Y-8368143D01*
X19854003Y-8374142D01*
X19840888Y-8396857D01*
X19831306Y-8421273D01*
X19825469Y-8446845D01*
X19825469Y-8446845D01*
X19823509Y-8473000D01*
X19823509Y-8473000D01*
X19825469Y-8499155D01*
X19825469Y-8499155D01*
X19831306Y-8524727D01*
X19840888Y-8549143D01*
X19840888Y-8549143D01*
X19854003Y-8571857D01*
X19854015Y-8571873D01*
X19854018Y-8571879D01*
X19854264Y-8572241D01*
X19854187Y-8572294D01*
X19856656Y-8578341D01*
X19855381Y-8585211D01*
X19850594Y-8590300D01*
X19843815Y-8591994D01*
X19843350Y-8591966D01*
X19843145Y-8591950D01*
X19646856Y-8591950D01*
X19646651Y-8591966D01*
X19646575Y-8591950D01*
X19646370Y-8591950D01*
X19646370Y-8591907D01*
X19639814Y-8590529D01*
X19634838Y-8585624D01*
X19633305Y-8578807D01*
X19635700Y-8572244D01*
X19635985Y-8571872D01*
X19635997Y-8571857D01*
X19649112Y-8549143D01*
X19658694Y-8524727D01*
X19664531Y-8499155D01*
X19664531Y-8499155D01*
X19666491Y-8473000D01*
X19666491Y-8473000D01*
X19664531Y-8446845D01*
X19664531Y-8446845D01*
X19658694Y-8421273D01*
X19649112Y-8396857D01*
X19649112Y-8396857D01*
X19635997Y-8374143D01*
X19631212Y-8368143D01*
X19566411Y-8432944D01*
X19566326Y-8432737D01*
X19557024Y-8418816D01*
X19545184Y-8406976D01*
X19531263Y-8397674D01*
X19531056Y-8397589D01*
X19595917Y-8332728D01*
X19578745Y-8321021D01*
X19578745Y-8321020D01*
X19555114Y-8309640D01*
X19555114Y-8309640D01*
X19530051Y-8301909D01*
X19530050Y-8301909D01*
X19504115Y-8298000D01*
X19477885Y-8298000D01*
X19451950Y-8301909D01*
X19451949Y-8301909D01*
X19426886Y-8309640D01*
X19426885Y-8309640D01*
X19403255Y-8321020D01*
X19403254Y-8321021D01*
X19386083Y-8332728D01*
X19450944Y-8397589D01*
X19450737Y-8397674D01*
X19436816Y-8406976D01*
X19424976Y-8418816D01*
X19415674Y-8432737D01*
X19415589Y-8432944D01*
X19350788Y-8368143D01*
X19350787Y-8368143D01*
X19346003Y-8374142D01*
X19332888Y-8396857D01*
X19323306Y-8421273D01*
X19317469Y-8446845D01*
X19317469Y-8446845D01*
X19315509Y-8473000D01*
X19315509Y-8473000D01*
X19317469Y-8499155D01*
X19317469Y-8499155D01*
X19323306Y-8524727D01*
X19332888Y-8549143D01*
X19332888Y-8549143D01*
X19346003Y-8571857D01*
X19350787Y-8577857D01*
X19415588Y-8513056D01*
X19415674Y-8513263D01*
X19424976Y-8527184D01*
X19436816Y-8539024D01*
X19450737Y-8548326D01*
X19450944Y-8548411D01*
X19386083Y-8613272D01*
X19403255Y-8624979D01*
X19403255Y-8624980D01*
X19426885Y-8636359D01*
X19426886Y-8636360D01*
X19451949Y-8644091D01*
X19451950Y-8644091D01*
X19477885Y-8648000D01*
X19477886Y-8648000D01*
X19504114Y-8648000D01*
X19504115Y-8648000D01*
X19530050Y-8644091D01*
X19530051Y-8644091D01*
X19555114Y-8636360D01*
X19578745Y-8624980D01*
X19578745Y-8624980D01*
X19590692Y-8616835D01*
X19597340Y-8614685D01*
X19604095Y-8616470D01*
X19608812Y-8621624D01*
X19609970Y-8628369D01*
X19609988Y-8628371D01*
X19609982Y-8628443D01*
X19609994Y-8628510D01*
X19609955Y-8628797D01*
X19609950Y-8628856D01*
X19609950Y-8825144D01*
X19609988Y-8825629D01*
X19609839Y-8825641D01*
X19609028Y-8831912D01*
X19604527Y-8837256D01*
X19597852Y-8839319D01*
X19591121Y-8837445D01*
X19590692Y-8837166D01*
X19578745Y-8829021D01*
X19578745Y-8829020D01*
X19555114Y-8817640D01*
X19555114Y-8817640D01*
X19530051Y-8809909D01*
X19530050Y-8809909D01*
X19504115Y-8806000D01*
X19477885Y-8806000D01*
X19451950Y-8809909D01*
X19451949Y-8809909D01*
X19426886Y-8817640D01*
X19426885Y-8817641D01*
X19403255Y-8829021D01*
X19403254Y-8829021D01*
X19386083Y-8840728D01*
X19450944Y-8905589D01*
X19450737Y-8905674D01*
X19436816Y-8914976D01*
X19424976Y-8926816D01*
X19415674Y-8940737D01*
X19415589Y-8940944D01*
X19350788Y-8876143D01*
X19350787Y-8876143D01*
X19346003Y-8882143D01*
X19332888Y-8904857D01*
X19323306Y-8929273D01*
X19317469Y-8954845D01*
X19317469Y-8954845D01*
X19315509Y-8981000D01*
X19315509Y-8981000D01*
X19317469Y-9007155D01*
X19317469Y-9007155D01*
X19323306Y-9032727D01*
X19332888Y-9057143D01*
X19332888Y-9057143D01*
X19346003Y-9079857D01*
X19350787Y-9085857D01*
X19415588Y-9021056D01*
X19415674Y-9021263D01*
X19424976Y-9035184D01*
X19436816Y-9047024D01*
X19450737Y-9056326D01*
X19450944Y-9056411D01*
X19386083Y-9121272D01*
X19403255Y-9132979D01*
X19403255Y-9132980D01*
X19426885Y-9144359D01*
X19426886Y-9144360D01*
X19451949Y-9152091D01*
X19451950Y-9152091D01*
X19477885Y-9156000D01*
X19477886Y-9156000D01*
X19504114Y-9156000D01*
X19504115Y-9156000D01*
X19530050Y-9152091D01*
X19530051Y-9152091D01*
X19555114Y-9144360D01*
X19578745Y-9132980D01*
X19578745Y-9132980D01*
X19595917Y-9121272D01*
X19531056Y-9056411D01*
X19531263Y-9056326D01*
X19545184Y-9047024D01*
X19557024Y-9035184D01*
X19566326Y-9021263D01*
X19566411Y-9021056D01*
X19631213Y-9085857D01*
X19635997Y-9079857D01*
X19649112Y-9057143D01*
X19658694Y-9032727D01*
X19664531Y-9007155D01*
X19664531Y-9007155D01*
X19666491Y-8981000D01*
X19666491Y-8981000D01*
X19664531Y-8954845D01*
X19664531Y-8954845D01*
X19658694Y-8929273D01*
X19649112Y-8904857D01*
X19649112Y-8904857D01*
X19635997Y-8882143D01*
X19635985Y-8882128D01*
X19635982Y-8882121D01*
X19635736Y-8881759D01*
X19635813Y-8881706D01*
X19633344Y-8875659D01*
X19634619Y-8868789D01*
X19639406Y-8863700D01*
X19646185Y-8862006D01*
X19646652Y-8862034D01*
X19646856Y-8862050D01*
X19646857Y-8862050D01*
X19843143Y-8862050D01*
X19843144Y-8862050D01*
X19843347Y-8862034D01*
X19843423Y-8862050D01*
X19843630Y-8862050D01*
X19843630Y-8862093D01*
X19850184Y-8863470D01*
X19855161Y-8868374D01*
X19856695Y-8875191D01*
X19854301Y-8881755D01*
X19854017Y-8882125D01*
X19854003Y-8882142D01*
X19854003Y-8882142D01*
X19840888Y-8904857D01*
X19831306Y-8929273D01*
X19825469Y-8954845D01*
X19825469Y-8954845D01*
X19823509Y-8981000D01*
X19823509Y-8981000D01*
X19825469Y-9007155D01*
X19825469Y-9007155D01*
X19831306Y-9032727D01*
X19840888Y-9057143D01*
X19840888Y-9057143D01*
X19854003Y-9079857D01*
X19858787Y-9085857D01*
X19923588Y-9021056D01*
X19923674Y-9021263D01*
X19932976Y-9035184D01*
X19944816Y-9047024D01*
X19958737Y-9056326D01*
X19958944Y-9056411D01*
X19894083Y-9121272D01*
X19911255Y-9132979D01*
X19911255Y-9132980D01*
X19934885Y-9144359D01*
X19934886Y-9144360D01*
X19959949Y-9152091D01*
X19959950Y-9152091D01*
X19985885Y-9156000D01*
X19985886Y-9156000D01*
X20012114Y-9156000D01*
X20012115Y-9156000D01*
X20038050Y-9152091D01*
X20038051Y-9152091D01*
X20063114Y-9144360D01*
X20086745Y-9132980D01*
X20086745Y-9132980D01*
X20103917Y-9121272D01*
X20039056Y-9056411D01*
X20039263Y-9056326D01*
X20053184Y-9047024D01*
X20065024Y-9035184D01*
X20074326Y-9021263D01*
X20074411Y-9021056D01*
X20139213Y-9085857D01*
X20143997Y-9079857D01*
X20151451Y-9066948D01*
X20156507Y-9062126D01*
X20163368Y-9060804D01*
X20169854Y-9063401D01*
X20173907Y-9069092D01*
X20174589Y-9073145D01*
X20174997Y-11074608D01*
X20173030Y-11081312D01*
X20167751Y-11085889D01*
X20162608Y-11087010D01*
X11664410Y-11093990D01*
X11657705Y-11092027D01*
X11653125Y-11086750D01*
X11652000Y-11081590D01*
X11652000Y-9024000D01*
X11738509Y-9024000D01*
X11740469Y-9050155D01*
X11740469Y-9050155D01*
X11746306Y-9075727D01*
X11755888Y-9100143D01*
X11755888Y-9100143D01*
X11769003Y-9122857D01*
X11773787Y-9128857D01*
X11838588Y-9064056D01*
X11838674Y-9064263D01*
X11847976Y-9078184D01*
X11859816Y-9090024D01*
X11873737Y-9099326D01*
X11873944Y-9099411D01*
X11809083Y-9164272D01*
X11826255Y-9175979D01*
X11826255Y-9175980D01*
X11849885Y-9187359D01*
X11849886Y-9187360D01*
X11874949Y-9195091D01*
X11874950Y-9195091D01*
X11900885Y-9199000D01*
X11900886Y-9199000D01*
X11927114Y-9199000D01*
X11927115Y-9199000D01*
X11953050Y-9195091D01*
X11953050Y-9195091D01*
X11978114Y-9187360D01*
X12001744Y-9175980D01*
X12001745Y-9175980D01*
X12018917Y-9164272D01*
X11954056Y-9099411D01*
X11954263Y-9099326D01*
X11968184Y-9090024D01*
X11980024Y-9078184D01*
X11989326Y-9064263D01*
X11989411Y-9064056D01*
X12054212Y-9128857D01*
X12058997Y-9122857D01*
X12072112Y-9100143D01*
X12081694Y-9075727D01*
X12087531Y-9050155D01*
X12087531Y-9050155D01*
X12089491Y-9024000D01*
X12089491Y-9024000D01*
X12087531Y-8997845D01*
X12087531Y-8997845D01*
X12081694Y-8972273D01*
X12072112Y-8947857D01*
X12072112Y-8947857D01*
X12058997Y-8925143D01*
X12058985Y-8925128D01*
X12058982Y-8925121D01*
X12058736Y-8924759D01*
X12058813Y-8924706D01*
X12056344Y-8918659D01*
X12057619Y-8911789D01*
X12062406Y-8906700D01*
X12069184Y-8905006D01*
X12069652Y-8905034D01*
X12069856Y-8905050D01*
X12069857Y-8905050D01*
X12266143Y-8905050D01*
X12266144Y-8905050D01*
X12266347Y-8905034D01*
X12266423Y-8905050D01*
X12266630Y-8905050D01*
X12266630Y-8905093D01*
X12273184Y-8906470D01*
X12278161Y-8911374D01*
X12279695Y-8918191D01*
X12277301Y-8924755D01*
X12277017Y-8925125D01*
X12277003Y-8925142D01*
X12277003Y-8925142D01*
X12263888Y-8947857D01*
X12254306Y-8972273D01*
X12248469Y-8997845D01*
X12248469Y-8997845D01*
X12246509Y-9024000D01*
X12246509Y-9024000D01*
X12248469Y-9050155D01*
X12248469Y-9050155D01*
X12254306Y-9075727D01*
X12263888Y-9100143D01*
X12263888Y-9100143D01*
X12277003Y-9122857D01*
X12281787Y-9128857D01*
X12346588Y-9064056D01*
X12346674Y-9064263D01*
X12355976Y-9078184D01*
X12367816Y-9090024D01*
X12381737Y-9099326D01*
X12381944Y-9099411D01*
X12317083Y-9164272D01*
X12334255Y-9175979D01*
X12334255Y-9175980D01*
X12357885Y-9187359D01*
X12357886Y-9187360D01*
X12382949Y-9195091D01*
X12382950Y-9195091D01*
X12408885Y-9199000D01*
X12408886Y-9199000D01*
X12435114Y-9199000D01*
X12435115Y-9199000D01*
X12461050Y-9195091D01*
X12461050Y-9195091D01*
X12486114Y-9187360D01*
X12509744Y-9175980D01*
X12509745Y-9175980D01*
X12526917Y-9164272D01*
X12462056Y-9099411D01*
X12462263Y-9099326D01*
X12476184Y-9090024D01*
X12488024Y-9078184D01*
X12497326Y-9064263D01*
X12497411Y-9064056D01*
X12562212Y-9128857D01*
X12566997Y-9122857D01*
X12580112Y-9100143D01*
X12589694Y-9075727D01*
X12595531Y-9050155D01*
X12595531Y-9050155D01*
X12597491Y-9024000D01*
X12597491Y-9024000D01*
X12595531Y-8997845D01*
X12595531Y-8997845D01*
X12589694Y-8972273D01*
X12580112Y-8947857D01*
X12580112Y-8947857D01*
X12566997Y-8925143D01*
X12562212Y-8919143D01*
X12497411Y-8983944D01*
X12497326Y-8983737D01*
X12488024Y-8969816D01*
X12476184Y-8957976D01*
X12462263Y-8948674D01*
X12462056Y-8948588D01*
X12526917Y-8883728D01*
X12509745Y-8872021D01*
X12509744Y-8872020D01*
X12486114Y-8860640D01*
X12486114Y-8860640D01*
X12461050Y-8852909D01*
X12461050Y-8852909D01*
X12435115Y-8849000D01*
X12408885Y-8849000D01*
X12382950Y-8852909D01*
X12382949Y-8852909D01*
X12357886Y-8860640D01*
X12357885Y-8860641D01*
X12334255Y-8872020D01*
X12334254Y-8872021D01*
X12322308Y-8880165D01*
X12315660Y-8882315D01*
X12308905Y-8880530D01*
X12304188Y-8875376D01*
X12303030Y-8868631D01*
X12303012Y-8868630D01*
X12303017Y-8868557D01*
X12303006Y-8868490D01*
X12303045Y-8868202D01*
X12303050Y-8868144D01*
X12303050Y-8868144D01*
X12303050Y-8868143D01*
X12303050Y-8671857D01*
X12303050Y-8671857D01*
X12303050Y-8671856D01*
X12303012Y-8671371D01*
X12303161Y-8671359D01*
X12303971Y-8665091D01*
X12308470Y-8659746D01*
X12315145Y-8657681D01*
X12321877Y-8659553D01*
X12322308Y-8659834D01*
X12334255Y-8667979D01*
X12334255Y-8667980D01*
X12357885Y-8679359D01*
X12357886Y-8679360D01*
X12382949Y-8687091D01*
X12382950Y-8687091D01*
X12408885Y-8691000D01*
X12408886Y-8691000D01*
X12435114Y-8691000D01*
X12435115Y-8691000D01*
X12461050Y-8687091D01*
X12461050Y-8687091D01*
X12486114Y-8679360D01*
X12509744Y-8667980D01*
X12509745Y-8667980D01*
X12526917Y-8656272D01*
X12462056Y-8591411D01*
X12462263Y-8591326D01*
X12476184Y-8582024D01*
X12488024Y-8570184D01*
X12497326Y-8556263D01*
X12497411Y-8556056D01*
X12562212Y-8620857D01*
X12566997Y-8614857D01*
X12580112Y-8592143D01*
X12589694Y-8567727D01*
X12595531Y-8542155D01*
X12595531Y-8542155D01*
X12597491Y-8516000D01*
X12597491Y-8516000D01*
X12595531Y-8489845D01*
X12595531Y-8489845D01*
X12589694Y-8464273D01*
X12580112Y-8439857D01*
X12580112Y-8439857D01*
X12566997Y-8417143D01*
X12562212Y-8411143D01*
X12497411Y-8475944D01*
X12497326Y-8475737D01*
X12488024Y-8461816D01*
X12476184Y-8449976D01*
X12462263Y-8440674D01*
X12462056Y-8440589D01*
X12526917Y-8375728D01*
X12509745Y-8364021D01*
X12509744Y-8364020D01*
X12486114Y-8352640D01*
X12486114Y-8352640D01*
X12461050Y-8344909D01*
X12461050Y-8344909D01*
X12435115Y-8341000D01*
X12408885Y-8341000D01*
X12382950Y-8344909D01*
X12382949Y-8344909D01*
X12357886Y-8352640D01*
X12357885Y-8352640D01*
X12334255Y-8364020D01*
X12334254Y-8364021D01*
X12317083Y-8375728D01*
X12381944Y-8440589D01*
X12381737Y-8440674D01*
X12367816Y-8449976D01*
X12355976Y-8461816D01*
X12346674Y-8475737D01*
X12346588Y-8475944D01*
X12281787Y-8411143D01*
X12281787Y-8411143D01*
X12277003Y-8417143D01*
X12263888Y-8439857D01*
X12254306Y-8464273D01*
X12248469Y-8489845D01*
X12248469Y-8489845D01*
X12246509Y-8516000D01*
X12246509Y-8516000D01*
X12248469Y-8542155D01*
X12248469Y-8542155D01*
X12254306Y-8567727D01*
X12263888Y-8592143D01*
X12263888Y-8592143D01*
X12277003Y-8614857D01*
X12277015Y-8614873D01*
X12277018Y-8614879D01*
X12277264Y-8615241D01*
X12277187Y-8615294D01*
X12279656Y-8621341D01*
X12278381Y-8628211D01*
X12273594Y-8633300D01*
X12266815Y-8634994D01*
X12266350Y-8634966D01*
X12266145Y-8634950D01*
X12069856Y-8634950D01*
X12069651Y-8634966D01*
X12069575Y-8634950D01*
X12069370Y-8634950D01*
X12069370Y-8634907D01*
X12062814Y-8633529D01*
X12057838Y-8628624D01*
X12056305Y-8621807D01*
X12058700Y-8615244D01*
X12058985Y-8614872D01*
X12058997Y-8614857D01*
X12072112Y-8592143D01*
X12081694Y-8567727D01*
X12087531Y-8542155D01*
X12087531Y-8542155D01*
X12089491Y-8516000D01*
X12089491Y-8516000D01*
X12087531Y-8489845D01*
X12087531Y-8489845D01*
X12081694Y-8464273D01*
X12072112Y-8439857D01*
X12072112Y-8439857D01*
X12058997Y-8417143D01*
X12054212Y-8411143D01*
X11989411Y-8475944D01*
X11989326Y-8475737D01*
X11980024Y-8461816D01*
X11968184Y-8449976D01*
X11954263Y-8440674D01*
X11954056Y-8440589D01*
X12018917Y-8375728D01*
X12001745Y-8364021D01*
X12001744Y-8364020D01*
X11978114Y-8352640D01*
X11978114Y-8352640D01*
X11953050Y-8344909D01*
X11953050Y-8344909D01*
X11927115Y-8341000D01*
X11900885Y-8341000D01*
X11874950Y-8344909D01*
X11874949Y-8344909D01*
X11849886Y-8352640D01*
X11849885Y-8352640D01*
X11826255Y-8364020D01*
X11826254Y-8364021D01*
X11809083Y-8375728D01*
X11873944Y-8440589D01*
X11873737Y-8440674D01*
X11859816Y-8449976D01*
X11847976Y-8461816D01*
X11838674Y-8475737D01*
X11838588Y-8475944D01*
X11773787Y-8411143D01*
X11769003Y-8417143D01*
X11755888Y-8439857D01*
X11746306Y-8464273D01*
X11740469Y-8489845D01*
X11740469Y-8489845D01*
X11738509Y-8516000D01*
X11738509Y-8516000D01*
X11740469Y-8542155D01*
X11740469Y-8542155D01*
X11746306Y-8567727D01*
X11755888Y-8592143D01*
X11755888Y-8592143D01*
X11769003Y-8614857D01*
X11773787Y-8620857D01*
X11838588Y-8556056D01*
X11838674Y-8556263D01*
X11847976Y-8570184D01*
X11859816Y-8582024D01*
X11873737Y-8591326D01*
X11873944Y-8591411D01*
X11809083Y-8656272D01*
X11826255Y-8667979D01*
X11826255Y-8667980D01*
X11849885Y-8679359D01*
X11849886Y-8679360D01*
X11874949Y-8687091D01*
X11874950Y-8687091D01*
X11900885Y-8691000D01*
X11900886Y-8691000D01*
X11927114Y-8691000D01*
X11927115Y-8691000D01*
X11953050Y-8687091D01*
X11953050Y-8687091D01*
X11978114Y-8679360D01*
X12001744Y-8667980D01*
X12001745Y-8667980D01*
X12013692Y-8659835D01*
X12020339Y-8657685D01*
X12027095Y-8659470D01*
X12031812Y-8664624D01*
X12032970Y-8671369D01*
X12032988Y-8671371D01*
X12032982Y-8671443D01*
X12032994Y-8671510D01*
X12032955Y-8671797D01*
X12032950Y-8671856D01*
X12032950Y-8868144D01*
X12032988Y-8868629D01*
X12032839Y-8868641D01*
X12032028Y-8874912D01*
X12027527Y-8880256D01*
X12020852Y-8882319D01*
X12014121Y-8880445D01*
X12013692Y-8880166D01*
X12001745Y-8872021D01*
X12001744Y-8872020D01*
X11978114Y-8860640D01*
X11978114Y-8860640D01*
X11953050Y-8852909D01*
X11953050Y-8852909D01*
X11927115Y-8849000D01*
X11900885Y-8849000D01*
X11874950Y-8852909D01*
X11874949Y-8852909D01*
X11849886Y-8860640D01*
X11849885Y-8860641D01*
X11826255Y-8872021D01*
X11826254Y-8872021D01*
X11809083Y-8883728D01*
X11873944Y-8948589D01*
X11873737Y-8948674D01*
X11859816Y-8957976D01*
X11847976Y-8969816D01*
X11838674Y-8983737D01*
X11838588Y-8983944D01*
X11773787Y-8919143D01*
X11769003Y-8925143D01*
X11755888Y-8947857D01*
X11746306Y-8972273D01*
X11740469Y-8997845D01*
X11740469Y-8997845D01*
X11738509Y-9024000D01*
X11738509Y-9024000D01*
X11652000Y-9024000D01*
X11652000Y-7689000D01*
X11724436Y-7689000D01*
X11726488Y-7711153D01*
X11726488Y-7711154D01*
X11732577Y-7732552D01*
X11732577Y-7732554D01*
X11742494Y-7752468D01*
X11742494Y-7752469D01*
X11755902Y-7770224D01*
X11772344Y-7785212D01*
X11772344Y-7785212D01*
X11791259Y-7796924D01*
X11791260Y-7796924D01*
X11791260Y-7796925D01*
X11812006Y-7804962D01*
X11833876Y-7809050D01*
X11833876Y-7809050D01*
X11856124Y-7809050D01*
X11856124Y-7809050D01*
X11877994Y-7804962D01*
X11898740Y-7796925D01*
X11917656Y-7785212D01*
X11934098Y-7770224D01*
X11947506Y-7752469D01*
X11957423Y-7732553D01*
X11963511Y-7711154D01*
X11965564Y-7689000D01*
X11965564Y-7688999D01*
X11963511Y-7666846D01*
X11963511Y-7666846D01*
X11962802Y-7664353D01*
X11957423Y-7645447D01*
X11955681Y-7641950D01*
X11947506Y-7625532D01*
X11947506Y-7625531D01*
X11934098Y-7607776D01*
X11917656Y-7592788D01*
X11917656Y-7592787D01*
X11898740Y-7581075D01*
X11898740Y-7581075D01*
X11877994Y-7573038D01*
X11856124Y-7568950D01*
X11833876Y-7568950D01*
X11812006Y-7573038D01*
X11800721Y-7577410D01*
X11791260Y-7581075D01*
X11791259Y-7581075D01*
X11772344Y-7592787D01*
X11772344Y-7592788D01*
X11755902Y-7607776D01*
X11742494Y-7625531D01*
X11742494Y-7625532D01*
X11732577Y-7645446D01*
X11732577Y-7645448D01*
X11726488Y-7666846D01*
X11726488Y-7666846D01*
X11724436Y-7689000D01*
X11724436Y-7689000D01*
X11652000Y-7689000D01*
X11652000Y-7089000D01*
X11724436Y-7089000D01*
X11724897Y-7093979D01*
X11724950Y-7095123D01*
X11724950Y-7146824D01*
X11727906Y-7165487D01*
X11733745Y-7183459D01*
X11737366Y-7190564D01*
X11742324Y-7200295D01*
X11753431Y-7215582D01*
X11959431Y-7421582D01*
X11972793Y-7434944D01*
X11988080Y-7446051D01*
X11991672Y-7447881D01*
X12004916Y-7454629D01*
X12004916Y-7454629D01*
X12004917Y-7454630D01*
X12014550Y-7457760D01*
X12022888Y-7460469D01*
X12041551Y-7463425D01*
X12041552Y-7463425D01*
X12222300Y-7463425D01*
X12229004Y-7465393D01*
X12233579Y-7470674D01*
X12234700Y-7475825D01*
X12234700Y-7685824D01*
X12237656Y-7704487D01*
X12243495Y-7722459D01*
X12248639Y-7732553D01*
X12252074Y-7739295D01*
X12263181Y-7754582D01*
X12276543Y-7767944D01*
X12291830Y-7779051D01*
X12299785Y-7783104D01*
X12308666Y-7787629D01*
X12308666Y-7787629D01*
X12308667Y-7787630D01*
X12318300Y-7790760D01*
X12326638Y-7793469D01*
X12345301Y-7796425D01*
X12345302Y-7796425D01*
X12364199Y-7796425D01*
X12382862Y-7793469D01*
X12400833Y-7787630D01*
X12417670Y-7779051D01*
X12432957Y-7767944D01*
X12446319Y-7754582D01*
X12456876Y-7740052D01*
X12571450Y-7740052D01*
X12571735Y-7743095D01*
X12571735Y-7743095D01*
X12576221Y-7755913D01*
X12576221Y-7755913D01*
X12584285Y-7766840D01*
X12587663Y-7769333D01*
X12591888Y-7774898D01*
X12592700Y-7779310D01*
X12592700Y-8259997D01*
X12595080Y-8268881D01*
X12596452Y-8273998D01*
X12603699Y-8286551D01*
X12801198Y-8484051D01*
X12813751Y-8491298D01*
X12827752Y-8495050D01*
X12827753Y-8495050D01*
X12842247Y-8495050D01*
X13482061Y-8495050D01*
X13488765Y-8497019D01*
X13490829Y-8498682D01*
X13681318Y-8689171D01*
X13684667Y-8695303D01*
X13684950Y-8697939D01*
X13684950Y-9207505D01*
X13682981Y-9214208D01*
X13677701Y-9218784D01*
X13670785Y-9219778D01*
X13664430Y-9216876D01*
X13662712Y-9215053D01*
X13661327Y-9213248D01*
X13652828Y-9202172D01*
X13640284Y-9192546D01*
X13625676Y-9186496D01*
X13625676Y-9186496D01*
X13610000Y-9184432D01*
X13610000Y-9184432D01*
X13594324Y-9186496D01*
X13594324Y-9186496D01*
X13579716Y-9192546D01*
X13567172Y-9202172D01*
X13557546Y-9214716D01*
X13551496Y-9229324D01*
X13551495Y-9229324D01*
X13549432Y-9245000D01*
X13549432Y-9245000D01*
X13551495Y-9260676D01*
X13551496Y-9260676D01*
X13554006Y-9266737D01*
X13554950Y-9271482D01*
X13554950Y-10397248D01*
X13557355Y-10406224D01*
X13558702Y-10411249D01*
X13565949Y-10423802D01*
X13776198Y-10634051D01*
X13788751Y-10641298D01*
X13802752Y-10645050D01*
X13802753Y-10645050D01*
X13810251Y-10645050D01*
X13811870Y-10645156D01*
X13815000Y-10645568D01*
X13818130Y-10645156D01*
X13819749Y-10645050D01*
X13925050Y-10645050D01*
X13931754Y-10647019D01*
X13936329Y-10652299D01*
X13937450Y-10657450D01*
X13937450Y-10660427D01*
X13937735Y-10663470D01*
X13937735Y-10663470D01*
X13941694Y-10674783D01*
X13942221Y-10676288D01*
X13950285Y-10687215D01*
X13954913Y-10690631D01*
X13959138Y-10696195D01*
X13959950Y-10700608D01*
X13959950Y-10720970D01*
X13957981Y-10727674D01*
X13954913Y-10730946D01*
X13952223Y-10732932D01*
X13949035Y-10735285D01*
X13940971Y-10746212D01*
X13940971Y-10746212D01*
X13936485Y-10759030D01*
X13936485Y-10759030D01*
X13936200Y-10762073D01*
X13936200Y-10897927D01*
X13936485Y-10900970D01*
X13936485Y-10900970D01*
X13940971Y-10913788D01*
X13940971Y-10913788D01*
X13949035Y-10924715D01*
X13959962Y-10932779D01*
X13964234Y-10934274D01*
X13972780Y-10937265D01*
X13975823Y-10937550D01*
X13975823Y-10937550D01*
X14049177Y-10937550D01*
X14052220Y-10937265D01*
X14052220Y-10937265D01*
X14058629Y-10935022D01*
X14065038Y-10932779D01*
X14075965Y-10924715D01*
X14084029Y-10913788D01*
X14087133Y-10904918D01*
X14088515Y-10900970D01*
X14088515Y-10900970D01*
X14088800Y-10897927D01*
X14088800Y-10855000D01*
X14198750Y-10855000D01*
X14198750Y-10897499D01*
X14199799Y-10907770D01*
X14205314Y-10924412D01*
X14205314Y-10924412D01*
X14214518Y-10939335D01*
X14226915Y-10951732D01*
X14241837Y-10960936D01*
X14241838Y-10960936D01*
X14258480Y-10966451D01*
X14258481Y-10966451D01*
X14268752Y-10967500D01*
X14280000Y-10967500D01*
X14280000Y-10967500D01*
X14280000Y-10855000D01*
X14330000Y-10855000D01*
X14330000Y-10967500D01*
X14341247Y-10967500D01*
X14341249Y-10967500D01*
X14351520Y-10966451D01*
X14368162Y-10960936D01*
X14368162Y-10960936D01*
X14383084Y-10951732D01*
X14395481Y-10939335D01*
X14404686Y-10924412D01*
X14404686Y-10924412D01*
X14410200Y-10907770D01*
X14410201Y-10907769D01*
X14411250Y-10897499D01*
X14411250Y-10897497D01*
X14411250Y-10855000D01*
X14330000Y-10855000D01*
X14280000Y-10855000D01*
X14198750Y-10855000D01*
X14088800Y-10855000D01*
X14088800Y-10805000D01*
X14198750Y-10805000D01*
X14280000Y-10805000D01*
X14330000Y-10805000D01*
X14411250Y-10805000D01*
X14411250Y-10762503D01*
X14411250Y-10762501D01*
X14410200Y-10752230D01*
X14404686Y-10735588D01*
X14404686Y-10735588D01*
X14395829Y-10721229D01*
X14393985Y-10714490D01*
X14396077Y-10707823D01*
X14397615Y-10705951D01*
X14401731Y-10701835D01*
X14410936Y-10686912D01*
X14410936Y-10686912D01*
X14416450Y-10670270D01*
X14416451Y-10670269D01*
X14417500Y-10659999D01*
X14417500Y-10659997D01*
X14417500Y-10615000D01*
X14335000Y-10615000D01*
X14335000Y-10724164D01*
X14333031Y-10730868D01*
X14331368Y-10732932D01*
X14330000Y-10734300D01*
X14330000Y-10805000D01*
X14280000Y-10805000D01*
X14280000Y-10698336D01*
X14281968Y-10691632D01*
X14283632Y-10689568D01*
X14285000Y-10688200D01*
X14285000Y-10615000D01*
X14202500Y-10615000D01*
X14202500Y-10659999D01*
X14203549Y-10670270D01*
X14209064Y-10686912D01*
X14209064Y-10686912D01*
X14218647Y-10702449D01*
X14218470Y-10702559D01*
X14220697Y-10708081D01*
X14219393Y-10714945D01*
X14217125Y-10718059D01*
X14214518Y-10720666D01*
X14205314Y-10735588D01*
X14205314Y-10735588D01*
X14199799Y-10752230D01*
X14199799Y-10752231D01*
X14198750Y-10762501D01*
X14198750Y-10805000D01*
X14088800Y-10805000D01*
X14088800Y-10762073D01*
X14088515Y-10759030D01*
X14088515Y-10759030D01*
X14084029Y-10746212D01*
X14084029Y-10746212D01*
X14075965Y-10735285D01*
X14075965Y-10735285D01*
X14075965Y-10735285D01*
X14075086Y-10734636D01*
X14070861Y-10729072D01*
X14070050Y-10724660D01*
X14070050Y-10700608D01*
X14072018Y-10693904D01*
X14075086Y-10690631D01*
X14079715Y-10687215D01*
X14087779Y-10676288D01*
X14090022Y-10669879D01*
X14092265Y-10663470D01*
X14092265Y-10663470D01*
X14092550Y-10660427D01*
X14092550Y-10585000D01*
X14574442Y-10585000D01*
X14576470Y-10605593D01*
X14576470Y-10605593D01*
X14582477Y-10625395D01*
X14592231Y-10643645D01*
X14595697Y-10647868D01*
X14605359Y-10659641D01*
X14610025Y-10663470D01*
X14620416Y-10671998D01*
X14624350Y-10677773D01*
X14624950Y-10681584D01*
X14624950Y-10777753D01*
X14624950Y-10792247D01*
X14628702Y-10806249D01*
X14635949Y-10818802D01*
X14821198Y-11004051D01*
X14833751Y-11011298D01*
X14847752Y-11015050D01*
X14847753Y-11015050D01*
X14847753Y-11015050D01*
X18677247Y-11015050D01*
X18677247Y-11015050D01*
X18677248Y-11015050D01*
X18691249Y-11011298D01*
X18703802Y-11004051D01*
X18729051Y-10978802D01*
X19122551Y-10585302D01*
X19129798Y-10572749D01*
X19130071Y-10571731D01*
X19130658Y-10569541D01*
X19132034Y-10564407D01*
X19133550Y-10558748D01*
X19133550Y-8971482D01*
X19134494Y-8966737D01*
X19134611Y-8966454D01*
X19137004Y-8960676D01*
X19138930Y-8946048D01*
X19139068Y-8945000D01*
X19139068Y-8945000D01*
X19137004Y-8929324D01*
X19137004Y-8929324D01*
X19130954Y-8914716D01*
X19121328Y-8902172D01*
X19108784Y-8892546D01*
X19099702Y-8888784D01*
X19094176Y-8886496D01*
X19094176Y-8886496D01*
X19078500Y-8884432D01*
X19078500Y-8884432D01*
X19062824Y-8886496D01*
X19062824Y-8886496D01*
X19048216Y-8892546D01*
X19035672Y-8902172D01*
X19026046Y-8914716D01*
X19019996Y-8929324D01*
X19019996Y-8929324D01*
X19017932Y-8945000D01*
X19017932Y-8945000D01*
X19019996Y-8960676D01*
X19019996Y-8960676D01*
X19021409Y-8964088D01*
X19022506Y-8966737D01*
X19023450Y-8971482D01*
X19023450Y-9245661D01*
X19021482Y-9252365D01*
X19016201Y-9256941D01*
X19009285Y-9257935D01*
X19002930Y-9255033D01*
X19002282Y-9254429D01*
X18853802Y-9105949D01*
X18853802Y-9105949D01*
X18841249Y-9098702D01*
X18841249Y-9098702D01*
X18837748Y-9097764D01*
X18827248Y-9094950D01*
X18827247Y-9094950D01*
X18332939Y-9094950D01*
X18326235Y-9092982D01*
X18324171Y-9091318D01*
X18223182Y-8990329D01*
X18219833Y-8984197D01*
X18219550Y-8981561D01*
X18219550Y-8961921D01*
X18221519Y-8955217D01*
X18226799Y-8950642D01*
X18233715Y-8949647D01*
X18240070Y-8952550D01*
X18241787Y-8954372D01*
X18243672Y-8956828D01*
X18256216Y-8966454D01*
X18270824Y-8972504D01*
X18271764Y-8972628D01*
X18286500Y-8974568D01*
X18286500Y-8974568D01*
X18286500Y-8974568D01*
X18291725Y-8973880D01*
X18302176Y-8972504D01*
X18316784Y-8966454D01*
X18329328Y-8956828D01*
X18329328Y-8956828D01*
X18329609Y-8956612D01*
X18336126Y-8954093D01*
X18337158Y-8954050D01*
X18936273Y-8954050D01*
X18936273Y-8954050D01*
X18946459Y-8951321D01*
X18955591Y-8946048D01*
X19150570Y-8751069D01*
X19150571Y-8751068D01*
X19151591Y-8750048D01*
X19151591Y-8750048D01*
X19159048Y-8742591D01*
X19164321Y-8733459D01*
X19167050Y-8723273D01*
X19167050Y-8712727D01*
X19167050Y-8711968D01*
X19167050Y-8711966D01*
X19167050Y-8067000D01*
X19315436Y-8067000D01*
X19317488Y-8089153D01*
X19317489Y-8089154D01*
X19323577Y-8110552D01*
X19323578Y-8110554D01*
X19333494Y-8130468D01*
X19333494Y-8130469D01*
X19346902Y-8148224D01*
X19363344Y-8163212D01*
X19363344Y-8163212D01*
X19382260Y-8174924D01*
X19382260Y-8174924D01*
X19382260Y-8174925D01*
X19403006Y-8182962D01*
X19424876Y-8187050D01*
X19424876Y-8187050D01*
X19447124Y-8187050D01*
X19447124Y-8187050D01*
X19468994Y-8182962D01*
X19489740Y-8174925D01*
X19508656Y-8163212D01*
X19525098Y-8148224D01*
X19538506Y-8130469D01*
X19548423Y-8110553D01*
X19554512Y-8089154D01*
X19556564Y-8067000D01*
X19554512Y-8044846D01*
X19548423Y-8023447D01*
X19548422Y-8023446D01*
X19538506Y-8003532D01*
X19538506Y-8003531D01*
X19525098Y-7985776D01*
X19508656Y-7970788D01*
X19508656Y-7970787D01*
X19489740Y-7959075D01*
X19489740Y-7959075D01*
X19468994Y-7951038D01*
X19447124Y-7946950D01*
X19424876Y-7946950D01*
X19403006Y-7951038D01*
X19389886Y-7956121D01*
X19382260Y-7959075D01*
X19382260Y-7959075D01*
X19363344Y-7970787D01*
X19363344Y-7970788D01*
X19346902Y-7985776D01*
X19333494Y-8003531D01*
X19333494Y-8003532D01*
X19323578Y-8023446D01*
X19323577Y-8023448D01*
X19317489Y-8044846D01*
X19317488Y-8044846D01*
X19315436Y-8067000D01*
X19315436Y-8067000D01*
X19167050Y-8067000D01*
X19167050Y-7881947D01*
X19169019Y-7875243D01*
X19174299Y-7870668D01*
X19175355Y-7870243D01*
X19175548Y-7870175D01*
X19179538Y-7868779D01*
X19190465Y-7860715D01*
X19198529Y-7849788D01*
X19200772Y-7843379D01*
X19203015Y-7836970D01*
X19203015Y-7836970D01*
X19203300Y-7833927D01*
X19203300Y-7698073D01*
X19203015Y-7695030D01*
X19203015Y-7695030D01*
X19198529Y-7682212D01*
X19198529Y-7682212D01*
X19195870Y-7678609D01*
X19190465Y-7671285D01*
X19179538Y-7663221D01*
X19179538Y-7663221D01*
X19166720Y-7658735D01*
X19163677Y-7658450D01*
X19163677Y-7658450D01*
X19090323Y-7658450D01*
X19090323Y-7658450D01*
X19087280Y-7658735D01*
X19087280Y-7658735D01*
X19074462Y-7663221D01*
X19074462Y-7663221D01*
X19063535Y-7671285D01*
X19055471Y-7682212D01*
X19055471Y-7682212D01*
X19050985Y-7695030D01*
X19050985Y-7695030D01*
X19050700Y-7698073D01*
X19050700Y-7833927D01*
X19050985Y-7836970D01*
X19050985Y-7836970D01*
X19055155Y-7848885D01*
X19055471Y-7849788D01*
X19063535Y-7860715D01*
X19073832Y-7868315D01*
X19074462Y-7868779D01*
X19074462Y-7868779D01*
X19078645Y-7870243D01*
X19084323Y-7874315D01*
X19086898Y-7880810D01*
X19086950Y-7881947D01*
X19086950Y-8696275D01*
X19084982Y-8702978D01*
X19083318Y-8705043D01*
X18918043Y-8870318D01*
X18911910Y-8873667D01*
X18909275Y-8873950D01*
X18337158Y-8873950D01*
X18330454Y-8871982D01*
X18329609Y-8871388D01*
X18329328Y-8871172D01*
X18329328Y-8871172D01*
X18316784Y-8861546D01*
X18314597Y-8860640D01*
X18302176Y-8855496D01*
X18302176Y-8855496D01*
X18286500Y-8853432D01*
X18286500Y-8853432D01*
X18270824Y-8855496D01*
X18270824Y-8855496D01*
X18256216Y-8861546D01*
X18254512Y-8862854D01*
X18246970Y-8868641D01*
X18243672Y-8871172D01*
X18241788Y-8873628D01*
X18236145Y-8877748D01*
X18229170Y-8878163D01*
X18223078Y-8874742D01*
X18219803Y-8868570D01*
X18219550Y-8866079D01*
X18219550Y-8751482D01*
X18220494Y-8746737D01*
X18221200Y-8745033D01*
X18223004Y-8740676D01*
X18225068Y-8725000D01*
X18224859Y-8723409D01*
X18223353Y-8711968D01*
X18223004Y-8709324D01*
X18216954Y-8694716D01*
X18207328Y-8682172D01*
X18194784Y-8672546D01*
X18193780Y-8672131D01*
X18180176Y-8666496D01*
X18180176Y-8666496D01*
X18164500Y-8664432D01*
X18164500Y-8664432D01*
X18148824Y-8666496D01*
X18148824Y-8666496D01*
X18134216Y-8672546D01*
X18121672Y-8682172D01*
X18112046Y-8694716D01*
X18105996Y-8709324D01*
X18105996Y-8709324D01*
X18103932Y-8725000D01*
X18103932Y-8725000D01*
X18105996Y-8740676D01*
X18105996Y-8740676D01*
X18106789Y-8742592D01*
X18108506Y-8746737D01*
X18109450Y-8751482D01*
X18109450Y-9002253D01*
X18109450Y-9016747D01*
X18113202Y-9030749D01*
X18120449Y-9043302D01*
X18271199Y-9194051D01*
X18280545Y-9199447D01*
X18283752Y-9201298D01*
X18297753Y-9205050D01*
X18297753Y-9205050D01*
X18312247Y-9205050D01*
X18792061Y-9205050D01*
X18798765Y-9207019D01*
X18800829Y-9208682D01*
X18911318Y-9319171D01*
X18914667Y-9325303D01*
X18914950Y-9327939D01*
X18914950Y-10467061D01*
X18912982Y-10473765D01*
X18911318Y-10475829D01*
X18575829Y-10811318D01*
X18569697Y-10814667D01*
X18567061Y-10814950D01*
X16176731Y-10814950D01*
X16170027Y-10812982D01*
X16167963Y-10811318D01*
X16096941Y-10740296D01*
X16103299Y-10738593D01*
X16114701Y-10732010D01*
X16124010Y-10722701D01*
X16130592Y-10711299D01*
X16132296Y-10704941D01*
X16206343Y-10778988D01*
X16216373Y-10763637D01*
X16226359Y-10740872D01*
X16232461Y-10716774D01*
X16232461Y-10716773D01*
X16234514Y-10692001D01*
X16234514Y-10691999D01*
X16232461Y-10667227D01*
X16232461Y-10667226D01*
X16226359Y-10643128D01*
X16216373Y-10620363D01*
X16206343Y-10605012D01*
X16132296Y-10679059D01*
X16130592Y-10672701D01*
X16124010Y-10661299D01*
X16114701Y-10651990D01*
X16103299Y-10645408D01*
X16096941Y-10643704D01*
X16171006Y-10569639D01*
X16171006Y-10569639D01*
X16166323Y-10565994D01*
X16144461Y-10554164D01*
X16144460Y-10554163D01*
X16120949Y-10546092D01*
X16096429Y-10542000D01*
X16071571Y-10542000D01*
X16047051Y-10546092D01*
X16023540Y-10554163D01*
X16023539Y-10554163D01*
X16001676Y-10565995D01*
X15996994Y-10569639D01*
X15996994Y-10569639D01*
X16071059Y-10643704D01*
X16064701Y-10645408D01*
X16053299Y-10651990D01*
X16043990Y-10661299D01*
X16037407Y-10672701D01*
X16035704Y-10679059D01*
X15961656Y-10605012D01*
X15951627Y-10620363D01*
X15941641Y-10643128D01*
X15935539Y-10667226D01*
X15935538Y-10667227D01*
X15933486Y-10691999D01*
X15933486Y-10692001D01*
X15935538Y-10716773D01*
X15935539Y-10716774D01*
X15941641Y-10740872D01*
X15951627Y-10763636D01*
X15961656Y-10778988D01*
X16035704Y-10704941D01*
X16037407Y-10711299D01*
X16043990Y-10722701D01*
X16053299Y-10732010D01*
X16064701Y-10738593D01*
X16071059Y-10740296D01*
X16000037Y-10811318D01*
X15993905Y-10814667D01*
X15991269Y-10814950D01*
X15042939Y-10814950D01*
X15036235Y-10812982D01*
X15034171Y-10811318D01*
X14992682Y-10769829D01*
X14989333Y-10763697D01*
X14989050Y-10761061D01*
X14989050Y-10681584D01*
X14991018Y-10674880D01*
X14993583Y-10671999D01*
X15008641Y-10659641D01*
X15021768Y-10643645D01*
X15031523Y-10625395D01*
X15037530Y-10605593D01*
X15039558Y-10585000D01*
X15082442Y-10585000D01*
X15084470Y-10605593D01*
X15084470Y-10605593D01*
X15090477Y-10625395D01*
X15100231Y-10643645D01*
X15103697Y-10647868D01*
X15113359Y-10659641D01*
X15122601Y-10667226D01*
X15129355Y-10672769D01*
X15147605Y-10682523D01*
X15167407Y-10688530D01*
X15167406Y-10688530D01*
X15169253Y-10688712D01*
X15188000Y-10690558D01*
X15208593Y-10688530D01*
X15228395Y-10682523D01*
X15246645Y-10672769D01*
X15262641Y-10659641D01*
X15275768Y-10643645D01*
X15283664Y-10628873D01*
X15288560Y-10623889D01*
X15295374Y-10622343D01*
X15301942Y-10624726D01*
X15306179Y-10630282D01*
X15307000Y-10634719D01*
X15307000Y-10674784D01*
X15307640Y-10680737D01*
X15307640Y-10680738D01*
X15312664Y-10694209D01*
X15312665Y-10694209D01*
X15321281Y-10705719D01*
X15321281Y-10705719D01*
X15332791Y-10714335D01*
X15332791Y-10714335D01*
X15346262Y-10719360D01*
X15346263Y-10719360D01*
X15352215Y-10720000D01*
X15352217Y-10720000D01*
X15417000Y-10720000D01*
X15417000Y-10628301D01*
X15422701Y-10631593D01*
X15435417Y-10635000D01*
X15448583Y-10635000D01*
X15461299Y-10631593D01*
X15467000Y-10628301D01*
X15467000Y-10720000D01*
X15531783Y-10720000D01*
X15531784Y-10720000D01*
X15537737Y-10719360D01*
X15537738Y-10719360D01*
X15551209Y-10714335D01*
X15551209Y-10714335D01*
X15562719Y-10705719D01*
X15562719Y-10705719D01*
X15571335Y-10694209D01*
X15571335Y-10694209D01*
X15576360Y-10680738D01*
X15576360Y-10680737D01*
X15577000Y-10674784D01*
X15577000Y-10674783D01*
X15577000Y-10610000D01*
X15485301Y-10610000D01*
X15488592Y-10604299D01*
X15492000Y-10591583D01*
X15492000Y-10578417D01*
X15488592Y-10565701D01*
X15485301Y-10560000D01*
X15577000Y-10560000D01*
X15577000Y-10495217D01*
X15577000Y-10495216D01*
X15576360Y-10489263D01*
X15576360Y-10489262D01*
X15571335Y-10475791D01*
X15571335Y-10475791D01*
X15562719Y-10464281D01*
X15562719Y-10464281D01*
X15551209Y-10455665D01*
X15551209Y-10455665D01*
X15537738Y-10450640D01*
X15537737Y-10450640D01*
X15531784Y-10450000D01*
X15467000Y-10450000D01*
X15467000Y-10541699D01*
X15461299Y-10538408D01*
X15448583Y-10535000D01*
X15435417Y-10535000D01*
X15422701Y-10538408D01*
X15417000Y-10541699D01*
X15417000Y-10450000D01*
X15352215Y-10450000D01*
X15346263Y-10450640D01*
X15346262Y-10450640D01*
X15332791Y-10455665D01*
X15332791Y-10455665D01*
X15321281Y-10464281D01*
X15321281Y-10464281D01*
X15312665Y-10475791D01*
X15312664Y-10475791D01*
X15307640Y-10489262D01*
X15307640Y-10489263D01*
X15307000Y-10495216D01*
X15307000Y-10535281D01*
X15305031Y-10541985D01*
X15299751Y-10546561D01*
X15292835Y-10547555D01*
X15286480Y-10544653D01*
X15283664Y-10541127D01*
X15275768Y-10526355D01*
X15267474Y-10516249D01*
X15262641Y-10510359D01*
X15246645Y-10497232D01*
X15246645Y-10497232D01*
X15246645Y-10497232D01*
X15228395Y-10487477D01*
X15208593Y-10481470D01*
X15208593Y-10481470D01*
X15208593Y-10481470D01*
X15188000Y-10479442D01*
X15167407Y-10481470D01*
X15147604Y-10487477D01*
X15144263Y-10489263D01*
X15129355Y-10497232D01*
X15129355Y-10497232D01*
X15129355Y-10497232D01*
X15113359Y-10510359D01*
X15100232Y-10526355D01*
X15100231Y-10526355D01*
X15098979Y-10528698D01*
X15090477Y-10544604D01*
X15084470Y-10564407D01*
X15082442Y-10585000D01*
X15039558Y-10585000D01*
X15037530Y-10564407D01*
X15031523Y-10544605D01*
X15021768Y-10526355D01*
X15013474Y-10516249D01*
X15008641Y-10510359D01*
X14992645Y-10497232D01*
X14992645Y-10497232D01*
X14992645Y-10497232D01*
X14974395Y-10487477D01*
X14954593Y-10481470D01*
X14954593Y-10481470D01*
X14954593Y-10481470D01*
X14934000Y-10479442D01*
X14913407Y-10481470D01*
X14893604Y-10487477D01*
X14890263Y-10489263D01*
X14875355Y-10497232D01*
X14875355Y-10497232D01*
X14875355Y-10497232D01*
X14859359Y-10510359D01*
X14846232Y-10526355D01*
X14846231Y-10526355D01*
X14844979Y-10528698D01*
X14836477Y-10544604D01*
X14830470Y-10564407D01*
X14828442Y-10585000D01*
X14830470Y-10605593D01*
X14830470Y-10605593D01*
X14836477Y-10625395D01*
X14846231Y-10643645D01*
X14849697Y-10647868D01*
X14859359Y-10659641D01*
X14864025Y-10663470D01*
X14874416Y-10671998D01*
X14878350Y-10677773D01*
X14878950Y-10681584D01*
X14878950Y-10796247D01*
X14881630Y-10806248D01*
X14882701Y-10810248D01*
X14882702Y-10810249D01*
X14889949Y-10822801D01*
X14889949Y-10822802D01*
X14950929Y-10883782D01*
X14954278Y-10889914D01*
X14953779Y-10896883D01*
X14949592Y-10902477D01*
X14943046Y-10904918D01*
X14942161Y-10904950D01*
X14882939Y-10904950D01*
X14876235Y-10902982D01*
X14874171Y-10901318D01*
X14738682Y-10765829D01*
X14735333Y-10759697D01*
X14735050Y-10757061D01*
X14735050Y-10681584D01*
X14737018Y-10674880D01*
X14739583Y-10671999D01*
X14754641Y-10659641D01*
X14767768Y-10643645D01*
X14777523Y-10625395D01*
X14783530Y-10605593D01*
X14785558Y-10585000D01*
X14783530Y-10564407D01*
X14777523Y-10544605D01*
X14767768Y-10526355D01*
X14759474Y-10516249D01*
X14754641Y-10510359D01*
X14738645Y-10497232D01*
X14738645Y-10497232D01*
X14738645Y-10497232D01*
X14720395Y-10487477D01*
X14700593Y-10481470D01*
X14700593Y-10481470D01*
X14700593Y-10481470D01*
X14680000Y-10479442D01*
X14659407Y-10481470D01*
X14639604Y-10487477D01*
X14636263Y-10489263D01*
X14621355Y-10497232D01*
X14621355Y-10497232D01*
X14621355Y-10497232D01*
X14605359Y-10510359D01*
X14592232Y-10526355D01*
X14592231Y-10526355D01*
X14590979Y-10528698D01*
X14582477Y-10544604D01*
X14576470Y-10564407D01*
X14574442Y-10585000D01*
X14092550Y-10585000D01*
X14092550Y-10565000D01*
X14202500Y-10565000D01*
X14285000Y-10565000D01*
X14285000Y-10370000D01*
X14335000Y-10370000D01*
X14335000Y-10565000D01*
X14417500Y-10565000D01*
X14417500Y-10520003D01*
X14417500Y-10520001D01*
X14416450Y-10509730D01*
X14410936Y-10493088D01*
X14410936Y-10493088D01*
X14401731Y-10478165D01*
X14399834Y-10476268D01*
X14396486Y-10470136D01*
X14396984Y-10463167D01*
X14399834Y-10458732D01*
X14401731Y-10456835D01*
X14410936Y-10441912D01*
X14410936Y-10441912D01*
X14416450Y-10425270D01*
X14416451Y-10425269D01*
X14417500Y-10414999D01*
X14417500Y-10414997D01*
X14417500Y-10370000D01*
X14335000Y-10370000D01*
X14285000Y-10370000D01*
X14202500Y-10370000D01*
X14202500Y-10414999D01*
X14203549Y-10425270D01*
X14209064Y-10441912D01*
X14209064Y-10441912D01*
X14218268Y-10456835D01*
X14220166Y-10458732D01*
X14223514Y-10464864D01*
X14223016Y-10471833D01*
X14220166Y-10476268D01*
X14218268Y-10478165D01*
X14209064Y-10493088D01*
X14209064Y-10493088D01*
X14203549Y-10509730D01*
X14203549Y-10509731D01*
X14202500Y-10520001D01*
X14202500Y-10565000D01*
X14092550Y-10565000D01*
X14092550Y-10519573D01*
X14092265Y-10516530D01*
X14092265Y-10516530D01*
X14087779Y-10503712D01*
X14087779Y-10503712D01*
X14079715Y-10492785D01*
X14068788Y-10484721D01*
X14068788Y-10484721D01*
X14055970Y-10480235D01*
X14052927Y-10479950D01*
X14052927Y-10479950D01*
X13977073Y-10479950D01*
X13977073Y-10479950D01*
X13974030Y-10480235D01*
X13974030Y-10480235D01*
X13961212Y-10484721D01*
X13961212Y-10484721D01*
X13950285Y-10492785D01*
X13942221Y-10503712D01*
X13942221Y-10503712D01*
X13937735Y-10516530D01*
X13937735Y-10516530D01*
X13937450Y-10519573D01*
X13937450Y-10522550D01*
X13935481Y-10529254D01*
X13930201Y-10533829D01*
X13925050Y-10534950D01*
X13852626Y-10534950D01*
X13845922Y-10532982D01*
X13845390Y-10532608D01*
X13845284Y-10532546D01*
X13830676Y-10526496D01*
X13827561Y-10526086D01*
X13821172Y-10523259D01*
X13820412Y-10522560D01*
X13668682Y-10370829D01*
X13665333Y-10364697D01*
X13665050Y-10362061D01*
X13665050Y-10335000D01*
X13754432Y-10335000D01*
X13756495Y-10350676D01*
X13756496Y-10350676D01*
X13762303Y-10364697D01*
X13762546Y-10365284D01*
X13772172Y-10377828D01*
X13784716Y-10387454D01*
X13799324Y-10393504D01*
X13807162Y-10394536D01*
X13815000Y-10395568D01*
X13815000Y-10395568D01*
X13815000Y-10395568D01*
X13820225Y-10394880D01*
X13830676Y-10393504D01*
X13836737Y-10390994D01*
X13841482Y-10390050D01*
X13925050Y-10390050D01*
X13931754Y-10392019D01*
X13936329Y-10397299D01*
X13937450Y-10402450D01*
X13937450Y-10415427D01*
X13937735Y-10418470D01*
X13937735Y-10418470D01*
X13942221Y-10431288D01*
X13942221Y-10431288D01*
X13950285Y-10442215D01*
X13961212Y-10450279D01*
X13965484Y-10451774D01*
X13974030Y-10454765D01*
X13977073Y-10455050D01*
X13977073Y-10455050D01*
X14052927Y-10455050D01*
X14055970Y-10454765D01*
X14055970Y-10454765D01*
X14062379Y-10452522D01*
X14068788Y-10450279D01*
X14079715Y-10442215D01*
X14087779Y-10431288D01*
X14090399Y-10423801D01*
X14092265Y-10418470D01*
X14092265Y-10418470D01*
X14092550Y-10415427D01*
X14092550Y-10327000D01*
X16400466Y-10327000D01*
X16402397Y-10346613D01*
X16408119Y-10365473D01*
X16417409Y-10382853D01*
X16417409Y-10382854D01*
X16429912Y-10398088D01*
X16445146Y-10410591D01*
X16445147Y-10410591D01*
X16462527Y-10419881D01*
X16462527Y-10419881D01*
X16462527Y-10419881D01*
X16481387Y-10425602D01*
X16501000Y-10427534D01*
X16520613Y-10425602D01*
X16539473Y-10419881D01*
X16542113Y-10418470D01*
X16556853Y-10410591D01*
X16556854Y-10410591D01*
X16572088Y-10398088D01*
X16584591Y-10382854D01*
X16593881Y-10365473D01*
X16599602Y-10346613D01*
X16601534Y-10327000D01*
X16900466Y-10327000D01*
X16902398Y-10346613D01*
X16908119Y-10365473D01*
X16917409Y-10382853D01*
X16917409Y-10382854D01*
X16929912Y-10398088D01*
X16945146Y-10410591D01*
X16945147Y-10410591D01*
X16962527Y-10419881D01*
X16962527Y-10419881D01*
X16962527Y-10419881D01*
X16981387Y-10425602D01*
X17001000Y-10427534D01*
X17020613Y-10425602D01*
X17039473Y-10419881D01*
X17042114Y-10418470D01*
X17056853Y-10410591D01*
X17056854Y-10410591D01*
X17072088Y-10398088D01*
X17084591Y-10382854D01*
X17093881Y-10365473D01*
X17099602Y-10346613D01*
X17101534Y-10327000D01*
X17101337Y-10325000D01*
X17168436Y-10325000D01*
X17170488Y-10347154D01*
X17170489Y-10347154D01*
X17176577Y-10368552D01*
X17176578Y-10368554D01*
X17186494Y-10388468D01*
X17186494Y-10388469D01*
X17199902Y-10406224D01*
X17199902Y-10406224D01*
X17216344Y-10421212D01*
X17216344Y-10421213D01*
X17235260Y-10432925D01*
X17235260Y-10432925D01*
X17235260Y-10432925D01*
X17256006Y-10440962D01*
X17277876Y-10445050D01*
X17277876Y-10445050D01*
X17300124Y-10445050D01*
X17300124Y-10445050D01*
X17321994Y-10440962D01*
X17342740Y-10432925D01*
X17361656Y-10421212D01*
X17378098Y-10406224D01*
X17391506Y-10388469D01*
X17401423Y-10368553D01*
X17407512Y-10347154D01*
X17409564Y-10325000D01*
X18168436Y-10325000D01*
X18170488Y-10347154D01*
X18170489Y-10347154D01*
X18176577Y-10368552D01*
X18176578Y-10368554D01*
X18186494Y-10388468D01*
X18186494Y-10388469D01*
X18199902Y-10406224D01*
X18199902Y-10406224D01*
X18216344Y-10421212D01*
X18216344Y-10421213D01*
X18235260Y-10432925D01*
X18235260Y-10432925D01*
X18235260Y-10432925D01*
X18256006Y-10440962D01*
X18277876Y-10445050D01*
X18277876Y-10445050D01*
X18300124Y-10445050D01*
X18300124Y-10445050D01*
X18321994Y-10440962D01*
X18342740Y-10432925D01*
X18361656Y-10421212D01*
X18378098Y-10406224D01*
X18391506Y-10388469D01*
X18401423Y-10368553D01*
X18407512Y-10347154D01*
X18409564Y-10325000D01*
X18407512Y-10302846D01*
X18401423Y-10281447D01*
X18400207Y-10279006D01*
X18391506Y-10261532D01*
X18391506Y-10261531D01*
X18378098Y-10243776D01*
X18361656Y-10228788D01*
X18361656Y-10228787D01*
X18342740Y-10217075D01*
X18342740Y-10217075D01*
X18321994Y-10209038D01*
X18300124Y-10204950D01*
X18277876Y-10204950D01*
X18256006Y-10209038D01*
X18246366Y-10212773D01*
X18235260Y-10217075D01*
X18235260Y-10217075D01*
X18216344Y-10228787D01*
X18216344Y-10228788D01*
X18199902Y-10243776D01*
X18186494Y-10261531D01*
X18186494Y-10261532D01*
X18176578Y-10281446D01*
X18176577Y-10281448D01*
X18170489Y-10302846D01*
X18170488Y-10302846D01*
X18168436Y-10325000D01*
X18168436Y-10325000D01*
X17409564Y-10325000D01*
X17407512Y-10302846D01*
X17401423Y-10281447D01*
X17400207Y-10279006D01*
X17391506Y-10261532D01*
X17391506Y-10261531D01*
X17378098Y-10243776D01*
X17361656Y-10228788D01*
X17361656Y-10228787D01*
X17342740Y-10217075D01*
X17342740Y-10217075D01*
X17321994Y-10209038D01*
X17300124Y-10204950D01*
X17277876Y-10204950D01*
X17256006Y-10209038D01*
X17246366Y-10212773D01*
X17235260Y-10217075D01*
X17235260Y-10217075D01*
X17216344Y-10228787D01*
X17216344Y-10228788D01*
X17199902Y-10243776D01*
X17186494Y-10261531D01*
X17186494Y-10261532D01*
X17176578Y-10281446D01*
X17176577Y-10281448D01*
X17170489Y-10302846D01*
X17170488Y-10302846D01*
X17168436Y-10325000D01*
X17168436Y-10325000D01*
X17101337Y-10325000D01*
X17099602Y-10307387D01*
X17093881Y-10288527D01*
X17093881Y-10288527D01*
X17093881Y-10288527D01*
X17084591Y-10271147D01*
X17084591Y-10271146D01*
X17072088Y-10255912D01*
X17056854Y-10243409D01*
X17056853Y-10243409D01*
X17039473Y-10234119D01*
X17039473Y-10234119D01*
X17020613Y-10228398D01*
X17020613Y-10228398D01*
X17001000Y-10226466D01*
X16981387Y-10228398D01*
X16962527Y-10234119D01*
X16945147Y-10243409D01*
X16945146Y-10243409D01*
X16929912Y-10255912D01*
X16917409Y-10271146D01*
X16917409Y-10271147D01*
X16908119Y-10288527D01*
X16902398Y-10307387D01*
X16900466Y-10327000D01*
X16601534Y-10327000D01*
X16599602Y-10307387D01*
X16593881Y-10288527D01*
X16593881Y-10288527D01*
X16593881Y-10288527D01*
X16584591Y-10271147D01*
X16584591Y-10271146D01*
X16572088Y-10255912D01*
X16556854Y-10243409D01*
X16556853Y-10243409D01*
X16539473Y-10234119D01*
X16539473Y-10234119D01*
X16520613Y-10228398D01*
X16520613Y-10228398D01*
X16501000Y-10226466D01*
X16481387Y-10228398D01*
X16462527Y-10234119D01*
X16445147Y-10243409D01*
X16445146Y-10243409D01*
X16429912Y-10255912D01*
X16417409Y-10271146D01*
X16417409Y-10271147D01*
X16408119Y-10288527D01*
X16402397Y-10307387D01*
X16400466Y-10327000D01*
X14092550Y-10327000D01*
X14092550Y-10274573D01*
X14092265Y-10271530D01*
X14092265Y-10271530D01*
X14087779Y-10258712D01*
X14087779Y-10258712D01*
X14085713Y-10255912D01*
X14079715Y-10247785D01*
X14079715Y-10247785D01*
X14075087Y-10244369D01*
X14070861Y-10238804D01*
X14070050Y-10234392D01*
X14070050Y-10217185D01*
X14072018Y-10210481D01*
X14075086Y-10207209D01*
X14078465Y-10204715D01*
X14086529Y-10193788D01*
X14088772Y-10187379D01*
X14091015Y-10180970D01*
X14091015Y-10180970D01*
X14091300Y-10177927D01*
X14091300Y-10135000D01*
X14201250Y-10135000D01*
X14201250Y-10177499D01*
X14202299Y-10187770D01*
X14207814Y-10204412D01*
X14207814Y-10204412D01*
X14217018Y-10219334D01*
X14217127Y-10219472D01*
X14217173Y-10219585D01*
X14217397Y-10219949D01*
X14217335Y-10219987D01*
X14219742Y-10225952D01*
X14218438Y-10232816D01*
X14217955Y-10233673D01*
X14209064Y-10248087D01*
X14209064Y-10248088D01*
X14203549Y-10264730D01*
X14203549Y-10264731D01*
X14202500Y-10275001D01*
X14202500Y-10320000D01*
X14285000Y-10320000D01*
X14285000Y-10250859D01*
X14282783Y-10246800D01*
X14282500Y-10244164D01*
X14282500Y-10135000D01*
X14332500Y-10135000D01*
X14332500Y-10201641D01*
X14334717Y-10205700D01*
X14335000Y-10208336D01*
X14335000Y-10320000D01*
X14417500Y-10320000D01*
X14417500Y-10275003D01*
X14417500Y-10275001D01*
X14416450Y-10264730D01*
X14410936Y-10248088D01*
X14410936Y-10248088D01*
X14401731Y-10233165D01*
X14401069Y-10232503D01*
X14397720Y-10226370D01*
X14398218Y-10219401D01*
X14399283Y-10217225D01*
X14407185Y-10204413D01*
X14407186Y-10204412D01*
X14412700Y-10187770D01*
X14412701Y-10187769D01*
X14413750Y-10177499D01*
X14413750Y-10177497D01*
X14413750Y-10135000D01*
X14332500Y-10135000D01*
X14282500Y-10135000D01*
X14201250Y-10135000D01*
X14091300Y-10135000D01*
X14091300Y-10085000D01*
X14201250Y-10085000D01*
X14282500Y-10085000D01*
X14282500Y-9972500D01*
X14332500Y-9972500D01*
X14332500Y-10085000D01*
X14413750Y-10085000D01*
X14413750Y-10042503D01*
X14413750Y-10042501D01*
X14412700Y-10032230D01*
X14407186Y-10015588D01*
X14407186Y-10015588D01*
X14397981Y-10000665D01*
X14385584Y-9988268D01*
X14370662Y-9979064D01*
X14370662Y-9979064D01*
X14354020Y-9973549D01*
X14354019Y-9973549D01*
X14343749Y-9972500D01*
X14332500Y-9972500D01*
X14282500Y-9972500D01*
X14271253Y-9972500D01*
X14271251Y-9972500D01*
X14260980Y-9973549D01*
X14244338Y-9979064D01*
X14244337Y-9979064D01*
X14229415Y-9988268D01*
X14217018Y-10000665D01*
X14207814Y-10015588D01*
X14207814Y-10015588D01*
X14202299Y-10032230D01*
X14202299Y-10032231D01*
X14201250Y-10042501D01*
X14201250Y-10085000D01*
X14091300Y-10085000D01*
X14091300Y-10042073D01*
X14091015Y-10039030D01*
X14091015Y-10039030D01*
X14086529Y-10026212D01*
X14086529Y-10026212D01*
X14078465Y-10015285D01*
X14067538Y-10007221D01*
X14067538Y-10007221D01*
X14054720Y-10002735D01*
X14051677Y-10002450D01*
X14051677Y-10002450D01*
X13978323Y-10002450D01*
X13978323Y-10002450D01*
X13975280Y-10002735D01*
X13975280Y-10002735D01*
X13962462Y-10007221D01*
X13962462Y-10007221D01*
X13951535Y-10015285D01*
X13943471Y-10026212D01*
X13943471Y-10026212D01*
X13938985Y-10039030D01*
X13938985Y-10039030D01*
X13938700Y-10042073D01*
X13938700Y-10177927D01*
X13938985Y-10180970D01*
X13938985Y-10180970D01*
X13943471Y-10193788D01*
X13943471Y-10193788D01*
X13951535Y-10204715D01*
X13954913Y-10207208D01*
X13959138Y-10212773D01*
X13959950Y-10217185D01*
X13959950Y-10234392D01*
X13957981Y-10241096D01*
X13954913Y-10244369D01*
X13950285Y-10247785D01*
X13950285Y-10247785D01*
X13942221Y-10258712D01*
X13937695Y-10271646D01*
X13933623Y-10277323D01*
X13927127Y-10279898D01*
X13925991Y-10279950D01*
X13841482Y-10279950D01*
X13836737Y-10279006D01*
X13830676Y-10276496D01*
X13830676Y-10276496D01*
X13815000Y-10274432D01*
X13815000Y-10274432D01*
X13799324Y-10276496D01*
X13799324Y-10276496D01*
X13784716Y-10282546D01*
X13772172Y-10292172D01*
X13762546Y-10304716D01*
X13756496Y-10319324D01*
X13756495Y-10319324D01*
X13754432Y-10335000D01*
X13754432Y-10335000D01*
X13665050Y-10335000D01*
X13665050Y-9952000D01*
X14467436Y-9952000D01*
X14469488Y-9974154D01*
X14469488Y-9974154D01*
X14475577Y-9995552D01*
X14475577Y-9995554D01*
X14485494Y-10015468D01*
X14485494Y-10015469D01*
X14498902Y-10033224D01*
X14515344Y-10048212D01*
X14515344Y-10048213D01*
X14534259Y-10059925D01*
X14534260Y-10059925D01*
X14534260Y-10059925D01*
X14555006Y-10067962D01*
X14576876Y-10072050D01*
X14576876Y-10072050D01*
X14599124Y-10072050D01*
X14599124Y-10072050D01*
X14620994Y-10067962D01*
X14641740Y-10059925D01*
X14660656Y-10048212D01*
X14677098Y-10033224D01*
X14690506Y-10015469D01*
X14700423Y-9995553D01*
X14706511Y-9974154D01*
X14708564Y-9952000D01*
X15467436Y-9952000D01*
X15469488Y-9974154D01*
X15469488Y-9974154D01*
X15475577Y-9995552D01*
X15475577Y-9995554D01*
X15485494Y-10015468D01*
X15485494Y-10015469D01*
X15498902Y-10033224D01*
X15515344Y-10048212D01*
X15515344Y-10048213D01*
X15534259Y-10059925D01*
X15534260Y-10059925D01*
X15534260Y-10059925D01*
X15555006Y-10067962D01*
X15576876Y-10072050D01*
X15576876Y-10072050D01*
X15599124Y-10072050D01*
X15599124Y-10072050D01*
X15620994Y-10067962D01*
X15641740Y-10059925D01*
X15660656Y-10048212D01*
X15677098Y-10033224D01*
X15690506Y-10015469D01*
X15700423Y-9995553D01*
X15706511Y-9974154D01*
X15708564Y-9952000D01*
X15708286Y-9949000D01*
X16403466Y-9949000D01*
X16405397Y-9968613D01*
X16405398Y-9968613D01*
X16410173Y-9984355D01*
X16411119Y-9987473D01*
X16420409Y-10004853D01*
X16420409Y-10004854D01*
X16432912Y-10020088D01*
X16448146Y-10032591D01*
X16448147Y-10032591D01*
X16465527Y-10041881D01*
X16465527Y-10041881D01*
X16465527Y-10041881D01*
X16484387Y-10047602D01*
X16504000Y-10049534D01*
X16523613Y-10047602D01*
X16542473Y-10041881D01*
X16559854Y-10032591D01*
X16575088Y-10020088D01*
X16587591Y-10004854D01*
X16593589Y-9993632D01*
X16596881Y-9987473D01*
X16596881Y-9987473D01*
X16596881Y-9987473D01*
X16602602Y-9968613D01*
X16604534Y-9949000D01*
X16873503Y-9949000D01*
X16875486Y-9971660D01*
X16875486Y-9971661D01*
X16881373Y-9993632D01*
X16881374Y-9993633D01*
X16890986Y-10014248D01*
X16896097Y-10021547D01*
X16964000Y-9953645D01*
X16964000Y-9954266D01*
X16966726Y-9964439D01*
X16971992Y-9973561D01*
X16979439Y-9981008D01*
X16988561Y-9986274D01*
X16998734Y-9989000D01*
X16999355Y-9989000D01*
X16931453Y-10056903D01*
X16938751Y-10062013D01*
X16938752Y-10062014D01*
X16959367Y-10071626D01*
X16959368Y-10071627D01*
X16981339Y-10077514D01*
X16981340Y-10077514D01*
X17004000Y-10079497D01*
X17004000Y-10079497D01*
X17026660Y-10077514D01*
X17026661Y-10077514D01*
X17048632Y-10071627D01*
X17048633Y-10071626D01*
X17069248Y-10062014D01*
X17076547Y-10056902D01*
X17008645Y-9989000D01*
X17009266Y-9989000D01*
X17019439Y-9986274D01*
X17028561Y-9981008D01*
X17036008Y-9973561D01*
X17041274Y-9964439D01*
X17044000Y-9954266D01*
X17044000Y-9953645D01*
X17111902Y-10021547D01*
X17117014Y-10014248D01*
X17126626Y-9993633D01*
X17126627Y-9993632D01*
X17132514Y-9971661D01*
X17132514Y-9971660D01*
X17134497Y-9949000D01*
X17134497Y-9949000D01*
X17132514Y-9926340D01*
X17132514Y-9926339D01*
X17126627Y-9904368D01*
X17126626Y-9904367D01*
X17117014Y-9883752D01*
X17117013Y-9883751D01*
X17111903Y-9876453D01*
X17044000Y-9944355D01*
X17044000Y-9943734D01*
X17041274Y-9933561D01*
X17036008Y-9924439D01*
X17028561Y-9916992D01*
X17019439Y-9911726D01*
X17009266Y-9909000D01*
X17008645Y-9909000D01*
X17076547Y-9841097D01*
X17069248Y-9835986D01*
X17048633Y-9826374D01*
X17048632Y-9826373D01*
X17026661Y-9820486D01*
X17026660Y-9820486D01*
X17004000Y-9818503D01*
X17004000Y-9818503D01*
X16981340Y-9820486D01*
X16981339Y-9820486D01*
X16959368Y-9826373D01*
X16959367Y-9826373D01*
X16938752Y-9835987D01*
X16938751Y-9835987D01*
X16931453Y-9841097D01*
X16931453Y-9841097D01*
X16999355Y-9909000D01*
X16998734Y-9909000D01*
X16988561Y-9911726D01*
X16979439Y-9916992D01*
X16971992Y-9924439D01*
X16966726Y-9933561D01*
X16964000Y-9943734D01*
X16964000Y-9944355D01*
X16896097Y-9876453D01*
X16896097Y-9876453D01*
X16890987Y-9883751D01*
X16890987Y-9883752D01*
X16881373Y-9904367D01*
X16881373Y-9904368D01*
X16875486Y-9926339D01*
X16875486Y-9926340D01*
X16873503Y-9949000D01*
X16873503Y-9949000D01*
X16604534Y-9949000D01*
X16604534Y-9949000D01*
X16602602Y-9929387D01*
X16596881Y-9910527D01*
X16596881Y-9910527D01*
X16596881Y-9910527D01*
X16587591Y-9893147D01*
X16587591Y-9893146D01*
X16575088Y-9877912D01*
X16559854Y-9865409D01*
X16559853Y-9865409D01*
X16542473Y-9856119D01*
X16542473Y-9856119D01*
X16523613Y-9850398D01*
X16523613Y-9850398D01*
X16504000Y-9848466D01*
X16484387Y-9850398D01*
X16465527Y-9856119D01*
X16448147Y-9865409D01*
X16448146Y-9865409D01*
X16432912Y-9877912D01*
X16420409Y-9893146D01*
X16420409Y-9893147D01*
X16411119Y-9910527D01*
X16405397Y-9929387D01*
X16403466Y-9949000D01*
X15708286Y-9949000D01*
X15707798Y-9943734D01*
X15706511Y-9929846D01*
X15706511Y-9929846D01*
X15706381Y-9929387D01*
X15700423Y-9908447D01*
X15698392Y-9904368D01*
X15690506Y-9888532D01*
X15690506Y-9888531D01*
X15677098Y-9870776D01*
X15660656Y-9855788D01*
X15660656Y-9855787D01*
X15641740Y-9844075D01*
X15641740Y-9844075D01*
X15620994Y-9836038D01*
X15599124Y-9831950D01*
X15576876Y-9831950D01*
X15555006Y-9836038D01*
X15541947Y-9841097D01*
X15534260Y-9844075D01*
X15534259Y-9844075D01*
X15515344Y-9855787D01*
X15515344Y-9855788D01*
X15498902Y-9870776D01*
X15485494Y-9888531D01*
X15485494Y-9888532D01*
X15475577Y-9908446D01*
X15475577Y-9908448D01*
X15469488Y-9929846D01*
X15469488Y-9929846D01*
X15467436Y-9952000D01*
X15467436Y-9952000D01*
X14708564Y-9952000D01*
X14707798Y-9943734D01*
X14706511Y-9929846D01*
X14706511Y-9929846D01*
X14706381Y-9929387D01*
X14700423Y-9908447D01*
X14698392Y-9904368D01*
X14690506Y-9888532D01*
X14690506Y-9888531D01*
X14677098Y-9870776D01*
X14660656Y-9855788D01*
X14660656Y-9855787D01*
X14641740Y-9844075D01*
X14641740Y-9844075D01*
X14620994Y-9836038D01*
X14599124Y-9831950D01*
X14576876Y-9831950D01*
X14555006Y-9836038D01*
X14541947Y-9841097D01*
X14534260Y-9844075D01*
X14534259Y-9844075D01*
X14515344Y-9855787D01*
X14515344Y-9855788D01*
X14498902Y-9870776D01*
X14485494Y-9888531D01*
X14485494Y-9888532D01*
X14475577Y-9908446D01*
X14475577Y-9908448D01*
X14469488Y-9929846D01*
X14469488Y-9929846D01*
X14467436Y-9952000D01*
X14467436Y-9952000D01*
X13665050Y-9952000D01*
X13665050Y-9692000D01*
X15963436Y-9692000D01*
X15965488Y-9714154D01*
X15965488Y-9714154D01*
X15971577Y-9735552D01*
X15971577Y-9735554D01*
X15981494Y-9755468D01*
X15981494Y-9755469D01*
X15994902Y-9773224D01*
X16011344Y-9788212D01*
X16011344Y-9788213D01*
X16030259Y-9799925D01*
X16030260Y-9799925D01*
X16030260Y-9799925D01*
X16051006Y-9807962D01*
X16072876Y-9812050D01*
X16072876Y-9812050D01*
X16095124Y-9812050D01*
X16095124Y-9812050D01*
X16116994Y-9807962D01*
X16137740Y-9799925D01*
X16156656Y-9788212D01*
X16173098Y-9773224D01*
X16186506Y-9755469D01*
X16196423Y-9735553D01*
X16202511Y-9714154D01*
X16204564Y-9692000D01*
X16202511Y-9669846D01*
X16196423Y-9648447D01*
X16196422Y-9648446D01*
X16186506Y-9628532D01*
X16186506Y-9628531D01*
X16173098Y-9610776D01*
X16156656Y-9595788D01*
X16156656Y-9595787D01*
X16137740Y-9584075D01*
X16137740Y-9584075D01*
X16116994Y-9576038D01*
X16095124Y-9571950D01*
X16072876Y-9571950D01*
X16051006Y-9576038D01*
X16037886Y-9581121D01*
X16030260Y-9584075D01*
X16030259Y-9584075D01*
X16011344Y-9595787D01*
X16011344Y-9595788D01*
X15994902Y-9610776D01*
X15981494Y-9628531D01*
X15981494Y-9628532D01*
X15971577Y-9648446D01*
X15971577Y-9648448D01*
X15965488Y-9669846D01*
X15965488Y-9669846D01*
X15963436Y-9692000D01*
X15963436Y-9692000D01*
X13665050Y-9692000D01*
X13665050Y-9589000D01*
X14061466Y-9589000D01*
X14063397Y-9608613D01*
X14069119Y-9627473D01*
X14078409Y-9644853D01*
X14078409Y-9644854D01*
X14090912Y-9660088D01*
X14106146Y-9672591D01*
X14106147Y-9672591D01*
X14123527Y-9681881D01*
X14123527Y-9681881D01*
X14123527Y-9681881D01*
X14142387Y-9687602D01*
X14162000Y-9689534D01*
X14181613Y-9687602D01*
X14200473Y-9681881D01*
X14217854Y-9672591D01*
X14233088Y-9660088D01*
X14245591Y-9644854D01*
X14254316Y-9628531D01*
X14254881Y-9627473D01*
X14254881Y-9627473D01*
X14254881Y-9627473D01*
X14260602Y-9608613D01*
X14262534Y-9589000D01*
X14561466Y-9589000D01*
X14563397Y-9608613D01*
X14569119Y-9627473D01*
X14578409Y-9644853D01*
X14578409Y-9644854D01*
X14590912Y-9660088D01*
X14606146Y-9672591D01*
X14606147Y-9672591D01*
X14623527Y-9681881D01*
X14623527Y-9681881D01*
X14623527Y-9681881D01*
X14642387Y-9687602D01*
X14662000Y-9689534D01*
X14681613Y-9687602D01*
X14700473Y-9681881D01*
X14717854Y-9672591D01*
X14733088Y-9660088D01*
X14745591Y-9644854D01*
X14754316Y-9628531D01*
X14754881Y-9627473D01*
X14754881Y-9627473D01*
X14754881Y-9627473D01*
X14760602Y-9608613D01*
X14762534Y-9589000D01*
X14760602Y-9569387D01*
X14754881Y-9550527D01*
X14754881Y-9550527D01*
X14754881Y-9550527D01*
X14745591Y-9533147D01*
X14745591Y-9533146D01*
X14733088Y-9517912D01*
X14717854Y-9505409D01*
X14717853Y-9505409D01*
X14700473Y-9496119D01*
X14700473Y-9496119D01*
X14681613Y-9490398D01*
X14681613Y-9490398D01*
X14662000Y-9488466D01*
X14642387Y-9490398D01*
X14623527Y-9496119D01*
X14606147Y-9505409D01*
X14606146Y-9505409D01*
X14590912Y-9517912D01*
X14578409Y-9533146D01*
X14578409Y-9533147D01*
X14569119Y-9550527D01*
X14563397Y-9569387D01*
X14561466Y-9589000D01*
X14262534Y-9589000D01*
X14260602Y-9569387D01*
X14254881Y-9550527D01*
X14254881Y-9550527D01*
X14254881Y-9550527D01*
X14245591Y-9533147D01*
X14245591Y-9533146D01*
X14233088Y-9517912D01*
X14217854Y-9505409D01*
X14217853Y-9505409D01*
X14200473Y-9496119D01*
X14200473Y-9496119D01*
X14181613Y-9490398D01*
X14181613Y-9490398D01*
X14162000Y-9488466D01*
X14142387Y-9490398D01*
X14123527Y-9496119D01*
X14106147Y-9505409D01*
X14106146Y-9505409D01*
X14090912Y-9517912D01*
X14078409Y-9533146D01*
X14078409Y-9533147D01*
X14069119Y-9550527D01*
X14063397Y-9569387D01*
X14061466Y-9589000D01*
X13665050Y-9589000D01*
X13665050Y-9453995D01*
X13667018Y-9447292D01*
X13672299Y-9442716D01*
X13679215Y-9441722D01*
X13685570Y-9444624D01*
X13687288Y-9446447D01*
X13687546Y-9446784D01*
X13687546Y-9446784D01*
X13697172Y-9459328D01*
X13709716Y-9468954D01*
X13724324Y-9475004D01*
X13732162Y-9476036D01*
X13740000Y-9477068D01*
X13740000Y-9477068D01*
X13740000Y-9477068D01*
X13745225Y-9476380D01*
X13755676Y-9475004D01*
X13770284Y-9468954D01*
X13782828Y-9459328D01*
X13792454Y-9446784D01*
X13798504Y-9432176D01*
X13800239Y-9419000D01*
X16190466Y-9419000D01*
X16192397Y-9438613D01*
X16192398Y-9438613D01*
X16195030Y-9447292D01*
X16198119Y-9457473D01*
X16207409Y-9474853D01*
X16207409Y-9474854D01*
X16219912Y-9490088D01*
X16235146Y-9502591D01*
X16235147Y-9502591D01*
X16252527Y-9511881D01*
X16252527Y-9511881D01*
X16252527Y-9511881D01*
X16271387Y-9517602D01*
X16291000Y-9519534D01*
X16310613Y-9517602D01*
X16329473Y-9511881D01*
X16346854Y-9502591D01*
X16362088Y-9490088D01*
X16374591Y-9474854D01*
X16383881Y-9457473D01*
X16389602Y-9438613D01*
X16391534Y-9419000D01*
X16690466Y-9419000D01*
X16692397Y-9438613D01*
X16692398Y-9438613D01*
X16695030Y-9447292D01*
X16698119Y-9457473D01*
X16707409Y-9474853D01*
X16707409Y-9474854D01*
X16719912Y-9490088D01*
X16735146Y-9502591D01*
X16735147Y-9502591D01*
X16752527Y-9511881D01*
X16752527Y-9511881D01*
X16752527Y-9511881D01*
X16771387Y-9517602D01*
X16791000Y-9519534D01*
X16810613Y-9517602D01*
X16829473Y-9511881D01*
X16846854Y-9502591D01*
X16862088Y-9490088D01*
X16874591Y-9474854D01*
X16883881Y-9457473D01*
X16888272Y-9443000D01*
X17155436Y-9443000D01*
X17157488Y-9465154D01*
X17157489Y-9465154D01*
X17163577Y-9486552D01*
X17163578Y-9486554D01*
X17173494Y-9506468D01*
X17173494Y-9506469D01*
X17186902Y-9524224D01*
X17203344Y-9539212D01*
X17203344Y-9539213D01*
X17222260Y-9550925D01*
X17222260Y-9550925D01*
X17222260Y-9550925D01*
X17243006Y-9558962D01*
X17264876Y-9563050D01*
X17264876Y-9563050D01*
X17287124Y-9563050D01*
X17287124Y-9563050D01*
X17308994Y-9558962D01*
X17329740Y-9550925D01*
X17348656Y-9539212D01*
X17365098Y-9524224D01*
X17378506Y-9506469D01*
X17388423Y-9486553D01*
X17394512Y-9465154D01*
X17396564Y-9443000D01*
X18155436Y-9443000D01*
X18157488Y-9465154D01*
X18157489Y-9465154D01*
X18163577Y-9486552D01*
X18163578Y-9486554D01*
X18173494Y-9506468D01*
X18173494Y-9506469D01*
X18186902Y-9524224D01*
X18203344Y-9539212D01*
X18203344Y-9539213D01*
X18222260Y-9550925D01*
X18222260Y-9550925D01*
X18222260Y-9550925D01*
X18243006Y-9558962D01*
X18264876Y-9563050D01*
X18264876Y-9563050D01*
X18287124Y-9563050D01*
X18287124Y-9563050D01*
X18308994Y-9558962D01*
X18329740Y-9550925D01*
X18348656Y-9539212D01*
X18365098Y-9524224D01*
X18378506Y-9506469D01*
X18388423Y-9486553D01*
X18394512Y-9465154D01*
X18396564Y-9443000D01*
X18394512Y-9420846D01*
X18388423Y-9399447D01*
X18388422Y-9399446D01*
X18378506Y-9379532D01*
X18378506Y-9379531D01*
X18365098Y-9361776D01*
X18348656Y-9346788D01*
X18348656Y-9346787D01*
X18329740Y-9335075D01*
X18329740Y-9335075D01*
X18308994Y-9327038D01*
X18287124Y-9322950D01*
X18264876Y-9322950D01*
X18243006Y-9327038D01*
X18229886Y-9332121D01*
X18222260Y-9335075D01*
X18222260Y-9335075D01*
X18203344Y-9346787D01*
X18203344Y-9346788D01*
X18186902Y-9361776D01*
X18173494Y-9379531D01*
X18173494Y-9379532D01*
X18163578Y-9399446D01*
X18163577Y-9399448D01*
X18157489Y-9420846D01*
X18157488Y-9420846D01*
X18155436Y-9443000D01*
X18155436Y-9443000D01*
X17396564Y-9443000D01*
X17394512Y-9420846D01*
X17388423Y-9399447D01*
X17388422Y-9399446D01*
X17378506Y-9379532D01*
X17378506Y-9379531D01*
X17365098Y-9361776D01*
X17348656Y-9346788D01*
X17348656Y-9346787D01*
X17329740Y-9335075D01*
X17329740Y-9335075D01*
X17308994Y-9327038D01*
X17287124Y-9322950D01*
X17264876Y-9322950D01*
X17243006Y-9327038D01*
X17229886Y-9332121D01*
X17222260Y-9335075D01*
X17222260Y-9335075D01*
X17203344Y-9346787D01*
X17203344Y-9346788D01*
X17186902Y-9361776D01*
X17173494Y-9379531D01*
X17173494Y-9379532D01*
X17163578Y-9399446D01*
X17163577Y-9399448D01*
X17157489Y-9420846D01*
X17157488Y-9420846D01*
X17155436Y-9443000D01*
X17155436Y-9443000D01*
X16888272Y-9443000D01*
X16889602Y-9438613D01*
X16891534Y-9419000D01*
X16889602Y-9399387D01*
X16883881Y-9380527D01*
X16883881Y-9380527D01*
X16883881Y-9380527D01*
X16874591Y-9363147D01*
X16874591Y-9363146D01*
X16862088Y-9347912D01*
X16846854Y-9335409D01*
X16846853Y-9335409D01*
X16829473Y-9326119D01*
X16829473Y-9326119D01*
X16810613Y-9320398D01*
X16810613Y-9320398D01*
X16791000Y-9318466D01*
X16771387Y-9320398D01*
X16752527Y-9326119D01*
X16735147Y-9335409D01*
X16735146Y-9335409D01*
X16719912Y-9347912D01*
X16707409Y-9363146D01*
X16707409Y-9363147D01*
X16698119Y-9380527D01*
X16692397Y-9399387D01*
X16690466Y-9419000D01*
X16391534Y-9419000D01*
X16389602Y-9399387D01*
X16383881Y-9380527D01*
X16383881Y-9380527D01*
X16383881Y-9380527D01*
X16374591Y-9363147D01*
X16374591Y-9363146D01*
X16362088Y-9347912D01*
X16346854Y-9335409D01*
X16346853Y-9335409D01*
X16329473Y-9326119D01*
X16329473Y-9326119D01*
X16310613Y-9320398D01*
X16310613Y-9320398D01*
X16291000Y-9318466D01*
X16271387Y-9320398D01*
X16252527Y-9326119D01*
X16235147Y-9335409D01*
X16235146Y-9335409D01*
X16219912Y-9347912D01*
X16207409Y-9363146D01*
X16207409Y-9363147D01*
X16198119Y-9380527D01*
X16192397Y-9399387D01*
X16190466Y-9419000D01*
X13800239Y-9419000D01*
X13800568Y-9416500D01*
X13798504Y-9400824D01*
X13795994Y-9394763D01*
X13795050Y-9390018D01*
X13795050Y-9243000D01*
X14520436Y-9243000D01*
X14522488Y-9265154D01*
X14522488Y-9265154D01*
X14528577Y-9286552D01*
X14528577Y-9286554D01*
X14538494Y-9306468D01*
X14538494Y-9306469D01*
X14551902Y-9324224D01*
X14568344Y-9339212D01*
X14568344Y-9339213D01*
X14587259Y-9350925D01*
X14587260Y-9350925D01*
X14587260Y-9350925D01*
X14608006Y-9358962D01*
X14629876Y-9363050D01*
X14629876Y-9363050D01*
X14652124Y-9363050D01*
X14652124Y-9363050D01*
X14673994Y-9358962D01*
X14694740Y-9350925D01*
X14713656Y-9339212D01*
X14730098Y-9324224D01*
X14743506Y-9306469D01*
X14753423Y-9286553D01*
X14759511Y-9265154D01*
X14761564Y-9243000D01*
X15520436Y-9243000D01*
X15522488Y-9265154D01*
X15522488Y-9265154D01*
X15528577Y-9286552D01*
X15528577Y-9286554D01*
X15538494Y-9306468D01*
X15538494Y-9306469D01*
X15551902Y-9324224D01*
X15568344Y-9339212D01*
X15568344Y-9339213D01*
X15587259Y-9350925D01*
X15587260Y-9350925D01*
X15587260Y-9350925D01*
X15608006Y-9358962D01*
X15629876Y-9363050D01*
X15629876Y-9363050D01*
X15652124Y-9363050D01*
X15652124Y-9363050D01*
X15673994Y-9358962D01*
X15694740Y-9350925D01*
X15713656Y-9339212D01*
X15730098Y-9324224D01*
X15743506Y-9306469D01*
X15753423Y-9286553D01*
X15759511Y-9265154D01*
X15761564Y-9243000D01*
X15759511Y-9220846D01*
X15753423Y-9199447D01*
X15753422Y-9199446D01*
X15743506Y-9179532D01*
X15743506Y-9179531D01*
X15730098Y-9161776D01*
X15714986Y-9148000D01*
X16058503Y-9148000D01*
X16060486Y-9170660D01*
X16060486Y-9170661D01*
X16066373Y-9192632D01*
X16066373Y-9192633D01*
X16075986Y-9213248D01*
X16081097Y-9220547D01*
X16149000Y-9152645D01*
X16149000Y-9153266D01*
X16151726Y-9163439D01*
X16156992Y-9172561D01*
X16164439Y-9180008D01*
X16173561Y-9185274D01*
X16183734Y-9188000D01*
X16184355Y-9188000D01*
X16116453Y-9255903D01*
X16123751Y-9261013D01*
X16123752Y-9261014D01*
X16144367Y-9270626D01*
X16144368Y-9270627D01*
X16166339Y-9276514D01*
X16166340Y-9276514D01*
X16189000Y-9278497D01*
X16189000Y-9278497D01*
X16211660Y-9276514D01*
X16211661Y-9276514D01*
X16233632Y-9270627D01*
X16233633Y-9270626D01*
X16254248Y-9261014D01*
X16261547Y-9255902D01*
X16193645Y-9188000D01*
X16194266Y-9188000D01*
X16204439Y-9185274D01*
X16213561Y-9180008D01*
X16221008Y-9172561D01*
X16226274Y-9163439D01*
X16229000Y-9153266D01*
X16229000Y-9152645D01*
X16296902Y-9220547D01*
X16302014Y-9213248D01*
X16311626Y-9192633D01*
X16311627Y-9192632D01*
X16317514Y-9170661D01*
X16317514Y-9170660D01*
X16319497Y-9148000D01*
X16319497Y-9148000D01*
X16317514Y-9125340D01*
X16317514Y-9125339D01*
X16311627Y-9103368D01*
X16311626Y-9103367D01*
X16302014Y-9082752D01*
X16302013Y-9082751D01*
X16296902Y-9075453D01*
X16229000Y-9143355D01*
X16229000Y-9142734D01*
X16226274Y-9132561D01*
X16221008Y-9123439D01*
X16213561Y-9115992D01*
X16204439Y-9110726D01*
X16194266Y-9108000D01*
X16193645Y-9108000D01*
X16261547Y-9040097D01*
X16254248Y-9034986D01*
X16233633Y-9025374D01*
X16233632Y-9025373D01*
X16211661Y-9019486D01*
X16211660Y-9019486D01*
X16189000Y-9017503D01*
X16189000Y-9017503D01*
X16166340Y-9019486D01*
X16166339Y-9019486D01*
X16144368Y-9025373D01*
X16144367Y-9025373D01*
X16123752Y-9034987D01*
X16123751Y-9034987D01*
X16116453Y-9040097D01*
X16116453Y-9040097D01*
X16184355Y-9108000D01*
X16183734Y-9108000D01*
X16173561Y-9110726D01*
X16164439Y-9115992D01*
X16156992Y-9123439D01*
X16151726Y-9132561D01*
X16149000Y-9142734D01*
X16149000Y-9143355D01*
X16081097Y-9075453D01*
X16081097Y-9075453D01*
X16075987Y-9082751D01*
X16075987Y-9082752D01*
X16066373Y-9103367D01*
X16066373Y-9103368D01*
X16060486Y-9125339D01*
X16060486Y-9125340D01*
X16058503Y-9148000D01*
X16058503Y-9148000D01*
X15714986Y-9148000D01*
X15713656Y-9146788D01*
X15713656Y-9146787D01*
X15694740Y-9135075D01*
X15694740Y-9135075D01*
X15673994Y-9127038D01*
X15652124Y-9122950D01*
X15629876Y-9122950D01*
X15608006Y-9127038D01*
X15594886Y-9132121D01*
X15587260Y-9135075D01*
X15587259Y-9135075D01*
X15568344Y-9146787D01*
X15568344Y-9146788D01*
X15551902Y-9161776D01*
X15538494Y-9179531D01*
X15538494Y-9179532D01*
X15528577Y-9199446D01*
X15528577Y-9199448D01*
X15522488Y-9220846D01*
X15522488Y-9220846D01*
X15520436Y-9243000D01*
X15520436Y-9243000D01*
X14761564Y-9243000D01*
X14759511Y-9220846D01*
X14753423Y-9199447D01*
X14753422Y-9199446D01*
X14743506Y-9179532D01*
X14743506Y-9179531D01*
X14730098Y-9161776D01*
X14713656Y-9146788D01*
X14713656Y-9146787D01*
X14694740Y-9135075D01*
X14694740Y-9135075D01*
X14673994Y-9127038D01*
X14652124Y-9122950D01*
X14629876Y-9122950D01*
X14608006Y-9127038D01*
X14594886Y-9132121D01*
X14587260Y-9135075D01*
X14587259Y-9135075D01*
X14568344Y-9146787D01*
X14568344Y-9146788D01*
X14551902Y-9161776D01*
X14538494Y-9179531D01*
X14538494Y-9179532D01*
X14528577Y-9199446D01*
X14528577Y-9199448D01*
X14522488Y-9220846D01*
X14522488Y-9220846D01*
X14520436Y-9243000D01*
X14520436Y-9243000D01*
X13795050Y-9243000D01*
X13795050Y-8893000D01*
X14059466Y-8893000D01*
X14061397Y-8912613D01*
X14062035Y-8914716D01*
X14065198Y-8925143D01*
X14067119Y-8931473D01*
X14076409Y-8948853D01*
X14076409Y-8948854D01*
X14088912Y-8964088D01*
X14104146Y-8976591D01*
X14104147Y-8976591D01*
X14121527Y-8985881D01*
X14121527Y-8985881D01*
X14121527Y-8985881D01*
X14140387Y-8991602D01*
X14160000Y-8993534D01*
X14179613Y-8991602D01*
X14198473Y-8985881D01*
X14202484Y-8983737D01*
X14215853Y-8976591D01*
X14215854Y-8976591D01*
X14231088Y-8964088D01*
X14243591Y-8948854D01*
X14252881Y-8931473D01*
X14258602Y-8912613D01*
X14260534Y-8893000D01*
X14559466Y-8893000D01*
X14561397Y-8912613D01*
X14562035Y-8914716D01*
X14565198Y-8925143D01*
X14567119Y-8931473D01*
X14576409Y-8948853D01*
X14576409Y-8948854D01*
X14588912Y-8964088D01*
X14604146Y-8976591D01*
X14604147Y-8976591D01*
X14621527Y-8985881D01*
X14621527Y-8985881D01*
X14621527Y-8985881D01*
X14640387Y-8991602D01*
X14660000Y-8993534D01*
X14679613Y-8991602D01*
X14698473Y-8985881D01*
X14702484Y-8983737D01*
X14715853Y-8976591D01*
X14715854Y-8976591D01*
X14731088Y-8964088D01*
X14743591Y-8948854D01*
X14752881Y-8931473D01*
X14758602Y-8912613D01*
X14760534Y-8893000D01*
X14758602Y-8873387D01*
X14752881Y-8854527D01*
X14752881Y-8854527D01*
X14752881Y-8854527D01*
X14743591Y-8837147D01*
X14743591Y-8837146D01*
X14731088Y-8821912D01*
X14715854Y-8809409D01*
X14715853Y-8809409D01*
X14711347Y-8807000D01*
X15740466Y-8807000D01*
X15742397Y-8826613D01*
X15743128Y-8829021D01*
X15746679Y-8840728D01*
X15748119Y-8845473D01*
X15757409Y-8862853D01*
X15757409Y-8862854D01*
X15769912Y-8878088D01*
X15785146Y-8890591D01*
X15785147Y-8890591D01*
X15802527Y-8899881D01*
X15802527Y-8899881D01*
X15802527Y-8899881D01*
X15821387Y-8905602D01*
X15841000Y-8907534D01*
X15860613Y-8905602D01*
X15879473Y-8899881D01*
X15883361Y-8897803D01*
X15896853Y-8890591D01*
X15896854Y-8890591D01*
X15912088Y-8878088D01*
X15924591Y-8862854D01*
X15933881Y-8845473D01*
X15939602Y-8826613D01*
X15941534Y-8807000D01*
X15939602Y-8787387D01*
X15933881Y-8768527D01*
X15933881Y-8768527D01*
X15933881Y-8768527D01*
X15924591Y-8751147D01*
X15924591Y-8751146D01*
X15912088Y-8735912D01*
X15896854Y-8723409D01*
X15896853Y-8723409D01*
X15879473Y-8714119D01*
X15879473Y-8714119D01*
X15863666Y-8709324D01*
X15860613Y-8708398D01*
X15841000Y-8706466D01*
X15821387Y-8708398D01*
X15802527Y-8714119D01*
X15785147Y-8723409D01*
X15785146Y-8723409D01*
X15769912Y-8735912D01*
X15757409Y-8751146D01*
X15757409Y-8751147D01*
X15748119Y-8768527D01*
X15742397Y-8787387D01*
X15740466Y-8807000D01*
X14711347Y-8807000D01*
X14698473Y-8800119D01*
X14698473Y-8800119D01*
X14679613Y-8794398D01*
X14679613Y-8794398D01*
X14660000Y-8792466D01*
X14640387Y-8794398D01*
X14621527Y-8800119D01*
X14604147Y-8809409D01*
X14604146Y-8809409D01*
X14588912Y-8821912D01*
X14576409Y-8837146D01*
X14576409Y-8837147D01*
X14567119Y-8854527D01*
X14561397Y-8873387D01*
X14559466Y-8893000D01*
X14260534Y-8893000D01*
X14258602Y-8873387D01*
X14252881Y-8854527D01*
X14252881Y-8854527D01*
X14252881Y-8854527D01*
X14243591Y-8837147D01*
X14243591Y-8837146D01*
X14231088Y-8821912D01*
X14215854Y-8809409D01*
X14215853Y-8809409D01*
X14198473Y-8800119D01*
X14198473Y-8800119D01*
X14179613Y-8794398D01*
X14179613Y-8794398D01*
X14160000Y-8792466D01*
X14140387Y-8794398D01*
X14121527Y-8800119D01*
X14104147Y-8809409D01*
X14104146Y-8809409D01*
X14088912Y-8821912D01*
X14076409Y-8837146D01*
X14076409Y-8837147D01*
X14067119Y-8854527D01*
X14061397Y-8873387D01*
X14059466Y-8893000D01*
X13795050Y-8893000D01*
X13795050Y-8662753D01*
X13795050Y-8662753D01*
X13791298Y-8648752D01*
X13791298Y-8648751D01*
X13791298Y-8648751D01*
X13790864Y-8648000D01*
X13790864Y-8648000D01*
X13787523Y-8642213D01*
X13784051Y-8636199D01*
X13693853Y-8546001D01*
X14372486Y-8546001D01*
X14374538Y-8570773D01*
X14374539Y-8570774D01*
X14380641Y-8594872D01*
X14390627Y-8617636D01*
X14400656Y-8632988D01*
X14474704Y-8558941D01*
X14476407Y-8565299D01*
X14482990Y-8576701D01*
X14492299Y-8586010D01*
X14503701Y-8592593D01*
X14510059Y-8594296D01*
X14435994Y-8668361D01*
X14440677Y-8672006D01*
X14440677Y-8672006D01*
X14462538Y-8683836D01*
X14462540Y-8683837D01*
X14486051Y-8691908D01*
X14510571Y-8696000D01*
X14535429Y-8696000D01*
X14559949Y-8691908D01*
X14583460Y-8683837D01*
X14583461Y-8683836D01*
X14605323Y-8672006D01*
X14605323Y-8672006D01*
X14610006Y-8668361D01*
X14535941Y-8594296D01*
X14542299Y-8592593D01*
X14553701Y-8586010D01*
X14563010Y-8576701D01*
X14569592Y-8565299D01*
X14571296Y-8558941D01*
X14645343Y-8632988D01*
X14655373Y-8617637D01*
X14665359Y-8594872D01*
X14671461Y-8570774D01*
X14671461Y-8570773D01*
X14673514Y-8546001D01*
X14673514Y-8546000D01*
X15402436Y-8546000D01*
X15404488Y-8568154D01*
X15404488Y-8568154D01*
X15410577Y-8589552D01*
X15410577Y-8589554D01*
X15420494Y-8609468D01*
X15420494Y-8609469D01*
X15433902Y-8627224D01*
X15450344Y-8642212D01*
X15450344Y-8642213D01*
X15469259Y-8653925D01*
X15469260Y-8653925D01*
X15469260Y-8653925D01*
X15490006Y-8661962D01*
X15511876Y-8666050D01*
X15511876Y-8666050D01*
X15534124Y-8666050D01*
X15534124Y-8666050D01*
X15555994Y-8661962D01*
X15576740Y-8653925D01*
X15586309Y-8648000D01*
X16088466Y-8648000D01*
X16088778Y-8651170D01*
X16090397Y-8667613D01*
X16096119Y-8686473D01*
X16105409Y-8703853D01*
X16105409Y-8703854D01*
X16117912Y-8719088D01*
X16133146Y-8731591D01*
X16133147Y-8731591D01*
X16150527Y-8740881D01*
X16150527Y-8740881D01*
X16150527Y-8740881D01*
X16169387Y-8746602D01*
X16189000Y-8748534D01*
X16208613Y-8746602D01*
X16227473Y-8740881D01*
X16244854Y-8731591D01*
X16260088Y-8719088D01*
X16272591Y-8703854D01*
X16277521Y-8694630D01*
X16281881Y-8686473D01*
X16281881Y-8686473D01*
X16281881Y-8686473D01*
X16287602Y-8667613D01*
X16289436Y-8649001D01*
X16347470Y-8649001D01*
X16349386Y-8672130D01*
X16349387Y-8672131D01*
X16355084Y-8694630D01*
X16364407Y-8715885D01*
X16377102Y-8735315D01*
X16377102Y-8735315D01*
X16377102Y-8735315D01*
X16392822Y-8752391D01*
X16392822Y-8752392D01*
X16392822Y-8752392D01*
X16411136Y-8766646D01*
X16411137Y-8766647D01*
X16411137Y-8766647D01*
X16431550Y-8777694D01*
X16442949Y-8781607D01*
X16453501Y-8785230D01*
X16453502Y-8785230D01*
X16453502Y-8785230D01*
X16476395Y-8789050D01*
X16476395Y-8789050D01*
X16499605Y-8789050D01*
X16499605Y-8789050D01*
X16522498Y-8785230D01*
X16544450Y-8777694D01*
X16564863Y-8766647D01*
X16583178Y-8752391D01*
X16598898Y-8735315D01*
X16611592Y-8715885D01*
X16620916Y-8694630D01*
X16626613Y-8672131D01*
X16626613Y-8672130D01*
X16628530Y-8649001D01*
X16628530Y-8649000D01*
X17617523Y-8649000D01*
X17619427Y-8674408D01*
X17625097Y-8699248D01*
X17625097Y-8699249D01*
X17634406Y-8722967D01*
X17634406Y-8722967D01*
X17647145Y-8745033D01*
X17647146Y-8745034D01*
X17651345Y-8750299D01*
X17651345Y-8750299D01*
X17731539Y-8670106D01*
X17732089Y-8672159D01*
X17739988Y-8685841D01*
X17751159Y-8697012D01*
X17764841Y-8704911D01*
X17766894Y-8705461D01*
X17686681Y-8785674D01*
X17702762Y-8796637D01*
X17702762Y-8796638D01*
X17725718Y-8807692D01*
X17725717Y-8807692D01*
X17750065Y-8815202D01*
X17750066Y-8815203D01*
X17775260Y-8819000D01*
X17775260Y-8819000D01*
X17800740Y-8819000D01*
X17800740Y-8819000D01*
X17825934Y-8815203D01*
X17825935Y-8815202D01*
X17850282Y-8807692D01*
X17873238Y-8796638D01*
X17873238Y-8796638D01*
X17889319Y-8785674D01*
X17809106Y-8705461D01*
X17811159Y-8704911D01*
X17824841Y-8697012D01*
X17836012Y-8685841D01*
X17843911Y-8672159D01*
X17844461Y-8670106D01*
X17924654Y-8750299D01*
X17924655Y-8750299D01*
X17928854Y-8745033D01*
X17941594Y-8722967D01*
X17950903Y-8699249D01*
X17950903Y-8699248D01*
X17956573Y-8674408D01*
X17958477Y-8649000D01*
X17958477Y-8649000D01*
X17956573Y-8623592D01*
X17950903Y-8598752D01*
X17950903Y-8598751D01*
X17941594Y-8575033D01*
X17941594Y-8575033D01*
X17928855Y-8552967D01*
X17924655Y-8547701D01*
X17844461Y-8627894D01*
X17843911Y-8625841D01*
X17836012Y-8612159D01*
X17824841Y-8600988D01*
X17811159Y-8593089D01*
X17809106Y-8592539D01*
X17889319Y-8512326D01*
X17873238Y-8501363D01*
X17873238Y-8501362D01*
X17850282Y-8490308D01*
X17850283Y-8490308D01*
X17825935Y-8482798D01*
X17825934Y-8482797D01*
X17800740Y-8479000D01*
X17775260Y-8479000D01*
X17750066Y-8482797D01*
X17750065Y-8482798D01*
X17725718Y-8490308D01*
X17702762Y-8501363D01*
X17702761Y-8501363D01*
X17686681Y-8512326D01*
X17766894Y-8592539D01*
X17764841Y-8593089D01*
X17751159Y-8600988D01*
X17739988Y-8612159D01*
X17732089Y-8625841D01*
X17731539Y-8627894D01*
X17651345Y-8547701D01*
X17647146Y-8552967D01*
X17634406Y-8575033D01*
X17625097Y-8598751D01*
X17625097Y-8598752D01*
X17619427Y-8623592D01*
X17617523Y-8649000D01*
X17617523Y-8649000D01*
X16628530Y-8649000D01*
X16628530Y-8648999D01*
X16626613Y-8625870D01*
X16626613Y-8625869D01*
X16620916Y-8603370D01*
X16611592Y-8582115D01*
X16598898Y-8562685D01*
X16598898Y-8562685D01*
X16598898Y-8562685D01*
X16583178Y-8545609D01*
X16583178Y-8545608D01*
X16583178Y-8545608D01*
X16564863Y-8531354D01*
X16564863Y-8531353D01*
X16544450Y-8520306D01*
X16544449Y-8520306D01*
X16522498Y-8512770D01*
X16505328Y-8509905D01*
X16499605Y-8508950D01*
X16476395Y-8508950D01*
X16471816Y-8509714D01*
X16453501Y-8512770D01*
X16431550Y-8520306D01*
X16431549Y-8520306D01*
X16411137Y-8531353D01*
X16411136Y-8531354D01*
X16392822Y-8545608D01*
X16392822Y-8545608D01*
X16392822Y-8545609D01*
X16392822Y-8545609D01*
X16390896Y-8547701D01*
X16377102Y-8562685D01*
X16364407Y-8582115D01*
X16355084Y-8603370D01*
X16349387Y-8625869D01*
X16349386Y-8625870D01*
X16347470Y-8648999D01*
X16347470Y-8649001D01*
X16289436Y-8649001D01*
X16289534Y-8648000D01*
X16288962Y-8642197D01*
X16287649Y-8628857D01*
X16287602Y-8628387D01*
X16281881Y-8609527D01*
X16281881Y-8609527D01*
X16281881Y-8609527D01*
X16272591Y-8592147D01*
X16272591Y-8592146D01*
X16260088Y-8576912D01*
X16244854Y-8564409D01*
X16244853Y-8564409D01*
X16227473Y-8555119D01*
X16227473Y-8555119D01*
X16208613Y-8549398D01*
X16208613Y-8549398D01*
X16189000Y-8547466D01*
X16169387Y-8549398D01*
X16150527Y-8555119D01*
X16133147Y-8564409D01*
X16133146Y-8564409D01*
X16117912Y-8576912D01*
X16105409Y-8592146D01*
X16105409Y-8592147D01*
X16096119Y-8609527D01*
X16090397Y-8628387D01*
X16089036Y-8642212D01*
X16088466Y-8648000D01*
X15586309Y-8648000D01*
X15595656Y-8642212D01*
X15609628Y-8629475D01*
X15612098Y-8627224D01*
X15613121Y-8625870D01*
X15625506Y-8609469D01*
X15635423Y-8589553D01*
X15641511Y-8568154D01*
X15643564Y-8546000D01*
X15643564Y-8545999D01*
X15641511Y-8523846D01*
X15641511Y-8523846D01*
X15640766Y-8521226D01*
X15635423Y-8502447D01*
X15635422Y-8502446D01*
X15625506Y-8482532D01*
X15625506Y-8482531D01*
X15612098Y-8464776D01*
X15595656Y-8449788D01*
X15595656Y-8449787D01*
X15576740Y-8438075D01*
X15576740Y-8438075D01*
X15555994Y-8430038D01*
X15534124Y-8425950D01*
X15511876Y-8425950D01*
X15490006Y-8430038D01*
X15483039Y-8432737D01*
X15469260Y-8438075D01*
X15469259Y-8438075D01*
X15450344Y-8449787D01*
X15450344Y-8449788D01*
X15433902Y-8464776D01*
X15420494Y-8482531D01*
X15420494Y-8482532D01*
X15410577Y-8502446D01*
X15410577Y-8502448D01*
X15404488Y-8523846D01*
X15404488Y-8523846D01*
X15402436Y-8546000D01*
X15402436Y-8546000D01*
X14673514Y-8546000D01*
X14673514Y-8545999D01*
X14671461Y-8521227D01*
X14671461Y-8521226D01*
X14665359Y-8497128D01*
X14655373Y-8474363D01*
X14645343Y-8459012D01*
X14571296Y-8533059D01*
X14569592Y-8526701D01*
X14563010Y-8515299D01*
X14553701Y-8505990D01*
X14542299Y-8499408D01*
X14535941Y-8497704D01*
X14610006Y-8423639D01*
X14610006Y-8423639D01*
X14605323Y-8419994D01*
X14583461Y-8408164D01*
X14583460Y-8408163D01*
X14559949Y-8400092D01*
X14535429Y-8396000D01*
X14510571Y-8396000D01*
X14486051Y-8400092D01*
X14462540Y-8408163D01*
X14462539Y-8408163D01*
X14440676Y-8419995D01*
X14435994Y-8423639D01*
X14435994Y-8423639D01*
X14510059Y-8497704D01*
X14503701Y-8499408D01*
X14492299Y-8505990D01*
X14482990Y-8515299D01*
X14476407Y-8526701D01*
X14474704Y-8533059D01*
X14400656Y-8459012D01*
X14390627Y-8474363D01*
X14380641Y-8497128D01*
X14374539Y-8521226D01*
X14374538Y-8521227D01*
X14372486Y-8545999D01*
X14372486Y-8546001D01*
X13693853Y-8546001D01*
X13543801Y-8395949D01*
X13531248Y-8388702D01*
X13531249Y-8388702D01*
X13526051Y-8387309D01*
X13517247Y-8384950D01*
X13517247Y-8384950D01*
X12862939Y-8384950D01*
X12856235Y-8382981D01*
X12854171Y-8381318D01*
X12779853Y-8307000D01*
X15710503Y-8307000D01*
X15712486Y-8329660D01*
X15712486Y-8329661D01*
X15718373Y-8351632D01*
X15718373Y-8351633D01*
X15727986Y-8372248D01*
X15733097Y-8379547D01*
X15801000Y-8311645D01*
X15801000Y-8312266D01*
X15803726Y-8322439D01*
X15808992Y-8331561D01*
X15816439Y-8339008D01*
X15825561Y-8344274D01*
X15835734Y-8347000D01*
X15836355Y-8347000D01*
X15768453Y-8414903D01*
X15775751Y-8420013D01*
X15775752Y-8420014D01*
X15796367Y-8429626D01*
X15796368Y-8429627D01*
X15818339Y-8435514D01*
X15818340Y-8435514D01*
X15841000Y-8437497D01*
X15841000Y-8437497D01*
X15863660Y-8435514D01*
X15863661Y-8435514D01*
X15885632Y-8429627D01*
X15885633Y-8429626D01*
X15906248Y-8420014D01*
X15913547Y-8414902D01*
X15845645Y-8347000D01*
X15846266Y-8347000D01*
X15856439Y-8344274D01*
X15865561Y-8339008D01*
X15873008Y-8331561D01*
X15878274Y-8322439D01*
X15881000Y-8312266D01*
X15881000Y-8311645D01*
X15948902Y-8379547D01*
X15954014Y-8372248D01*
X15963626Y-8351633D01*
X15963627Y-8351632D01*
X15969514Y-8329661D01*
X15969514Y-8329660D01*
X15971497Y-8307000D01*
X15971497Y-8307000D01*
X15969514Y-8284340D01*
X15969514Y-8284339D01*
X15963627Y-8262368D01*
X15963626Y-8262367D01*
X15960657Y-8256000D01*
X16087466Y-8256000D01*
X16089397Y-8275613D01*
X16091305Y-8281900D01*
X16092716Y-8286552D01*
X16095119Y-8294473D01*
X16104409Y-8311853D01*
X16104409Y-8311854D01*
X16116912Y-8327088D01*
X16132146Y-8339591D01*
X16132147Y-8339591D01*
X16149527Y-8348881D01*
X16149527Y-8348881D01*
X16149527Y-8348881D01*
X16168387Y-8354602D01*
X16188000Y-8356534D01*
X16207613Y-8354602D01*
X16226473Y-8348881D01*
X16229993Y-8347000D01*
X16235163Y-8344236D01*
X16243854Y-8339591D01*
X16259088Y-8327088D01*
X16271591Y-8311854D01*
X16280881Y-8294473D01*
X16286602Y-8275613D01*
X16288534Y-8256000D01*
X16587466Y-8256000D01*
X16589397Y-8275613D01*
X16591305Y-8281900D01*
X16592716Y-8286552D01*
X16595119Y-8294473D01*
X16604409Y-8311853D01*
X16604409Y-8311854D01*
X16616912Y-8327088D01*
X16632146Y-8339591D01*
X16632147Y-8339591D01*
X16649527Y-8348881D01*
X16649527Y-8348881D01*
X16649527Y-8348881D01*
X16668387Y-8354602D01*
X16688000Y-8356534D01*
X16707613Y-8354602D01*
X16726473Y-8348881D01*
X16729993Y-8347000D01*
X16735163Y-8344236D01*
X16743854Y-8339591D01*
X16759088Y-8327088D01*
X16771591Y-8311854D01*
X16780881Y-8294473D01*
X16786602Y-8275613D01*
X16788534Y-8256000D01*
X16786602Y-8236387D01*
X16780881Y-8217527D01*
X16780881Y-8217527D01*
X16780881Y-8217527D01*
X16771591Y-8200147D01*
X16771591Y-8200146D01*
X16759088Y-8184912D01*
X16743854Y-8172409D01*
X16743853Y-8172409D01*
X16726473Y-8163119D01*
X16726473Y-8163119D01*
X16707613Y-8157398D01*
X16707613Y-8157397D01*
X16688000Y-8155466D01*
X16668387Y-8157397D01*
X16649527Y-8163119D01*
X16632147Y-8172409D01*
X16632146Y-8172409D01*
X16616912Y-8184912D01*
X16604409Y-8200146D01*
X16604409Y-8200147D01*
X16595119Y-8217527D01*
X16589397Y-8236387D01*
X16587466Y-8256000D01*
X16288534Y-8256000D01*
X16286602Y-8236387D01*
X16280881Y-8217527D01*
X16280881Y-8217527D01*
X16280881Y-8217527D01*
X16271591Y-8200147D01*
X16271591Y-8200146D01*
X16259088Y-8184912D01*
X16243854Y-8172409D01*
X16243853Y-8172409D01*
X16226473Y-8163119D01*
X16226473Y-8163119D01*
X16207613Y-8157398D01*
X16207613Y-8157397D01*
X16188000Y-8155466D01*
X16168387Y-8157397D01*
X16149527Y-8163119D01*
X16132147Y-8172409D01*
X16132146Y-8172409D01*
X16116912Y-8184912D01*
X16104409Y-8200146D01*
X16104409Y-8200147D01*
X16095119Y-8217527D01*
X16089397Y-8236387D01*
X16087466Y-8256000D01*
X15960657Y-8256000D01*
X15954014Y-8241752D01*
X15954013Y-8241751D01*
X15948902Y-8234453D01*
X15881000Y-8302355D01*
X15881000Y-8301734D01*
X15878274Y-8291561D01*
X15873008Y-8282439D01*
X15865561Y-8274992D01*
X15856439Y-8269726D01*
X15846266Y-8267000D01*
X15845645Y-8267000D01*
X15913547Y-8199097D01*
X15906248Y-8193986D01*
X15885633Y-8184373D01*
X15885632Y-8184373D01*
X15863661Y-8178486D01*
X15863660Y-8178486D01*
X15841000Y-8176503D01*
X15841000Y-8176503D01*
X15818340Y-8178486D01*
X15818339Y-8178486D01*
X15796368Y-8184373D01*
X15796367Y-8184373D01*
X15775752Y-8193987D01*
X15775751Y-8193987D01*
X15768453Y-8199097D01*
X15768453Y-8199097D01*
X15836355Y-8267000D01*
X15835734Y-8267000D01*
X15825561Y-8269726D01*
X15816439Y-8274992D01*
X15808992Y-8282439D01*
X15803726Y-8291561D01*
X15801000Y-8301734D01*
X15801000Y-8302355D01*
X15733097Y-8234453D01*
X15733097Y-8234453D01*
X15727987Y-8241751D01*
X15727987Y-8241752D01*
X15718373Y-8262367D01*
X15718373Y-8262368D01*
X15712486Y-8284339D01*
X15712486Y-8284340D01*
X15710503Y-8307000D01*
X15710503Y-8307000D01*
X12779853Y-8307000D01*
X12706432Y-8233579D01*
X12703083Y-8227447D01*
X12702800Y-8224811D01*
X12702800Y-8165000D01*
X12784466Y-8165000D01*
X12786397Y-8184613D01*
X12792119Y-8203473D01*
X12801409Y-8220853D01*
X12801409Y-8220854D01*
X12813912Y-8236088D01*
X12829146Y-8248591D01*
X12829147Y-8248591D01*
X12846527Y-8257881D01*
X12846527Y-8257881D01*
X12846527Y-8257881D01*
X12865387Y-8263602D01*
X12885000Y-8265534D01*
X12904613Y-8263602D01*
X12923473Y-8257881D01*
X12926993Y-8256000D01*
X12940853Y-8248591D01*
X12940854Y-8248591D01*
X12956088Y-8236088D01*
X12968591Y-8220854D01*
X12977881Y-8203473D01*
X12983602Y-8184613D01*
X12985534Y-8165000D01*
X13284466Y-8165000D01*
X13286397Y-8184613D01*
X13292119Y-8203473D01*
X13301409Y-8220853D01*
X13301409Y-8220854D01*
X13313912Y-8236088D01*
X13329146Y-8248591D01*
X13329147Y-8248591D01*
X13346527Y-8257881D01*
X13346527Y-8257881D01*
X13346527Y-8257881D01*
X13365387Y-8263602D01*
X13385000Y-8265534D01*
X13404613Y-8263602D01*
X13423473Y-8257881D01*
X13426993Y-8256000D01*
X13440853Y-8248591D01*
X13440854Y-8248591D01*
X13456088Y-8236088D01*
X13468591Y-8220854D01*
X13477881Y-8203473D01*
X13483602Y-8184613D01*
X13484451Y-8176000D01*
X13950466Y-8176000D01*
X13952397Y-8195613D01*
X13952398Y-8195613D01*
X13954782Y-8203473D01*
X13958119Y-8214473D01*
X13967409Y-8231853D01*
X13967409Y-8231854D01*
X13979912Y-8247088D01*
X13995146Y-8259591D01*
X13995147Y-8259591D01*
X14012527Y-8268881D01*
X14012527Y-8268881D01*
X14012527Y-8268881D01*
X14031387Y-8274602D01*
X14051000Y-8276534D01*
X14070613Y-8274602D01*
X14089473Y-8268881D01*
X14092993Y-8267000D01*
X14106093Y-8259997D01*
X14106854Y-8259591D01*
X14122088Y-8247088D01*
X14134591Y-8231854D01*
X14140471Y-8220854D01*
X14143881Y-8214473D01*
X14143881Y-8214473D01*
X14143881Y-8214473D01*
X14149602Y-8195613D01*
X14151534Y-8176000D01*
X14450466Y-8176000D01*
X14452397Y-8195613D01*
X14452398Y-8195613D01*
X14454782Y-8203473D01*
X14458119Y-8214473D01*
X14467409Y-8231853D01*
X14467409Y-8231854D01*
X14479912Y-8247088D01*
X14495146Y-8259591D01*
X14495147Y-8259591D01*
X14512527Y-8268881D01*
X14512527Y-8268881D01*
X14512527Y-8268881D01*
X14531387Y-8274602D01*
X14551000Y-8276534D01*
X14570613Y-8274602D01*
X14589473Y-8268881D01*
X14592993Y-8267000D01*
X14606093Y-8259997D01*
X14606854Y-8259591D01*
X14622088Y-8247088D01*
X14634591Y-8231854D01*
X14640471Y-8220854D01*
X14643881Y-8214473D01*
X14643881Y-8214473D01*
X14643881Y-8214473D01*
X14649602Y-8195613D01*
X14651534Y-8176000D01*
X14649602Y-8156387D01*
X14643881Y-8137527D01*
X14643881Y-8137527D01*
X14643881Y-8137527D01*
X14634591Y-8120147D01*
X14634591Y-8120146D01*
X14622088Y-8104912D01*
X14606854Y-8092409D01*
X14606853Y-8092409D01*
X14589473Y-8083119D01*
X14589473Y-8083119D01*
X14570613Y-8077398D01*
X14570613Y-8077397D01*
X14551000Y-8075466D01*
X14531387Y-8077397D01*
X14512527Y-8083119D01*
X14495147Y-8092409D01*
X14495146Y-8092409D01*
X14479912Y-8104912D01*
X14467409Y-8120146D01*
X14467409Y-8120147D01*
X14458119Y-8137527D01*
X14452397Y-8156387D01*
X14450466Y-8176000D01*
X14151534Y-8176000D01*
X14149602Y-8156387D01*
X14143881Y-8137527D01*
X14143881Y-8137527D01*
X14143881Y-8137527D01*
X14134591Y-8120147D01*
X14134591Y-8120146D01*
X14122088Y-8104912D01*
X14106854Y-8092409D01*
X14106853Y-8092409D01*
X14089473Y-8083119D01*
X14089473Y-8083119D01*
X14070613Y-8077398D01*
X14070613Y-8077397D01*
X14051000Y-8075466D01*
X14031387Y-8077397D01*
X14012527Y-8083119D01*
X13995147Y-8092409D01*
X13995146Y-8092409D01*
X13979912Y-8104912D01*
X13967409Y-8120146D01*
X13967409Y-8120147D01*
X13958119Y-8137527D01*
X13952397Y-8156387D01*
X13950466Y-8176000D01*
X13484451Y-8176000D01*
X13485534Y-8165000D01*
X13483602Y-8145387D01*
X13477881Y-8126527D01*
X13477881Y-8126527D01*
X13477881Y-8126527D01*
X13468591Y-8109147D01*
X13468591Y-8109146D01*
X13456088Y-8093912D01*
X13440854Y-8081409D01*
X13440853Y-8081409D01*
X13423473Y-8072119D01*
X13423473Y-8072119D01*
X13410900Y-8068305D01*
X13404613Y-8066397D01*
X13385000Y-8064466D01*
X13365387Y-8066397D01*
X13346527Y-8072119D01*
X13329147Y-8081409D01*
X13329146Y-8081409D01*
X13313912Y-8093912D01*
X13301409Y-8109146D01*
X13301409Y-8109147D01*
X13292119Y-8126527D01*
X13286397Y-8145387D01*
X13284466Y-8165000D01*
X12985534Y-8165000D01*
X12983602Y-8145387D01*
X12977881Y-8126527D01*
X12977881Y-8126527D01*
X12977881Y-8126527D01*
X12968591Y-8109147D01*
X12968591Y-8109146D01*
X12956088Y-8093912D01*
X12940854Y-8081409D01*
X12940853Y-8081409D01*
X12923473Y-8072119D01*
X12923473Y-8072119D01*
X12910900Y-8068305D01*
X12904613Y-8066397D01*
X12885000Y-8064466D01*
X12865387Y-8066397D01*
X12846527Y-8072119D01*
X12829147Y-8081409D01*
X12829146Y-8081409D01*
X12813912Y-8093912D01*
X12801409Y-8109146D01*
X12801409Y-8109147D01*
X12792119Y-8126527D01*
X12786397Y-8145387D01*
X12784466Y-8165000D01*
X12702800Y-8165000D01*
X12702800Y-7779310D01*
X12704768Y-7772606D01*
X12707836Y-7769334D01*
X12711215Y-7766840D01*
X12719279Y-7755913D01*
X12721845Y-7748581D01*
X12723765Y-7743095D01*
X12723765Y-7743095D01*
X12724050Y-7740052D01*
X12724050Y-7689000D01*
X12794486Y-7689000D01*
X12796538Y-7713773D01*
X12796539Y-7713774D01*
X12802641Y-7737872D01*
X12812627Y-7760636D01*
X12822656Y-7775988D01*
X12896704Y-7701941D01*
X12898407Y-7708299D01*
X12904990Y-7719701D01*
X12914299Y-7729010D01*
X12925701Y-7735592D01*
X12932059Y-7737296D01*
X12857994Y-7811361D01*
X12862677Y-7815005D01*
X12862677Y-7815006D01*
X12884538Y-7826836D01*
X12884540Y-7826837D01*
X12908051Y-7834908D01*
X12932571Y-7839000D01*
X12957429Y-7839000D01*
X12981949Y-7834908D01*
X13005460Y-7826837D01*
X13005461Y-7826836D01*
X13027323Y-7815006D01*
X13027323Y-7815005D01*
X13032006Y-7811361D01*
X12957941Y-7737296D01*
X12964299Y-7735592D01*
X12975701Y-7729010D01*
X12985010Y-7719701D01*
X12991592Y-7708299D01*
X12993296Y-7701941D01*
X13067343Y-7775988D01*
X13069949Y-7772001D01*
X14404470Y-7772001D01*
X14406386Y-7795130D01*
X14406387Y-7795131D01*
X14412084Y-7817630D01*
X14421407Y-7838885D01*
X14434102Y-7858315D01*
X14434102Y-7858315D01*
X14434102Y-7858315D01*
X14449822Y-7875391D01*
X14449822Y-7875391D01*
X14449822Y-7875392D01*
X14468136Y-7889646D01*
X14468137Y-7889647D01*
X14468137Y-7889647D01*
X14484886Y-7898711D01*
X14486616Y-7899647D01*
X14488550Y-7900694D01*
X14499949Y-7904607D01*
X14510501Y-7908230D01*
X14510502Y-7908230D01*
X14510502Y-7908230D01*
X14533395Y-7912050D01*
X14533395Y-7912050D01*
X14556605Y-7912050D01*
X14556605Y-7912050D01*
X14579498Y-7908230D01*
X14601450Y-7900694D01*
X14621863Y-7889647D01*
X14640178Y-7875391D01*
X14655898Y-7858315D01*
X14668592Y-7838885D01*
X14677916Y-7817630D01*
X14683613Y-7795130D01*
X14683751Y-7793469D01*
X14685530Y-7772001D01*
X15704470Y-7772001D01*
X15706386Y-7795130D01*
X15706387Y-7795131D01*
X15712084Y-7817630D01*
X15721407Y-7838885D01*
X15734102Y-7858315D01*
X15734102Y-7858315D01*
X15734102Y-7858315D01*
X15749822Y-7875391D01*
X15749822Y-7875391D01*
X15749822Y-7875392D01*
X15768136Y-7889646D01*
X15768137Y-7889647D01*
X15768137Y-7889647D01*
X15784886Y-7898711D01*
X15786616Y-7899647D01*
X15788550Y-7900694D01*
X15799949Y-7904607D01*
X15810501Y-7908230D01*
X15810502Y-7908230D01*
X15810502Y-7908230D01*
X15833395Y-7912050D01*
X15833395Y-7912050D01*
X15856605Y-7912050D01*
X15856605Y-7912050D01*
X15879498Y-7908230D01*
X15901450Y-7900694D01*
X15921863Y-7889647D01*
X15940178Y-7875391D01*
X15955898Y-7858315D01*
X15968592Y-7838885D01*
X15977916Y-7817630D01*
X15983613Y-7795130D01*
X15983751Y-7793469D01*
X15984701Y-7782001D01*
X16890470Y-7782001D01*
X16892386Y-7805130D01*
X16892387Y-7805131D01*
X16898084Y-7827630D01*
X16907408Y-7848885D01*
X16920102Y-7868315D01*
X16920102Y-7868315D01*
X16920102Y-7868315D01*
X16935822Y-7885391D01*
X16935822Y-7885391D01*
X16935822Y-7885392D01*
X16954137Y-7899646D01*
X16954137Y-7899647D01*
X16954137Y-7899647D01*
X16974550Y-7910694D01*
X16978501Y-7912050D01*
X16996502Y-7918230D01*
X16996502Y-7918230D01*
X16996502Y-7918230D01*
X17019395Y-7922050D01*
X17019395Y-7922050D01*
X17042605Y-7922050D01*
X17042605Y-7922050D01*
X17065498Y-7918230D01*
X17087450Y-7910694D01*
X17107863Y-7899647D01*
X17126178Y-7885391D01*
X17141898Y-7868315D01*
X17154592Y-7848885D01*
X17163916Y-7827630D01*
X17169613Y-7805130D01*
X17169627Y-7804962D01*
X17171530Y-7782001D01*
X18190470Y-7782001D01*
X18192386Y-7805130D01*
X18192387Y-7805131D01*
X18198084Y-7827630D01*
X18207408Y-7848885D01*
X18220102Y-7868315D01*
X18220102Y-7868315D01*
X18220102Y-7868315D01*
X18235822Y-7885391D01*
X18235822Y-7885391D01*
X18235822Y-7885392D01*
X18254137Y-7899646D01*
X18254137Y-7899647D01*
X18254137Y-7899647D01*
X18274550Y-7910694D01*
X18278501Y-7912050D01*
X18296502Y-7918230D01*
X18296502Y-7918230D01*
X18296502Y-7918230D01*
X18319395Y-7922050D01*
X18319395Y-7922050D01*
X18342605Y-7922050D01*
X18342605Y-7922050D01*
X18365498Y-7918230D01*
X18387450Y-7910694D01*
X18407863Y-7899647D01*
X18426178Y-7885391D01*
X18441898Y-7868315D01*
X18454592Y-7848885D01*
X18463916Y-7827630D01*
X18469613Y-7805130D01*
X18469627Y-7804962D01*
X18471530Y-7782001D01*
X18471530Y-7781999D01*
X18470987Y-7775448D01*
X18714450Y-7775448D01*
X18715797Y-7783955D01*
X18715950Y-7785894D01*
X18715950Y-8060876D01*
X18715897Y-8062020D01*
X18715436Y-8067000D01*
X18715436Y-8067000D01*
X18715897Y-8071979D01*
X18715950Y-8073123D01*
X18715950Y-8076448D01*
X18716758Y-8081547D01*
X18716857Y-8082342D01*
X18717489Y-8089153D01*
X18717489Y-8089154D01*
X18718353Y-8092193D01*
X18718674Y-8093646D01*
X18718906Y-8095111D01*
X18721069Y-8101770D01*
X18721203Y-8102208D01*
X18723577Y-8110553D01*
X18723577Y-8110553D01*
X18723577Y-8110553D01*
X18724164Y-8111731D01*
X18724537Y-8112642D01*
X18724559Y-8112633D01*
X18724745Y-8113083D01*
X18728760Y-8120962D01*
X18728811Y-8121064D01*
X18733494Y-8130468D01*
X18733494Y-8130469D01*
X18739461Y-8138370D01*
X18739594Y-8138550D01*
X18744431Y-8145207D01*
X18744431Y-8145207D01*
X18744611Y-8145387D01*
X18745738Y-8146682D01*
X18746902Y-8148224D01*
X18752864Y-8153659D01*
X18753276Y-8154052D01*
X18757792Y-8158568D01*
X18757793Y-8158569D01*
X18759490Y-8159802D01*
X18760555Y-8160670D01*
X18763344Y-8163212D01*
X18768639Y-8166491D01*
X18769398Y-8167001D01*
X18773080Y-8169676D01*
X18776589Y-8171464D01*
X18777487Y-8171969D01*
X18782260Y-8174925D01*
X18786335Y-8176503D01*
X18786351Y-8176509D01*
X18787501Y-8177023D01*
X18789917Y-8178255D01*
X18795411Y-8180040D01*
X18796057Y-8180270D01*
X18803006Y-8182962D01*
X18803006Y-8182962D01*
X18803006Y-8182962D01*
X18805508Y-8183429D01*
X18807061Y-8183825D01*
X18807888Y-8184094D01*
X18811902Y-8184730D01*
X18815411Y-8185285D01*
X18815748Y-8185344D01*
X18824876Y-8187050D01*
X18824876Y-8187050D01*
X18847124Y-8187050D01*
X18847124Y-8187050D01*
X18856254Y-8185343D01*
X18856586Y-8185286D01*
X18864112Y-8184094D01*
X18864940Y-8183825D01*
X18866492Y-8183429D01*
X18868994Y-8182962D01*
X18875032Y-8180623D01*
X18875942Y-8180270D01*
X18876589Y-8180040D01*
X18882083Y-8178255D01*
X18884501Y-8177023D01*
X18885649Y-8176509D01*
X18889740Y-8174925D01*
X18894514Y-8171969D01*
X18895410Y-8171464D01*
X18898920Y-8169676D01*
X18902604Y-8166999D01*
X18903361Y-8166491D01*
X18908656Y-8163212D01*
X18911446Y-8160669D01*
X18912510Y-8159802D01*
X18914207Y-8158569D01*
X18918727Y-8154049D01*
X18919137Y-8153657D01*
X18919139Y-8153656D01*
X18925098Y-8148224D01*
X18926262Y-8146682D01*
X18927388Y-8145388D01*
X18927569Y-8145207D01*
X18932407Y-8138548D01*
X18932538Y-8138371D01*
X18933702Y-8136830D01*
X18938506Y-8130469D01*
X18943197Y-8121048D01*
X18943240Y-8120962D01*
X18947255Y-8113083D01*
X18947255Y-8113082D01*
X18947441Y-8112633D01*
X18947464Y-8112642D01*
X18947837Y-8111729D01*
X18948423Y-8110553D01*
X18950798Y-8102205D01*
X18950931Y-8101769D01*
X18953094Y-8095113D01*
X18953094Y-8095112D01*
X18953326Y-8093646D01*
X18953647Y-8092193D01*
X18954512Y-8089154D01*
X18955143Y-8082341D01*
X18955242Y-8081551D01*
X18956050Y-8076448D01*
X18956050Y-8073123D01*
X18956103Y-8071979D01*
X18956564Y-8067000D01*
X18956564Y-8067000D01*
X18956103Y-8062020D01*
X18956050Y-8060876D01*
X18956050Y-7758051D01*
X18954703Y-7749545D01*
X18954550Y-7747605D01*
X18954550Y-7602362D01*
X18956519Y-7595659D01*
X18958182Y-7593594D01*
X18996094Y-7555682D01*
X19002227Y-7552333D01*
X19004863Y-7552050D01*
X19196050Y-7552050D01*
X19202754Y-7554018D01*
X19207329Y-7559299D01*
X19208450Y-7564450D01*
X19208450Y-7606449D01*
X19211406Y-7625112D01*
X19217245Y-7643084D01*
X19225220Y-7658735D01*
X19225824Y-7659920D01*
X19236931Y-7675207D01*
X19250293Y-7688569D01*
X19265580Y-7699676D01*
X19273535Y-7703729D01*
X19282416Y-7708254D01*
X19282417Y-7708254D01*
X19282417Y-7708255D01*
X19292050Y-7711385D01*
X19300388Y-7714094D01*
X19319051Y-7717050D01*
X19319052Y-7717050D01*
X19337949Y-7717050D01*
X19356612Y-7714094D01*
X19357600Y-7713773D01*
X19374583Y-7708255D01*
X19391420Y-7699676D01*
X19406707Y-7688569D01*
X19420569Y-7674707D01*
X19431676Y-7659420D01*
X19440255Y-7642583D01*
X19446094Y-7624612D01*
X19446508Y-7622000D01*
X19514750Y-7622000D01*
X19514750Y-7664499D01*
X19515799Y-7674770D01*
X19521314Y-7691412D01*
X19521314Y-7691412D01*
X19530518Y-7706334D01*
X19542915Y-7718731D01*
X19557838Y-7727936D01*
X19557838Y-7727936D01*
X19574480Y-7733450D01*
X19574481Y-7733451D01*
X19584752Y-7734500D01*
X19596000Y-7734500D01*
X19596000Y-7734500D01*
X19596000Y-7622000D01*
X19646000Y-7622000D01*
X19646000Y-7734500D01*
X19657247Y-7734500D01*
X19657249Y-7734500D01*
X19667520Y-7733450D01*
X19684162Y-7727936D01*
X19684162Y-7727936D01*
X19699085Y-7718731D01*
X19711482Y-7706334D01*
X19720686Y-7691412D01*
X19720686Y-7691412D01*
X19726201Y-7674770D01*
X19726201Y-7674769D01*
X19727250Y-7664499D01*
X19727250Y-7664497D01*
X19727250Y-7622000D01*
X19646000Y-7622000D01*
X19596000Y-7622000D01*
X19514750Y-7622000D01*
X19446508Y-7622000D01*
X19447408Y-7616317D01*
X19449050Y-7605949D01*
X19449050Y-7572000D01*
X19514750Y-7572000D01*
X19596000Y-7572000D01*
X19646000Y-7572000D01*
X19727250Y-7572000D01*
X19727250Y-7529503D01*
X19727250Y-7529501D01*
X19726201Y-7519230D01*
X19720686Y-7502588D01*
X19720686Y-7502587D01*
X19711482Y-7487665D01*
X19699084Y-7475268D01*
X19696403Y-7473615D01*
X19691731Y-7468420D01*
X19690609Y-7461524D01*
X19693393Y-7455115D01*
X19696403Y-7452507D01*
X19703334Y-7448232D01*
X19715732Y-7435834D01*
X19724936Y-7420912D01*
X19724936Y-7420912D01*
X19730451Y-7404270D01*
X19730451Y-7404269D01*
X19731500Y-7393999D01*
X19731500Y-7393997D01*
X19731500Y-7349000D01*
X19649000Y-7349000D01*
X19649000Y-7460164D01*
X19647032Y-7466868D01*
X19646000Y-7468148D01*
X19646000Y-7572000D01*
X19596000Y-7572000D01*
X19596000Y-7463336D01*
X19597969Y-7456632D01*
X19599000Y-7455352D01*
X19599000Y-7349000D01*
X19516500Y-7349000D01*
X19516500Y-7393999D01*
X19517549Y-7404270D01*
X19523064Y-7420912D01*
X19523064Y-7420912D01*
X19532268Y-7435834D01*
X19544666Y-7448232D01*
X19548597Y-7450656D01*
X19553269Y-7455851D01*
X19554391Y-7462747D01*
X19551607Y-7469155D01*
X19548597Y-7471764D01*
X19542916Y-7475268D01*
X19530518Y-7487665D01*
X19521314Y-7502587D01*
X19521314Y-7502588D01*
X19515799Y-7519230D01*
X19515799Y-7519231D01*
X19514750Y-7529501D01*
X19514750Y-7572000D01*
X19449050Y-7572000D01*
X19449050Y-7314551D01*
X19446587Y-7299000D01*
X19516500Y-7299000D01*
X19599000Y-7299000D01*
X19599000Y-7184000D01*
X19649000Y-7184000D01*
X19649000Y-7299000D01*
X19731500Y-7299000D01*
X19731500Y-7254003D01*
X19731500Y-7254001D01*
X19730451Y-7243730D01*
X19724936Y-7227088D01*
X19724936Y-7227087D01*
X19715732Y-7212165D01*
X19703335Y-7199768D01*
X19688412Y-7190564D01*
X19688412Y-7190564D01*
X19671770Y-7185049D01*
X19671769Y-7185049D01*
X19661499Y-7184000D01*
X19649000Y-7184000D01*
X19599000Y-7184000D01*
X19586503Y-7184000D01*
X19586501Y-7184000D01*
X19576230Y-7185049D01*
X19559588Y-7190564D01*
X19559588Y-7190564D01*
X19544665Y-7199768D01*
X19532268Y-7212165D01*
X19523064Y-7227087D01*
X19523064Y-7227088D01*
X19517549Y-7243730D01*
X19517549Y-7243731D01*
X19516500Y-7254001D01*
X19516500Y-7299000D01*
X19446587Y-7299000D01*
X19446094Y-7295888D01*
X19440255Y-7277916D01*
X19433521Y-7264701D01*
X19431676Y-7261080D01*
X19420569Y-7245793D01*
X19407207Y-7232431D01*
X19391920Y-7221324D01*
X19388719Y-7219693D01*
X19375084Y-7212745D01*
X19357112Y-7206906D01*
X19338449Y-7203950D01*
X19338448Y-7203950D01*
X19319552Y-7203950D01*
X19319551Y-7203950D01*
X19300888Y-7206906D01*
X19282916Y-7212745D01*
X19266080Y-7221324D01*
X19259713Y-7225950D01*
X19250793Y-7232431D01*
X19250793Y-7232431D01*
X19250792Y-7232431D01*
X19237431Y-7245792D01*
X19237431Y-7245792D01*
X19237431Y-7245793D01*
X19235571Y-7248353D01*
X19226324Y-7261080D01*
X19217745Y-7277916D01*
X19211906Y-7295888D01*
X19211906Y-7295888D01*
X19211019Y-7301490D01*
X19208026Y-7307803D01*
X19202095Y-7311496D01*
X19198772Y-7311950D01*
X18940551Y-7311950D01*
X18921888Y-7314906D01*
X18903916Y-7320745D01*
X18887080Y-7329324D01*
X18880746Y-7333926D01*
X18871793Y-7340431D01*
X18871793Y-7340431D01*
X18871792Y-7340431D01*
X18742931Y-7469292D01*
X18737731Y-7476450D01*
X18737731Y-7476450D01*
X18731824Y-7484580D01*
X18723245Y-7501416D01*
X18717406Y-7519388D01*
X18714450Y-7538051D01*
X18714450Y-7775448D01*
X18470987Y-7775448D01*
X18469614Y-7758870D01*
X18469613Y-7758869D01*
X18463916Y-7736370D01*
X18454592Y-7715115D01*
X18441898Y-7695685D01*
X18441898Y-7695685D01*
X18441898Y-7695685D01*
X18426178Y-7678609D01*
X18426178Y-7678608D01*
X18426178Y-7678608D01*
X18407863Y-7664353D01*
X18407863Y-7664353D01*
X18387450Y-7653306D01*
X18387450Y-7653306D01*
X18365498Y-7645770D01*
X18348328Y-7642905D01*
X18342605Y-7641950D01*
X18319395Y-7641950D01*
X18314816Y-7642714D01*
X18296502Y-7645770D01*
X18274550Y-7653306D01*
X18274550Y-7653306D01*
X18254137Y-7664353D01*
X18254137Y-7664353D01*
X18235822Y-7678608D01*
X18235822Y-7678608D01*
X18220102Y-7695685D01*
X18207408Y-7715115D01*
X18198084Y-7736370D01*
X18192387Y-7758869D01*
X18192386Y-7758870D01*
X18190470Y-7781999D01*
X18190470Y-7782001D01*
X17171530Y-7782001D01*
X17171530Y-7781999D01*
X17169614Y-7758870D01*
X17169613Y-7758869D01*
X17163916Y-7736370D01*
X17154592Y-7715115D01*
X17141898Y-7695685D01*
X17141898Y-7695685D01*
X17141898Y-7695685D01*
X17126178Y-7678609D01*
X17126178Y-7678608D01*
X17126178Y-7678608D01*
X17107863Y-7664353D01*
X17107863Y-7664353D01*
X17087450Y-7653306D01*
X17087450Y-7653306D01*
X17065498Y-7645770D01*
X17048328Y-7642905D01*
X17042605Y-7641950D01*
X17019395Y-7641950D01*
X17014816Y-7642714D01*
X16996502Y-7645770D01*
X16974550Y-7653306D01*
X16974550Y-7653306D01*
X16954137Y-7664353D01*
X16954137Y-7664353D01*
X16935822Y-7678608D01*
X16935822Y-7678608D01*
X16920102Y-7695685D01*
X16907408Y-7715115D01*
X16898084Y-7736370D01*
X16892387Y-7758869D01*
X16892386Y-7758870D01*
X16890470Y-7781999D01*
X16890470Y-7782001D01*
X15984701Y-7782001D01*
X15985530Y-7772001D01*
X15985530Y-7771999D01*
X15983613Y-7748870D01*
X15983613Y-7748869D01*
X15977916Y-7726370D01*
X15968592Y-7705115D01*
X15955898Y-7685685D01*
X15955898Y-7685685D01*
X15955898Y-7685685D01*
X15940178Y-7668609D01*
X15940178Y-7668608D01*
X15940178Y-7668608D01*
X15921863Y-7654353D01*
X15921863Y-7654353D01*
X15901450Y-7643306D01*
X15901449Y-7643306D01*
X15879498Y-7635770D01*
X15862328Y-7632905D01*
X15856605Y-7631950D01*
X15833395Y-7631950D01*
X15828816Y-7632714D01*
X15810501Y-7635770D01*
X15788550Y-7643306D01*
X15788549Y-7643306D01*
X15768137Y-7654353D01*
X15768136Y-7654353D01*
X15749822Y-7668608D01*
X15749822Y-7668608D01*
X15749822Y-7668609D01*
X15749822Y-7668609D01*
X15747358Y-7671285D01*
X15734102Y-7685685D01*
X15721407Y-7705115D01*
X15712084Y-7726370D01*
X15706387Y-7748869D01*
X15706386Y-7748870D01*
X15704470Y-7771999D01*
X15704470Y-7772001D01*
X14685530Y-7772001D01*
X14685530Y-7771999D01*
X14683613Y-7748870D01*
X14683613Y-7748869D01*
X14677916Y-7726370D01*
X14668592Y-7705115D01*
X14655898Y-7685685D01*
X14655898Y-7685685D01*
X14655898Y-7685685D01*
X14640178Y-7668609D01*
X14640178Y-7668608D01*
X14640178Y-7668608D01*
X14621863Y-7654353D01*
X14621863Y-7654353D01*
X14601450Y-7643306D01*
X14601449Y-7643306D01*
X14579498Y-7635770D01*
X14562328Y-7632905D01*
X14556605Y-7631950D01*
X14533395Y-7631950D01*
X14528816Y-7632714D01*
X14510501Y-7635770D01*
X14488550Y-7643306D01*
X14488549Y-7643306D01*
X14468137Y-7654353D01*
X14468136Y-7654353D01*
X14449822Y-7668608D01*
X14449822Y-7668608D01*
X14449822Y-7668609D01*
X14449822Y-7668609D01*
X14447358Y-7671285D01*
X14434102Y-7685685D01*
X14421407Y-7705115D01*
X14412084Y-7726370D01*
X14406387Y-7748869D01*
X14406386Y-7748870D01*
X14404470Y-7771999D01*
X14404470Y-7772001D01*
X13069949Y-7772001D01*
X13077373Y-7760637D01*
X13087359Y-7737872D01*
X13093461Y-7713774D01*
X13093461Y-7713773D01*
X13095514Y-7689000D01*
X13095514Y-7688999D01*
X13093461Y-7664227D01*
X13093461Y-7664226D01*
X13087359Y-7640128D01*
X13077373Y-7617363D01*
X13067343Y-7602012D01*
X12993296Y-7676059D01*
X12991592Y-7669701D01*
X12985010Y-7658299D01*
X12975701Y-7648990D01*
X12964299Y-7642407D01*
X12957941Y-7640704D01*
X13032006Y-7566639D01*
X13032006Y-7566639D01*
X13027323Y-7562994D01*
X13005461Y-7551163D01*
X13005460Y-7551163D01*
X12981949Y-7543092D01*
X12957429Y-7539000D01*
X12932571Y-7539000D01*
X12908051Y-7543092D01*
X12884540Y-7551163D01*
X12884539Y-7551163D01*
X12862676Y-7562995D01*
X12857994Y-7566639D01*
X12857994Y-7566639D01*
X12932059Y-7640704D01*
X12925701Y-7642407D01*
X12914299Y-7648990D01*
X12904990Y-7658299D01*
X12898407Y-7669701D01*
X12896704Y-7676059D01*
X12822656Y-7602012D01*
X12812627Y-7617363D01*
X12802641Y-7640128D01*
X12796539Y-7664226D01*
X12796538Y-7664227D01*
X12794486Y-7688999D01*
X12794486Y-7689000D01*
X12724050Y-7689000D01*
X12724050Y-7604198D01*
X12723765Y-7601155D01*
X12723765Y-7601155D01*
X12719279Y-7588337D01*
X12719279Y-7588337D01*
X12718331Y-7587052D01*
X12711215Y-7577410D01*
X12700288Y-7569346D01*
X12700288Y-7569346D01*
X12687470Y-7564860D01*
X12684427Y-7564575D01*
X12684427Y-7564575D01*
X12611073Y-7564575D01*
X12611073Y-7564575D01*
X12608030Y-7564860D01*
X12608030Y-7564860D01*
X12595212Y-7569346D01*
X12595212Y-7569346D01*
X12584285Y-7577410D01*
X12576221Y-7588337D01*
X12576221Y-7588337D01*
X12571735Y-7601155D01*
X12571735Y-7601155D01*
X12571450Y-7604198D01*
X12571450Y-7740052D01*
X12456876Y-7740052D01*
X12457426Y-7739295D01*
X12466005Y-7722458D01*
X12471844Y-7704487D01*
X12474800Y-7685824D01*
X12474800Y-7475824D01*
X12476768Y-7469120D01*
X12482049Y-7464544D01*
X12486228Y-7463462D01*
X12486697Y-7463425D01*
X12486698Y-7463425D01*
X12486699Y-7463425D01*
X12486699Y-7463425D01*
X12505362Y-7460469D01*
X12506301Y-7460164D01*
X12523333Y-7454630D01*
X12540170Y-7446051D01*
X12555457Y-7434944D01*
X12568819Y-7421582D01*
X12579926Y-7406295D01*
X12588505Y-7389458D01*
X12594344Y-7371487D01*
X12595213Y-7366001D01*
X12596955Y-7355000D01*
X13135466Y-7355000D01*
X13137397Y-7374613D01*
X13137398Y-7374613D01*
X13142492Y-7391408D01*
X13143119Y-7393473D01*
X13152409Y-7410853D01*
X13152409Y-7410854D01*
X13164912Y-7426088D01*
X13180146Y-7438591D01*
X13180147Y-7438591D01*
X13197527Y-7447881D01*
X13197527Y-7447881D01*
X13197527Y-7447881D01*
X13216387Y-7453602D01*
X13236000Y-7455534D01*
X13255613Y-7453602D01*
X13274473Y-7447881D01*
X13277897Y-7446051D01*
X13291853Y-7438591D01*
X13291854Y-7438591D01*
X13307088Y-7426088D01*
X13319591Y-7410854D01*
X13328881Y-7393473D01*
X13334602Y-7374613D01*
X13335451Y-7366001D01*
X15682970Y-7366001D01*
X15684886Y-7389130D01*
X15684887Y-7389131D01*
X15690584Y-7411630D01*
X15699907Y-7432885D01*
X15712602Y-7452315D01*
X15712602Y-7452315D01*
X15712602Y-7452315D01*
X15728322Y-7469391D01*
X15728322Y-7469391D01*
X15728322Y-7469392D01*
X15746636Y-7483646D01*
X15746637Y-7483647D01*
X15746637Y-7483647D01*
X15767050Y-7494694D01*
X15778449Y-7498607D01*
X15789001Y-7502230D01*
X15789002Y-7502230D01*
X15789002Y-7502230D01*
X15811895Y-7506050D01*
X15811895Y-7506050D01*
X15835105Y-7506050D01*
X15835105Y-7506050D01*
X15857998Y-7502230D01*
X15879950Y-7494694D01*
X15900363Y-7483647D01*
X15918678Y-7469391D01*
X15934398Y-7452315D01*
X15947092Y-7432885D01*
X15956416Y-7411630D01*
X15962113Y-7389130D01*
X15962113Y-7389130D01*
X15964030Y-7366001D01*
X15964030Y-7366000D01*
X16953023Y-7366000D01*
X16954927Y-7391408D01*
X16960597Y-7416248D01*
X16960597Y-7416249D01*
X16969906Y-7439967D01*
X16969906Y-7439967D01*
X16982645Y-7462033D01*
X16982646Y-7462034D01*
X16986845Y-7467299D01*
X16986845Y-7467299D01*
X17067039Y-7387106D01*
X17067589Y-7389159D01*
X17075488Y-7402841D01*
X17086659Y-7414012D01*
X17100341Y-7421911D01*
X17102394Y-7422461D01*
X17022181Y-7502674D01*
X17038262Y-7513637D01*
X17038262Y-7513638D01*
X17061218Y-7524692D01*
X17061217Y-7524692D01*
X17085565Y-7532202D01*
X17085566Y-7532203D01*
X17110760Y-7536000D01*
X17110760Y-7536000D01*
X17136240Y-7536000D01*
X17136240Y-7536000D01*
X17161434Y-7532203D01*
X17161435Y-7532202D01*
X17185782Y-7524692D01*
X17208738Y-7513638D01*
X17208738Y-7513637D01*
X17224819Y-7502674D01*
X17144606Y-7422461D01*
X17146659Y-7421911D01*
X17160341Y-7414012D01*
X17171512Y-7402841D01*
X17179411Y-7389159D01*
X17179961Y-7387106D01*
X17260155Y-7467299D01*
X17260155Y-7467299D01*
X17264354Y-7462033D01*
X17277094Y-7439967D01*
X17286403Y-7416249D01*
X17286403Y-7416248D01*
X17292073Y-7391408D01*
X17293977Y-7366000D01*
X17293977Y-7365999D01*
X17292073Y-7340592D01*
X17286403Y-7315752D01*
X17286403Y-7315750D01*
X17277094Y-7292033D01*
X17277094Y-7292033D01*
X17264355Y-7269967D01*
X17260155Y-7264701D01*
X17179961Y-7344894D01*
X17179411Y-7342841D01*
X17171512Y-7329159D01*
X17160341Y-7317988D01*
X17146659Y-7310089D01*
X17144606Y-7309539D01*
X17224819Y-7229326D01*
X17208738Y-7218363D01*
X17208738Y-7218362D01*
X17185782Y-7207308D01*
X17185783Y-7207308D01*
X17161435Y-7199797D01*
X17161434Y-7199797D01*
X17136240Y-7196000D01*
X17110760Y-7196000D01*
X17085566Y-7199797D01*
X17085565Y-7199797D01*
X17061218Y-7207308D01*
X17038262Y-7218362D01*
X17038261Y-7218363D01*
X17022181Y-7229326D01*
X17102394Y-7309539D01*
X17100341Y-7310089D01*
X17086659Y-7317988D01*
X17075488Y-7329159D01*
X17067589Y-7342841D01*
X17067039Y-7344894D01*
X16986845Y-7264701D01*
X16982646Y-7269967D01*
X16969906Y-7292033D01*
X16960597Y-7315750D01*
X16960597Y-7315752D01*
X16954927Y-7340592D01*
X16953023Y-7365999D01*
X16953023Y-7366000D01*
X15964030Y-7366000D01*
X15964030Y-7365999D01*
X15962113Y-7342870D01*
X15962113Y-7342869D01*
X15956416Y-7320370D01*
X15947092Y-7299115D01*
X15934398Y-7279685D01*
X15934398Y-7279685D01*
X15934398Y-7279685D01*
X15918678Y-7262609D01*
X15918678Y-7262608D01*
X15918678Y-7262608D01*
X15900363Y-7248353D01*
X15900363Y-7248353D01*
X15879950Y-7237306D01*
X15879949Y-7237306D01*
X15857998Y-7229770D01*
X15840828Y-7226905D01*
X15835105Y-7225950D01*
X15811895Y-7225950D01*
X15807316Y-7226714D01*
X15789001Y-7229770D01*
X15767050Y-7237306D01*
X15767049Y-7237306D01*
X15746637Y-7248353D01*
X15746636Y-7248353D01*
X15728322Y-7262608D01*
X15728322Y-7262608D01*
X15712602Y-7279685D01*
X15699907Y-7299115D01*
X15690584Y-7320370D01*
X15684887Y-7342869D01*
X15684886Y-7342870D01*
X15682970Y-7365999D01*
X15682970Y-7366001D01*
X13335451Y-7366001D01*
X13336534Y-7355000D01*
X13334602Y-7335387D01*
X13328881Y-7316527D01*
X13328881Y-7316527D01*
X13328881Y-7316527D01*
X13319591Y-7299147D01*
X13319591Y-7299146D01*
X13307088Y-7283912D01*
X13291854Y-7271409D01*
X13291853Y-7271409D01*
X13274473Y-7262119D01*
X13274473Y-7262119D01*
X13255613Y-7256398D01*
X13255613Y-7256397D01*
X13236000Y-7254466D01*
X13216387Y-7256397D01*
X13197527Y-7262119D01*
X13180147Y-7271409D01*
X13180146Y-7271409D01*
X13164912Y-7283912D01*
X13152409Y-7299146D01*
X13152409Y-7299147D01*
X13143119Y-7316527D01*
X13137397Y-7335387D01*
X13135466Y-7355000D01*
X12596955Y-7355000D01*
X12597300Y-7352824D01*
X12597300Y-7333926D01*
X12594344Y-7315263D01*
X12589107Y-7299146D01*
X12588505Y-7297292D01*
X12588504Y-7297291D01*
X12588504Y-7297291D01*
X12581687Y-7283912D01*
X12579926Y-7280455D01*
X12568819Y-7265168D01*
X12555457Y-7251806D01*
X12540170Y-7240699D01*
X12523334Y-7232120D01*
X12505362Y-7226281D01*
X12486699Y-7223325D01*
X12486698Y-7223325D01*
X12105862Y-7223325D01*
X12099159Y-7221356D01*
X12097094Y-7219693D01*
X11968682Y-7091280D01*
X11965333Y-7085148D01*
X11965050Y-7082512D01*
X11965050Y-7079552D01*
X11965050Y-7079552D01*
X11964242Y-7074450D01*
X11964143Y-7073658D01*
X11963931Y-7071375D01*
X12079750Y-7071375D01*
X12079750Y-7082624D01*
X12080799Y-7092895D01*
X12086314Y-7109537D01*
X12086314Y-7109537D01*
X12095518Y-7124459D01*
X12107915Y-7136856D01*
X12122837Y-7146061D01*
X12122838Y-7146061D01*
X12139480Y-7151575D01*
X12139481Y-7151576D01*
X12149752Y-7152625D01*
X12192250Y-7152625D01*
X12192250Y-7152625D01*
X12192250Y-7071375D01*
X12242250Y-7071375D01*
X12242250Y-7152625D01*
X12284747Y-7152625D01*
X12284749Y-7152625D01*
X12295020Y-7151575D01*
X12311662Y-7146061D01*
X12311662Y-7146061D01*
X12326584Y-7136856D01*
X12335607Y-7127834D01*
X12341739Y-7124486D01*
X12348708Y-7124984D01*
X12353143Y-7127834D01*
X12365415Y-7140106D01*
X12380337Y-7149311D01*
X12380338Y-7149311D01*
X12396980Y-7154825D01*
X12396981Y-7154826D01*
X12407252Y-7155875D01*
X12452250Y-7155875D01*
X12452250Y-7155875D01*
X12452250Y-7073375D01*
X12502250Y-7073375D01*
X12502250Y-7155875D01*
X12547247Y-7155875D01*
X12547249Y-7155875D01*
X12557520Y-7154825D01*
X12574162Y-7149311D01*
X12574162Y-7149311D01*
X12589084Y-7140106D01*
X12601481Y-7127709D01*
X12610686Y-7112787D01*
X12610686Y-7112787D01*
X12616200Y-7096145D01*
X12616201Y-7096144D01*
X12616930Y-7089000D01*
X12824436Y-7089000D01*
X12826488Y-7111153D01*
X12826488Y-7111154D01*
X12832577Y-7132552D01*
X12832577Y-7132554D01*
X12842494Y-7152468D01*
X12842494Y-7152469D01*
X12855902Y-7170224D01*
X12872344Y-7185212D01*
X12872344Y-7185212D01*
X12891259Y-7196924D01*
X12891260Y-7196924D01*
X12891260Y-7196925D01*
X12912006Y-7204962D01*
X12933876Y-7209050D01*
X12933876Y-7209050D01*
X12956124Y-7209050D01*
X12956124Y-7209050D01*
X12977994Y-7204962D01*
X12998740Y-7196925D01*
X13017656Y-7185212D01*
X13034098Y-7170224D01*
X13047506Y-7152469D01*
X13057423Y-7132553D01*
X13063511Y-7111154D01*
X13065564Y-7089000D01*
X13064973Y-7082624D01*
X13063511Y-7066846D01*
X13063511Y-7066846D01*
X13063511Y-7066846D01*
X13057423Y-7045447D01*
X13057422Y-7045446D01*
X13047506Y-7025532D01*
X13047506Y-7025531D01*
X13034098Y-7007776D01*
X13017656Y-6992788D01*
X13017656Y-6992787D01*
X12998740Y-6981075D01*
X12998740Y-6981075D01*
X12977994Y-6973038D01*
X12956124Y-6968950D01*
X12933876Y-6968950D01*
X12912006Y-6973038D01*
X12899855Y-6977746D01*
X12891260Y-6981075D01*
X12891259Y-6981075D01*
X12872344Y-6992787D01*
X12872344Y-6992788D01*
X12855902Y-7007776D01*
X12842494Y-7025531D01*
X12842494Y-7025532D01*
X12832577Y-7045446D01*
X12832577Y-7045448D01*
X12826488Y-7066846D01*
X12826488Y-7066846D01*
X12824436Y-7089000D01*
X12824436Y-7089000D01*
X12616930Y-7089000D01*
X12617250Y-7085874D01*
X12617250Y-7085872D01*
X12617250Y-7073375D01*
X12502250Y-7073375D01*
X12452250Y-7073375D01*
X12340086Y-7073375D01*
X12333382Y-7071406D01*
X12333343Y-7071375D01*
X12242250Y-7071375D01*
X12192250Y-7071375D01*
X12079750Y-7071375D01*
X11963931Y-7071375D01*
X11963511Y-7066846D01*
X11962647Y-7063807D01*
X11962326Y-7062354D01*
X11962094Y-7060888D01*
X11961608Y-7059391D01*
X11959931Y-7054231D01*
X11959797Y-7053793D01*
X11957423Y-7045447D01*
X11957423Y-7045447D01*
X11956836Y-7044269D01*
X11956464Y-7043357D01*
X11956441Y-7043367D01*
X11956255Y-7042917D01*
X11956255Y-7042917D01*
X11952236Y-7035030D01*
X11952196Y-7034951D01*
X11947506Y-7025531D01*
X11944367Y-7021375D01*
X12079750Y-7021375D01*
X12192250Y-7021375D01*
X12192250Y-6940125D01*
X12242250Y-6940125D01*
X12242250Y-7021375D01*
X12351914Y-7021375D01*
X12358618Y-7023343D01*
X12358657Y-7023375D01*
X12452250Y-7023375D01*
X12452250Y-6940875D01*
X12502250Y-6940875D01*
X12502250Y-7023375D01*
X12617250Y-7023375D01*
X12617250Y-7010878D01*
X12617250Y-7010876D01*
X12616200Y-7000605D01*
X12610686Y-6983963D01*
X12610686Y-6983962D01*
X12601481Y-6969040D01*
X12589084Y-6956643D01*
X12588042Y-6956001D01*
X14383470Y-6956001D01*
X14385386Y-6979130D01*
X14385387Y-6979131D01*
X14391084Y-7001630D01*
X14400407Y-7022885D01*
X14413102Y-7042315D01*
X14413102Y-7042315D01*
X14413102Y-7042315D01*
X14428822Y-7059391D01*
X14428822Y-7059391D01*
X14428822Y-7059392D01*
X14447136Y-7073646D01*
X14447137Y-7073647D01*
X14447137Y-7073647D01*
X14467550Y-7084694D01*
X14474414Y-7087050D01*
X14489501Y-7092230D01*
X14489502Y-7092230D01*
X14489502Y-7092230D01*
X14512395Y-7096050D01*
X14512395Y-7096050D01*
X14535605Y-7096050D01*
X14535605Y-7096050D01*
X14558498Y-7092230D01*
X14580450Y-7084694D01*
X14600863Y-7073647D01*
X14619178Y-7059391D01*
X14634898Y-7042315D01*
X14647592Y-7022885D01*
X14656916Y-7001630D01*
X14662613Y-6979130D01*
X14662613Y-6979130D01*
X14664530Y-6956001D01*
X15683470Y-6956001D01*
X15685386Y-6979130D01*
X15685387Y-6979131D01*
X15691084Y-7001630D01*
X15700407Y-7022885D01*
X15713102Y-7042315D01*
X15713102Y-7042315D01*
X15713102Y-7042315D01*
X15728822Y-7059391D01*
X15728822Y-7059391D01*
X15728822Y-7059392D01*
X15747136Y-7073646D01*
X15747137Y-7073647D01*
X15747137Y-7073647D01*
X15767550Y-7084694D01*
X15774414Y-7087050D01*
X15789501Y-7092230D01*
X15789502Y-7092230D01*
X15789502Y-7092230D01*
X15812395Y-7096050D01*
X15812395Y-7096050D01*
X15835605Y-7096050D01*
X15835605Y-7096050D01*
X15858498Y-7092230D01*
X15880450Y-7084694D01*
X15900863Y-7073647D01*
X15919178Y-7059391D01*
X15934898Y-7042315D01*
X15947592Y-7022885D01*
X15956916Y-7001630D01*
X15962613Y-6979130D01*
X15962613Y-6979130D01*
X15964530Y-6956001D01*
X15964530Y-6955999D01*
X15964116Y-6951001D01*
X16889470Y-6951001D01*
X16891386Y-6974130D01*
X16891387Y-6974131D01*
X16897084Y-6996630D01*
X16906408Y-7017885D01*
X16919102Y-7037315D01*
X16919102Y-7037315D01*
X16919102Y-7037315D01*
X16934822Y-7054391D01*
X16934822Y-7054391D01*
X16934822Y-7054392D01*
X16953137Y-7068646D01*
X16953137Y-7068647D01*
X16953137Y-7068647D01*
X16963863Y-7074451D01*
X16973288Y-7079552D01*
X16973550Y-7079694D01*
X16984491Y-7083450D01*
X16995502Y-7087230D01*
X16995502Y-7087230D01*
X16995502Y-7087230D01*
X17018395Y-7091050D01*
X17018395Y-7091050D01*
X17041605Y-7091050D01*
X17041605Y-7091050D01*
X17064498Y-7087230D01*
X17086450Y-7079694D01*
X17106863Y-7068647D01*
X17109176Y-7066847D01*
X17116831Y-7060889D01*
X17125178Y-7054391D01*
X17140898Y-7037315D01*
X17153592Y-7017885D01*
X17162916Y-6996630D01*
X17168613Y-6974130D01*
X17168704Y-6973038D01*
X17170530Y-6951001D01*
X18189470Y-6951001D01*
X18191386Y-6974130D01*
X18191387Y-6974131D01*
X18197084Y-6996630D01*
X18206408Y-7017885D01*
X18219102Y-7037315D01*
X18219102Y-7037315D01*
X18219102Y-7037315D01*
X18234822Y-7054391D01*
X18234822Y-7054391D01*
X18234822Y-7054392D01*
X18253137Y-7068646D01*
X18253137Y-7068647D01*
X18253137Y-7068647D01*
X18263863Y-7074451D01*
X18273288Y-7079552D01*
X18273550Y-7079694D01*
X18284491Y-7083450D01*
X18295502Y-7087230D01*
X18295502Y-7087230D01*
X18295502Y-7087230D01*
X18318395Y-7091050D01*
X18318395Y-7091050D01*
X18341605Y-7091050D01*
X18341605Y-7091050D01*
X18364498Y-7087230D01*
X18386450Y-7079694D01*
X18406863Y-7068647D01*
X18409176Y-7066847D01*
X18416831Y-7060889D01*
X18425178Y-7054391D01*
X18440898Y-7037315D01*
X18453592Y-7017885D01*
X18462916Y-6996630D01*
X18468613Y-6974130D01*
X18468704Y-6973038D01*
X18469204Y-6967000D01*
X18715436Y-6967000D01*
X18717488Y-6989153D01*
X18717489Y-6989154D01*
X18723577Y-7010552D01*
X18723578Y-7010554D01*
X18733494Y-7030468D01*
X18733494Y-7030469D01*
X18746902Y-7048224D01*
X18760794Y-7060888D01*
X18763210Y-7063090D01*
X18763344Y-7063212D01*
X18763344Y-7063212D01*
X18782260Y-7074924D01*
X18782260Y-7074924D01*
X18782260Y-7074925D01*
X18803006Y-7082962D01*
X18824876Y-7087050D01*
X18824876Y-7087050D01*
X18847124Y-7087050D01*
X18847124Y-7087050D01*
X18868994Y-7082962D01*
X18889740Y-7074925D01*
X18908656Y-7063212D01*
X18925098Y-7048224D01*
X18938506Y-7030469D01*
X18948423Y-7010553D01*
X18954512Y-6989154D01*
X18956564Y-6967000D01*
X19285486Y-6967000D01*
X19287539Y-6991773D01*
X19287539Y-6991774D01*
X19293641Y-7015872D01*
X19303627Y-7038636D01*
X19313656Y-7053988D01*
X19387704Y-6979941D01*
X19389408Y-6986299D01*
X19395990Y-6997701D01*
X19405299Y-7007010D01*
X19416701Y-7013592D01*
X19423059Y-7015296D01*
X19348994Y-7089361D01*
X19353677Y-7093005D01*
X19353677Y-7093006D01*
X19375539Y-7104836D01*
X19375540Y-7104837D01*
X19399051Y-7112908D01*
X19423571Y-7117000D01*
X19448429Y-7117000D01*
X19472949Y-7112908D01*
X19496460Y-7104837D01*
X19496461Y-7104836D01*
X19518323Y-7093006D01*
X19518323Y-7093005D01*
X19523006Y-7089361D01*
X19448941Y-7015296D01*
X19455299Y-7013592D01*
X19466701Y-7007010D01*
X19476010Y-6997701D01*
X19482593Y-6986299D01*
X19484296Y-6979941D01*
X19558343Y-7053988D01*
X19568373Y-7038637D01*
X19578359Y-7015872D01*
X19584461Y-6991774D01*
X19584461Y-6991773D01*
X19586514Y-6967000D01*
X19586514Y-6966999D01*
X19584461Y-6942227D01*
X19584461Y-6942226D01*
X19578359Y-6918128D01*
X19568373Y-6895363D01*
X19558343Y-6880012D01*
X19484296Y-6954059D01*
X19482593Y-6947701D01*
X19476010Y-6936299D01*
X19466701Y-6926990D01*
X19455299Y-6920407D01*
X19448941Y-6918704D01*
X19523006Y-6844639D01*
X19523006Y-6844639D01*
X19518323Y-6840994D01*
X19496461Y-6829163D01*
X19496460Y-6829163D01*
X19472949Y-6821092D01*
X19448429Y-6817000D01*
X19423571Y-6817000D01*
X19399051Y-6821092D01*
X19375540Y-6829163D01*
X19375539Y-6829163D01*
X19353676Y-6840995D01*
X19348994Y-6844639D01*
X19348994Y-6844639D01*
X19423059Y-6918704D01*
X19416701Y-6920407D01*
X19405299Y-6926990D01*
X19395990Y-6936299D01*
X19389408Y-6947701D01*
X19387704Y-6954059D01*
X19313656Y-6880012D01*
X19303627Y-6895363D01*
X19293641Y-6918128D01*
X19287539Y-6942226D01*
X19287539Y-6942227D01*
X19285486Y-6966999D01*
X19285486Y-6967000D01*
X18956564Y-6967000D01*
X18956564Y-6967000D01*
X18956564Y-6966999D01*
X18954512Y-6944846D01*
X18954511Y-6944846D01*
X18953766Y-6942226D01*
X18948423Y-6923447D01*
X18946909Y-6920407D01*
X18938506Y-6903532D01*
X18938506Y-6903531D01*
X18925098Y-6885776D01*
X18908656Y-6870788D01*
X18908656Y-6870787D01*
X18889740Y-6859075D01*
X18889740Y-6859075D01*
X18868994Y-6851038D01*
X18847124Y-6846950D01*
X18824876Y-6846950D01*
X18803006Y-6851038D01*
X18789886Y-6856121D01*
X18782260Y-6859075D01*
X18782260Y-6859075D01*
X18763344Y-6870787D01*
X18763344Y-6870788D01*
X18746902Y-6885776D01*
X18733494Y-6903531D01*
X18733494Y-6903532D01*
X18723578Y-6923446D01*
X18723577Y-6923448D01*
X18717489Y-6944846D01*
X18717488Y-6944846D01*
X18715436Y-6967000D01*
X18715436Y-6967000D01*
X18469204Y-6967000D01*
X18470530Y-6951001D01*
X18470530Y-6950999D01*
X18468614Y-6927870D01*
X18468613Y-6927869D01*
X18462916Y-6905370D01*
X18453592Y-6884115D01*
X18440898Y-6864685D01*
X18440898Y-6864685D01*
X18440898Y-6864685D01*
X18425178Y-6847609D01*
X18425178Y-6847608D01*
X18425178Y-6847608D01*
X18406863Y-6833353D01*
X18406863Y-6833353D01*
X18386450Y-6822306D01*
X18386450Y-6822306D01*
X18364498Y-6814770D01*
X18347328Y-6811905D01*
X18341605Y-6810950D01*
X18318395Y-6810950D01*
X18313816Y-6811714D01*
X18295502Y-6814770D01*
X18273550Y-6822306D01*
X18273550Y-6822306D01*
X18253137Y-6833353D01*
X18253137Y-6833353D01*
X18234822Y-6847608D01*
X18234822Y-6847608D01*
X18234822Y-6847609D01*
X18234822Y-6847609D01*
X18230219Y-6852608D01*
X18219102Y-6864685D01*
X18206408Y-6884115D01*
X18197084Y-6905370D01*
X18191387Y-6927869D01*
X18191386Y-6927870D01*
X18189470Y-6950999D01*
X18189470Y-6951001D01*
X17170530Y-6951001D01*
X17170530Y-6950999D01*
X17168614Y-6927870D01*
X17168613Y-6927869D01*
X17162916Y-6905370D01*
X17153592Y-6884115D01*
X17140898Y-6864685D01*
X17140898Y-6864685D01*
X17140898Y-6864685D01*
X17125178Y-6847609D01*
X17125178Y-6847608D01*
X17125178Y-6847608D01*
X17106863Y-6833353D01*
X17106863Y-6833353D01*
X17086450Y-6822306D01*
X17086450Y-6822306D01*
X17064498Y-6814770D01*
X17047328Y-6811905D01*
X17041605Y-6810950D01*
X17018395Y-6810950D01*
X17013816Y-6811714D01*
X16995502Y-6814770D01*
X16973550Y-6822306D01*
X16973550Y-6822306D01*
X16953137Y-6833353D01*
X16953137Y-6833353D01*
X16934822Y-6847608D01*
X16934822Y-6847608D01*
X16934822Y-6847609D01*
X16934822Y-6847609D01*
X16930219Y-6852608D01*
X16919102Y-6864685D01*
X16906408Y-6884115D01*
X16897084Y-6905370D01*
X16891387Y-6927869D01*
X16891386Y-6927870D01*
X16889470Y-6950999D01*
X16889470Y-6951001D01*
X15964116Y-6951001D01*
X15962613Y-6932870D01*
X15962613Y-6932869D01*
X15956916Y-6910370D01*
X15947592Y-6889115D01*
X15934898Y-6869685D01*
X15934898Y-6869685D01*
X15934898Y-6869685D01*
X15919178Y-6852609D01*
X15919178Y-6852608D01*
X15919178Y-6852608D01*
X15900863Y-6838353D01*
X15900863Y-6838353D01*
X15880450Y-6827306D01*
X15880449Y-6827306D01*
X15858498Y-6819770D01*
X15841328Y-6816905D01*
X15835605Y-6815950D01*
X15812395Y-6815950D01*
X15807816Y-6816714D01*
X15789501Y-6819770D01*
X15767550Y-6827306D01*
X15767549Y-6827306D01*
X15747137Y-6838353D01*
X15747136Y-6838353D01*
X15728822Y-6852608D01*
X15728822Y-6852608D01*
X15713102Y-6869685D01*
X15700407Y-6889115D01*
X15691084Y-6910370D01*
X15685387Y-6932869D01*
X15685386Y-6932870D01*
X15683470Y-6955999D01*
X15683470Y-6956001D01*
X14664530Y-6956001D01*
X14664530Y-6955999D01*
X14662613Y-6932870D01*
X14662613Y-6932869D01*
X14656916Y-6910370D01*
X14647592Y-6889115D01*
X14634898Y-6869685D01*
X14634898Y-6869685D01*
X14634898Y-6869685D01*
X14619178Y-6852609D01*
X14619178Y-6852608D01*
X14619178Y-6852608D01*
X14600863Y-6838353D01*
X14600863Y-6838353D01*
X14580450Y-6827306D01*
X14580449Y-6827306D01*
X14558498Y-6819770D01*
X14541328Y-6816905D01*
X14535605Y-6815950D01*
X14512395Y-6815950D01*
X14507816Y-6816714D01*
X14489501Y-6819770D01*
X14467550Y-6827306D01*
X14467549Y-6827306D01*
X14447137Y-6838353D01*
X14447136Y-6838353D01*
X14428822Y-6852608D01*
X14428822Y-6852608D01*
X14413102Y-6869685D01*
X14400407Y-6889115D01*
X14391084Y-6910370D01*
X14385387Y-6932869D01*
X14385386Y-6932870D01*
X14383470Y-6955999D01*
X14383470Y-6956001D01*
X12588042Y-6956001D01*
X12574162Y-6947439D01*
X12574162Y-6947439D01*
X12557520Y-6941924D01*
X12557519Y-6941924D01*
X12547249Y-6940875D01*
X12502250Y-6940875D01*
X12452250Y-6940875D01*
X12407253Y-6940875D01*
X12407251Y-6940875D01*
X12396980Y-6941924D01*
X12380338Y-6947439D01*
X12380337Y-6947439D01*
X12365415Y-6956643D01*
X12355143Y-6966916D01*
X12349011Y-6970264D01*
X12342042Y-6969766D01*
X12337607Y-6966916D01*
X12326584Y-6955893D01*
X12311662Y-6946689D01*
X12311662Y-6946689D01*
X12295020Y-6941174D01*
X12295019Y-6941174D01*
X12284749Y-6940125D01*
X12242250Y-6940125D01*
X12192250Y-6940125D01*
X12149753Y-6940125D01*
X12149751Y-6940125D01*
X12139480Y-6941174D01*
X12122838Y-6946689D01*
X12122837Y-6946689D01*
X12107915Y-6955893D01*
X12095518Y-6968290D01*
X12086314Y-6983212D01*
X12086314Y-6983213D01*
X12080799Y-6999855D01*
X12080799Y-6999856D01*
X12079750Y-7010126D01*
X12079750Y-7021375D01*
X11944367Y-7021375D01*
X11941538Y-7017629D01*
X11941403Y-7017446D01*
X11941079Y-7017000D01*
X11938603Y-7013592D01*
X11936569Y-7010793D01*
X11936389Y-7010613D01*
X11935262Y-7009317D01*
X11934098Y-7007776D01*
X11934098Y-7007776D01*
X11934097Y-7007776D01*
X11928138Y-7002343D01*
X11927724Y-7001948D01*
X11923208Y-6997431D01*
X11923208Y-6997431D01*
X11922908Y-6997214D01*
X11921509Y-6996197D01*
X11920446Y-6995331D01*
X11917656Y-6992788D01*
X11912362Y-6989509D01*
X11911602Y-6988999D01*
X11910084Y-6987896D01*
X11907920Y-6986324D01*
X11907919Y-6986323D01*
X11907919Y-6986323D01*
X11904410Y-6984536D01*
X11903512Y-6984030D01*
X11898740Y-6981075D01*
X11898740Y-6981075D01*
X11894650Y-6979491D01*
X11893500Y-6978976D01*
X11891083Y-6977745D01*
X11891082Y-6977745D01*
X11885589Y-6975960D01*
X11884941Y-6975730D01*
X11877994Y-6973038D01*
X11877994Y-6973038D01*
X11877994Y-6973038D01*
X11877993Y-6973038D01*
X11875492Y-6972570D01*
X11873939Y-6972175D01*
X11873112Y-6971906D01*
X11873112Y-6971906D01*
X11871571Y-6971662D01*
X11865594Y-6970715D01*
X11865256Y-6970657D01*
X11857932Y-6969288D01*
X11856124Y-6968950D01*
X11833876Y-6968950D01*
X11824744Y-6970657D01*
X11824405Y-6970715D01*
X11816888Y-6971906D01*
X11816887Y-6971906D01*
X11816060Y-6972175D01*
X11814508Y-6972570D01*
X11812006Y-6973038D01*
X11812006Y-6973038D01*
X11805057Y-6975730D01*
X11804410Y-6975960D01*
X11798918Y-6977745D01*
X11798916Y-6977746D01*
X11796500Y-6978977D01*
X11795350Y-6979490D01*
X11791260Y-6981075D01*
X11791260Y-6981075D01*
X11786487Y-6984030D01*
X11785589Y-6984536D01*
X11782080Y-6986324D01*
X11778399Y-6988999D01*
X11777638Y-6989509D01*
X11772343Y-6992788D01*
X11769555Y-6995330D01*
X11768490Y-6996197D01*
X11766792Y-6997431D01*
X11762275Y-7001948D01*
X11761861Y-7002343D01*
X11755902Y-7007776D01*
X11755902Y-7007776D01*
X11754738Y-7009318D01*
X11753613Y-7010611D01*
X11753431Y-7010792D01*
X11748596Y-7017448D01*
X11748459Y-7017632D01*
X11742494Y-7025531D01*
X11742494Y-7025532D01*
X11737809Y-7034940D01*
X11737757Y-7035042D01*
X11733745Y-7042916D01*
X11733559Y-7043367D01*
X11733536Y-7043358D01*
X11733164Y-7044269D01*
X11732577Y-7045447D01*
X11730202Y-7053793D01*
X11730069Y-7054231D01*
X11727906Y-7060888D01*
X11727906Y-7060889D01*
X11727674Y-7062354D01*
X11727353Y-7063807D01*
X11726488Y-7066846D01*
X11725857Y-7073656D01*
X11725758Y-7074451D01*
X11724950Y-7079552D01*
X11724950Y-7082876D01*
X11724897Y-7084020D01*
X11724436Y-7089000D01*
X11724436Y-7089000D01*
X11652000Y-7089000D01*
X11652000Y-6855000D01*
X13135466Y-6855000D01*
X13137397Y-6874613D01*
X13137398Y-6874613D01*
X13140784Y-6885776D01*
X13143119Y-6893473D01*
X13152409Y-6910853D01*
X13152409Y-6910854D01*
X13164912Y-6926088D01*
X13180146Y-6938591D01*
X13180147Y-6938591D01*
X13197527Y-6947881D01*
X13197527Y-6947881D01*
X13197527Y-6947881D01*
X13216387Y-6953602D01*
X13236000Y-6955534D01*
X13255613Y-6953602D01*
X13274473Y-6947881D01*
X13276703Y-6946689D01*
X13285053Y-6942226D01*
X13291854Y-6938591D01*
X13307088Y-6926088D01*
X13319591Y-6910854D01*
X13328881Y-6893473D01*
X13334602Y-6874613D01*
X13336534Y-6855000D01*
X13334602Y-6835387D01*
X13328881Y-6816527D01*
X13328881Y-6816527D01*
X13328881Y-6816527D01*
X13319591Y-6799147D01*
X13319591Y-6799146D01*
X13307088Y-6783912D01*
X13291854Y-6771409D01*
X13291853Y-6771409D01*
X13287347Y-6769000D01*
X16090466Y-6769000D01*
X16092397Y-6788613D01*
X16098119Y-6807473D01*
X16107409Y-6824853D01*
X16107409Y-6824854D01*
X16119912Y-6840088D01*
X16135146Y-6852591D01*
X16135147Y-6852591D01*
X16152527Y-6861881D01*
X16152527Y-6861881D01*
X16152527Y-6861881D01*
X16171387Y-6867602D01*
X16191000Y-6869534D01*
X16210613Y-6867602D01*
X16229473Y-6861881D01*
X16234723Y-6859075D01*
X16242347Y-6855000D01*
X16246854Y-6852591D01*
X16262088Y-6840088D01*
X16274591Y-6824854D01*
X16279981Y-6814770D01*
X16283881Y-6807473D01*
X16283881Y-6807473D01*
X16283881Y-6807473D01*
X16289602Y-6788613D01*
X16291534Y-6769000D01*
X16590466Y-6769000D01*
X16592397Y-6788613D01*
X16598119Y-6807473D01*
X16607409Y-6824853D01*
X16607409Y-6824854D01*
X16619912Y-6840088D01*
X16635146Y-6852591D01*
X16635147Y-6852591D01*
X16652527Y-6861881D01*
X16652527Y-6861881D01*
X16652527Y-6861881D01*
X16671387Y-6867602D01*
X16691000Y-6869534D01*
X16710613Y-6867602D01*
X16729473Y-6861881D01*
X16734723Y-6859075D01*
X16742347Y-6855000D01*
X16746854Y-6852591D01*
X16762088Y-6840088D01*
X16774591Y-6824854D01*
X16779981Y-6814770D01*
X16783881Y-6807473D01*
X16783881Y-6807473D01*
X16783881Y-6807473D01*
X16789602Y-6788613D01*
X16791534Y-6769000D01*
X16789602Y-6749387D01*
X16783881Y-6730527D01*
X16783881Y-6730527D01*
X16783881Y-6730527D01*
X16774591Y-6713147D01*
X16774591Y-6713146D01*
X16762088Y-6697912D01*
X16746854Y-6685409D01*
X16746853Y-6685409D01*
X16729473Y-6676119D01*
X16729473Y-6676119D01*
X16710613Y-6670398D01*
X16710613Y-6670397D01*
X16691000Y-6668466D01*
X16671387Y-6670397D01*
X16652527Y-6676119D01*
X16635147Y-6685409D01*
X16635146Y-6685409D01*
X16619912Y-6697912D01*
X16607409Y-6713146D01*
X16607409Y-6713147D01*
X16598119Y-6730527D01*
X16592397Y-6749387D01*
X16590466Y-6769000D01*
X16291534Y-6769000D01*
X16289602Y-6749387D01*
X16283881Y-6730527D01*
X16283881Y-6730527D01*
X16283881Y-6730527D01*
X16274591Y-6713147D01*
X16274591Y-6713146D01*
X16262088Y-6697912D01*
X16246854Y-6685409D01*
X16246853Y-6685409D01*
X16229473Y-6676119D01*
X16229473Y-6676119D01*
X16210613Y-6670398D01*
X16210613Y-6670397D01*
X16191000Y-6668466D01*
X16171387Y-6670397D01*
X16152527Y-6676119D01*
X16135147Y-6685409D01*
X16135146Y-6685409D01*
X16119912Y-6697912D01*
X16107409Y-6713146D01*
X16107409Y-6713147D01*
X16098119Y-6730527D01*
X16092397Y-6749387D01*
X16090466Y-6769000D01*
X13287347Y-6769000D01*
X13274473Y-6762119D01*
X13274473Y-6762119D01*
X13255613Y-6756398D01*
X13255613Y-6756397D01*
X13236000Y-6754466D01*
X13216387Y-6756397D01*
X13197527Y-6762119D01*
X13180147Y-6771409D01*
X13180146Y-6771409D01*
X13164912Y-6783912D01*
X13152409Y-6799146D01*
X13152409Y-6799147D01*
X13143119Y-6816527D01*
X13137397Y-6835387D01*
X13135466Y-6855000D01*
X11652000Y-6855000D01*
X11652000Y-6583000D01*
X14085466Y-6583000D01*
X14087397Y-6602613D01*
X14093119Y-6621473D01*
X14102409Y-6638853D01*
X14102409Y-6638854D01*
X14114912Y-6654088D01*
X14130146Y-6666591D01*
X14130147Y-6666591D01*
X14147527Y-6675881D01*
X14147527Y-6675881D01*
X14147527Y-6675881D01*
X14166387Y-6681602D01*
X14186000Y-6683534D01*
X14205613Y-6681602D01*
X14224473Y-6675881D01*
X14241854Y-6666591D01*
X14257088Y-6654088D01*
X14269591Y-6638854D01*
X14278881Y-6621473D01*
X14284602Y-6602613D01*
X14286534Y-6583000D01*
X14585466Y-6583000D01*
X14587397Y-6602613D01*
X14593119Y-6621473D01*
X14602409Y-6638853D01*
X14602409Y-6638854D01*
X14614912Y-6654088D01*
X14630146Y-6666591D01*
X14630147Y-6666591D01*
X14647527Y-6675881D01*
X14647527Y-6675881D01*
X14647527Y-6675881D01*
X14666387Y-6681602D01*
X14686000Y-6683534D01*
X14705613Y-6681602D01*
X14724473Y-6675881D01*
X14741854Y-6666591D01*
X14757088Y-6654088D01*
X14769591Y-6638854D01*
X14778881Y-6621473D01*
X14784602Y-6602613D01*
X14786534Y-6583000D01*
X14784602Y-6563387D01*
X14778881Y-6544527D01*
X14778881Y-6544527D01*
X14778881Y-6544527D01*
X14769591Y-6527147D01*
X14769591Y-6527146D01*
X14757088Y-6511912D01*
X14741854Y-6499409D01*
X14741853Y-6499409D01*
X14724473Y-6490119D01*
X14724473Y-6490119D01*
X14705613Y-6484398D01*
X14705613Y-6484397D01*
X14686000Y-6482466D01*
X14666387Y-6484397D01*
X14647527Y-6490119D01*
X14630147Y-6499409D01*
X14630146Y-6499409D01*
X14614912Y-6511912D01*
X14602409Y-6527146D01*
X14602409Y-6527147D01*
X14593119Y-6544527D01*
X14587397Y-6563387D01*
X14585466Y-6583000D01*
X14286534Y-6583000D01*
X14284602Y-6563387D01*
X14278881Y-6544527D01*
X14278881Y-6544527D01*
X14278881Y-6544527D01*
X14269591Y-6527147D01*
X14269591Y-6527146D01*
X14257088Y-6511912D01*
X14241854Y-6499409D01*
X14241853Y-6499409D01*
X14224473Y-6490119D01*
X14224473Y-6490119D01*
X14205613Y-6484398D01*
X14205613Y-6484397D01*
X14186000Y-6482466D01*
X14166387Y-6484397D01*
X14147527Y-6490119D01*
X14130147Y-6499409D01*
X14130146Y-6499409D01*
X14114912Y-6511912D01*
X14102409Y-6527146D01*
X14102409Y-6527147D01*
X14093119Y-6544527D01*
X14087397Y-6563387D01*
X14085466Y-6583000D01*
X11652000Y-6583000D01*
X11652000Y-6398000D01*
X16092466Y-6398000D01*
X16094397Y-6417613D01*
X16094398Y-6417613D01*
X16099173Y-6433355D01*
X16100119Y-6436473D01*
X16109409Y-6453853D01*
X16109409Y-6453854D01*
X16121912Y-6469088D01*
X16137146Y-6481591D01*
X16137147Y-6481591D01*
X16154527Y-6490881D01*
X16154527Y-6490881D01*
X16154527Y-6490881D01*
X16173387Y-6496602D01*
X16193000Y-6498534D01*
X16212613Y-6496602D01*
X16231473Y-6490881D01*
X16232899Y-6490119D01*
X16243603Y-6484397D01*
X16248854Y-6481591D01*
X16264088Y-6469088D01*
X16276591Y-6453854D01*
X16282589Y-6442632D01*
X16285881Y-6436473D01*
X16285881Y-6436473D01*
X16285881Y-6436473D01*
X16291602Y-6417613D01*
X16293534Y-6398000D01*
X16562503Y-6398000D01*
X16564486Y-6420660D01*
X16564486Y-6420661D01*
X16570373Y-6442632D01*
X16570373Y-6442633D01*
X16579986Y-6463248D01*
X16585097Y-6470547D01*
X16653000Y-6402645D01*
X16653000Y-6403266D01*
X16655726Y-6413439D01*
X16660992Y-6422561D01*
X16668439Y-6430008D01*
X16677561Y-6435274D01*
X16687734Y-6438000D01*
X16688355Y-6438000D01*
X16620453Y-6505902D01*
X16627751Y-6511013D01*
X16627752Y-6511014D01*
X16648367Y-6520626D01*
X16648368Y-6520627D01*
X16670339Y-6526514D01*
X16670340Y-6526514D01*
X16693000Y-6528497D01*
X16693000Y-6528497D01*
X16715660Y-6526514D01*
X16715661Y-6526514D01*
X16737632Y-6520627D01*
X16737633Y-6520626D01*
X16758248Y-6511014D01*
X16765547Y-6505902D01*
X16697645Y-6438000D01*
X16698266Y-6438000D01*
X16708439Y-6435274D01*
X16717561Y-6430008D01*
X16725008Y-6422561D01*
X16730274Y-6413439D01*
X16733000Y-6403266D01*
X16733000Y-6402645D01*
X16800902Y-6470547D01*
X16806014Y-6463248D01*
X16815626Y-6442633D01*
X16815627Y-6442632D01*
X16821514Y-6420661D01*
X16821514Y-6420660D01*
X16823497Y-6398000D01*
X16823497Y-6398000D01*
X16821514Y-6375340D01*
X16821514Y-6375339D01*
X16815627Y-6353368D01*
X16815626Y-6353367D01*
X16806014Y-6332752D01*
X16806013Y-6332751D01*
X16800903Y-6325453D01*
X16733000Y-6393355D01*
X16733000Y-6392734D01*
X16730274Y-6382561D01*
X16725008Y-6373439D01*
X16717561Y-6365992D01*
X16708439Y-6360726D01*
X16698266Y-6358000D01*
X16697645Y-6358000D01*
X16765547Y-6290097D01*
X16758248Y-6284986D01*
X16737633Y-6275373D01*
X16737632Y-6275373D01*
X16715661Y-6269486D01*
X16715660Y-6269486D01*
X16693000Y-6267503D01*
X16693000Y-6267503D01*
X16670340Y-6269486D01*
X16670339Y-6269486D01*
X16648368Y-6275373D01*
X16648367Y-6275373D01*
X16627752Y-6284987D01*
X16627751Y-6284987D01*
X16620453Y-6290097D01*
X16620453Y-6290097D01*
X16688355Y-6358000D01*
X16687734Y-6358000D01*
X16677561Y-6360726D01*
X16668439Y-6365992D01*
X16660992Y-6373439D01*
X16655726Y-6382561D01*
X16653000Y-6392734D01*
X16653000Y-6393355D01*
X16585097Y-6325453D01*
X16585097Y-6325453D01*
X16579987Y-6332751D01*
X16579987Y-6332752D01*
X16570373Y-6353367D01*
X16570373Y-6353368D01*
X16564486Y-6375339D01*
X16564486Y-6375340D01*
X16562503Y-6398000D01*
X16562503Y-6398000D01*
X16293534Y-6398000D01*
X16293534Y-6398000D01*
X16291602Y-6378387D01*
X16285881Y-6359527D01*
X16285881Y-6359527D01*
X16285881Y-6359527D01*
X16276591Y-6342147D01*
X16276591Y-6342146D01*
X16264088Y-6326912D01*
X16248854Y-6314409D01*
X16248853Y-6314409D01*
X16231473Y-6305119D01*
X16231473Y-6305119D01*
X16212613Y-6299398D01*
X16212613Y-6299397D01*
X16193000Y-6297466D01*
X16173387Y-6299397D01*
X16154527Y-6305119D01*
X16137147Y-6314409D01*
X16137146Y-6314409D01*
X16121912Y-6326912D01*
X16109409Y-6342146D01*
X16109409Y-6342147D01*
X16100119Y-6359527D01*
X16094397Y-6378387D01*
X16092466Y-6398000D01*
X11652000Y-6398000D01*
X11652000Y-6204388D01*
X11653968Y-6197684D01*
X11659249Y-6193109D01*
X11664388Y-6191988D01*
X20161591Y-6184012D01*
X20168297Y-6185974D01*
G37*
%TD.AperFunction*%
%TA.AperFunction,Conductor*%
G36*
X20139213Y-8577857D02*
G01*
X20143997Y-8571857D01*
X20151347Y-8559127D01*
X20156404Y-8554306D01*
X20163264Y-8552983D01*
X20169751Y-8555580D01*
X20173804Y-8561272D01*
X20174486Y-8565325D01*
X20174552Y-8888784D01*
X20172585Y-8895489D01*
X20167305Y-8900065D01*
X20160389Y-8901061D01*
X20154033Y-8898160D01*
X20151413Y-8894987D01*
X20143997Y-8882143D01*
X20139212Y-8876143D01*
X20074411Y-8940944D01*
X20074326Y-8940737D01*
X20065024Y-8926816D01*
X20053184Y-8914976D01*
X20039263Y-8905674D01*
X20039056Y-8905588D01*
X20103917Y-8840728D01*
X20086745Y-8829021D01*
X20086745Y-8829020D01*
X20063114Y-8817640D01*
X20063114Y-8817640D01*
X20038051Y-8809909D01*
X20038050Y-8809909D01*
X20012115Y-8806000D01*
X19985885Y-8806000D01*
X19959950Y-8809909D01*
X19959949Y-8809909D01*
X19934886Y-8817640D01*
X19934885Y-8817641D01*
X19911255Y-8829020D01*
X19911254Y-8829021D01*
X19899308Y-8837165D01*
X19892660Y-8839315D01*
X19885905Y-8837530D01*
X19881188Y-8832376D01*
X19880030Y-8825631D01*
X19880012Y-8825630D01*
X19880017Y-8825557D01*
X19880006Y-8825490D01*
X19880045Y-8825202D01*
X19880050Y-8825144D01*
X19880050Y-8825144D01*
X19880050Y-8825143D01*
X19880050Y-8628857D01*
X19880050Y-8628857D01*
X19880050Y-8628856D01*
X19880012Y-8628371D01*
X19880161Y-8628359D01*
X19880971Y-8622091D01*
X19885470Y-8616746D01*
X19892145Y-8614681D01*
X19898877Y-8616553D01*
X19899308Y-8616834D01*
X19911255Y-8624979D01*
X19911255Y-8624980D01*
X19934885Y-8636359D01*
X19934886Y-8636360D01*
X19959949Y-8644091D01*
X19959950Y-8644091D01*
X19985885Y-8648000D01*
X19985886Y-8648000D01*
X20012114Y-8648000D01*
X20012115Y-8648000D01*
X20038050Y-8644091D01*
X20038051Y-8644091D01*
X20063114Y-8636360D01*
X20086745Y-8624980D01*
X20086745Y-8624980D01*
X20103917Y-8613272D01*
X20039056Y-8548411D01*
X20039263Y-8548326D01*
X20053184Y-8539024D01*
X20065024Y-8527184D01*
X20074326Y-8513263D01*
X20074411Y-8513056D01*
X20139213Y-8577857D01*
G37*
%TD.AperFunction*%
%TD*%
D28*
X11642500Y-6173000D02*
X20173000Y-6173000D01*
X20173000Y-11077000D01*
X11642500Y-11077000D01*
X11642500Y-6173000D01*
D29*
X12135351Y-6630000D02*
G75*
G02*
X11814649Y-6630000I-160351J0D01*
G01*
X11814649Y-6630000D02*
G75*
G02*
X12135351Y-6630000I160351J0D01*
G01*
X20028351Y-10633000D02*
G75*
G02*
X19707649Y-10633000I-160351J0D01*
G01*
X19707649Y-10633000D02*
G75*
G02*
X20028351Y-10633000I160351J0D01*
G01*
X20034351Y-6631000D02*
G75*
G02*
X19713649Y-6631000I-160351J0D01*
G01*
X19713649Y-6631000D02*
G75*
G02*
X20034351Y-6631000I160351J0D01*
G01*
X12119000Y-10634000D02*
G75*
G02*
X11815000Y-10634000I-152000J0D01*
G01*
X11815000Y-10634000D02*
G75*
G02*
X12119000Y-10634000I152000J0D01*
G01*
D28*
%TO.C,J1*%
X11718000Y-8340000D02*
X11718000Y-9200000D01*
%TO.C,J4*%
X20195000Y-9157000D02*
X20195000Y-8297000D01*
%TD*%
M02*
