%TF.GenerationSoftware,KiCad,Pcbnew,8.0.0*%
%TF.CreationDate,2024-03-23T17:17:28+01:00*%
%TF.ProjectId,Filter,46696c74-6572-42e6-9b69-6361645f7063,rev?*%
%TF.SameCoordinates,Original*%
%TF.FileFunction,Other,User*%
%FSLAX45Y45*%
G04 Gerber Fmt 4.5, Leading zero omitted, Abs format (unit mm)*
G04 Created by KiCad (PCBNEW 8.0.0) date 2024-03-23 17:17:28*
%MOMM*%
%LPD*%
G01*
G04 APERTURE LIST*
%ADD10C,0.050000*%
%TA.AperFunction,Profile*%
%ADD11C,0.100000*%
%TD*%
%TA.AperFunction,Profile*%
%ADD12C,0.200000*%
%TD*%
G04 APERTURE END LIST*
D10*
%TO.C,L7*%
X14516000Y-8894000D02*
X14516000Y-9592000D01*
X14516000Y-9592000D02*
X15766000Y-9592000D01*
X15766000Y-8894000D02*
X14516000Y-8894000D01*
X15766000Y-9592000D02*
X15766000Y-8894000D01*
%TO.C,L8*%
X14398000Y-8197000D02*
X14398000Y-8895000D01*
X14398000Y-8895000D02*
X15648000Y-8895000D01*
X15648000Y-8197000D02*
X14398000Y-8197000D01*
X15648000Y-8895000D02*
X15648000Y-8197000D01*
%TO.C,R10*%
X13904750Y-7484500D02*
X14128750Y-7484500D01*
X13904750Y-7940500D02*
X13904750Y-7484500D01*
X14128750Y-7484500D02*
X14128750Y-7940500D01*
X14128750Y-7940500D02*
X13904750Y-7940500D01*
%TO.C,C15*%
X13805000Y-9332500D02*
X14035000Y-9332500D01*
X13805000Y-9792500D02*
X13805000Y-9332500D01*
X14035000Y-9332500D02*
X14035000Y-9792500D01*
X14035000Y-9792500D02*
X13805000Y-9792500D01*
%TO.C,C7*%
X16004000Y-8543000D02*
X16004000Y-9253000D01*
X16004000Y-9253000D02*
X16374000Y-9253000D01*
X16374000Y-8543000D02*
X16004000Y-8543000D01*
X16374000Y-9253000D02*
X16374000Y-8543000D01*
%TO.C,R7*%
X13913000Y-6768000D02*
X14137000Y-6768000D01*
X13913000Y-7224000D02*
X13913000Y-6768000D01*
X14137000Y-6768000D02*
X14137000Y-7224000D01*
X14137000Y-7224000D02*
X13913000Y-7224000D01*
%TO.C,J1*%
X10968000Y-9200000D02*
X10968000Y-8340000D01*
X10968000Y-9200000D02*
X12598000Y-9200000D01*
X12598000Y-8340000D02*
X10968000Y-8340000D01*
X12598000Y-8340000D02*
X12598000Y-9200000D01*
%TO.C,SW1*%
X12545000Y-10095000D02*
X12545000Y-10825000D01*
X12545000Y-10825000D02*
X13705000Y-10825000D01*
X13705000Y-10095000D02*
X12545000Y-10095000D01*
X13705000Y-10825000D02*
X13705000Y-10095000D01*
%TO.C,C6*%
X13946000Y-7991000D02*
X13946000Y-8361000D01*
X13946000Y-8361000D02*
X14656000Y-8361000D01*
X14656000Y-7991000D02*
X13946000Y-7991000D01*
X14656000Y-8361000D02*
X14656000Y-7991000D01*
%TO.C,C9*%
X14055000Y-8708000D02*
X14055000Y-9078000D01*
X14055000Y-9078000D02*
X14765000Y-9078000D01*
X14765000Y-8708000D02*
X14055000Y-8708000D01*
X14765000Y-9078000D02*
X14765000Y-8708000D01*
%TO.C,C17*%
X18354000Y-8976000D02*
X18814000Y-8976000D01*
X18354000Y-9206000D02*
X18354000Y-8976000D01*
X18814000Y-8976000D02*
X18814000Y-9206000D01*
X18814000Y-9206000D02*
X18354000Y-9206000D01*
%TO.C,C13*%
X16399000Y-9764000D02*
X16399000Y-10134000D01*
X16399000Y-10134000D02*
X17109000Y-10134000D01*
X17109000Y-9764000D02*
X16399000Y-9764000D01*
X17109000Y-10134000D02*
X17109000Y-9764000D01*
%TO.C,U2*%
X18325750Y-8309500D02*
X18325750Y-8859500D01*
X18325750Y-8859500D02*
X19095750Y-8859500D01*
X19095750Y-8309500D02*
X18325750Y-8309500D01*
X19095750Y-8859500D02*
X19095750Y-8309500D01*
%TO.C,C14*%
X16396000Y-10142000D02*
X16396000Y-10512000D01*
X16396000Y-10512000D02*
X17106000Y-10512000D01*
X17106000Y-10142000D02*
X16396000Y-10142000D01*
X17106000Y-10512000D02*
X17106000Y-10142000D01*
%TO.C,T2*%
X18661000Y-8192000D02*
X18661000Y-6842000D01*
X18661000Y-8192000D02*
X19611000Y-8192000D01*
X19611000Y-6842000D02*
X18661000Y-6842000D01*
X19611000Y-6842000D02*
X19611000Y-8192000D01*
%TO.C,C2*%
X14081000Y-6398000D02*
X14081000Y-6768000D01*
X14081000Y-6768000D02*
X14791000Y-6768000D01*
X14791000Y-6398000D02*
X14081000Y-6398000D01*
X14791000Y-6768000D02*
X14791000Y-6398000D01*
%TO.C,R5*%
X13562250Y-6520750D02*
X14018250Y-6520750D01*
X13562250Y-6744750D02*
X13562250Y-6520750D01*
X14018250Y-6520750D02*
X14018250Y-6744750D01*
X14018250Y-6744750D02*
X13562250Y-6744750D01*
%TO.C,J4*%
X19315000Y-9157000D02*
X19315000Y-8297000D01*
X19315000Y-9157000D02*
X20945000Y-9157000D01*
X20945000Y-8297000D02*
X19315000Y-8297000D01*
X20945000Y-8297000D02*
X20945000Y-9157000D01*
%TO.C,L1*%
X14378000Y-6541000D02*
X14378000Y-7371000D01*
X14378000Y-7371000D02*
X15969000Y-7371000D01*
X15969000Y-6541000D02*
X14378000Y-6541000D01*
X15969000Y-7371000D02*
X15969000Y-6541000D01*
%TO.C,L2*%
X15677500Y-6951000D02*
X15677500Y-7781000D01*
X15677500Y-7781000D02*
X17268500Y-7781000D01*
X17268500Y-6951000D02*
X15677500Y-6951000D01*
X17268500Y-7781000D02*
X17268500Y-6951000D01*
%TO.C,C4*%
X16086000Y-6584000D02*
X16086000Y-6954000D01*
X16086000Y-6954000D02*
X16796000Y-6954000D01*
X16796000Y-6584000D02*
X16086000Y-6584000D01*
X16796000Y-6954000D02*
X16796000Y-6584000D01*
%TO.C,J3*%
X14502000Y-10405000D02*
X15622000Y-10405000D01*
X14502000Y-10760000D02*
X14502000Y-10405000D01*
X15622000Y-10405000D02*
X15622000Y-10760000D01*
X15622000Y-10760000D02*
X14502000Y-10760000D01*
%TO.C,C5*%
X12780000Y-7980000D02*
X12780000Y-8350000D01*
X12780000Y-8350000D02*
X13490000Y-8350000D01*
X13490000Y-7980000D02*
X12780000Y-7980000D01*
X13490000Y-8350000D02*
X13490000Y-7980000D01*
%TO.C,C11*%
X16186000Y-9234000D02*
X16186000Y-9604000D01*
X16186000Y-9604000D02*
X16896000Y-9604000D01*
X16896000Y-9234000D02*
X16186000Y-9234000D01*
X16896000Y-9604000D02*
X16896000Y-9234000D01*
%TO.C,T1*%
X11720000Y-6914000D02*
X11720000Y-7864000D01*
X11720000Y-6914000D02*
X13070000Y-6914000D01*
X13070000Y-7864000D02*
X11720000Y-7864000D01*
X13070000Y-7864000D02*
X13070000Y-6914000D01*
%TO.C,L4*%
X14399000Y-7357000D02*
X14399000Y-8187000D01*
X14399000Y-8187000D02*
X15990000Y-8187000D01*
X15990000Y-7357000D02*
X14399000Y-7357000D01*
X15990000Y-8187000D02*
X15990000Y-7357000D01*
%TO.C,C1*%
X13051000Y-6750000D02*
X13051000Y-7460000D01*
X13051000Y-7460000D02*
X13421000Y-7460000D01*
X13421000Y-6750000D02*
X13051000Y-6750000D01*
X13421000Y-7460000D02*
X13421000Y-6750000D01*
%TO.C,C19*%
X12317500Y-9755000D02*
X12777500Y-9755000D01*
X12317500Y-9985000D02*
X12317500Y-9755000D01*
X12777500Y-9755000D02*
X12777500Y-9985000D01*
X12777500Y-9985000D02*
X12317500Y-9985000D01*
%TO.C,C8*%
X16083000Y-8071000D02*
X16083000Y-8441000D01*
X16083000Y-8441000D02*
X16793000Y-8441000D01*
X16793000Y-8071000D02*
X16083000Y-8071000D01*
X16793000Y-8441000D02*
X16793000Y-8071000D01*
%TO.C,C10*%
X15656000Y-8202000D02*
X15656000Y-8912000D01*
X15656000Y-8912000D02*
X16026000Y-8912000D01*
X16026000Y-8202000D02*
X15656000Y-8202000D01*
X16026000Y-8912000D02*
X16026000Y-8202000D01*
%TO.C,R8*%
X13412750Y-7485500D02*
X13636750Y-7485500D01*
X13412750Y-7941500D02*
X13412750Y-7485500D01*
X13636750Y-7485500D02*
X13636750Y-7941500D01*
X13636750Y-7941500D02*
X13412750Y-7941500D01*
%TO.C,L12*%
X17164000Y-9976000D02*
X17164000Y-10674000D01*
X17164000Y-10674000D02*
X18414000Y-10674000D01*
X18414000Y-9976000D02*
X17164000Y-9976000D01*
X18414000Y-10674000D02*
X18414000Y-9976000D01*
%TO.C,L3*%
X16884000Y-6536000D02*
X16884000Y-7366000D01*
X16884000Y-7366000D02*
X18475000Y-7366000D01*
X18475000Y-6536000D02*
X16884000Y-6536000D01*
X18475000Y-7366000D02*
X18475000Y-6536000D01*
%TO.C,L10*%
X14463000Y-9603000D02*
X14463000Y-10301000D01*
X14463000Y-10301000D02*
X15713000Y-10301000D01*
X15713000Y-9603000D02*
X14463000Y-9603000D01*
X15713000Y-10301000D02*
X15713000Y-9603000D01*
%TO.C,R9*%
X13460750Y-8058000D02*
X13916750Y-8058000D01*
X13460750Y-8282000D02*
X13460750Y-8058000D01*
X13916750Y-8058000D02*
X13916750Y-8282000D01*
X13916750Y-8282000D02*
X13460750Y-8282000D01*
%TO.C,L11*%
X15735000Y-9567000D02*
X15735000Y-10817000D01*
X15735000Y-10817000D02*
X16433000Y-10817000D01*
X16433000Y-9567000D02*
X15735000Y-9567000D01*
X16433000Y-10817000D02*
X16433000Y-9567000D01*
%TO.C,C12*%
X14057000Y-9404000D02*
X14057000Y-9774000D01*
X14057000Y-9774000D02*
X14767000Y-9774000D01*
X14767000Y-9404000D02*
X14057000Y-9404000D01*
X14767000Y-9774000D02*
X14767000Y-9404000D01*
%TO.C,R6*%
X13419000Y-6784000D02*
X13643000Y-6784000D01*
X13419000Y-7240000D02*
X13419000Y-6784000D01*
X13643000Y-6784000D02*
X13643000Y-7240000D01*
X13643000Y-7240000D02*
X13419000Y-7240000D01*
%TO.C,C3*%
X16088000Y-6213000D02*
X16088000Y-6583000D01*
X16088000Y-6583000D02*
X16798000Y-6583000D01*
X16798000Y-6213000D02*
X16088000Y-6213000D01*
X16798000Y-6583000D02*
X16798000Y-6213000D01*
%TO.C,L5*%
X16342000Y-8234000D02*
X16342000Y-9064000D01*
X16342000Y-9064000D02*
X17933000Y-9064000D01*
X17933000Y-8234000D02*
X16342000Y-8234000D01*
X17933000Y-9064000D02*
X17933000Y-8234000D01*
%TO.C,L6*%
X16885000Y-7367000D02*
X16885000Y-8197000D01*
X16885000Y-8197000D02*
X18476000Y-8197000D01*
X18476000Y-7367000D02*
X16885000Y-7367000D01*
X18476000Y-8197000D02*
X18476000Y-7367000D01*
%TO.C,L9*%
X17151000Y-9094000D02*
X17151000Y-9792000D01*
X17151000Y-9792000D02*
X18401000Y-9792000D01*
X18401000Y-9094000D02*
X17151000Y-9094000D01*
X18401000Y-9792000D02*
X18401000Y-9094000D01*
%TO.C,U1*%
X12966250Y-8920250D02*
X12966250Y-9690250D01*
X12966250Y-9690250D02*
X13516250Y-9690250D01*
X13516250Y-8920250D02*
X12966250Y-8920250D01*
X13516250Y-9690250D02*
X13516250Y-8920250D01*
%TD*%
D11*
X11642500Y-6173000D02*
X20173000Y-6173000D01*
X20173000Y-11077000D01*
X11642500Y-11077000D01*
X11642500Y-6173000D01*
D12*
X12135351Y-6630000D02*
G75*
G02*
X11814649Y-6630000I-160351J0D01*
G01*
X11814649Y-6630000D02*
G75*
G02*
X12135351Y-6630000I160351J0D01*
G01*
X20028351Y-10633000D02*
G75*
G02*
X19707649Y-10633000I-160351J0D01*
G01*
X19707649Y-10633000D02*
G75*
G02*
X20028351Y-10633000I160351J0D01*
G01*
X20034351Y-6631000D02*
G75*
G02*
X19713649Y-6631000I-160351J0D01*
G01*
X19713649Y-6631000D02*
G75*
G02*
X20034351Y-6631000I160351J0D01*
G01*
X12119000Y-10634000D02*
G75*
G02*
X11815000Y-10634000I-152000J0D01*
G01*
X11815000Y-10634000D02*
G75*
G02*
X12119000Y-10634000I152000J0D01*
G01*
D11*
%TO.C,J1*%
X11718000Y-8340000D02*
X11718000Y-9200000D01*
%TO.C,J4*%
X20195000Y-9157000D02*
X20195000Y-8297000D01*
%TD*%
M02*
