%TF.GenerationSoftware,KiCad,Pcbnew,7.0.1*%
%TF.CreationDate,2023-11-10T11:44:35+00:00*%
%TF.ProjectId,Filter,46696c74-6572-42e6-9b69-6361645f7063,rev?*%
%TF.SameCoordinates,Original*%
%TF.FileFunction,Copper,L1,Top*%
%TF.FilePolarity,Positive*%
%FSLAX45Y45*%
G04 Gerber Fmt 4.5, Leading zero omitted, Abs format (unit mm)*
G04 Created by KiCad (PCBNEW 7.0.1) date 2023-11-10 11:44:35*
%MOMM*%
%LPD*%
G01*
G04 APERTURE LIST*
G04 Aperture macros list*
%AMRoundRect*
0 Rectangle with rounded corners*
0 $1 Rounding radius*
0 $2 $3 $4 $5 $6 $7 $8 $9 X,Y pos of 4 corners*
0 Add a 4 corners polygon primitive as box body*
4,1,4,$2,$3,$4,$5,$6,$7,$8,$9,$2,$3,0*
0 Add four circle primitives for the rounded corners*
1,1,$1+$1,$2,$3*
1,1,$1+$1,$4,$5*
1,1,$1+$1,$6,$7*
1,1,$1+$1,$8,$9*
0 Add four rect primitives between the rounded corners*
20,1,$1+$1,$2,$3,$4,$5,0*
20,1,$1+$1,$4,$5,$6,$7,0*
20,1,$1+$1,$6,$7,$8,$9,0*
20,1,$1+$1,$8,$9,$2,$3,0*%
G04 Aperture macros list end*
%TA.AperFunction,ComponentPad*%
%ADD10C,2.000000*%
%TD*%
%TA.AperFunction,SMDPad,CuDef*%
%ADD11RoundRect,0.250000X0.625000X-0.312500X0.625000X0.312500X-0.625000X0.312500X-0.625000X-0.312500X0*%
%TD*%
%TA.AperFunction,SMDPad,CuDef*%
%ADD12RoundRect,0.250000X-0.650000X0.325000X-0.650000X-0.325000X0.650000X-0.325000X0.650000X0.325000X0*%
%TD*%
%TA.AperFunction,ComponentPad*%
%ADD13C,1.600000*%
%TD*%
%TA.AperFunction,SMDPad,CuDef*%
%ADD14RoundRect,0.250000X-0.625000X0.312500X-0.625000X-0.312500X0.625000X-0.312500X0.625000X0.312500X0*%
%TD*%
%TA.AperFunction,ComponentPad*%
%ADD15RoundRect,0.200100X0.949900X-0.949900X0.949900X0.949900X-0.949900X0.949900X-0.949900X-0.949900X0*%
%TD*%
%TA.AperFunction,ComponentPad*%
%ADD16C,2.500000*%
%TD*%
%TA.AperFunction,SMDPad,CuDef*%
%ADD17RoundRect,0.250000X-0.325000X-0.650000X0.325000X-0.650000X0.325000X0.650000X-0.325000X0.650000X0*%
%TD*%
%TA.AperFunction,SMDPad,CuDef*%
%ADD18RoundRect,0.100000X0.637500X0.100000X-0.637500X0.100000X-0.637500X-0.100000X0.637500X-0.100000X0*%
%TD*%
%TA.AperFunction,SMDPad,CuDef*%
%ADD19RoundRect,0.250000X-0.312500X-0.625000X0.312500X-0.625000X0.312500X0.625000X-0.312500X0.625000X0*%
%TD*%
%TA.AperFunction,ComponentPad*%
%ADD20RoundRect,0.200100X-0.949900X0.949900X-0.949900X-0.949900X0.949900X-0.949900X0.949900X0.949900X0*%
%TD*%
%TA.AperFunction,ComponentPad*%
%ADD21C,2.400000*%
%TD*%
%TA.AperFunction,ComponentPad*%
%ADD22R,1.700000X1.700000*%
%TD*%
%TA.AperFunction,ComponentPad*%
%ADD23O,1.700000X1.700000*%
%TD*%
%TA.AperFunction,SMDPad,CuDef*%
%ADD24RoundRect,0.100000X-0.100000X0.637500X-0.100000X-0.637500X0.100000X-0.637500X0.100000X0.637500X0*%
%TD*%
%TA.AperFunction,ViaPad*%
%ADD25C,0.800000*%
%TD*%
%TA.AperFunction,Conductor*%
%ADD26C,0.400000*%
%TD*%
%TA.AperFunction,Conductor*%
%ADD27C,2.000000*%
%TD*%
%TA.AperFunction,Conductor*%
%ADD28C,3.000000*%
%TD*%
%TA.AperFunction,Conductor*%
%ADD29C,0.500000*%
%TD*%
G04 APERTURE END LIST*
D10*
%TO.P,L7,1,1*%
%TO.N,Net-(C9-Pad2)*%
X14641000Y-9243000D03*
%TO.P,L7,2,2*%
%TO.N,Net-(C10-Pad1)*%
X15641000Y-9243000D03*
%TD*%
%TO.P,L8,1,1*%
%TO.N,Net-(C10-Pad1)*%
X15523000Y-8546000D03*
%TO.P,L8,2,2*%
%TO.N,GND*%
X14523000Y-8546000D03*
%TD*%
D11*
%TO.P,R10,1*%
%TO.N,Net-(C6-Pad1)*%
X14016750Y-7858750D03*
%TO.P,R10,2*%
%TO.N,GND*%
X14016750Y-7566250D03*
%TD*%
D12*
%TO.P,C15,1*%
%TO.N,+5V*%
X13654375Y-9555000D03*
%TO.P,C15,2*%
%TO.N,GND*%
X13654375Y-9850000D03*
%TD*%
D13*
%TO.P,C7,1*%
%TO.N,Net-(C7-Pad1)*%
X16189000Y-8648000D03*
%TO.P,C7,2*%
%TO.N,GND*%
X16189000Y-9148000D03*
%TD*%
D14*
%TO.P,R7,1*%
%TO.N,Net-(C2-Pad1)*%
X14025000Y-6849750D03*
%TO.P,R7,2*%
%TO.N,GND*%
X14025000Y-7142250D03*
%TD*%
D15*
%TO.P,J1,1,In*%
%TO.N,Net-(J1-In)*%
X12168000Y-8770000D03*
D16*
%TO.P,J1,2,Ext*%
%TO.N,GND*%
X11914000Y-9024000D03*
X12422000Y-9024000D03*
X11914000Y-8516000D03*
X12422000Y-8516000D03*
%TD*%
D13*
%TO.P,C6,1*%
%TO.N,Net-(C6-Pad1)*%
X14051000Y-8176000D03*
%TO.P,C6,2*%
%TO.N,Net-(C6-Pad2)*%
X14551000Y-8176000D03*
%TD*%
%TO.P,C9,1*%
%TO.N,Net-(U1-1B3)*%
X14160000Y-8893000D03*
%TO.P,C9,2*%
%TO.N,Net-(C9-Pad2)*%
X14660000Y-8893000D03*
%TD*%
D17*
%TO.P,C17,1*%
%TO.N,+5V*%
X18436500Y-9091000D03*
%TO.P,C17,2*%
%TO.N,GND*%
X18731500Y-9091000D03*
%TD*%
D13*
%TO.P,C13,1*%
%TO.N,Net-(C13-Pad1)*%
X16504000Y-9949000D03*
%TO.P,C13,2*%
%TO.N,GND*%
X17004000Y-9949000D03*
%TD*%
D18*
%TO.P,U2,1,1~{OE}*%
%TO.N,GND*%
X18997000Y-8812000D03*
%TO.P,U2,2,S1*%
%TO.N,Net-(J3-Pin_4)*%
X18997000Y-8747000D03*
%TO.P,U2,3,1B4*%
%TO.N,Net-(U2-1B4)*%
X18997000Y-8682000D03*
%TO.P,U2,4,1B3*%
%TO.N,Net-(U2-1B3)*%
X18997000Y-8617000D03*
%TO.P,U2,5,1B2*%
%TO.N,Net-(U2-1B2)*%
X18997000Y-8552000D03*
%TO.P,U2,6,1B1*%
%TO.N,Net-(U2-1B1)*%
X18997000Y-8487000D03*
%TO.P,U2,7,1A*%
%TO.N,Net-(T2-AA)*%
X18997000Y-8422000D03*
%TO.P,U2,8,GND*%
%TO.N,GND*%
X18997000Y-8357000D03*
%TO.P,U2,9,2A*%
%TO.N,Net-(T2-AA)*%
X18424500Y-8357000D03*
%TO.P,U2,10,2B1*%
%TO.N,Net-(U2-1B1)*%
X18424500Y-8422000D03*
%TO.P,U2,11,2B2*%
%TO.N,Net-(U2-1B2)*%
X18424500Y-8487000D03*
%TO.P,U2,12,2B3*%
%TO.N,Net-(U2-1B3)*%
X18424500Y-8552000D03*
%TO.P,U2,13,2B4*%
%TO.N,Net-(U2-1B4)*%
X18424500Y-8617000D03*
%TO.P,U2,14,S0*%
%TO.N,Net-(J3-Pin_3)*%
X18424500Y-8682000D03*
%TO.P,U2,15,2~{OE}*%
%TO.N,GND*%
X18424500Y-8747000D03*
%TO.P,U2,16,VCC*%
%TO.N,+5V*%
X18424500Y-8812000D03*
%TD*%
D13*
%TO.P,C14,1*%
%TO.N,Net-(C13-Pad1)*%
X16501000Y-10327000D03*
%TO.P,C14,2*%
%TO.N,Net-(C14-Pad2)*%
X17001000Y-10327000D03*
%TD*%
D10*
%TO.P,T2,1,AA*%
%TO.N,Net-(T2-AA)*%
X18836000Y-6967000D03*
%TO.P,T2,2,AB*%
%TO.N,Net-(T2-AB)*%
X18836000Y-8067000D03*
%TO.P,T2,3,SA*%
%TO.N,GND*%
X19436000Y-6967000D03*
%TO.P,T2,4,SB*%
%TO.N,Net-(J4-In)*%
X19436000Y-8067000D03*
%TD*%
D13*
%TO.P,C2,1*%
%TO.N,Net-(C2-Pad1)*%
X14186000Y-6583000D03*
%TO.P,C2,2*%
%TO.N,Net-(C2-Pad2)*%
X14686000Y-6583000D03*
%TD*%
D19*
%TO.P,R5,1*%
%TO.N,Net-(C1-Pad2)*%
X13644000Y-6632750D03*
%TO.P,R5,2*%
%TO.N,Net-(C2-Pad1)*%
X13936500Y-6632750D03*
%TD*%
D20*
%TO.P,J4,1,In*%
%TO.N,Net-(J4-In)*%
X19745000Y-8727000D03*
D16*
%TO.P,J4,2,Ext*%
%TO.N,GND*%
X19999000Y-8473000D03*
X19491000Y-8473000D03*
X19999000Y-8981000D03*
X19491000Y-8981000D03*
%TD*%
D21*
%TO.P,L1,1,1*%
%TO.N,Net-(C2-Pad2)*%
X14524000Y-6956000D03*
%TO.P,L1,2,2*%
%TO.N,Net-(C3-Pad1)*%
X15824000Y-6956000D03*
%TD*%
%TO.P,L2,1,1*%
%TO.N,Net-(C3-Pad1)*%
X15823500Y-7366000D03*
%TO.P,L2,2,2*%
%TO.N,GND*%
X17123500Y-7366000D03*
%TD*%
D13*
%TO.P,C4,1*%
%TO.N,Net-(C3-Pad1)*%
X16191000Y-6769000D03*
%TO.P,C4,2*%
%TO.N,Net-(C4-Pad2)*%
X16691000Y-6769000D03*
%TD*%
D22*
%TO.P,J3,1,Pin_1*%
%TO.N,GND*%
X13640750Y-10426750D03*
D23*
%TO.P,J3,2,Pin_2*%
%TO.N,+5V*%
X13386750Y-10426750D03*
%TO.P,J3,3,Pin_3*%
%TO.N,Net-(J3-Pin_3)*%
X13132750Y-10426750D03*
%TO.P,J3,4,Pin_4*%
%TO.N,Net-(J3-Pin_4)*%
X12878750Y-10426750D03*
%TD*%
D13*
%TO.P,C5,1*%
%TO.N,Net-(U1-1B2)*%
X12827000Y-8167000D03*
%TO.P,C5,2*%
%TO.N,Net-(C5-Pad2)*%
X13327000Y-8167000D03*
%TD*%
%TO.P,C11,1*%
%TO.N,Net-(C10-Pad1)*%
X16291000Y-9419000D03*
%TO.P,C11,2*%
%TO.N,Net-(C11-Pad2)*%
X16791000Y-9419000D03*
%TD*%
D10*
%TO.P,T1,1,AA*%
%TO.N,Net-(T1-AA)*%
X12945000Y-7089000D03*
%TO.P,T1,2,AB*%
%TO.N,Net-(T1-AB)*%
X11845000Y-7089000D03*
%TO.P,T1,3,SA*%
%TO.N,GND*%
X12945000Y-7689000D03*
%TO.P,T1,4,SB*%
%TO.N,Net-(J1-In)*%
X11845000Y-7689000D03*
%TD*%
D21*
%TO.P,L4,1,1*%
%TO.N,Net-(C6-Pad2)*%
X14545000Y-7772000D03*
%TO.P,L4,2,2*%
%TO.N,Net-(C7-Pad1)*%
X15845000Y-7772000D03*
%TD*%
D13*
%TO.P,C1,1*%
%TO.N,Net-(U1-1B1)*%
X13236000Y-7355000D03*
%TO.P,C1,2*%
%TO.N,Net-(C1-Pad2)*%
X13236000Y-6855000D03*
%TD*%
%TO.P,C8,1*%
%TO.N,Net-(C7-Pad1)*%
X16188000Y-8256000D03*
%TO.P,C8,2*%
%TO.N,Net-(C8-Pad2)*%
X16688000Y-8256000D03*
%TD*%
%TO.P,C10,1*%
%TO.N,Net-(C10-Pad1)*%
X15841000Y-8807000D03*
%TO.P,C10,2*%
%TO.N,GND*%
X15841000Y-8307000D03*
%TD*%
D11*
%TO.P,R8,1*%
%TO.N,Net-(C5-Pad2)*%
X13524750Y-7859750D03*
%TO.P,R8,2*%
%TO.N,GND*%
X13524750Y-7567250D03*
%TD*%
D10*
%TO.P,L12,1,1*%
%TO.N,Net-(C14-Pad2)*%
X17289000Y-10325000D03*
%TO.P,L12,2,2*%
%TO.N,Net-(U2-1B4)*%
X18289000Y-10325000D03*
%TD*%
D21*
%TO.P,L3,1,1*%
%TO.N,Net-(C4-Pad2)*%
X17030000Y-6951000D03*
%TO.P,L3,2,2*%
%TO.N,Net-(U2-1B1)*%
X18330000Y-6951000D03*
%TD*%
D10*
%TO.P,L10,1,1*%
%TO.N,Net-(C12-Pad2)*%
X14588000Y-9952000D03*
%TO.P,L10,2,2*%
%TO.N,Net-(C13-Pad1)*%
X15588000Y-9952000D03*
%TD*%
D19*
%TO.P,R9,1*%
%TO.N,Net-(C5-Pad2)*%
X13542500Y-8170000D03*
%TO.P,R9,2*%
%TO.N,Net-(C6-Pad1)*%
X13835000Y-8170000D03*
%TD*%
D10*
%TO.P,L11,1,1*%
%TO.N,Net-(C13-Pad1)*%
X16084000Y-9692000D03*
%TO.P,L11,2,2*%
%TO.N,GND*%
X16084000Y-10692000D03*
%TD*%
D13*
%TO.P,C12,1*%
%TO.N,Net-(U1-1B4)*%
X14162000Y-9589000D03*
%TO.P,C12,2*%
%TO.N,Net-(C12-Pad2)*%
X14662000Y-9589000D03*
%TD*%
D14*
%TO.P,R6,1*%
%TO.N,Net-(C1-Pad2)*%
X13531000Y-6865750D03*
%TO.P,R6,2*%
%TO.N,GND*%
X13531000Y-7158250D03*
%TD*%
D13*
%TO.P,C3,1*%
%TO.N,Net-(C3-Pad1)*%
X16193000Y-6398000D03*
%TO.P,C3,2*%
%TO.N,GND*%
X16693000Y-6398000D03*
%TD*%
D21*
%TO.P,L5,1,1*%
%TO.N,Net-(C7-Pad1)*%
X16488000Y-8649000D03*
%TO.P,L5,2,2*%
%TO.N,GND*%
X17788000Y-8649000D03*
%TD*%
%TO.P,L6,1,1*%
%TO.N,Net-(C8-Pad2)*%
X17031000Y-7782000D03*
%TO.P,L6,2,2*%
%TO.N,Net-(U2-1B2)*%
X18331000Y-7782000D03*
%TD*%
D10*
%TO.P,L9,1,1*%
%TO.N,Net-(C11-Pad2)*%
X17276000Y-9443000D03*
%TO.P,L9,2,2*%
%TO.N,Net-(U2-1B3)*%
X18276000Y-9443000D03*
%TD*%
D24*
%TO.P,U1,1,1~{OE}*%
%TO.N,GND*%
X13383125Y-8986500D03*
%TO.P,U1,2,S1*%
%TO.N,Net-(J3-Pin_4)*%
X13318125Y-8986500D03*
%TO.P,U1,3,1B4*%
%TO.N,Net-(U1-1B4)*%
X13253125Y-8986500D03*
%TO.P,U1,4,1B3*%
%TO.N,Net-(U1-1B3)*%
X13188125Y-8986500D03*
%TO.P,U1,5,1B2*%
%TO.N,Net-(U1-1B2)*%
X13123125Y-8986500D03*
%TO.P,U1,6,1B1*%
%TO.N,Net-(U1-1B1)*%
X13058125Y-8986500D03*
%TO.P,U1,7,1A*%
%TO.N,Net-(T1-AA)*%
X12993125Y-8986500D03*
%TO.P,U1,8,GND*%
%TO.N,GND*%
X12928125Y-8986500D03*
%TO.P,U1,9,2A*%
%TO.N,Net-(T1-AA)*%
X12928125Y-9559000D03*
%TO.P,U1,10,2B1*%
%TO.N,Net-(U1-1B1)*%
X12993125Y-9559000D03*
%TO.P,U1,11,2B2*%
%TO.N,Net-(U1-1B2)*%
X13058125Y-9559000D03*
%TO.P,U1,12,2B3*%
%TO.N,Net-(U1-1B3)*%
X13123125Y-9559000D03*
%TO.P,U1,13,2B4*%
%TO.N,Net-(U1-1B4)*%
X13188125Y-9559000D03*
%TO.P,U1,14,S0*%
%TO.N,Net-(J3-Pin_3)*%
X13253125Y-9559000D03*
%TO.P,U1,15,2~{OE}*%
%TO.N,GND*%
X13318125Y-9559000D03*
%TO.P,U1,16,VCC*%
%TO.N,+5V*%
X13383125Y-9559000D03*
%TD*%
D25*
%TO.N,+5V*%
X18286500Y-8914000D03*
X13647375Y-9377000D03*
%TO.N,Net-(J3-Pin_4)*%
X19078500Y-8945000D03*
X13459125Y-8793250D03*
%TO.N,Net-(J3-Pin_3)*%
X18164500Y-8725000D03*
X13253125Y-9856250D03*
%TD*%
D26*
%TO.N,+5V*%
X18436500Y-9091000D02*
X18436500Y-9195500D01*
X18436500Y-9195500D02*
X18580000Y-9339000D01*
X18580000Y-9339000D02*
X18580000Y-10486000D01*
X18580000Y-10486000D02*
X18119000Y-10947000D01*
X18119000Y-10947000D02*
X14077000Y-10947000D01*
X14077000Y-10947000D02*
X13871000Y-10741000D01*
X13871000Y-10741000D02*
X13871000Y-10208000D01*
X13866250Y-10203000D02*
X13474000Y-10203000D01*
X13474000Y-10203000D02*
X13386750Y-10290250D01*
X13386750Y-10290250D02*
X13386750Y-10426750D01*
D27*
%TO.N,GND*%
X15707000Y-8117000D02*
X15953000Y-8363000D01*
D26*
X19396000Y-9076000D02*
X19491000Y-8981000D01*
D27*
X19270000Y-6848000D02*
X19516000Y-7094000D01*
X13545812Y-9959188D02*
X13722187Y-9782813D01*
X14294000Y-8486000D02*
X14802000Y-8486000D01*
D26*
X13383125Y-9310250D02*
X13383125Y-8986500D01*
D27*
X14309000Y-7231000D02*
X13801000Y-7231000D01*
X17872000Y-8408000D02*
X17872000Y-8916000D01*
D26*
X18989000Y-9076000D02*
X19396000Y-9076000D01*
D27*
X19491000Y-8473000D02*
X19491000Y-8981000D01*
D26*
X18731500Y-9091000D02*
X18731500Y-9061000D01*
D27*
X19372000Y-8593000D02*
X19372000Y-9101000D01*
D26*
X18760000Y-8818250D02*
X18760000Y-9187000D01*
X18673000Y-8811250D02*
X18673000Y-9161000D01*
X18424500Y-8747000D02*
X18566500Y-8747000D01*
X13318125Y-9559000D02*
X13318125Y-9375250D01*
D27*
X19999000Y-8473000D02*
X19999000Y-8981000D01*
D26*
X18731500Y-9061000D02*
X18716500Y-9046000D01*
X18695000Y-8813250D02*
X18695000Y-9078750D01*
D27*
X19993000Y-8585000D02*
X19993000Y-9093000D01*
D26*
X19375000Y-8357000D02*
X19491000Y-8473000D01*
D27*
X16068000Y-10247000D02*
X16068000Y-10755000D01*
D26*
X18718000Y-8812000D02*
X18729000Y-8823000D01*
D27*
X20067000Y-8585000D02*
X20067000Y-9093000D01*
D26*
X12928125Y-8859125D02*
X12790000Y-8721000D01*
X13398125Y-9857000D02*
X13318125Y-9777000D01*
X18911000Y-8813250D02*
X18911000Y-9239000D01*
D27*
X17709000Y-8404000D02*
X17709000Y-8912000D01*
X14273000Y-8637000D02*
X14781000Y-8637000D01*
X13954000Y-7118000D02*
X13446000Y-7118000D01*
X13524750Y-7567250D02*
X13524750Y-7164500D01*
D26*
X18871000Y-9199000D02*
X18911000Y-9239000D01*
D27*
X20066000Y-8077000D02*
X20066000Y-8585000D01*
X19197000Y-6884000D02*
X19443000Y-7130000D01*
X16003000Y-10753000D02*
X16096000Y-10753000D01*
X16147000Y-10244000D02*
X16147000Y-10752000D01*
D26*
X13318125Y-9375250D02*
X13383125Y-9310250D01*
D27*
X13946000Y-7222000D02*
X13438000Y-7222000D01*
D26*
X18795000Y-8812250D02*
X18795000Y-9167000D01*
X18911000Y-9239000D02*
X18914000Y-9242000D01*
X18871000Y-8812250D02*
X18871000Y-9199000D01*
D27*
X13478000Y-10045000D02*
X13654375Y-9868625D01*
X15998000Y-10243000D02*
X15998000Y-10751000D01*
X15664000Y-8256000D02*
X15910000Y-8502000D01*
D26*
X18718000Y-8812000D02*
X18768000Y-8812000D01*
D27*
X13027500Y-7721000D02*
X12874500Y-7721000D01*
D26*
X18729000Y-8823000D02*
X18729000Y-9173000D01*
D27*
X13018500Y-7773000D02*
X12865500Y-7773000D01*
X13928000Y-7606000D02*
X13420000Y-7606000D01*
D26*
X13694125Y-9857000D02*
X13398125Y-9857000D01*
D27*
X14016750Y-7150500D02*
X14025000Y-7142250D01*
D26*
X18833000Y-9161000D02*
X18911000Y-9239000D01*
D28*
X12452000Y-8526000D02*
X12452000Y-8726000D01*
D26*
X12928125Y-8986500D02*
X12928125Y-8859125D01*
X18631500Y-8812000D02*
X18718000Y-8812000D01*
D27*
X19993000Y-8083000D02*
X19993000Y-8591000D01*
X13546812Y-10040188D02*
X13723187Y-9863813D01*
X19493000Y-8309000D02*
X19493000Y-8817000D01*
D26*
X12790000Y-8721000D02*
X12457000Y-8721000D01*
X18857000Y-8812000D02*
X18997000Y-8812000D01*
D27*
X14016750Y-7566250D02*
X14016750Y-7150500D01*
X13407000Y-10022000D02*
X13653000Y-9776000D01*
D28*
X11905000Y-9122000D02*
X12360000Y-9122000D01*
D26*
X18760000Y-9187000D02*
X18941000Y-9368000D01*
X18768000Y-8812000D02*
X18857000Y-8812000D01*
D27*
X13015500Y-7604000D02*
X12862500Y-7604000D01*
X14204000Y-7592000D02*
X13696000Y-7592000D01*
X19374000Y-8311000D02*
X19374000Y-8819000D01*
X16884000Y-7444000D02*
X17392000Y-7444000D01*
D26*
X18831000Y-8811250D02*
X18833000Y-8813250D01*
D27*
X17274000Y-10040000D02*
X16766000Y-10040000D01*
X16453000Y-9060000D02*
X15945000Y-9060000D01*
D26*
X18795000Y-9167000D02*
X18921000Y-9293000D01*
D27*
X19373000Y-6752000D02*
X19619000Y-6998000D01*
X17004000Y-6464000D02*
X16496000Y-6464000D01*
D26*
X18643000Y-9182000D02*
X18893000Y-9432000D01*
D27*
X14210000Y-7103000D02*
X13702000Y-7103000D01*
D26*
X18566500Y-8747000D02*
X18631500Y-8812000D01*
D27*
X17019000Y-6322000D02*
X16511000Y-6322000D01*
D28*
X12452000Y-8726000D02*
X12452000Y-9122000D01*
D26*
X12457000Y-8721000D02*
X12452000Y-8726000D01*
D28*
X11863000Y-8499000D02*
X11863000Y-9095000D01*
D27*
X19491000Y-8981000D02*
X19999000Y-8981000D01*
D26*
X18729000Y-9173000D02*
X19013000Y-9457000D01*
X18857000Y-8944000D02*
X18989000Y-9076000D01*
D27*
X19493000Y-8600000D02*
X19493000Y-9108000D01*
X13524750Y-7164500D02*
X13531000Y-7158250D01*
D26*
X18888000Y-8852625D02*
X18888000Y-9239375D01*
D27*
X13654375Y-9868625D02*
X13654375Y-9850000D01*
D26*
X18833000Y-8813250D02*
X18833000Y-9161000D01*
X18673000Y-9161000D02*
X18951000Y-9439000D01*
X18997000Y-8357000D02*
X19375000Y-8357000D01*
D27*
X17270000Y-9876000D02*
X16762000Y-9876000D01*
X16477000Y-9198000D02*
X15969000Y-9198000D01*
X13427000Y-7515000D02*
X13935000Y-7515000D01*
X14274000Y-7471000D02*
X13766000Y-7471000D01*
D26*
X13318125Y-9777000D02*
X13318125Y-9559000D01*
X18857000Y-8812000D02*
X18857000Y-8944000D01*
X18643000Y-8813250D02*
X18643000Y-9182000D01*
D27*
X16882000Y-7286000D02*
X17390000Y-7286000D01*
D26*
%TO.N,+5V*%
X18286500Y-8989000D02*
X18388500Y-9091000D01*
X18388500Y-9091000D02*
X18436500Y-9091000D01*
X13871125Y-10198125D02*
X13871125Y-9649250D01*
X13647375Y-9377000D02*
X13643375Y-9381000D01*
X13643375Y-9381000D02*
X13449125Y-9381000D01*
X13647375Y-9515250D02*
X13694125Y-9562000D01*
X18311500Y-8812000D02*
X18424500Y-8812000D01*
X13449125Y-9381000D02*
X13383125Y-9447000D01*
X13647375Y-9377000D02*
X13647375Y-9515250D01*
X13383125Y-9447000D02*
X13383125Y-9559000D01*
X13871125Y-9649250D02*
X13776875Y-9555000D01*
X18286500Y-8837000D02*
X18311500Y-8812000D01*
X13776875Y-9555000D02*
X13689125Y-9555000D01*
X18286500Y-8914000D02*
X18286500Y-8837000D01*
X18286500Y-8914000D02*
X18286500Y-8989000D01*
%TO.N,Net-(U1-1B1)*%
X12993125Y-9559000D02*
X12993125Y-9232000D01*
X13058125Y-8986500D02*
X13058125Y-8728125D01*
X13058125Y-8728125D02*
X12660750Y-8330750D01*
X12660750Y-7995250D02*
X12719250Y-7936750D01*
X12660750Y-8330750D02*
X12660750Y-7995250D01*
X13133250Y-7936750D02*
X13236000Y-7834000D01*
X13058125Y-9167000D02*
X13058125Y-8986500D01*
X13236000Y-7834000D02*
X13236000Y-7355000D01*
X12993125Y-9232000D02*
X13058125Y-9167000D01*
X12719250Y-7936750D02*
X13133250Y-7936750D01*
D27*
%TO.N,Net-(C5-Pad2)*%
X13524750Y-8136750D02*
X13494750Y-8166750D01*
X13524750Y-7859750D02*
X13524750Y-8136750D01*
X13352750Y-8166750D02*
X13494750Y-8166750D01*
%TO.N,Net-(C6-Pad1)*%
X13836250Y-8168750D02*
X14014750Y-8168750D01*
X14016750Y-7858750D02*
X14016750Y-8141750D01*
X13835000Y-8170000D02*
X13836250Y-8168750D01*
X14016750Y-8141750D02*
X14051000Y-8176000D01*
D26*
%TO.N,Net-(U1-1B2)*%
X13058125Y-9294000D02*
X13123125Y-9229000D01*
X12827000Y-8365125D02*
X13021375Y-8559500D01*
X13123125Y-9229000D02*
X13123125Y-8986500D01*
X13123125Y-8661250D02*
X13021375Y-8559500D01*
X13058125Y-9559000D02*
X13058125Y-9294000D01*
X12827000Y-8167000D02*
X12827000Y-8365125D01*
X13123125Y-8986500D02*
X13123125Y-8661250D01*
D27*
%TO.N,Net-(C12-Pad2)*%
X14595000Y-9656000D02*
X14662000Y-9589000D01*
X14595000Y-9945000D02*
X14595000Y-9656000D01*
X14588000Y-9952000D02*
X14595000Y-9945000D01*
D26*
%TO.N,Net-(U1-1B3)*%
X13661125Y-8596250D02*
X13656937Y-8592063D01*
X13123125Y-9559000D02*
X13123125Y-9353000D01*
X13319312Y-8592063D02*
X13188125Y-8723250D01*
X13188125Y-9288000D02*
X13188125Y-8986500D01*
X13188125Y-8723250D02*
X13188125Y-8986500D01*
X13656937Y-8592063D02*
X13319312Y-8592063D01*
X13123125Y-9353000D02*
X13188125Y-9288000D01*
X14160000Y-8893000D02*
X13957875Y-8893000D01*
X13957875Y-8893000D02*
X13661125Y-8596250D01*
D27*
%TO.N,Net-(C1-Pad2)*%
X13531000Y-6865750D02*
X13531000Y-6638000D01*
X13236000Y-6717500D02*
X13320750Y-6632750D01*
X13525750Y-6632750D02*
X13644000Y-6632750D01*
X13531000Y-6638000D02*
X13525750Y-6632750D01*
X13320750Y-6632750D02*
X13525750Y-6632750D01*
X13236000Y-6855000D02*
X13236000Y-6717500D01*
%TO.N,Net-(C2-Pad1)*%
X14039000Y-6599000D02*
X14055000Y-6583000D01*
X14039000Y-6835750D02*
X14039000Y-6599000D01*
X14025000Y-6849750D02*
X14039000Y-6835750D01*
X14055000Y-6583000D02*
X14186000Y-6583000D01*
%TO.N,Net-(C2-Pad2)*%
X14524000Y-6745000D02*
X14686000Y-6583000D01*
X14524000Y-6956000D02*
X14524000Y-6745000D01*
D26*
%TO.N,Net-(U1-1B4)*%
X13878500Y-9150500D02*
X13853625Y-9125625D01*
X13853625Y-8901750D02*
X13648125Y-8696250D01*
X13853625Y-9125625D02*
X13853625Y-8901750D01*
X13253125Y-8771250D02*
X13253125Y-8986500D01*
X14162000Y-9434000D02*
X13853625Y-9125625D01*
X13188125Y-9409000D02*
X13253125Y-9344000D01*
X13253125Y-9344000D02*
X13253125Y-8986500D01*
X13328125Y-8696250D02*
X13253125Y-8771250D01*
X14162000Y-9589000D02*
X14162000Y-9434000D01*
X13188125Y-9559000D02*
X13188125Y-9409000D01*
X13648125Y-8696250D02*
X13328125Y-8696250D01*
D27*
%TO.N,Net-(C3-Pad1)*%
X15824000Y-6956000D02*
X15824000Y-7365500D01*
X16193000Y-6767000D02*
X16191000Y-6769000D01*
X15824000Y-7365500D02*
X15823500Y-7366000D01*
X16191000Y-6769000D02*
X16191000Y-6846000D01*
X16193000Y-6398000D02*
X16193000Y-6767000D01*
X16191000Y-6846000D02*
X16094000Y-6943000D01*
X16186000Y-6391000D02*
X16193000Y-6398000D01*
X15837000Y-6943000D02*
X15824000Y-6956000D01*
X16094000Y-6943000D02*
X15837000Y-6943000D01*
%TO.N,Net-(C4-Pad2)*%
X16870000Y-6948000D02*
X17027000Y-6948000D01*
X17027000Y-6948000D02*
X17030000Y-6951000D01*
X16691000Y-6769000D02*
X16870000Y-6948000D01*
%TO.N,Net-(C6-Pad2)*%
X14544000Y-8189500D02*
X14544000Y-7773000D01*
X14544000Y-7773000D02*
X14545000Y-7772000D01*
D29*
%TO.N,Net-(T1-AA)*%
X12624000Y-7433000D02*
X12581750Y-7475250D01*
X12945000Y-7112875D02*
X12624875Y-7433000D01*
X12928125Y-9559000D02*
X12928125Y-9169250D01*
X12581750Y-8369750D02*
X12993125Y-8781125D01*
X12945000Y-7089000D02*
X12945000Y-7112875D01*
X12624875Y-7433000D02*
X12624000Y-7433000D01*
X12993125Y-9104250D02*
X12993125Y-8986500D01*
X12581750Y-7475250D02*
X12581750Y-8369750D01*
X12928125Y-9169250D02*
X12993125Y-9104250D01*
X12993125Y-8781125D02*
X12993125Y-8986500D01*
D27*
%TO.N,Net-(J1-In)*%
X11845000Y-7689000D02*
X12156750Y-8000750D01*
X12156750Y-8000750D02*
X12156750Y-8753750D01*
D29*
%TO.N,Net-(T2-AA)*%
X18795500Y-8357000D02*
X18615500Y-8357000D01*
X18860500Y-8422000D02*
X18795500Y-8357000D01*
X18615500Y-8357000D02*
X18424500Y-8357000D01*
D26*
X18836000Y-6967000D02*
X18615000Y-7188000D01*
X18615000Y-7188000D02*
X18615000Y-8357000D01*
X18615000Y-8357000D02*
X18615500Y-8357000D01*
D29*
X18997000Y-8422000D02*
X18860500Y-8422000D01*
D26*
%TO.N,Net-(U2-1B1)*%
X18801500Y-8487000D02*
X18736500Y-8422000D01*
X18424000Y-6951000D02*
X18330000Y-6951000D01*
X18237500Y-8385000D02*
X18237500Y-8286500D01*
X18736500Y-8422000D02*
X18424500Y-8422000D01*
X18274500Y-8422000D02*
X18237500Y-8385000D01*
X18536000Y-7988000D02*
X18536000Y-7063000D01*
X18424500Y-8422000D02*
X18274500Y-8422000D01*
X18237500Y-8286500D02*
X18536000Y-7988000D01*
X18536000Y-7063000D02*
X18424000Y-6951000D01*
X18997000Y-8487000D02*
X18801500Y-8487000D01*
%TO.N,Net-(U2-1B2)*%
X18152500Y-8212500D02*
X18152500Y-8430000D01*
X18209500Y-8487000D02*
X18424500Y-8487000D01*
X18424500Y-8487000D02*
X18692500Y-8487000D01*
X18692500Y-8487000D02*
X18757500Y-8552000D01*
X18152500Y-8430000D02*
X18209500Y-8487000D01*
X18331000Y-7782000D02*
X18331000Y-8034000D01*
X18331000Y-8034000D02*
X18152500Y-8212500D01*
X18757500Y-8552000D02*
X18997000Y-8552000D01*
%TO.N,Net-(U2-1B3)*%
X18622500Y-8552000D02*
X18424500Y-8552000D01*
X18997000Y-8617000D02*
X18687500Y-8617000D01*
X18018000Y-9185000D02*
X18276000Y-9443000D01*
X18026500Y-8655500D02*
X18019000Y-8663000D01*
X18018000Y-8664000D02*
X18018000Y-9185000D01*
X18424500Y-8552000D02*
X18130000Y-8552000D01*
X18019000Y-8663000D02*
X18018000Y-8664000D01*
X18687500Y-8617000D02*
X18622500Y-8552000D01*
X18130000Y-8552000D02*
X18019000Y-8663000D01*
%TO.N,Net-(U2-1B4)*%
X18079000Y-8978000D02*
X18491000Y-9390000D01*
X18631500Y-8682000D02*
X18566500Y-8617000D01*
X18424500Y-8617000D02*
X18158000Y-8617000D01*
X18491000Y-10123000D02*
X18289000Y-10325000D01*
X18566500Y-8617000D02*
X18424500Y-8617000D01*
X18079000Y-8696000D02*
X18079000Y-8978000D01*
X18491000Y-9390000D02*
X18491000Y-10123000D01*
X18997000Y-8682000D02*
X18631500Y-8682000D01*
X18158000Y-8617000D02*
X18079000Y-8696000D01*
%TO.N,Net-(J3-Pin_4)*%
X13318125Y-8833250D02*
X13318125Y-8986500D01*
X13358125Y-8793250D02*
X13318125Y-8833250D01*
X13459125Y-8793250D02*
X13358125Y-8793250D01*
X19147500Y-8747000D02*
X19176000Y-8775500D01*
X19146500Y-8746000D02*
X19176000Y-8775500D01*
X19176000Y-8775500D02*
X19176000Y-8846500D01*
X19146500Y-8877000D02*
X19078500Y-8945000D01*
X19176000Y-8846500D02*
X19146500Y-8876000D01*
X18997000Y-8747000D02*
X19147500Y-8747000D01*
%TO.N,Net-(J3-Pin_3)*%
X13253125Y-9559000D02*
X13253125Y-9856250D01*
X18207500Y-8682000D02*
X18424500Y-8682000D01*
X18164500Y-8725000D02*
X18207500Y-8682000D01*
D27*
%TO.N,Net-(J4-In)*%
X19739000Y-8151500D02*
X19739000Y-8742500D01*
X19436000Y-8067000D02*
X19654500Y-8067000D01*
X19654500Y-8067000D02*
X19739000Y-8151500D01*
%TO.N,Net-(C8-Pad2)*%
X17031000Y-7913000D02*
X16688000Y-8256000D01*
X17031000Y-7782000D02*
X17031000Y-7913000D01*
%TO.N,Net-(C9-Pad2)*%
X14641000Y-9264500D02*
X14641000Y-8912000D01*
X14641000Y-8912000D02*
X14660000Y-8893000D01*
%TO.N,Net-(C10-Pad1)*%
X15523000Y-8546000D02*
X15784000Y-8807000D01*
X15641000Y-9299000D02*
X15641000Y-8664000D01*
X15765000Y-9423000D02*
X15641000Y-9299000D01*
X16291000Y-9419000D02*
X15702000Y-9419000D01*
X15784000Y-8807000D02*
X15841000Y-8807000D01*
X15641000Y-8664000D02*
X15631500Y-8654500D01*
%TO.N,Net-(C7-Pad1)*%
X16511000Y-8651000D02*
X16192000Y-8651000D01*
X16515000Y-8655000D02*
X16511000Y-8651000D01*
X16192000Y-8651000D02*
X16189000Y-8648000D01*
X16188000Y-8647000D02*
X16189000Y-8648000D01*
X16188000Y-8256000D02*
X16188000Y-8115000D01*
X16188000Y-8115000D02*
X15845000Y-7772000D01*
X16188000Y-8256000D02*
X16188000Y-8196000D01*
X16188000Y-8256000D02*
X16188000Y-8647000D01*
%TO.N,Net-(C11-Pad2)*%
X17252000Y-9419000D02*
X17276000Y-9443000D01*
X16791000Y-9419000D02*
X17252000Y-9419000D01*
%TO.N,Net-(C13-Pad1)*%
X16504000Y-10324000D02*
X16504000Y-9949000D01*
X16501000Y-10327000D02*
X16504000Y-10324000D01*
X15877000Y-9692000D02*
X15617000Y-9952000D01*
X15617000Y-9952000D02*
X15588000Y-9952000D01*
X16504000Y-9936000D02*
X16260000Y-9692000D01*
X16260000Y-9692000D02*
X15877000Y-9692000D01*
X16504000Y-9949000D02*
X16504000Y-9936000D01*
%TO.N,Net-(C14-Pad2)*%
X17287000Y-10327000D02*
X17289000Y-10325000D01*
X17001000Y-10327000D02*
X17287000Y-10327000D01*
%TD*%
%TA.AperFunction,Conductor*%
%TO.N,GND*%
G36*
X20166743Y-6185670D02*
G01*
X20171287Y-6190209D01*
X20172950Y-6196413D01*
X20172950Y-8378013D01*
X20171289Y-8384213D01*
X20166750Y-8388752D01*
X20160550Y-8390413D01*
X20154350Y-8388752D01*
X20149811Y-8384213D01*
X20143997Y-8374143D01*
X20139213Y-8368143D01*
X20034355Y-8473000D01*
X20034355Y-8473000D01*
X20139212Y-8577857D01*
X20143997Y-8571857D01*
X20149811Y-8561787D01*
X20154350Y-8557248D01*
X20160550Y-8555587D01*
X20166750Y-8557248D01*
X20171289Y-8561787D01*
X20172950Y-8567987D01*
X20172950Y-8886013D01*
X20171289Y-8892213D01*
X20166750Y-8896752D01*
X20160550Y-8898413D01*
X20154350Y-8896752D01*
X20149811Y-8892213D01*
X20143997Y-8882143D01*
X20139213Y-8876143D01*
X20034355Y-8981000D01*
X20034355Y-8981000D01*
X20139212Y-9085857D01*
X20143997Y-9079857D01*
X20149811Y-9069787D01*
X20154350Y-9065248D01*
X20160550Y-9063587D01*
X20166750Y-9065248D01*
X20171289Y-9069787D01*
X20172950Y-9075987D01*
X20172950Y-11064550D01*
X20171289Y-11070750D01*
X20166750Y-11075289D01*
X20160550Y-11076950D01*
X11664400Y-11076950D01*
X11658200Y-11075289D01*
X11653661Y-11070750D01*
X11652000Y-11064550D01*
X11652000Y-10634000D01*
X11814480Y-10634000D01*
X11816358Y-10657860D01*
X11821945Y-10681131D01*
X11826447Y-10692000D01*
X11831103Y-10703243D01*
X11839005Y-10716137D01*
X11843609Y-10723649D01*
X11859152Y-10741848D01*
X11877351Y-10757391D01*
X11877351Y-10757391D01*
X11877351Y-10757391D01*
X11897757Y-10769897D01*
X11913363Y-10776361D01*
X11919869Y-10779055D01*
X11927221Y-10780820D01*
X11943141Y-10784642D01*
X11967000Y-10786520D01*
X11990859Y-10784642D01*
X12014131Y-10779055D01*
X12036243Y-10769897D01*
X12056649Y-10757391D01*
X12074848Y-10741848D01*
X12090391Y-10723649D01*
X12102896Y-10703243D01*
X12112055Y-10681131D01*
X12117642Y-10657859D01*
X12119520Y-10634000D01*
X12117642Y-10610141D01*
X12112055Y-10586869D01*
X12102896Y-10564757D01*
X12090391Y-10544351D01*
X12090391Y-10544351D01*
X12090391Y-10544351D01*
X12074848Y-10526152D01*
X12056649Y-10510609D01*
X12041579Y-10501374D01*
X12036243Y-10498104D01*
X12027423Y-10494450D01*
X12014131Y-10488945D01*
X11990859Y-10483358D01*
X11967000Y-10481480D01*
X11943140Y-10483358D01*
X11919869Y-10488945D01*
X11897757Y-10498104D01*
X11877351Y-10510609D01*
X11859152Y-10526152D01*
X11843609Y-10544351D01*
X11831104Y-10564757D01*
X11821945Y-10586869D01*
X11816358Y-10610140D01*
X11814480Y-10634000D01*
X11652000Y-10634000D01*
X11652000Y-10426750D01*
X12773192Y-10426750D01*
X12775220Y-10447343D01*
X12776557Y-10451750D01*
X12781227Y-10467145D01*
X12790981Y-10485395D01*
X12794901Y-10490171D01*
X12804109Y-10501391D01*
X12811993Y-10507861D01*
X12820105Y-10514519D01*
X12838355Y-10524273D01*
X12858157Y-10530280D01*
X12878750Y-10532308D01*
X12899343Y-10530280D01*
X12919145Y-10524273D01*
X12937395Y-10514519D01*
X12953391Y-10501391D01*
X12966518Y-10485395D01*
X12976273Y-10467145D01*
X12982280Y-10447343D01*
X12984308Y-10426750D01*
X13027192Y-10426750D01*
X13029220Y-10447343D01*
X13030557Y-10451750D01*
X13035227Y-10467145D01*
X13044981Y-10485395D01*
X13048901Y-10490171D01*
X13058109Y-10501391D01*
X13065993Y-10507861D01*
X13074105Y-10514519D01*
X13092355Y-10524273D01*
X13112157Y-10530280D01*
X13132750Y-10532308D01*
X13153343Y-10530280D01*
X13173145Y-10524273D01*
X13191395Y-10514519D01*
X13207391Y-10501391D01*
X13220518Y-10485395D01*
X13230273Y-10467145D01*
X13236280Y-10447343D01*
X13238308Y-10426750D01*
X13236280Y-10406157D01*
X13230273Y-10386355D01*
X13220518Y-10368105D01*
X13207797Y-10352603D01*
X13207391Y-10352109D01*
X13191567Y-10339123D01*
X13191395Y-10338982D01*
X13173145Y-10329227D01*
X13163244Y-10326223D01*
X13153343Y-10323220D01*
X13132750Y-10321192D01*
X13112157Y-10323220D01*
X13092354Y-10329227D01*
X13074105Y-10338981D01*
X13058109Y-10352109D01*
X13044981Y-10368105D01*
X13035227Y-10386354D01*
X13029220Y-10406157D01*
X13027192Y-10426750D01*
X12984308Y-10426750D01*
X12982280Y-10406157D01*
X12976273Y-10386355D01*
X12966518Y-10368105D01*
X12953797Y-10352603D01*
X12953391Y-10352109D01*
X12937567Y-10339123D01*
X12937395Y-10338982D01*
X12919145Y-10329227D01*
X12909244Y-10326223D01*
X12899343Y-10323220D01*
X12878750Y-10321192D01*
X12858157Y-10323220D01*
X12838354Y-10329227D01*
X12820105Y-10338981D01*
X12804109Y-10352109D01*
X12790981Y-10368105D01*
X12781227Y-10386354D01*
X12775220Y-10406157D01*
X12773192Y-10426750D01*
X11652000Y-10426750D01*
X11652000Y-9200010D01*
X11717950Y-9200010D01*
X11717962Y-9200038D01*
X11717981Y-9200046D01*
X11718000Y-9200054D01*
X11718000Y-9200054D01*
X11718000Y-9200054D01*
X11718013Y-9200049D01*
X11718038Y-9200038D01*
X11718050Y-9200010D01*
X11718050Y-9164272D01*
X11809083Y-9164272D01*
X11826255Y-9175979D01*
X11849886Y-9187360D01*
X11874950Y-9195091D01*
X11900886Y-9199000D01*
X11927114Y-9199000D01*
X11953050Y-9195091D01*
X11978114Y-9187360D01*
X12001746Y-9175979D01*
X12018917Y-9164272D01*
X12317083Y-9164272D01*
X12334255Y-9175979D01*
X12357886Y-9187360D01*
X12382950Y-9195091D01*
X12408886Y-9199000D01*
X12435114Y-9199000D01*
X12461050Y-9195091D01*
X12486114Y-9187360D01*
X12509746Y-9175979D01*
X12526917Y-9164272D01*
X12422000Y-9059355D01*
X12422000Y-9059355D01*
X12317083Y-9164272D01*
X12018917Y-9164272D01*
X11914000Y-9059355D01*
X11914000Y-9059355D01*
X11809083Y-9164272D01*
X11718050Y-9164272D01*
X11718050Y-9061983D01*
X11719487Y-9056189D01*
X11723465Y-9051737D01*
X11729062Y-9049661D01*
X11734980Y-9050440D01*
X11739849Y-9053894D01*
X11742539Y-9059223D01*
X11746306Y-9075727D01*
X11755888Y-9100142D01*
X11769003Y-9122857D01*
X11773787Y-9128857D01*
X11878645Y-9024000D01*
X11773787Y-8919143D01*
X11769003Y-8925143D01*
X11755888Y-8947858D01*
X11746306Y-8972273D01*
X11742539Y-8988777D01*
X11739849Y-8994106D01*
X11734980Y-8997560D01*
X11729062Y-8998339D01*
X11723465Y-8996263D01*
X11719487Y-8991811D01*
X11718050Y-8986017D01*
X11718050Y-8553983D01*
X11719487Y-8548189D01*
X11723465Y-8543737D01*
X11729062Y-8541661D01*
X11734980Y-8542440D01*
X11739849Y-8545894D01*
X11742539Y-8551223D01*
X11746306Y-8567727D01*
X11755888Y-8592142D01*
X11769003Y-8614857D01*
X11773787Y-8620857D01*
X11773787Y-8620857D01*
X11878645Y-8516000D01*
X11878645Y-8516000D01*
X11773787Y-8411143D01*
X11769003Y-8417142D01*
X11755888Y-8439858D01*
X11746306Y-8464273D01*
X11742539Y-8480777D01*
X11739849Y-8486106D01*
X11734980Y-8489560D01*
X11729062Y-8490339D01*
X11723465Y-8488263D01*
X11719487Y-8483811D01*
X11718050Y-8478017D01*
X11718050Y-8339990D01*
X11718038Y-8339962D01*
X11718038Y-8339962D01*
X11718038Y-8339962D01*
X11718000Y-8339946D01*
X11718000Y-8339946D01*
X11717962Y-8339962D01*
X11717962Y-8339962D01*
X11717950Y-8339990D01*
X11717950Y-8339990D01*
X11717950Y-9200010D01*
X11652000Y-9200010D01*
X11652000Y-7689000D01*
X11724436Y-7689000D01*
X11724614Y-7690923D01*
X11724653Y-7692639D01*
X11724564Y-7694568D01*
X11725678Y-7702553D01*
X11725744Y-7703122D01*
X11726488Y-7711154D01*
X11727017Y-7713012D01*
X11727371Y-7714691D01*
X11727638Y-7716603D01*
X11727638Y-7716603D01*
X11730042Y-7723775D01*
X11730200Y-7724248D01*
X11730370Y-7724795D01*
X11732577Y-7732552D01*
X11733437Y-7734281D01*
X11734094Y-7735867D01*
X11734708Y-7737698D01*
X11734708Y-7737698D01*
X11736284Y-7740527D01*
X11738633Y-7744744D01*
X11738900Y-7745251D01*
X11742494Y-7752469D01*
X11743658Y-7754010D01*
X11744595Y-7755448D01*
X11745535Y-7757135D01*
X11745535Y-7757135D01*
X11750687Y-7763339D01*
X11751042Y-7763788D01*
X11755902Y-7770223D01*
X11761861Y-7775656D01*
X11762276Y-7776052D01*
X12033068Y-8046844D01*
X12035756Y-8050867D01*
X12036700Y-8055612D01*
X12036700Y-8364390D01*
X12034921Y-8370790D01*
X12030094Y-8375353D01*
X12023605Y-8376771D01*
X12017315Y-8374636D01*
X12001745Y-8364020D01*
X11978114Y-8352640D01*
X11953050Y-8344909D01*
X11927114Y-8341000D01*
X11900886Y-8341000D01*
X11874950Y-8344909D01*
X11849886Y-8352640D01*
X11826254Y-8364021D01*
X11809083Y-8375728D01*
X11940587Y-8507232D01*
X11943796Y-8512791D01*
X11943796Y-8519209D01*
X11940587Y-8524768D01*
X11809083Y-8656272D01*
X11826255Y-8667979D01*
X11849886Y-8679360D01*
X11874950Y-8687091D01*
X11900886Y-8691000D01*
X11927114Y-8691000D01*
X11953050Y-8687091D01*
X11978114Y-8679360D01*
X12001746Y-8667979D01*
X12013692Y-8659835D01*
X12019030Y-8657790D01*
X12024719Y-8658357D01*
X12029549Y-8661417D01*
X12032492Y-8666318D01*
X12032838Y-8670881D01*
X12032950Y-8670881D01*
X12032950Y-8869119D01*
X12032838Y-8869119D01*
X12032493Y-8873681D01*
X12029549Y-8878583D01*
X12024720Y-8881643D01*
X12019031Y-8882210D01*
X12013692Y-8880166D01*
X12001745Y-8872021D01*
X11978114Y-8860640D01*
X11953050Y-8852909D01*
X11927114Y-8849000D01*
X11900886Y-8849000D01*
X11874950Y-8852909D01*
X11849886Y-8860640D01*
X11826254Y-8872021D01*
X11809083Y-8883728D01*
X12054212Y-9128857D01*
X12058997Y-9122857D01*
X12072112Y-9100142D01*
X12081694Y-9075727D01*
X12087531Y-9050155D01*
X12089491Y-9024000D01*
X12087531Y-8997845D01*
X12081694Y-8972273D01*
X12072112Y-8947858D01*
X12058533Y-8924338D01*
X12058608Y-8924294D01*
X12056530Y-8919799D01*
X12056808Y-8913908D01*
X12059776Y-8908812D01*
X12064763Y-8905663D01*
X12068881Y-8905320D01*
X12068881Y-8905050D01*
X12069857Y-8905050D01*
X12069857Y-8905050D01*
X12168005Y-8905050D01*
X12267119Y-8905050D01*
X12267119Y-8905321D01*
X12271233Y-8905661D01*
X12276221Y-8908809D01*
X12279191Y-8913905D01*
X12279470Y-8919797D01*
X12277392Y-8924294D01*
X12277467Y-8924338D01*
X12263888Y-8947858D01*
X12254306Y-8972273D01*
X12248469Y-8997845D01*
X12246509Y-9024000D01*
X12248469Y-9050155D01*
X12254306Y-9075727D01*
X12263888Y-9100142D01*
X12277003Y-9122857D01*
X12281787Y-9128857D01*
X12386645Y-9024000D01*
X12457355Y-9024000D01*
X12562212Y-9128857D01*
X12566997Y-9122857D01*
X12580112Y-9100142D01*
X12589694Y-9075727D01*
X12595531Y-9050155D01*
X12597491Y-9024000D01*
X12595531Y-8997845D01*
X12589694Y-8972273D01*
X12580112Y-8947858D01*
X12566997Y-8925143D01*
X12562212Y-8919143D01*
X12457355Y-9024000D01*
X12386645Y-9024000D01*
X12422000Y-8988645D01*
X12526917Y-8883728D01*
X12509745Y-8872021D01*
X12486114Y-8860640D01*
X12461050Y-8852909D01*
X12435114Y-8849000D01*
X12408886Y-8849000D01*
X12382950Y-8852909D01*
X12357886Y-8860640D01*
X12334254Y-8872021D01*
X12322308Y-8880166D01*
X12316969Y-8882210D01*
X12311280Y-8881643D01*
X12306450Y-8878583D01*
X12303507Y-8873681D01*
X12303162Y-8869119D01*
X12303050Y-8869119D01*
X12303050Y-8670881D01*
X12303162Y-8670881D01*
X12303507Y-8666319D01*
X12306450Y-8661418D01*
X12311280Y-8658357D01*
X12316969Y-8657789D01*
X12322308Y-8659834D01*
X12334255Y-8667980D01*
X12357886Y-8679360D01*
X12382950Y-8687091D01*
X12408886Y-8691000D01*
X12435114Y-8691000D01*
X12461050Y-8687091D01*
X12486114Y-8679360D01*
X12509746Y-8667979D01*
X12526917Y-8656272D01*
X12422000Y-8551355D01*
X12280432Y-8409787D01*
X12277744Y-8405765D01*
X12276800Y-8401019D01*
X12276800Y-8375728D01*
X12317083Y-8375728D01*
X12562212Y-8620857D01*
X12566997Y-8614857D01*
X12580112Y-8592142D01*
X12589694Y-8567727D01*
X12595531Y-8542155D01*
X12597491Y-8516000D01*
X12595531Y-8489845D01*
X12592508Y-8476603D01*
X12592721Y-8470278D01*
X12596028Y-8464881D01*
X12601567Y-8461820D01*
X12607896Y-8461891D01*
X12613365Y-8465076D01*
X12944443Y-8796153D01*
X12947131Y-8800176D01*
X12948075Y-8804922D01*
X12948075Y-8827742D01*
X12946410Y-8833948D01*
X12941864Y-8838487D01*
X12935655Y-8840142D01*
X12846000Y-8840000D01*
X12846000Y-9697000D01*
X13200695Y-9697561D01*
X13206886Y-9699229D01*
X13211417Y-9703767D01*
X13213075Y-9709961D01*
X13213075Y-9805592D01*
X13212417Y-9809578D01*
X13210513Y-9813141D01*
X13200671Y-9825966D01*
X13194621Y-9840574D01*
X13192557Y-9856250D01*
X13194621Y-9871926D01*
X13200671Y-9886534D01*
X13210297Y-9899078D01*
X13222841Y-9908704D01*
X13222841Y-9908704D01*
X13237449Y-9914754D01*
X13253125Y-9916818D01*
X13268801Y-9914754D01*
X13283409Y-9908704D01*
X13295953Y-9899078D01*
X13305579Y-9886534D01*
X13310356Y-9875000D01*
X13514375Y-9875000D01*
X13514375Y-9887498D01*
X13515424Y-9897770D01*
X13520939Y-9914412D01*
X13530143Y-9929335D01*
X13542540Y-9941732D01*
X13557463Y-9950936D01*
X13574105Y-9956451D01*
X13584377Y-9957500D01*
X13629375Y-9957500D01*
X13629375Y-9875000D01*
X13679375Y-9875000D01*
X13679375Y-9957500D01*
X13724373Y-9957500D01*
X13734644Y-9956451D01*
X13751287Y-9950936D01*
X13766209Y-9941732D01*
X13778607Y-9929335D01*
X13787811Y-9914412D01*
X13793326Y-9897770D01*
X13794375Y-9887498D01*
X13794375Y-9875000D01*
X13679375Y-9875000D01*
X13629375Y-9875000D01*
X13514375Y-9875000D01*
X13310356Y-9875000D01*
X13311629Y-9871926D01*
X13313693Y-9856250D01*
X13311629Y-9840574D01*
X13305579Y-9825966D01*
X13304837Y-9825000D01*
X13514375Y-9825000D01*
X13629375Y-9825000D01*
X13629375Y-9742500D01*
X13584377Y-9742500D01*
X13574105Y-9743549D01*
X13557463Y-9749064D01*
X13542540Y-9758268D01*
X13530143Y-9770665D01*
X13520939Y-9785588D01*
X13515424Y-9802230D01*
X13514375Y-9812502D01*
X13514375Y-9825000D01*
X13304837Y-9825000D01*
X13299852Y-9818503D01*
X13295737Y-9813141D01*
X13293833Y-9809578D01*
X13293175Y-9805592D01*
X13293175Y-9742500D01*
X13679375Y-9742500D01*
X13679375Y-9825000D01*
X13794375Y-9825000D01*
X13794375Y-9812502D01*
X13793326Y-9802230D01*
X13787811Y-9785588D01*
X13778607Y-9770665D01*
X13766209Y-9758268D01*
X13751287Y-9749064D01*
X13734645Y-9743549D01*
X13724373Y-9742500D01*
X13679375Y-9742500D01*
X13293175Y-9742500D01*
X13293175Y-9710127D01*
X13294840Y-9703922D01*
X13299386Y-9699382D01*
X13305594Y-9697727D01*
X13478000Y-9698000D01*
X13478000Y-9433450D01*
X13479661Y-9427250D01*
X13484200Y-9422711D01*
X13490400Y-9421050D01*
X13594925Y-9421050D01*
X13601125Y-9422711D01*
X13605664Y-9427250D01*
X13607325Y-9433450D01*
X13607325Y-9465050D01*
X13605664Y-9471250D01*
X13601125Y-9475789D01*
X13594925Y-9477450D01*
X13583948Y-9477450D01*
X13580905Y-9477735D01*
X13568086Y-9482221D01*
X13557160Y-9490285D01*
X13549096Y-9501212D01*
X13544610Y-9514030D01*
X13544325Y-9517073D01*
X13544325Y-9592927D01*
X13544610Y-9595970D01*
X13549096Y-9608788D01*
X13557160Y-9619715D01*
X13568086Y-9627779D01*
X13568087Y-9627779D01*
X13580905Y-9632265D01*
X13582122Y-9632379D01*
X13583948Y-9632550D01*
X13583948Y-9632550D01*
X13724802Y-9632550D01*
X13724802Y-9632550D01*
X13726323Y-9632407D01*
X13727845Y-9632265D01*
X13740663Y-9627779D01*
X13740663Y-9627779D01*
X13740663Y-9627779D01*
X13751590Y-9619715D01*
X13751590Y-9619715D01*
X13751590Y-9619715D01*
X13757200Y-9612114D01*
X13761179Y-9608625D01*
X13766250Y-9607112D01*
X13771490Y-9607852D01*
X13775945Y-9610709D01*
X13827443Y-9662207D01*
X13830131Y-9666230D01*
X13831075Y-9670975D01*
X13831075Y-10150550D01*
X13829414Y-10156750D01*
X13824875Y-10161289D01*
X13818675Y-10162950D01*
X13469822Y-10162950D01*
X13469821Y-10162950D01*
X13467657Y-10162950D01*
X13465550Y-10163635D01*
X13463658Y-10164089D01*
X13461469Y-10164435D01*
X13459495Y-10165441D01*
X13457698Y-10166186D01*
X13455591Y-10166870D01*
X13453798Y-10168173D01*
X13452140Y-10169189D01*
X13450166Y-10170195D01*
X13442051Y-10178309D01*
X13442050Y-10178310D01*
X13356201Y-10264160D01*
X13353945Y-10266416D01*
X13352939Y-10268390D01*
X13351923Y-10270048D01*
X13350620Y-10271841D01*
X13349935Y-10273949D01*
X13349191Y-10275745D01*
X13348185Y-10277720D01*
X13347839Y-10279908D01*
X13347385Y-10281799D01*
X13346700Y-10283907D01*
X13346700Y-10321610D01*
X13344936Y-10327985D01*
X13340145Y-10332546D01*
X13335343Y-10335113D01*
X13328105Y-10338981D01*
X13312109Y-10352109D01*
X13298981Y-10368105D01*
X13289227Y-10386354D01*
X13283220Y-10406157D01*
X13281192Y-10426750D01*
X13283220Y-10447343D01*
X13284557Y-10451750D01*
X13289227Y-10467145D01*
X13298981Y-10485395D01*
X13302901Y-10490171D01*
X13312109Y-10501391D01*
X13319993Y-10507861D01*
X13328105Y-10514519D01*
X13346355Y-10524273D01*
X13366157Y-10530280D01*
X13386750Y-10532308D01*
X13407343Y-10530280D01*
X13427145Y-10524273D01*
X13445395Y-10514519D01*
X13461391Y-10501391D01*
X13474518Y-10485395D01*
X13482414Y-10470623D01*
X13486871Y-10465896D01*
X13493107Y-10464071D01*
X13499409Y-10465650D01*
X13504048Y-10470199D01*
X13505750Y-10476469D01*
X13505750Y-10516532D01*
X13506390Y-10522488D01*
X13511415Y-10535959D01*
X13520031Y-10547469D01*
X13531541Y-10556085D01*
X13545012Y-10561110D01*
X13550968Y-10561750D01*
X13615750Y-10561750D01*
X13615750Y-10451750D01*
X13665750Y-10451750D01*
X13665750Y-10561750D01*
X13730532Y-10561750D01*
X13736487Y-10561110D01*
X13749959Y-10556085D01*
X13761469Y-10547469D01*
X13770085Y-10535959D01*
X13775110Y-10522488D01*
X13775750Y-10516532D01*
X13775750Y-10451750D01*
X13665750Y-10451750D01*
X13615750Y-10451750D01*
X13615750Y-10291750D01*
X13665750Y-10291750D01*
X13665750Y-10401750D01*
X13775750Y-10401750D01*
X13775750Y-10336968D01*
X13775110Y-10331012D01*
X13770085Y-10317541D01*
X13761469Y-10306031D01*
X13749959Y-10297415D01*
X13736487Y-10292390D01*
X13730532Y-10291750D01*
X13665750Y-10291750D01*
X13615750Y-10291750D01*
X13550968Y-10291750D01*
X13545012Y-10292390D01*
X13531541Y-10297415D01*
X13520031Y-10306031D01*
X13511415Y-10317541D01*
X13506390Y-10331012D01*
X13505750Y-10336968D01*
X13505750Y-10377031D01*
X13504048Y-10383302D01*
X13499409Y-10387850D01*
X13493107Y-10389429D01*
X13486871Y-10387604D01*
X13482414Y-10382877D01*
X13481272Y-10380740D01*
X13474518Y-10368105D01*
X13461797Y-10352603D01*
X13461391Y-10352109D01*
X13445567Y-10339123D01*
X13445395Y-10338982D01*
X13433355Y-10332546D01*
X13428564Y-10327985D01*
X13426800Y-10321610D01*
X13426800Y-10311976D01*
X13427744Y-10307230D01*
X13430432Y-10303207D01*
X13486957Y-10246682D01*
X13490980Y-10243994D01*
X13495725Y-10243050D01*
X13818550Y-10243050D01*
X13824750Y-10244711D01*
X13829289Y-10249250D01*
X13830950Y-10255450D01*
X13830950Y-10747344D01*
X13831635Y-10749451D01*
X13832089Y-10751342D01*
X13832435Y-10753530D01*
X13833441Y-10755504D01*
X13834186Y-10757302D01*
X13834870Y-10759409D01*
X13836173Y-10761201D01*
X13837189Y-10762860D01*
X13838195Y-10764834D01*
X13838195Y-10764834D01*
X13838195Y-10764834D01*
X13839828Y-10766468D01*
X13839830Y-10766469D01*
X14051777Y-10978416D01*
X14051778Y-10978417D01*
X14053166Y-10979805D01*
X14055139Y-10980811D01*
X14055139Y-10980811D01*
X14056798Y-10981827D01*
X14058591Y-10983130D01*
X14060698Y-10983814D01*
X14062496Y-10984559D01*
X14064470Y-10985565D01*
X14066658Y-10985911D01*
X14068549Y-10986365D01*
X14070657Y-10987050D01*
X14073848Y-10987050D01*
X14083343Y-10987050D01*
X18112657Y-10987050D01*
X18122152Y-10987050D01*
X18125343Y-10987050D01*
X18127450Y-10986366D01*
X18129341Y-10985911D01*
X18131530Y-10985565D01*
X18133504Y-10984559D01*
X18135302Y-10983814D01*
X18137409Y-10983130D01*
X18139202Y-10981827D01*
X18140860Y-10980811D01*
X18142834Y-10979805D01*
X18143667Y-10978972D01*
X18143668Y-10978971D01*
X18489640Y-10633000D01*
X19707103Y-10633000D01*
X19709084Y-10658170D01*
X19714978Y-10682720D01*
X19724639Y-10706046D01*
X19735654Y-10724020D01*
X19737831Y-10727573D01*
X19754229Y-10746772D01*
X19773427Y-10763169D01*
X19778809Y-10766467D01*
X19794954Y-10776361D01*
X19818280Y-10786022D01*
X19818280Y-10786022D01*
X19818280Y-10786022D01*
X19842830Y-10791916D01*
X19868000Y-10793897D01*
X19893170Y-10791916D01*
X19917720Y-10786022D01*
X19917720Y-10786022D01*
X19917720Y-10786022D01*
X19941046Y-10776361D01*
X19946214Y-10773193D01*
X19962573Y-10763169D01*
X19981772Y-10746772D01*
X19998169Y-10727573D01*
X20011361Y-10706046D01*
X20011361Y-10706046D01*
X20021022Y-10682720D01*
X20021067Y-10682536D01*
X20026916Y-10658170D01*
X20028897Y-10633000D01*
X20026916Y-10607830D01*
X20021022Y-10583280D01*
X20021022Y-10583280D01*
X20021022Y-10583280D01*
X20011361Y-10559954D01*
X20002866Y-10546092D01*
X19998169Y-10538427D01*
X19981772Y-10519229D01*
X19962573Y-10502831D01*
X19959562Y-10500986D01*
X19941046Y-10489639D01*
X19917720Y-10479978D01*
X19893170Y-10474084D01*
X19868000Y-10472103D01*
X19842830Y-10474084D01*
X19818280Y-10479978D01*
X19794954Y-10489639D01*
X19773427Y-10502831D01*
X19754229Y-10519229D01*
X19737831Y-10538427D01*
X19724639Y-10559954D01*
X19714978Y-10583280D01*
X19709084Y-10607830D01*
X19707103Y-10633000D01*
X18489640Y-10633000D01*
X18611971Y-10510668D01*
X18611972Y-10510667D01*
X18612805Y-10509834D01*
X18613811Y-10507860D01*
X18614827Y-10506202D01*
X18616130Y-10504409D01*
X18616814Y-10502301D01*
X18617559Y-10500504D01*
X18618565Y-10498531D01*
X18618565Y-10498531D01*
X18618565Y-10498530D01*
X18618911Y-10496342D01*
X18619365Y-10494451D01*
X18620050Y-10492343D01*
X18620050Y-10479657D01*
X18620050Y-9335848D01*
X18620050Y-9334822D01*
X18620050Y-9334821D01*
X18620050Y-9332657D01*
X18619618Y-9331328D01*
X18619365Y-9330550D01*
X18618911Y-9328658D01*
X18618565Y-9326470D01*
X18618565Y-9326470D01*
X18617558Y-9324495D01*
X18616814Y-9322698D01*
X18616130Y-9320591D01*
X18614828Y-9318799D01*
X18613810Y-9317139D01*
X18613482Y-9316494D01*
X18612805Y-9315166D01*
X18603834Y-9306195D01*
X18502238Y-9204599D01*
X18499203Y-9199633D01*
X18498768Y-9193830D01*
X18501029Y-9188467D01*
X18501215Y-9188215D01*
X18509279Y-9177288D01*
X18513765Y-9164470D01*
X18514050Y-9161427D01*
X18514050Y-9116000D01*
X18624000Y-9116000D01*
X18624000Y-9160998D01*
X18625049Y-9171270D01*
X18630564Y-9187912D01*
X18639768Y-9202835D01*
X18652165Y-9215232D01*
X18667088Y-9224436D01*
X18683730Y-9229951D01*
X18694002Y-9231000D01*
X18706500Y-9231000D01*
X18706500Y-9116000D01*
X18756500Y-9116000D01*
X18756500Y-9231000D01*
X18768998Y-9231000D01*
X18779270Y-9229951D01*
X18795912Y-9224436D01*
X18810835Y-9215232D01*
X18823232Y-9202835D01*
X18832436Y-9187912D01*
X18837951Y-9171270D01*
X18839000Y-9160998D01*
X18839000Y-9121272D01*
X19386083Y-9121272D01*
X19403255Y-9132979D01*
X19426886Y-9144360D01*
X19451950Y-9152091D01*
X19477886Y-9156000D01*
X19504114Y-9156000D01*
X19530050Y-9152091D01*
X19555114Y-9144360D01*
X19578746Y-9132979D01*
X19595917Y-9121272D01*
X19894083Y-9121272D01*
X19911255Y-9132979D01*
X19934886Y-9144360D01*
X19959950Y-9152091D01*
X19985886Y-9156000D01*
X20012114Y-9156000D01*
X20038050Y-9152091D01*
X20063114Y-9144360D01*
X20086746Y-9132979D01*
X20103917Y-9121272D01*
X19999000Y-9016355D01*
X19999000Y-9016355D01*
X19894083Y-9121272D01*
X19595917Y-9121272D01*
X19491000Y-9016355D01*
X19491000Y-9016355D01*
X19386083Y-9121272D01*
X18839000Y-9121272D01*
X18839000Y-9116000D01*
X18756500Y-9116000D01*
X18706500Y-9116000D01*
X18624000Y-9116000D01*
X18514050Y-9116000D01*
X18514050Y-9066000D01*
X18624000Y-9066000D01*
X18706500Y-9066000D01*
X18706500Y-8951000D01*
X18694002Y-8951000D01*
X18683730Y-8952049D01*
X18667088Y-8957564D01*
X18652165Y-8966768D01*
X18639768Y-8979165D01*
X18630564Y-8994088D01*
X18625049Y-9010730D01*
X18624000Y-9021002D01*
X18624000Y-9066000D01*
X18514050Y-9066000D01*
X18514050Y-9020573D01*
X18513765Y-9017530D01*
X18509279Y-9004712D01*
X18509279Y-9004712D01*
X18501215Y-8993785D01*
X18490288Y-8985721D01*
X18477470Y-8981235D01*
X18474427Y-8980950D01*
X18474427Y-8980950D01*
X18398573Y-8980950D01*
X18398573Y-8980950D01*
X18395530Y-8981235D01*
X18382712Y-8985721D01*
X18371785Y-8993785D01*
X18370209Y-8995920D01*
X18366230Y-8999409D01*
X18361159Y-9000922D01*
X18355919Y-9000182D01*
X18351464Y-8997325D01*
X18330182Y-8976043D01*
X18327494Y-8972020D01*
X18326550Y-8967275D01*
X18326550Y-8964658D01*
X18327208Y-8960672D01*
X18329112Y-8957110D01*
X18333800Y-8951000D01*
X18756500Y-8951000D01*
X18756500Y-9066000D01*
X18839000Y-9066000D01*
X18839000Y-9021002D01*
X18837951Y-9010730D01*
X18832436Y-8994088D01*
X18823232Y-8979165D01*
X18810835Y-8966768D01*
X18795912Y-8957564D01*
X18779270Y-8952049D01*
X18768998Y-8951000D01*
X18756500Y-8951000D01*
X18333800Y-8951000D01*
X18338954Y-8944284D01*
X18345004Y-8929676D01*
X18346305Y-8919799D01*
X18346307Y-8919781D01*
X18348444Y-8914288D01*
X18352875Y-8910401D01*
X18358601Y-8909000D01*
X19009856Y-8909000D01*
X19015701Y-8910464D01*
X19020166Y-8914511D01*
X19022196Y-8920185D01*
X19021312Y-8926145D01*
X19019996Y-8929324D01*
X19017932Y-8945000D01*
X19019996Y-8960676D01*
X19026046Y-8975284D01*
X19035672Y-8987828D01*
X19046217Y-8995920D01*
X19048216Y-8997454D01*
X19062824Y-9003504D01*
X19078500Y-9005568D01*
X19094176Y-9003504D01*
X19108784Y-8997454D01*
X19121328Y-8987828D01*
X19126568Y-8981000D01*
X19315509Y-8981000D01*
X19317469Y-9007155D01*
X19323306Y-9032727D01*
X19332888Y-9057142D01*
X19346003Y-9079857D01*
X19350787Y-9085857D01*
X19350787Y-9085857D01*
X19455645Y-8981000D01*
X19455645Y-8981000D01*
X19350787Y-8876143D01*
X19346003Y-8882142D01*
X19332888Y-8904858D01*
X19323306Y-8929273D01*
X19317469Y-8954845D01*
X19315509Y-8981000D01*
X19126568Y-8981000D01*
X19130954Y-8975284D01*
X19137004Y-8960676D01*
X19139068Y-8945000D01*
X19139068Y-8945000D01*
X19139114Y-8944649D01*
X19140287Y-8940783D01*
X19142640Y-8937499D01*
X19177048Y-8903091D01*
X19179132Y-8900223D01*
X19180395Y-8898744D01*
X19206548Y-8872591D01*
X19206548Y-8872591D01*
X19207971Y-8871168D01*
X19207972Y-8871167D01*
X19208805Y-8870334D01*
X19209811Y-8868360D01*
X19210827Y-8866702D01*
X19212130Y-8864909D01*
X19212814Y-8862802D01*
X19213559Y-8861004D01*
X19214565Y-8859030D01*
X19214911Y-8856841D01*
X19215366Y-8854950D01*
X19216050Y-8852843D01*
X19216050Y-8769157D01*
X19215994Y-8768983D01*
X19215365Y-8767049D01*
X19214911Y-8765158D01*
X19214565Y-8762970D01*
X19214565Y-8762970D01*
X19213559Y-8760995D01*
X19212814Y-8759198D01*
X19212749Y-8758996D01*
X19212130Y-8757091D01*
X19210827Y-8755298D01*
X19209811Y-8753639D01*
X19209150Y-8752343D01*
X19208805Y-8751666D01*
X19207417Y-8750278D01*
X19207417Y-8750277D01*
X19171969Y-8714829D01*
X19171967Y-8714828D01*
X19171334Y-8714195D01*
X19170620Y-8713831D01*
X19168961Y-8712815D01*
X19164909Y-8709870D01*
X19152843Y-8705950D01*
X19151737Y-8705950D01*
X19145532Y-8704286D01*
X19140992Y-8699739D01*
X19139337Y-8693531D01*
X19139682Y-8473000D01*
X19315509Y-8473000D01*
X19317469Y-8499155D01*
X19323306Y-8524727D01*
X19332888Y-8549142D01*
X19346003Y-8571857D01*
X19350787Y-8577857D01*
X19350787Y-8577857D01*
X19455645Y-8473000D01*
X19455645Y-8473000D01*
X19350787Y-8368143D01*
X19346003Y-8374142D01*
X19332888Y-8396858D01*
X19323306Y-8421273D01*
X19317469Y-8446845D01*
X19315509Y-8473000D01*
X19139682Y-8473000D01*
X19140000Y-8270000D01*
X18667450Y-8270000D01*
X18661250Y-8268339D01*
X18656711Y-8263800D01*
X18655050Y-8257600D01*
X18655050Y-8067000D01*
X18715436Y-8067000D01*
X18715647Y-8069284D01*
X18717489Y-8089154D01*
X18723577Y-8110553D01*
X18733494Y-8130469D01*
X18746902Y-8148224D01*
X18763344Y-8163212D01*
X18782260Y-8174924D01*
X18782260Y-8174924D01*
X18782260Y-8174925D01*
X18803006Y-8182962D01*
X18824876Y-8187050D01*
X18847124Y-8187050D01*
X18847124Y-8187050D01*
X18868994Y-8182962D01*
X18889740Y-8174925D01*
X18908656Y-8163212D01*
X18918776Y-8153987D01*
X18925098Y-8148224D01*
X18925730Y-8147387D01*
X18938506Y-8130469D01*
X18948423Y-8110553D01*
X18948423Y-8110553D01*
X18948423Y-8110553D01*
X18951959Y-8098125D01*
X18954512Y-8089154D01*
X18956564Y-8067000D01*
X19315436Y-8067000D01*
X19315897Y-8071979D01*
X19315950Y-8073123D01*
X19315950Y-8078124D01*
X19316869Y-8083040D01*
X19317027Y-8084174D01*
X19317488Y-8089153D01*
X19318857Y-8093965D01*
X19319119Y-8095079D01*
X19320038Y-8099994D01*
X19321845Y-8104657D01*
X19322208Y-8105742D01*
X19323577Y-8110553D01*
X19325806Y-8115029D01*
X19326269Y-8116077D01*
X19328075Y-8120740D01*
X19330708Y-8124992D01*
X19331265Y-8125992D01*
X19333494Y-8130469D01*
X19336508Y-8134460D01*
X19337155Y-8135404D01*
X19339788Y-8139656D01*
X19343157Y-8143352D01*
X19343888Y-8144232D01*
X19346902Y-8148224D01*
X19348399Y-8149589D01*
X19350598Y-8151593D01*
X19351407Y-8152402D01*
X19354776Y-8156098D01*
X19354777Y-8156098D01*
X19358767Y-8159112D01*
X19359647Y-8159842D01*
X19363344Y-8163212D01*
X19363344Y-8163212D01*
X19363344Y-8163213D01*
X19367595Y-8165845D01*
X19368540Y-8166492D01*
X19372531Y-8169506D01*
X19377008Y-8171735D01*
X19378008Y-8172292D01*
X19382260Y-8174925D01*
X19386924Y-8176731D01*
X19387969Y-8177193D01*
X19392447Y-8179423D01*
X19397259Y-8180792D01*
X19398342Y-8181155D01*
X19403006Y-8182962D01*
X19407923Y-8183881D01*
X19409034Y-8184142D01*
X19413846Y-8185511D01*
X19418826Y-8185973D01*
X19419958Y-8186131D01*
X19424876Y-8187050D01*
X19430450Y-8187050D01*
X19447124Y-8187050D01*
X19599638Y-8187050D01*
X19604383Y-8187994D01*
X19608406Y-8190682D01*
X19615318Y-8197594D01*
X19618006Y-8201617D01*
X19618950Y-8206362D01*
X19618950Y-8324970D01*
X19617171Y-8331369D01*
X19612344Y-8335933D01*
X19605855Y-8337350D01*
X19599565Y-8335215D01*
X19578745Y-8321020D01*
X19555114Y-8309640D01*
X19530050Y-8301909D01*
X19504114Y-8298000D01*
X19477886Y-8298000D01*
X19451950Y-8301909D01*
X19426886Y-8309640D01*
X19403255Y-8321021D01*
X19386083Y-8332728D01*
X19517587Y-8464232D01*
X19520797Y-8469791D01*
X19520797Y-8476209D01*
X19517587Y-8481768D01*
X19386083Y-8613272D01*
X19403255Y-8624979D01*
X19426886Y-8636360D01*
X19451950Y-8644091D01*
X19477886Y-8648000D01*
X19504114Y-8648000D01*
X19530050Y-8644091D01*
X19555114Y-8636360D01*
X19578746Y-8624979D01*
X19590692Y-8616835D01*
X19596030Y-8614790D01*
X19601719Y-8615357D01*
X19606549Y-8618417D01*
X19609492Y-8623318D01*
X19609838Y-8627881D01*
X19609950Y-8627881D01*
X19609950Y-8826119D01*
X19609838Y-8826119D01*
X19609493Y-8830681D01*
X19606549Y-8835583D01*
X19601720Y-8838643D01*
X19596031Y-8839210D01*
X19590692Y-8837166D01*
X19578746Y-8829021D01*
X19555114Y-8817640D01*
X19530050Y-8809909D01*
X19504114Y-8806000D01*
X19477886Y-8806000D01*
X19451950Y-8809909D01*
X19426886Y-8817640D01*
X19403255Y-8829021D01*
X19386083Y-8840728D01*
X19631212Y-9085857D01*
X19635997Y-9079857D01*
X19649112Y-9057142D01*
X19658694Y-9032727D01*
X19664531Y-9007155D01*
X19666491Y-8981000D01*
X19664531Y-8954845D01*
X19658694Y-8929273D01*
X19649112Y-8904858D01*
X19635533Y-8881338D01*
X19635608Y-8881294D01*
X19633530Y-8876799D01*
X19633808Y-8870908D01*
X19636776Y-8865812D01*
X19641763Y-8862663D01*
X19645881Y-8862320D01*
X19645881Y-8862050D01*
X19646857Y-8862050D01*
X19646857Y-8862050D01*
X19724052Y-8862050D01*
X19726330Y-8862261D01*
X19727876Y-8862550D01*
X19727876Y-8862550D01*
X19750124Y-8862550D01*
X19750124Y-8862550D01*
X19751670Y-8862261D01*
X19753948Y-8862050D01*
X19844119Y-8862050D01*
X19844119Y-8862321D01*
X19848233Y-8862661D01*
X19853221Y-8865809D01*
X19856191Y-8870905D01*
X19856470Y-8876797D01*
X19854392Y-8881294D01*
X19854467Y-8881338D01*
X19840888Y-8904858D01*
X19831306Y-8929273D01*
X19825469Y-8954845D01*
X19823509Y-8981000D01*
X19825469Y-9007155D01*
X19831306Y-9032727D01*
X19840888Y-9057142D01*
X19854003Y-9079857D01*
X19858787Y-9085857D01*
X19999000Y-8945645D01*
X20103917Y-8840728D01*
X20086745Y-8829021D01*
X20063114Y-8817640D01*
X20038050Y-8809909D01*
X20012114Y-8806000D01*
X19985886Y-8806000D01*
X19959950Y-8809909D01*
X19934886Y-8817640D01*
X19911255Y-8829021D01*
X19899308Y-8837166D01*
X19893969Y-8839210D01*
X19888280Y-8838643D01*
X19883451Y-8835583D01*
X19880507Y-8830681D01*
X19880162Y-8826119D01*
X19880050Y-8826119D01*
X19880050Y-8627881D01*
X19880162Y-8627881D01*
X19880507Y-8623319D01*
X19883450Y-8618418D01*
X19888280Y-8615357D01*
X19893969Y-8614789D01*
X19899308Y-8616834D01*
X19911255Y-8624980D01*
X19934886Y-8636360D01*
X19959950Y-8644091D01*
X19985886Y-8648000D01*
X20012114Y-8648000D01*
X20038050Y-8644091D01*
X20063114Y-8636360D01*
X20086746Y-8624979D01*
X20103917Y-8613272D01*
X19999000Y-8508355D01*
X19862682Y-8372037D01*
X19859994Y-8368014D01*
X19859050Y-8363269D01*
X19859050Y-8332728D01*
X19894083Y-8332728D01*
X19999000Y-8437645D01*
X19999000Y-8437645D01*
X20103917Y-8332728D01*
X20086745Y-8321020D01*
X20063114Y-8309640D01*
X20038050Y-8301909D01*
X20012114Y-8298000D01*
X19985886Y-8298000D01*
X19959950Y-8301909D01*
X19934886Y-8309640D01*
X19911255Y-8321021D01*
X19894083Y-8332728D01*
X19859050Y-8332728D01*
X19859050Y-8154559D01*
X19859063Y-8153987D01*
X19859156Y-8151979D01*
X19859436Y-8145932D01*
X19858321Y-8137942D01*
X19858256Y-8137380D01*
X19857512Y-8129346D01*
X19856983Y-8127489D01*
X19856628Y-8125809D01*
X19856362Y-8123897D01*
X19853800Y-8116252D01*
X19853630Y-8115705D01*
X19853584Y-8115543D01*
X19851423Y-8107947D01*
X19850562Y-8106218D01*
X19849905Y-8104632D01*
X19849291Y-8102801D01*
X19845367Y-8095756D01*
X19845100Y-8095249D01*
X19844525Y-8094094D01*
X19841506Y-8088031D01*
X19840342Y-8086490D01*
X19839405Y-8085051D01*
X19838465Y-8083365D01*
X19838465Y-8083365D01*
X19833311Y-8077157D01*
X19832957Y-8076711D01*
X19829815Y-8072550D01*
X19828098Y-8070276D01*
X19822138Y-8064843D01*
X19821724Y-8064448D01*
X19741552Y-7984276D01*
X19741157Y-7983861D01*
X19735724Y-7977902D01*
X19729289Y-7973042D01*
X19728839Y-7972687D01*
X19722635Y-7967535D01*
X19722635Y-7967535D01*
X19720948Y-7966595D01*
X19719510Y-7965658D01*
X19717969Y-7964494D01*
X19710751Y-7960900D01*
X19710244Y-7960633D01*
X19707448Y-7959075D01*
X19703199Y-7956708D01*
X19703198Y-7956708D01*
X19703198Y-7956708D01*
X19701367Y-7956094D01*
X19699781Y-7955437D01*
X19698053Y-7954577D01*
X19690295Y-7952370D01*
X19689748Y-7952200D01*
X19689275Y-7952042D01*
X19682103Y-7949638D01*
X19682103Y-7949638D01*
X19682103Y-7949638D01*
X19680191Y-7949371D01*
X19678512Y-7949017D01*
X19676654Y-7948488D01*
X19668622Y-7947744D01*
X19668053Y-7947678D01*
X19660068Y-7946564D01*
X19660068Y-7946564D01*
X19653066Y-7946888D01*
X19652013Y-7946937D01*
X19651441Y-7946950D01*
X19424876Y-7946950D01*
X19419960Y-7947869D01*
X19418826Y-7948027D01*
X19413846Y-7948488D01*
X19409035Y-7949857D01*
X19407921Y-7950119D01*
X19403006Y-7951038D01*
X19398343Y-7952844D01*
X19397258Y-7953208D01*
X19392447Y-7954577D01*
X19387970Y-7956806D01*
X19386923Y-7957269D01*
X19382260Y-7959075D01*
X19378008Y-7961708D01*
X19377008Y-7962265D01*
X19372531Y-7964494D01*
X19368540Y-7967508D01*
X19367595Y-7968155D01*
X19363344Y-7970787D01*
X19359648Y-7974157D01*
X19358767Y-7974888D01*
X19354777Y-7977902D01*
X19354776Y-7977902D01*
X19351407Y-7981598D01*
X19350598Y-7982407D01*
X19346902Y-7985776D01*
X19343888Y-7989767D01*
X19343157Y-7990648D01*
X19339787Y-7994344D01*
X19337155Y-7998595D01*
X19336508Y-7999540D01*
X19333494Y-8003531D01*
X19331265Y-8008008D01*
X19330708Y-8009008D01*
X19328075Y-8013260D01*
X19326269Y-8017923D01*
X19325806Y-8018970D01*
X19323577Y-8023447D01*
X19322208Y-8028258D01*
X19321844Y-8029343D01*
X19320038Y-8034006D01*
X19319119Y-8038920D01*
X19318857Y-8040035D01*
X19317488Y-8044846D01*
X19317027Y-8049826D01*
X19316869Y-8050960D01*
X19315950Y-8055875D01*
X19315950Y-8060876D01*
X19315897Y-8062021D01*
X19315436Y-8067000D01*
X18956564Y-8067000D01*
X18954512Y-8044846D01*
X18951511Y-8034300D01*
X18948423Y-8023447D01*
X18938506Y-8003531D01*
X18925098Y-7985776D01*
X18908656Y-7970787D01*
X18889740Y-7959075D01*
X18881341Y-7955821D01*
X18868994Y-7951038D01*
X18847124Y-7946950D01*
X18824876Y-7946950D01*
X18807921Y-7950119D01*
X18803006Y-7951038D01*
X18782260Y-7959075D01*
X18763344Y-7970787D01*
X18746902Y-7985776D01*
X18733494Y-8003531D01*
X18723577Y-8023447D01*
X18717489Y-8044846D01*
X18715672Y-8064448D01*
X18715436Y-8067000D01*
X18655050Y-8067000D01*
X18655050Y-7209725D01*
X18655994Y-7204980D01*
X18658682Y-7200957D01*
X18687013Y-7172626D01*
X18770278Y-7089361D01*
X19348994Y-7089361D01*
X19353677Y-7093005D01*
X19375539Y-7104837D01*
X19399051Y-7112908D01*
X19423571Y-7117000D01*
X19448429Y-7117000D01*
X19472949Y-7112908D01*
X19496461Y-7104837D01*
X19518323Y-7093005D01*
X19523006Y-7089361D01*
X19436000Y-7002355D01*
X19348994Y-7089361D01*
X19348994Y-7089361D01*
X18770278Y-7089361D01*
X18778316Y-7081323D01*
X18782250Y-7078672D01*
X18786893Y-7077693D01*
X18791563Y-7078529D01*
X18803006Y-7082962D01*
X18824876Y-7087050D01*
X18847124Y-7087050D01*
X18847124Y-7087050D01*
X18868994Y-7082962D01*
X18889740Y-7074925D01*
X18908656Y-7063212D01*
X18912848Y-7059391D01*
X18925098Y-7048224D01*
X18927151Y-7045506D01*
X18938506Y-7030469D01*
X18948423Y-7010553D01*
X18954512Y-6989154D01*
X18956564Y-6967000D01*
X18956564Y-6967000D01*
X19285486Y-6967000D01*
X19287539Y-6991773D01*
X19293641Y-7015872D01*
X19303627Y-7038637D01*
X19313656Y-7053988D01*
X19313656Y-7053988D01*
X19400645Y-6967000D01*
X19471355Y-6967000D01*
X19558343Y-7053988D01*
X19568373Y-7038637D01*
X19578359Y-7015872D01*
X19584461Y-6991773D01*
X19586514Y-6967000D01*
X19584461Y-6942227D01*
X19578359Y-6918128D01*
X19568373Y-6895363D01*
X19558343Y-6880012D01*
X19471355Y-6967000D01*
X19471355Y-6967000D01*
X19400645Y-6967000D01*
X19400645Y-6967000D01*
X19313656Y-6880012D01*
X19303627Y-6895363D01*
X19293641Y-6918128D01*
X19287539Y-6942227D01*
X19285486Y-6967000D01*
X18956564Y-6967000D01*
X18954512Y-6944846D01*
X18951837Y-6935447D01*
X18948423Y-6923447D01*
X18938506Y-6903531D01*
X18925098Y-6885776D01*
X18908656Y-6870787D01*
X18889740Y-6859075D01*
X18883617Y-6856703D01*
X18868994Y-6851038D01*
X18847124Y-6846950D01*
X18824876Y-6846950D01*
X18808755Y-6849963D01*
X18803006Y-6851038D01*
X18782260Y-6859075D01*
X18763344Y-6870787D01*
X18746902Y-6885776D01*
X18733494Y-6903531D01*
X18723577Y-6923447D01*
X18717489Y-6944846D01*
X18715436Y-6967000D01*
X18717489Y-6989154D01*
X18723577Y-7010553D01*
X18723666Y-7010731D01*
X18724953Y-7015686D01*
X18724129Y-7020738D01*
X18721334Y-7025026D01*
X18597218Y-7149143D01*
X18592282Y-7152168D01*
X18586510Y-7152622D01*
X18581162Y-7150406D01*
X18577402Y-7146004D01*
X18576050Y-7140374D01*
X18576050Y-7058822D01*
X18576050Y-7058821D01*
X18576050Y-7056657D01*
X18576050Y-7056657D01*
X18575365Y-7054550D01*
X18574911Y-7052658D01*
X18574565Y-7050470D01*
X18573558Y-7048495D01*
X18572814Y-7046698D01*
X18572130Y-7044591D01*
X18571572Y-7043824D01*
X18570828Y-7042799D01*
X18569810Y-7041139D01*
X18569317Y-7040170D01*
X18568805Y-7039166D01*
X18559834Y-7030195D01*
X18518793Y-6989154D01*
X18472831Y-6943191D01*
X18470349Y-6939638D01*
X18469241Y-6935448D01*
X18468613Y-6927869D01*
X18462916Y-6905370D01*
X18453592Y-6884115D01*
X18440898Y-6864685D01*
X18425178Y-6847609D01*
X18421363Y-6844639D01*
X19348994Y-6844639D01*
X19436000Y-6931645D01*
X19436000Y-6931645D01*
X19523006Y-6844639D01*
X19523006Y-6844639D01*
X19518324Y-6840995D01*
X19496461Y-6829163D01*
X19472949Y-6821092D01*
X19448429Y-6817000D01*
X19423571Y-6817000D01*
X19399051Y-6821092D01*
X19375539Y-6829163D01*
X19353676Y-6840995D01*
X19348994Y-6844639D01*
X19348994Y-6844639D01*
X18421363Y-6844639D01*
X18406863Y-6833353D01*
X18386450Y-6822306D01*
X18386450Y-6822306D01*
X18386450Y-6822306D01*
X18364498Y-6814770D01*
X18347328Y-6811905D01*
X18341605Y-6810950D01*
X18318395Y-6810950D01*
X18313816Y-6811714D01*
X18295502Y-6814770D01*
X18273550Y-6822306D01*
X18273550Y-6822306D01*
X18273550Y-6822306D01*
X18264865Y-6827006D01*
X18253137Y-6833353D01*
X18234822Y-6847609D01*
X18219102Y-6864685D01*
X18206408Y-6884115D01*
X18197084Y-6905370D01*
X18197084Y-6905370D01*
X18197084Y-6905370D01*
X18191387Y-6927869D01*
X18191387Y-6927870D01*
X18189470Y-6951000D01*
X18191387Y-6974130D01*
X18191387Y-6974130D01*
X18191387Y-6974130D01*
X18196111Y-6992788D01*
X18197084Y-6996630D01*
X18201974Y-7007776D01*
X18206408Y-7017885D01*
X18219102Y-7037315D01*
X18234822Y-7054391D01*
X18253137Y-7068647D01*
X18273550Y-7079694D01*
X18284526Y-7083462D01*
X18295502Y-7087230D01*
X18295502Y-7087230D01*
X18295502Y-7087230D01*
X18318395Y-7091050D01*
X18341605Y-7091050D01*
X18341605Y-7091050D01*
X18364498Y-7087230D01*
X18386450Y-7079694D01*
X18406863Y-7068647D01*
X18425178Y-7054391D01*
X18438270Y-7040170D01*
X18443855Y-7036684D01*
X18450437Y-7036548D01*
X18456161Y-7039800D01*
X18492318Y-7075957D01*
X18495006Y-7079980D01*
X18495950Y-7084725D01*
X18495950Y-7776901D01*
X18494621Y-7782000D01*
X18495950Y-7787099D01*
X18495950Y-7966275D01*
X18495006Y-7971020D01*
X18492318Y-7975043D01*
X18213718Y-8253643D01*
X18208782Y-8256668D01*
X18203010Y-8257122D01*
X18197662Y-8254906D01*
X18193902Y-8250504D01*
X18192550Y-8244874D01*
X18192550Y-8234225D01*
X18193494Y-8229480D01*
X18196182Y-8225457D01*
X18363459Y-8058180D01*
X18363459Y-8058180D01*
X18363805Y-8057834D01*
X18363805Y-8057834D01*
X18364356Y-8057284D01*
X18364639Y-8056198D01*
X18364809Y-8055863D01*
X18365827Y-8054201D01*
X18367130Y-8052409D01*
X18367814Y-8050302D01*
X18368558Y-8048505D01*
X18369565Y-8046530D01*
X18369911Y-8044341D01*
X18370365Y-8042450D01*
X18371050Y-8040343D01*
X18371050Y-8038179D01*
X18371050Y-8038178D01*
X18371050Y-7925177D01*
X18372094Y-7920196D01*
X18375052Y-7916054D01*
X18379423Y-7913449D01*
X18387450Y-7910694D01*
X18407863Y-7899647D01*
X18426178Y-7885391D01*
X18441898Y-7868315D01*
X18454592Y-7848885D01*
X18463916Y-7827630D01*
X18469613Y-7805130D01*
X18471192Y-7786075D01*
X18472623Y-7782000D01*
X18471192Y-7777925D01*
X18469917Y-7762537D01*
X18469613Y-7758869D01*
X18463916Y-7736370D01*
X18454592Y-7715115D01*
X18441898Y-7695685D01*
X18426178Y-7678609D01*
X18407863Y-7664353D01*
X18387450Y-7653306D01*
X18387450Y-7653306D01*
X18387450Y-7653306D01*
X18365498Y-7645770D01*
X18348328Y-7642905D01*
X18342605Y-7641950D01*
X18319395Y-7641950D01*
X18314816Y-7642714D01*
X18296502Y-7645770D01*
X18274550Y-7653306D01*
X18254137Y-7664353D01*
X18235822Y-7678609D01*
X18220102Y-7695685D01*
X18207408Y-7715115D01*
X18198084Y-7736370D01*
X18198084Y-7736370D01*
X18198084Y-7736370D01*
X18192826Y-7757135D01*
X18192387Y-7758870D01*
X18190470Y-7782000D01*
X18192387Y-7805130D01*
X18192387Y-7805130D01*
X18192387Y-7805130D01*
X18198084Y-7827630D01*
X18198084Y-7827630D01*
X18206071Y-7845838D01*
X18207408Y-7848885D01*
X18220102Y-7868315D01*
X18235822Y-7885391D01*
X18254137Y-7899647D01*
X18274550Y-7910694D01*
X18282577Y-7913449D01*
X18286948Y-7916054D01*
X18289906Y-7920196D01*
X18290950Y-7925177D01*
X18290950Y-8012275D01*
X18290006Y-8017020D01*
X18287318Y-8021043D01*
X18203729Y-8104632D01*
X18121952Y-8186409D01*
X18121951Y-8186409D01*
X18119695Y-8188666D01*
X18118689Y-8190640D01*
X18117673Y-8192298D01*
X18116370Y-8194091D01*
X18116370Y-8194091D01*
X18115685Y-8196199D01*
X18114941Y-8197995D01*
X18113935Y-8199970D01*
X18113589Y-8202158D01*
X18113135Y-8204049D01*
X18112450Y-8206157D01*
X18112450Y-8436344D01*
X18113135Y-8438451D01*
X18113589Y-8440342D01*
X18113935Y-8442530D01*
X18114941Y-8444504D01*
X18115686Y-8446302D01*
X18116370Y-8448409D01*
X18117673Y-8450201D01*
X18118689Y-8451860D01*
X18119695Y-8453834D01*
X18119695Y-8453834D01*
X18119695Y-8453834D01*
X18121328Y-8455468D01*
X18121330Y-8455469D01*
X18156643Y-8490782D01*
X18159668Y-8495718D01*
X18160122Y-8501490D01*
X18157906Y-8506839D01*
X18153504Y-8510599D01*
X18147875Y-8511950D01*
X18123657Y-8511950D01*
X18121549Y-8512635D01*
X18119658Y-8513089D01*
X18117470Y-8513435D01*
X18115495Y-8514441D01*
X18113699Y-8515185D01*
X18111591Y-8515870D01*
X18111591Y-8515870D01*
X18111591Y-8515870D01*
X18111413Y-8516000D01*
X18109798Y-8517173D01*
X18108140Y-8518189D01*
X18106166Y-8519195D01*
X18103910Y-8521451D01*
X17987451Y-8637910D01*
X17985195Y-8640166D01*
X17984189Y-8642140D01*
X17983173Y-8643798D01*
X17981870Y-8645591D01*
X17981870Y-8645591D01*
X17980716Y-8647180D01*
X17980609Y-8647102D01*
X17978360Y-8650466D01*
X17972235Y-8653280D01*
X17965543Y-8652475D01*
X17960261Y-8648288D01*
X17957949Y-8641957D01*
X17956573Y-8623592D01*
X17950903Y-8598751D01*
X17941594Y-8575033D01*
X17928855Y-8552967D01*
X17924655Y-8547701D01*
X17823355Y-8649000D01*
X17924655Y-8750299D01*
X17924655Y-8750299D01*
X17928855Y-8745033D01*
X17941594Y-8722967D01*
X17950903Y-8699249D01*
X17953461Y-8688042D01*
X17956151Y-8682712D01*
X17961020Y-8679258D01*
X17966938Y-8678479D01*
X17972535Y-8680555D01*
X17976513Y-8685007D01*
X17977950Y-8690801D01*
X17977950Y-9191344D01*
X17978635Y-9193451D01*
X17979089Y-9195342D01*
X17979435Y-9197530D01*
X17980441Y-9199504D01*
X17981186Y-9201302D01*
X17981870Y-9203409D01*
X17983173Y-9205201D01*
X17984189Y-9206860D01*
X17985195Y-9208834D01*
X17985195Y-9208834D01*
X17985195Y-9208834D01*
X17986828Y-9210468D01*
X17986830Y-9210469D01*
X18161334Y-9384973D01*
X18164128Y-9389262D01*
X18164953Y-9394313D01*
X18163666Y-9399268D01*
X18163577Y-9399447D01*
X18157489Y-9420846D01*
X18155436Y-9443000D01*
X18157489Y-9465154D01*
X18163577Y-9486553D01*
X18173494Y-9506469D01*
X18186902Y-9524224D01*
X18203344Y-9539212D01*
X18222260Y-9550925D01*
X18222260Y-9550925D01*
X18222260Y-9550925D01*
X18243006Y-9558962D01*
X18264876Y-9563050D01*
X18287124Y-9563050D01*
X18287124Y-9563050D01*
X18308994Y-9558962D01*
X18329740Y-9550925D01*
X18348656Y-9539212D01*
X18355311Y-9533146D01*
X18365098Y-9524224D01*
X18365396Y-9523830D01*
X18378506Y-9506469D01*
X18388423Y-9486553D01*
X18388423Y-9486553D01*
X18388423Y-9486553D01*
X18391013Y-9477450D01*
X18394512Y-9465154D01*
X18396564Y-9443000D01*
X18394512Y-9420846D01*
X18391348Y-9409726D01*
X18388423Y-9399447D01*
X18378506Y-9379531D01*
X18365098Y-9361776D01*
X18348656Y-9346788D01*
X18329740Y-9335075D01*
X18323497Y-9332657D01*
X18308994Y-9327038D01*
X18287124Y-9322950D01*
X18264876Y-9322950D01*
X18255586Y-9324687D01*
X18243006Y-9327038D01*
X18231563Y-9331471D01*
X18226893Y-9332307D01*
X18222251Y-9331328D01*
X18218316Y-9328677D01*
X18061682Y-9172043D01*
X18058994Y-9168020D01*
X18058050Y-9163275D01*
X18058050Y-9043626D01*
X18059402Y-9037996D01*
X18063162Y-9033594D01*
X18068510Y-9031378D01*
X18074282Y-9031832D01*
X18079218Y-9034857D01*
X18447318Y-9402957D01*
X18450006Y-9406980D01*
X18450950Y-9411726D01*
X18450950Y-10101275D01*
X18450006Y-10106020D01*
X18447318Y-10110043D01*
X18346684Y-10210676D01*
X18342749Y-10213328D01*
X18338107Y-10214307D01*
X18333437Y-10213471D01*
X18321994Y-10209038D01*
X18310823Y-10206950D01*
X18300124Y-10204950D01*
X18277876Y-10204950D01*
X18258947Y-10208489D01*
X18256006Y-10209038D01*
X18235260Y-10217075D01*
X18216344Y-10228788D01*
X18199902Y-10243776D01*
X18186494Y-10261531D01*
X18176577Y-10281447D01*
X18170489Y-10302846D01*
X18168436Y-10325000D01*
X18170489Y-10347154D01*
X18176577Y-10368553D01*
X18186494Y-10388469D01*
X18199902Y-10406224D01*
X18216344Y-10421212D01*
X18235260Y-10432925D01*
X18235260Y-10432925D01*
X18235260Y-10432925D01*
X18256006Y-10440962D01*
X18277876Y-10445050D01*
X18300124Y-10445050D01*
X18300124Y-10445050D01*
X18321994Y-10440962D01*
X18342740Y-10432925D01*
X18361656Y-10421212D01*
X18372933Y-10410933D01*
X18378098Y-10406224D01*
X18378149Y-10406157D01*
X18391506Y-10388469D01*
X18401423Y-10368553D01*
X18401550Y-10368105D01*
X18405961Y-10352603D01*
X18407512Y-10347154D01*
X18409564Y-10325000D01*
X18407512Y-10302846D01*
X18404354Y-10291750D01*
X18401423Y-10281448D01*
X18401423Y-10281447D01*
X18401334Y-10281269D01*
X18400047Y-10276315D01*
X18400871Y-10271262D01*
X18403666Y-10266974D01*
X18469362Y-10201277D01*
X18518782Y-10151857D01*
X18523718Y-10148832D01*
X18529490Y-10148378D01*
X18534839Y-10150594D01*
X18538599Y-10154996D01*
X18539950Y-10160626D01*
X18539950Y-10464275D01*
X18539006Y-10469020D01*
X18536318Y-10473043D01*
X18106043Y-10903318D01*
X18102020Y-10906006D01*
X18097275Y-10906950D01*
X14098725Y-10906950D01*
X14093980Y-10906006D01*
X14089957Y-10903318D01*
X14001000Y-10814361D01*
X15996994Y-10814361D01*
X16001677Y-10818006D01*
X16023539Y-10829837D01*
X16047051Y-10837908D01*
X16071571Y-10842000D01*
X16096429Y-10842000D01*
X16120949Y-10837908D01*
X16144461Y-10829837D01*
X16166323Y-10818005D01*
X16171006Y-10814361D01*
X16084000Y-10727355D01*
X15996994Y-10814361D01*
X15996994Y-10814361D01*
X14001000Y-10814361D01*
X13914682Y-10728043D01*
X13911994Y-10724020D01*
X13911050Y-10719275D01*
X13911050Y-10692000D01*
X15933486Y-10692000D01*
X15935539Y-10716773D01*
X15941641Y-10740872D01*
X15951627Y-10763637D01*
X15961656Y-10778988D01*
X15961656Y-10778988D01*
X16048645Y-10692000D01*
X16119355Y-10692000D01*
X16206343Y-10778988D01*
X16216373Y-10763637D01*
X16226359Y-10740872D01*
X16232461Y-10716773D01*
X16234514Y-10692000D01*
X16232461Y-10667227D01*
X16226359Y-10643128D01*
X16216373Y-10620363D01*
X16206343Y-10605012D01*
X16119355Y-10692000D01*
X16119355Y-10692000D01*
X16048645Y-10692000D01*
X16048645Y-10692000D01*
X15961656Y-10605012D01*
X15951627Y-10620363D01*
X15941641Y-10643128D01*
X15935539Y-10667227D01*
X15933486Y-10692000D01*
X13911050Y-10692000D01*
X13911050Y-10569639D01*
X15996994Y-10569639D01*
X16084000Y-10656645D01*
X16084000Y-10656645D01*
X16171006Y-10569639D01*
X16171006Y-10569639D01*
X16166323Y-10565995D01*
X16144461Y-10554163D01*
X16120949Y-10546092D01*
X16096429Y-10542000D01*
X16071571Y-10542000D01*
X16047051Y-10546092D01*
X16023539Y-10554163D01*
X16001676Y-10565995D01*
X15996994Y-10569639D01*
X15996994Y-10569639D01*
X13911050Y-10569639D01*
X13911050Y-10203872D01*
X13911137Y-10203872D01*
X13911137Y-10201516D01*
X13911175Y-10201277D01*
X13911175Y-9952000D01*
X14467436Y-9952000D01*
X14468180Y-9960030D01*
X14468219Y-9960601D01*
X14468592Y-9968657D01*
X14469034Y-9970536D01*
X14469310Y-9972229D01*
X14469488Y-9974153D01*
X14471696Y-9981911D01*
X14471839Y-9982462D01*
X14472434Y-9984994D01*
X14473686Y-9990315D01*
X14474465Y-9992080D01*
X14475048Y-9993695D01*
X14475369Y-9994821D01*
X14475577Y-9995553D01*
X14479171Y-10002771D01*
X14479415Y-10003289D01*
X14482672Y-10010667D01*
X14483764Y-10012261D01*
X14484633Y-10013739D01*
X14485494Y-10015469D01*
X14485494Y-10015469D01*
X14487382Y-10017969D01*
X14490355Y-10021906D01*
X14490688Y-10022369D01*
X14495246Y-10029022D01*
X14496611Y-10030387D01*
X14497737Y-10031682D01*
X14498902Y-10033224D01*
X14504862Y-10038657D01*
X14505276Y-10039052D01*
X14510978Y-10044754D01*
X14512571Y-10045846D01*
X14513916Y-10046911D01*
X14515174Y-10048058D01*
X14515344Y-10048212D01*
X14520597Y-10051465D01*
X14522199Y-10052457D01*
X14522679Y-10052769D01*
X14524851Y-10054257D01*
X14529333Y-10057328D01*
X14531099Y-10058108D01*
X14532618Y-10058908D01*
X14534259Y-10059924D01*
X14534260Y-10059925D01*
X14541780Y-10062838D01*
X14542305Y-10063055D01*
X14549686Y-10066314D01*
X14551565Y-10066756D01*
X14553205Y-10067264D01*
X14555006Y-10067962D01*
X14562938Y-10069445D01*
X14563491Y-10069561D01*
X14571343Y-10071408D01*
X14573272Y-10071497D01*
X14574977Y-10071695D01*
X14576876Y-10072050D01*
X14584940Y-10072050D01*
X14585513Y-10072063D01*
X14593568Y-10072436D01*
X14595242Y-10072202D01*
X14595480Y-10072169D01*
X14597193Y-10072050D01*
X14599125Y-10072050D01*
X14607053Y-10070568D01*
X14607616Y-10070476D01*
X14615603Y-10069362D01*
X14617434Y-10068748D01*
X14619095Y-10068317D01*
X14620994Y-10067962D01*
X14628518Y-10065047D01*
X14629048Y-10064856D01*
X14636698Y-10062292D01*
X14638386Y-10061352D01*
X14639939Y-10060622D01*
X14641740Y-10059925D01*
X14648599Y-10055678D01*
X14649087Y-10055391D01*
X14656135Y-10051465D01*
X14657620Y-10050232D01*
X14659013Y-10049229D01*
X14660656Y-10048212D01*
X14666618Y-10042777D01*
X14667045Y-10042406D01*
X14668963Y-10040813D01*
X14670725Y-10039051D01*
X14671137Y-10038657D01*
X14671138Y-10038656D01*
X14677098Y-10033224D01*
X14677905Y-10032155D01*
X14679446Y-10030464D01*
X14679531Y-10030387D01*
X14684098Y-10026224D01*
X14688959Y-10019786D01*
X14689311Y-10019343D01*
X14694465Y-10013135D01*
X14695405Y-10011447D01*
X14696341Y-10010011D01*
X14697506Y-10008469D01*
X14698865Y-10005740D01*
X14701101Y-10001249D01*
X14701367Y-10000745D01*
X14705291Y-9993699D01*
X14705905Y-9991868D01*
X14706562Y-9990281D01*
X14706623Y-9990158D01*
X14707423Y-9988553D01*
X14709630Y-9980794D01*
X14709799Y-9980250D01*
X14712362Y-9972603D01*
X14712628Y-9970691D01*
X14712983Y-9969012D01*
X14713511Y-9967154D01*
X14714256Y-9959119D01*
X14714321Y-9958559D01*
X14715236Y-9952000D01*
X15467436Y-9952000D01*
X15467897Y-9956979D01*
X15467950Y-9958124D01*
X15467950Y-9963125D01*
X15468869Y-9968040D01*
X15469027Y-9969174D01*
X15469488Y-9974154D01*
X15470857Y-9978965D01*
X15471119Y-9980079D01*
X15472038Y-9984994D01*
X15473844Y-9989657D01*
X15474208Y-9990743D01*
X15475577Y-9995553D01*
X15477806Y-10000029D01*
X15478269Y-10001077D01*
X15480075Y-10005740D01*
X15482708Y-10009992D01*
X15483265Y-10010992D01*
X15485494Y-10015469D01*
X15488508Y-10019460D01*
X15489155Y-10020404D01*
X15491788Y-10024656D01*
X15495157Y-10028353D01*
X15495888Y-10029233D01*
X15498902Y-10033224D01*
X15500399Y-10034589D01*
X15502598Y-10036593D01*
X15503407Y-10037402D01*
X15506776Y-10041098D01*
X15506777Y-10041098D01*
X15510767Y-10044112D01*
X15511647Y-10044842D01*
X15515344Y-10048212D01*
X15515344Y-10048213D01*
X15515344Y-10048213D01*
X15519595Y-10050845D01*
X15520540Y-10051492D01*
X15524531Y-10054506D01*
X15529008Y-10056735D01*
X15530008Y-10057292D01*
X15534260Y-10059925D01*
X15538924Y-10061732D01*
X15539969Y-10062193D01*
X15544447Y-10064423D01*
X15549259Y-10065792D01*
X15550342Y-10066155D01*
X15555006Y-10067962D01*
X15559923Y-10068881D01*
X15561034Y-10069142D01*
X15565846Y-10070512D01*
X15570826Y-10070973D01*
X15571958Y-10071131D01*
X15576876Y-10072050D01*
X15582450Y-10072050D01*
X15599124Y-10072050D01*
X15613940Y-10072050D01*
X15614513Y-10072063D01*
X15622568Y-10072436D01*
X15630559Y-10071321D01*
X15631119Y-10071256D01*
X15639154Y-10070512D01*
X15641012Y-10069983D01*
X15642691Y-10069629D01*
X15644603Y-10069362D01*
X15652250Y-10066799D01*
X15652794Y-10066630D01*
X15660553Y-10064423D01*
X15662281Y-10063562D01*
X15663868Y-10062905D01*
X15664069Y-10062838D01*
X15665698Y-10062292D01*
X15672745Y-10058367D01*
X15673249Y-10058101D01*
X15680468Y-10054506D01*
X15680468Y-10054506D01*
X15680469Y-10054506D01*
X15682010Y-10053342D01*
X15683447Y-10052406D01*
X15685135Y-10051465D01*
X15691342Y-10046311D01*
X15691786Y-10045959D01*
X15698224Y-10041098D01*
X15703658Y-10035137D01*
X15704051Y-10034725D01*
X15923094Y-9815682D01*
X15927117Y-9812994D01*
X15931862Y-9812050D01*
X16072876Y-9812050D01*
X16205137Y-9812050D01*
X16209883Y-9812994D01*
X16213906Y-9815682D01*
X16380318Y-9982094D01*
X16383006Y-9986117D01*
X16383950Y-9990863D01*
X16383950Y-10296444D01*
X16383657Y-10298239D01*
X16383797Y-10298259D01*
X16383638Y-10299396D01*
X16383638Y-10299397D01*
X16382390Y-10308343D01*
X16380564Y-10321432D01*
X16381592Y-10343657D01*
X16386686Y-10365314D01*
X16393609Y-10380994D01*
X16395672Y-10385667D01*
X16408246Y-10404022D01*
X16423978Y-10419754D01*
X16442333Y-10432328D01*
X16451788Y-10436503D01*
X16462685Y-10441314D01*
X16478284Y-10444983D01*
X16484343Y-10446408D01*
X16506568Y-10447436D01*
X16528603Y-10444362D01*
X16549698Y-10437292D01*
X16569135Y-10426465D01*
X16581963Y-10415813D01*
X16586727Y-10411049D01*
X16587137Y-10410657D01*
X16587259Y-10410546D01*
X16593098Y-10405224D01*
X16597958Y-10398787D01*
X16598310Y-10398343D01*
X16603465Y-10392135D01*
X16604089Y-10391015D01*
X16604405Y-10390448D01*
X16605343Y-10389009D01*
X16606506Y-10387469D01*
X16610102Y-10380246D01*
X16610364Y-10379750D01*
X16614291Y-10372699D01*
X16614905Y-10370867D01*
X16615562Y-10369281D01*
X16616423Y-10367553D01*
X16617060Y-10365314D01*
X16618630Y-10359794D01*
X16618800Y-10359247D01*
X16621362Y-10351604D01*
X16621362Y-10351604D01*
X16621362Y-10351603D01*
X16621628Y-10349691D01*
X16621983Y-10348012D01*
X16622511Y-10346154D01*
X16623255Y-10338124D01*
X16880950Y-10338124D01*
X16885038Y-10359994D01*
X16887967Y-10367553D01*
X16893075Y-10380740D01*
X16904788Y-10399656D01*
X16919776Y-10416098D01*
X16937531Y-10429506D01*
X16957447Y-10439423D01*
X16978846Y-10445512D01*
X16995450Y-10447050D01*
X16995450Y-10447050D01*
X17283941Y-10447050D01*
X17284513Y-10447063D01*
X17292568Y-10447436D01*
X17300559Y-10446321D01*
X17301119Y-10446256D01*
X17309154Y-10445512D01*
X17311012Y-10444983D01*
X17312691Y-10444629D01*
X17314603Y-10444362D01*
X17322250Y-10441799D01*
X17322794Y-10441630D01*
X17330553Y-10439423D01*
X17332281Y-10438562D01*
X17333868Y-10437905D01*
X17333972Y-10437870D01*
X17335699Y-10437292D01*
X17342745Y-10433367D01*
X17343249Y-10433101D01*
X17347578Y-10430945D01*
X17350469Y-10429506D01*
X17352011Y-10428342D01*
X17353448Y-10427405D01*
X17355135Y-10426465D01*
X17360227Y-10422237D01*
X17361621Y-10421234D01*
X17361656Y-10421212D01*
X17362223Y-10420696D01*
X17363102Y-10419965D01*
X17368224Y-10416098D01*
X17372546Y-10411356D01*
X17373356Y-10410546D01*
X17374562Y-10409447D01*
X17378098Y-10406224D01*
X17381965Y-10401102D01*
X17382696Y-10400223D01*
X17383212Y-10399656D01*
X17383234Y-10399621D01*
X17384237Y-10398227D01*
X17388465Y-10393135D01*
X17389405Y-10391448D01*
X17390342Y-10390011D01*
X17391506Y-10388469D01*
X17392945Y-10385578D01*
X17395101Y-10381249D01*
X17395367Y-10380745D01*
X17399292Y-10373699D01*
X17399905Y-10371868D01*
X17400562Y-10370281D01*
X17400676Y-10370052D01*
X17401423Y-10368553D01*
X17403630Y-10360794D01*
X17403799Y-10360250D01*
X17406362Y-10352603D01*
X17406629Y-10350691D01*
X17406983Y-10349012D01*
X17407512Y-10347154D01*
X17408256Y-10339120D01*
X17408321Y-10338559D01*
X17409436Y-10330568D01*
X17409346Y-10328640D01*
X17409386Y-10326923D01*
X17409564Y-10325000D01*
X17408820Y-10316966D01*
X17408781Y-10316401D01*
X17408408Y-10308343D01*
X17407966Y-10306464D01*
X17407690Y-10304770D01*
X17407678Y-10304643D01*
X17407512Y-10302846D01*
X17405303Y-10295086D01*
X17405160Y-10294535D01*
X17404656Y-10292390D01*
X17403314Y-10286686D01*
X17402534Y-10284918D01*
X17401952Y-10283306D01*
X17401423Y-10281447D01*
X17397828Y-10274227D01*
X17397584Y-10273709D01*
X17397386Y-10273260D01*
X17394328Y-10266333D01*
X17393237Y-10264740D01*
X17392366Y-10263259D01*
X17391506Y-10261531D01*
X17391506Y-10261531D01*
X17391506Y-10261531D01*
X17386644Y-10255094D01*
X17386312Y-10254632D01*
X17381754Y-10247978D01*
X17380389Y-10246613D01*
X17379262Y-10245317D01*
X17378098Y-10243776D01*
X17372138Y-10238343D01*
X17371724Y-10237948D01*
X17366022Y-10232246D01*
X17366022Y-10232246D01*
X17366022Y-10232246D01*
X17364429Y-10231154D01*
X17363084Y-10230089D01*
X17361656Y-10228788D01*
X17354798Y-10224541D01*
X17354319Y-10224229D01*
X17347667Y-10219673D01*
X17347667Y-10219673D01*
X17347667Y-10219672D01*
X17345900Y-10218892D01*
X17344382Y-10218092D01*
X17342740Y-10217075D01*
X17335217Y-10214161D01*
X17334694Y-10213944D01*
X17327314Y-10210686D01*
X17327314Y-10210686D01*
X17327314Y-10210686D01*
X17325434Y-10210243D01*
X17323795Y-10209736D01*
X17321994Y-10209038D01*
X17314068Y-10207557D01*
X17313508Y-10207438D01*
X17305657Y-10205592D01*
X17305426Y-10205581D01*
X17303728Y-10205503D01*
X17302023Y-10205305D01*
X17300125Y-10204950D01*
X17300124Y-10204950D01*
X17292060Y-10204950D01*
X17291487Y-10204937D01*
X17289568Y-10204848D01*
X17283432Y-10204564D01*
X17283432Y-10204564D01*
X17281520Y-10204831D01*
X17279807Y-10204950D01*
X17277876Y-10204950D01*
X17269948Y-10206432D01*
X17269383Y-10206524D01*
X17267183Y-10206831D01*
X17265469Y-10206950D01*
X16995450Y-10206950D01*
X16978846Y-10208488D01*
X16957447Y-10214577D01*
X16937531Y-10224494D01*
X16919776Y-10237902D01*
X16904788Y-10254344D01*
X16893075Y-10273260D01*
X16887714Y-10287098D01*
X16885038Y-10294006D01*
X16880950Y-10315876D01*
X16880950Y-10338124D01*
X16623255Y-10338124D01*
X16623256Y-10338119D01*
X16623321Y-10337559D01*
X16624436Y-10329568D01*
X16624063Y-10321513D01*
X16624050Y-10320941D01*
X16624050Y-10056903D01*
X16931453Y-10056903D01*
X16938752Y-10062013D01*
X16959367Y-10071627D01*
X16981340Y-10077514D01*
X17004000Y-10079497D01*
X17026660Y-10077514D01*
X17048633Y-10071627D01*
X17069248Y-10062013D01*
X17076547Y-10056903D01*
X17004000Y-9984355D01*
X17004000Y-9984355D01*
X16931453Y-10056903D01*
X16931453Y-10056903D01*
X16624050Y-10056903D01*
X16624050Y-9949000D01*
X16873503Y-9949000D01*
X16875486Y-9971660D01*
X16881373Y-9993633D01*
X16890987Y-10014248D01*
X16896097Y-10021547D01*
X16896097Y-10021547D01*
X16968645Y-9949000D01*
X16968645Y-9949000D01*
X16968645Y-9949000D01*
X17039355Y-9949000D01*
X17111903Y-10021547D01*
X17117013Y-10014248D01*
X17126627Y-9993633D01*
X17132514Y-9971660D01*
X17134497Y-9949000D01*
X17132514Y-9926340D01*
X17126627Y-9904367D01*
X17117013Y-9883752D01*
X17111903Y-9876453D01*
X17039355Y-9949000D01*
X17039355Y-9949000D01*
X16968645Y-9949000D01*
X16896097Y-9876453D01*
X16896097Y-9876453D01*
X16890987Y-9883752D01*
X16881373Y-9904367D01*
X16875486Y-9926340D01*
X16873503Y-9949000D01*
X16624050Y-9949000D01*
X16624050Y-9939060D01*
X16624063Y-9938487D01*
X16624078Y-9938163D01*
X16624436Y-9930432D01*
X16623321Y-9922442D01*
X16623256Y-9921880D01*
X16622511Y-9913846D01*
X16622501Y-9913809D01*
X16621983Y-9911989D01*
X16621628Y-9910309D01*
X16621362Y-9908397D01*
X16618799Y-9900750D01*
X16618630Y-9900206D01*
X16616423Y-9892447D01*
X16615562Y-9890719D01*
X16614905Y-9889132D01*
X16614291Y-9887301D01*
X16610366Y-9880254D01*
X16610100Y-9879750D01*
X16606506Y-9872531D01*
X16605342Y-9870990D01*
X16604405Y-9869551D01*
X16603465Y-9867865D01*
X16598313Y-9861660D01*
X16597957Y-9861211D01*
X16596958Y-9859888D01*
X16593098Y-9854776D01*
X16593098Y-9854776D01*
X16587138Y-9849343D01*
X16586724Y-9848948D01*
X16578874Y-9841097D01*
X16931453Y-9841097D01*
X17004000Y-9913645D01*
X17004000Y-9913645D01*
X17076547Y-9841097D01*
X17076547Y-9841097D01*
X17069248Y-9835987D01*
X17048633Y-9826373D01*
X17026660Y-9820486D01*
X17004000Y-9818503D01*
X16981340Y-9820486D01*
X16959367Y-9826373D01*
X16938752Y-9835987D01*
X16931453Y-9841097D01*
X16931453Y-9841097D01*
X16578874Y-9841097D01*
X16347052Y-9609276D01*
X16346656Y-9608862D01*
X16341223Y-9602902D01*
X16334788Y-9598042D01*
X16334339Y-9597687D01*
X16328135Y-9592535D01*
X16328135Y-9592535D01*
X16326448Y-9591595D01*
X16325010Y-9590658D01*
X16323469Y-9589494D01*
X16316251Y-9585900D01*
X16315744Y-9585633D01*
X16313903Y-9584608D01*
X16308698Y-9581709D01*
X16308698Y-9581708D01*
X16308698Y-9581708D01*
X16306867Y-9581094D01*
X16305281Y-9580438D01*
X16303552Y-9579577D01*
X16295795Y-9577370D01*
X16295248Y-9577200D01*
X16294775Y-9577042D01*
X16287603Y-9574638D01*
X16287603Y-9574638D01*
X16287603Y-9574638D01*
X16285691Y-9574371D01*
X16284012Y-9574017D01*
X16282154Y-9573489D01*
X16274122Y-9572744D01*
X16273553Y-9572678D01*
X16265568Y-9571564D01*
X16265568Y-9571564D01*
X16258566Y-9571888D01*
X16257513Y-9571937D01*
X16256940Y-9571950D01*
X15880059Y-9571950D01*
X15879487Y-9571937D01*
X15879102Y-9571919D01*
X15871432Y-9571564D01*
X15871432Y-9571564D01*
X15863447Y-9572678D01*
X15862878Y-9572744D01*
X15854846Y-9573488D01*
X15852988Y-9574017D01*
X15851309Y-9574371D01*
X15849397Y-9574638D01*
X15841752Y-9577200D01*
X15841205Y-9577370D01*
X15833447Y-9579577D01*
X15831718Y-9580438D01*
X15830132Y-9581095D01*
X15828302Y-9581708D01*
X15821258Y-9585632D01*
X15820751Y-9585899D01*
X15813531Y-9589494D01*
X15811990Y-9590658D01*
X15810552Y-9591595D01*
X15808865Y-9592535D01*
X15802660Y-9597687D01*
X15802211Y-9598043D01*
X15795776Y-9602902D01*
X15790343Y-9608861D01*
X15789948Y-9609276D01*
X15567968Y-9831255D01*
X15562594Y-9834414D01*
X15561035Y-9834857D01*
X15559920Y-9835120D01*
X15555006Y-9836038D01*
X15550343Y-9837844D01*
X15549258Y-9838208D01*
X15544447Y-9839577D01*
X15539970Y-9841806D01*
X15538923Y-9842269D01*
X15534260Y-9844075D01*
X15530008Y-9846708D01*
X15529008Y-9847265D01*
X15524531Y-9849494D01*
X15520540Y-9852508D01*
X15519595Y-9853155D01*
X15515344Y-9855787D01*
X15511648Y-9859157D01*
X15510767Y-9859888D01*
X15506776Y-9862902D01*
X15503407Y-9866598D01*
X15502598Y-9867407D01*
X15498902Y-9870777D01*
X15495888Y-9874767D01*
X15495157Y-9875648D01*
X15491787Y-9879344D01*
X15489155Y-9883595D01*
X15488508Y-9884540D01*
X15485494Y-9888531D01*
X15483265Y-9893008D01*
X15482708Y-9894008D01*
X15480075Y-9898260D01*
X15478269Y-9902923D01*
X15477806Y-9903970D01*
X15475577Y-9908447D01*
X15474208Y-9913258D01*
X15473844Y-9914343D01*
X15472038Y-9919006D01*
X15471119Y-9923921D01*
X15470857Y-9925035D01*
X15469488Y-9929846D01*
X15469027Y-9934826D01*
X15468869Y-9935960D01*
X15467950Y-9940876D01*
X15467950Y-9945877D01*
X15467897Y-9947021D01*
X15467436Y-9952000D01*
X14715236Y-9952000D01*
X14715436Y-9950568D01*
X14715063Y-9942513D01*
X14715050Y-9941940D01*
X14715050Y-9710863D01*
X14715994Y-9706117D01*
X14718682Y-9702094D01*
X14733174Y-9687602D01*
X14750813Y-9669964D01*
X14761465Y-9657135D01*
X14772291Y-9637699D01*
X14779362Y-9616603D01*
X14782436Y-9594568D01*
X14781408Y-9572343D01*
X14780609Y-9568948D01*
X14776314Y-9550686D01*
X14768570Y-9533146D01*
X14767328Y-9530333D01*
X14754754Y-9511978D01*
X14739022Y-9496246D01*
X14720667Y-9483672D01*
X14717379Y-9482221D01*
X14700314Y-9474686D01*
X14678657Y-9469592D01*
X14661988Y-9468821D01*
X14656432Y-9468564D01*
X14656432Y-9468564D01*
X14634397Y-9471638D01*
X14613301Y-9478709D01*
X14593865Y-9489535D01*
X14581036Y-9500187D01*
X14512276Y-9568948D01*
X14511861Y-9569343D01*
X14505902Y-9574776D01*
X14501043Y-9581211D01*
X14500687Y-9581660D01*
X14495535Y-9587865D01*
X14494595Y-9589552D01*
X14493658Y-9590990D01*
X14492494Y-9592531D01*
X14488899Y-9599751D01*
X14488632Y-9600258D01*
X14484708Y-9607302D01*
X14484095Y-9609132D01*
X14483438Y-9610718D01*
X14482577Y-9612447D01*
X14480370Y-9620205D01*
X14480200Y-9620752D01*
X14477638Y-9628397D01*
X14477371Y-9630309D01*
X14477017Y-9631988D01*
X14476488Y-9633846D01*
X14475744Y-9641878D01*
X14475678Y-9642447D01*
X14474564Y-9650432D01*
X14474937Y-9658487D01*
X14474950Y-9659060D01*
X14474950Y-9908922D01*
X14474476Y-9912315D01*
X14473370Y-9916205D01*
X14473200Y-9916752D01*
X14470638Y-9924397D01*
X14470371Y-9926309D01*
X14470017Y-9927988D01*
X14469488Y-9929846D01*
X14468744Y-9937878D01*
X14468678Y-9938447D01*
X14467564Y-9946432D01*
X14467653Y-9948361D01*
X14467614Y-9950077D01*
X14467436Y-9952000D01*
X13911175Y-9952000D01*
X13911175Y-9645072D01*
X13911175Y-9645071D01*
X13911175Y-9642907D01*
X13911025Y-9642447D01*
X13910490Y-9640800D01*
X13910036Y-9638908D01*
X13909690Y-9636720D01*
X13909690Y-9636720D01*
X13908683Y-9634745D01*
X13907939Y-9632948D01*
X13907255Y-9630841D01*
X13906868Y-9630309D01*
X13905953Y-9629049D01*
X13904935Y-9627389D01*
X13903930Y-9625416D01*
X13894959Y-9616445D01*
X13873082Y-9594568D01*
X13802344Y-9523830D01*
X13802342Y-9523828D01*
X13800709Y-9522195D01*
X13800709Y-9522195D01*
X13800709Y-9522195D01*
X13798735Y-9521189D01*
X13797076Y-9520173D01*
X13795284Y-9518870D01*
X13793177Y-9518186D01*
X13791379Y-9517441D01*
X13789405Y-9516435D01*
X13787217Y-9516089D01*
X13785326Y-9515635D01*
X13783218Y-9514950D01*
X13783218Y-9514950D01*
X13780027Y-9514950D01*
X13773260Y-9514950D01*
X13768301Y-9513915D01*
X13764170Y-9510984D01*
X13761556Y-9506645D01*
X13759654Y-9501212D01*
X13751590Y-9490285D01*
X13740663Y-9482221D01*
X13727845Y-9477735D01*
X13724802Y-9477450D01*
X13724802Y-9477450D01*
X13699825Y-9477450D01*
X13693625Y-9475789D01*
X13689086Y-9471250D01*
X13687425Y-9465050D01*
X13687425Y-9427658D01*
X13688083Y-9423672D01*
X13689987Y-9420110D01*
X13697617Y-9410166D01*
X13699829Y-9407284D01*
X13705879Y-9392676D01*
X13707943Y-9377000D01*
X13707884Y-9376551D01*
X13707461Y-9373339D01*
X13705879Y-9361324D01*
X13699829Y-9346716D01*
X13697960Y-9344281D01*
X13690203Y-9334172D01*
X13677659Y-9324546D01*
X13663051Y-9318496D01*
X13647375Y-9316432D01*
X13631699Y-9318496D01*
X13617091Y-9324546D01*
X13604547Y-9334172D01*
X13603068Y-9336099D01*
X13598715Y-9339671D01*
X13593231Y-9340950D01*
X13490400Y-9340950D01*
X13484200Y-9339289D01*
X13479661Y-9334750D01*
X13478000Y-9328550D01*
X13478000Y-8858715D01*
X13478944Y-8853970D01*
X13481632Y-8849947D01*
X13485655Y-8847259D01*
X13487961Y-8846304D01*
X13489409Y-8845704D01*
X13501953Y-8836078D01*
X13511579Y-8823534D01*
X13517629Y-8808926D01*
X13519693Y-8793250D01*
X13517629Y-8777574D01*
X13511579Y-8762966D01*
X13510294Y-8761291D01*
X13506424Y-8756249D01*
X13503922Y-8749915D01*
X13505141Y-8743216D01*
X13509714Y-8738170D01*
X13516262Y-8736300D01*
X13626399Y-8736300D01*
X13631145Y-8737244D01*
X13635168Y-8739932D01*
X13809943Y-8914707D01*
X13812631Y-8918730D01*
X13813575Y-8923476D01*
X13813575Y-9131969D01*
X13814260Y-9134076D01*
X13814714Y-9135967D01*
X13815060Y-9138155D01*
X13816066Y-9140129D01*
X13816811Y-9141927D01*
X13817495Y-9144034D01*
X13818798Y-9145826D01*
X13819814Y-9147485D01*
X13820820Y-9149459D01*
X13820820Y-9149459D01*
X13820820Y-9149459D01*
X13822453Y-9151093D01*
X13822455Y-9151094D01*
X14118318Y-9446957D01*
X14121006Y-9450980D01*
X14121950Y-9455726D01*
X14121950Y-9489529D01*
X14120186Y-9495904D01*
X14115395Y-9500465D01*
X14106146Y-9505409D01*
X14090912Y-9517912D01*
X14078409Y-9533146D01*
X14069118Y-9550527D01*
X14063398Y-9569387D01*
X14062184Y-9581708D01*
X14061466Y-9589000D01*
X14061721Y-9591595D01*
X14063398Y-9608613D01*
X14069118Y-9627473D01*
X14075231Y-9638908D01*
X14078409Y-9644854D01*
X14090912Y-9660088D01*
X14106146Y-9672591D01*
X14123527Y-9681881D01*
X14142387Y-9687602D01*
X14162000Y-9689534D01*
X14181613Y-9687602D01*
X14200473Y-9681881D01*
X14217854Y-9672591D01*
X14233088Y-9660088D01*
X14245591Y-9644854D01*
X14254881Y-9627473D01*
X14260602Y-9608613D01*
X14262534Y-9589000D01*
X14260602Y-9569387D01*
X14254881Y-9550527D01*
X14245591Y-9533146D01*
X14233088Y-9517912D01*
X14217854Y-9505409D01*
X14216603Y-9504741D01*
X14208605Y-9500465D01*
X14203814Y-9495904D01*
X14202050Y-9489529D01*
X14202050Y-9427657D01*
X14201365Y-9425549D01*
X14200911Y-9423658D01*
X14200565Y-9421470D01*
X14199559Y-9419496D01*
X14198814Y-9417698D01*
X14198687Y-9417308D01*
X14198130Y-9415591D01*
X14196827Y-9413798D01*
X14195811Y-9412139D01*
X14194805Y-9410166D01*
X14193417Y-9408778D01*
X14193417Y-9408777D01*
X14027639Y-9243000D01*
X14520436Y-9243000D01*
X14520897Y-9247979D01*
X14520950Y-9249124D01*
X14520950Y-9270050D01*
X14522488Y-9286654D01*
X14528577Y-9308053D01*
X14538494Y-9327969D01*
X14551902Y-9345724D01*
X14568344Y-9360712D01*
X14587259Y-9372425D01*
X14587260Y-9372425D01*
X14587260Y-9372425D01*
X14608006Y-9380462D01*
X14629876Y-9384550D01*
X14652124Y-9384550D01*
X14652124Y-9384550D01*
X14673994Y-9380462D01*
X14694740Y-9372425D01*
X14713656Y-9360712D01*
X14720203Y-9354744D01*
X14730098Y-9345724D01*
X14731188Y-9344281D01*
X14743506Y-9327969D01*
X14753423Y-9308053D01*
X14753843Y-9306577D01*
X14759511Y-9286654D01*
X14761050Y-9270050D01*
X14761050Y-9249124D01*
X14761103Y-9247979D01*
X14761564Y-9243000D01*
X14761103Y-9238021D01*
X14761050Y-9236877D01*
X14761050Y-8961511D01*
X14762617Y-8955477D01*
X14762969Y-8954845D01*
X14770291Y-8941699D01*
X14777362Y-8920603D01*
X14780436Y-8898568D01*
X14779408Y-8876343D01*
X14777995Y-8870334D01*
X14774314Y-8854686D01*
X14769536Y-8843865D01*
X14765328Y-8834333D01*
X14752754Y-8815978D01*
X14737022Y-8800246D01*
X14718667Y-8787672D01*
X14714141Y-8785674D01*
X14698314Y-8778686D01*
X14676657Y-8773592D01*
X14654432Y-8772564D01*
X14632397Y-8775638D01*
X14611301Y-8782709D01*
X14591865Y-8793535D01*
X14579037Y-8804187D01*
X14558276Y-8824947D01*
X14557862Y-8825342D01*
X14551902Y-8830776D01*
X14547043Y-8837211D01*
X14546687Y-8837660D01*
X14541535Y-8843865D01*
X14540595Y-8845552D01*
X14539658Y-8846990D01*
X14538494Y-8848531D01*
X14534899Y-8855751D01*
X14534632Y-8856258D01*
X14530708Y-8863302D01*
X14530095Y-8865132D01*
X14529438Y-8866718D01*
X14528577Y-8868447D01*
X14526370Y-8876205D01*
X14526200Y-8876752D01*
X14523638Y-8884397D01*
X14523371Y-8886309D01*
X14523017Y-8887988D01*
X14522488Y-8889846D01*
X14521744Y-8897878D01*
X14521678Y-8898447D01*
X14520564Y-8906432D01*
X14520937Y-8914487D01*
X14520950Y-8915060D01*
X14520950Y-9236877D01*
X14520897Y-9238021D01*
X14520436Y-9243000D01*
X14027639Y-9243000D01*
X13897307Y-9112668D01*
X13894619Y-9108645D01*
X13893675Y-9103900D01*
X13893675Y-8915376D01*
X13895026Y-8909746D01*
X13898786Y-8905344D01*
X13904135Y-8903128D01*
X13909907Y-8903582D01*
X13914843Y-8906607D01*
X13932652Y-8924416D01*
X13932653Y-8924417D01*
X13934041Y-8925805D01*
X13934708Y-8926145D01*
X13936015Y-8926811D01*
X13937674Y-8927827D01*
X13939466Y-8929130D01*
X13941574Y-8929814D01*
X13943369Y-8930558D01*
X13945345Y-8931565D01*
X13946327Y-8931720D01*
X13947533Y-8931911D01*
X13949425Y-8932365D01*
X13951532Y-8933050D01*
X13954723Y-8933050D01*
X13964218Y-8933050D01*
X14060529Y-8933050D01*
X14066904Y-8934814D01*
X14071465Y-8939605D01*
X14073966Y-8944284D01*
X14076409Y-8948854D01*
X14088912Y-8964088D01*
X14104146Y-8976591D01*
X14121527Y-8985881D01*
X14140387Y-8991602D01*
X14160000Y-8993534D01*
X14179613Y-8991602D01*
X14198473Y-8985881D01*
X14215854Y-8976591D01*
X14231088Y-8964088D01*
X14243591Y-8948854D01*
X14252881Y-8931473D01*
X14258602Y-8912613D01*
X14260534Y-8893000D01*
X14258602Y-8873387D01*
X14252881Y-8854527D01*
X14243591Y-8837146D01*
X14231088Y-8821912D01*
X14215854Y-8809409D01*
X14207458Y-8804922D01*
X14198473Y-8800119D01*
X14179613Y-8794398D01*
X14160000Y-8792466D01*
X14140387Y-8794398D01*
X14121527Y-8800119D01*
X14104146Y-8809409D01*
X14088912Y-8821912D01*
X14076409Y-8837146D01*
X14071465Y-8846395D01*
X14066904Y-8851186D01*
X14060529Y-8852950D01*
X13979600Y-8852950D01*
X13974855Y-8852006D01*
X13970832Y-8849318D01*
X13789875Y-8668361D01*
X14435994Y-8668361D01*
X14440677Y-8672006D01*
X14462539Y-8683837D01*
X14486051Y-8691908D01*
X14510571Y-8696000D01*
X14535429Y-8696000D01*
X14559949Y-8691908D01*
X14583461Y-8683837D01*
X14605323Y-8672005D01*
X14610006Y-8668361D01*
X14523000Y-8581355D01*
X14435994Y-8668361D01*
X14435994Y-8668361D01*
X13789875Y-8668361D01*
X13687216Y-8565701D01*
X13682406Y-8560892D01*
X13682405Y-8560891D01*
X13680772Y-8559258D01*
X13680772Y-8559257D01*
X13680771Y-8559257D01*
X13678797Y-8558251D01*
X13677139Y-8557235D01*
X13675346Y-8555933D01*
X13673239Y-8555248D01*
X13671442Y-8554504D01*
X13669468Y-8553498D01*
X13667279Y-8553151D01*
X13665388Y-8552697D01*
X13663281Y-8552013D01*
X13663281Y-8552013D01*
X13660089Y-8552013D01*
X13316161Y-8552013D01*
X13315135Y-8552013D01*
X13315134Y-8552013D01*
X13312969Y-8552013D01*
X13310862Y-8552697D01*
X13308971Y-8553151D01*
X13306782Y-8553498D01*
X13304808Y-8554504D01*
X13303011Y-8555248D01*
X13300903Y-8555933D01*
X13299111Y-8557235D01*
X13297452Y-8558252D01*
X13295478Y-8559257D01*
X13293222Y-8561514D01*
X13184343Y-8670393D01*
X13179407Y-8673418D01*
X13173635Y-8673872D01*
X13168286Y-8671656D01*
X13164526Y-8667254D01*
X13163175Y-8661625D01*
X13163175Y-8657072D01*
X13163175Y-8657071D01*
X13163175Y-8654907D01*
X13162646Y-8653280D01*
X13162490Y-8652800D01*
X13162036Y-8650908D01*
X13161690Y-8648720D01*
X13161690Y-8648720D01*
X13160683Y-8646745D01*
X13159939Y-8644948D01*
X13159255Y-8642841D01*
X13158786Y-8642197D01*
X13157953Y-8641049D01*
X13156935Y-8639389D01*
X13156181Y-8637910D01*
X13155930Y-8637416D01*
X13146959Y-8628445D01*
X13064514Y-8546000D01*
X14372486Y-8546000D01*
X14374539Y-8570773D01*
X14380641Y-8594872D01*
X14390627Y-8617637D01*
X14400656Y-8632988D01*
X14400656Y-8632988D01*
X14487645Y-8546000D01*
X14558355Y-8546000D01*
X14645343Y-8632988D01*
X14655373Y-8617637D01*
X14665359Y-8594872D01*
X14671461Y-8570773D01*
X14673514Y-8546000D01*
X15402436Y-8546000D01*
X15402614Y-8547923D01*
X15402653Y-8549639D01*
X15402564Y-8551568D01*
X15403678Y-8559553D01*
X15403744Y-8560122D01*
X15404488Y-8568154D01*
X15405017Y-8570012D01*
X15405371Y-8571691D01*
X15405395Y-8571857D01*
X15405638Y-8573603D01*
X15406759Y-8576948D01*
X15408200Y-8581248D01*
X15408370Y-8581795D01*
X15410577Y-8589553D01*
X15411437Y-8591281D01*
X15412094Y-8592867D01*
X15412708Y-8594698D01*
X15412708Y-8594699D01*
X15415607Y-8599903D01*
X15416633Y-8601744D01*
X15416900Y-8602251D01*
X15420494Y-8609469D01*
X15421658Y-8611010D01*
X15422595Y-8612448D01*
X15423535Y-8614135D01*
X15424436Y-8615221D01*
X15428687Y-8620339D01*
X15429042Y-8620789D01*
X15433902Y-8627224D01*
X15439861Y-8632657D01*
X15440276Y-8633052D01*
X15517318Y-8710094D01*
X15520006Y-8714117D01*
X15520950Y-8718863D01*
X15520950Y-9236877D01*
X15520897Y-9238021D01*
X15520436Y-9243000D01*
X15520897Y-9247979D01*
X15520950Y-9249124D01*
X15520950Y-9295941D01*
X15520937Y-9296513D01*
X15520564Y-9304568D01*
X15521678Y-9312553D01*
X15521744Y-9313122D01*
X15522488Y-9321154D01*
X15523017Y-9323012D01*
X15523371Y-9324691D01*
X15523638Y-9326603D01*
X15523638Y-9326603D01*
X15524961Y-9330551D01*
X15526200Y-9334248D01*
X15526370Y-9334795D01*
X15528577Y-9342553D01*
X15529437Y-9344281D01*
X15530094Y-9345867D01*
X15530708Y-9347698D01*
X15530708Y-9347699D01*
X15533607Y-9352903D01*
X15534633Y-9354744D01*
X15534900Y-9355251D01*
X15538494Y-9362469D01*
X15539658Y-9364010D01*
X15540595Y-9365448D01*
X15540995Y-9366166D01*
X15541535Y-9367135D01*
X15546687Y-9373339D01*
X15547042Y-9373789D01*
X15551902Y-9380224D01*
X15557861Y-9385657D01*
X15558276Y-9386052D01*
X15578318Y-9406094D01*
X15581006Y-9410117D01*
X15581950Y-9414863D01*
X15581950Y-9430124D01*
X15586038Y-9451994D01*
X15590391Y-9463231D01*
X15594075Y-9472740D01*
X15605787Y-9491656D01*
X15620776Y-9508098D01*
X15638531Y-9521506D01*
X15658447Y-9531423D01*
X15679846Y-9537512D01*
X15696450Y-9539050D01*
X15696450Y-9539050D01*
X15731460Y-9539050D01*
X15735400Y-9539693D01*
X15737397Y-9540362D01*
X15759432Y-9543436D01*
X15781657Y-9542408D01*
X15794534Y-9539379D01*
X15797373Y-9539050D01*
X16296550Y-9539050D01*
X16313154Y-9537512D01*
X16334553Y-9531423D01*
X16338098Y-9529658D01*
X16354469Y-9521506D01*
X16372224Y-9508098D01*
X16374675Y-9505409D01*
X16387212Y-9491656D01*
X16395229Y-9478709D01*
X16398925Y-9472740D01*
X16406962Y-9451994D01*
X16411050Y-9430124D01*
X16670950Y-9430124D01*
X16675038Y-9451994D01*
X16679391Y-9463231D01*
X16683075Y-9472740D01*
X16694787Y-9491656D01*
X16709776Y-9508098D01*
X16727531Y-9521506D01*
X16747447Y-9531423D01*
X16768846Y-9537512D01*
X16785450Y-9539050D01*
X16785450Y-9539050D01*
X17199275Y-9539050D01*
X17203486Y-9539787D01*
X17207197Y-9541911D01*
X17207865Y-9542465D01*
X17214911Y-9546390D01*
X17215403Y-9546679D01*
X17219324Y-9549107D01*
X17222260Y-9550925D01*
X17224061Y-9551622D01*
X17225614Y-9552352D01*
X17227302Y-9553292D01*
X17234950Y-9555855D01*
X17235487Y-9556049D01*
X17243006Y-9558962D01*
X17243006Y-9558962D01*
X17243006Y-9558962D01*
X17244905Y-9559317D01*
X17246566Y-9559748D01*
X17248397Y-9560362D01*
X17256384Y-9561476D01*
X17256944Y-9561567D01*
X17264876Y-9563050D01*
X17266807Y-9563050D01*
X17268520Y-9563169D01*
X17268807Y-9563209D01*
X17270432Y-9563436D01*
X17278487Y-9563063D01*
X17279060Y-9563050D01*
X17287125Y-9563050D01*
X17289023Y-9562695D01*
X17290728Y-9562497D01*
X17292657Y-9562408D01*
X17300511Y-9560561D01*
X17301062Y-9560445D01*
X17308994Y-9558962D01*
X17310795Y-9558264D01*
X17312435Y-9557756D01*
X17314314Y-9557314D01*
X17321693Y-9554056D01*
X17322218Y-9553839D01*
X17329740Y-9550925D01*
X17331382Y-9549908D01*
X17332901Y-9549108D01*
X17334667Y-9548328D01*
X17341321Y-9543770D01*
X17341796Y-9543460D01*
X17348656Y-9539212D01*
X17350083Y-9537912D01*
X17351429Y-9536846D01*
X17353022Y-9535754D01*
X17358727Y-9530049D01*
X17359137Y-9529658D01*
X17365098Y-9524224D01*
X17366262Y-9522682D01*
X17367389Y-9521388D01*
X17368754Y-9520022D01*
X17373313Y-9513367D01*
X17373646Y-9512905D01*
X17374346Y-9511978D01*
X17378506Y-9506469D01*
X17379367Y-9504740D01*
X17380236Y-9503260D01*
X17381328Y-9501667D01*
X17384585Y-9494289D01*
X17384825Y-9493777D01*
X17388423Y-9486553D01*
X17388952Y-9484694D01*
X17389534Y-9483081D01*
X17390314Y-9481314D01*
X17392161Y-9473464D01*
X17392304Y-9472911D01*
X17394512Y-9465154D01*
X17394690Y-9463231D01*
X17394966Y-9461535D01*
X17395408Y-9459657D01*
X17395781Y-9451599D01*
X17395820Y-9451034D01*
X17396564Y-9443000D01*
X17396386Y-9441076D01*
X17396346Y-9439359D01*
X17396436Y-9437432D01*
X17395322Y-9429446D01*
X17395256Y-9428877D01*
X17394512Y-9420846D01*
X17393983Y-9418989D01*
X17393629Y-9417309D01*
X17393362Y-9415397D01*
X17390799Y-9407750D01*
X17390631Y-9407206D01*
X17388423Y-9399447D01*
X17387563Y-9397719D01*
X17386905Y-9396132D01*
X17386291Y-9394301D01*
X17382366Y-9387254D01*
X17382100Y-9386750D01*
X17378506Y-9379531D01*
X17377342Y-9377990D01*
X17376405Y-9376551D01*
X17375465Y-9374865D01*
X17370313Y-9368660D01*
X17369957Y-9368211D01*
X17369145Y-9367135D01*
X17366709Y-9363909D01*
X17365098Y-9361776D01*
X17359138Y-9356343D01*
X17358724Y-9355948D01*
X17339052Y-9336276D01*
X17338657Y-9335862D01*
X17333224Y-9329902D01*
X17326789Y-9325042D01*
X17326339Y-9324687D01*
X17320135Y-9319535D01*
X17320135Y-9319535D01*
X17318448Y-9318595D01*
X17317010Y-9317658D01*
X17315469Y-9316494D01*
X17308251Y-9312900D01*
X17307744Y-9312633D01*
X17305903Y-9311608D01*
X17300699Y-9308709D01*
X17300698Y-9308708D01*
X17300698Y-9308708D01*
X17298867Y-9308094D01*
X17297281Y-9307438D01*
X17295553Y-9306577D01*
X17287795Y-9304370D01*
X17287248Y-9304200D01*
X17286775Y-9304042D01*
X17279603Y-9301638D01*
X17279603Y-9301638D01*
X17279603Y-9301638D01*
X17277691Y-9301371D01*
X17276012Y-9301017D01*
X17274154Y-9300489D01*
X17266122Y-9299744D01*
X17265553Y-9299678D01*
X17257568Y-9298564D01*
X17257568Y-9298564D01*
X17250566Y-9298888D01*
X17249513Y-9298937D01*
X17248941Y-9298950D01*
X16785450Y-9298950D01*
X16768846Y-9300488D01*
X16747447Y-9306577D01*
X16727531Y-9316494D01*
X16709776Y-9329902D01*
X16694787Y-9346344D01*
X16683075Y-9365260D01*
X16677278Y-9380224D01*
X16675038Y-9386006D01*
X16670950Y-9407876D01*
X16670950Y-9430124D01*
X16411050Y-9430124D01*
X16411050Y-9407876D01*
X16406962Y-9386006D01*
X16398925Y-9365260D01*
X16398576Y-9364696D01*
X16387212Y-9346344D01*
X16372224Y-9329902D01*
X16354469Y-9316494D01*
X16334553Y-9306577D01*
X16313154Y-9300488D01*
X16296550Y-9298950D01*
X16296550Y-9298950D01*
X16222116Y-9298950D01*
X16216390Y-9297549D01*
X16211958Y-9293662D01*
X16209822Y-9288169D01*
X16210464Y-9282309D01*
X16213739Y-9277408D01*
X16218907Y-9274573D01*
X16233633Y-9270627D01*
X16254248Y-9261013D01*
X16261547Y-9255903D01*
X16189000Y-9183355D01*
X16189000Y-9183355D01*
X16116453Y-9255903D01*
X16116453Y-9255903D01*
X16123751Y-9261013D01*
X16144367Y-9270627D01*
X16159093Y-9274573D01*
X16164261Y-9277408D01*
X16167536Y-9282309D01*
X16168178Y-9288169D01*
X16166041Y-9293662D01*
X16161610Y-9297549D01*
X16155884Y-9298950D01*
X15815862Y-9298950D01*
X15811117Y-9298006D01*
X15807094Y-9295318D01*
X15765105Y-9253328D01*
X15762210Y-9248771D01*
X15761526Y-9243416D01*
X15761564Y-9243000D01*
X15761103Y-9238021D01*
X15761050Y-9236877D01*
X15761050Y-9148000D01*
X16058503Y-9148000D01*
X16060486Y-9170660D01*
X16066373Y-9192633D01*
X16075987Y-9213248D01*
X16081097Y-9220547D01*
X16081097Y-9220547D01*
X16153645Y-9148000D01*
X16153645Y-9148000D01*
X16224355Y-9148000D01*
X16296902Y-9220547D01*
X16302013Y-9213248D01*
X16311627Y-9192633D01*
X16317514Y-9170660D01*
X16319497Y-9148000D01*
X16317514Y-9125340D01*
X16311627Y-9103367D01*
X16302013Y-9082752D01*
X16296902Y-9075453D01*
X16224355Y-9148000D01*
X16224355Y-9148000D01*
X16153645Y-9148000D01*
X16153645Y-9148000D01*
X16081097Y-9075453D01*
X16075986Y-9082752D01*
X16066373Y-9103367D01*
X16060486Y-9125340D01*
X16058503Y-9148000D01*
X15761050Y-9148000D01*
X15761050Y-9040097D01*
X16116453Y-9040097D01*
X16189000Y-9112645D01*
X16189000Y-9112645D01*
X16261547Y-9040097D01*
X16261547Y-9040097D01*
X16254248Y-9034987D01*
X16233633Y-9025373D01*
X16211660Y-9019486D01*
X16189000Y-9017503D01*
X16166340Y-9019486D01*
X16144367Y-9025373D01*
X16123752Y-9034987D01*
X16116453Y-9040097D01*
X16116453Y-9040097D01*
X15761050Y-9040097D01*
X15761050Y-8939261D01*
X15763009Y-8932571D01*
X15768267Y-8927996D01*
X15775163Y-8926980D01*
X15778432Y-8927436D01*
X15786487Y-8927063D01*
X15787059Y-8927050D01*
X15846550Y-8927050D01*
X15863154Y-8925512D01*
X15884553Y-8919423D01*
X15893892Y-8914772D01*
X15904469Y-8909506D01*
X15922224Y-8896098D01*
X15937212Y-8879656D01*
X15948925Y-8860740D01*
X15956962Y-8839994D01*
X15961050Y-8818124D01*
X15961050Y-8795876D01*
X15956962Y-8774006D01*
X15948925Y-8753260D01*
X15948888Y-8753200D01*
X15937212Y-8734344D01*
X15922224Y-8717902D01*
X15904469Y-8704494D01*
X15884553Y-8694577D01*
X15863154Y-8688488D01*
X15846550Y-8686950D01*
X15846550Y-8686950D01*
X15838862Y-8686950D01*
X15834117Y-8686006D01*
X15830094Y-8683318D01*
X15732389Y-8585613D01*
X15731262Y-8584317D01*
X15730098Y-8582776D01*
X15724138Y-8577343D01*
X15723724Y-8576948D01*
X15614389Y-8467613D01*
X15613262Y-8466317D01*
X15612098Y-8464776D01*
X15606138Y-8459343D01*
X15605724Y-8458948D01*
X15603964Y-8457188D01*
X15603963Y-8457187D01*
X15602045Y-8455594D01*
X15601617Y-8455222D01*
X15595656Y-8449788D01*
X15594014Y-8448771D01*
X15592621Y-8447768D01*
X15591135Y-8446534D01*
X15584090Y-8442611D01*
X15583597Y-8442321D01*
X15576740Y-8438076D01*
X15576740Y-8438075D01*
X15576740Y-8438075D01*
X15574939Y-8437378D01*
X15573386Y-8436648D01*
X15571698Y-8435708D01*
X15564052Y-8433146D01*
X15563514Y-8432951D01*
X15555994Y-8430038D01*
X15554095Y-8429683D01*
X15552434Y-8429252D01*
X15550603Y-8428638D01*
X15542617Y-8427524D01*
X15542052Y-8427432D01*
X15534124Y-8425950D01*
X15534124Y-8425950D01*
X15532193Y-8425950D01*
X15530480Y-8425831D01*
X15528568Y-8425564D01*
X15528568Y-8425564D01*
X15522799Y-8425831D01*
X15520513Y-8425937D01*
X15519940Y-8425950D01*
X15511876Y-8425950D01*
X15509977Y-8426305D01*
X15508272Y-8426503D01*
X15507041Y-8426560D01*
X15506343Y-8426592D01*
X15498491Y-8428438D01*
X15497931Y-8428557D01*
X15490006Y-8430038D01*
X15488205Y-8430736D01*
X15486566Y-8431243D01*
X15484686Y-8431686D01*
X15484685Y-8431686D01*
X15477308Y-8434943D01*
X15476779Y-8435162D01*
X15469260Y-8438075D01*
X15467618Y-8439092D01*
X15466100Y-8439892D01*
X15464333Y-8440672D01*
X15457679Y-8445230D01*
X15457199Y-8445543D01*
X15450344Y-8449788D01*
X15448916Y-8451089D01*
X15447571Y-8452154D01*
X15445978Y-8453246D01*
X15445978Y-8453246D01*
X15440276Y-8458948D01*
X15439861Y-8459343D01*
X15433902Y-8464776D01*
X15432738Y-8466317D01*
X15431611Y-8467612D01*
X15430246Y-8468978D01*
X15425688Y-8475631D01*
X15425354Y-8476095D01*
X15420494Y-8482531D01*
X15419633Y-8484260D01*
X15418764Y-8485739D01*
X15417672Y-8487333D01*
X15414415Y-8494709D01*
X15414172Y-8495227D01*
X15410577Y-8502447D01*
X15410049Y-8504305D01*
X15409466Y-8505919D01*
X15408686Y-8507686D01*
X15406840Y-8515535D01*
X15406696Y-8516086D01*
X15404488Y-8523846D01*
X15404488Y-8523847D01*
X15404488Y-8523847D01*
X15404310Y-8525771D01*
X15404034Y-8527464D01*
X15403592Y-8529343D01*
X15403219Y-8537399D01*
X15403180Y-8537970D01*
X15402436Y-8546000D01*
X14673514Y-8546000D01*
X14671461Y-8521227D01*
X14665359Y-8497128D01*
X14655373Y-8474363D01*
X14645343Y-8459012D01*
X14558355Y-8546000D01*
X14558355Y-8546000D01*
X14487645Y-8546000D01*
X14487645Y-8546000D01*
X14400656Y-8459012D01*
X14390627Y-8474363D01*
X14380641Y-8497128D01*
X14374539Y-8521227D01*
X14372486Y-8546000D01*
X13064514Y-8546000D01*
X13047466Y-8528952D01*
X12942153Y-8423639D01*
X14435994Y-8423639D01*
X14523000Y-8510645D01*
X14523000Y-8510645D01*
X14610006Y-8423639D01*
X14610006Y-8423639D01*
X14605323Y-8419995D01*
X14595914Y-8414903D01*
X15768453Y-8414903D01*
X15775751Y-8420013D01*
X15796367Y-8429627D01*
X15818340Y-8435514D01*
X15841000Y-8437497D01*
X15863660Y-8435514D01*
X15885633Y-8429627D01*
X15906248Y-8420013D01*
X15913547Y-8414903D01*
X15841000Y-8342355D01*
X15841000Y-8342355D01*
X15768453Y-8414903D01*
X15768453Y-8414903D01*
X14595914Y-8414903D01*
X14583461Y-8408163D01*
X14559949Y-8400092D01*
X14535429Y-8396000D01*
X14510571Y-8396000D01*
X14486051Y-8400092D01*
X14462539Y-8408163D01*
X14440676Y-8419995D01*
X14435994Y-8423639D01*
X14435994Y-8423639D01*
X12942153Y-8423639D01*
X12870682Y-8352168D01*
X12867994Y-8348145D01*
X12867050Y-8343399D01*
X12867050Y-8266471D01*
X12868814Y-8260096D01*
X12873605Y-8255535D01*
X12876910Y-8253768D01*
X12882854Y-8250591D01*
X12898088Y-8238088D01*
X12910591Y-8222854D01*
X12919881Y-8205473D01*
X12925602Y-8186613D01*
X12927534Y-8167000D01*
X12927534Y-8167000D01*
X13226466Y-8167000D01*
X13228398Y-8186613D01*
X13234118Y-8205473D01*
X13243409Y-8222854D01*
X13243409Y-8222854D01*
X13251779Y-8233053D01*
X13254614Y-8236507D01*
X13255571Y-8237845D01*
X13256538Y-8239406D01*
X13271526Y-8255848D01*
X13289281Y-8269256D01*
X13309197Y-8279173D01*
X13330596Y-8285261D01*
X13347200Y-8286800D01*
X13347200Y-8286800D01*
X13491690Y-8286800D01*
X13492263Y-8286813D01*
X13500318Y-8287186D01*
X13508309Y-8286071D01*
X13508869Y-8286006D01*
X13516904Y-8285261D01*
X13518762Y-8284733D01*
X13520441Y-8284378D01*
X13522353Y-8284112D01*
X13530000Y-8281549D01*
X13530544Y-8281380D01*
X13538303Y-8279173D01*
X13538665Y-8278993D01*
X13538951Y-8278850D01*
X13544478Y-8277550D01*
X13579177Y-8277550D01*
X13580698Y-8277407D01*
X13582220Y-8277265D01*
X13595038Y-8272779D01*
X13595038Y-8272779D01*
X13595038Y-8272779D01*
X13605965Y-8264715D01*
X13614029Y-8253788D01*
X13614297Y-8253022D01*
X13618515Y-8240970D01*
X13618661Y-8239406D01*
X13618800Y-8237927D01*
X13618800Y-8215884D01*
X13619537Y-8211672D01*
X13621660Y-8207962D01*
X13624215Y-8204885D01*
X13625155Y-8203197D01*
X13626091Y-8201760D01*
X13627256Y-8200219D01*
X13628363Y-8197995D01*
X13630851Y-8192999D01*
X13631117Y-8192495D01*
X13635041Y-8185448D01*
X13635655Y-8183618D01*
X13636312Y-8182031D01*
X13636748Y-8181156D01*
X13637173Y-8180303D01*
X13639380Y-8172544D01*
X13639549Y-8172000D01*
X13642085Y-8164432D01*
X13714564Y-8164432D01*
X13714683Y-8167000D01*
X13715592Y-8186657D01*
X13720686Y-8208314D01*
X13727105Y-8222854D01*
X13729672Y-8228667D01*
X13742246Y-8247022D01*
X13757978Y-8262754D01*
X13776333Y-8275328D01*
X13784310Y-8278850D01*
X13796685Y-8284314D01*
X13815758Y-8288800D01*
X13818343Y-8289408D01*
X13840568Y-8290436D01*
X13851441Y-8288919D01*
X13853154Y-8288800D01*
X14007763Y-8288800D01*
X14011704Y-8289443D01*
X14014040Y-8290226D01*
X14023397Y-8293362D01*
X14045432Y-8296436D01*
X14067657Y-8295408D01*
X14089314Y-8290314D01*
X14109667Y-8281328D01*
X14128022Y-8268754D01*
X14143754Y-8253022D01*
X14156328Y-8234667D01*
X14165314Y-8214314D01*
X14170408Y-8192657D01*
X14171436Y-8170432D01*
X14168362Y-8148397D01*
X14161291Y-8127301D01*
X14150465Y-8107865D01*
X14142599Y-8098391D01*
X14139660Y-8094853D01*
X14137537Y-8091142D01*
X14136800Y-8086931D01*
X14136800Y-7853200D01*
X14135261Y-7836596D01*
X14129173Y-7815197D01*
X14119256Y-7795281D01*
X14105848Y-7777526D01*
X14099786Y-7772000D01*
X14404470Y-7772000D01*
X14406386Y-7795130D01*
X14406386Y-7795130D01*
X14406387Y-7795130D01*
X14411468Y-7815197D01*
X14412084Y-7817630D01*
X14415442Y-7825284D01*
X14421408Y-7838885D01*
X14421408Y-7838885D01*
X14421931Y-7839686D01*
X14423434Y-7842930D01*
X14423950Y-7846468D01*
X14423950Y-8195050D01*
X14425488Y-8211654D01*
X14431577Y-8233053D01*
X14441494Y-8252969D01*
X14454902Y-8270724D01*
X14471344Y-8285712D01*
X14490259Y-8297424D01*
X14490260Y-8297424D01*
X14490260Y-8297425D01*
X14511006Y-8305462D01*
X14532876Y-8309550D01*
X14555124Y-8309550D01*
X14555124Y-8309550D01*
X14568765Y-8307000D01*
X15710503Y-8307000D01*
X15712486Y-8329660D01*
X15718373Y-8351633D01*
X15727987Y-8372248D01*
X15733097Y-8379547D01*
X15733097Y-8379547D01*
X15805645Y-8307000D01*
X15805645Y-8307000D01*
X15876355Y-8307000D01*
X15948902Y-8379547D01*
X15954013Y-8372248D01*
X15963627Y-8351633D01*
X15969514Y-8329660D01*
X15971497Y-8307000D01*
X15969514Y-8284340D01*
X15963627Y-8262367D01*
X15954013Y-8241751D01*
X15948902Y-8234453D01*
X15876355Y-8307000D01*
X15805645Y-8307000D01*
X15805645Y-8307000D01*
X15733097Y-8234453D01*
X15727986Y-8241752D01*
X15718373Y-8262367D01*
X15712486Y-8284340D01*
X15710503Y-8307000D01*
X14568765Y-8307000D01*
X14576994Y-8305462D01*
X14597740Y-8297425D01*
X14616656Y-8285712D01*
X14633098Y-8270724D01*
X14646506Y-8252969D01*
X14656423Y-8233053D01*
X14657551Y-8229089D01*
X14662511Y-8211654D01*
X14663675Y-8199097D01*
X15768453Y-8199097D01*
X15841000Y-8271645D01*
X15841000Y-8271645D01*
X15913547Y-8199097D01*
X15913547Y-8199097D01*
X15906248Y-8193987D01*
X15885633Y-8184373D01*
X15863660Y-8178486D01*
X15841000Y-8176503D01*
X15818340Y-8178486D01*
X15796367Y-8184373D01*
X15775752Y-8193986D01*
X15768453Y-8199097D01*
X15768453Y-8199097D01*
X14663675Y-8199097D01*
X14664050Y-8195050D01*
X14664050Y-7849529D01*
X14664565Y-7845991D01*
X14666069Y-7842747D01*
X14666264Y-7842449D01*
X14668592Y-7838885D01*
X14677916Y-7817630D01*
X14683613Y-7795130D01*
X14685530Y-7772000D01*
X15704470Y-7772000D01*
X15706386Y-7795130D01*
X15706386Y-7795130D01*
X15706387Y-7795130D01*
X15711468Y-7815197D01*
X15712084Y-7817630D01*
X15719663Y-7834908D01*
X15721408Y-7838885D01*
X15734102Y-7858315D01*
X15749822Y-7875391D01*
X15768137Y-7889647D01*
X15788550Y-7900694D01*
X15788550Y-7900694D01*
X15809238Y-7907796D01*
X15813979Y-7910756D01*
X16064318Y-8161094D01*
X16067006Y-8165117D01*
X16067950Y-8169863D01*
X16067950Y-8643941D01*
X16067937Y-8644513D01*
X16067629Y-8651170D01*
X16067564Y-8652568D01*
X16068678Y-8660553D01*
X16068744Y-8661122D01*
X16069488Y-8669154D01*
X16070017Y-8671012D01*
X16070371Y-8672691D01*
X16070638Y-8674603D01*
X16070638Y-8674603D01*
X16071937Y-8678479D01*
X16073200Y-8682248D01*
X16073370Y-8682795D01*
X16075577Y-8690553D01*
X16076437Y-8692281D01*
X16077094Y-8693867D01*
X16077582Y-8695320D01*
X16077708Y-8695699D01*
X16080607Y-8700903D01*
X16081633Y-8702744D01*
X16081900Y-8703251D01*
X16085494Y-8710469D01*
X16086658Y-8712010D01*
X16087595Y-8713448D01*
X16088535Y-8715135D01*
X16088535Y-8715135D01*
X16093687Y-8721339D01*
X16094042Y-8721789D01*
X16098233Y-8727338D01*
X16098902Y-8728224D01*
X16104691Y-8733501D01*
X16105498Y-8734308D01*
X16110776Y-8740098D01*
X16117211Y-8744957D01*
X16117657Y-8745311D01*
X16123865Y-8750465D01*
X16123865Y-8750465D01*
X16125551Y-8751405D01*
X16126990Y-8752342D01*
X16128531Y-8753506D01*
X16135750Y-8757101D01*
X16136256Y-8757367D01*
X16141782Y-8760445D01*
X16143301Y-8761291D01*
X16145132Y-8761905D01*
X16146718Y-8762562D01*
X16148447Y-8763423D01*
X16156206Y-8765630D01*
X16156752Y-8765800D01*
X16164397Y-8768362D01*
X16166309Y-8768628D01*
X16167989Y-8768983D01*
X16169846Y-8769512D01*
X16170665Y-8769587D01*
X16177880Y-8770256D01*
X16178442Y-8770321D01*
X16186432Y-8771436D01*
X16194487Y-8771063D01*
X16195059Y-8771050D01*
X16416133Y-8771050D01*
X16422035Y-8772544D01*
X16431550Y-8777694D01*
X16436577Y-8779419D01*
X16453501Y-8785230D01*
X16453502Y-8785230D01*
X16453502Y-8785230D01*
X16476395Y-8789050D01*
X16499605Y-8789050D01*
X16499605Y-8789050D01*
X16519838Y-8785674D01*
X17686681Y-8785674D01*
X17702762Y-8796637D01*
X17725718Y-8807692D01*
X17750065Y-8815203D01*
X17775260Y-8819000D01*
X17800740Y-8819000D01*
X17825935Y-8815203D01*
X17850282Y-8807692D01*
X17873238Y-8796637D01*
X17889319Y-8785674D01*
X17788000Y-8684355D01*
X17686681Y-8785674D01*
X16519838Y-8785674D01*
X16522498Y-8785230D01*
X16544450Y-8777694D01*
X16564863Y-8766647D01*
X16570876Y-8761967D01*
X16573483Y-8760409D01*
X16573667Y-8760328D01*
X16592022Y-8747754D01*
X16607754Y-8732022D01*
X16620328Y-8713667D01*
X16629314Y-8693314D01*
X16634408Y-8671657D01*
X16635436Y-8649432D01*
X16635375Y-8649000D01*
X17617523Y-8649000D01*
X17619427Y-8674408D01*
X17625097Y-8699249D01*
X17634406Y-8722967D01*
X17647146Y-8745033D01*
X17651345Y-8750299D01*
X17651345Y-8750299D01*
X17752645Y-8649000D01*
X17752645Y-8649000D01*
X17651345Y-8547701D01*
X17647145Y-8552967D01*
X17634406Y-8575033D01*
X17625097Y-8598751D01*
X17619427Y-8623592D01*
X17617523Y-8649000D01*
X16635375Y-8649000D01*
X16632362Y-8627397D01*
X16625291Y-8606302D01*
X16619977Y-8596761D01*
X16614465Y-8586865D01*
X16613906Y-8586192D01*
X16612091Y-8583251D01*
X16611593Y-8582116D01*
X16611592Y-8582115D01*
X16598898Y-8562685D01*
X16583178Y-8545609D01*
X16564863Y-8531353D01*
X16544450Y-8520306D01*
X16544450Y-8520306D01*
X16544450Y-8520306D01*
X16522498Y-8512770D01*
X16519837Y-8512326D01*
X17686681Y-8512326D01*
X17788000Y-8613645D01*
X17788000Y-8613645D01*
X17889319Y-8512326D01*
X17873238Y-8501363D01*
X17850282Y-8490308D01*
X17825935Y-8482797D01*
X17800740Y-8479000D01*
X17775260Y-8479000D01*
X17750065Y-8482797D01*
X17725718Y-8490308D01*
X17702762Y-8501363D01*
X17686681Y-8512326D01*
X16519837Y-8512326D01*
X16505328Y-8509905D01*
X16499605Y-8508950D01*
X16476395Y-8508950D01*
X16471816Y-8509714D01*
X16453501Y-8512770D01*
X16431550Y-8520306D01*
X16414644Y-8529456D01*
X16408742Y-8530950D01*
X16320450Y-8530950D01*
X16314250Y-8529289D01*
X16309711Y-8524750D01*
X16308050Y-8518550D01*
X16308050Y-8250432D01*
X16567564Y-8250432D01*
X16568592Y-8272657D01*
X16573686Y-8294314D01*
X16581540Y-8312103D01*
X16582672Y-8314667D01*
X16595246Y-8333022D01*
X16610978Y-8348754D01*
X16629333Y-8361328D01*
X16635432Y-8364021D01*
X16649685Y-8370314D01*
X16665963Y-8374143D01*
X16671343Y-8375408D01*
X16693568Y-8376436D01*
X16715603Y-8373362D01*
X16736698Y-8366291D01*
X16756135Y-8355465D01*
X16768963Y-8344813D01*
X17113726Y-8000050D01*
X17114138Y-7999656D01*
X17115849Y-7998097D01*
X17120098Y-7994224D01*
X17124957Y-7987789D01*
X17125312Y-7987341D01*
X17126611Y-7985776D01*
X17130465Y-7981135D01*
X17131405Y-7979448D01*
X17132342Y-7978009D01*
X17133506Y-7976469D01*
X17137100Y-7969250D01*
X17137367Y-7968744D01*
X17139734Y-7964494D01*
X17141292Y-7961698D01*
X17141905Y-7959867D01*
X17142562Y-7958281D01*
X17143423Y-7956553D01*
X17145631Y-7948793D01*
X17145798Y-7948252D01*
X17148362Y-7940603D01*
X17148629Y-7938690D01*
X17148983Y-7937011D01*
X17149512Y-7935154D01*
X17150256Y-7927121D01*
X17150321Y-7926561D01*
X17151436Y-7918568D01*
X17151063Y-7910511D01*
X17151050Y-7909938D01*
X17151050Y-7857999D01*
X17151566Y-7854460D01*
X17153069Y-7851217D01*
X17154592Y-7848885D01*
X17158339Y-7840343D01*
X17163916Y-7827630D01*
X17169613Y-7805130D01*
X17171530Y-7782000D01*
X17169613Y-7758869D01*
X17163916Y-7736370D01*
X17154592Y-7715115D01*
X17141898Y-7695685D01*
X17126178Y-7678609D01*
X17107863Y-7664353D01*
X17087450Y-7653306D01*
X17087450Y-7653306D01*
X17087450Y-7653306D01*
X17065498Y-7645770D01*
X17048328Y-7642905D01*
X17042605Y-7641950D01*
X17019395Y-7641950D01*
X17014816Y-7642714D01*
X16996502Y-7645770D01*
X16974550Y-7653306D01*
X16954137Y-7664353D01*
X16935822Y-7678609D01*
X16920102Y-7695685D01*
X16907408Y-7715115D01*
X16898084Y-7736370D01*
X16898084Y-7736370D01*
X16898084Y-7736370D01*
X16892826Y-7757135D01*
X16892387Y-7758870D01*
X16890470Y-7782000D01*
X16892387Y-7805130D01*
X16892387Y-7805130D01*
X16892387Y-7805130D01*
X16898084Y-7827630D01*
X16898084Y-7827630D01*
X16907408Y-7848885D01*
X16908931Y-7851217D01*
X16910435Y-7854460D01*
X16910950Y-7857999D01*
X16910950Y-7858137D01*
X16910006Y-7862883D01*
X16907318Y-7866905D01*
X16599187Y-8175036D01*
X16588535Y-8187865D01*
X16577708Y-8207301D01*
X16570638Y-8228397D01*
X16567564Y-8250432D01*
X16308050Y-8250432D01*
X16308050Y-8118062D01*
X16308063Y-8117489D01*
X16308356Y-8111146D01*
X16308436Y-8109432D01*
X16307321Y-8101440D01*
X16307256Y-8100878D01*
X16306511Y-8092846D01*
X16306511Y-8092846D01*
X16305983Y-8090989D01*
X16305629Y-8089309D01*
X16305362Y-8087397D01*
X16305362Y-8087397D01*
X16302798Y-8079747D01*
X16302631Y-8079207D01*
X16300423Y-8071447D01*
X16299562Y-8069719D01*
X16298905Y-8068132D01*
X16298526Y-8067000D01*
X16298291Y-8066301D01*
X16294365Y-8059252D01*
X16294101Y-8058752D01*
X16290506Y-8051531D01*
X16289578Y-8050302D01*
X16289343Y-8049991D01*
X16288405Y-8048551D01*
X16287465Y-8046865D01*
X16285789Y-8044846D01*
X16282311Y-8040657D01*
X16281958Y-8040212D01*
X16278494Y-8035625D01*
X16277098Y-8033776D01*
X16271139Y-8028344D01*
X16270725Y-8027949D01*
X15983304Y-7740527D01*
X15980051Y-7734803D01*
X15979083Y-7730978D01*
X15977916Y-7726370D01*
X15968592Y-7705115D01*
X15955898Y-7685685D01*
X15940178Y-7668609D01*
X15921863Y-7654353D01*
X15901450Y-7643306D01*
X15901450Y-7643306D01*
X15901450Y-7643306D01*
X15879498Y-7635770D01*
X15862328Y-7632905D01*
X15856605Y-7631950D01*
X15833395Y-7631950D01*
X15828816Y-7632714D01*
X15810501Y-7635770D01*
X15788550Y-7643306D01*
X15788550Y-7643306D01*
X15788550Y-7643306D01*
X15784594Y-7645447D01*
X15768137Y-7654353D01*
X15749821Y-7668609D01*
X15734102Y-7685685D01*
X15721408Y-7705115D01*
X15712084Y-7726370D01*
X15712084Y-7726370D01*
X15712084Y-7726370D01*
X15707303Y-7745251D01*
X15706386Y-7748870D01*
X15704470Y-7772000D01*
X14685530Y-7772000D01*
X14683613Y-7748869D01*
X14677916Y-7726370D01*
X14668592Y-7705115D01*
X14655898Y-7685685D01*
X14640178Y-7668609D01*
X14621863Y-7654353D01*
X14601450Y-7643306D01*
X14601450Y-7643306D01*
X14601450Y-7643306D01*
X14579498Y-7635770D01*
X14562328Y-7632905D01*
X14556605Y-7631950D01*
X14533395Y-7631950D01*
X14528816Y-7632714D01*
X14510501Y-7635770D01*
X14488550Y-7643306D01*
X14488550Y-7643306D01*
X14488550Y-7643306D01*
X14484594Y-7645447D01*
X14468137Y-7654353D01*
X14449821Y-7668609D01*
X14434102Y-7685685D01*
X14421408Y-7705115D01*
X14412084Y-7726370D01*
X14412084Y-7726370D01*
X14412084Y-7726370D01*
X14407303Y-7745251D01*
X14406386Y-7748870D01*
X14404470Y-7772000D01*
X14099786Y-7772000D01*
X14089406Y-7762537D01*
X14070490Y-7750825D01*
X14064367Y-7748453D01*
X14049744Y-7742788D01*
X14027874Y-7738700D01*
X14005626Y-7738700D01*
X13983756Y-7742788D01*
X13983756Y-7742788D01*
X13963009Y-7750825D01*
X13944094Y-7762537D01*
X13927652Y-7777526D01*
X13914244Y-7795281D01*
X13904327Y-7815197D01*
X13898238Y-7836596D01*
X13896700Y-7853200D01*
X13896700Y-8036300D01*
X13895039Y-8042500D01*
X13890500Y-8047039D01*
X13884300Y-8048700D01*
X13839312Y-8048700D01*
X13838739Y-8048687D01*
X13838324Y-8048667D01*
X13830682Y-8048314D01*
X13830682Y-8048314D01*
X13822694Y-8049428D01*
X13822126Y-8049494D01*
X13814096Y-8050238D01*
X13812239Y-8050767D01*
X13810560Y-8051121D01*
X13808647Y-8051388D01*
X13808647Y-8051388D01*
X13808646Y-8051388D01*
X13801001Y-8053950D01*
X13800455Y-8054120D01*
X13792697Y-8056327D01*
X13790968Y-8057188D01*
X13789382Y-8057845D01*
X13787551Y-8058458D01*
X13780505Y-8062383D01*
X13779999Y-8062650D01*
X13772781Y-8066244D01*
X13771240Y-8067408D01*
X13769802Y-8068344D01*
X13768115Y-8069284D01*
X13768115Y-8069285D01*
X13768115Y-8069285D01*
X13766920Y-8070276D01*
X13761910Y-8074437D01*
X13761461Y-8074792D01*
X13755026Y-8079652D01*
X13749594Y-8085610D01*
X13749199Y-8086024D01*
X13746187Y-8089036D01*
X13743467Y-8092312D01*
X13743091Y-8092744D01*
X13740037Y-8096094D01*
X13739642Y-8096732D01*
X13738640Y-8098125D01*
X13735535Y-8101865D01*
X13724708Y-8121301D01*
X13717638Y-8142397D01*
X13715030Y-8161094D01*
X13714564Y-8164432D01*
X13642085Y-8164432D01*
X13642112Y-8164353D01*
X13642378Y-8162441D01*
X13642733Y-8160762D01*
X13643261Y-8158904D01*
X13644006Y-8150869D01*
X13644071Y-8150309D01*
X13645186Y-8142318D01*
X13644813Y-8134263D01*
X13644800Y-8133690D01*
X13644800Y-7854200D01*
X13643261Y-7837596D01*
X13637173Y-7816197D01*
X13627256Y-7796281D01*
X13613848Y-7778526D01*
X13597406Y-7763537D01*
X13578490Y-7751825D01*
X13570860Y-7748869D01*
X13557744Y-7743788D01*
X13535874Y-7739700D01*
X13513626Y-7739700D01*
X13497105Y-7742788D01*
X13491756Y-7743788D01*
X13471009Y-7751825D01*
X13452094Y-7763537D01*
X13435652Y-7778526D01*
X13422244Y-7796281D01*
X13412327Y-7816197D01*
X13406238Y-7837596D01*
X13404700Y-7854200D01*
X13404700Y-8034300D01*
X13403039Y-8040500D01*
X13398500Y-8045039D01*
X13392300Y-8046700D01*
X13347200Y-8046700D01*
X13330596Y-8048238D01*
X13309197Y-8054327D01*
X13289281Y-8064244D01*
X13271526Y-8077652D01*
X13256538Y-8094093D01*
X13254311Y-8097690D01*
X13253354Y-8099028D01*
X13243409Y-8111146D01*
X13234118Y-8128527D01*
X13228398Y-8147387D01*
X13226466Y-8167000D01*
X12927534Y-8167000D01*
X12925602Y-8147387D01*
X12919881Y-8128527D01*
X12910591Y-8111146D01*
X12898088Y-8095912D01*
X12882854Y-8083409D01*
X12872967Y-8078124D01*
X12865473Y-8074118D01*
X12846613Y-8068398D01*
X12827000Y-8066466D01*
X12807387Y-8068398D01*
X12788527Y-8074118D01*
X12771146Y-8083409D01*
X12755912Y-8095912D01*
X12743409Y-8111146D01*
X12734118Y-8128527D01*
X12728398Y-8147387D01*
X12726466Y-8167000D01*
X12728398Y-8186613D01*
X12734118Y-8205473D01*
X12738844Y-8214314D01*
X12743409Y-8222854D01*
X12755912Y-8238088D01*
X12771146Y-8250591D01*
X12775595Y-8252969D01*
X12780395Y-8255535D01*
X12785186Y-8260096D01*
X12786950Y-8266471D01*
X12786950Y-8370374D01*
X12785598Y-8376004D01*
X12781838Y-8380406D01*
X12776490Y-8382622D01*
X12770718Y-8382168D01*
X12765782Y-8379143D01*
X12704432Y-8317793D01*
X12701744Y-8313770D01*
X12700800Y-8309024D01*
X12700800Y-8016975D01*
X12701744Y-8012230D01*
X12704432Y-8008207D01*
X12732207Y-7980432D01*
X12736230Y-7977744D01*
X12740975Y-7976800D01*
X13139593Y-7976800D01*
X13141700Y-7976115D01*
X13143591Y-7975661D01*
X13145780Y-7975315D01*
X13147754Y-7974309D01*
X13149552Y-7973564D01*
X13151659Y-7972880D01*
X13153452Y-7971577D01*
X13155110Y-7970561D01*
X13157084Y-7969555D01*
X13157917Y-7968722D01*
X13157918Y-7968721D01*
X13184015Y-7942624D01*
X13266548Y-7860091D01*
X13266548Y-7860091D01*
X13268805Y-7857834D01*
X13268805Y-7857834D01*
X13269355Y-7857284D01*
X13269639Y-7856198D01*
X13269809Y-7855863D01*
X13270827Y-7854201D01*
X13272130Y-7852409D01*
X13272814Y-7850302D01*
X13273558Y-7848505D01*
X13274565Y-7846530D01*
X13274911Y-7844341D01*
X13275365Y-7842450D01*
X13276050Y-7840343D01*
X13276050Y-7838179D01*
X13276050Y-7838178D01*
X13276050Y-7592250D01*
X13387250Y-7592250D01*
X13387250Y-7603498D01*
X13388299Y-7613769D01*
X13393814Y-7630412D01*
X13403018Y-7645334D01*
X13415415Y-7657732D01*
X13430338Y-7666936D01*
X13446980Y-7672451D01*
X13457252Y-7673500D01*
X13499750Y-7673500D01*
X13499750Y-7592250D01*
X13549750Y-7592250D01*
X13549750Y-7673500D01*
X13592248Y-7673500D01*
X13602519Y-7672451D01*
X13619162Y-7666936D01*
X13634084Y-7657732D01*
X13646482Y-7645334D01*
X13655686Y-7630412D01*
X13661201Y-7613770D01*
X13662250Y-7603498D01*
X13662250Y-7592250D01*
X13549750Y-7592250D01*
X13499750Y-7592250D01*
X13387250Y-7592250D01*
X13276050Y-7592250D01*
X13276050Y-7591250D01*
X13879250Y-7591250D01*
X13879250Y-7602498D01*
X13880299Y-7612769D01*
X13885814Y-7629412D01*
X13895018Y-7644334D01*
X13907415Y-7656732D01*
X13922338Y-7665936D01*
X13938980Y-7671451D01*
X13949252Y-7672500D01*
X13991750Y-7672500D01*
X13991750Y-7591250D01*
X14041750Y-7591250D01*
X14041750Y-7672500D01*
X14084248Y-7672500D01*
X14094519Y-7671451D01*
X14111162Y-7665936D01*
X14126084Y-7656732D01*
X14138482Y-7644334D01*
X14147686Y-7629412D01*
X14153201Y-7612770D01*
X14154250Y-7602498D01*
X14154250Y-7591250D01*
X14041750Y-7591250D01*
X13991750Y-7591250D01*
X13879250Y-7591250D01*
X13276050Y-7591250D01*
X13276050Y-7542250D01*
X13387250Y-7542250D01*
X13499750Y-7542250D01*
X13499750Y-7461000D01*
X13457252Y-7461000D01*
X13446980Y-7462049D01*
X13430338Y-7467564D01*
X13415415Y-7476768D01*
X13403018Y-7489165D01*
X13393814Y-7504088D01*
X13388299Y-7520730D01*
X13387250Y-7531002D01*
X13387250Y-7542250D01*
X13276050Y-7542250D01*
X13276050Y-7461000D01*
X13549750Y-7461000D01*
X13549750Y-7542250D01*
X13662250Y-7542250D01*
X13662250Y-7541250D01*
X13879250Y-7541250D01*
X13991750Y-7541250D01*
X13991750Y-7460000D01*
X13949252Y-7460000D01*
X13938980Y-7461049D01*
X13922338Y-7466564D01*
X13907415Y-7475768D01*
X13895018Y-7488165D01*
X13885814Y-7503088D01*
X13880299Y-7519730D01*
X13879250Y-7530002D01*
X13879250Y-7541250D01*
X13662250Y-7541250D01*
X13662250Y-7531002D01*
X13661201Y-7520730D01*
X13655686Y-7504088D01*
X13646482Y-7489165D01*
X13634084Y-7476768D01*
X13619162Y-7467564D01*
X13602520Y-7462049D01*
X13592248Y-7461000D01*
X13549750Y-7461000D01*
X13276050Y-7461000D01*
X13276050Y-7460000D01*
X14041750Y-7460000D01*
X14041750Y-7541250D01*
X14154250Y-7541250D01*
X14154250Y-7530002D01*
X14153201Y-7519730D01*
X14147686Y-7503088D01*
X14138482Y-7488165D01*
X14126084Y-7475768D01*
X14111162Y-7466564D01*
X14094520Y-7461049D01*
X14084248Y-7460000D01*
X14041750Y-7460000D01*
X13276050Y-7460000D01*
X13276050Y-7454471D01*
X13277814Y-7448096D01*
X13282605Y-7443535D01*
X13286214Y-7441606D01*
X13291854Y-7438591D01*
X13307088Y-7426088D01*
X13319591Y-7410854D01*
X13328881Y-7393473D01*
X13334602Y-7374613D01*
X13335451Y-7366000D01*
X15682970Y-7366000D01*
X15684886Y-7389130D01*
X15684886Y-7389130D01*
X15684887Y-7389130D01*
X15690584Y-7411630D01*
X15699908Y-7432885D01*
X15712602Y-7452315D01*
X15728322Y-7469391D01*
X15746637Y-7483647D01*
X15767050Y-7494694D01*
X15778026Y-7498462D01*
X15789001Y-7502230D01*
X15789002Y-7502230D01*
X15789002Y-7502230D01*
X15811895Y-7506050D01*
X15835105Y-7506050D01*
X15835105Y-7506050D01*
X15855338Y-7502674D01*
X17022181Y-7502674D01*
X17038262Y-7513637D01*
X17061218Y-7524692D01*
X17085565Y-7532202D01*
X17110760Y-7536000D01*
X17136240Y-7536000D01*
X17161435Y-7532202D01*
X17185782Y-7524692D01*
X17208738Y-7513637D01*
X17224819Y-7502674D01*
X17123500Y-7401355D01*
X17022181Y-7502674D01*
X15855338Y-7502674D01*
X15857998Y-7502230D01*
X15879950Y-7494694D01*
X15900363Y-7483647D01*
X15918678Y-7469391D01*
X15934398Y-7452315D01*
X15947092Y-7432885D01*
X15956416Y-7411630D01*
X15962113Y-7389130D01*
X15964030Y-7366000D01*
X16953023Y-7366000D01*
X16954927Y-7391408D01*
X16960597Y-7416249D01*
X16969906Y-7439967D01*
X16982646Y-7462033D01*
X16986845Y-7467299D01*
X16986845Y-7467299D01*
X17088145Y-7366000D01*
X17088145Y-7366000D01*
X17158855Y-7366000D01*
X17260155Y-7467299D01*
X17260155Y-7467299D01*
X17264355Y-7462033D01*
X17277094Y-7439967D01*
X17286403Y-7416249D01*
X17292073Y-7391408D01*
X17293977Y-7366000D01*
X17292073Y-7340592D01*
X17286403Y-7315751D01*
X17277094Y-7292033D01*
X17264355Y-7269967D01*
X17260155Y-7264700D01*
X17158855Y-7366000D01*
X17088145Y-7366000D01*
X17088145Y-7366000D01*
X16986845Y-7264701D01*
X16982645Y-7269967D01*
X16969906Y-7292033D01*
X16960597Y-7315751D01*
X16954927Y-7340592D01*
X16953023Y-7366000D01*
X15964030Y-7366000D01*
X15962113Y-7342869D01*
X15956416Y-7320370D01*
X15947092Y-7299115D01*
X15946069Y-7297549D01*
X15944565Y-7294305D01*
X15944050Y-7290767D01*
X15944050Y-7229326D01*
X17022181Y-7229326D01*
X17123500Y-7330645D01*
X17123500Y-7330645D01*
X17224819Y-7229326D01*
X17208738Y-7218362D01*
X17185782Y-7207308D01*
X17161435Y-7199797D01*
X17136240Y-7196000D01*
X17110760Y-7196000D01*
X17085565Y-7199797D01*
X17061218Y-7207308D01*
X17038262Y-7218363D01*
X17022181Y-7229326D01*
X15944050Y-7229326D01*
X15944050Y-7075450D01*
X15945711Y-7069250D01*
X15950250Y-7064711D01*
X15956450Y-7063050D01*
X16090940Y-7063050D01*
X16091513Y-7063063D01*
X16099568Y-7063436D01*
X16107559Y-7062321D01*
X16108119Y-7062256D01*
X16116154Y-7061511D01*
X16118012Y-7060983D01*
X16119691Y-7060628D01*
X16121603Y-7060362D01*
X16129250Y-7057799D01*
X16129794Y-7057630D01*
X16137553Y-7055423D01*
X16139281Y-7054562D01*
X16140868Y-7053905D01*
X16140972Y-7053870D01*
X16142698Y-7053291D01*
X16149745Y-7049367D01*
X16150249Y-7049101D01*
X16157468Y-7045506D01*
X16157468Y-7045506D01*
X16157469Y-7045506D01*
X16159010Y-7044341D01*
X16160447Y-7043405D01*
X16162135Y-7042465D01*
X16168342Y-7037311D01*
X16168786Y-7036959D01*
X16175224Y-7032098D01*
X16180658Y-7026137D01*
X16181051Y-7025725D01*
X16273725Y-6933051D01*
X16274137Y-6932657D01*
X16277909Y-6929219D01*
X16280098Y-6927224D01*
X16284959Y-6920786D01*
X16285311Y-6920342D01*
X16290465Y-6914135D01*
X16291405Y-6912447D01*
X16292341Y-6911010D01*
X16293506Y-6909469D01*
X16296286Y-6903885D01*
X16297101Y-6902249D01*
X16297367Y-6901745D01*
X16301291Y-6894698D01*
X16301905Y-6892868D01*
X16302562Y-6891281D01*
X16302623Y-6891158D01*
X16303423Y-6889553D01*
X16305630Y-6881794D01*
X16305799Y-6881250D01*
X16308362Y-6873603D01*
X16308628Y-6871691D01*
X16308983Y-6870012D01*
X16309511Y-6868154D01*
X16310256Y-6860119D01*
X16310321Y-6859559D01*
X16311436Y-6851568D01*
X16311063Y-6843513D01*
X16311050Y-6842940D01*
X16311050Y-6792505D01*
X16311499Y-6789283D01*
X16311987Y-6784022D01*
X16312256Y-6781119D01*
X16312321Y-6780559D01*
X16313157Y-6774568D01*
X16570564Y-6774568D01*
X16573638Y-6796603D01*
X16580708Y-6817699D01*
X16591535Y-6837135D01*
X16602187Y-6849963D01*
X16782948Y-7030724D01*
X16783343Y-7031138D01*
X16788776Y-7037098D01*
X16795211Y-7041957D01*
X16795660Y-7042313D01*
X16800540Y-7046365D01*
X16801865Y-7047465D01*
X16803101Y-7048154D01*
X16803551Y-7048405D01*
X16804990Y-7049342D01*
X16806531Y-7050506D01*
X16813750Y-7054100D01*
X16814254Y-7054366D01*
X16821301Y-7058291D01*
X16821302Y-7058291D01*
X16823133Y-7058905D01*
X16824719Y-7059562D01*
X16826447Y-7060423D01*
X16834206Y-7062630D01*
X16834750Y-7062799D01*
X16842397Y-7065362D01*
X16844309Y-7065628D01*
X16845989Y-7065983D01*
X16847846Y-7066511D01*
X16848665Y-7066587D01*
X16855880Y-7067256D01*
X16856442Y-7067321D01*
X16864432Y-7068436D01*
X16872487Y-7068063D01*
X16873060Y-7068050D01*
X16948894Y-7068050D01*
X16954796Y-7069544D01*
X16973550Y-7079694D01*
X16984068Y-7083304D01*
X16995502Y-7087230D01*
X16995502Y-7087230D01*
X16995502Y-7087230D01*
X17018395Y-7091050D01*
X17041605Y-7091050D01*
X17041605Y-7091050D01*
X17064498Y-7087230D01*
X17086450Y-7079694D01*
X17106863Y-7068647D01*
X17125178Y-7054391D01*
X17140898Y-7037315D01*
X17153592Y-7017885D01*
X17162916Y-6996630D01*
X17168613Y-6974130D01*
X17170530Y-6951000D01*
X17168613Y-6927869D01*
X17162916Y-6905370D01*
X17153592Y-6884115D01*
X17140898Y-6864685D01*
X17125178Y-6847609D01*
X17106863Y-6833353D01*
X17086450Y-6822306D01*
X17086450Y-6822306D01*
X17086450Y-6822306D01*
X17064498Y-6814770D01*
X17047328Y-6811905D01*
X17041605Y-6810950D01*
X17018395Y-6810950D01*
X17013816Y-6811714D01*
X16995502Y-6814770D01*
X16973550Y-6822306D01*
X16965883Y-6826455D01*
X16959981Y-6827950D01*
X16924863Y-6827950D01*
X16920117Y-6827006D01*
X16916094Y-6824318D01*
X16771963Y-6680187D01*
X16759135Y-6669535D01*
X16739699Y-6658708D01*
X16718603Y-6651638D01*
X16696568Y-6648564D01*
X16674343Y-6649592D01*
X16652685Y-6654686D01*
X16632333Y-6663672D01*
X16632333Y-6663672D01*
X16632333Y-6663672D01*
X16620033Y-6672098D01*
X16613978Y-6676246D01*
X16598246Y-6691978D01*
X16598246Y-6691978D01*
X16598246Y-6691978D01*
X16585672Y-6710333D01*
X16585672Y-6710333D01*
X16585672Y-6710333D01*
X16576686Y-6730685D01*
X16571592Y-6752343D01*
X16570564Y-6774568D01*
X16313157Y-6774568D01*
X16313436Y-6772568D01*
X16313063Y-6764513D01*
X16313050Y-6763940D01*
X16313050Y-6631000D01*
X19713103Y-6631000D01*
X19715084Y-6656170D01*
X19720978Y-6680720D01*
X19730639Y-6704046D01*
X19740408Y-6719987D01*
X19743831Y-6725573D01*
X19760229Y-6744771D01*
X19779427Y-6761169D01*
X19787607Y-6766181D01*
X19800954Y-6774361D01*
X19824280Y-6784022D01*
X19824280Y-6784022D01*
X19824280Y-6784022D01*
X19848830Y-6789916D01*
X19874000Y-6791897D01*
X19899170Y-6789916D01*
X19923720Y-6784022D01*
X19923720Y-6784022D01*
X19923720Y-6784022D01*
X19947046Y-6774361D01*
X19952214Y-6771193D01*
X19968573Y-6761169D01*
X19987772Y-6744771D01*
X20004169Y-6725573D01*
X20014199Y-6709205D01*
X20017361Y-6704046D01*
X20027022Y-6680720D01*
X20027262Y-6679720D01*
X20032916Y-6656170D01*
X20034897Y-6631000D01*
X20032916Y-6605830D01*
X20027022Y-6581280D01*
X20027022Y-6581280D01*
X20027022Y-6581280D01*
X20017361Y-6557954D01*
X20005618Y-6538793D01*
X20004169Y-6536427D01*
X19987772Y-6517228D01*
X19968573Y-6500831D01*
X19965562Y-6498986D01*
X19947046Y-6487639D01*
X19923720Y-6477978D01*
X19899170Y-6472084D01*
X19874000Y-6470103D01*
X19848830Y-6472084D01*
X19824280Y-6477978D01*
X19800954Y-6487639D01*
X19779427Y-6500831D01*
X19760229Y-6517228D01*
X19743831Y-6536427D01*
X19730639Y-6557954D01*
X19720978Y-6581280D01*
X19715084Y-6605830D01*
X19713103Y-6631000D01*
X16313050Y-6631000D01*
X16313050Y-6505903D01*
X16620453Y-6505903D01*
X16627751Y-6511013D01*
X16648367Y-6520627D01*
X16670340Y-6526514D01*
X16693000Y-6528497D01*
X16715660Y-6526514D01*
X16737633Y-6520627D01*
X16758248Y-6511013D01*
X16765547Y-6505902D01*
X16693000Y-6433355D01*
X16693000Y-6433355D01*
X16620453Y-6505902D01*
X16620453Y-6505903D01*
X16313050Y-6505903D01*
X16313050Y-6401060D01*
X16313063Y-6400487D01*
X16313066Y-6400419D01*
X16313178Y-6398000D01*
X16562503Y-6398000D01*
X16564486Y-6420660D01*
X16570373Y-6442633D01*
X16579987Y-6463248D01*
X16585097Y-6470547D01*
X16585097Y-6470547D01*
X16657645Y-6398000D01*
X16728355Y-6398000D01*
X16800903Y-6470547D01*
X16806013Y-6463248D01*
X16815627Y-6442633D01*
X16821514Y-6420660D01*
X16823497Y-6398000D01*
X16821514Y-6375340D01*
X16815627Y-6353367D01*
X16806013Y-6332751D01*
X16800903Y-6325453D01*
X16728355Y-6398000D01*
X16728355Y-6398000D01*
X16657645Y-6398000D01*
X16657645Y-6398000D01*
X16585097Y-6325453D01*
X16585097Y-6325453D01*
X16579986Y-6332752D01*
X16570373Y-6353367D01*
X16564486Y-6375340D01*
X16562503Y-6398000D01*
X16313178Y-6398000D01*
X16313436Y-6392432D01*
X16312321Y-6384442D01*
X16312256Y-6383880D01*
X16311511Y-6375846D01*
X16310983Y-6373989D01*
X16310628Y-6372309D01*
X16310362Y-6370397D01*
X16307799Y-6362749D01*
X16307630Y-6362206D01*
X16305423Y-6354447D01*
X16304562Y-6352719D01*
X16303905Y-6351132D01*
X16303291Y-6349301D01*
X16299366Y-6342254D01*
X16299100Y-6341750D01*
X16295506Y-6334531D01*
X16294342Y-6332990D01*
X16293405Y-6331551D01*
X16292465Y-6329865D01*
X16287313Y-6323660D01*
X16286957Y-6323211D01*
X16282098Y-6316776D01*
X16276138Y-6311343D01*
X16275724Y-6310948D01*
X16266963Y-6302187D01*
X16254135Y-6291535D01*
X16251554Y-6290097D01*
X16620453Y-6290097D01*
X16693000Y-6362645D01*
X16693000Y-6362645D01*
X16765547Y-6290097D01*
X16765547Y-6290097D01*
X16758248Y-6284987D01*
X16737633Y-6275373D01*
X16715660Y-6269486D01*
X16693000Y-6267503D01*
X16670340Y-6269486D01*
X16648367Y-6275373D01*
X16627752Y-6284986D01*
X16620453Y-6290097D01*
X16620453Y-6290097D01*
X16251554Y-6290097D01*
X16234699Y-6280708D01*
X16213603Y-6273638D01*
X16191568Y-6270564D01*
X16169343Y-6271592D01*
X16147685Y-6276686D01*
X16127333Y-6285672D01*
X16127333Y-6285672D01*
X16127333Y-6285672D01*
X16110248Y-6297375D01*
X16108978Y-6298246D01*
X16093246Y-6313978D01*
X16093246Y-6313978D01*
X16093246Y-6313978D01*
X16080672Y-6332333D01*
X16080672Y-6332333D01*
X16080672Y-6332333D01*
X16071686Y-6352685D01*
X16066592Y-6374343D01*
X16066592Y-6374343D01*
X16066592Y-6374343D01*
X16065564Y-6396568D01*
X16068638Y-6418603D01*
X16068638Y-6418603D01*
X16072307Y-6429550D01*
X16072950Y-6433491D01*
X16072950Y-6743495D01*
X16072500Y-6746716D01*
X16071744Y-6754878D01*
X16071678Y-6755447D01*
X16070564Y-6763432D01*
X16070564Y-6763432D01*
X16070740Y-6767226D01*
X16070937Y-6771487D01*
X16070950Y-6772059D01*
X16070950Y-6791137D01*
X16070006Y-6795883D01*
X16067318Y-6799906D01*
X16047906Y-6819318D01*
X16043883Y-6822006D01*
X16039137Y-6822950D01*
X15869830Y-6822950D01*
X15865803Y-6822278D01*
X15858498Y-6819770D01*
X15838879Y-6816496D01*
X15835605Y-6815950D01*
X15812395Y-6815950D01*
X15807816Y-6816714D01*
X15789501Y-6819770D01*
X15767550Y-6827306D01*
X15767550Y-6827306D01*
X15767550Y-6827306D01*
X15764119Y-6829163D01*
X15747137Y-6838353D01*
X15728821Y-6852609D01*
X15713102Y-6869685D01*
X15700408Y-6889115D01*
X15691084Y-6910370D01*
X15691084Y-6910370D01*
X15691084Y-6910370D01*
X15686816Y-6927224D01*
X15685386Y-6932870D01*
X15683470Y-6956000D01*
X15685386Y-6979130D01*
X15685386Y-6979130D01*
X15685387Y-6979130D01*
X15688588Y-6991773D01*
X15691084Y-7001630D01*
X15700407Y-7022885D01*
X15701931Y-7025217D01*
X15703434Y-7028460D01*
X15703950Y-7031999D01*
X15703950Y-7289236D01*
X15703434Y-7292774D01*
X15701931Y-7296018D01*
X15699907Y-7299115D01*
X15690584Y-7320370D01*
X15690584Y-7320370D01*
X15690584Y-7320370D01*
X15686782Y-7335387D01*
X15684886Y-7342870D01*
X15682970Y-7366000D01*
X13335451Y-7366000D01*
X13336534Y-7355000D01*
X13334602Y-7335387D01*
X13328881Y-7316527D01*
X13319591Y-7299146D01*
X13307088Y-7283912D01*
X13291854Y-7271409D01*
X13279303Y-7264701D01*
X13274473Y-7262118D01*
X13255613Y-7256398D01*
X13236000Y-7254466D01*
X13216387Y-7256398D01*
X13197527Y-7262118D01*
X13180146Y-7271409D01*
X13164912Y-7283912D01*
X13152409Y-7299146D01*
X13143118Y-7316527D01*
X13137398Y-7335387D01*
X13135466Y-7355000D01*
X13137398Y-7374613D01*
X13143118Y-7393473D01*
X13149461Y-7405339D01*
X13152409Y-7410854D01*
X13164912Y-7426088D01*
X13180146Y-7438591D01*
X13184614Y-7440979D01*
X13189395Y-7443535D01*
X13194186Y-7448096D01*
X13195950Y-7454471D01*
X13195950Y-7812275D01*
X13195006Y-7817020D01*
X13192318Y-7821043D01*
X13120293Y-7893068D01*
X13116270Y-7895756D01*
X13111524Y-7896700D01*
X12712907Y-7896700D01*
X12710799Y-7897385D01*
X12708908Y-7897839D01*
X12706720Y-7898185D01*
X12704745Y-7899191D01*
X12702949Y-7899935D01*
X12700841Y-7900620D01*
X12700841Y-7900620D01*
X12700841Y-7900620D01*
X12700740Y-7900694D01*
X12699048Y-7901923D01*
X12697390Y-7902939D01*
X12695416Y-7903945D01*
X12693159Y-7906201D01*
X12647968Y-7951393D01*
X12643032Y-7954418D01*
X12637260Y-7954872D01*
X12631911Y-7952656D01*
X12628151Y-7948254D01*
X12626800Y-7942624D01*
X12626800Y-7811361D01*
X12857994Y-7811361D01*
X12862677Y-7815005D01*
X12884539Y-7826837D01*
X12908051Y-7834908D01*
X12932571Y-7839000D01*
X12957429Y-7839000D01*
X12981949Y-7834908D01*
X13005461Y-7826837D01*
X13027323Y-7815005D01*
X13032006Y-7811361D01*
X12945000Y-7724355D01*
X12857994Y-7811361D01*
X12857994Y-7811361D01*
X12626800Y-7811361D01*
X12626800Y-7689000D01*
X12794486Y-7689000D01*
X12796539Y-7713773D01*
X12802641Y-7737872D01*
X12812627Y-7760637D01*
X12822656Y-7775988D01*
X12822656Y-7775988D01*
X12909645Y-7689000D01*
X12980355Y-7689000D01*
X13067343Y-7775988D01*
X13077373Y-7760637D01*
X13087359Y-7737872D01*
X13093461Y-7713773D01*
X13095514Y-7689000D01*
X13093461Y-7664227D01*
X13087359Y-7640128D01*
X13077373Y-7617363D01*
X13067343Y-7602012D01*
X12980355Y-7689000D01*
X12980355Y-7689000D01*
X12909645Y-7689000D01*
X12909645Y-7689000D01*
X12822656Y-7602012D01*
X12812627Y-7617363D01*
X12802641Y-7640128D01*
X12796539Y-7664227D01*
X12794486Y-7689000D01*
X12626800Y-7689000D01*
X12626800Y-7566639D01*
X12857994Y-7566639D01*
X12945000Y-7653645D01*
X12945000Y-7653645D01*
X13032006Y-7566639D01*
X13032006Y-7566639D01*
X13027323Y-7562995D01*
X13005461Y-7551163D01*
X12981949Y-7543092D01*
X12957429Y-7539000D01*
X12932571Y-7539000D01*
X12908051Y-7543092D01*
X12884539Y-7551163D01*
X12862676Y-7562995D01*
X12857994Y-7566639D01*
X12857994Y-7566639D01*
X12626800Y-7566639D01*
X12626800Y-7499047D01*
X12627744Y-7494301D01*
X12630432Y-7490279D01*
X12648140Y-7472570D01*
X12649506Y-7471601D01*
X12649971Y-7471169D01*
X12651502Y-7470083D01*
X12651928Y-7469657D01*
X12651929Y-7469657D01*
X12655975Y-7465610D01*
X12656301Y-7465296D01*
X12660494Y-7461405D01*
X12660494Y-7461405D01*
X12660936Y-7460995D01*
X12662078Y-7459507D01*
X12911274Y-7210311D01*
X12916374Y-7207234D01*
X12922321Y-7206890D01*
X12933876Y-7209050D01*
X12956124Y-7209050D01*
X12956124Y-7209050D01*
X12977994Y-7204962D01*
X12998740Y-7196925D01*
X13017656Y-7185212D01*
X13019809Y-7183250D01*
X13393500Y-7183250D01*
X13393500Y-7194498D01*
X13394549Y-7204769D01*
X13400064Y-7221412D01*
X13409268Y-7236334D01*
X13421665Y-7248732D01*
X13436588Y-7257936D01*
X13453230Y-7263451D01*
X13463502Y-7264500D01*
X13506000Y-7264500D01*
X13506000Y-7183250D01*
X13556000Y-7183250D01*
X13556000Y-7264500D01*
X13598498Y-7264500D01*
X13608769Y-7263451D01*
X13625412Y-7257936D01*
X13640334Y-7248732D01*
X13652732Y-7236334D01*
X13661936Y-7221412D01*
X13667451Y-7204770D01*
X13668500Y-7194498D01*
X13668500Y-7183250D01*
X13556000Y-7183250D01*
X13506000Y-7183250D01*
X13393500Y-7183250D01*
X13019809Y-7183250D01*
X13034098Y-7170224D01*
X13036344Y-7167250D01*
X13887500Y-7167250D01*
X13887500Y-7178498D01*
X13888549Y-7188769D01*
X13894064Y-7205412D01*
X13903268Y-7220334D01*
X13915665Y-7232732D01*
X13930588Y-7241936D01*
X13947230Y-7247451D01*
X13957502Y-7248500D01*
X14000000Y-7248500D01*
X14000000Y-7167250D01*
X14050000Y-7167250D01*
X14050000Y-7248500D01*
X14092498Y-7248500D01*
X14102769Y-7247451D01*
X14119412Y-7241936D01*
X14134334Y-7232732D01*
X14146732Y-7220334D01*
X14155936Y-7205412D01*
X14161451Y-7188770D01*
X14162500Y-7178498D01*
X14162500Y-7167250D01*
X14050000Y-7167250D01*
X14000000Y-7167250D01*
X13887500Y-7167250D01*
X13036344Y-7167250D01*
X13047506Y-7152469D01*
X13057076Y-7133250D01*
X13393500Y-7133250D01*
X13506000Y-7133250D01*
X13506000Y-7052000D01*
X13463502Y-7052000D01*
X13453230Y-7053049D01*
X13436588Y-7058564D01*
X13421665Y-7067768D01*
X13409268Y-7080165D01*
X13400064Y-7095088D01*
X13394549Y-7111730D01*
X13393500Y-7122002D01*
X13393500Y-7133250D01*
X13057076Y-7133250D01*
X13057423Y-7132553D01*
X13063511Y-7111154D01*
X13065564Y-7089000D01*
X13063511Y-7066846D01*
X13060612Y-7056657D01*
X13059287Y-7052000D01*
X13556000Y-7052000D01*
X13556000Y-7133250D01*
X13668500Y-7133250D01*
X13668500Y-7122002D01*
X13668014Y-7117250D01*
X13887500Y-7117250D01*
X14000000Y-7117250D01*
X14000000Y-7036000D01*
X13957502Y-7036000D01*
X13947230Y-7037049D01*
X13930588Y-7042564D01*
X13915665Y-7051768D01*
X13903268Y-7064165D01*
X13894064Y-7079088D01*
X13888549Y-7095730D01*
X13887500Y-7106002D01*
X13887500Y-7117250D01*
X13668014Y-7117250D01*
X13667451Y-7111730D01*
X13661936Y-7095088D01*
X13652732Y-7080165D01*
X13640334Y-7067768D01*
X13625412Y-7058564D01*
X13608770Y-7053049D01*
X13598498Y-7052000D01*
X13556000Y-7052000D01*
X13059287Y-7052000D01*
X13057423Y-7045447D01*
X13052719Y-7036000D01*
X14050000Y-7036000D01*
X14050000Y-7117250D01*
X14162500Y-7117250D01*
X14162500Y-7106002D01*
X14161451Y-7095730D01*
X14155936Y-7079088D01*
X14146732Y-7064165D01*
X14134334Y-7051768D01*
X14119412Y-7042564D01*
X14102770Y-7037049D01*
X14092498Y-7036000D01*
X14050000Y-7036000D01*
X13052719Y-7036000D01*
X13047506Y-7025531D01*
X13034098Y-7007776D01*
X13017656Y-6992787D01*
X12998740Y-6981075D01*
X12980813Y-6974130D01*
X12977994Y-6973038D01*
X12956124Y-6968950D01*
X12933876Y-6968950D01*
X12912006Y-6973038D01*
X12912006Y-6973038D01*
X12891259Y-6981075D01*
X12872344Y-6992787D01*
X12855902Y-7007776D01*
X12842494Y-7025531D01*
X12832577Y-7045447D01*
X12826488Y-7066846D01*
X12825298Y-7079694D01*
X12824436Y-7089000D01*
X12824469Y-7089361D01*
X12826488Y-7111154D01*
X12832577Y-7132553D01*
X12838252Y-7143949D01*
X12839539Y-7148904D01*
X12838714Y-7153956D01*
X12835920Y-7158245D01*
X12600735Y-7393430D01*
X12599368Y-7394399D01*
X12598902Y-7394832D01*
X12597371Y-7395918D01*
X12592906Y-7400384D01*
X12592572Y-7400705D01*
X12587939Y-7405004D01*
X12586797Y-7406493D01*
X12552176Y-7441113D01*
X12551140Y-7442039D01*
X12548353Y-7444262D01*
X12545132Y-7448986D01*
X12544864Y-7449363D01*
X12541113Y-7454446D01*
X12540880Y-7454908D01*
X12539017Y-7460947D01*
X12538872Y-7461387D01*
X12536787Y-7467347D01*
X12536700Y-7467859D01*
X12536700Y-7474176D01*
X12536691Y-7474640D01*
X12536455Y-7480953D01*
X12536700Y-7482813D01*
X12536700Y-8358936D01*
X12534921Y-8365336D01*
X12530094Y-8369899D01*
X12523605Y-8371316D01*
X12517315Y-8369181D01*
X12509745Y-8364020D01*
X12486114Y-8352640D01*
X12461050Y-8344909D01*
X12435114Y-8341000D01*
X12408886Y-8341000D01*
X12382950Y-8344909D01*
X12357886Y-8352640D01*
X12334254Y-8364021D01*
X12317083Y-8375728D01*
X12276800Y-8375728D01*
X12276800Y-8003810D01*
X12276813Y-8003237D01*
X12276960Y-8000052D01*
X12277186Y-7995182D01*
X12276071Y-7987191D01*
X12276006Y-7986630D01*
X12275261Y-7978596D01*
X12274733Y-7976739D01*
X12274379Y-7975059D01*
X12274112Y-7973147D01*
X12274112Y-7973147D01*
X12271548Y-7965497D01*
X12271381Y-7964957D01*
X12269173Y-7957197D01*
X12268929Y-7956708D01*
X12268606Y-7956059D01*
X12268312Y-7955469D01*
X12267655Y-7953882D01*
X12267041Y-7952052D01*
X12267041Y-7952051D01*
X12263115Y-7945002D01*
X12262851Y-7944502D01*
X12259256Y-7937281D01*
X12258093Y-7935741D01*
X12257155Y-7934301D01*
X12256215Y-7932615D01*
X12251063Y-7926410D01*
X12250707Y-7925961D01*
X12245848Y-7919526D01*
X12239888Y-7914093D01*
X12239474Y-7913698D01*
X11936389Y-7610613D01*
X11935262Y-7609317D01*
X11934098Y-7607776D01*
X11928138Y-7602343D01*
X11927724Y-7601948D01*
X11925964Y-7600188D01*
X11925963Y-7600187D01*
X11924045Y-7598594D01*
X11923617Y-7598222D01*
X11917656Y-7592788D01*
X11916014Y-7591771D01*
X11914621Y-7590768D01*
X11913135Y-7589534D01*
X11906090Y-7585611D01*
X11905597Y-7585321D01*
X11898740Y-7581075D01*
X11898740Y-7581075D01*
X11898740Y-7581075D01*
X11896939Y-7580377D01*
X11895386Y-7579648D01*
X11893698Y-7578708D01*
X11886052Y-7576146D01*
X11885514Y-7575951D01*
X11877994Y-7573038D01*
X11876095Y-7572683D01*
X11874434Y-7572252D01*
X11872603Y-7571638D01*
X11872603Y-7571638D01*
X11864617Y-7570524D01*
X11864052Y-7570432D01*
X11856124Y-7568950D01*
X11856124Y-7568950D01*
X11854193Y-7568950D01*
X11852480Y-7568831D01*
X11850568Y-7568564D01*
X11850568Y-7568564D01*
X11844799Y-7568831D01*
X11842513Y-7568937D01*
X11841940Y-7568950D01*
X11833876Y-7568950D01*
X11831977Y-7569305D01*
X11830272Y-7569503D01*
X11829041Y-7569559D01*
X11828343Y-7569592D01*
X11820491Y-7571438D01*
X11819931Y-7571556D01*
X11812006Y-7573038D01*
X11810205Y-7573736D01*
X11808566Y-7574243D01*
X11806686Y-7574686D01*
X11806685Y-7574686D01*
X11799308Y-7577943D01*
X11798779Y-7578162D01*
X11791260Y-7581075D01*
X11789618Y-7582092D01*
X11788100Y-7582892D01*
X11786333Y-7583672D01*
X11779679Y-7588230D01*
X11779199Y-7588543D01*
X11772344Y-7592788D01*
X11770916Y-7594089D01*
X11769571Y-7595154D01*
X11767978Y-7596246D01*
X11767978Y-7596246D01*
X11762276Y-7601948D01*
X11761861Y-7602343D01*
X11755902Y-7607776D01*
X11754738Y-7609317D01*
X11753611Y-7610612D01*
X11752246Y-7611978D01*
X11747688Y-7618631D01*
X11747354Y-7619095D01*
X11742494Y-7625531D01*
X11741633Y-7627260D01*
X11740764Y-7628739D01*
X11739672Y-7630333D01*
X11736415Y-7637709D01*
X11736172Y-7638227D01*
X11732577Y-7645447D01*
X11732049Y-7647304D01*
X11731466Y-7648919D01*
X11730686Y-7650686D01*
X11728840Y-7658535D01*
X11728696Y-7659086D01*
X11726488Y-7666846D01*
X11726488Y-7666847D01*
X11726488Y-7666847D01*
X11726310Y-7668771D01*
X11726034Y-7670464D01*
X11725592Y-7672343D01*
X11725219Y-7680398D01*
X11725180Y-7680969D01*
X11724436Y-7689000D01*
X11652000Y-7689000D01*
X11652000Y-7089000D01*
X11724436Y-7089000D01*
X11724469Y-7089361D01*
X11726488Y-7111154D01*
X11732577Y-7132553D01*
X11742494Y-7152469D01*
X11755902Y-7170224D01*
X11772344Y-7185212D01*
X11791259Y-7196924D01*
X11791260Y-7196924D01*
X11791260Y-7196925D01*
X11812006Y-7204962D01*
X11833876Y-7209050D01*
X11856124Y-7209050D01*
X11856124Y-7209050D01*
X11877994Y-7204962D01*
X11898740Y-7196925D01*
X11917656Y-7185212D01*
X11934098Y-7170224D01*
X11947506Y-7152469D01*
X11957423Y-7132553D01*
X11963511Y-7111154D01*
X11965564Y-7089000D01*
X11963511Y-7066846D01*
X11960612Y-7056657D01*
X11957423Y-7045447D01*
X11947506Y-7025531D01*
X11934098Y-7007776D01*
X11917656Y-6992787D01*
X11898740Y-6981075D01*
X11880813Y-6974130D01*
X11877994Y-6973038D01*
X11856124Y-6968950D01*
X11833876Y-6968950D01*
X11812006Y-6973038D01*
X11812006Y-6973038D01*
X11791259Y-6981075D01*
X11772344Y-6992787D01*
X11755902Y-7007776D01*
X11742494Y-7025531D01*
X11732577Y-7045447D01*
X11726488Y-7066846D01*
X11725298Y-7079694D01*
X11724436Y-7089000D01*
X11652000Y-7089000D01*
X11652000Y-6630000D01*
X11814103Y-6630000D01*
X11816084Y-6655170D01*
X11821978Y-6679720D01*
X11831639Y-6703046D01*
X11841606Y-6719309D01*
X11844831Y-6724573D01*
X11861228Y-6743771D01*
X11880427Y-6760169D01*
X11886017Y-6763594D01*
X11901954Y-6773361D01*
X11925280Y-6783022D01*
X11925280Y-6783022D01*
X11925280Y-6783022D01*
X11949830Y-6788916D01*
X11975000Y-6790897D01*
X12000170Y-6788916D01*
X12024720Y-6783022D01*
X12024720Y-6783022D01*
X12024720Y-6783022D01*
X12048046Y-6773361D01*
X12057418Y-6767617D01*
X12069573Y-6760169D01*
X12088771Y-6743771D01*
X12105169Y-6724573D01*
X12112915Y-6711932D01*
X13115564Y-6711932D01*
X13115817Y-6717397D01*
X13115937Y-6719987D01*
X13115950Y-6720559D01*
X13115950Y-6860550D01*
X13117488Y-6877154D01*
X13123577Y-6898553D01*
X13133494Y-6918469D01*
X13146902Y-6936224D01*
X13163344Y-6951212D01*
X13182259Y-6962924D01*
X13182260Y-6962924D01*
X13182260Y-6962925D01*
X13203006Y-6970962D01*
X13224876Y-6975050D01*
X13247124Y-6975050D01*
X13247124Y-6975050D01*
X13268994Y-6970962D01*
X13289740Y-6962925D01*
X13308656Y-6951212D01*
X13325098Y-6936224D01*
X13338506Y-6918469D01*
X13348423Y-6898553D01*
X13349520Y-6894698D01*
X13354511Y-6877154D01*
X13356050Y-6860550D01*
X13356050Y-6772362D01*
X13356994Y-6767617D01*
X13359682Y-6763594D01*
X13366844Y-6756432D01*
X13370867Y-6753744D01*
X13375612Y-6752800D01*
X13398550Y-6752800D01*
X13404750Y-6754461D01*
X13409289Y-6759000D01*
X13410950Y-6765200D01*
X13410950Y-6871300D01*
X13412488Y-6887904D01*
X13418577Y-6909303D01*
X13428494Y-6929219D01*
X13441902Y-6946974D01*
X13458344Y-6961962D01*
X13477259Y-6973674D01*
X13477260Y-6973674D01*
X13477260Y-6973675D01*
X13498006Y-6981712D01*
X13519876Y-6985800D01*
X13542124Y-6985800D01*
X13542124Y-6985800D01*
X13563994Y-6981712D01*
X13584740Y-6973675D01*
X13603656Y-6961962D01*
X13620098Y-6946974D01*
X13633506Y-6929219D01*
X13643423Y-6909303D01*
X13643675Y-6908417D01*
X13649511Y-6887904D01*
X13651050Y-6871300D01*
X13651050Y-6763965D01*
X13652525Y-6758099D01*
X13656601Y-6753628D01*
X13662306Y-6751618D01*
X13666154Y-6751261D01*
X13681671Y-6746846D01*
X13687553Y-6745173D01*
X13690695Y-6743608D01*
X13707469Y-6735256D01*
X13725224Y-6721848D01*
X13726660Y-6720272D01*
X13740212Y-6705406D01*
X13741674Y-6703046D01*
X13743141Y-6700677D01*
X13860200Y-6700677D01*
X13860485Y-6703720D01*
X13864971Y-6716538D01*
X13873035Y-6727465D01*
X13883961Y-6735529D01*
X13883962Y-6735529D01*
X13896780Y-6740015D01*
X13897997Y-6740129D01*
X13899823Y-6740300D01*
X13899823Y-6740300D01*
X13906550Y-6740300D01*
X13912750Y-6741961D01*
X13917289Y-6746500D01*
X13918950Y-6752700D01*
X13918950Y-6790216D01*
X13917383Y-6796250D01*
X13916980Y-6796973D01*
X13914708Y-6801051D01*
X13907638Y-6822147D01*
X13904564Y-6844182D01*
X13905592Y-6866407D01*
X13910686Y-6888064D01*
X13916836Y-6901994D01*
X13919672Y-6908417D01*
X13932246Y-6926772D01*
X13947978Y-6942504D01*
X13966333Y-6955078D01*
X13975788Y-6959252D01*
X13986685Y-6964064D01*
X13999643Y-6967112D01*
X14008343Y-6969158D01*
X14030568Y-6970186D01*
X14052603Y-6967112D01*
X14073698Y-6960041D01*
X14080954Y-6956000D01*
X14383470Y-6956000D01*
X14385386Y-6979130D01*
X14385386Y-6979130D01*
X14385387Y-6979130D01*
X14388588Y-6991773D01*
X14391084Y-7001630D01*
X14397250Y-7015686D01*
X14400408Y-7022885D01*
X14413102Y-7042315D01*
X14428822Y-7059391D01*
X14447137Y-7073647D01*
X14467550Y-7084694D01*
X14474414Y-7087050D01*
X14489501Y-7092230D01*
X14489502Y-7092230D01*
X14489502Y-7092230D01*
X14512395Y-7096050D01*
X14535605Y-7096050D01*
X14535605Y-7096050D01*
X14558498Y-7092230D01*
X14580450Y-7084694D01*
X14600863Y-7073647D01*
X14619178Y-7059391D01*
X14634898Y-7042315D01*
X14647592Y-7022885D01*
X14656916Y-7001630D01*
X14662613Y-6979130D01*
X14664530Y-6956000D01*
X14662613Y-6932869D01*
X14656916Y-6910370D01*
X14653001Y-6901446D01*
X14647592Y-6889115D01*
X14646069Y-6886783D01*
X14644565Y-6883539D01*
X14644050Y-6880001D01*
X14644050Y-6799862D01*
X14644994Y-6795117D01*
X14647682Y-6791094D01*
X14708091Y-6730685D01*
X14774813Y-6663963D01*
X14785465Y-6651135D01*
X14796291Y-6631698D01*
X14803362Y-6610603D01*
X14806436Y-6588568D01*
X14805408Y-6566343D01*
X14803435Y-6557954D01*
X14800314Y-6544685D01*
X14793817Y-6529971D01*
X14791328Y-6524333D01*
X14778754Y-6505978D01*
X14763022Y-6490246D01*
X14744667Y-6477672D01*
X14742103Y-6476540D01*
X14724314Y-6468686D01*
X14702657Y-6463592D01*
X14680432Y-6462564D01*
X14658397Y-6465638D01*
X14637301Y-6472708D01*
X14617865Y-6483535D01*
X14605036Y-6494187D01*
X14441276Y-6657948D01*
X14440861Y-6658343D01*
X14434902Y-6663776D01*
X14430043Y-6670211D01*
X14429687Y-6670660D01*
X14424535Y-6676865D01*
X14423595Y-6678552D01*
X14422658Y-6679990D01*
X14421494Y-6681531D01*
X14417899Y-6688751D01*
X14417632Y-6689258D01*
X14413708Y-6696302D01*
X14413095Y-6698132D01*
X14412438Y-6699718D01*
X14411577Y-6701447D01*
X14409370Y-6709205D01*
X14409200Y-6709752D01*
X14406638Y-6717397D01*
X14406371Y-6719309D01*
X14406017Y-6720988D01*
X14405488Y-6722846D01*
X14404744Y-6730878D01*
X14404678Y-6731447D01*
X14403564Y-6739432D01*
X14403564Y-6739432D01*
X14403752Y-6743495D01*
X14403937Y-6747487D01*
X14403950Y-6748059D01*
X14403950Y-6880001D01*
X14403434Y-6883539D01*
X14401931Y-6886783D01*
X14400407Y-6889115D01*
X14391084Y-6910370D01*
X14391084Y-6910370D01*
X14391084Y-6910370D01*
X14386816Y-6927224D01*
X14385386Y-6932870D01*
X14383470Y-6956000D01*
X14080954Y-6956000D01*
X14093135Y-6949215D01*
X14105963Y-6938563D01*
X14121726Y-6922800D01*
X14122138Y-6922406D01*
X14123913Y-6920788D01*
X14128098Y-6916974D01*
X14132959Y-6910536D01*
X14133309Y-6910094D01*
X14138465Y-6903885D01*
X14139405Y-6902198D01*
X14140342Y-6900759D01*
X14141506Y-6899219D01*
X14145100Y-6892000D01*
X14145367Y-6891494D01*
X14147991Y-6886783D01*
X14149291Y-6884448D01*
X14149905Y-6882617D01*
X14150562Y-6881031D01*
X14151423Y-6879303D01*
X14153630Y-6871543D01*
X14153800Y-6870997D01*
X14153870Y-6870788D01*
X14156362Y-6863353D01*
X14156628Y-6861441D01*
X14156983Y-6859762D01*
X14157511Y-6857904D01*
X14158256Y-6849870D01*
X14158321Y-6849307D01*
X14159436Y-6841318D01*
X14159063Y-6833263D01*
X14159050Y-6832690D01*
X14159050Y-6715450D01*
X14160711Y-6709250D01*
X14165250Y-6704711D01*
X14171450Y-6703050D01*
X14191550Y-6703050D01*
X14208154Y-6701511D01*
X14229553Y-6695423D01*
X14235100Y-6692661D01*
X14249469Y-6685506D01*
X14267224Y-6672098D01*
X14274810Y-6663776D01*
X14282212Y-6655656D01*
X14290086Y-6642940D01*
X14293925Y-6636740D01*
X14301962Y-6615994D01*
X14306050Y-6594124D01*
X14306050Y-6571876D01*
X14301962Y-6550006D01*
X14293925Y-6529260D01*
X14292225Y-6526514D01*
X14282212Y-6510344D01*
X14267224Y-6493902D01*
X14249469Y-6480494D01*
X14229553Y-6470577D01*
X14208154Y-6464488D01*
X14191550Y-6462950D01*
X14191550Y-6462950D01*
X14058059Y-6462950D01*
X14057487Y-6462937D01*
X14057102Y-6462919D01*
X14049432Y-6462564D01*
X14049432Y-6462564D01*
X14041447Y-6463678D01*
X14040878Y-6463744D01*
X14032846Y-6464488D01*
X14030988Y-6465017D01*
X14029309Y-6465371D01*
X14027397Y-6465638D01*
X14019752Y-6468200D01*
X14019205Y-6468370D01*
X14011447Y-6470577D01*
X14009718Y-6471438D01*
X14008132Y-6472095D01*
X14006302Y-6472708D01*
X13999258Y-6476632D01*
X13998751Y-6476899D01*
X13991531Y-6480494D01*
X13989990Y-6481658D01*
X13988552Y-6482595D01*
X13986865Y-6483535D01*
X13980660Y-6488687D01*
X13980211Y-6489043D01*
X13973776Y-6493902D01*
X13968343Y-6499861D01*
X13967948Y-6500276D01*
X13956276Y-6511948D01*
X13955861Y-6512343D01*
X13949902Y-6517776D01*
X13948017Y-6520273D01*
X13943649Y-6523900D01*
X13938121Y-6525200D01*
X13899823Y-6525200D01*
X13896780Y-6525485D01*
X13883961Y-6529971D01*
X13873035Y-6538035D01*
X13864971Y-6548961D01*
X13860485Y-6561780D01*
X13860200Y-6564823D01*
X13860200Y-6700677D01*
X13743141Y-6700677D01*
X13751925Y-6686490D01*
X13759962Y-6665744D01*
X13764050Y-6643874D01*
X13764050Y-6621626D01*
X13759962Y-6599756D01*
X13751925Y-6579010D01*
X13751924Y-6579009D01*
X13740212Y-6560094D01*
X13725224Y-6543652D01*
X13707469Y-6530244D01*
X13687553Y-6520327D01*
X13666154Y-6514238D01*
X13649550Y-6512700D01*
X13649550Y-6512700D01*
X13534943Y-6512700D01*
X13533230Y-6512581D01*
X13531318Y-6512314D01*
X13531318Y-6512314D01*
X13525549Y-6512581D01*
X13523263Y-6512687D01*
X13522690Y-6512700D01*
X13323809Y-6512700D01*
X13323237Y-6512687D01*
X13322852Y-6512669D01*
X13315182Y-6512314D01*
X13315182Y-6512314D01*
X13307197Y-6513428D01*
X13306628Y-6513494D01*
X13298596Y-6514238D01*
X13296738Y-6514767D01*
X13295059Y-6515121D01*
X13293147Y-6515388D01*
X13285502Y-6517950D01*
X13284955Y-6518120D01*
X13277197Y-6520327D01*
X13275468Y-6521188D01*
X13273882Y-6521845D01*
X13272052Y-6522458D01*
X13265008Y-6526382D01*
X13264501Y-6526649D01*
X13257281Y-6530244D01*
X13255740Y-6531408D01*
X13254302Y-6532345D01*
X13252615Y-6533285D01*
X13246410Y-6538437D01*
X13245961Y-6538793D01*
X13239526Y-6543652D01*
X13234093Y-6549611D01*
X13233698Y-6550026D01*
X13153276Y-6630448D01*
X13152861Y-6630843D01*
X13146902Y-6636276D01*
X13142043Y-6642711D01*
X13141687Y-6643160D01*
X13136535Y-6649365D01*
X13135595Y-6651052D01*
X13134658Y-6652490D01*
X13133494Y-6654031D01*
X13129899Y-6661251D01*
X13129632Y-6661758D01*
X13125708Y-6668802D01*
X13125095Y-6670632D01*
X13124438Y-6672218D01*
X13123577Y-6673947D01*
X13121370Y-6681705D01*
X13121200Y-6682252D01*
X13118638Y-6689897D01*
X13118371Y-6691809D01*
X13118017Y-6693488D01*
X13117488Y-6695346D01*
X13116744Y-6703378D01*
X13116678Y-6703947D01*
X13115564Y-6711932D01*
X13115564Y-6711932D01*
X12112915Y-6711932D01*
X12115193Y-6708214D01*
X12118361Y-6703046D01*
X12128022Y-6679720D01*
X12128122Y-6679303D01*
X12133916Y-6655170D01*
X12135897Y-6630000D01*
X12133916Y-6604830D01*
X12128022Y-6580280D01*
X12128022Y-6580280D01*
X12128022Y-6580280D01*
X12118361Y-6556954D01*
X12107125Y-6538620D01*
X12105169Y-6535427D01*
X12088771Y-6516228D01*
X12069573Y-6499831D01*
X12066561Y-6497986D01*
X12048046Y-6486639D01*
X12024720Y-6476978D01*
X12000170Y-6471084D01*
X11975000Y-6469103D01*
X11949830Y-6471084D01*
X11925280Y-6476978D01*
X11901954Y-6486639D01*
X11880427Y-6499831D01*
X11861228Y-6516228D01*
X11844831Y-6535427D01*
X11831639Y-6556954D01*
X11821978Y-6580280D01*
X11816084Y-6604830D01*
X11814103Y-6630000D01*
X11652000Y-6630000D01*
X11652000Y-6204388D01*
X11653659Y-6198192D01*
X11658193Y-6193654D01*
X11664388Y-6191988D01*
X20160538Y-6184013D01*
X20166743Y-6185670D01*
G37*
%TD.AperFunction*%
%TD*%
M02*
