%TF.GenerationSoftware,KiCad,Pcbnew,7.0.1*%
%TF.CreationDate,2023-11-04T13:43:07+00:00*%
%TF.ProjectId,Filter,46696c74-6572-42e6-9b69-6361645f7063,rev?*%
%TF.SameCoordinates,Original*%
%TF.FileFunction,Legend,Top*%
%TF.FilePolarity,Positive*%
%FSLAX45Y45*%
G04 Gerber Fmt 4.5, Leading zero omitted, Abs format (unit mm)*
G04 Created by KiCad (PCBNEW 7.0.1) date 2023-11-04 13:43:07*
%MOMM*%
%LPD*%
G01*
G04 APERTURE LIST*
%ADD10C,0.150000*%
%ADD11C,0.442696*%
%ADD12C,0.300000*%
%ADD13C,0.200000*%
%ADD14C,0.120000*%
G04 APERTURE END LIST*
D10*
X18863000Y-8888500D02*
X18963000Y-8888500D01*
X18963000Y-8995500D01*
X18863000Y-8995500D01*
X18863000Y-8888500D01*
X13311000Y-8701000D02*
X13411000Y-8701000D01*
X13411000Y-8808000D01*
X13311000Y-8808000D01*
X13311000Y-8701000D01*
X12940460Y-9967500D02*
X12943000Y-9967500D01*
X12943000Y-10224500D01*
X12940460Y-10224500D01*
X12940460Y-9967500D01*
X13244000Y-9967000D02*
X13543000Y-9967000D01*
X13543000Y-10224000D01*
X13244000Y-10224000D01*
X13244000Y-9967000D01*
D11*
X18935135Y-8940500D02*
G75*
G03*
X18935135Y-8940500I-22135J0D01*
G01*
D10*
X12651000Y-9968000D02*
X13877000Y-9968000D01*
X13877000Y-10224000D01*
X12651000Y-10224000D01*
X12651000Y-9968000D01*
D11*
X13383135Y-8753000D02*
G75*
G03*
X13383135Y-8753000I-22135J0D01*
G01*
D10*
X12939000Y-9967000D02*
X13241000Y-9967000D01*
X13241000Y-10224000D01*
X12939000Y-10224000D01*
X12939000Y-9967000D01*
D12*
X12684714Y-10166643D02*
X12684714Y-10016643D01*
X12770428Y-10166643D02*
X12706143Y-10080929D01*
X12770428Y-10016643D02*
X12684714Y-10102357D01*
X12827571Y-10030929D02*
X12834714Y-10023786D01*
X12834714Y-10023786D02*
X12849000Y-10016643D01*
X12849000Y-10016643D02*
X12884714Y-10016643D01*
X12884714Y-10016643D02*
X12899000Y-10023786D01*
X12899000Y-10023786D02*
X12906143Y-10030929D01*
X12906143Y-10030929D02*
X12913286Y-10045214D01*
X12913286Y-10045214D02*
X12913286Y-10059500D01*
X12913286Y-10059500D02*
X12906143Y-10080929D01*
X12906143Y-10080929D02*
X12820428Y-10166643D01*
X12820428Y-10166643D02*
X12913286Y-10166643D01*
D10*
X12520809Y-10641381D02*
X12554143Y-10641381D01*
X12568428Y-10693762D02*
X12520809Y-10693762D01*
X12520809Y-10693762D02*
X12520809Y-10593762D01*
X12520809Y-10593762D02*
X12568428Y-10593762D01*
X12625571Y-10693762D02*
X12616048Y-10689000D01*
X12616048Y-10689000D02*
X12611286Y-10679476D01*
X12611286Y-10679476D02*
X12611286Y-10593762D01*
X12701762Y-10689000D02*
X12692238Y-10693762D01*
X12692238Y-10693762D02*
X12673190Y-10693762D01*
X12673190Y-10693762D02*
X12663667Y-10689000D01*
X12663667Y-10689000D02*
X12658905Y-10679476D01*
X12658905Y-10679476D02*
X12658905Y-10641381D01*
X12658905Y-10641381D02*
X12663667Y-10631857D01*
X12663667Y-10631857D02*
X12673190Y-10627095D01*
X12673190Y-10627095D02*
X12692238Y-10627095D01*
X12692238Y-10627095D02*
X12701762Y-10631857D01*
X12701762Y-10631857D02*
X12706524Y-10641381D01*
X12706524Y-10641381D02*
X12706524Y-10650905D01*
X12706524Y-10650905D02*
X12658905Y-10660429D01*
X12792238Y-10689000D02*
X12782714Y-10693762D01*
X12782714Y-10693762D02*
X12763667Y-10693762D01*
X12763667Y-10693762D02*
X12754143Y-10689000D01*
X12754143Y-10689000D02*
X12749381Y-10684238D01*
X12749381Y-10684238D02*
X12744619Y-10674714D01*
X12744619Y-10674714D02*
X12744619Y-10646143D01*
X12744619Y-10646143D02*
X12749381Y-10636619D01*
X12749381Y-10636619D02*
X12754143Y-10631857D01*
X12754143Y-10631857D02*
X12763667Y-10627095D01*
X12763667Y-10627095D02*
X12782714Y-10627095D01*
X12782714Y-10627095D02*
X12792238Y-10631857D01*
X12820810Y-10627095D02*
X12858905Y-10627095D01*
X12835095Y-10593762D02*
X12835095Y-10679476D01*
X12835095Y-10679476D02*
X12839857Y-10689000D01*
X12839857Y-10689000D02*
X12849381Y-10693762D01*
X12849381Y-10693762D02*
X12858905Y-10693762D01*
X12892238Y-10693762D02*
X12892238Y-10627095D01*
X12892238Y-10646143D02*
X12897000Y-10636619D01*
X12897000Y-10636619D02*
X12901762Y-10631857D01*
X12901762Y-10631857D02*
X12911286Y-10627095D01*
X12911286Y-10627095D02*
X12920810Y-10627095D01*
X12968429Y-10693762D02*
X12958905Y-10689000D01*
X12958905Y-10689000D02*
X12954143Y-10684238D01*
X12954143Y-10684238D02*
X12949381Y-10674714D01*
X12949381Y-10674714D02*
X12949381Y-10646143D01*
X12949381Y-10646143D02*
X12954143Y-10636619D01*
X12954143Y-10636619D02*
X12958905Y-10631857D01*
X12958905Y-10631857D02*
X12968429Y-10627095D01*
X12968429Y-10627095D02*
X12982714Y-10627095D01*
X12982714Y-10627095D02*
X12992238Y-10631857D01*
X12992238Y-10631857D02*
X12997000Y-10636619D01*
X12997000Y-10636619D02*
X13001762Y-10646143D01*
X13001762Y-10646143D02*
X13001762Y-10674714D01*
X13001762Y-10674714D02*
X12997000Y-10684238D01*
X12997000Y-10684238D02*
X12992238Y-10689000D01*
X12992238Y-10689000D02*
X12982714Y-10693762D01*
X12982714Y-10693762D02*
X12968429Y-10693762D01*
X13044619Y-10627095D02*
X13044619Y-10693762D01*
X13044619Y-10636619D02*
X13049381Y-10631857D01*
X13049381Y-10631857D02*
X13058905Y-10627095D01*
X13058905Y-10627095D02*
X13073191Y-10627095D01*
X13073191Y-10627095D02*
X13082714Y-10631857D01*
X13082714Y-10631857D02*
X13087476Y-10641381D01*
X13087476Y-10641381D02*
X13087476Y-10693762D01*
X13135095Y-10693762D02*
X13135095Y-10627095D01*
X13135095Y-10593762D02*
X13130333Y-10598524D01*
X13130333Y-10598524D02*
X13135095Y-10603286D01*
X13135095Y-10603286D02*
X13139857Y-10598524D01*
X13139857Y-10598524D02*
X13135095Y-10593762D01*
X13135095Y-10593762D02*
X13135095Y-10603286D01*
X13225571Y-10689000D02*
X13216048Y-10693762D01*
X13216048Y-10693762D02*
X13197000Y-10693762D01*
X13197000Y-10693762D02*
X13187476Y-10689000D01*
X13187476Y-10689000D02*
X13182714Y-10684238D01*
X13182714Y-10684238D02*
X13177952Y-10674714D01*
X13177952Y-10674714D02*
X13177952Y-10646143D01*
X13177952Y-10646143D02*
X13182714Y-10636619D01*
X13182714Y-10636619D02*
X13187476Y-10631857D01*
X13187476Y-10631857D02*
X13197000Y-10627095D01*
X13197000Y-10627095D02*
X13216048Y-10627095D01*
X13216048Y-10627095D02*
X13225571Y-10631857D01*
X13311286Y-10693762D02*
X13311286Y-10641381D01*
X13311286Y-10641381D02*
X13306524Y-10631857D01*
X13306524Y-10631857D02*
X13297000Y-10627095D01*
X13297000Y-10627095D02*
X13277952Y-10627095D01*
X13277952Y-10627095D02*
X13268429Y-10631857D01*
X13311286Y-10689000D02*
X13301762Y-10693762D01*
X13301762Y-10693762D02*
X13277952Y-10693762D01*
X13277952Y-10693762D02*
X13268429Y-10689000D01*
X13268429Y-10689000D02*
X13263667Y-10679476D01*
X13263667Y-10679476D02*
X13263667Y-10669952D01*
X13263667Y-10669952D02*
X13268429Y-10660429D01*
X13268429Y-10660429D02*
X13277952Y-10655667D01*
X13277952Y-10655667D02*
X13301762Y-10655667D01*
X13301762Y-10655667D02*
X13311286Y-10650905D01*
X13373191Y-10693762D02*
X13363667Y-10689000D01*
X13363667Y-10689000D02*
X13358905Y-10679476D01*
X13358905Y-10679476D02*
X13358905Y-10593762D01*
X13425572Y-10693762D02*
X13416048Y-10689000D01*
X13416048Y-10689000D02*
X13411286Y-10679476D01*
X13411286Y-10679476D02*
X13411286Y-10593762D01*
X13454143Y-10627095D02*
X13477953Y-10693762D01*
X13501762Y-10627095D02*
X13477953Y-10693762D01*
X13477953Y-10693762D02*
X13468429Y-10717571D01*
X13468429Y-10717571D02*
X13463667Y-10722333D01*
X13463667Y-10722333D02*
X13454143Y-10727095D01*
X13611286Y-10689000D02*
X13620810Y-10693762D01*
X13620810Y-10693762D02*
X13639857Y-10693762D01*
X13639857Y-10693762D02*
X13649381Y-10689000D01*
X13649381Y-10689000D02*
X13654143Y-10679476D01*
X13654143Y-10679476D02*
X13654143Y-10674714D01*
X13654143Y-10674714D02*
X13649381Y-10665190D01*
X13649381Y-10665190D02*
X13639857Y-10660429D01*
X13639857Y-10660429D02*
X13625572Y-10660429D01*
X13625572Y-10660429D02*
X13616048Y-10655667D01*
X13616048Y-10655667D02*
X13611286Y-10646143D01*
X13611286Y-10646143D02*
X13611286Y-10641381D01*
X13611286Y-10641381D02*
X13616048Y-10631857D01*
X13616048Y-10631857D02*
X13625572Y-10627095D01*
X13625572Y-10627095D02*
X13639857Y-10627095D01*
X13639857Y-10627095D02*
X13649381Y-10631857D01*
X13687476Y-10627095D02*
X13706524Y-10693762D01*
X13706524Y-10693762D02*
X13725572Y-10646143D01*
X13725572Y-10646143D02*
X13744619Y-10693762D01*
X13744619Y-10693762D02*
X13763667Y-10627095D01*
X13801762Y-10693762D02*
X13801762Y-10627095D01*
X13801762Y-10593762D02*
X13797000Y-10598524D01*
X13797000Y-10598524D02*
X13801762Y-10603286D01*
X13801762Y-10603286D02*
X13806524Y-10598524D01*
X13806524Y-10598524D02*
X13801762Y-10593762D01*
X13801762Y-10593762D02*
X13801762Y-10603286D01*
X13835095Y-10627095D02*
X13873191Y-10627095D01*
X13849381Y-10593762D02*
X13849381Y-10679476D01*
X13849381Y-10679476D02*
X13854143Y-10689000D01*
X13854143Y-10689000D02*
X13863667Y-10693762D01*
X13863667Y-10693762D02*
X13873191Y-10693762D01*
X13949381Y-10689000D02*
X13939857Y-10693762D01*
X13939857Y-10693762D02*
X13920810Y-10693762D01*
X13920810Y-10693762D02*
X13911286Y-10689000D01*
X13911286Y-10689000D02*
X13906524Y-10684238D01*
X13906524Y-10684238D02*
X13901762Y-10674714D01*
X13901762Y-10674714D02*
X13901762Y-10646143D01*
X13901762Y-10646143D02*
X13906524Y-10636619D01*
X13906524Y-10636619D02*
X13911286Y-10631857D01*
X13911286Y-10631857D02*
X13920810Y-10627095D01*
X13920810Y-10627095D02*
X13939857Y-10627095D01*
X13939857Y-10627095D02*
X13949381Y-10631857D01*
X13992238Y-10693762D02*
X13992238Y-10593762D01*
X14035095Y-10693762D02*
X14035095Y-10641381D01*
X14035095Y-10641381D02*
X14030334Y-10631857D01*
X14030334Y-10631857D02*
X14020810Y-10627095D01*
X14020810Y-10627095D02*
X14006524Y-10627095D01*
X14006524Y-10627095D02*
X13997000Y-10631857D01*
X13997000Y-10631857D02*
X13992238Y-10636619D01*
X14120810Y-10689000D02*
X14111286Y-10693762D01*
X14111286Y-10693762D02*
X14092238Y-10693762D01*
X14092238Y-10693762D02*
X14082715Y-10689000D01*
X14082715Y-10689000D02*
X14077953Y-10679476D01*
X14077953Y-10679476D02*
X14077953Y-10641381D01*
X14077953Y-10641381D02*
X14082715Y-10631857D01*
X14082715Y-10631857D02*
X14092238Y-10627095D01*
X14092238Y-10627095D02*
X14111286Y-10627095D01*
X14111286Y-10627095D02*
X14120810Y-10631857D01*
X14120810Y-10631857D02*
X14125572Y-10641381D01*
X14125572Y-10641381D02*
X14125572Y-10650905D01*
X14125572Y-10650905D02*
X14077953Y-10660429D01*
X14211286Y-10693762D02*
X14211286Y-10593762D01*
X14211286Y-10689000D02*
X14201762Y-10693762D01*
X14201762Y-10693762D02*
X14182715Y-10693762D01*
X14182715Y-10693762D02*
X14173191Y-10689000D01*
X14173191Y-10689000D02*
X14168429Y-10684238D01*
X14168429Y-10684238D02*
X14163667Y-10674714D01*
X14163667Y-10674714D02*
X14163667Y-10646143D01*
X14163667Y-10646143D02*
X14168429Y-10636619D01*
X14168429Y-10636619D02*
X14173191Y-10631857D01*
X14173191Y-10631857D02*
X14182715Y-10627095D01*
X14182715Y-10627095D02*
X14201762Y-10627095D01*
X14201762Y-10627095D02*
X14211286Y-10631857D01*
X14320810Y-10627095D02*
X14358905Y-10627095D01*
X14335096Y-10693762D02*
X14335096Y-10608048D01*
X14335096Y-10608048D02*
X14339857Y-10598524D01*
X14339857Y-10598524D02*
X14349381Y-10593762D01*
X14349381Y-10593762D02*
X14358905Y-10593762D01*
X14392238Y-10693762D02*
X14392238Y-10627095D01*
X14392238Y-10593762D02*
X14387477Y-10598524D01*
X14387477Y-10598524D02*
X14392238Y-10603286D01*
X14392238Y-10603286D02*
X14397000Y-10598524D01*
X14397000Y-10598524D02*
X14392238Y-10593762D01*
X14392238Y-10593762D02*
X14392238Y-10603286D01*
X14454143Y-10693762D02*
X14444619Y-10689000D01*
X14444619Y-10689000D02*
X14439857Y-10679476D01*
X14439857Y-10679476D02*
X14439857Y-10593762D01*
X14477953Y-10627095D02*
X14516048Y-10627095D01*
X14492238Y-10593762D02*
X14492238Y-10679476D01*
X14492238Y-10679476D02*
X14497000Y-10689000D01*
X14497000Y-10689000D02*
X14506524Y-10693762D01*
X14506524Y-10693762D02*
X14516048Y-10693762D01*
X14587477Y-10689000D02*
X14577953Y-10693762D01*
X14577953Y-10693762D02*
X14558905Y-10693762D01*
X14558905Y-10693762D02*
X14549381Y-10689000D01*
X14549381Y-10689000D02*
X14544619Y-10679476D01*
X14544619Y-10679476D02*
X14544619Y-10641381D01*
X14544619Y-10641381D02*
X14549381Y-10631857D01*
X14549381Y-10631857D02*
X14558905Y-10627095D01*
X14558905Y-10627095D02*
X14577953Y-10627095D01*
X14577953Y-10627095D02*
X14587477Y-10631857D01*
X14587477Y-10631857D02*
X14592238Y-10641381D01*
X14592238Y-10641381D02*
X14592238Y-10650905D01*
X14592238Y-10650905D02*
X14544619Y-10660429D01*
X14635096Y-10693762D02*
X14635096Y-10627095D01*
X14635096Y-10646143D02*
X14639858Y-10636619D01*
X14639858Y-10636619D02*
X14644619Y-10631857D01*
X14644619Y-10631857D02*
X14654143Y-10627095D01*
X14654143Y-10627095D02*
X14663667Y-10627095D01*
X14697000Y-10684238D02*
X14701762Y-10689000D01*
X14701762Y-10689000D02*
X14697000Y-10693762D01*
X14697000Y-10693762D02*
X14692239Y-10689000D01*
X14692239Y-10689000D02*
X14697000Y-10684238D01*
X14697000Y-10684238D02*
X14697000Y-10693762D01*
X12520809Y-10855762D02*
X12520809Y-10755762D01*
X12520809Y-10755762D02*
X12544619Y-10755762D01*
X12544619Y-10755762D02*
X12558905Y-10760524D01*
X12558905Y-10760524D02*
X12568428Y-10770048D01*
X12568428Y-10770048D02*
X12573190Y-10779571D01*
X12573190Y-10779571D02*
X12577952Y-10798619D01*
X12577952Y-10798619D02*
X12577952Y-10812905D01*
X12577952Y-10812905D02*
X12573190Y-10831952D01*
X12573190Y-10831952D02*
X12568428Y-10841476D01*
X12568428Y-10841476D02*
X12558905Y-10851000D01*
X12558905Y-10851000D02*
X12544619Y-10855762D01*
X12544619Y-10855762D02*
X12520809Y-10855762D01*
X12658905Y-10851000D02*
X12649381Y-10855762D01*
X12649381Y-10855762D02*
X12630333Y-10855762D01*
X12630333Y-10855762D02*
X12620809Y-10851000D01*
X12620809Y-10851000D02*
X12616048Y-10841476D01*
X12616048Y-10841476D02*
X12616048Y-10803381D01*
X12616048Y-10803381D02*
X12620809Y-10793857D01*
X12620809Y-10793857D02*
X12630333Y-10789095D01*
X12630333Y-10789095D02*
X12649381Y-10789095D01*
X12649381Y-10789095D02*
X12658905Y-10793857D01*
X12658905Y-10793857D02*
X12663667Y-10803381D01*
X12663667Y-10803381D02*
X12663667Y-10812905D01*
X12663667Y-10812905D02*
X12616048Y-10822429D01*
X12701762Y-10851000D02*
X12711286Y-10855762D01*
X12711286Y-10855762D02*
X12730333Y-10855762D01*
X12730333Y-10855762D02*
X12739857Y-10851000D01*
X12739857Y-10851000D02*
X12744619Y-10841476D01*
X12744619Y-10841476D02*
X12744619Y-10836714D01*
X12744619Y-10836714D02*
X12739857Y-10827190D01*
X12739857Y-10827190D02*
X12730333Y-10822429D01*
X12730333Y-10822429D02*
X12716048Y-10822429D01*
X12716048Y-10822429D02*
X12706524Y-10817667D01*
X12706524Y-10817667D02*
X12701762Y-10808143D01*
X12701762Y-10808143D02*
X12701762Y-10803381D01*
X12701762Y-10803381D02*
X12706524Y-10793857D01*
X12706524Y-10793857D02*
X12716048Y-10789095D01*
X12716048Y-10789095D02*
X12730333Y-10789095D01*
X12730333Y-10789095D02*
X12739857Y-10793857D01*
X12787476Y-10855762D02*
X12787476Y-10789095D01*
X12787476Y-10755762D02*
X12782714Y-10760524D01*
X12782714Y-10760524D02*
X12787476Y-10765286D01*
X12787476Y-10765286D02*
X12792238Y-10760524D01*
X12792238Y-10760524D02*
X12787476Y-10755762D01*
X12787476Y-10755762D02*
X12787476Y-10765286D01*
X12877952Y-10789095D02*
X12877952Y-10870048D01*
X12877952Y-10870048D02*
X12873190Y-10879571D01*
X12873190Y-10879571D02*
X12868428Y-10884333D01*
X12868428Y-10884333D02*
X12858905Y-10889095D01*
X12858905Y-10889095D02*
X12844619Y-10889095D01*
X12844619Y-10889095D02*
X12835095Y-10884333D01*
X12877952Y-10851000D02*
X12868428Y-10855762D01*
X12868428Y-10855762D02*
X12849381Y-10855762D01*
X12849381Y-10855762D02*
X12839857Y-10851000D01*
X12839857Y-10851000D02*
X12835095Y-10846238D01*
X12835095Y-10846238D02*
X12830333Y-10836714D01*
X12830333Y-10836714D02*
X12830333Y-10808143D01*
X12830333Y-10808143D02*
X12835095Y-10798619D01*
X12835095Y-10798619D02*
X12839857Y-10793857D01*
X12839857Y-10793857D02*
X12849381Y-10789095D01*
X12849381Y-10789095D02*
X12868428Y-10789095D01*
X12868428Y-10789095D02*
X12877952Y-10793857D01*
X12925571Y-10789095D02*
X12925571Y-10855762D01*
X12925571Y-10798619D02*
X12930333Y-10793857D01*
X12930333Y-10793857D02*
X12939857Y-10789095D01*
X12939857Y-10789095D02*
X12954143Y-10789095D01*
X12954143Y-10789095D02*
X12963667Y-10793857D01*
X12963667Y-10793857D02*
X12968428Y-10803381D01*
X12968428Y-10803381D02*
X12968428Y-10855762D01*
X13054143Y-10851000D02*
X13044619Y-10855762D01*
X13044619Y-10855762D02*
X13025571Y-10855762D01*
X13025571Y-10855762D02*
X13016048Y-10851000D01*
X13016048Y-10851000D02*
X13011286Y-10841476D01*
X13011286Y-10841476D02*
X13011286Y-10803381D01*
X13011286Y-10803381D02*
X13016048Y-10793857D01*
X13016048Y-10793857D02*
X13025571Y-10789095D01*
X13025571Y-10789095D02*
X13044619Y-10789095D01*
X13044619Y-10789095D02*
X13054143Y-10793857D01*
X13054143Y-10793857D02*
X13058905Y-10803381D01*
X13058905Y-10803381D02*
X13058905Y-10812905D01*
X13058905Y-10812905D02*
X13011286Y-10822429D01*
X13144619Y-10855762D02*
X13144619Y-10755762D01*
X13144619Y-10851000D02*
X13135095Y-10855762D01*
X13135095Y-10855762D02*
X13116048Y-10855762D01*
X13116048Y-10855762D02*
X13106524Y-10851000D01*
X13106524Y-10851000D02*
X13101762Y-10846238D01*
X13101762Y-10846238D02*
X13097000Y-10836714D01*
X13097000Y-10836714D02*
X13097000Y-10808143D01*
X13097000Y-10808143D02*
X13101762Y-10798619D01*
X13101762Y-10798619D02*
X13106524Y-10793857D01*
X13106524Y-10793857D02*
X13116048Y-10789095D01*
X13116048Y-10789095D02*
X13135095Y-10789095D01*
X13135095Y-10789095D02*
X13144619Y-10793857D01*
X13268429Y-10855762D02*
X13268429Y-10755762D01*
X13268429Y-10793857D02*
X13277952Y-10789095D01*
X13277952Y-10789095D02*
X13297000Y-10789095D01*
X13297000Y-10789095D02*
X13306524Y-10793857D01*
X13306524Y-10793857D02*
X13311286Y-10798619D01*
X13311286Y-10798619D02*
X13316048Y-10808143D01*
X13316048Y-10808143D02*
X13316048Y-10836714D01*
X13316048Y-10836714D02*
X13311286Y-10846238D01*
X13311286Y-10846238D02*
X13306524Y-10851000D01*
X13306524Y-10851000D02*
X13297000Y-10855762D01*
X13297000Y-10855762D02*
X13277952Y-10855762D01*
X13277952Y-10855762D02*
X13268429Y-10851000D01*
X13349381Y-10789095D02*
X13373190Y-10855762D01*
X13397000Y-10789095D02*
X13373190Y-10855762D01*
X13373190Y-10855762D02*
X13363667Y-10879571D01*
X13363667Y-10879571D02*
X13358905Y-10884333D01*
X13358905Y-10884333D02*
X13349381Y-10889095D01*
X13506524Y-10827190D02*
X13554143Y-10827190D01*
X13497000Y-10855762D02*
X13530333Y-10755762D01*
X13530333Y-10755762D02*
X13563667Y-10855762D01*
X13597000Y-10789095D02*
X13597000Y-10855762D01*
X13597000Y-10798619D02*
X13601762Y-10793857D01*
X13601762Y-10793857D02*
X13611286Y-10789095D01*
X13611286Y-10789095D02*
X13625571Y-10789095D01*
X13625571Y-10789095D02*
X13635095Y-10793857D01*
X13635095Y-10793857D02*
X13639857Y-10803381D01*
X13639857Y-10803381D02*
X13639857Y-10855762D01*
X13730333Y-10855762D02*
X13730333Y-10755762D01*
X13730333Y-10851000D02*
X13720810Y-10855762D01*
X13720810Y-10855762D02*
X13701762Y-10855762D01*
X13701762Y-10855762D02*
X13692238Y-10851000D01*
X13692238Y-10851000D02*
X13687476Y-10846238D01*
X13687476Y-10846238D02*
X13682714Y-10836714D01*
X13682714Y-10836714D02*
X13682714Y-10808143D01*
X13682714Y-10808143D02*
X13687476Y-10798619D01*
X13687476Y-10798619D02*
X13692238Y-10793857D01*
X13692238Y-10793857D02*
X13701762Y-10789095D01*
X13701762Y-10789095D02*
X13720810Y-10789095D01*
X13720810Y-10789095D02*
X13730333Y-10793857D01*
X13777952Y-10855762D02*
X13777952Y-10789095D01*
X13777952Y-10808143D02*
X13782714Y-10798619D01*
X13782714Y-10798619D02*
X13787476Y-10793857D01*
X13787476Y-10793857D02*
X13797000Y-10789095D01*
X13797000Y-10789095D02*
X13806524Y-10789095D01*
X13877952Y-10851000D02*
X13868429Y-10855762D01*
X13868429Y-10855762D02*
X13849381Y-10855762D01*
X13849381Y-10855762D02*
X13839857Y-10851000D01*
X13839857Y-10851000D02*
X13835095Y-10841476D01*
X13835095Y-10841476D02*
X13835095Y-10803381D01*
X13835095Y-10803381D02*
X13839857Y-10793857D01*
X13839857Y-10793857D02*
X13849381Y-10789095D01*
X13849381Y-10789095D02*
X13868429Y-10789095D01*
X13868429Y-10789095D02*
X13877952Y-10793857D01*
X13877952Y-10793857D02*
X13882714Y-10803381D01*
X13882714Y-10803381D02*
X13882714Y-10812905D01*
X13882714Y-10812905D02*
X13835095Y-10822429D01*
X13916048Y-10789095D02*
X13939857Y-10855762D01*
X13963667Y-10789095D02*
X13939857Y-10855762D01*
X13939857Y-10855762D02*
X13930333Y-10879571D01*
X13930333Y-10879571D02*
X13925572Y-10884333D01*
X13925572Y-10884333D02*
X13916048Y-10889095D01*
X14077953Y-10855762D02*
X14077953Y-10755762D01*
X14116048Y-10789095D02*
X14139857Y-10855762D01*
X14139857Y-10855762D02*
X14163667Y-10789095D01*
X14244619Y-10855762D02*
X14244619Y-10803381D01*
X14244619Y-10803381D02*
X14239857Y-10793857D01*
X14239857Y-10793857D02*
X14230333Y-10789095D01*
X14230333Y-10789095D02*
X14211286Y-10789095D01*
X14211286Y-10789095D02*
X14201762Y-10793857D01*
X14244619Y-10851000D02*
X14235095Y-10855762D01*
X14235095Y-10855762D02*
X14211286Y-10855762D01*
X14211286Y-10855762D02*
X14201762Y-10851000D01*
X14201762Y-10851000D02*
X14197000Y-10841476D01*
X14197000Y-10841476D02*
X14197000Y-10831952D01*
X14197000Y-10831952D02*
X14201762Y-10822429D01*
X14201762Y-10822429D02*
X14211286Y-10817667D01*
X14211286Y-10817667D02*
X14235095Y-10817667D01*
X14235095Y-10817667D02*
X14244619Y-10812905D01*
X14292238Y-10789095D02*
X14292238Y-10855762D01*
X14292238Y-10798619D02*
X14297000Y-10793857D01*
X14297000Y-10793857D02*
X14306524Y-10789095D01*
X14306524Y-10789095D02*
X14320810Y-10789095D01*
X14320810Y-10789095D02*
X14330333Y-10793857D01*
X14330333Y-10793857D02*
X14335095Y-10803381D01*
X14335095Y-10803381D02*
X14335095Y-10855762D01*
X14397000Y-10855762D02*
X14387476Y-10851000D01*
X14387476Y-10851000D02*
X14382714Y-10846238D01*
X14382714Y-10846238D02*
X14377953Y-10836714D01*
X14377953Y-10836714D02*
X14377953Y-10808143D01*
X14377953Y-10808143D02*
X14382714Y-10798619D01*
X14382714Y-10798619D02*
X14387476Y-10793857D01*
X14387476Y-10793857D02*
X14397000Y-10789095D01*
X14397000Y-10789095D02*
X14411286Y-10789095D01*
X14411286Y-10789095D02*
X14420810Y-10793857D01*
X14420810Y-10793857D02*
X14425572Y-10798619D01*
X14425572Y-10798619D02*
X14430333Y-10808143D01*
X14430333Y-10808143D02*
X14430333Y-10836714D01*
X14430333Y-10836714D02*
X14425572Y-10846238D01*
X14425572Y-10846238D02*
X14420810Y-10851000D01*
X14420810Y-10851000D02*
X14411286Y-10855762D01*
X14411286Y-10855762D02*
X14397000Y-10855762D01*
X14463667Y-10789095D02*
X14487476Y-10855762D01*
X14487476Y-10855762D02*
X14511286Y-10789095D01*
X12516048Y-10927286D02*
X12520809Y-10922524D01*
X12520809Y-10922524D02*
X12530333Y-10917762D01*
X12530333Y-10917762D02*
X12554143Y-10917762D01*
X12554143Y-10917762D02*
X12563667Y-10922524D01*
X12563667Y-10922524D02*
X12568428Y-10927286D01*
X12568428Y-10927286D02*
X12573190Y-10936810D01*
X12573190Y-10936810D02*
X12573190Y-10946333D01*
X12573190Y-10946333D02*
X12568428Y-10960619D01*
X12568428Y-10960619D02*
X12511286Y-11017762D01*
X12511286Y-11017762D02*
X12573190Y-11017762D01*
X12606524Y-10917762D02*
X12673190Y-10917762D01*
X12673190Y-10917762D02*
X12630333Y-11017762D01*
X12711286Y-11008238D02*
X12716048Y-11013000D01*
X12716048Y-11013000D02*
X12711286Y-11017762D01*
X12711286Y-11017762D02*
X12706524Y-11013000D01*
X12706524Y-11013000D02*
X12711286Y-11008238D01*
X12711286Y-11008238D02*
X12711286Y-11017762D01*
X12777952Y-10917762D02*
X12787476Y-10917762D01*
X12787476Y-10917762D02*
X12797000Y-10922524D01*
X12797000Y-10922524D02*
X12801762Y-10927286D01*
X12801762Y-10927286D02*
X12806524Y-10936810D01*
X12806524Y-10936810D02*
X12811286Y-10955857D01*
X12811286Y-10955857D02*
X12811286Y-10979667D01*
X12811286Y-10979667D02*
X12806524Y-10998714D01*
X12806524Y-10998714D02*
X12801762Y-11008238D01*
X12801762Y-11008238D02*
X12797000Y-11013000D01*
X12797000Y-11013000D02*
X12787476Y-11017762D01*
X12787476Y-11017762D02*
X12777952Y-11017762D01*
X12777952Y-11017762D02*
X12768428Y-11013000D01*
X12768428Y-11013000D02*
X12763667Y-11008238D01*
X12763667Y-11008238D02*
X12758905Y-10998714D01*
X12758905Y-10998714D02*
X12754143Y-10979667D01*
X12754143Y-10979667D02*
X12754143Y-10955857D01*
X12754143Y-10955857D02*
X12758905Y-10936810D01*
X12758905Y-10936810D02*
X12763667Y-10927286D01*
X12763667Y-10927286D02*
X12768428Y-10922524D01*
X12768428Y-10922524D02*
X12777952Y-10917762D01*
X12858905Y-11017762D02*
X12877952Y-11017762D01*
X12877952Y-11017762D02*
X12887476Y-11013000D01*
X12887476Y-11013000D02*
X12892238Y-11008238D01*
X12892238Y-11008238D02*
X12901762Y-10993952D01*
X12901762Y-10993952D02*
X12906524Y-10974905D01*
X12906524Y-10974905D02*
X12906524Y-10936810D01*
X12906524Y-10936810D02*
X12901762Y-10927286D01*
X12901762Y-10927286D02*
X12897000Y-10922524D01*
X12897000Y-10922524D02*
X12887476Y-10917762D01*
X12887476Y-10917762D02*
X12868428Y-10917762D01*
X12868428Y-10917762D02*
X12858905Y-10922524D01*
X12858905Y-10922524D02*
X12854143Y-10927286D01*
X12854143Y-10927286D02*
X12849381Y-10936810D01*
X12849381Y-10936810D02*
X12849381Y-10960619D01*
X12849381Y-10960619D02*
X12854143Y-10970143D01*
X12854143Y-10970143D02*
X12858905Y-10974905D01*
X12858905Y-10974905D02*
X12868428Y-10979667D01*
X12868428Y-10979667D02*
X12887476Y-10979667D01*
X12887476Y-10979667D02*
X12897000Y-10974905D01*
X12897000Y-10974905D02*
X12901762Y-10970143D01*
X12901762Y-10970143D02*
X12906524Y-10960619D01*
X12949381Y-11008238D02*
X12954143Y-11013000D01*
X12954143Y-11013000D02*
X12949381Y-11017762D01*
X12949381Y-11017762D02*
X12944619Y-11013000D01*
X12944619Y-11013000D02*
X12949381Y-11008238D01*
X12949381Y-11008238D02*
X12949381Y-11017762D01*
X12992238Y-10927286D02*
X12997000Y-10922524D01*
X12997000Y-10922524D02*
X13006524Y-10917762D01*
X13006524Y-10917762D02*
X13030333Y-10917762D01*
X13030333Y-10917762D02*
X13039857Y-10922524D01*
X13039857Y-10922524D02*
X13044619Y-10927286D01*
X13044619Y-10927286D02*
X13049381Y-10936810D01*
X13049381Y-10936810D02*
X13049381Y-10946333D01*
X13049381Y-10946333D02*
X13044619Y-10960619D01*
X13044619Y-10960619D02*
X12987476Y-11017762D01*
X12987476Y-11017762D02*
X13049381Y-11017762D01*
X13111286Y-10917762D02*
X13120809Y-10917762D01*
X13120809Y-10917762D02*
X13130333Y-10922524D01*
X13130333Y-10922524D02*
X13135095Y-10927286D01*
X13135095Y-10927286D02*
X13139857Y-10936810D01*
X13139857Y-10936810D02*
X13144619Y-10955857D01*
X13144619Y-10955857D02*
X13144619Y-10979667D01*
X13144619Y-10979667D02*
X13139857Y-10998714D01*
X13139857Y-10998714D02*
X13135095Y-11008238D01*
X13135095Y-11008238D02*
X13130333Y-11013000D01*
X13130333Y-11013000D02*
X13120809Y-11017762D01*
X13120809Y-11017762D02*
X13111286Y-11017762D01*
X13111286Y-11017762D02*
X13101762Y-11013000D01*
X13101762Y-11013000D02*
X13097000Y-11008238D01*
X13097000Y-11008238D02*
X13092238Y-10998714D01*
X13092238Y-10998714D02*
X13087476Y-10979667D01*
X13087476Y-10979667D02*
X13087476Y-10955857D01*
X13087476Y-10955857D02*
X13092238Y-10936810D01*
X13092238Y-10936810D02*
X13097000Y-10927286D01*
X13097000Y-10927286D02*
X13101762Y-10922524D01*
X13101762Y-10922524D02*
X13111286Y-10917762D01*
X13182714Y-10927286D02*
X13187476Y-10922524D01*
X13187476Y-10922524D02*
X13197000Y-10917762D01*
X13197000Y-10917762D02*
X13220809Y-10917762D01*
X13220809Y-10917762D02*
X13230333Y-10922524D01*
X13230333Y-10922524D02*
X13235095Y-10927286D01*
X13235095Y-10927286D02*
X13239857Y-10936810D01*
X13239857Y-10936810D02*
X13239857Y-10946333D01*
X13239857Y-10946333D02*
X13235095Y-10960619D01*
X13235095Y-10960619D02*
X13177952Y-11017762D01*
X13177952Y-11017762D02*
X13239857Y-11017762D01*
X13273190Y-10917762D02*
X13335095Y-10917762D01*
X13335095Y-10917762D02*
X13301762Y-10955857D01*
X13301762Y-10955857D02*
X13316047Y-10955857D01*
X13316047Y-10955857D02*
X13325571Y-10960619D01*
X13325571Y-10960619D02*
X13330333Y-10965381D01*
X13330333Y-10965381D02*
X13335095Y-10974905D01*
X13335095Y-10974905D02*
X13335095Y-10998714D01*
X13335095Y-10998714D02*
X13330333Y-11008238D01*
X13330333Y-11008238D02*
X13325571Y-11013000D01*
X13325571Y-11013000D02*
X13316047Y-11017762D01*
X13316047Y-11017762D02*
X13287476Y-11017762D01*
X13287476Y-11017762D02*
X13277952Y-11013000D01*
X13277952Y-11013000D02*
X13273190Y-11008238D01*
D12*
X13365143Y-10020643D02*
X13293714Y-10020643D01*
X13293714Y-10020643D02*
X13286571Y-10092071D01*
X13286571Y-10092071D02*
X13293714Y-10084929D01*
X13293714Y-10084929D02*
X13308000Y-10077786D01*
X13308000Y-10077786D02*
X13343714Y-10077786D01*
X13343714Y-10077786D02*
X13358000Y-10084929D01*
X13358000Y-10084929D02*
X13365143Y-10092071D01*
X13365143Y-10092071D02*
X13372286Y-10106357D01*
X13372286Y-10106357D02*
X13372286Y-10142071D01*
X13372286Y-10142071D02*
X13365143Y-10156357D01*
X13365143Y-10156357D02*
X13358000Y-10163500D01*
X13358000Y-10163500D02*
X13343714Y-10170643D01*
X13343714Y-10170643D02*
X13308000Y-10170643D01*
X13308000Y-10170643D02*
X13293714Y-10163500D01*
X13293714Y-10163500D02*
X13286571Y-10156357D01*
X13415143Y-10020643D02*
X13465143Y-10170643D01*
X13465143Y-10170643D02*
X13515143Y-10020643D01*
D13*
X13626809Y-10030786D02*
X13616333Y-10023643D01*
X13616333Y-10023643D02*
X13600619Y-10023643D01*
X13600619Y-10023643D02*
X13584905Y-10030786D01*
X13584905Y-10030786D02*
X13574428Y-10045071D01*
X13574428Y-10045071D02*
X13569190Y-10059357D01*
X13569190Y-10059357D02*
X13563952Y-10087929D01*
X13563952Y-10087929D02*
X13563952Y-10109357D01*
X13563952Y-10109357D02*
X13569190Y-10137929D01*
X13569190Y-10137929D02*
X13574428Y-10152214D01*
X13574428Y-10152214D02*
X13584905Y-10166500D01*
X13584905Y-10166500D02*
X13600619Y-10173643D01*
X13600619Y-10173643D02*
X13611095Y-10173643D01*
X13611095Y-10173643D02*
X13626809Y-10166500D01*
X13626809Y-10166500D02*
X13632048Y-10159357D01*
X13632048Y-10159357D02*
X13632048Y-10109357D01*
X13632048Y-10109357D02*
X13611095Y-10109357D01*
X13679190Y-10173643D02*
X13679190Y-10023643D01*
X13679190Y-10023643D02*
X13742048Y-10173643D01*
X13742048Y-10173643D02*
X13742048Y-10023643D01*
X13794428Y-10173643D02*
X13794428Y-10023643D01*
X13794428Y-10023643D02*
X13820619Y-10023643D01*
X13820619Y-10023643D02*
X13836333Y-10030786D01*
X13836333Y-10030786D02*
X13846809Y-10045071D01*
X13846809Y-10045071D02*
X13852048Y-10059357D01*
X13852048Y-10059357D02*
X13857286Y-10087929D01*
X13857286Y-10087929D02*
X13857286Y-10109357D01*
X13857286Y-10109357D02*
X13852048Y-10137929D01*
X13852048Y-10137929D02*
X13846809Y-10152214D01*
X13846809Y-10152214D02*
X13836333Y-10166500D01*
X13836333Y-10166500D02*
X13820619Y-10173643D01*
X13820619Y-10173643D02*
X13794428Y-10173643D01*
D12*
X12980714Y-10168643D02*
X12980714Y-10018643D01*
X13066428Y-10168643D02*
X13002143Y-10082929D01*
X13066428Y-10018643D02*
X12980714Y-10104357D01*
X13209286Y-10168643D02*
X13123571Y-10168643D01*
X13166428Y-10168643D02*
X13166428Y-10018643D01*
X13166428Y-10018643D02*
X13152143Y-10040071D01*
X13152143Y-10040071D02*
X13137857Y-10054357D01*
X13137857Y-10054357D02*
X13123571Y-10061500D01*
D10*
%TO.C,L7*%
X15124333Y-9289262D02*
X15076714Y-9289262D01*
X15076714Y-9289262D02*
X15076714Y-9189262D01*
X15148143Y-9189262D02*
X15214809Y-9189262D01*
X15214809Y-9189262D02*
X15171952Y-9289262D01*
X15053431Y-9522994D02*
X14996288Y-9522994D01*
X15024860Y-9522994D02*
X15024860Y-9422994D01*
X15024860Y-9422994D02*
X15015336Y-9437279D01*
X15015336Y-9437279D02*
X15005812Y-9446803D01*
X15005812Y-9446803D02*
X14996288Y-9451565D01*
X15139145Y-9456327D02*
X15139145Y-9522994D01*
X15096288Y-9456327D02*
X15096288Y-9508708D01*
X15096288Y-9508708D02*
X15101050Y-9518232D01*
X15101050Y-9518232D02*
X15110574Y-9522994D01*
X15110574Y-9522994D02*
X15124860Y-9522994D01*
X15124860Y-9522994D02*
X15134384Y-9518232D01*
X15134384Y-9518232D02*
X15139145Y-9513470D01*
X15186765Y-9522994D02*
X15186765Y-9422994D01*
X15186765Y-9470613D02*
X15243907Y-9470613D01*
X15243907Y-9522994D02*
X15243907Y-9422994D01*
%TO.C,L8*%
X15006333Y-8592262D02*
X14958714Y-8592262D01*
X14958714Y-8592262D02*
X14958714Y-8492262D01*
X15053952Y-8535119D02*
X15044429Y-8530357D01*
X15044429Y-8530357D02*
X15039667Y-8525595D01*
X15039667Y-8525595D02*
X15034905Y-8516071D01*
X15034905Y-8516071D02*
X15034905Y-8511310D01*
X15034905Y-8511310D02*
X15039667Y-8501786D01*
X15039667Y-8501786D02*
X15044429Y-8497024D01*
X15044429Y-8497024D02*
X15053952Y-8492262D01*
X15053952Y-8492262D02*
X15073000Y-8492262D01*
X15073000Y-8492262D02*
X15082524Y-8497024D01*
X15082524Y-8497024D02*
X15087286Y-8501786D01*
X15087286Y-8501786D02*
X15092048Y-8511310D01*
X15092048Y-8511310D02*
X15092048Y-8516071D01*
X15092048Y-8516071D02*
X15087286Y-8525595D01*
X15087286Y-8525595D02*
X15082524Y-8530357D01*
X15082524Y-8530357D02*
X15073000Y-8535119D01*
X15073000Y-8535119D02*
X15053952Y-8535119D01*
X15053952Y-8535119D02*
X15044429Y-8539881D01*
X15044429Y-8539881D02*
X15039667Y-8544643D01*
X15039667Y-8544643D02*
X15034905Y-8554167D01*
X15034905Y-8554167D02*
X15034905Y-8573214D01*
X15034905Y-8573214D02*
X15039667Y-8582738D01*
X15039667Y-8582738D02*
X15044429Y-8587500D01*
X15044429Y-8587500D02*
X15053952Y-8592262D01*
X15053952Y-8592262D02*
X15073000Y-8592262D01*
X15073000Y-8592262D02*
X15082524Y-8587500D01*
X15082524Y-8587500D02*
X15087286Y-8582738D01*
X15087286Y-8582738D02*
X15092048Y-8573214D01*
X15092048Y-8573214D02*
X15092048Y-8554167D01*
X15092048Y-8554167D02*
X15087286Y-8544643D01*
X15087286Y-8544643D02*
X15082524Y-8539881D01*
X15082524Y-8539881D02*
X15073000Y-8535119D01*
X14820093Y-8258530D02*
X14829616Y-8258530D01*
X14829616Y-8258530D02*
X14839140Y-8263292D01*
X14839140Y-8263292D02*
X14843902Y-8268054D01*
X14843902Y-8268054D02*
X14848664Y-8277578D01*
X14848664Y-8277578D02*
X14853426Y-8296625D01*
X14853426Y-8296625D02*
X14853426Y-8320435D01*
X14853426Y-8320435D02*
X14848664Y-8339483D01*
X14848664Y-8339483D02*
X14843902Y-8349006D01*
X14843902Y-8349006D02*
X14839140Y-8353768D01*
X14839140Y-8353768D02*
X14829616Y-8358530D01*
X14829616Y-8358530D02*
X14820093Y-8358530D01*
X14820093Y-8358530D02*
X14810569Y-8353768D01*
X14810569Y-8353768D02*
X14805807Y-8349006D01*
X14805807Y-8349006D02*
X14801045Y-8339483D01*
X14801045Y-8339483D02*
X14796283Y-8320435D01*
X14796283Y-8320435D02*
X14796283Y-8296625D01*
X14796283Y-8296625D02*
X14801045Y-8277578D01*
X14801045Y-8277578D02*
X14805807Y-8268054D01*
X14805807Y-8268054D02*
X14810569Y-8263292D01*
X14810569Y-8263292D02*
X14820093Y-8258530D01*
X14896283Y-8349006D02*
X14901045Y-8353768D01*
X14901045Y-8353768D02*
X14896283Y-8358530D01*
X14896283Y-8358530D02*
X14891521Y-8353768D01*
X14891521Y-8353768D02*
X14896283Y-8349006D01*
X14896283Y-8349006D02*
X14896283Y-8358530D01*
X14939140Y-8268054D02*
X14943902Y-8263292D01*
X14943902Y-8263292D02*
X14953426Y-8258530D01*
X14953426Y-8258530D02*
X14977235Y-8258530D01*
X14977235Y-8258530D02*
X14986759Y-8263292D01*
X14986759Y-8263292D02*
X14991521Y-8268054D01*
X14991521Y-8268054D02*
X14996283Y-8277578D01*
X14996283Y-8277578D02*
X14996283Y-8287102D01*
X14996283Y-8287102D02*
X14991521Y-8301387D01*
X14991521Y-8301387D02*
X14934378Y-8358530D01*
X14934378Y-8358530D02*
X14996283Y-8358530D01*
X15029616Y-8258530D02*
X15096283Y-8258530D01*
X15096283Y-8258530D02*
X15053426Y-8358530D01*
X15177235Y-8291864D02*
X15177235Y-8358530D01*
X15134378Y-8291864D02*
X15134378Y-8344244D01*
X15134378Y-8344244D02*
X15139140Y-8353768D01*
X15139140Y-8353768D02*
X15148664Y-8358530D01*
X15148664Y-8358530D02*
X15162950Y-8358530D01*
X15162950Y-8358530D02*
X15172473Y-8353768D01*
X15172473Y-8353768D02*
X15177235Y-8349006D01*
X15224854Y-8358530D02*
X15224854Y-8258530D01*
X15224854Y-8306149D02*
X15281997Y-8306149D01*
X15281997Y-8358530D02*
X15281997Y-8258530D01*
%TO.C,R10*%
X14248262Y-7784286D02*
X14200643Y-7817619D01*
X14248262Y-7841428D02*
X14148262Y-7841428D01*
X14148262Y-7841428D02*
X14148262Y-7803333D01*
X14148262Y-7803333D02*
X14153024Y-7793809D01*
X14153024Y-7793809D02*
X14157786Y-7789048D01*
X14157786Y-7789048D02*
X14167309Y-7784286D01*
X14167309Y-7784286D02*
X14181595Y-7784286D01*
X14181595Y-7784286D02*
X14191119Y-7789048D01*
X14191119Y-7789048D02*
X14195881Y-7793809D01*
X14195881Y-7793809D02*
X14200643Y-7803333D01*
X14200643Y-7803333D02*
X14200643Y-7841428D01*
X14248262Y-7689048D02*
X14248262Y-7746190D01*
X14248262Y-7717619D02*
X14148262Y-7717619D01*
X14148262Y-7717619D02*
X14162548Y-7727143D01*
X14162548Y-7727143D02*
X14172071Y-7736667D01*
X14172071Y-7736667D02*
X14176833Y-7746190D01*
X14148262Y-7627143D02*
X14148262Y-7617619D01*
X14148262Y-7617619D02*
X14153024Y-7608095D01*
X14153024Y-7608095D02*
X14157786Y-7603333D01*
X14157786Y-7603333D02*
X14167309Y-7598571D01*
X14167309Y-7598571D02*
X14186357Y-7593809D01*
X14186357Y-7593809D02*
X14210167Y-7593809D01*
X14210167Y-7593809D02*
X14229214Y-7598571D01*
X14229214Y-7598571D02*
X14238738Y-7603333D01*
X14238738Y-7603333D02*
X14243500Y-7608095D01*
X14243500Y-7608095D02*
X14248262Y-7617619D01*
X14248262Y-7617619D02*
X14248262Y-7627143D01*
X14248262Y-7627143D02*
X14243500Y-7636667D01*
X14243500Y-7636667D02*
X14238738Y-7641428D01*
X14238738Y-7641428D02*
X14229214Y-7646190D01*
X14229214Y-7646190D02*
X14210167Y-7650952D01*
X14210167Y-7650952D02*
X14186357Y-7650952D01*
X14186357Y-7650952D02*
X14167309Y-7646190D01*
X14167309Y-7646190D02*
X14157786Y-7641428D01*
X14157786Y-7641428D02*
X14153024Y-7636667D01*
X14153024Y-7636667D02*
X14148262Y-7627143D01*
%TO.C,C15*%
X13828714Y-9898738D02*
X13823952Y-9903500D01*
X13823952Y-9903500D02*
X13809667Y-9908262D01*
X13809667Y-9908262D02*
X13800143Y-9908262D01*
X13800143Y-9908262D02*
X13785857Y-9903500D01*
X13785857Y-9903500D02*
X13776333Y-9893976D01*
X13776333Y-9893976D02*
X13771571Y-9884452D01*
X13771571Y-9884452D02*
X13766809Y-9865405D01*
X13766809Y-9865405D02*
X13766809Y-9851119D01*
X13766809Y-9851119D02*
X13771571Y-9832071D01*
X13771571Y-9832071D02*
X13776333Y-9822548D01*
X13776333Y-9822548D02*
X13785857Y-9813024D01*
X13785857Y-9813024D02*
X13800143Y-9808262D01*
X13800143Y-9808262D02*
X13809667Y-9808262D01*
X13809667Y-9808262D02*
X13823952Y-9813024D01*
X13823952Y-9813024D02*
X13828714Y-9817786D01*
X13923952Y-9908262D02*
X13866809Y-9908262D01*
X13895381Y-9908262D02*
X13895381Y-9808262D01*
X13895381Y-9808262D02*
X13885857Y-9822548D01*
X13885857Y-9822548D02*
X13876333Y-9832071D01*
X13876333Y-9832071D02*
X13866809Y-9836833D01*
X14014428Y-9808262D02*
X13966809Y-9808262D01*
X13966809Y-9808262D02*
X13962048Y-9855881D01*
X13962048Y-9855881D02*
X13966809Y-9851119D01*
X13966809Y-9851119D02*
X13976333Y-9846357D01*
X13976333Y-9846357D02*
X14000143Y-9846357D01*
X14000143Y-9846357D02*
X14009667Y-9851119D01*
X14009667Y-9851119D02*
X14014428Y-9855881D01*
X14014428Y-9855881D02*
X14019190Y-9865405D01*
X14019190Y-9865405D02*
X14019190Y-9889214D01*
X14019190Y-9889214D02*
X14014428Y-9898738D01*
X14014428Y-9898738D02*
X14009667Y-9903500D01*
X14009667Y-9903500D02*
X14000143Y-9908262D01*
X14000143Y-9908262D02*
X13976333Y-9908262D01*
X13976333Y-9908262D02*
X13966809Y-9903500D01*
X13966809Y-9903500D02*
X13962048Y-9898738D01*
%TO.C,C7*%
X16223738Y-8914667D02*
X16228500Y-8919429D01*
X16228500Y-8919429D02*
X16233262Y-8933714D01*
X16233262Y-8933714D02*
X16233262Y-8943238D01*
X16233262Y-8943238D02*
X16228500Y-8957524D01*
X16228500Y-8957524D02*
X16218976Y-8967048D01*
X16218976Y-8967048D02*
X16209452Y-8971809D01*
X16209452Y-8971809D02*
X16190405Y-8976571D01*
X16190405Y-8976571D02*
X16176119Y-8976571D01*
X16176119Y-8976571D02*
X16157071Y-8971809D01*
X16157071Y-8971809D02*
X16147548Y-8967048D01*
X16147548Y-8967048D02*
X16138024Y-8957524D01*
X16138024Y-8957524D02*
X16133262Y-8943238D01*
X16133262Y-8943238D02*
X16133262Y-8933714D01*
X16133262Y-8933714D02*
X16138024Y-8919429D01*
X16138024Y-8919429D02*
X16142786Y-8914667D01*
X16133262Y-8881333D02*
X16133262Y-8814667D01*
X16133262Y-8814667D02*
X16233262Y-8857524D01*
%TO.C,R7*%
X14263262Y-7006667D02*
X14215643Y-7040000D01*
X14263262Y-7063809D02*
X14163262Y-7063809D01*
X14163262Y-7063809D02*
X14163262Y-7025714D01*
X14163262Y-7025714D02*
X14168024Y-7016190D01*
X14168024Y-7016190D02*
X14172786Y-7011428D01*
X14172786Y-7011428D02*
X14182309Y-7006667D01*
X14182309Y-7006667D02*
X14196595Y-7006667D01*
X14196595Y-7006667D02*
X14206119Y-7011428D01*
X14206119Y-7011428D02*
X14210881Y-7016190D01*
X14210881Y-7016190D02*
X14215643Y-7025714D01*
X14215643Y-7025714D02*
X14215643Y-7063809D01*
X14163262Y-6973333D02*
X14163262Y-6906667D01*
X14163262Y-6906667D02*
X14263262Y-6949524D01*
%TO.C,J1*%
X12268792Y-9154512D02*
X12268792Y-9225940D01*
X12268792Y-9225940D02*
X12264030Y-9240226D01*
X12264030Y-9240226D02*
X12254506Y-9249750D01*
X12254506Y-9249750D02*
X12240220Y-9254512D01*
X12240220Y-9254512D02*
X12230696Y-9254512D01*
X12368792Y-9254512D02*
X12311649Y-9254512D01*
X12340220Y-9254512D02*
X12340220Y-9154512D01*
X12340220Y-9154512D02*
X12330696Y-9168798D01*
X12330696Y-9168798D02*
X12321173Y-9178321D01*
X12321173Y-9178321D02*
X12311649Y-9183083D01*
%TO.C,C6*%
X14284333Y-8213738D02*
X14279571Y-8218500D01*
X14279571Y-8218500D02*
X14265286Y-8223262D01*
X14265286Y-8223262D02*
X14255762Y-8223262D01*
X14255762Y-8223262D02*
X14241476Y-8218500D01*
X14241476Y-8218500D02*
X14231952Y-8208976D01*
X14231952Y-8208976D02*
X14227190Y-8199452D01*
X14227190Y-8199452D02*
X14222429Y-8180405D01*
X14222429Y-8180405D02*
X14222429Y-8166119D01*
X14222429Y-8166119D02*
X14227190Y-8147071D01*
X14227190Y-8147071D02*
X14231952Y-8137548D01*
X14231952Y-8137548D02*
X14241476Y-8128024D01*
X14241476Y-8128024D02*
X14255762Y-8123262D01*
X14255762Y-8123262D02*
X14265286Y-8123262D01*
X14265286Y-8123262D02*
X14279571Y-8128024D01*
X14279571Y-8128024D02*
X14284333Y-8132786D01*
X14370048Y-8123262D02*
X14351000Y-8123262D01*
X14351000Y-8123262D02*
X14341476Y-8128024D01*
X14341476Y-8128024D02*
X14336714Y-8132786D01*
X14336714Y-8132786D02*
X14327190Y-8147071D01*
X14327190Y-8147071D02*
X14322429Y-8166119D01*
X14322429Y-8166119D02*
X14322429Y-8204214D01*
X14322429Y-8204214D02*
X14327190Y-8213738D01*
X14327190Y-8213738D02*
X14331952Y-8218500D01*
X14331952Y-8218500D02*
X14341476Y-8223262D01*
X14341476Y-8223262D02*
X14360524Y-8223262D01*
X14360524Y-8223262D02*
X14370048Y-8218500D01*
X14370048Y-8218500D02*
X14374809Y-8213738D01*
X14374809Y-8213738D02*
X14379571Y-8204214D01*
X14379571Y-8204214D02*
X14379571Y-8180405D01*
X14379571Y-8180405D02*
X14374809Y-8170881D01*
X14374809Y-8170881D02*
X14370048Y-8166119D01*
X14370048Y-8166119D02*
X14360524Y-8161357D01*
X14360524Y-8161357D02*
X14341476Y-8161357D01*
X14341476Y-8161357D02*
X14331952Y-8166119D01*
X14331952Y-8166119D02*
X14327190Y-8170881D01*
X14327190Y-8170881D02*
X14322429Y-8180405D01*
%TO.C,C9*%
X14390333Y-8926738D02*
X14385571Y-8931500D01*
X14385571Y-8931500D02*
X14371286Y-8936262D01*
X14371286Y-8936262D02*
X14361762Y-8936262D01*
X14361762Y-8936262D02*
X14347476Y-8931500D01*
X14347476Y-8931500D02*
X14337952Y-8921976D01*
X14337952Y-8921976D02*
X14333190Y-8912452D01*
X14333190Y-8912452D02*
X14328429Y-8893405D01*
X14328429Y-8893405D02*
X14328429Y-8879119D01*
X14328429Y-8879119D02*
X14333190Y-8860071D01*
X14333190Y-8860071D02*
X14337952Y-8850548D01*
X14337952Y-8850548D02*
X14347476Y-8841024D01*
X14347476Y-8841024D02*
X14361762Y-8836262D01*
X14361762Y-8836262D02*
X14371286Y-8836262D01*
X14371286Y-8836262D02*
X14385571Y-8841024D01*
X14385571Y-8841024D02*
X14390333Y-8845786D01*
X14437952Y-8936262D02*
X14457000Y-8936262D01*
X14457000Y-8936262D02*
X14466524Y-8931500D01*
X14466524Y-8931500D02*
X14471286Y-8926738D01*
X14471286Y-8926738D02*
X14480809Y-8912452D01*
X14480809Y-8912452D02*
X14485571Y-8893405D01*
X14485571Y-8893405D02*
X14485571Y-8855310D01*
X14485571Y-8855310D02*
X14480809Y-8845786D01*
X14480809Y-8845786D02*
X14476048Y-8841024D01*
X14476048Y-8841024D02*
X14466524Y-8836262D01*
X14466524Y-8836262D02*
X14447476Y-8836262D01*
X14447476Y-8836262D02*
X14437952Y-8841024D01*
X14437952Y-8841024D02*
X14433190Y-8845786D01*
X14433190Y-8845786D02*
X14428429Y-8855310D01*
X14428429Y-8855310D02*
X14428429Y-8879119D01*
X14428429Y-8879119D02*
X14433190Y-8888643D01*
X14433190Y-8888643D02*
X14437952Y-8893405D01*
X14437952Y-8893405D02*
X14447476Y-8898167D01*
X14447476Y-8898167D02*
X14466524Y-8898167D01*
X14466524Y-8898167D02*
X14476048Y-8893405D01*
X14476048Y-8893405D02*
X14480809Y-8888643D01*
X14480809Y-8888643D02*
X14485571Y-8879119D01*
%TO.C,C17*%
X18915714Y-9138738D02*
X18910952Y-9143500D01*
X18910952Y-9143500D02*
X18896667Y-9148262D01*
X18896667Y-9148262D02*
X18887143Y-9148262D01*
X18887143Y-9148262D02*
X18872857Y-9143500D01*
X18872857Y-9143500D02*
X18863333Y-9133976D01*
X18863333Y-9133976D02*
X18858571Y-9124452D01*
X18858571Y-9124452D02*
X18853810Y-9105405D01*
X18853810Y-9105405D02*
X18853810Y-9091119D01*
X18853810Y-9091119D02*
X18858571Y-9072071D01*
X18858571Y-9072071D02*
X18863333Y-9062548D01*
X18863333Y-9062548D02*
X18872857Y-9053024D01*
X18872857Y-9053024D02*
X18887143Y-9048262D01*
X18887143Y-9048262D02*
X18896667Y-9048262D01*
X18896667Y-9048262D02*
X18910952Y-9053024D01*
X18910952Y-9053024D02*
X18915714Y-9057786D01*
X19010952Y-9148262D02*
X18953810Y-9148262D01*
X18982381Y-9148262D02*
X18982381Y-9048262D01*
X18982381Y-9048262D02*
X18972857Y-9062548D01*
X18972857Y-9062548D02*
X18963333Y-9072071D01*
X18963333Y-9072071D02*
X18953810Y-9076833D01*
X19044286Y-9048262D02*
X19110952Y-9048262D01*
X19110952Y-9048262D02*
X19068095Y-9148262D01*
%TO.C,C13*%
X16690714Y-9983738D02*
X16685952Y-9988500D01*
X16685952Y-9988500D02*
X16671667Y-9993262D01*
X16671667Y-9993262D02*
X16662143Y-9993262D01*
X16662143Y-9993262D02*
X16647857Y-9988500D01*
X16647857Y-9988500D02*
X16638333Y-9978976D01*
X16638333Y-9978976D02*
X16633571Y-9969452D01*
X16633571Y-9969452D02*
X16628809Y-9950405D01*
X16628809Y-9950405D02*
X16628809Y-9936119D01*
X16628809Y-9936119D02*
X16633571Y-9917071D01*
X16633571Y-9917071D02*
X16638333Y-9907548D01*
X16638333Y-9907548D02*
X16647857Y-9898024D01*
X16647857Y-9898024D02*
X16662143Y-9893262D01*
X16662143Y-9893262D02*
X16671667Y-9893262D01*
X16671667Y-9893262D02*
X16685952Y-9898024D01*
X16685952Y-9898024D02*
X16690714Y-9902786D01*
X16785952Y-9993262D02*
X16728809Y-9993262D01*
X16757381Y-9993262D02*
X16757381Y-9893262D01*
X16757381Y-9893262D02*
X16747857Y-9907548D01*
X16747857Y-9907548D02*
X16738333Y-9917071D01*
X16738333Y-9917071D02*
X16728809Y-9921833D01*
X16819286Y-9893262D02*
X16881190Y-9893262D01*
X16881190Y-9893262D02*
X16847857Y-9931357D01*
X16847857Y-9931357D02*
X16862143Y-9931357D01*
X16862143Y-9931357D02*
X16871667Y-9936119D01*
X16871667Y-9936119D02*
X16876429Y-9940881D01*
X16876429Y-9940881D02*
X16881190Y-9950405D01*
X16881190Y-9950405D02*
X16881190Y-9974214D01*
X16881190Y-9974214D02*
X16876429Y-9983738D01*
X16876429Y-9983738D02*
X16871667Y-9988500D01*
X16871667Y-9988500D02*
X16862143Y-9993262D01*
X16862143Y-9993262D02*
X16833571Y-9993262D01*
X16833571Y-9993262D02*
X16824048Y-9988500D01*
X16824048Y-9988500D02*
X16819286Y-9983738D01*
%TO.C,U2*%
X18441810Y-8067262D02*
X18441810Y-8148214D01*
X18441810Y-8148214D02*
X18446571Y-8157738D01*
X18446571Y-8157738D02*
X18451333Y-8162500D01*
X18451333Y-8162500D02*
X18460857Y-8167262D01*
X18460857Y-8167262D02*
X18479905Y-8167262D01*
X18479905Y-8167262D02*
X18489429Y-8162500D01*
X18489429Y-8162500D02*
X18494190Y-8157738D01*
X18494190Y-8157738D02*
X18498952Y-8148214D01*
X18498952Y-8148214D02*
X18498952Y-8067262D01*
X18541810Y-8076786D02*
X18546571Y-8072024D01*
X18546571Y-8072024D02*
X18556095Y-8067262D01*
X18556095Y-8067262D02*
X18579905Y-8067262D01*
X18579905Y-8067262D02*
X18589429Y-8072024D01*
X18589429Y-8072024D02*
X18594190Y-8076786D01*
X18594190Y-8076786D02*
X18598952Y-8086309D01*
X18598952Y-8086309D02*
X18598952Y-8095833D01*
X18598952Y-8095833D02*
X18594190Y-8110119D01*
X18594190Y-8110119D02*
X18537048Y-8167262D01*
X18537048Y-8167262D02*
X18598952Y-8167262D01*
X18181238Y-8290500D02*
X18195524Y-8295262D01*
X18195524Y-8295262D02*
X18219333Y-8295262D01*
X18219333Y-8295262D02*
X18228857Y-8290500D01*
X18228857Y-8290500D02*
X18233619Y-8285738D01*
X18233619Y-8285738D02*
X18238381Y-8276214D01*
X18238381Y-8276214D02*
X18238381Y-8266690D01*
X18238381Y-8266690D02*
X18233619Y-8257167D01*
X18233619Y-8257167D02*
X18228857Y-8252405D01*
X18228857Y-8252405D02*
X18219333Y-8247643D01*
X18219333Y-8247643D02*
X18200286Y-8242881D01*
X18200286Y-8242881D02*
X18190762Y-8238119D01*
X18190762Y-8238119D02*
X18186000Y-8233357D01*
X18186000Y-8233357D02*
X18181238Y-8223833D01*
X18181238Y-8223833D02*
X18181238Y-8214309D01*
X18181238Y-8214309D02*
X18186000Y-8204786D01*
X18186000Y-8204786D02*
X18190762Y-8200024D01*
X18190762Y-8200024D02*
X18200286Y-8195262D01*
X18200286Y-8195262D02*
X18224095Y-8195262D01*
X18224095Y-8195262D02*
X18238381Y-8200024D01*
X18281238Y-8295262D02*
X18281238Y-8195262D01*
X18281238Y-8195262D02*
X18338381Y-8295262D01*
X18338381Y-8295262D02*
X18338381Y-8195262D01*
X18376476Y-8195262D02*
X18443143Y-8195262D01*
X18443143Y-8195262D02*
X18400286Y-8295262D01*
X18524095Y-8228595D02*
X18524095Y-8295262D01*
X18500286Y-8190500D02*
X18476476Y-8261928D01*
X18476476Y-8261928D02*
X18538381Y-8261928D01*
X18633619Y-8285738D02*
X18628857Y-8290500D01*
X18628857Y-8290500D02*
X18614571Y-8295262D01*
X18614571Y-8295262D02*
X18605048Y-8295262D01*
X18605048Y-8295262D02*
X18590762Y-8290500D01*
X18590762Y-8290500D02*
X18581238Y-8280976D01*
X18581238Y-8280976D02*
X18576476Y-8271452D01*
X18576476Y-8271452D02*
X18571714Y-8252405D01*
X18571714Y-8252405D02*
X18571714Y-8238119D01*
X18571714Y-8238119D02*
X18576476Y-8219071D01*
X18576476Y-8219071D02*
X18581238Y-8209548D01*
X18581238Y-8209548D02*
X18590762Y-8200024D01*
X18590762Y-8200024D02*
X18605048Y-8195262D01*
X18605048Y-8195262D02*
X18614571Y-8195262D01*
X18614571Y-8195262D02*
X18628857Y-8200024D01*
X18628857Y-8200024D02*
X18633619Y-8204786D01*
X18709810Y-8242881D02*
X18724095Y-8247643D01*
X18724095Y-8247643D02*
X18728857Y-8252405D01*
X18728857Y-8252405D02*
X18733619Y-8261928D01*
X18733619Y-8261928D02*
X18733619Y-8276214D01*
X18733619Y-8276214D02*
X18728857Y-8285738D01*
X18728857Y-8285738D02*
X18724095Y-8290500D01*
X18724095Y-8290500D02*
X18714571Y-8295262D01*
X18714571Y-8295262D02*
X18676476Y-8295262D01*
X18676476Y-8295262D02*
X18676476Y-8195262D01*
X18676476Y-8195262D02*
X18709810Y-8195262D01*
X18709810Y-8195262D02*
X18719333Y-8200024D01*
X18719333Y-8200024D02*
X18724095Y-8204786D01*
X18724095Y-8204786D02*
X18728857Y-8214309D01*
X18728857Y-8214309D02*
X18728857Y-8223833D01*
X18728857Y-8223833D02*
X18724095Y-8233357D01*
X18724095Y-8233357D02*
X18719333Y-8238119D01*
X18719333Y-8238119D02*
X18709810Y-8242881D01*
X18709810Y-8242881D02*
X18676476Y-8242881D01*
X18762191Y-8195262D02*
X18819333Y-8195262D01*
X18790762Y-8295262D02*
X18790762Y-8195262D01*
X18843143Y-8195262D02*
X18905048Y-8195262D01*
X18905048Y-8195262D02*
X18871714Y-8233357D01*
X18871714Y-8233357D02*
X18886000Y-8233357D01*
X18886000Y-8233357D02*
X18895524Y-8238119D01*
X18895524Y-8238119D02*
X18900286Y-8242881D01*
X18900286Y-8242881D02*
X18905048Y-8252405D01*
X18905048Y-8252405D02*
X18905048Y-8276214D01*
X18905048Y-8276214D02*
X18900286Y-8285738D01*
X18900286Y-8285738D02*
X18895524Y-8290500D01*
X18895524Y-8290500D02*
X18886000Y-8295262D01*
X18886000Y-8295262D02*
X18857429Y-8295262D01*
X18857429Y-8295262D02*
X18847905Y-8290500D01*
X18847905Y-8290500D02*
X18843143Y-8285738D01*
X18943143Y-8204786D02*
X18947905Y-8200024D01*
X18947905Y-8200024D02*
X18957429Y-8195262D01*
X18957429Y-8195262D02*
X18981238Y-8195262D01*
X18981238Y-8195262D02*
X18990762Y-8200024D01*
X18990762Y-8200024D02*
X18995524Y-8204786D01*
X18995524Y-8204786D02*
X19000286Y-8214309D01*
X19000286Y-8214309D02*
X19000286Y-8223833D01*
X19000286Y-8223833D02*
X18995524Y-8238119D01*
X18995524Y-8238119D02*
X18938381Y-8295262D01*
X18938381Y-8295262D02*
X19000286Y-8295262D01*
X19090762Y-8195262D02*
X19043143Y-8195262D01*
X19043143Y-8195262D02*
X19038381Y-8242881D01*
X19038381Y-8242881D02*
X19043143Y-8238119D01*
X19043143Y-8238119D02*
X19052667Y-8233357D01*
X19052667Y-8233357D02*
X19076476Y-8233357D01*
X19076476Y-8233357D02*
X19086000Y-8238119D01*
X19086000Y-8238119D02*
X19090762Y-8242881D01*
X19090762Y-8242881D02*
X19095524Y-8252405D01*
X19095524Y-8252405D02*
X19095524Y-8276214D01*
X19095524Y-8276214D02*
X19090762Y-8285738D01*
X19090762Y-8285738D02*
X19086000Y-8290500D01*
X19086000Y-8290500D02*
X19076476Y-8295262D01*
X19076476Y-8295262D02*
X19052667Y-8295262D01*
X19052667Y-8295262D02*
X19043143Y-8290500D01*
X19043143Y-8290500D02*
X19038381Y-8285738D01*
X19128857Y-8195262D02*
X19190762Y-8195262D01*
X19190762Y-8195262D02*
X19157429Y-8233357D01*
X19157429Y-8233357D02*
X19171714Y-8233357D01*
X19171714Y-8233357D02*
X19181238Y-8238119D01*
X19181238Y-8238119D02*
X19186000Y-8242881D01*
X19186000Y-8242881D02*
X19190762Y-8252405D01*
X19190762Y-8252405D02*
X19190762Y-8276214D01*
X19190762Y-8276214D02*
X19186000Y-8285738D01*
X19186000Y-8285738D02*
X19181238Y-8290500D01*
X19181238Y-8290500D02*
X19171714Y-8295262D01*
X19171714Y-8295262D02*
X19143143Y-8295262D01*
X19143143Y-8295262D02*
X19133619Y-8290500D01*
X19133619Y-8290500D02*
X19128857Y-8285738D01*
%TO.C,C14*%
X16686714Y-10366738D02*
X16681952Y-10371500D01*
X16681952Y-10371500D02*
X16667667Y-10376262D01*
X16667667Y-10376262D02*
X16658143Y-10376262D01*
X16658143Y-10376262D02*
X16643857Y-10371500D01*
X16643857Y-10371500D02*
X16634333Y-10361976D01*
X16634333Y-10361976D02*
X16629571Y-10352452D01*
X16629571Y-10352452D02*
X16624809Y-10333405D01*
X16624809Y-10333405D02*
X16624809Y-10319119D01*
X16624809Y-10319119D02*
X16629571Y-10300071D01*
X16629571Y-10300071D02*
X16634333Y-10290548D01*
X16634333Y-10290548D02*
X16643857Y-10281024D01*
X16643857Y-10281024D02*
X16658143Y-10276262D01*
X16658143Y-10276262D02*
X16667667Y-10276262D01*
X16667667Y-10276262D02*
X16681952Y-10281024D01*
X16681952Y-10281024D02*
X16686714Y-10285786D01*
X16781952Y-10376262D02*
X16724809Y-10376262D01*
X16753381Y-10376262D02*
X16753381Y-10276262D01*
X16753381Y-10276262D02*
X16743857Y-10290548D01*
X16743857Y-10290548D02*
X16734333Y-10300071D01*
X16734333Y-10300071D02*
X16724809Y-10304833D01*
X16867667Y-10309595D02*
X16867667Y-10376262D01*
X16843857Y-10271500D02*
X16820048Y-10342929D01*
X16820048Y-10342929D02*
X16881952Y-10342929D01*
%TO.C,T2*%
X19082262Y-7593190D02*
X19082262Y-7536048D01*
X19182262Y-7564619D02*
X19082262Y-7564619D01*
X19091786Y-7507476D02*
X19087024Y-7502714D01*
X19087024Y-7502714D02*
X19082262Y-7493190D01*
X19082262Y-7493190D02*
X19082262Y-7469381D01*
X19082262Y-7469381D02*
X19087024Y-7459857D01*
X19087024Y-7459857D02*
X19091786Y-7455095D01*
X19091786Y-7455095D02*
X19101310Y-7450333D01*
X19101310Y-7450333D02*
X19110833Y-7450333D01*
X19110833Y-7450333D02*
X19125119Y-7455095D01*
X19125119Y-7455095D02*
X19182262Y-7512238D01*
X19182262Y-7512238D02*
X19182262Y-7450333D01*
%TO.C,C2*%
X14419333Y-6620738D02*
X14414571Y-6625500D01*
X14414571Y-6625500D02*
X14400286Y-6630262D01*
X14400286Y-6630262D02*
X14390762Y-6630262D01*
X14390762Y-6630262D02*
X14376476Y-6625500D01*
X14376476Y-6625500D02*
X14366952Y-6615976D01*
X14366952Y-6615976D02*
X14362190Y-6606452D01*
X14362190Y-6606452D02*
X14357429Y-6587405D01*
X14357429Y-6587405D02*
X14357429Y-6573119D01*
X14357429Y-6573119D02*
X14362190Y-6554071D01*
X14362190Y-6554071D02*
X14366952Y-6544548D01*
X14366952Y-6544548D02*
X14376476Y-6535024D01*
X14376476Y-6535024D02*
X14390762Y-6530262D01*
X14390762Y-6530262D02*
X14400286Y-6530262D01*
X14400286Y-6530262D02*
X14414571Y-6535024D01*
X14414571Y-6535024D02*
X14419333Y-6539786D01*
X14457429Y-6539786D02*
X14462190Y-6535024D01*
X14462190Y-6535024D02*
X14471714Y-6530262D01*
X14471714Y-6530262D02*
X14495524Y-6530262D01*
X14495524Y-6530262D02*
X14505048Y-6535024D01*
X14505048Y-6535024D02*
X14509809Y-6539786D01*
X14509809Y-6539786D02*
X14514571Y-6549309D01*
X14514571Y-6549309D02*
X14514571Y-6558833D01*
X14514571Y-6558833D02*
X14509809Y-6573119D01*
X14509809Y-6573119D02*
X14452667Y-6630262D01*
X14452667Y-6630262D02*
X14514571Y-6630262D01*
%TO.C,R5*%
X13778083Y-6500012D02*
X13744750Y-6452393D01*
X13720940Y-6500012D02*
X13720940Y-6400012D01*
X13720940Y-6400012D02*
X13759036Y-6400012D01*
X13759036Y-6400012D02*
X13768559Y-6404774D01*
X13768559Y-6404774D02*
X13773321Y-6409536D01*
X13773321Y-6409536D02*
X13778083Y-6419059D01*
X13778083Y-6419059D02*
X13778083Y-6433345D01*
X13778083Y-6433345D02*
X13773321Y-6442869D01*
X13773321Y-6442869D02*
X13768559Y-6447631D01*
X13768559Y-6447631D02*
X13759036Y-6452393D01*
X13759036Y-6452393D02*
X13720940Y-6452393D01*
X13868559Y-6400012D02*
X13820940Y-6400012D01*
X13820940Y-6400012D02*
X13816179Y-6447631D01*
X13816179Y-6447631D02*
X13820940Y-6442869D01*
X13820940Y-6442869D02*
X13830464Y-6438107D01*
X13830464Y-6438107D02*
X13854274Y-6438107D01*
X13854274Y-6438107D02*
X13863798Y-6442869D01*
X13863798Y-6442869D02*
X13868559Y-6447631D01*
X13868559Y-6447631D02*
X13873321Y-6457155D01*
X13873321Y-6457155D02*
X13873321Y-6480964D01*
X13873321Y-6480964D02*
X13868559Y-6490488D01*
X13868559Y-6490488D02*
X13863798Y-6495250D01*
X13863798Y-6495250D02*
X13854274Y-6500012D01*
X13854274Y-6500012D02*
X13830464Y-6500012D01*
X13830464Y-6500012D02*
X13820940Y-6495250D01*
X13820940Y-6495250D02*
X13816179Y-6490488D01*
%TO.C,J4*%
X19711667Y-8153262D02*
X19711667Y-8224690D01*
X19711667Y-8224690D02*
X19706905Y-8238976D01*
X19706905Y-8238976D02*
X19697381Y-8248500D01*
X19697381Y-8248500D02*
X19683095Y-8253262D01*
X19683095Y-8253262D02*
X19673571Y-8253262D01*
X19802143Y-8186595D02*
X19802143Y-8253262D01*
X19778333Y-8148500D02*
X19754524Y-8219928D01*
X19754524Y-8219928D02*
X19816429Y-8219928D01*
%TO.C,L1*%
X15157333Y-7002262D02*
X15109714Y-7002262D01*
X15109714Y-7002262D02*
X15109714Y-6902262D01*
X15243048Y-7002262D02*
X15185905Y-7002262D01*
X15214476Y-7002262D02*
X15214476Y-6902262D01*
X15214476Y-6902262D02*
X15204952Y-6916548D01*
X15204952Y-6916548D02*
X15195429Y-6926071D01*
X15195429Y-6926071D02*
X15185905Y-6930833D01*
X15005047Y-7187748D02*
X14957428Y-7187748D01*
X14957428Y-7187748D02*
X14952666Y-7235367D01*
X14952666Y-7235367D02*
X14957428Y-7230605D01*
X14957428Y-7230605D02*
X14966951Y-7225843D01*
X14966951Y-7225843D02*
X14990761Y-7225843D01*
X14990761Y-7225843D02*
X15000285Y-7230605D01*
X15000285Y-7230605D02*
X15005047Y-7235367D01*
X15005047Y-7235367D02*
X15009808Y-7244891D01*
X15009808Y-7244891D02*
X15009808Y-7268700D01*
X15009808Y-7268700D02*
X15005047Y-7278224D01*
X15005047Y-7278224D02*
X15000285Y-7282986D01*
X15000285Y-7282986D02*
X14990761Y-7287748D01*
X14990761Y-7287748D02*
X14966951Y-7287748D01*
X14966951Y-7287748D02*
X14957428Y-7282986D01*
X14957428Y-7282986D02*
X14952666Y-7278224D01*
X15052666Y-7278224D02*
X15057428Y-7282986D01*
X15057428Y-7282986D02*
X15052666Y-7287748D01*
X15052666Y-7287748D02*
X15047904Y-7282986D01*
X15047904Y-7282986D02*
X15052666Y-7278224D01*
X15052666Y-7278224D02*
X15052666Y-7287748D01*
X15147904Y-7187748D02*
X15100285Y-7187748D01*
X15100285Y-7187748D02*
X15095523Y-7235367D01*
X15095523Y-7235367D02*
X15100285Y-7230605D01*
X15100285Y-7230605D02*
X15109808Y-7225843D01*
X15109808Y-7225843D02*
X15133618Y-7225843D01*
X15133618Y-7225843D02*
X15143142Y-7230605D01*
X15143142Y-7230605D02*
X15147904Y-7235367D01*
X15147904Y-7235367D02*
X15152666Y-7244891D01*
X15152666Y-7244891D02*
X15152666Y-7268700D01*
X15152666Y-7268700D02*
X15147904Y-7278224D01*
X15147904Y-7278224D02*
X15143142Y-7282986D01*
X15143142Y-7282986D02*
X15133618Y-7287748D01*
X15133618Y-7287748D02*
X15109808Y-7287748D01*
X15109808Y-7287748D02*
X15100285Y-7282986D01*
X15100285Y-7282986D02*
X15095523Y-7278224D01*
X15238380Y-7221081D02*
X15238380Y-7287748D01*
X15195523Y-7221081D02*
X15195523Y-7273462D01*
X15195523Y-7273462D02*
X15200285Y-7282986D01*
X15200285Y-7282986D02*
X15209808Y-7287748D01*
X15209808Y-7287748D02*
X15224094Y-7287748D01*
X15224094Y-7287748D02*
X15233618Y-7282986D01*
X15233618Y-7282986D02*
X15238380Y-7278224D01*
X15285999Y-7287748D02*
X15285999Y-7187748D01*
X15285999Y-7235367D02*
X15343142Y-7235367D01*
X15343142Y-7287748D02*
X15343142Y-7187748D01*
%TO.C,L2*%
X16456833Y-7412262D02*
X16409214Y-7412262D01*
X16409214Y-7412262D02*
X16409214Y-7312262D01*
X16485405Y-7321786D02*
X16490167Y-7317024D01*
X16490167Y-7317024D02*
X16499690Y-7312262D01*
X16499690Y-7312262D02*
X16523500Y-7312262D01*
X16523500Y-7312262D02*
X16533024Y-7317024D01*
X16533024Y-7317024D02*
X16537786Y-7321786D01*
X16537786Y-7321786D02*
X16542548Y-7331309D01*
X16542548Y-7331309D02*
X16542548Y-7340833D01*
X16542548Y-7340833D02*
X16537786Y-7355119D01*
X16537786Y-7355119D02*
X16480643Y-7412262D01*
X16480643Y-7412262D02*
X16542548Y-7412262D01*
X16299570Y-7036297D02*
X16304332Y-7031536D01*
X16304332Y-7031536D02*
X16313856Y-7026774D01*
X16313856Y-7026774D02*
X16337665Y-7026774D01*
X16337665Y-7026774D02*
X16347189Y-7031536D01*
X16347189Y-7031536D02*
X16351951Y-7036297D01*
X16351951Y-7036297D02*
X16356713Y-7045821D01*
X16356713Y-7045821D02*
X16356713Y-7055345D01*
X16356713Y-7055345D02*
X16351951Y-7069631D01*
X16351951Y-7069631D02*
X16294808Y-7126774D01*
X16294808Y-7126774D02*
X16356713Y-7126774D01*
X16399570Y-7117250D02*
X16404332Y-7122012D01*
X16404332Y-7122012D02*
X16399570Y-7126774D01*
X16399570Y-7126774D02*
X16394808Y-7122012D01*
X16394808Y-7122012D02*
X16399570Y-7117250D01*
X16399570Y-7117250D02*
X16399570Y-7126774D01*
X16490046Y-7026774D02*
X16470998Y-7026774D01*
X16470998Y-7026774D02*
X16461475Y-7031536D01*
X16461475Y-7031536D02*
X16456713Y-7036297D01*
X16456713Y-7036297D02*
X16447189Y-7050583D01*
X16447189Y-7050583D02*
X16442427Y-7069631D01*
X16442427Y-7069631D02*
X16442427Y-7107726D01*
X16442427Y-7107726D02*
X16447189Y-7117250D01*
X16447189Y-7117250D02*
X16451951Y-7122012D01*
X16451951Y-7122012D02*
X16461475Y-7126774D01*
X16461475Y-7126774D02*
X16480522Y-7126774D01*
X16480522Y-7126774D02*
X16490046Y-7122012D01*
X16490046Y-7122012D02*
X16494808Y-7117250D01*
X16494808Y-7117250D02*
X16499570Y-7107726D01*
X16499570Y-7107726D02*
X16499570Y-7083916D01*
X16499570Y-7083916D02*
X16494808Y-7074393D01*
X16494808Y-7074393D02*
X16490046Y-7069631D01*
X16490046Y-7069631D02*
X16480522Y-7064869D01*
X16480522Y-7064869D02*
X16461475Y-7064869D01*
X16461475Y-7064869D02*
X16451951Y-7069631D01*
X16451951Y-7069631D02*
X16447189Y-7074393D01*
X16447189Y-7074393D02*
X16442427Y-7083916D01*
X16585284Y-7060107D02*
X16585284Y-7126774D01*
X16542427Y-7060107D02*
X16542427Y-7112488D01*
X16542427Y-7112488D02*
X16547189Y-7122012D01*
X16547189Y-7122012D02*
X16556713Y-7126774D01*
X16556713Y-7126774D02*
X16570998Y-7126774D01*
X16570998Y-7126774D02*
X16580522Y-7122012D01*
X16580522Y-7122012D02*
X16585284Y-7117250D01*
X16632903Y-7126774D02*
X16632903Y-7026774D01*
X16632903Y-7074393D02*
X16690046Y-7074393D01*
X16690046Y-7126774D02*
X16690046Y-7026774D01*
%TO.C,C4*%
X16427333Y-6809738D02*
X16422571Y-6814500D01*
X16422571Y-6814500D02*
X16408286Y-6819262D01*
X16408286Y-6819262D02*
X16398762Y-6819262D01*
X16398762Y-6819262D02*
X16384476Y-6814500D01*
X16384476Y-6814500D02*
X16374952Y-6804976D01*
X16374952Y-6804976D02*
X16370190Y-6795452D01*
X16370190Y-6795452D02*
X16365429Y-6776405D01*
X16365429Y-6776405D02*
X16365429Y-6762119D01*
X16365429Y-6762119D02*
X16370190Y-6743071D01*
X16370190Y-6743071D02*
X16374952Y-6733548D01*
X16374952Y-6733548D02*
X16384476Y-6724024D01*
X16384476Y-6724024D02*
X16398762Y-6719262D01*
X16398762Y-6719262D02*
X16408286Y-6719262D01*
X16408286Y-6719262D02*
X16422571Y-6724024D01*
X16422571Y-6724024D02*
X16427333Y-6728786D01*
X16513048Y-6752595D02*
X16513048Y-6819262D01*
X16489238Y-6714500D02*
X16465429Y-6785928D01*
X16465429Y-6785928D02*
X16527333Y-6785928D01*
%TO.C,J3*%
X13884417Y-10373012D02*
X13884417Y-10444440D01*
X13884417Y-10444440D02*
X13879655Y-10458726D01*
X13879655Y-10458726D02*
X13870131Y-10468250D01*
X13870131Y-10468250D02*
X13855845Y-10473012D01*
X13855845Y-10473012D02*
X13846321Y-10473012D01*
X13922512Y-10373012D02*
X13984417Y-10373012D01*
X13984417Y-10373012D02*
X13951083Y-10411107D01*
X13951083Y-10411107D02*
X13965369Y-10411107D01*
X13965369Y-10411107D02*
X13974893Y-10415869D01*
X13974893Y-10415869D02*
X13979655Y-10420631D01*
X13979655Y-10420631D02*
X13984417Y-10430155D01*
X13984417Y-10430155D02*
X13984417Y-10453964D01*
X13984417Y-10453964D02*
X13979655Y-10463488D01*
X13979655Y-10463488D02*
X13974893Y-10468250D01*
X13974893Y-10468250D02*
X13965369Y-10473012D01*
X13965369Y-10473012D02*
X13936798Y-10473012D01*
X13936798Y-10473012D02*
X13927274Y-10468250D01*
X13927274Y-10468250D02*
X13922512Y-10463488D01*
%TO.C,C5*%
X13062333Y-8202738D02*
X13057571Y-8207500D01*
X13057571Y-8207500D02*
X13043286Y-8212262D01*
X13043286Y-8212262D02*
X13033762Y-8212262D01*
X13033762Y-8212262D02*
X13019476Y-8207500D01*
X13019476Y-8207500D02*
X13009952Y-8197976D01*
X13009952Y-8197976D02*
X13005190Y-8188452D01*
X13005190Y-8188452D02*
X13000429Y-8169405D01*
X13000429Y-8169405D02*
X13000429Y-8155119D01*
X13000429Y-8155119D02*
X13005190Y-8136071D01*
X13005190Y-8136071D02*
X13009952Y-8126548D01*
X13009952Y-8126548D02*
X13019476Y-8117024D01*
X13019476Y-8117024D02*
X13033762Y-8112262D01*
X13033762Y-8112262D02*
X13043286Y-8112262D01*
X13043286Y-8112262D02*
X13057571Y-8117024D01*
X13057571Y-8117024D02*
X13062333Y-8121786D01*
X13152809Y-8112262D02*
X13105190Y-8112262D01*
X13105190Y-8112262D02*
X13100429Y-8159881D01*
X13100429Y-8159881D02*
X13105190Y-8155119D01*
X13105190Y-8155119D02*
X13114714Y-8150357D01*
X13114714Y-8150357D02*
X13138524Y-8150357D01*
X13138524Y-8150357D02*
X13148048Y-8155119D01*
X13148048Y-8155119D02*
X13152809Y-8159881D01*
X13152809Y-8159881D02*
X13157571Y-8169405D01*
X13157571Y-8169405D02*
X13157571Y-8193214D01*
X13157571Y-8193214D02*
X13152809Y-8202738D01*
X13152809Y-8202738D02*
X13148048Y-8207500D01*
X13148048Y-8207500D02*
X13138524Y-8212262D01*
X13138524Y-8212262D02*
X13114714Y-8212262D01*
X13114714Y-8212262D02*
X13105190Y-8207500D01*
X13105190Y-8207500D02*
X13100429Y-8202738D01*
%TO.C,C11*%
X16473714Y-9457738D02*
X16468952Y-9462500D01*
X16468952Y-9462500D02*
X16454667Y-9467262D01*
X16454667Y-9467262D02*
X16445143Y-9467262D01*
X16445143Y-9467262D02*
X16430857Y-9462500D01*
X16430857Y-9462500D02*
X16421333Y-9452976D01*
X16421333Y-9452976D02*
X16416571Y-9443452D01*
X16416571Y-9443452D02*
X16411809Y-9424405D01*
X16411809Y-9424405D02*
X16411809Y-9410119D01*
X16411809Y-9410119D02*
X16416571Y-9391071D01*
X16416571Y-9391071D02*
X16421333Y-9381548D01*
X16421333Y-9381548D02*
X16430857Y-9372024D01*
X16430857Y-9372024D02*
X16445143Y-9367262D01*
X16445143Y-9367262D02*
X16454667Y-9367262D01*
X16454667Y-9367262D02*
X16468952Y-9372024D01*
X16468952Y-9372024D02*
X16473714Y-9376786D01*
X16568952Y-9467262D02*
X16511809Y-9467262D01*
X16540381Y-9467262D02*
X16540381Y-9367262D01*
X16540381Y-9367262D02*
X16530857Y-9381548D01*
X16530857Y-9381548D02*
X16521333Y-9391071D01*
X16521333Y-9391071D02*
X16511809Y-9395833D01*
X16664190Y-9467262D02*
X16607048Y-9467262D01*
X16635619Y-9467262D02*
X16635619Y-9367262D01*
X16635619Y-9367262D02*
X16626095Y-9381548D01*
X16626095Y-9381548D02*
X16616571Y-9391071D01*
X16616571Y-9391071D02*
X16607048Y-9395833D01*
%TO.C,T1*%
X12318809Y-7335262D02*
X12375952Y-7335262D01*
X12347381Y-7435262D02*
X12347381Y-7335262D01*
X12461667Y-7435262D02*
X12404524Y-7435262D01*
X12433095Y-7435262D02*
X12433095Y-7335262D01*
X12433095Y-7335262D02*
X12423571Y-7349548D01*
X12423571Y-7349548D02*
X12414048Y-7359071D01*
X12414048Y-7359071D02*
X12404524Y-7363833D01*
%TO.C,L4*%
X15178333Y-7818262D02*
X15130714Y-7818262D01*
X15130714Y-7818262D02*
X15130714Y-7718262D01*
X15254524Y-7751595D02*
X15254524Y-7818262D01*
X15230714Y-7713500D02*
X15206905Y-7784928D01*
X15206905Y-7784928D02*
X15268809Y-7784928D01*
X15092498Y-7442297D02*
X15097260Y-7437536D01*
X15097260Y-7437536D02*
X15106784Y-7432774D01*
X15106784Y-7432774D02*
X15130594Y-7432774D01*
X15130594Y-7432774D02*
X15140117Y-7437536D01*
X15140117Y-7437536D02*
X15144879Y-7442297D01*
X15144879Y-7442297D02*
X15149641Y-7451821D01*
X15149641Y-7451821D02*
X15149641Y-7461345D01*
X15149641Y-7461345D02*
X15144879Y-7475631D01*
X15144879Y-7475631D02*
X15087736Y-7532774D01*
X15087736Y-7532774D02*
X15149641Y-7532774D01*
X15235355Y-7466107D02*
X15235355Y-7532774D01*
X15192498Y-7466107D02*
X15192498Y-7518488D01*
X15192498Y-7518488D02*
X15197260Y-7528012D01*
X15197260Y-7528012D02*
X15206784Y-7532774D01*
X15206784Y-7532774D02*
X15221070Y-7532774D01*
X15221070Y-7532774D02*
X15230594Y-7528012D01*
X15230594Y-7528012D02*
X15235355Y-7523250D01*
X15282975Y-7532774D02*
X15282975Y-7432774D01*
X15282975Y-7480393D02*
X15340117Y-7480393D01*
X15340117Y-7532774D02*
X15340117Y-7432774D01*
%TO.C,C1*%
X13271738Y-7122667D02*
X13276500Y-7127428D01*
X13276500Y-7127428D02*
X13281262Y-7141714D01*
X13281262Y-7141714D02*
X13281262Y-7151238D01*
X13281262Y-7151238D02*
X13276500Y-7165524D01*
X13276500Y-7165524D02*
X13266976Y-7175047D01*
X13266976Y-7175047D02*
X13257452Y-7179809D01*
X13257452Y-7179809D02*
X13238405Y-7184571D01*
X13238405Y-7184571D02*
X13224119Y-7184571D01*
X13224119Y-7184571D02*
X13205071Y-7179809D01*
X13205071Y-7179809D02*
X13195548Y-7175047D01*
X13195548Y-7175047D02*
X13186024Y-7165524D01*
X13186024Y-7165524D02*
X13181262Y-7151238D01*
X13181262Y-7151238D02*
X13181262Y-7141714D01*
X13181262Y-7141714D02*
X13186024Y-7127428D01*
X13186024Y-7127428D02*
X13190786Y-7122667D01*
X13281262Y-7027428D02*
X13281262Y-7084571D01*
X13281262Y-7056000D02*
X13181262Y-7056000D01*
X13181262Y-7056000D02*
X13195548Y-7065524D01*
X13195548Y-7065524D02*
X13205071Y-7075047D01*
X13205071Y-7075047D02*
X13209833Y-7084571D01*
%TO.C,C8*%
X16427333Y-8291738D02*
X16422571Y-8296500D01*
X16422571Y-8296500D02*
X16408286Y-8301262D01*
X16408286Y-8301262D02*
X16398762Y-8301262D01*
X16398762Y-8301262D02*
X16384476Y-8296500D01*
X16384476Y-8296500D02*
X16374952Y-8286976D01*
X16374952Y-8286976D02*
X16370190Y-8277452D01*
X16370190Y-8277452D02*
X16365429Y-8258405D01*
X16365429Y-8258405D02*
X16365429Y-8244119D01*
X16365429Y-8244119D02*
X16370190Y-8225071D01*
X16370190Y-8225071D02*
X16374952Y-8215548D01*
X16374952Y-8215548D02*
X16384476Y-8206024D01*
X16384476Y-8206024D02*
X16398762Y-8201262D01*
X16398762Y-8201262D02*
X16408286Y-8201262D01*
X16408286Y-8201262D02*
X16422571Y-8206024D01*
X16422571Y-8206024D02*
X16427333Y-8210786D01*
X16484476Y-8244119D02*
X16474952Y-8239357D01*
X16474952Y-8239357D02*
X16470190Y-8234595D01*
X16470190Y-8234595D02*
X16465429Y-8225071D01*
X16465429Y-8225071D02*
X16465429Y-8220309D01*
X16465429Y-8220309D02*
X16470190Y-8210786D01*
X16470190Y-8210786D02*
X16474952Y-8206024D01*
X16474952Y-8206024D02*
X16484476Y-8201262D01*
X16484476Y-8201262D02*
X16503524Y-8201262D01*
X16503524Y-8201262D02*
X16513048Y-8206024D01*
X16513048Y-8206024D02*
X16517809Y-8210786D01*
X16517809Y-8210786D02*
X16522571Y-8220309D01*
X16522571Y-8220309D02*
X16522571Y-8225071D01*
X16522571Y-8225071D02*
X16517809Y-8234595D01*
X16517809Y-8234595D02*
X16513048Y-8239357D01*
X16513048Y-8239357D02*
X16503524Y-8244119D01*
X16503524Y-8244119D02*
X16484476Y-8244119D01*
X16484476Y-8244119D02*
X16474952Y-8248881D01*
X16474952Y-8248881D02*
X16470190Y-8253643D01*
X16470190Y-8253643D02*
X16465429Y-8263167D01*
X16465429Y-8263167D02*
X16465429Y-8282214D01*
X16465429Y-8282214D02*
X16470190Y-8291738D01*
X16470190Y-8291738D02*
X16474952Y-8296500D01*
X16474952Y-8296500D02*
X16484476Y-8301262D01*
X16484476Y-8301262D02*
X16503524Y-8301262D01*
X16503524Y-8301262D02*
X16513048Y-8296500D01*
X16513048Y-8296500D02*
X16517809Y-8291738D01*
X16517809Y-8291738D02*
X16522571Y-8282214D01*
X16522571Y-8282214D02*
X16522571Y-8263167D01*
X16522571Y-8263167D02*
X16517809Y-8253643D01*
X16517809Y-8253643D02*
X16513048Y-8248881D01*
X16513048Y-8248881D02*
X16503524Y-8244119D01*
%TO.C,C10*%
X15867738Y-8625286D02*
X15872500Y-8630048D01*
X15872500Y-8630048D02*
X15877262Y-8644333D01*
X15877262Y-8644333D02*
X15877262Y-8653857D01*
X15877262Y-8653857D02*
X15872500Y-8668143D01*
X15872500Y-8668143D02*
X15862976Y-8677667D01*
X15862976Y-8677667D02*
X15853452Y-8682429D01*
X15853452Y-8682429D02*
X15834405Y-8687190D01*
X15834405Y-8687190D02*
X15820119Y-8687190D01*
X15820119Y-8687190D02*
X15801071Y-8682429D01*
X15801071Y-8682429D02*
X15791548Y-8677667D01*
X15791548Y-8677667D02*
X15782024Y-8668143D01*
X15782024Y-8668143D02*
X15777262Y-8653857D01*
X15777262Y-8653857D02*
X15777262Y-8644333D01*
X15777262Y-8644333D02*
X15782024Y-8630048D01*
X15782024Y-8630048D02*
X15786786Y-8625286D01*
X15877262Y-8530048D02*
X15877262Y-8587190D01*
X15877262Y-8558619D02*
X15777262Y-8558619D01*
X15777262Y-8558619D02*
X15791548Y-8568143D01*
X15791548Y-8568143D02*
X15801071Y-8577667D01*
X15801071Y-8577667D02*
X15805833Y-8587190D01*
X15777262Y-8468143D02*
X15777262Y-8458619D01*
X15777262Y-8458619D02*
X15782024Y-8449095D01*
X15782024Y-8449095D02*
X15786786Y-8444333D01*
X15786786Y-8444333D02*
X15796309Y-8439571D01*
X15796309Y-8439571D02*
X15815357Y-8434810D01*
X15815357Y-8434810D02*
X15839167Y-8434810D01*
X15839167Y-8434810D02*
X15858214Y-8439571D01*
X15858214Y-8439571D02*
X15867738Y-8444333D01*
X15867738Y-8444333D02*
X15872500Y-8449095D01*
X15872500Y-8449095D02*
X15877262Y-8458619D01*
X15877262Y-8458619D02*
X15877262Y-8468143D01*
X15877262Y-8468143D02*
X15872500Y-8477667D01*
X15872500Y-8477667D02*
X15867738Y-8482429D01*
X15867738Y-8482429D02*
X15858214Y-8487190D01*
X15858214Y-8487190D02*
X15839167Y-8491952D01*
X15839167Y-8491952D02*
X15815357Y-8491952D01*
X15815357Y-8491952D02*
X15796309Y-8487190D01*
X15796309Y-8487190D02*
X15786786Y-8482429D01*
X15786786Y-8482429D02*
X15782024Y-8477667D01*
X15782024Y-8477667D02*
X15777262Y-8468143D01*
%TO.C,R8*%
X13389012Y-7730167D02*
X13341393Y-7763500D01*
X13389012Y-7787309D02*
X13289012Y-7787309D01*
X13289012Y-7787309D02*
X13289012Y-7749214D01*
X13289012Y-7749214D02*
X13293774Y-7739690D01*
X13293774Y-7739690D02*
X13298536Y-7734928D01*
X13298536Y-7734928D02*
X13308059Y-7730167D01*
X13308059Y-7730167D02*
X13322345Y-7730167D01*
X13322345Y-7730167D02*
X13331869Y-7734928D01*
X13331869Y-7734928D02*
X13336631Y-7739690D01*
X13336631Y-7739690D02*
X13341393Y-7749214D01*
X13341393Y-7749214D02*
X13341393Y-7787309D01*
X13331869Y-7673024D02*
X13327107Y-7682547D01*
X13327107Y-7682547D02*
X13322345Y-7687309D01*
X13322345Y-7687309D02*
X13312821Y-7692071D01*
X13312821Y-7692071D02*
X13308059Y-7692071D01*
X13308059Y-7692071D02*
X13298536Y-7687309D01*
X13298536Y-7687309D02*
X13293774Y-7682547D01*
X13293774Y-7682547D02*
X13289012Y-7673024D01*
X13289012Y-7673024D02*
X13289012Y-7653976D01*
X13289012Y-7653976D02*
X13293774Y-7644452D01*
X13293774Y-7644452D02*
X13298536Y-7639690D01*
X13298536Y-7639690D02*
X13308059Y-7634928D01*
X13308059Y-7634928D02*
X13312821Y-7634928D01*
X13312821Y-7634928D02*
X13322345Y-7639690D01*
X13322345Y-7639690D02*
X13327107Y-7644452D01*
X13327107Y-7644452D02*
X13331869Y-7653976D01*
X13331869Y-7653976D02*
X13331869Y-7673024D01*
X13331869Y-7673024D02*
X13336631Y-7682547D01*
X13336631Y-7682547D02*
X13341393Y-7687309D01*
X13341393Y-7687309D02*
X13350917Y-7692071D01*
X13350917Y-7692071D02*
X13369964Y-7692071D01*
X13369964Y-7692071D02*
X13379488Y-7687309D01*
X13379488Y-7687309D02*
X13384250Y-7682547D01*
X13384250Y-7682547D02*
X13389012Y-7673024D01*
X13389012Y-7673024D02*
X13389012Y-7653976D01*
X13389012Y-7653976D02*
X13384250Y-7644452D01*
X13384250Y-7644452D02*
X13379488Y-7639690D01*
X13379488Y-7639690D02*
X13369964Y-7634928D01*
X13369964Y-7634928D02*
X13350917Y-7634928D01*
X13350917Y-7634928D02*
X13341393Y-7639690D01*
X13341393Y-7639690D02*
X13336631Y-7644452D01*
X13336631Y-7644452D02*
X13331869Y-7653976D01*
%TO.C,L12*%
X17724714Y-10371262D02*
X17677095Y-10371262D01*
X17677095Y-10371262D02*
X17677095Y-10271262D01*
X17810429Y-10371262D02*
X17753286Y-10371262D01*
X17781857Y-10371262D02*
X17781857Y-10271262D01*
X17781857Y-10271262D02*
X17772333Y-10285548D01*
X17772333Y-10285548D02*
X17762810Y-10295071D01*
X17762810Y-10295071D02*
X17753286Y-10299833D01*
X17848524Y-10280786D02*
X17853286Y-10276024D01*
X17853286Y-10276024D02*
X17862810Y-10271262D01*
X17862810Y-10271262D02*
X17886619Y-10271262D01*
X17886619Y-10271262D02*
X17896143Y-10276024D01*
X17896143Y-10276024D02*
X17900905Y-10280786D01*
X17900905Y-10280786D02*
X17905667Y-10290310D01*
X17905667Y-10290310D02*
X17905667Y-10299833D01*
X17905667Y-10299833D02*
X17900905Y-10314119D01*
X17900905Y-10314119D02*
X17843762Y-10371262D01*
X17843762Y-10371262D02*
X17905667Y-10371262D01*
X17565571Y-10475262D02*
X17575095Y-10475262D01*
X17575095Y-10475262D02*
X17584619Y-10480024D01*
X17584619Y-10480024D02*
X17589381Y-10484786D01*
X17589381Y-10484786D02*
X17594143Y-10494310D01*
X17594143Y-10494310D02*
X17598905Y-10513357D01*
X17598905Y-10513357D02*
X17598905Y-10537167D01*
X17598905Y-10537167D02*
X17594143Y-10556214D01*
X17594143Y-10556214D02*
X17589381Y-10565738D01*
X17589381Y-10565738D02*
X17584619Y-10570500D01*
X17584619Y-10570500D02*
X17575095Y-10575262D01*
X17575095Y-10575262D02*
X17565571Y-10575262D01*
X17565571Y-10575262D02*
X17556048Y-10570500D01*
X17556048Y-10570500D02*
X17551286Y-10565738D01*
X17551286Y-10565738D02*
X17546524Y-10556214D01*
X17546524Y-10556214D02*
X17541762Y-10537167D01*
X17541762Y-10537167D02*
X17541762Y-10513357D01*
X17541762Y-10513357D02*
X17546524Y-10494310D01*
X17546524Y-10494310D02*
X17551286Y-10484786D01*
X17551286Y-10484786D02*
X17556048Y-10480024D01*
X17556048Y-10480024D02*
X17565571Y-10475262D01*
X17641762Y-10565738D02*
X17646524Y-10570500D01*
X17646524Y-10570500D02*
X17641762Y-10575262D01*
X17641762Y-10575262D02*
X17637000Y-10570500D01*
X17637000Y-10570500D02*
X17641762Y-10565738D01*
X17641762Y-10565738D02*
X17641762Y-10575262D01*
X17732238Y-10508595D02*
X17732238Y-10575262D01*
X17708429Y-10470500D02*
X17684619Y-10541929D01*
X17684619Y-10541929D02*
X17746524Y-10541929D01*
X17827476Y-10475262D02*
X17808429Y-10475262D01*
X17808429Y-10475262D02*
X17798905Y-10480024D01*
X17798905Y-10480024D02*
X17794143Y-10484786D01*
X17794143Y-10484786D02*
X17784619Y-10499071D01*
X17784619Y-10499071D02*
X17779857Y-10518119D01*
X17779857Y-10518119D02*
X17779857Y-10556214D01*
X17779857Y-10556214D02*
X17784619Y-10565738D01*
X17784619Y-10565738D02*
X17789381Y-10570500D01*
X17789381Y-10570500D02*
X17798905Y-10575262D01*
X17798905Y-10575262D02*
X17817952Y-10575262D01*
X17817952Y-10575262D02*
X17827476Y-10570500D01*
X17827476Y-10570500D02*
X17832238Y-10565738D01*
X17832238Y-10565738D02*
X17837000Y-10556214D01*
X17837000Y-10556214D02*
X17837000Y-10532405D01*
X17837000Y-10532405D02*
X17832238Y-10522881D01*
X17832238Y-10522881D02*
X17827476Y-10518119D01*
X17827476Y-10518119D02*
X17817952Y-10513357D01*
X17817952Y-10513357D02*
X17798905Y-10513357D01*
X17798905Y-10513357D02*
X17789381Y-10518119D01*
X17789381Y-10518119D02*
X17784619Y-10522881D01*
X17784619Y-10522881D02*
X17779857Y-10532405D01*
X17922714Y-10508595D02*
X17922714Y-10575262D01*
X17879857Y-10508595D02*
X17879857Y-10560976D01*
X17879857Y-10560976D02*
X17884619Y-10570500D01*
X17884619Y-10570500D02*
X17894143Y-10575262D01*
X17894143Y-10575262D02*
X17908429Y-10575262D01*
X17908429Y-10575262D02*
X17917952Y-10570500D01*
X17917952Y-10570500D02*
X17922714Y-10565738D01*
X17970333Y-10575262D02*
X17970333Y-10475262D01*
X17970333Y-10522881D02*
X18027476Y-10522881D01*
X18027476Y-10575262D02*
X18027476Y-10475262D01*
%TO.C,L3*%
X17663333Y-6997262D02*
X17615714Y-6997262D01*
X17615714Y-6997262D02*
X17615714Y-6897262D01*
X17687143Y-6897262D02*
X17749048Y-6897262D01*
X17749048Y-6897262D02*
X17715714Y-6935357D01*
X17715714Y-6935357D02*
X17730000Y-6935357D01*
X17730000Y-6935357D02*
X17739524Y-6940119D01*
X17739524Y-6940119D02*
X17744286Y-6944881D01*
X17744286Y-6944881D02*
X17749048Y-6954405D01*
X17749048Y-6954405D02*
X17749048Y-6978214D01*
X17749048Y-6978214D02*
X17744286Y-6987738D01*
X17744286Y-6987738D02*
X17739524Y-6992500D01*
X17739524Y-6992500D02*
X17730000Y-6997262D01*
X17730000Y-6997262D02*
X17701429Y-6997262D01*
X17701429Y-6997262D02*
X17691905Y-6992500D01*
X17691905Y-6992500D02*
X17687143Y-6987738D01*
X17546762Y-7146262D02*
X17499143Y-7146262D01*
X17499143Y-7146262D02*
X17494381Y-7193881D01*
X17494381Y-7193881D02*
X17499143Y-7189119D01*
X17499143Y-7189119D02*
X17508667Y-7184357D01*
X17508667Y-7184357D02*
X17532476Y-7184357D01*
X17532476Y-7184357D02*
X17542000Y-7189119D01*
X17542000Y-7189119D02*
X17546762Y-7193881D01*
X17546762Y-7193881D02*
X17551524Y-7203405D01*
X17551524Y-7203405D02*
X17551524Y-7227214D01*
X17551524Y-7227214D02*
X17546762Y-7236738D01*
X17546762Y-7236738D02*
X17542000Y-7241500D01*
X17542000Y-7241500D02*
X17532476Y-7246262D01*
X17532476Y-7246262D02*
X17508667Y-7246262D01*
X17508667Y-7246262D02*
X17499143Y-7241500D01*
X17499143Y-7241500D02*
X17494381Y-7236738D01*
X17594381Y-7236738D02*
X17599143Y-7241500D01*
X17599143Y-7241500D02*
X17594381Y-7246262D01*
X17594381Y-7246262D02*
X17589619Y-7241500D01*
X17589619Y-7241500D02*
X17594381Y-7236738D01*
X17594381Y-7236738D02*
X17594381Y-7246262D01*
X17689619Y-7146262D02*
X17642000Y-7146262D01*
X17642000Y-7146262D02*
X17637238Y-7193881D01*
X17637238Y-7193881D02*
X17642000Y-7189119D01*
X17642000Y-7189119D02*
X17651524Y-7184357D01*
X17651524Y-7184357D02*
X17675333Y-7184357D01*
X17675333Y-7184357D02*
X17684857Y-7189119D01*
X17684857Y-7189119D02*
X17689619Y-7193881D01*
X17689619Y-7193881D02*
X17694381Y-7203405D01*
X17694381Y-7203405D02*
X17694381Y-7227214D01*
X17694381Y-7227214D02*
X17689619Y-7236738D01*
X17689619Y-7236738D02*
X17684857Y-7241500D01*
X17684857Y-7241500D02*
X17675333Y-7246262D01*
X17675333Y-7246262D02*
X17651524Y-7246262D01*
X17651524Y-7246262D02*
X17642000Y-7241500D01*
X17642000Y-7241500D02*
X17637238Y-7236738D01*
X17780095Y-7179595D02*
X17780095Y-7246262D01*
X17737238Y-7179595D02*
X17737238Y-7231976D01*
X17737238Y-7231976D02*
X17742000Y-7241500D01*
X17742000Y-7241500D02*
X17751524Y-7246262D01*
X17751524Y-7246262D02*
X17765810Y-7246262D01*
X17765810Y-7246262D02*
X17775333Y-7241500D01*
X17775333Y-7241500D02*
X17780095Y-7236738D01*
X17827714Y-7246262D02*
X17827714Y-7146262D01*
X17827714Y-7193881D02*
X17884857Y-7193881D01*
X17884857Y-7246262D02*
X17884857Y-7146262D01*
%TO.C,L10*%
X15023714Y-9998262D02*
X14976095Y-9998262D01*
X14976095Y-9998262D02*
X14976095Y-9898262D01*
X15109428Y-9998262D02*
X15052286Y-9998262D01*
X15080857Y-9998262D02*
X15080857Y-9898262D01*
X15080857Y-9898262D02*
X15071333Y-9912548D01*
X15071333Y-9912548D02*
X15061809Y-9922071D01*
X15061809Y-9922071D02*
X15052286Y-9926833D01*
X15171333Y-9898262D02*
X15180857Y-9898262D01*
X15180857Y-9898262D02*
X15190381Y-9903024D01*
X15190381Y-9903024D02*
X15195143Y-9907786D01*
X15195143Y-9907786D02*
X15199905Y-9917310D01*
X15199905Y-9917310D02*
X15204667Y-9936357D01*
X15204667Y-9936357D02*
X15204667Y-9960167D01*
X15204667Y-9960167D02*
X15199905Y-9979214D01*
X15199905Y-9979214D02*
X15195143Y-9988738D01*
X15195143Y-9988738D02*
X15190381Y-9993500D01*
X15190381Y-9993500D02*
X15180857Y-9998262D01*
X15180857Y-9998262D02*
X15171333Y-9998262D01*
X15171333Y-9998262D02*
X15161809Y-9993500D01*
X15161809Y-9993500D02*
X15157048Y-9988738D01*
X15157048Y-9988738D02*
X15152286Y-9979214D01*
X15152286Y-9979214D02*
X15147524Y-9960167D01*
X15147524Y-9960167D02*
X15147524Y-9936357D01*
X15147524Y-9936357D02*
X15152286Y-9917310D01*
X15152286Y-9917310D02*
X15157048Y-9907786D01*
X15157048Y-9907786D02*
X15161809Y-9903024D01*
X15161809Y-9903024D02*
X15171333Y-9898262D01*
X14886571Y-10109262D02*
X14896095Y-10109262D01*
X14896095Y-10109262D02*
X14905619Y-10114024D01*
X14905619Y-10114024D02*
X14910381Y-10118786D01*
X14910381Y-10118786D02*
X14915143Y-10128310D01*
X14915143Y-10128310D02*
X14919905Y-10147357D01*
X14919905Y-10147357D02*
X14919905Y-10171167D01*
X14919905Y-10171167D02*
X14915143Y-10190214D01*
X14915143Y-10190214D02*
X14910381Y-10199738D01*
X14910381Y-10199738D02*
X14905619Y-10204500D01*
X14905619Y-10204500D02*
X14896095Y-10209262D01*
X14896095Y-10209262D02*
X14886571Y-10209262D01*
X14886571Y-10209262D02*
X14877048Y-10204500D01*
X14877048Y-10204500D02*
X14872286Y-10199738D01*
X14872286Y-10199738D02*
X14867524Y-10190214D01*
X14867524Y-10190214D02*
X14862762Y-10171167D01*
X14862762Y-10171167D02*
X14862762Y-10147357D01*
X14862762Y-10147357D02*
X14867524Y-10128310D01*
X14867524Y-10128310D02*
X14872286Y-10118786D01*
X14872286Y-10118786D02*
X14877048Y-10114024D01*
X14877048Y-10114024D02*
X14886571Y-10109262D01*
X14962762Y-10199738D02*
X14967524Y-10204500D01*
X14967524Y-10204500D02*
X14962762Y-10209262D01*
X14962762Y-10209262D02*
X14958000Y-10204500D01*
X14958000Y-10204500D02*
X14962762Y-10199738D01*
X14962762Y-10199738D02*
X14962762Y-10209262D01*
X15053238Y-10142595D02*
X15053238Y-10209262D01*
X15029428Y-10104500D02*
X15005619Y-10175929D01*
X15005619Y-10175929D02*
X15067524Y-10175929D01*
X15148476Y-10109262D02*
X15129428Y-10109262D01*
X15129428Y-10109262D02*
X15119905Y-10114024D01*
X15119905Y-10114024D02*
X15115143Y-10118786D01*
X15115143Y-10118786D02*
X15105619Y-10133071D01*
X15105619Y-10133071D02*
X15100857Y-10152119D01*
X15100857Y-10152119D02*
X15100857Y-10190214D01*
X15100857Y-10190214D02*
X15105619Y-10199738D01*
X15105619Y-10199738D02*
X15110381Y-10204500D01*
X15110381Y-10204500D02*
X15119905Y-10209262D01*
X15119905Y-10209262D02*
X15138952Y-10209262D01*
X15138952Y-10209262D02*
X15148476Y-10204500D01*
X15148476Y-10204500D02*
X15153238Y-10199738D01*
X15153238Y-10199738D02*
X15158000Y-10190214D01*
X15158000Y-10190214D02*
X15158000Y-10166405D01*
X15158000Y-10166405D02*
X15153238Y-10156881D01*
X15153238Y-10156881D02*
X15148476Y-10152119D01*
X15148476Y-10152119D02*
X15138952Y-10147357D01*
X15138952Y-10147357D02*
X15119905Y-10147357D01*
X15119905Y-10147357D02*
X15110381Y-10152119D01*
X15110381Y-10152119D02*
X15105619Y-10156881D01*
X15105619Y-10156881D02*
X15100857Y-10166405D01*
X15243714Y-10142595D02*
X15243714Y-10209262D01*
X15200857Y-10142595D02*
X15200857Y-10194976D01*
X15200857Y-10194976D02*
X15205619Y-10204500D01*
X15205619Y-10204500D02*
X15215143Y-10209262D01*
X15215143Y-10209262D02*
X15229428Y-10209262D01*
X15229428Y-10209262D02*
X15238952Y-10204500D01*
X15238952Y-10204500D02*
X15243714Y-10199738D01*
X15291333Y-10209262D02*
X15291333Y-10109262D01*
X15291333Y-10156881D02*
X15348476Y-10156881D01*
X15348476Y-10209262D02*
X15348476Y-10109262D01*
%TO.C,R9*%
X13722333Y-8037262D02*
X13689000Y-7989643D01*
X13665190Y-8037262D02*
X13665190Y-7937262D01*
X13665190Y-7937262D02*
X13703286Y-7937262D01*
X13703286Y-7937262D02*
X13712809Y-7942024D01*
X13712809Y-7942024D02*
X13717571Y-7946786D01*
X13717571Y-7946786D02*
X13722333Y-7956309D01*
X13722333Y-7956309D02*
X13722333Y-7970595D01*
X13722333Y-7970595D02*
X13717571Y-7980119D01*
X13717571Y-7980119D02*
X13712809Y-7984881D01*
X13712809Y-7984881D02*
X13703286Y-7989643D01*
X13703286Y-7989643D02*
X13665190Y-7989643D01*
X13769952Y-8037262D02*
X13789000Y-8037262D01*
X13789000Y-8037262D02*
X13798524Y-8032500D01*
X13798524Y-8032500D02*
X13803286Y-8027738D01*
X13803286Y-8027738D02*
X13812809Y-8013452D01*
X13812809Y-8013452D02*
X13817571Y-7994405D01*
X13817571Y-7994405D02*
X13817571Y-7956309D01*
X13817571Y-7956309D02*
X13812809Y-7946786D01*
X13812809Y-7946786D02*
X13808048Y-7942024D01*
X13808048Y-7942024D02*
X13798524Y-7937262D01*
X13798524Y-7937262D02*
X13779476Y-7937262D01*
X13779476Y-7937262D02*
X13769952Y-7942024D01*
X13769952Y-7942024D02*
X13765190Y-7946786D01*
X13765190Y-7946786D02*
X13760429Y-7956309D01*
X13760429Y-7956309D02*
X13760429Y-7980119D01*
X13760429Y-7980119D02*
X13765190Y-7989643D01*
X13765190Y-7989643D02*
X13769952Y-7994405D01*
X13769952Y-7994405D02*
X13779476Y-7999167D01*
X13779476Y-7999167D02*
X13798524Y-7999167D01*
X13798524Y-7999167D02*
X13808048Y-7994405D01*
X13808048Y-7994405D02*
X13812809Y-7989643D01*
X13812809Y-7989643D02*
X13817571Y-7980119D01*
%TO.C,L11*%
X16130262Y-10256286D02*
X16130262Y-10303905D01*
X16130262Y-10303905D02*
X16030262Y-10303905D01*
X16130262Y-10170571D02*
X16130262Y-10227714D01*
X16130262Y-10199143D02*
X16030262Y-10199143D01*
X16030262Y-10199143D02*
X16044548Y-10208667D01*
X16044548Y-10208667D02*
X16054071Y-10218190D01*
X16054071Y-10218190D02*
X16058833Y-10227714D01*
X16130262Y-10075333D02*
X16130262Y-10132476D01*
X16130262Y-10103905D02*
X16030262Y-10103905D01*
X16030262Y-10103905D02*
X16044548Y-10113429D01*
X16044548Y-10113429D02*
X16054071Y-10122952D01*
X16054071Y-10122952D02*
X16058833Y-10132476D01*
X15835262Y-10420429D02*
X15835262Y-10410905D01*
X15835262Y-10410905D02*
X15840024Y-10401381D01*
X15840024Y-10401381D02*
X15844786Y-10396619D01*
X15844786Y-10396619D02*
X15854309Y-10391857D01*
X15854309Y-10391857D02*
X15873357Y-10387095D01*
X15873357Y-10387095D02*
X15897167Y-10387095D01*
X15897167Y-10387095D02*
X15916214Y-10391857D01*
X15916214Y-10391857D02*
X15925738Y-10396619D01*
X15925738Y-10396619D02*
X15930500Y-10401381D01*
X15930500Y-10401381D02*
X15935262Y-10410905D01*
X15935262Y-10410905D02*
X15935262Y-10420429D01*
X15935262Y-10420429D02*
X15930500Y-10429952D01*
X15930500Y-10429952D02*
X15925738Y-10434714D01*
X15925738Y-10434714D02*
X15916214Y-10439476D01*
X15916214Y-10439476D02*
X15897167Y-10444238D01*
X15897167Y-10444238D02*
X15873357Y-10444238D01*
X15873357Y-10444238D02*
X15854309Y-10439476D01*
X15854309Y-10439476D02*
X15844786Y-10434714D01*
X15844786Y-10434714D02*
X15840024Y-10429952D01*
X15840024Y-10429952D02*
X15835262Y-10420429D01*
X15925738Y-10344238D02*
X15930500Y-10339476D01*
X15930500Y-10339476D02*
X15935262Y-10344238D01*
X15935262Y-10344238D02*
X15930500Y-10349000D01*
X15930500Y-10349000D02*
X15925738Y-10344238D01*
X15925738Y-10344238D02*
X15935262Y-10344238D01*
X15935262Y-10244238D02*
X15935262Y-10301381D01*
X15935262Y-10272810D02*
X15835262Y-10272810D01*
X15835262Y-10272810D02*
X15849548Y-10282333D01*
X15849548Y-10282333D02*
X15859071Y-10291857D01*
X15859071Y-10291857D02*
X15863833Y-10301381D01*
X15835262Y-10210905D02*
X15835262Y-10149000D01*
X15835262Y-10149000D02*
X15873357Y-10182333D01*
X15873357Y-10182333D02*
X15873357Y-10168048D01*
X15873357Y-10168048D02*
X15878119Y-10158524D01*
X15878119Y-10158524D02*
X15882881Y-10153762D01*
X15882881Y-10153762D02*
X15892405Y-10149000D01*
X15892405Y-10149000D02*
X15916214Y-10149000D01*
X15916214Y-10149000D02*
X15925738Y-10153762D01*
X15925738Y-10153762D02*
X15930500Y-10158524D01*
X15930500Y-10158524D02*
X15935262Y-10168048D01*
X15935262Y-10168048D02*
X15935262Y-10196619D01*
X15935262Y-10196619D02*
X15930500Y-10206143D01*
X15930500Y-10206143D02*
X15925738Y-10210905D01*
X15868595Y-10063286D02*
X15935262Y-10063286D01*
X15868595Y-10106143D02*
X15920976Y-10106143D01*
X15920976Y-10106143D02*
X15930500Y-10101381D01*
X15930500Y-10101381D02*
X15935262Y-10091857D01*
X15935262Y-10091857D02*
X15935262Y-10077571D01*
X15935262Y-10077571D02*
X15930500Y-10068048D01*
X15930500Y-10068048D02*
X15925738Y-10063286D01*
X15935262Y-10015667D02*
X15835262Y-10015667D01*
X15882881Y-10015667D02*
X15882881Y-9958524D01*
X15935262Y-9958524D02*
X15835262Y-9958524D01*
%TO.C,C12*%
X14348714Y-9625738D02*
X14343952Y-9630500D01*
X14343952Y-9630500D02*
X14329667Y-9635262D01*
X14329667Y-9635262D02*
X14320143Y-9635262D01*
X14320143Y-9635262D02*
X14305857Y-9630500D01*
X14305857Y-9630500D02*
X14296333Y-9620976D01*
X14296333Y-9620976D02*
X14291571Y-9611452D01*
X14291571Y-9611452D02*
X14286809Y-9592405D01*
X14286809Y-9592405D02*
X14286809Y-9578119D01*
X14286809Y-9578119D02*
X14291571Y-9559071D01*
X14291571Y-9559071D02*
X14296333Y-9549548D01*
X14296333Y-9549548D02*
X14305857Y-9540024D01*
X14305857Y-9540024D02*
X14320143Y-9535262D01*
X14320143Y-9535262D02*
X14329667Y-9535262D01*
X14329667Y-9535262D02*
X14343952Y-9540024D01*
X14343952Y-9540024D02*
X14348714Y-9544786D01*
X14443952Y-9635262D02*
X14386809Y-9635262D01*
X14415381Y-9635262D02*
X14415381Y-9535262D01*
X14415381Y-9535262D02*
X14405857Y-9549548D01*
X14405857Y-9549548D02*
X14396333Y-9559071D01*
X14396333Y-9559071D02*
X14386809Y-9563833D01*
X14482048Y-9544786D02*
X14486809Y-9540024D01*
X14486809Y-9540024D02*
X14496333Y-9535262D01*
X14496333Y-9535262D02*
X14520143Y-9535262D01*
X14520143Y-9535262D02*
X14529667Y-9540024D01*
X14529667Y-9540024D02*
X14534428Y-9544786D01*
X14534428Y-9544786D02*
X14539190Y-9554310D01*
X14539190Y-9554310D02*
X14539190Y-9563833D01*
X14539190Y-9563833D02*
X14534428Y-9578119D01*
X14534428Y-9578119D02*
X14477286Y-9635262D01*
X14477286Y-9635262D02*
X14539190Y-9635262D01*
%TO.C,R6*%
X13761012Y-7005417D02*
X13713393Y-7038750D01*
X13761012Y-7062559D02*
X13661012Y-7062559D01*
X13661012Y-7062559D02*
X13661012Y-7024464D01*
X13661012Y-7024464D02*
X13665774Y-7014940D01*
X13665774Y-7014940D02*
X13670536Y-7010178D01*
X13670536Y-7010178D02*
X13680059Y-7005417D01*
X13680059Y-7005417D02*
X13694345Y-7005417D01*
X13694345Y-7005417D02*
X13703869Y-7010178D01*
X13703869Y-7010178D02*
X13708631Y-7014940D01*
X13708631Y-7014940D02*
X13713393Y-7024464D01*
X13713393Y-7024464D02*
X13713393Y-7062559D01*
X13661012Y-6919702D02*
X13661012Y-6938750D01*
X13661012Y-6938750D02*
X13665774Y-6948274D01*
X13665774Y-6948274D02*
X13670536Y-6953036D01*
X13670536Y-6953036D02*
X13684821Y-6962559D01*
X13684821Y-6962559D02*
X13703869Y-6967321D01*
X13703869Y-6967321D02*
X13741964Y-6967321D01*
X13741964Y-6967321D02*
X13751488Y-6962559D01*
X13751488Y-6962559D02*
X13756250Y-6957797D01*
X13756250Y-6957797D02*
X13761012Y-6948274D01*
X13761012Y-6948274D02*
X13761012Y-6929226D01*
X13761012Y-6929226D02*
X13756250Y-6919702D01*
X13756250Y-6919702D02*
X13751488Y-6914940D01*
X13751488Y-6914940D02*
X13741964Y-6910178D01*
X13741964Y-6910178D02*
X13718155Y-6910178D01*
X13718155Y-6910178D02*
X13708631Y-6914940D01*
X13708631Y-6914940D02*
X13703869Y-6919702D01*
X13703869Y-6919702D02*
X13699107Y-6929226D01*
X13699107Y-6929226D02*
X13699107Y-6948274D01*
X13699107Y-6948274D02*
X13703869Y-6957797D01*
X13703869Y-6957797D02*
X13708631Y-6962559D01*
X13708631Y-6962559D02*
X13718155Y-6967321D01*
%TO.C,C3*%
X16433333Y-6437738D02*
X16428571Y-6442500D01*
X16428571Y-6442500D02*
X16414286Y-6447262D01*
X16414286Y-6447262D02*
X16404762Y-6447262D01*
X16404762Y-6447262D02*
X16390476Y-6442500D01*
X16390476Y-6442500D02*
X16380952Y-6432976D01*
X16380952Y-6432976D02*
X16376190Y-6423452D01*
X16376190Y-6423452D02*
X16371429Y-6404405D01*
X16371429Y-6404405D02*
X16371429Y-6390119D01*
X16371429Y-6390119D02*
X16376190Y-6371071D01*
X16376190Y-6371071D02*
X16380952Y-6361548D01*
X16380952Y-6361548D02*
X16390476Y-6352024D01*
X16390476Y-6352024D02*
X16404762Y-6347262D01*
X16404762Y-6347262D02*
X16414286Y-6347262D01*
X16414286Y-6347262D02*
X16428571Y-6352024D01*
X16428571Y-6352024D02*
X16433333Y-6356786D01*
X16466667Y-6347262D02*
X16528571Y-6347262D01*
X16528571Y-6347262D02*
X16495238Y-6385357D01*
X16495238Y-6385357D02*
X16509524Y-6385357D01*
X16509524Y-6385357D02*
X16519048Y-6390119D01*
X16519048Y-6390119D02*
X16523809Y-6394881D01*
X16523809Y-6394881D02*
X16528571Y-6404405D01*
X16528571Y-6404405D02*
X16528571Y-6428214D01*
X16528571Y-6428214D02*
X16523809Y-6437738D01*
X16523809Y-6437738D02*
X16519048Y-6442500D01*
X16519048Y-6442500D02*
X16509524Y-6447262D01*
X16509524Y-6447262D02*
X16480952Y-6447262D01*
X16480952Y-6447262D02*
X16471429Y-6442500D01*
X16471429Y-6442500D02*
X16466667Y-6437738D01*
%TO.C,L5*%
X17121333Y-8695262D02*
X17073714Y-8695262D01*
X17073714Y-8695262D02*
X17073714Y-8595262D01*
X17202286Y-8595262D02*
X17154667Y-8595262D01*
X17154667Y-8595262D02*
X17149905Y-8642881D01*
X17149905Y-8642881D02*
X17154667Y-8638119D01*
X17154667Y-8638119D02*
X17164191Y-8633357D01*
X17164191Y-8633357D02*
X17188000Y-8633357D01*
X17188000Y-8633357D02*
X17197524Y-8638119D01*
X17197524Y-8638119D02*
X17202286Y-8642881D01*
X17202286Y-8642881D02*
X17207048Y-8652405D01*
X17207048Y-8652405D02*
X17207048Y-8676214D01*
X17207048Y-8676214D02*
X17202286Y-8685738D01*
X17202286Y-8685738D02*
X17197524Y-8690500D01*
X17197524Y-8690500D02*
X17188000Y-8695262D01*
X17188000Y-8695262D02*
X17164191Y-8695262D01*
X17164191Y-8695262D02*
X17154667Y-8690500D01*
X17154667Y-8690500D02*
X17149905Y-8685738D01*
X16925571Y-8850262D02*
X16935095Y-8850262D01*
X16935095Y-8850262D02*
X16944619Y-8855024D01*
X16944619Y-8855024D02*
X16949381Y-8859786D01*
X16949381Y-8859786D02*
X16954143Y-8869310D01*
X16954143Y-8869310D02*
X16958905Y-8888357D01*
X16958905Y-8888357D02*
X16958905Y-8912167D01*
X16958905Y-8912167D02*
X16954143Y-8931214D01*
X16954143Y-8931214D02*
X16949381Y-8940738D01*
X16949381Y-8940738D02*
X16944619Y-8945500D01*
X16944619Y-8945500D02*
X16935095Y-8950262D01*
X16935095Y-8950262D02*
X16925571Y-8950262D01*
X16925571Y-8950262D02*
X16916048Y-8945500D01*
X16916048Y-8945500D02*
X16911286Y-8940738D01*
X16911286Y-8940738D02*
X16906524Y-8931214D01*
X16906524Y-8931214D02*
X16901762Y-8912167D01*
X16901762Y-8912167D02*
X16901762Y-8888357D01*
X16901762Y-8888357D02*
X16906524Y-8869310D01*
X16906524Y-8869310D02*
X16911286Y-8859786D01*
X16911286Y-8859786D02*
X16916048Y-8855024D01*
X16916048Y-8855024D02*
X16925571Y-8850262D01*
X17001762Y-8940738D02*
X17006524Y-8945500D01*
X17006524Y-8945500D02*
X17001762Y-8950262D01*
X17001762Y-8950262D02*
X16997000Y-8945500D01*
X16997000Y-8945500D02*
X17001762Y-8940738D01*
X17001762Y-8940738D02*
X17001762Y-8950262D01*
X17092238Y-8883595D02*
X17092238Y-8950262D01*
X17068429Y-8845500D02*
X17044619Y-8916929D01*
X17044619Y-8916929D02*
X17106524Y-8916929D01*
X17187476Y-8850262D02*
X17168429Y-8850262D01*
X17168429Y-8850262D02*
X17158905Y-8855024D01*
X17158905Y-8855024D02*
X17154143Y-8859786D01*
X17154143Y-8859786D02*
X17144619Y-8874071D01*
X17144619Y-8874071D02*
X17139857Y-8893119D01*
X17139857Y-8893119D02*
X17139857Y-8931214D01*
X17139857Y-8931214D02*
X17144619Y-8940738D01*
X17144619Y-8940738D02*
X17149381Y-8945500D01*
X17149381Y-8945500D02*
X17158905Y-8950262D01*
X17158905Y-8950262D02*
X17177952Y-8950262D01*
X17177952Y-8950262D02*
X17187476Y-8945500D01*
X17187476Y-8945500D02*
X17192238Y-8940738D01*
X17192238Y-8940738D02*
X17197000Y-8931214D01*
X17197000Y-8931214D02*
X17197000Y-8907405D01*
X17197000Y-8907405D02*
X17192238Y-8897881D01*
X17192238Y-8897881D02*
X17187476Y-8893119D01*
X17187476Y-8893119D02*
X17177952Y-8888357D01*
X17177952Y-8888357D02*
X17158905Y-8888357D01*
X17158905Y-8888357D02*
X17149381Y-8893119D01*
X17149381Y-8893119D02*
X17144619Y-8897881D01*
X17144619Y-8897881D02*
X17139857Y-8907405D01*
X17282714Y-8883595D02*
X17282714Y-8950262D01*
X17239857Y-8883595D02*
X17239857Y-8935976D01*
X17239857Y-8935976D02*
X17244619Y-8945500D01*
X17244619Y-8945500D02*
X17254143Y-8950262D01*
X17254143Y-8950262D02*
X17268429Y-8950262D01*
X17268429Y-8950262D02*
X17277952Y-8945500D01*
X17277952Y-8945500D02*
X17282714Y-8940738D01*
X17330333Y-8950262D02*
X17330333Y-8850262D01*
X17330333Y-8897881D02*
X17387476Y-8897881D01*
X17387476Y-8950262D02*
X17387476Y-8850262D01*
%TO.C,L6*%
X17664333Y-7828262D02*
X17616714Y-7828262D01*
X17616714Y-7828262D02*
X17616714Y-7728262D01*
X17740524Y-7728262D02*
X17721476Y-7728262D01*
X17721476Y-7728262D02*
X17711952Y-7733024D01*
X17711952Y-7733024D02*
X17707191Y-7737786D01*
X17707191Y-7737786D02*
X17697667Y-7752071D01*
X17697667Y-7752071D02*
X17692905Y-7771119D01*
X17692905Y-7771119D02*
X17692905Y-7809214D01*
X17692905Y-7809214D02*
X17697667Y-7818738D01*
X17697667Y-7818738D02*
X17702429Y-7823500D01*
X17702429Y-7823500D02*
X17711952Y-7828262D01*
X17711952Y-7828262D02*
X17731000Y-7828262D01*
X17731000Y-7828262D02*
X17740524Y-7823500D01*
X17740524Y-7823500D02*
X17745286Y-7818738D01*
X17745286Y-7818738D02*
X17750048Y-7809214D01*
X17750048Y-7809214D02*
X17750048Y-7785405D01*
X17750048Y-7785405D02*
X17745286Y-7775881D01*
X17745286Y-7775881D02*
X17740524Y-7771119D01*
X17740524Y-7771119D02*
X17731000Y-7766357D01*
X17731000Y-7766357D02*
X17711952Y-7766357D01*
X17711952Y-7766357D02*
X17702429Y-7771119D01*
X17702429Y-7771119D02*
X17697667Y-7775881D01*
X17697667Y-7775881D02*
X17692905Y-7785405D01*
X17519583Y-7993786D02*
X17524940Y-7989024D01*
X17524940Y-7989024D02*
X17535059Y-7984262D01*
X17535059Y-7984262D02*
X17558869Y-7984262D01*
X17558869Y-7984262D02*
X17567798Y-7989024D01*
X17567798Y-7989024D02*
X17571964Y-7993786D01*
X17571964Y-7993786D02*
X17575536Y-8003309D01*
X17575536Y-8003309D02*
X17574345Y-8012833D01*
X17574345Y-8012833D02*
X17567798Y-8027119D01*
X17567798Y-8027119D02*
X17503512Y-8084262D01*
X17503512Y-8084262D02*
X17565417Y-8084262D01*
X17608869Y-8074738D02*
X17613036Y-8079500D01*
X17613036Y-8079500D02*
X17607679Y-8084262D01*
X17607679Y-8084262D02*
X17603512Y-8079500D01*
X17603512Y-8079500D02*
X17608869Y-8074738D01*
X17608869Y-8074738D02*
X17607679Y-8084262D01*
X17686250Y-7984262D02*
X17695774Y-7984262D01*
X17695774Y-7984262D02*
X17704702Y-7989024D01*
X17704702Y-7989024D02*
X17708869Y-7993786D01*
X17708869Y-7993786D02*
X17712440Y-8003309D01*
X17712440Y-8003309D02*
X17714821Y-8022357D01*
X17714821Y-8022357D02*
X17711845Y-8046167D01*
X17711845Y-8046167D02*
X17704702Y-8065214D01*
X17704702Y-8065214D02*
X17698750Y-8074738D01*
X17698750Y-8074738D02*
X17693393Y-8079500D01*
X17693393Y-8079500D02*
X17683274Y-8084262D01*
X17683274Y-8084262D02*
X17673750Y-8084262D01*
X17673750Y-8084262D02*
X17664821Y-8079500D01*
X17664821Y-8079500D02*
X17660655Y-8074738D01*
X17660655Y-8074738D02*
X17657083Y-8065214D01*
X17657083Y-8065214D02*
X17654702Y-8046167D01*
X17654702Y-8046167D02*
X17657679Y-8022357D01*
X17657679Y-8022357D02*
X17664821Y-8003309D01*
X17664821Y-8003309D02*
X17670774Y-7993786D01*
X17670774Y-7993786D02*
X17676131Y-7989024D01*
X17676131Y-7989024D02*
X17686250Y-7984262D01*
X17800536Y-8017595D02*
X17792202Y-8084262D01*
X17757679Y-8017595D02*
X17751131Y-8069976D01*
X17751131Y-8069976D02*
X17754702Y-8079500D01*
X17754702Y-8079500D02*
X17763631Y-8084262D01*
X17763631Y-8084262D02*
X17777917Y-8084262D01*
X17777917Y-8084262D02*
X17788036Y-8079500D01*
X17788036Y-8079500D02*
X17793393Y-8074738D01*
X17839226Y-8084262D02*
X17851726Y-7984262D01*
X17845774Y-8031881D02*
X17902917Y-8031881D01*
X17896369Y-8084262D02*
X17908869Y-7984262D01*
%TO.C,L9*%
X17759333Y-9489262D02*
X17711714Y-9489262D01*
X17711714Y-9489262D02*
X17711714Y-9389262D01*
X17797429Y-9489262D02*
X17816476Y-9489262D01*
X17816476Y-9489262D02*
X17826000Y-9484500D01*
X17826000Y-9484500D02*
X17830762Y-9479738D01*
X17830762Y-9479738D02*
X17840286Y-9465452D01*
X17840286Y-9465452D02*
X17845048Y-9446405D01*
X17845048Y-9446405D02*
X17845048Y-9408310D01*
X17845048Y-9408310D02*
X17840286Y-9398786D01*
X17840286Y-9398786D02*
X17835524Y-9394024D01*
X17835524Y-9394024D02*
X17826000Y-9389262D01*
X17826000Y-9389262D02*
X17806952Y-9389262D01*
X17806952Y-9389262D02*
X17797429Y-9394024D01*
X17797429Y-9394024D02*
X17792667Y-9398786D01*
X17792667Y-9398786D02*
X17787905Y-9408310D01*
X17787905Y-9408310D02*
X17787905Y-9432119D01*
X17787905Y-9432119D02*
X17792667Y-9441643D01*
X17792667Y-9441643D02*
X17797429Y-9446405D01*
X17797429Y-9446405D02*
X17806952Y-9451167D01*
X17806952Y-9451167D02*
X17826000Y-9451167D01*
X17826000Y-9451167D02*
X17835524Y-9446405D01*
X17835524Y-9446405D02*
X17840286Y-9441643D01*
X17840286Y-9441643D02*
X17845048Y-9432119D01*
X17688431Y-9722994D02*
X17631288Y-9722994D01*
X17659860Y-9722994D02*
X17659860Y-9622994D01*
X17659860Y-9622994D02*
X17650336Y-9637279D01*
X17650336Y-9637279D02*
X17640812Y-9646803D01*
X17640812Y-9646803D02*
X17631288Y-9651565D01*
X17774146Y-9656327D02*
X17774146Y-9722994D01*
X17731288Y-9656327D02*
X17731288Y-9708708D01*
X17731288Y-9708708D02*
X17736050Y-9718232D01*
X17736050Y-9718232D02*
X17745574Y-9722994D01*
X17745574Y-9722994D02*
X17759860Y-9722994D01*
X17759860Y-9722994D02*
X17769384Y-9718232D01*
X17769384Y-9718232D02*
X17774146Y-9713470D01*
X17821765Y-9722994D02*
X17821765Y-9622994D01*
X17821765Y-9670613D02*
X17878907Y-9670613D01*
X17878907Y-9722994D02*
X17878907Y-9622994D01*
%TO.C,U1*%
X12588262Y-9365190D02*
X12669214Y-9365190D01*
X12669214Y-9365190D02*
X12678738Y-9360429D01*
X12678738Y-9360429D02*
X12683500Y-9355667D01*
X12683500Y-9355667D02*
X12688262Y-9346143D01*
X12688262Y-9346143D02*
X12688262Y-9327095D01*
X12688262Y-9327095D02*
X12683500Y-9317571D01*
X12683500Y-9317571D02*
X12678738Y-9312810D01*
X12678738Y-9312810D02*
X12669214Y-9308048D01*
X12669214Y-9308048D02*
X12588262Y-9308048D01*
X12688262Y-9208048D02*
X12688262Y-9265190D01*
X12688262Y-9236619D02*
X12588262Y-9236619D01*
X12588262Y-9236619D02*
X12602548Y-9246143D01*
X12602548Y-9246143D02*
X12612071Y-9255667D01*
X12612071Y-9255667D02*
X12616833Y-9265190D01*
X12849500Y-9719762D02*
X12854262Y-9705476D01*
X12854262Y-9705476D02*
X12854262Y-9681667D01*
X12854262Y-9681667D02*
X12849500Y-9672143D01*
X12849500Y-9672143D02*
X12844738Y-9667381D01*
X12844738Y-9667381D02*
X12835214Y-9662619D01*
X12835214Y-9662619D02*
X12825690Y-9662619D01*
X12825690Y-9662619D02*
X12816167Y-9667381D01*
X12816167Y-9667381D02*
X12811405Y-9672143D01*
X12811405Y-9672143D02*
X12806643Y-9681667D01*
X12806643Y-9681667D02*
X12801881Y-9700714D01*
X12801881Y-9700714D02*
X12797119Y-9710238D01*
X12797119Y-9710238D02*
X12792357Y-9715000D01*
X12792357Y-9715000D02*
X12782833Y-9719762D01*
X12782833Y-9719762D02*
X12773309Y-9719762D01*
X12773309Y-9719762D02*
X12763786Y-9715000D01*
X12763786Y-9715000D02*
X12759024Y-9710238D01*
X12759024Y-9710238D02*
X12754262Y-9700714D01*
X12754262Y-9700714D02*
X12754262Y-9676905D01*
X12754262Y-9676905D02*
X12759024Y-9662619D01*
X12854262Y-9619762D02*
X12754262Y-9619762D01*
X12754262Y-9619762D02*
X12854262Y-9562619D01*
X12854262Y-9562619D02*
X12754262Y-9562619D01*
X12754262Y-9524524D02*
X12754262Y-9457857D01*
X12754262Y-9457857D02*
X12854262Y-9500714D01*
X12787595Y-9376905D02*
X12854262Y-9376905D01*
X12749500Y-9400714D02*
X12820928Y-9424524D01*
X12820928Y-9424524D02*
X12820928Y-9362619D01*
X12844738Y-9267381D02*
X12849500Y-9272143D01*
X12849500Y-9272143D02*
X12854262Y-9286429D01*
X12854262Y-9286429D02*
X12854262Y-9295952D01*
X12854262Y-9295952D02*
X12849500Y-9310238D01*
X12849500Y-9310238D02*
X12839976Y-9319762D01*
X12839976Y-9319762D02*
X12830452Y-9324524D01*
X12830452Y-9324524D02*
X12811405Y-9329286D01*
X12811405Y-9329286D02*
X12797119Y-9329286D01*
X12797119Y-9329286D02*
X12778071Y-9324524D01*
X12778071Y-9324524D02*
X12768548Y-9319762D01*
X12768548Y-9319762D02*
X12759024Y-9310238D01*
X12759024Y-9310238D02*
X12754262Y-9295952D01*
X12754262Y-9295952D02*
X12754262Y-9286429D01*
X12754262Y-9286429D02*
X12759024Y-9272143D01*
X12759024Y-9272143D02*
X12763786Y-9267381D01*
X12801881Y-9191190D02*
X12806643Y-9176905D01*
X12806643Y-9176905D02*
X12811405Y-9172143D01*
X12811405Y-9172143D02*
X12820928Y-9167381D01*
X12820928Y-9167381D02*
X12835214Y-9167381D01*
X12835214Y-9167381D02*
X12844738Y-9172143D01*
X12844738Y-9172143D02*
X12849500Y-9176905D01*
X12849500Y-9176905D02*
X12854262Y-9186429D01*
X12854262Y-9186429D02*
X12854262Y-9224524D01*
X12854262Y-9224524D02*
X12754262Y-9224524D01*
X12754262Y-9224524D02*
X12754262Y-9191190D01*
X12754262Y-9191190D02*
X12759024Y-9181667D01*
X12759024Y-9181667D02*
X12763786Y-9176905D01*
X12763786Y-9176905D02*
X12773309Y-9172143D01*
X12773309Y-9172143D02*
X12782833Y-9172143D01*
X12782833Y-9172143D02*
X12792357Y-9176905D01*
X12792357Y-9176905D02*
X12797119Y-9181667D01*
X12797119Y-9181667D02*
X12801881Y-9191190D01*
X12801881Y-9191190D02*
X12801881Y-9224524D01*
X12754262Y-9138809D02*
X12754262Y-9081667D01*
X12854262Y-9110238D02*
X12754262Y-9110238D01*
X12754262Y-9057857D02*
X12754262Y-8995952D01*
X12754262Y-8995952D02*
X12792357Y-9029286D01*
X12792357Y-9029286D02*
X12792357Y-9015000D01*
X12792357Y-9015000D02*
X12797119Y-9005476D01*
X12797119Y-9005476D02*
X12801881Y-9000714D01*
X12801881Y-9000714D02*
X12811405Y-8995952D01*
X12811405Y-8995952D02*
X12835214Y-8995952D01*
X12835214Y-8995952D02*
X12844738Y-9000714D01*
X12844738Y-9000714D02*
X12849500Y-9005476D01*
X12849500Y-9005476D02*
X12854262Y-9015000D01*
X12854262Y-9015000D02*
X12854262Y-9043571D01*
X12854262Y-9043571D02*
X12849500Y-9053095D01*
X12849500Y-9053095D02*
X12844738Y-9057857D01*
X12763786Y-8957857D02*
X12759024Y-8953095D01*
X12759024Y-8953095D02*
X12754262Y-8943571D01*
X12754262Y-8943571D02*
X12754262Y-8919762D01*
X12754262Y-8919762D02*
X12759024Y-8910238D01*
X12759024Y-8910238D02*
X12763786Y-8905476D01*
X12763786Y-8905476D02*
X12773309Y-8900714D01*
X12773309Y-8900714D02*
X12782833Y-8900714D01*
X12782833Y-8900714D02*
X12797119Y-8905476D01*
X12797119Y-8905476D02*
X12854262Y-8962619D01*
X12854262Y-8962619D02*
X12854262Y-8900714D01*
X12754262Y-8810238D02*
X12754262Y-8857857D01*
X12754262Y-8857857D02*
X12801881Y-8862619D01*
X12801881Y-8862619D02*
X12797119Y-8857857D01*
X12797119Y-8857857D02*
X12792357Y-8848333D01*
X12792357Y-8848333D02*
X12792357Y-8824524D01*
X12792357Y-8824524D02*
X12797119Y-8815000D01*
X12797119Y-8815000D02*
X12801881Y-8810238D01*
X12801881Y-8810238D02*
X12811405Y-8805476D01*
X12811405Y-8805476D02*
X12835214Y-8805476D01*
X12835214Y-8805476D02*
X12844738Y-8810238D01*
X12844738Y-8810238D02*
X12849500Y-8815000D01*
X12849500Y-8815000D02*
X12854262Y-8824524D01*
X12854262Y-8824524D02*
X12854262Y-8848333D01*
X12854262Y-8848333D02*
X12849500Y-8857857D01*
X12849500Y-8857857D02*
X12844738Y-8862619D01*
X12754262Y-8772143D02*
X12754262Y-8710238D01*
X12754262Y-8710238D02*
X12792357Y-8743571D01*
X12792357Y-8743571D02*
X12792357Y-8729286D01*
X12792357Y-8729286D02*
X12797119Y-8719762D01*
X12797119Y-8719762D02*
X12801881Y-8715000D01*
X12801881Y-8715000D02*
X12811405Y-8710238D01*
X12811405Y-8710238D02*
X12835214Y-8710238D01*
X12835214Y-8710238D02*
X12844738Y-8715000D01*
X12844738Y-8715000D02*
X12849500Y-8719762D01*
X12849500Y-8719762D02*
X12854262Y-8729286D01*
X12854262Y-8729286D02*
X12854262Y-8757857D01*
X12854262Y-8757857D02*
X12849500Y-8767381D01*
X12849500Y-8767381D02*
X12844738Y-8772143D01*
D14*
%TO.C,L7*%
X15452318Y-9117000D02*
G75*
G03*
X14829682Y-9117000I-311318J-126000D01*
G01*
X14829682Y-9369000D02*
G75*
G03*
X15452318Y-9369000I311318J126000D01*
G01*
X15281400Y-9243000D02*
G75*
G03*
X15281400Y-9243000I-140400J0D01*
G01*
%TO.C,L8*%
X14711682Y-8672000D02*
G75*
G03*
X15334318Y-8672000I311318J126000D01*
G01*
X15334318Y-8420000D02*
G75*
G03*
X14711682Y-8420000I-311318J-126000D01*
G01*
X15163400Y-8546000D02*
G75*
G03*
X15163400Y-8546000I-140400J0D01*
G01*
%TO.C,R10*%
X13925750Y-7785206D02*
X13925750Y-7639794D01*
X14107750Y-7785206D02*
X14107750Y-7639794D01*
%TO.C,C15*%
X13745375Y-9631375D02*
X13745375Y-9773625D01*
X13563375Y-9631375D02*
X13563375Y-9773625D01*
%TO.C,C7*%
X16361100Y-8631000D02*
X16294500Y-8631000D01*
X16361100Y-8631000D02*
X16361100Y-9165000D01*
X16083500Y-8631000D02*
X16016900Y-8631000D01*
X16016900Y-8631000D02*
X16016900Y-9165000D01*
X16361100Y-9165000D02*
X16294500Y-9165000D01*
X16083500Y-9165000D02*
X16016900Y-9165000D01*
%TO.C,R7*%
X14116000Y-6923294D02*
X14116000Y-7068706D01*
X13934000Y-6923294D02*
X13934000Y-7068706D01*
%TO.C,J1*%
X11758000Y-9180000D02*
X12578000Y-9180000D01*
X11758000Y-9180000D02*
X11758000Y-8360000D01*
X12218000Y-9180000D02*
X12168000Y-9130000D01*
X12578000Y-9180000D02*
X12578000Y-8360000D01*
X12168000Y-9130000D02*
X12118000Y-9180000D01*
X11758000Y-8360000D02*
X12578000Y-8360000D01*
%TO.C,C6*%
X14034000Y-8003900D02*
X14034000Y-8070500D01*
X14034000Y-8003900D02*
X14568000Y-8003900D01*
X14034000Y-8281500D02*
X14034000Y-8348100D01*
X14034000Y-8348100D02*
X14568000Y-8348100D01*
X14568000Y-8003900D02*
X14568000Y-8070500D01*
X14568000Y-8281500D02*
X14568000Y-8348100D01*
%TO.C,C9*%
X14143000Y-8720900D02*
X14143000Y-8787500D01*
X14143000Y-8720900D02*
X14677000Y-8720900D01*
X14143000Y-8998500D02*
X14143000Y-9065100D01*
X14143000Y-9065100D02*
X14677000Y-9065100D01*
X14677000Y-8720900D02*
X14677000Y-8787500D01*
X14677000Y-8998500D02*
X14677000Y-9065100D01*
%TO.C,C17*%
X18512875Y-9000000D02*
X18655125Y-9000000D01*
X18512875Y-9182000D02*
X18655125Y-9182000D01*
%TO.C,C13*%
X16487000Y-9776900D02*
X16487000Y-9843500D01*
X16487000Y-9776900D02*
X17021000Y-9776900D01*
X16487000Y-10054500D02*
X16487000Y-10121100D01*
X16487000Y-10121100D02*
X17021000Y-10121100D01*
X17021000Y-9776900D02*
X17021000Y-9843500D01*
X17021000Y-10054500D02*
X17021000Y-10121100D01*
%TO.C,U2*%
X18710750Y-8858000D02*
X19070750Y-8858000D01*
X18710750Y-8858000D02*
X18490750Y-8858000D01*
X18710750Y-8311000D02*
X18930750Y-8311000D01*
X18710750Y-8311000D02*
X18490750Y-8311000D01*
%TO.C,C14*%
X16484000Y-10154900D02*
X16484000Y-10221500D01*
X16484000Y-10154900D02*
X17018000Y-10154900D01*
X16484000Y-10432500D02*
X16484000Y-10499100D01*
X16484000Y-10499100D02*
X17018000Y-10499100D01*
X17018000Y-10154900D02*
X17018000Y-10221500D01*
X17018000Y-10432500D02*
X17018000Y-10499100D01*
%TO.C,T2*%
X19276357Y-7517000D02*
G75*
G03*
X19276357Y-7517000I-140357J0D01*
G01*
X19596109Y-7517000D02*
G75*
G03*
X19596109Y-7517000I-460109J0D01*
G01*
%TO.C,C2*%
X14169000Y-6410900D02*
X14169000Y-6477500D01*
X14169000Y-6410900D02*
X14703000Y-6410900D01*
X14169000Y-6688500D02*
X14169000Y-6755100D01*
X14169000Y-6755100D02*
X14703000Y-6755100D01*
X14703000Y-6410900D02*
X14703000Y-6477500D01*
X14703000Y-6688500D02*
X14703000Y-6755100D01*
%TO.C,R5*%
X13717544Y-6541750D02*
X13862956Y-6541750D01*
X13717544Y-6723750D02*
X13862956Y-6723750D01*
%TO.C,J4*%
X20155000Y-8317000D02*
X19335000Y-8317000D01*
X20155000Y-8317000D02*
X20155000Y-9137000D01*
X19695000Y-8317000D02*
X19745000Y-8367000D01*
X19335000Y-8317000D02*
X19335000Y-9137000D01*
X19745000Y-8367000D02*
X19795000Y-8317000D01*
X20155000Y-9137000D02*
X19335000Y-9137000D01*
%TO.C,L1*%
X15548432Y-6810000D02*
G75*
G03*
X14799568Y-6810000I-374432J-146000D01*
G01*
X14799568Y-7102000D02*
G75*
G03*
X15548432Y-7102000I374432J146000D01*
G01*
X15353770Y-6956000D02*
G75*
G03*
X15353770Y-6956000I-179770J0D01*
G01*
%TO.C,L2*%
X16847932Y-7220000D02*
G75*
G03*
X16099068Y-7220000I-374432J-146000D01*
G01*
X16099068Y-7512000D02*
G75*
G03*
X16847932Y-7512000I374432J146000D01*
G01*
X16653270Y-7366000D02*
G75*
G03*
X16653270Y-7366000I-179770J0D01*
G01*
%TO.C,C4*%
X16174000Y-6596900D02*
X16174000Y-6663500D01*
X16174000Y-6596900D02*
X16708000Y-6596900D01*
X16174000Y-6874500D02*
X16174000Y-6941100D01*
X16174000Y-6941100D02*
X16708000Y-6941100D01*
X16708000Y-6596900D02*
X16708000Y-6663500D01*
X16708000Y-6874500D02*
X16708000Y-6941100D01*
%TO.C,J3*%
X13513750Y-10293750D02*
X12745750Y-10293750D01*
X13513750Y-10293750D02*
X13513750Y-10559750D01*
X12745750Y-10293750D02*
X12745750Y-10559750D01*
X13773750Y-10426750D02*
X13773750Y-10559750D01*
X13773750Y-10559750D02*
X13640750Y-10559750D01*
X13513750Y-10559750D02*
X12745750Y-10559750D01*
%TO.C,C5*%
X12810000Y-7994900D02*
X12810000Y-8061500D01*
X12810000Y-7994900D02*
X13344000Y-7994900D01*
X12810000Y-8272500D02*
X12810000Y-8339100D01*
X12810000Y-8339100D02*
X13344000Y-8339100D01*
X13344000Y-7994900D02*
X13344000Y-8061500D01*
X13344000Y-8272500D02*
X13344000Y-8339100D01*
%TO.C,C11*%
X16274000Y-9246900D02*
X16274000Y-9313500D01*
X16274000Y-9246900D02*
X16808000Y-9246900D01*
X16274000Y-9524500D02*
X16274000Y-9591100D01*
X16274000Y-9591100D02*
X16808000Y-9591100D01*
X16808000Y-9246900D02*
X16808000Y-9313500D01*
X16808000Y-9524500D02*
X16808000Y-9591100D01*
%TO.C,T1*%
X12535357Y-7389000D02*
G75*
G03*
X12535357Y-7389000I-140357J0D01*
G01*
X12855109Y-7389000D02*
G75*
G03*
X12855109Y-7389000I-460109J0D01*
G01*
%TO.C,L4*%
X15569432Y-7626000D02*
G75*
G03*
X14820568Y-7626000I-374432J-146000D01*
G01*
X14820568Y-7918000D02*
G75*
G03*
X15569432Y-7918000I374432J146000D01*
G01*
X15374770Y-7772000D02*
G75*
G03*
X15374770Y-7772000I-179770J0D01*
G01*
%TO.C,C1*%
X13063900Y-7372000D02*
X13130500Y-7372000D01*
X13063900Y-7372000D02*
X13063900Y-6838000D01*
X13341500Y-7372000D02*
X13408100Y-7372000D01*
X13408100Y-7372000D02*
X13408100Y-6838000D01*
X13063900Y-6838000D02*
X13130500Y-6838000D01*
X13341500Y-6838000D02*
X13408100Y-6838000D01*
%TO.C,C8*%
X16171000Y-8083900D02*
X16171000Y-8150500D01*
X16171000Y-8083900D02*
X16705000Y-8083900D01*
X16171000Y-8361500D02*
X16171000Y-8428100D01*
X16171000Y-8428100D02*
X16705000Y-8428100D01*
X16705000Y-8083900D02*
X16705000Y-8150500D01*
X16705000Y-8361500D02*
X16705000Y-8428100D01*
%TO.C,C10*%
X15668900Y-8824000D02*
X15735500Y-8824000D01*
X15668900Y-8824000D02*
X15668900Y-8290000D01*
X15946500Y-8824000D02*
X16013100Y-8824000D01*
X16013100Y-8824000D02*
X16013100Y-8290000D01*
X15668900Y-8290000D02*
X15735500Y-8290000D01*
X15946500Y-8290000D02*
X16013100Y-8290000D01*
%TO.C,R8*%
X13433750Y-7786206D02*
X13433750Y-7640794D01*
X13615750Y-7786206D02*
X13615750Y-7640794D01*
%TO.C,L12*%
X18100318Y-10199000D02*
G75*
G03*
X17477682Y-10199000I-311318J-126000D01*
G01*
X17477682Y-10451000D02*
G75*
G03*
X18100318Y-10451000I311318J126000D01*
G01*
X17929400Y-10325000D02*
G75*
G03*
X17929400Y-10325000I-140400J0D01*
G01*
%TO.C,L3*%
X18054432Y-6805000D02*
G75*
G03*
X17305568Y-6805000I-374432J-146000D01*
G01*
X17305568Y-7097000D02*
G75*
G03*
X18054432Y-7097000I374432J146000D01*
G01*
X17859770Y-6951000D02*
G75*
G03*
X17859770Y-6951000I-179770J0D01*
G01*
%TO.C,L10*%
X15399318Y-9826000D02*
G75*
G03*
X14776682Y-9826000I-311318J-126000D01*
G01*
X14776682Y-10078000D02*
G75*
G03*
X15399318Y-10078000I311318J126000D01*
G01*
X15228400Y-9952000D02*
G75*
G03*
X15228400Y-9952000I-140400J0D01*
G01*
%TO.C,R9*%
X13616044Y-8079000D02*
X13761456Y-8079000D01*
X13616044Y-8261000D02*
X13761456Y-8261000D01*
%TO.C,L11*%
X16210000Y-10503318D02*
G75*
G03*
X16210000Y-9880682I-126000J311318D01*
G01*
X15958000Y-9880682D02*
G75*
G03*
X15958000Y-10503318I126000J-311318D01*
G01*
X16224400Y-10192000D02*
G75*
G03*
X16224400Y-10192000I-140400J0D01*
G01*
%TO.C,C12*%
X14145000Y-9416900D02*
X14145000Y-9483500D01*
X14145000Y-9416900D02*
X14679000Y-9416900D01*
X14145000Y-9694500D02*
X14145000Y-9761100D01*
X14145000Y-9761100D02*
X14679000Y-9761100D01*
X14679000Y-9416900D02*
X14679000Y-9483500D01*
X14679000Y-9694500D02*
X14679000Y-9761100D01*
%TO.C,R6*%
X13622000Y-6939294D02*
X13622000Y-7084706D01*
X13440000Y-6939294D02*
X13440000Y-7084706D01*
%TO.C,C3*%
X16176000Y-6225900D02*
X16176000Y-6292500D01*
X16176000Y-6225900D02*
X16710000Y-6225900D01*
X16176000Y-6503500D02*
X16176000Y-6570100D01*
X16176000Y-6570100D02*
X16710000Y-6570100D01*
X16710000Y-6225900D02*
X16710000Y-6292500D01*
X16710000Y-6503500D02*
X16710000Y-6570100D01*
%TO.C,L5*%
X17512432Y-8503000D02*
G75*
G03*
X16763568Y-8503000I-374432J-146000D01*
G01*
X16763568Y-8795000D02*
G75*
G03*
X17512432Y-8795000I374432J146000D01*
G01*
X17317770Y-8649000D02*
G75*
G03*
X17317770Y-8649000I-179770J0D01*
G01*
%TO.C,L6*%
X18055432Y-7636000D02*
G75*
G03*
X17306568Y-7636000I-374432J-146000D01*
G01*
X17306568Y-7928000D02*
G75*
G03*
X18055432Y-7928000I374432J146000D01*
G01*
X17860770Y-7782000D02*
G75*
G03*
X17860770Y-7782000I-179770J0D01*
G01*
%TO.C,L9*%
X18087318Y-9317000D02*
G75*
G03*
X17464682Y-9317000I-311318J-126000D01*
G01*
X17464682Y-9569000D02*
G75*
G03*
X18087318Y-9569000I311318J126000D01*
G01*
X17916400Y-9443000D02*
G75*
G03*
X17916400Y-9443000I-140400J0D01*
G01*
%TO.C,U1*%
X13429125Y-9272750D02*
X13429125Y-8912750D01*
X13429125Y-9272750D02*
X13429125Y-9492750D01*
X12882125Y-9272750D02*
X12882125Y-9052750D01*
X12882125Y-9272750D02*
X12882125Y-9492750D01*
%TD*%
M02*
