%TF.GenerationSoftware,KiCad,Pcbnew,7.0.1*%
%TF.CreationDate,2023-09-27T15:44:37+00:00*%
%TF.ProjectId,Filter,46696c74-6572-42e6-9b69-6361645f7063,rev?*%
%TF.SameCoordinates,Original*%
%TF.FileFunction,Drillmap*%
%TF.FilePolarity,Positive*%
%FSLAX45Y45*%
G04 Gerber Fmt 4.5, Leading zero omitted, Abs format (unit mm)*
G04 Created by KiCad (PCBNEW 7.0.1) date 2023-09-27 15:44:37*
%MOMM*%
%LPD*%
G01*
G04 APERTURE LIST*
%ADD10C,0.100000*%
%ADD11C,0.200000*%
%ADD12C,0.040000*%
%ADD13C,0.150000*%
%ADD14C,0.170000*%
G04 APERTURE END LIST*
D10*
X9255000Y-7620000D02*
X18222500Y-7620000D01*
X18222500Y-10600000D01*
X9255000Y-10600000D01*
X9255000Y-7620000D01*
D11*
X9807851Y-7885000D02*
G75*
G03*
X9807851Y-7885000I-160351J0D01*
G01*
X17915351Y-7890000D02*
G75*
G03*
X17915351Y-7890000I-160351J0D01*
G01*
X17922851Y-10315000D02*
G75*
G03*
X17922851Y-10315000I-160351J0D01*
G01*
X9807851Y-10312500D02*
G75*
G03*
X9807851Y-10312500I-160351J0D01*
G01*
D12*
X11497500Y-9602500D02*
X11537500Y-9642500D01*
X11537500Y-9602500D02*
X11497500Y-9642500D01*
X11912500Y-9275000D02*
X11952500Y-9315000D01*
X11952500Y-9275000D02*
X11912500Y-9315000D01*
X11995000Y-9401000D02*
X12035000Y-9441000D01*
X12035000Y-9401000D02*
X11995000Y-9441000D01*
X15522500Y-9467500D02*
X15562500Y-9507500D01*
X15562500Y-9467500D02*
X15522500Y-9507500D01*
X15537500Y-8350000D02*
X15577500Y-8390000D01*
X15577500Y-8350000D02*
X15537500Y-8390000D01*
X15550000Y-9762500D02*
X15590000Y-9802500D01*
X15590000Y-9762500D02*
X15550000Y-9802500D01*
X15552500Y-8647500D02*
X15592500Y-8687500D01*
X15592500Y-8647500D02*
X15552500Y-8687500D01*
X15665000Y-9620000D02*
X15705000Y-9660000D01*
X15705000Y-9620000D02*
X15665000Y-9660000D01*
X15746250Y-9276000D02*
X15786250Y-9316000D01*
X15786250Y-9276000D02*
X15746250Y-9316000D01*
X15945000Y-9910000D02*
X15985000Y-9950000D01*
X15985000Y-9910000D02*
X15945000Y-9950000D01*
X16085000Y-9400000D02*
X16125000Y-9440000D01*
X16125000Y-9400000D02*
X16085000Y-9440000D01*
X16275000Y-9532500D02*
X16315000Y-9572500D01*
X16315000Y-9532500D02*
X16275000Y-9572500D01*
X16649750Y-9403500D02*
X16689750Y-9443500D01*
X16689750Y-9403500D02*
X16649750Y-9443500D01*
D10*
X10480125Y-8360250D02*
G75*
G03*
X10480125Y-8360250I-50000J0D01*
G01*
X10480125Y-9460250D02*
G75*
G03*
X10480125Y-9460250I-50000J0D01*
G01*
X11080125Y-8360250D02*
G75*
G03*
X11080125Y-8360250I-50000J0D01*
G01*
X11080125Y-9460250D02*
G75*
G03*
X11080125Y-9460250I-50000J0D01*
G01*
X16517000Y-10159750D02*
G75*
G03*
X16517000Y-10159750I-50000J0D01*
G01*
X16771000Y-10159750D02*
G75*
G03*
X16771000Y-10159750I-50000J0D01*
G01*
X17025000Y-10159750D02*
G75*
G03*
X17025000Y-10159750I-50000J0D01*
G01*
X17279000Y-10159750D02*
G75*
G03*
X17279000Y-10159750I-50000J0D01*
G01*
D13*
X9673750Y-8819250D02*
X9673750Y-8969250D01*
X9598750Y-8894250D02*
X9748750Y-8894250D01*
X17759750Y-8711500D02*
X17759750Y-8861500D01*
X17684750Y-8786500D02*
X17834750Y-8786500D01*
D14*
X9479855Y-8700355D02*
X9479855Y-8580145D01*
X9359645Y-8580145D01*
X9359645Y-8700355D01*
X9479855Y-8700355D01*
X9479855Y-9208355D02*
X9479855Y-9088145D01*
X9359645Y-9088145D01*
X9359645Y-9208355D01*
X9479855Y-9208355D01*
X9987855Y-8700355D02*
X9987855Y-8580145D01*
X9867645Y-8580145D01*
X9867645Y-8700355D01*
X9987855Y-8700355D01*
X9987855Y-9208355D02*
X9987855Y-9088145D01*
X9867645Y-9088145D01*
X9867645Y-9208355D01*
X9987855Y-9208355D01*
X17565855Y-8592605D02*
X17565855Y-8472395D01*
X17445645Y-8472395D01*
X17445645Y-8592605D01*
X17565855Y-8592605D01*
X17565855Y-9100605D02*
X17565855Y-8980395D01*
X17445645Y-8980395D01*
X17445645Y-9100605D01*
X17565855Y-9100605D01*
X18073855Y-8592605D02*
X18073855Y-8472395D01*
X17953645Y-8472395D01*
X17953645Y-8592605D01*
X18073855Y-8592605D01*
X18073855Y-9100605D02*
X18073855Y-8980395D01*
X17953645Y-8980395D01*
X17953645Y-9100605D01*
X18073855Y-9100605D01*
D11*
X9466369Y-10917524D02*
X9466369Y-10717524D01*
X9466369Y-10717524D02*
X9513988Y-10717524D01*
X9513988Y-10717524D02*
X9542560Y-10727048D01*
X9542560Y-10727048D02*
X9561607Y-10746095D01*
X9561607Y-10746095D02*
X9571131Y-10765143D01*
X9571131Y-10765143D02*
X9580655Y-10803238D01*
X9580655Y-10803238D02*
X9580655Y-10831810D01*
X9580655Y-10831810D02*
X9571131Y-10869905D01*
X9571131Y-10869905D02*
X9561607Y-10888952D01*
X9561607Y-10888952D02*
X9542560Y-10908000D01*
X9542560Y-10908000D02*
X9513988Y-10917524D01*
X9513988Y-10917524D02*
X9466369Y-10917524D01*
X9666369Y-10917524D02*
X9666369Y-10784190D01*
X9666369Y-10822286D02*
X9675893Y-10803238D01*
X9675893Y-10803238D02*
X9685417Y-10793714D01*
X9685417Y-10793714D02*
X9704464Y-10784190D01*
X9704464Y-10784190D02*
X9723512Y-10784190D01*
X9790179Y-10917524D02*
X9790179Y-10784190D01*
X9790179Y-10717524D02*
X9780655Y-10727048D01*
X9780655Y-10727048D02*
X9790179Y-10736571D01*
X9790179Y-10736571D02*
X9799702Y-10727048D01*
X9799702Y-10727048D02*
X9790179Y-10717524D01*
X9790179Y-10717524D02*
X9790179Y-10736571D01*
X9913988Y-10917524D02*
X9894940Y-10908000D01*
X9894940Y-10908000D02*
X9885417Y-10888952D01*
X9885417Y-10888952D02*
X9885417Y-10717524D01*
X10018750Y-10917524D02*
X9999702Y-10908000D01*
X9999702Y-10908000D02*
X9990179Y-10888952D01*
X9990179Y-10888952D02*
X9990179Y-10717524D01*
X10247321Y-10917524D02*
X10247321Y-10717524D01*
X10247321Y-10717524D02*
X10313988Y-10860381D01*
X10313988Y-10860381D02*
X10380655Y-10717524D01*
X10380655Y-10717524D02*
X10380655Y-10917524D01*
X10561607Y-10917524D02*
X10561607Y-10812762D01*
X10561607Y-10812762D02*
X10552083Y-10793714D01*
X10552083Y-10793714D02*
X10533036Y-10784190D01*
X10533036Y-10784190D02*
X10494940Y-10784190D01*
X10494940Y-10784190D02*
X10475893Y-10793714D01*
X10561607Y-10908000D02*
X10542560Y-10917524D01*
X10542560Y-10917524D02*
X10494940Y-10917524D01*
X10494940Y-10917524D02*
X10475893Y-10908000D01*
X10475893Y-10908000D02*
X10466369Y-10888952D01*
X10466369Y-10888952D02*
X10466369Y-10869905D01*
X10466369Y-10869905D02*
X10475893Y-10850857D01*
X10475893Y-10850857D02*
X10494940Y-10841333D01*
X10494940Y-10841333D02*
X10542560Y-10841333D01*
X10542560Y-10841333D02*
X10561607Y-10831810D01*
X10656845Y-10784190D02*
X10656845Y-10984190D01*
X10656845Y-10793714D02*
X10675893Y-10784190D01*
X10675893Y-10784190D02*
X10713988Y-10784190D01*
X10713988Y-10784190D02*
X10733036Y-10793714D01*
X10733036Y-10793714D02*
X10742560Y-10803238D01*
X10742560Y-10803238D02*
X10752083Y-10822286D01*
X10752083Y-10822286D02*
X10752083Y-10879429D01*
X10752083Y-10879429D02*
X10742560Y-10898476D01*
X10742560Y-10898476D02*
X10733036Y-10908000D01*
X10733036Y-10908000D02*
X10713988Y-10917524D01*
X10713988Y-10917524D02*
X10675893Y-10917524D01*
X10675893Y-10917524D02*
X10656845Y-10908000D01*
X10837798Y-10898476D02*
X10847321Y-10908000D01*
X10847321Y-10908000D02*
X10837798Y-10917524D01*
X10837798Y-10917524D02*
X10828274Y-10908000D01*
X10828274Y-10908000D02*
X10837798Y-10898476D01*
X10837798Y-10898476D02*
X10837798Y-10917524D01*
X10837798Y-10793714D02*
X10847321Y-10803238D01*
X10847321Y-10803238D02*
X10837798Y-10812762D01*
X10837798Y-10812762D02*
X10828274Y-10803238D01*
X10828274Y-10803238D02*
X10837798Y-10793714D01*
X10837798Y-10793714D02*
X10837798Y-10812762D01*
D12*
X9178750Y-11225000D02*
X9218750Y-11265000D01*
X9218750Y-11225000D02*
X9178750Y-11265000D01*
D11*
X9504464Y-11137524D02*
X9523512Y-11137524D01*
X9523512Y-11137524D02*
X9542560Y-11147048D01*
X9542560Y-11147048D02*
X9552083Y-11156571D01*
X9552083Y-11156571D02*
X9561607Y-11175619D01*
X9561607Y-11175619D02*
X9571131Y-11213714D01*
X9571131Y-11213714D02*
X9571131Y-11261333D01*
X9571131Y-11261333D02*
X9561607Y-11299428D01*
X9561607Y-11299428D02*
X9552083Y-11318476D01*
X9552083Y-11318476D02*
X9542560Y-11328000D01*
X9542560Y-11328000D02*
X9523512Y-11337524D01*
X9523512Y-11337524D02*
X9504464Y-11337524D01*
X9504464Y-11337524D02*
X9485417Y-11328000D01*
X9485417Y-11328000D02*
X9475893Y-11318476D01*
X9475893Y-11318476D02*
X9466369Y-11299428D01*
X9466369Y-11299428D02*
X9456845Y-11261333D01*
X9456845Y-11261333D02*
X9456845Y-11213714D01*
X9456845Y-11213714D02*
X9466369Y-11175619D01*
X9466369Y-11175619D02*
X9475893Y-11156571D01*
X9475893Y-11156571D02*
X9485417Y-11147048D01*
X9485417Y-11147048D02*
X9504464Y-11137524D01*
X9656845Y-11318476D02*
X9666369Y-11328000D01*
X9666369Y-11328000D02*
X9656845Y-11337524D01*
X9656845Y-11337524D02*
X9647321Y-11328000D01*
X9647321Y-11328000D02*
X9656845Y-11318476D01*
X9656845Y-11318476D02*
X9656845Y-11337524D01*
X9837798Y-11204190D02*
X9837798Y-11337524D01*
X9790179Y-11128000D02*
X9742560Y-11270857D01*
X9742560Y-11270857D02*
X9866369Y-11270857D01*
X9980655Y-11137524D02*
X9999702Y-11137524D01*
X9999702Y-11137524D02*
X10018750Y-11147048D01*
X10018750Y-11147048D02*
X10028274Y-11156571D01*
X10028274Y-11156571D02*
X10037798Y-11175619D01*
X10037798Y-11175619D02*
X10047321Y-11213714D01*
X10047321Y-11213714D02*
X10047321Y-11261333D01*
X10047321Y-11261333D02*
X10037798Y-11299428D01*
X10037798Y-11299428D02*
X10028274Y-11318476D01*
X10028274Y-11318476D02*
X10018750Y-11328000D01*
X10018750Y-11328000D02*
X9999702Y-11337524D01*
X9999702Y-11337524D02*
X9980655Y-11337524D01*
X9980655Y-11337524D02*
X9961607Y-11328000D01*
X9961607Y-11328000D02*
X9952083Y-11318476D01*
X9952083Y-11318476D02*
X9942560Y-11299428D01*
X9942560Y-11299428D02*
X9933036Y-11261333D01*
X9933036Y-11261333D02*
X9933036Y-11213714D01*
X9933036Y-11213714D02*
X9942560Y-11175619D01*
X9942560Y-11175619D02*
X9952083Y-11156571D01*
X9952083Y-11156571D02*
X9961607Y-11147048D01*
X9961607Y-11147048D02*
X9980655Y-11137524D01*
X10171131Y-11137524D02*
X10190179Y-11137524D01*
X10190179Y-11137524D02*
X10209226Y-11147048D01*
X10209226Y-11147048D02*
X10218750Y-11156571D01*
X10218750Y-11156571D02*
X10228274Y-11175619D01*
X10228274Y-11175619D02*
X10237798Y-11213714D01*
X10237798Y-11213714D02*
X10237798Y-11261333D01*
X10237798Y-11261333D02*
X10228274Y-11299428D01*
X10228274Y-11299428D02*
X10218750Y-11318476D01*
X10218750Y-11318476D02*
X10209226Y-11328000D01*
X10209226Y-11328000D02*
X10190179Y-11337524D01*
X10190179Y-11337524D02*
X10171131Y-11337524D01*
X10171131Y-11337524D02*
X10152083Y-11328000D01*
X10152083Y-11328000D02*
X10142560Y-11318476D01*
X10142560Y-11318476D02*
X10133036Y-11299428D01*
X10133036Y-11299428D02*
X10123512Y-11261333D01*
X10123512Y-11261333D02*
X10123512Y-11213714D01*
X10123512Y-11213714D02*
X10133036Y-11175619D01*
X10133036Y-11175619D02*
X10142560Y-11156571D01*
X10142560Y-11156571D02*
X10152083Y-11147048D01*
X10152083Y-11147048D02*
X10171131Y-11137524D01*
X10323512Y-11337524D02*
X10323512Y-11204190D01*
X10323512Y-11223238D02*
X10333036Y-11213714D01*
X10333036Y-11213714D02*
X10352083Y-11204190D01*
X10352083Y-11204190D02*
X10380655Y-11204190D01*
X10380655Y-11204190D02*
X10399702Y-11213714D01*
X10399702Y-11213714D02*
X10409226Y-11232762D01*
X10409226Y-11232762D02*
X10409226Y-11337524D01*
X10409226Y-11232762D02*
X10418750Y-11213714D01*
X10418750Y-11213714D02*
X10437798Y-11204190D01*
X10437798Y-11204190D02*
X10466369Y-11204190D01*
X10466369Y-11204190D02*
X10485417Y-11213714D01*
X10485417Y-11213714D02*
X10494941Y-11232762D01*
X10494941Y-11232762D02*
X10494941Y-11337524D01*
X10590179Y-11337524D02*
X10590179Y-11204190D01*
X10590179Y-11223238D02*
X10599702Y-11213714D01*
X10599702Y-11213714D02*
X10618750Y-11204190D01*
X10618750Y-11204190D02*
X10647322Y-11204190D01*
X10647322Y-11204190D02*
X10666369Y-11213714D01*
X10666369Y-11213714D02*
X10675893Y-11232762D01*
X10675893Y-11232762D02*
X10675893Y-11337524D01*
X10675893Y-11232762D02*
X10685417Y-11213714D01*
X10685417Y-11213714D02*
X10704464Y-11204190D01*
X10704464Y-11204190D02*
X10733036Y-11204190D01*
X10733036Y-11204190D02*
X10752083Y-11213714D01*
X10752083Y-11213714D02*
X10761607Y-11232762D01*
X10761607Y-11232762D02*
X10761607Y-11337524D01*
X11152083Y-11128000D02*
X10980655Y-11385143D01*
X11409226Y-11137524D02*
X11428274Y-11137524D01*
X11428274Y-11137524D02*
X11447322Y-11147048D01*
X11447322Y-11147048D02*
X11456845Y-11156571D01*
X11456845Y-11156571D02*
X11466369Y-11175619D01*
X11466369Y-11175619D02*
X11475893Y-11213714D01*
X11475893Y-11213714D02*
X11475893Y-11261333D01*
X11475893Y-11261333D02*
X11466369Y-11299428D01*
X11466369Y-11299428D02*
X11456845Y-11318476D01*
X11456845Y-11318476D02*
X11447322Y-11328000D01*
X11447322Y-11328000D02*
X11428274Y-11337524D01*
X11428274Y-11337524D02*
X11409226Y-11337524D01*
X11409226Y-11337524D02*
X11390179Y-11328000D01*
X11390179Y-11328000D02*
X11380655Y-11318476D01*
X11380655Y-11318476D02*
X11371131Y-11299428D01*
X11371131Y-11299428D02*
X11361607Y-11261333D01*
X11361607Y-11261333D02*
X11361607Y-11213714D01*
X11361607Y-11213714D02*
X11371131Y-11175619D01*
X11371131Y-11175619D02*
X11380655Y-11156571D01*
X11380655Y-11156571D02*
X11390179Y-11147048D01*
X11390179Y-11147048D02*
X11409226Y-11137524D01*
X11561607Y-11318476D02*
X11571131Y-11328000D01*
X11571131Y-11328000D02*
X11561607Y-11337524D01*
X11561607Y-11337524D02*
X11552083Y-11328000D01*
X11552083Y-11328000D02*
X11561607Y-11318476D01*
X11561607Y-11318476D02*
X11561607Y-11337524D01*
X11694941Y-11137524D02*
X11713988Y-11137524D01*
X11713988Y-11137524D02*
X11733036Y-11147048D01*
X11733036Y-11147048D02*
X11742560Y-11156571D01*
X11742560Y-11156571D02*
X11752083Y-11175619D01*
X11752083Y-11175619D02*
X11761607Y-11213714D01*
X11761607Y-11213714D02*
X11761607Y-11261333D01*
X11761607Y-11261333D02*
X11752083Y-11299428D01*
X11752083Y-11299428D02*
X11742560Y-11318476D01*
X11742560Y-11318476D02*
X11733036Y-11328000D01*
X11733036Y-11328000D02*
X11713988Y-11337524D01*
X11713988Y-11337524D02*
X11694941Y-11337524D01*
X11694941Y-11337524D02*
X11675893Y-11328000D01*
X11675893Y-11328000D02*
X11666369Y-11318476D01*
X11666369Y-11318476D02*
X11656845Y-11299428D01*
X11656845Y-11299428D02*
X11647322Y-11261333D01*
X11647322Y-11261333D02*
X11647322Y-11213714D01*
X11647322Y-11213714D02*
X11656845Y-11175619D01*
X11656845Y-11175619D02*
X11666369Y-11156571D01*
X11666369Y-11156571D02*
X11675893Y-11147048D01*
X11675893Y-11147048D02*
X11694941Y-11137524D01*
X11952083Y-11337524D02*
X11837798Y-11337524D01*
X11894941Y-11337524D02*
X11894941Y-11137524D01*
X11894941Y-11137524D02*
X11875893Y-11166095D01*
X11875893Y-11166095D02*
X11856845Y-11185143D01*
X11856845Y-11185143D02*
X11837798Y-11194667D01*
X12133036Y-11137524D02*
X12037798Y-11137524D01*
X12037798Y-11137524D02*
X12028274Y-11232762D01*
X12028274Y-11232762D02*
X12037798Y-11223238D01*
X12037798Y-11223238D02*
X12056845Y-11213714D01*
X12056845Y-11213714D02*
X12104464Y-11213714D01*
X12104464Y-11213714D02*
X12123512Y-11223238D01*
X12123512Y-11223238D02*
X12133036Y-11232762D01*
X12133036Y-11232762D02*
X12142560Y-11251809D01*
X12142560Y-11251809D02*
X12142560Y-11299428D01*
X12142560Y-11299428D02*
X12133036Y-11318476D01*
X12133036Y-11318476D02*
X12123512Y-11328000D01*
X12123512Y-11328000D02*
X12104464Y-11337524D01*
X12104464Y-11337524D02*
X12056845Y-11337524D01*
X12056845Y-11337524D02*
X12037798Y-11328000D01*
X12037798Y-11328000D02*
X12028274Y-11318476D01*
X12209226Y-11137524D02*
X12342560Y-11137524D01*
X12342560Y-11137524D02*
X12256845Y-11337524D01*
X12409226Y-11137524D02*
X12409226Y-11175619D01*
X12485417Y-11137524D02*
X12485417Y-11175619D01*
X12780655Y-11413714D02*
X12771131Y-11404190D01*
X12771131Y-11404190D02*
X12752084Y-11375619D01*
X12752084Y-11375619D02*
X12742560Y-11356571D01*
X12742560Y-11356571D02*
X12733036Y-11328000D01*
X12733036Y-11328000D02*
X12723512Y-11280381D01*
X12723512Y-11280381D02*
X12723512Y-11242286D01*
X12723512Y-11242286D02*
X12733036Y-11194667D01*
X12733036Y-11194667D02*
X12742560Y-11166095D01*
X12742560Y-11166095D02*
X12752084Y-11147048D01*
X12752084Y-11147048D02*
X12771131Y-11118476D01*
X12771131Y-11118476D02*
X12780655Y-11108952D01*
X12961607Y-11337524D02*
X12847322Y-11337524D01*
X12904464Y-11337524D02*
X12904464Y-11137524D01*
X12904464Y-11137524D02*
X12885417Y-11166095D01*
X12885417Y-11166095D02*
X12866369Y-11185143D01*
X12866369Y-11185143D02*
X12847322Y-11194667D01*
X13028274Y-11137524D02*
X13152084Y-11137524D01*
X13152084Y-11137524D02*
X13085417Y-11213714D01*
X13085417Y-11213714D02*
X13113988Y-11213714D01*
X13113988Y-11213714D02*
X13133036Y-11223238D01*
X13133036Y-11223238D02*
X13142560Y-11232762D01*
X13142560Y-11232762D02*
X13152084Y-11251809D01*
X13152084Y-11251809D02*
X13152084Y-11299428D01*
X13152084Y-11299428D02*
X13142560Y-11318476D01*
X13142560Y-11318476D02*
X13133036Y-11328000D01*
X13133036Y-11328000D02*
X13113988Y-11337524D01*
X13113988Y-11337524D02*
X13056845Y-11337524D01*
X13056845Y-11337524D02*
X13037798Y-11328000D01*
X13037798Y-11328000D02*
X13028274Y-11318476D01*
X13390179Y-11337524D02*
X13390179Y-11137524D01*
X13475893Y-11337524D02*
X13475893Y-11232762D01*
X13475893Y-11232762D02*
X13466369Y-11213714D01*
X13466369Y-11213714D02*
X13447322Y-11204190D01*
X13447322Y-11204190D02*
X13418750Y-11204190D01*
X13418750Y-11204190D02*
X13399703Y-11213714D01*
X13399703Y-11213714D02*
X13390179Y-11223238D01*
X13599703Y-11337524D02*
X13580655Y-11328000D01*
X13580655Y-11328000D02*
X13571131Y-11318476D01*
X13571131Y-11318476D02*
X13561607Y-11299428D01*
X13561607Y-11299428D02*
X13561607Y-11242286D01*
X13561607Y-11242286D02*
X13571131Y-11223238D01*
X13571131Y-11223238D02*
X13580655Y-11213714D01*
X13580655Y-11213714D02*
X13599703Y-11204190D01*
X13599703Y-11204190D02*
X13628274Y-11204190D01*
X13628274Y-11204190D02*
X13647322Y-11213714D01*
X13647322Y-11213714D02*
X13656846Y-11223238D01*
X13656846Y-11223238D02*
X13666369Y-11242286D01*
X13666369Y-11242286D02*
X13666369Y-11299428D01*
X13666369Y-11299428D02*
X13656846Y-11318476D01*
X13656846Y-11318476D02*
X13647322Y-11328000D01*
X13647322Y-11328000D02*
X13628274Y-11337524D01*
X13628274Y-11337524D02*
X13599703Y-11337524D01*
X13780655Y-11337524D02*
X13761607Y-11328000D01*
X13761607Y-11328000D02*
X13752084Y-11308952D01*
X13752084Y-11308952D02*
X13752084Y-11137524D01*
X13933036Y-11328000D02*
X13913988Y-11337524D01*
X13913988Y-11337524D02*
X13875893Y-11337524D01*
X13875893Y-11337524D02*
X13856846Y-11328000D01*
X13856846Y-11328000D02*
X13847322Y-11308952D01*
X13847322Y-11308952D02*
X13847322Y-11232762D01*
X13847322Y-11232762D02*
X13856846Y-11213714D01*
X13856846Y-11213714D02*
X13875893Y-11204190D01*
X13875893Y-11204190D02*
X13913988Y-11204190D01*
X13913988Y-11204190D02*
X13933036Y-11213714D01*
X13933036Y-11213714D02*
X13942560Y-11232762D01*
X13942560Y-11232762D02*
X13942560Y-11251809D01*
X13942560Y-11251809D02*
X13847322Y-11270857D01*
X14018750Y-11328000D02*
X14037798Y-11337524D01*
X14037798Y-11337524D02*
X14075893Y-11337524D01*
X14075893Y-11337524D02*
X14094941Y-11328000D01*
X14094941Y-11328000D02*
X14104465Y-11308952D01*
X14104465Y-11308952D02*
X14104465Y-11299428D01*
X14104465Y-11299428D02*
X14094941Y-11280381D01*
X14094941Y-11280381D02*
X14075893Y-11270857D01*
X14075893Y-11270857D02*
X14047322Y-11270857D01*
X14047322Y-11270857D02*
X14028274Y-11261333D01*
X14028274Y-11261333D02*
X14018750Y-11242286D01*
X14018750Y-11242286D02*
X14018750Y-11232762D01*
X14018750Y-11232762D02*
X14028274Y-11213714D01*
X14028274Y-11213714D02*
X14047322Y-11204190D01*
X14047322Y-11204190D02*
X14075893Y-11204190D01*
X14075893Y-11204190D02*
X14094941Y-11213714D01*
X14171131Y-11413714D02*
X14180655Y-11404190D01*
X14180655Y-11404190D02*
X14199703Y-11375619D01*
X14199703Y-11375619D02*
X14209227Y-11356571D01*
X14209227Y-11356571D02*
X14218750Y-11328000D01*
X14218750Y-11328000D02*
X14228274Y-11280381D01*
X14228274Y-11280381D02*
X14228274Y-11242286D01*
X14228274Y-11242286D02*
X14218750Y-11194667D01*
X14218750Y-11194667D02*
X14209227Y-11166095D01*
X14209227Y-11166095D02*
X14199703Y-11147048D01*
X14199703Y-11147048D02*
X14180655Y-11118476D01*
X14180655Y-11118476D02*
X14171131Y-11108952D01*
D10*
X9218750Y-11509000D02*
G75*
G03*
X9218750Y-11509000I-50000J0D01*
G01*
D11*
X9571131Y-11601524D02*
X9456845Y-11601524D01*
X9513988Y-11601524D02*
X9513988Y-11401524D01*
X9513988Y-11401524D02*
X9494940Y-11430095D01*
X9494940Y-11430095D02*
X9475893Y-11449143D01*
X9475893Y-11449143D02*
X9456845Y-11458667D01*
X9656845Y-11582476D02*
X9666369Y-11592000D01*
X9666369Y-11592000D02*
X9656845Y-11601524D01*
X9656845Y-11601524D02*
X9647321Y-11592000D01*
X9647321Y-11592000D02*
X9656845Y-11582476D01*
X9656845Y-11582476D02*
X9656845Y-11601524D01*
X9790179Y-11401524D02*
X9809226Y-11401524D01*
X9809226Y-11401524D02*
X9828274Y-11411048D01*
X9828274Y-11411048D02*
X9837798Y-11420571D01*
X9837798Y-11420571D02*
X9847321Y-11439619D01*
X9847321Y-11439619D02*
X9856845Y-11477714D01*
X9856845Y-11477714D02*
X9856845Y-11525333D01*
X9856845Y-11525333D02*
X9847321Y-11563428D01*
X9847321Y-11563428D02*
X9837798Y-11582476D01*
X9837798Y-11582476D02*
X9828274Y-11592000D01*
X9828274Y-11592000D02*
X9809226Y-11601524D01*
X9809226Y-11601524D02*
X9790179Y-11601524D01*
X9790179Y-11601524D02*
X9771131Y-11592000D01*
X9771131Y-11592000D02*
X9761607Y-11582476D01*
X9761607Y-11582476D02*
X9752083Y-11563428D01*
X9752083Y-11563428D02*
X9742560Y-11525333D01*
X9742560Y-11525333D02*
X9742560Y-11477714D01*
X9742560Y-11477714D02*
X9752083Y-11439619D01*
X9752083Y-11439619D02*
X9761607Y-11420571D01*
X9761607Y-11420571D02*
X9771131Y-11411048D01*
X9771131Y-11411048D02*
X9790179Y-11401524D01*
X9980655Y-11401524D02*
X9999702Y-11401524D01*
X9999702Y-11401524D02*
X10018750Y-11411048D01*
X10018750Y-11411048D02*
X10028274Y-11420571D01*
X10028274Y-11420571D02*
X10037798Y-11439619D01*
X10037798Y-11439619D02*
X10047321Y-11477714D01*
X10047321Y-11477714D02*
X10047321Y-11525333D01*
X10047321Y-11525333D02*
X10037798Y-11563428D01*
X10037798Y-11563428D02*
X10028274Y-11582476D01*
X10028274Y-11582476D02*
X10018750Y-11592000D01*
X10018750Y-11592000D02*
X9999702Y-11601524D01*
X9999702Y-11601524D02*
X9980655Y-11601524D01*
X9980655Y-11601524D02*
X9961607Y-11592000D01*
X9961607Y-11592000D02*
X9952083Y-11582476D01*
X9952083Y-11582476D02*
X9942560Y-11563428D01*
X9942560Y-11563428D02*
X9933036Y-11525333D01*
X9933036Y-11525333D02*
X9933036Y-11477714D01*
X9933036Y-11477714D02*
X9942560Y-11439619D01*
X9942560Y-11439619D02*
X9952083Y-11420571D01*
X9952083Y-11420571D02*
X9961607Y-11411048D01*
X9961607Y-11411048D02*
X9980655Y-11401524D01*
X10171131Y-11401524D02*
X10190179Y-11401524D01*
X10190179Y-11401524D02*
X10209226Y-11411048D01*
X10209226Y-11411048D02*
X10218750Y-11420571D01*
X10218750Y-11420571D02*
X10228274Y-11439619D01*
X10228274Y-11439619D02*
X10237798Y-11477714D01*
X10237798Y-11477714D02*
X10237798Y-11525333D01*
X10237798Y-11525333D02*
X10228274Y-11563428D01*
X10228274Y-11563428D02*
X10218750Y-11582476D01*
X10218750Y-11582476D02*
X10209226Y-11592000D01*
X10209226Y-11592000D02*
X10190179Y-11601524D01*
X10190179Y-11601524D02*
X10171131Y-11601524D01*
X10171131Y-11601524D02*
X10152083Y-11592000D01*
X10152083Y-11592000D02*
X10142560Y-11582476D01*
X10142560Y-11582476D02*
X10133036Y-11563428D01*
X10133036Y-11563428D02*
X10123512Y-11525333D01*
X10123512Y-11525333D02*
X10123512Y-11477714D01*
X10123512Y-11477714D02*
X10133036Y-11439619D01*
X10133036Y-11439619D02*
X10142560Y-11420571D01*
X10142560Y-11420571D02*
X10152083Y-11411048D01*
X10152083Y-11411048D02*
X10171131Y-11401524D01*
X10323512Y-11601524D02*
X10323512Y-11468190D01*
X10323512Y-11487238D02*
X10333036Y-11477714D01*
X10333036Y-11477714D02*
X10352083Y-11468190D01*
X10352083Y-11468190D02*
X10380655Y-11468190D01*
X10380655Y-11468190D02*
X10399702Y-11477714D01*
X10399702Y-11477714D02*
X10409226Y-11496762D01*
X10409226Y-11496762D02*
X10409226Y-11601524D01*
X10409226Y-11496762D02*
X10418750Y-11477714D01*
X10418750Y-11477714D02*
X10437798Y-11468190D01*
X10437798Y-11468190D02*
X10466369Y-11468190D01*
X10466369Y-11468190D02*
X10485417Y-11477714D01*
X10485417Y-11477714D02*
X10494941Y-11496762D01*
X10494941Y-11496762D02*
X10494941Y-11601524D01*
X10590179Y-11601524D02*
X10590179Y-11468190D01*
X10590179Y-11487238D02*
X10599702Y-11477714D01*
X10599702Y-11477714D02*
X10618750Y-11468190D01*
X10618750Y-11468190D02*
X10647322Y-11468190D01*
X10647322Y-11468190D02*
X10666369Y-11477714D01*
X10666369Y-11477714D02*
X10675893Y-11496762D01*
X10675893Y-11496762D02*
X10675893Y-11601524D01*
X10675893Y-11496762D02*
X10685417Y-11477714D01*
X10685417Y-11477714D02*
X10704464Y-11468190D01*
X10704464Y-11468190D02*
X10733036Y-11468190D01*
X10733036Y-11468190D02*
X10752083Y-11477714D01*
X10752083Y-11477714D02*
X10761607Y-11496762D01*
X10761607Y-11496762D02*
X10761607Y-11601524D01*
X11152083Y-11392000D02*
X10980655Y-11649143D01*
X11409226Y-11401524D02*
X11428274Y-11401524D01*
X11428274Y-11401524D02*
X11447322Y-11411048D01*
X11447322Y-11411048D02*
X11456845Y-11420571D01*
X11456845Y-11420571D02*
X11466369Y-11439619D01*
X11466369Y-11439619D02*
X11475893Y-11477714D01*
X11475893Y-11477714D02*
X11475893Y-11525333D01*
X11475893Y-11525333D02*
X11466369Y-11563428D01*
X11466369Y-11563428D02*
X11456845Y-11582476D01*
X11456845Y-11582476D02*
X11447322Y-11592000D01*
X11447322Y-11592000D02*
X11428274Y-11601524D01*
X11428274Y-11601524D02*
X11409226Y-11601524D01*
X11409226Y-11601524D02*
X11390179Y-11592000D01*
X11390179Y-11592000D02*
X11380655Y-11582476D01*
X11380655Y-11582476D02*
X11371131Y-11563428D01*
X11371131Y-11563428D02*
X11361607Y-11525333D01*
X11361607Y-11525333D02*
X11361607Y-11477714D01*
X11361607Y-11477714D02*
X11371131Y-11439619D01*
X11371131Y-11439619D02*
X11380655Y-11420571D01*
X11380655Y-11420571D02*
X11390179Y-11411048D01*
X11390179Y-11411048D02*
X11409226Y-11401524D01*
X11561607Y-11582476D02*
X11571131Y-11592000D01*
X11571131Y-11592000D02*
X11561607Y-11601524D01*
X11561607Y-11601524D02*
X11552083Y-11592000D01*
X11552083Y-11592000D02*
X11561607Y-11582476D01*
X11561607Y-11582476D02*
X11561607Y-11601524D01*
X11694941Y-11401524D02*
X11713988Y-11401524D01*
X11713988Y-11401524D02*
X11733036Y-11411048D01*
X11733036Y-11411048D02*
X11742560Y-11420571D01*
X11742560Y-11420571D02*
X11752083Y-11439619D01*
X11752083Y-11439619D02*
X11761607Y-11477714D01*
X11761607Y-11477714D02*
X11761607Y-11525333D01*
X11761607Y-11525333D02*
X11752083Y-11563428D01*
X11752083Y-11563428D02*
X11742560Y-11582476D01*
X11742560Y-11582476D02*
X11733036Y-11592000D01*
X11733036Y-11592000D02*
X11713988Y-11601524D01*
X11713988Y-11601524D02*
X11694941Y-11601524D01*
X11694941Y-11601524D02*
X11675893Y-11592000D01*
X11675893Y-11592000D02*
X11666369Y-11582476D01*
X11666369Y-11582476D02*
X11656845Y-11563428D01*
X11656845Y-11563428D02*
X11647322Y-11525333D01*
X11647322Y-11525333D02*
X11647322Y-11477714D01*
X11647322Y-11477714D02*
X11656845Y-11439619D01*
X11656845Y-11439619D02*
X11666369Y-11420571D01*
X11666369Y-11420571D02*
X11675893Y-11411048D01*
X11675893Y-11411048D02*
X11694941Y-11401524D01*
X11828274Y-11401524D02*
X11952083Y-11401524D01*
X11952083Y-11401524D02*
X11885417Y-11477714D01*
X11885417Y-11477714D02*
X11913988Y-11477714D01*
X11913988Y-11477714D02*
X11933036Y-11487238D01*
X11933036Y-11487238D02*
X11942560Y-11496762D01*
X11942560Y-11496762D02*
X11952083Y-11515809D01*
X11952083Y-11515809D02*
X11952083Y-11563428D01*
X11952083Y-11563428D02*
X11942560Y-11582476D01*
X11942560Y-11582476D02*
X11933036Y-11592000D01*
X11933036Y-11592000D02*
X11913988Y-11601524D01*
X11913988Y-11601524D02*
X11856845Y-11601524D01*
X11856845Y-11601524D02*
X11837798Y-11592000D01*
X11837798Y-11592000D02*
X11828274Y-11582476D01*
X12047322Y-11601524D02*
X12085417Y-11601524D01*
X12085417Y-11601524D02*
X12104464Y-11592000D01*
X12104464Y-11592000D02*
X12113988Y-11582476D01*
X12113988Y-11582476D02*
X12133036Y-11553905D01*
X12133036Y-11553905D02*
X12142560Y-11515809D01*
X12142560Y-11515809D02*
X12142560Y-11439619D01*
X12142560Y-11439619D02*
X12133036Y-11420571D01*
X12133036Y-11420571D02*
X12123512Y-11411048D01*
X12123512Y-11411048D02*
X12104464Y-11401524D01*
X12104464Y-11401524D02*
X12066369Y-11401524D01*
X12066369Y-11401524D02*
X12047322Y-11411048D01*
X12047322Y-11411048D02*
X12037798Y-11420571D01*
X12037798Y-11420571D02*
X12028274Y-11439619D01*
X12028274Y-11439619D02*
X12028274Y-11487238D01*
X12028274Y-11487238D02*
X12037798Y-11506286D01*
X12037798Y-11506286D02*
X12047322Y-11515809D01*
X12047322Y-11515809D02*
X12066369Y-11525333D01*
X12066369Y-11525333D02*
X12104464Y-11525333D01*
X12104464Y-11525333D02*
X12123512Y-11515809D01*
X12123512Y-11515809D02*
X12133036Y-11506286D01*
X12133036Y-11506286D02*
X12142560Y-11487238D01*
X12313988Y-11468190D02*
X12313988Y-11601524D01*
X12266369Y-11392000D02*
X12218750Y-11534857D01*
X12218750Y-11534857D02*
X12342560Y-11534857D01*
X12409226Y-11401524D02*
X12409226Y-11439619D01*
X12485417Y-11401524D02*
X12485417Y-11439619D01*
X12780655Y-11677714D02*
X12771131Y-11668190D01*
X12771131Y-11668190D02*
X12752084Y-11639619D01*
X12752084Y-11639619D02*
X12742560Y-11620571D01*
X12742560Y-11620571D02*
X12733036Y-11592000D01*
X12733036Y-11592000D02*
X12723512Y-11544381D01*
X12723512Y-11544381D02*
X12723512Y-11506286D01*
X12723512Y-11506286D02*
X12733036Y-11458667D01*
X12733036Y-11458667D02*
X12742560Y-11430095D01*
X12742560Y-11430095D02*
X12752084Y-11411048D01*
X12752084Y-11411048D02*
X12771131Y-11382476D01*
X12771131Y-11382476D02*
X12780655Y-11372952D01*
X12885417Y-11487238D02*
X12866369Y-11477714D01*
X12866369Y-11477714D02*
X12856845Y-11468190D01*
X12856845Y-11468190D02*
X12847322Y-11449143D01*
X12847322Y-11449143D02*
X12847322Y-11439619D01*
X12847322Y-11439619D02*
X12856845Y-11420571D01*
X12856845Y-11420571D02*
X12866369Y-11411048D01*
X12866369Y-11411048D02*
X12885417Y-11401524D01*
X12885417Y-11401524D02*
X12923512Y-11401524D01*
X12923512Y-11401524D02*
X12942560Y-11411048D01*
X12942560Y-11411048D02*
X12952084Y-11420571D01*
X12952084Y-11420571D02*
X12961607Y-11439619D01*
X12961607Y-11439619D02*
X12961607Y-11449143D01*
X12961607Y-11449143D02*
X12952084Y-11468190D01*
X12952084Y-11468190D02*
X12942560Y-11477714D01*
X12942560Y-11477714D02*
X12923512Y-11487238D01*
X12923512Y-11487238D02*
X12885417Y-11487238D01*
X12885417Y-11487238D02*
X12866369Y-11496762D01*
X12866369Y-11496762D02*
X12856845Y-11506286D01*
X12856845Y-11506286D02*
X12847322Y-11525333D01*
X12847322Y-11525333D02*
X12847322Y-11563428D01*
X12847322Y-11563428D02*
X12856845Y-11582476D01*
X12856845Y-11582476D02*
X12866369Y-11592000D01*
X12866369Y-11592000D02*
X12885417Y-11601524D01*
X12885417Y-11601524D02*
X12923512Y-11601524D01*
X12923512Y-11601524D02*
X12942560Y-11592000D01*
X12942560Y-11592000D02*
X12952084Y-11582476D01*
X12952084Y-11582476D02*
X12961607Y-11563428D01*
X12961607Y-11563428D02*
X12961607Y-11525333D01*
X12961607Y-11525333D02*
X12952084Y-11506286D01*
X12952084Y-11506286D02*
X12942560Y-11496762D01*
X12942560Y-11496762D02*
X12923512Y-11487238D01*
X13199703Y-11601524D02*
X13199703Y-11401524D01*
X13285417Y-11601524D02*
X13285417Y-11496762D01*
X13285417Y-11496762D02*
X13275893Y-11477714D01*
X13275893Y-11477714D02*
X13256846Y-11468190D01*
X13256846Y-11468190D02*
X13228274Y-11468190D01*
X13228274Y-11468190D02*
X13209226Y-11477714D01*
X13209226Y-11477714D02*
X13199703Y-11487238D01*
X13409226Y-11601524D02*
X13390179Y-11592000D01*
X13390179Y-11592000D02*
X13380655Y-11582476D01*
X13380655Y-11582476D02*
X13371131Y-11563428D01*
X13371131Y-11563428D02*
X13371131Y-11506286D01*
X13371131Y-11506286D02*
X13380655Y-11487238D01*
X13380655Y-11487238D02*
X13390179Y-11477714D01*
X13390179Y-11477714D02*
X13409226Y-11468190D01*
X13409226Y-11468190D02*
X13437798Y-11468190D01*
X13437798Y-11468190D02*
X13456846Y-11477714D01*
X13456846Y-11477714D02*
X13466369Y-11487238D01*
X13466369Y-11487238D02*
X13475893Y-11506286D01*
X13475893Y-11506286D02*
X13475893Y-11563428D01*
X13475893Y-11563428D02*
X13466369Y-11582476D01*
X13466369Y-11582476D02*
X13456846Y-11592000D01*
X13456846Y-11592000D02*
X13437798Y-11601524D01*
X13437798Y-11601524D02*
X13409226Y-11601524D01*
X13590179Y-11601524D02*
X13571131Y-11592000D01*
X13571131Y-11592000D02*
X13561607Y-11572952D01*
X13561607Y-11572952D02*
X13561607Y-11401524D01*
X13742560Y-11592000D02*
X13723512Y-11601524D01*
X13723512Y-11601524D02*
X13685417Y-11601524D01*
X13685417Y-11601524D02*
X13666369Y-11592000D01*
X13666369Y-11592000D02*
X13656846Y-11572952D01*
X13656846Y-11572952D02*
X13656846Y-11496762D01*
X13656846Y-11496762D02*
X13666369Y-11477714D01*
X13666369Y-11477714D02*
X13685417Y-11468190D01*
X13685417Y-11468190D02*
X13723512Y-11468190D01*
X13723512Y-11468190D02*
X13742560Y-11477714D01*
X13742560Y-11477714D02*
X13752084Y-11496762D01*
X13752084Y-11496762D02*
X13752084Y-11515809D01*
X13752084Y-11515809D02*
X13656846Y-11534857D01*
X13828274Y-11592000D02*
X13847322Y-11601524D01*
X13847322Y-11601524D02*
X13885417Y-11601524D01*
X13885417Y-11601524D02*
X13904465Y-11592000D01*
X13904465Y-11592000D02*
X13913988Y-11572952D01*
X13913988Y-11572952D02*
X13913988Y-11563428D01*
X13913988Y-11563428D02*
X13904465Y-11544381D01*
X13904465Y-11544381D02*
X13885417Y-11534857D01*
X13885417Y-11534857D02*
X13856846Y-11534857D01*
X13856846Y-11534857D02*
X13837798Y-11525333D01*
X13837798Y-11525333D02*
X13828274Y-11506286D01*
X13828274Y-11506286D02*
X13828274Y-11496762D01*
X13828274Y-11496762D02*
X13837798Y-11477714D01*
X13837798Y-11477714D02*
X13856846Y-11468190D01*
X13856846Y-11468190D02*
X13885417Y-11468190D01*
X13885417Y-11468190D02*
X13904465Y-11477714D01*
X13980655Y-11677714D02*
X13990179Y-11668190D01*
X13990179Y-11668190D02*
X14009227Y-11639619D01*
X14009227Y-11639619D02*
X14018750Y-11620571D01*
X14018750Y-11620571D02*
X14028274Y-11592000D01*
X14028274Y-11592000D02*
X14037798Y-11544381D01*
X14037798Y-11544381D02*
X14037798Y-11506286D01*
X14037798Y-11506286D02*
X14028274Y-11458667D01*
X14028274Y-11458667D02*
X14018750Y-11430095D01*
X14018750Y-11430095D02*
X14009227Y-11411048D01*
X14009227Y-11411048D02*
X13990179Y-11382476D01*
X13990179Y-11382476D02*
X13980655Y-11372952D01*
D13*
X9143750Y-11698000D02*
X9143750Y-11848000D01*
X9068750Y-11773000D02*
X9218750Y-11773000D01*
D11*
X9571131Y-11865524D02*
X9456845Y-11865524D01*
X9513988Y-11865524D02*
X9513988Y-11665524D01*
X9513988Y-11665524D02*
X9494940Y-11694095D01*
X9494940Y-11694095D02*
X9475893Y-11713143D01*
X9475893Y-11713143D02*
X9456845Y-11722667D01*
X9656845Y-11846476D02*
X9666369Y-11856000D01*
X9666369Y-11856000D02*
X9656845Y-11865524D01*
X9656845Y-11865524D02*
X9647321Y-11856000D01*
X9647321Y-11856000D02*
X9656845Y-11846476D01*
X9656845Y-11846476D02*
X9656845Y-11865524D01*
X9847321Y-11665524D02*
X9752083Y-11665524D01*
X9752083Y-11665524D02*
X9742560Y-11760762D01*
X9742560Y-11760762D02*
X9752083Y-11751238D01*
X9752083Y-11751238D02*
X9771131Y-11741714D01*
X9771131Y-11741714D02*
X9818750Y-11741714D01*
X9818750Y-11741714D02*
X9837798Y-11751238D01*
X9837798Y-11751238D02*
X9847321Y-11760762D01*
X9847321Y-11760762D02*
X9856845Y-11779809D01*
X9856845Y-11779809D02*
X9856845Y-11827428D01*
X9856845Y-11827428D02*
X9847321Y-11846476D01*
X9847321Y-11846476D02*
X9837798Y-11856000D01*
X9837798Y-11856000D02*
X9818750Y-11865524D01*
X9818750Y-11865524D02*
X9771131Y-11865524D01*
X9771131Y-11865524D02*
X9752083Y-11856000D01*
X9752083Y-11856000D02*
X9742560Y-11846476D01*
X9980655Y-11665524D02*
X9999702Y-11665524D01*
X9999702Y-11665524D02*
X10018750Y-11675048D01*
X10018750Y-11675048D02*
X10028274Y-11684571D01*
X10028274Y-11684571D02*
X10037798Y-11703619D01*
X10037798Y-11703619D02*
X10047321Y-11741714D01*
X10047321Y-11741714D02*
X10047321Y-11789333D01*
X10047321Y-11789333D02*
X10037798Y-11827428D01*
X10037798Y-11827428D02*
X10028274Y-11846476D01*
X10028274Y-11846476D02*
X10018750Y-11856000D01*
X10018750Y-11856000D02*
X9999702Y-11865524D01*
X9999702Y-11865524D02*
X9980655Y-11865524D01*
X9980655Y-11865524D02*
X9961607Y-11856000D01*
X9961607Y-11856000D02*
X9952083Y-11846476D01*
X9952083Y-11846476D02*
X9942560Y-11827428D01*
X9942560Y-11827428D02*
X9933036Y-11789333D01*
X9933036Y-11789333D02*
X9933036Y-11741714D01*
X9933036Y-11741714D02*
X9942560Y-11703619D01*
X9942560Y-11703619D02*
X9952083Y-11684571D01*
X9952083Y-11684571D02*
X9961607Y-11675048D01*
X9961607Y-11675048D02*
X9980655Y-11665524D01*
X10171131Y-11665524D02*
X10190179Y-11665524D01*
X10190179Y-11665524D02*
X10209226Y-11675048D01*
X10209226Y-11675048D02*
X10218750Y-11684571D01*
X10218750Y-11684571D02*
X10228274Y-11703619D01*
X10228274Y-11703619D02*
X10237798Y-11741714D01*
X10237798Y-11741714D02*
X10237798Y-11789333D01*
X10237798Y-11789333D02*
X10228274Y-11827428D01*
X10228274Y-11827428D02*
X10218750Y-11846476D01*
X10218750Y-11846476D02*
X10209226Y-11856000D01*
X10209226Y-11856000D02*
X10190179Y-11865524D01*
X10190179Y-11865524D02*
X10171131Y-11865524D01*
X10171131Y-11865524D02*
X10152083Y-11856000D01*
X10152083Y-11856000D02*
X10142560Y-11846476D01*
X10142560Y-11846476D02*
X10133036Y-11827428D01*
X10133036Y-11827428D02*
X10123512Y-11789333D01*
X10123512Y-11789333D02*
X10123512Y-11741714D01*
X10123512Y-11741714D02*
X10133036Y-11703619D01*
X10133036Y-11703619D02*
X10142560Y-11684571D01*
X10142560Y-11684571D02*
X10152083Y-11675048D01*
X10152083Y-11675048D02*
X10171131Y-11665524D01*
X10323512Y-11865524D02*
X10323512Y-11732190D01*
X10323512Y-11751238D02*
X10333036Y-11741714D01*
X10333036Y-11741714D02*
X10352083Y-11732190D01*
X10352083Y-11732190D02*
X10380655Y-11732190D01*
X10380655Y-11732190D02*
X10399702Y-11741714D01*
X10399702Y-11741714D02*
X10409226Y-11760762D01*
X10409226Y-11760762D02*
X10409226Y-11865524D01*
X10409226Y-11760762D02*
X10418750Y-11741714D01*
X10418750Y-11741714D02*
X10437798Y-11732190D01*
X10437798Y-11732190D02*
X10466369Y-11732190D01*
X10466369Y-11732190D02*
X10485417Y-11741714D01*
X10485417Y-11741714D02*
X10494941Y-11760762D01*
X10494941Y-11760762D02*
X10494941Y-11865524D01*
X10590179Y-11865524D02*
X10590179Y-11732190D01*
X10590179Y-11751238D02*
X10599702Y-11741714D01*
X10599702Y-11741714D02*
X10618750Y-11732190D01*
X10618750Y-11732190D02*
X10647322Y-11732190D01*
X10647322Y-11732190D02*
X10666369Y-11741714D01*
X10666369Y-11741714D02*
X10675893Y-11760762D01*
X10675893Y-11760762D02*
X10675893Y-11865524D01*
X10675893Y-11760762D02*
X10685417Y-11741714D01*
X10685417Y-11741714D02*
X10704464Y-11732190D01*
X10704464Y-11732190D02*
X10733036Y-11732190D01*
X10733036Y-11732190D02*
X10752083Y-11741714D01*
X10752083Y-11741714D02*
X10761607Y-11760762D01*
X10761607Y-11760762D02*
X10761607Y-11865524D01*
X11152083Y-11656000D02*
X10980655Y-11913143D01*
X11409226Y-11665524D02*
X11428274Y-11665524D01*
X11428274Y-11665524D02*
X11447322Y-11675048D01*
X11447322Y-11675048D02*
X11456845Y-11684571D01*
X11456845Y-11684571D02*
X11466369Y-11703619D01*
X11466369Y-11703619D02*
X11475893Y-11741714D01*
X11475893Y-11741714D02*
X11475893Y-11789333D01*
X11475893Y-11789333D02*
X11466369Y-11827428D01*
X11466369Y-11827428D02*
X11456845Y-11846476D01*
X11456845Y-11846476D02*
X11447322Y-11856000D01*
X11447322Y-11856000D02*
X11428274Y-11865524D01*
X11428274Y-11865524D02*
X11409226Y-11865524D01*
X11409226Y-11865524D02*
X11390179Y-11856000D01*
X11390179Y-11856000D02*
X11380655Y-11846476D01*
X11380655Y-11846476D02*
X11371131Y-11827428D01*
X11371131Y-11827428D02*
X11361607Y-11789333D01*
X11361607Y-11789333D02*
X11361607Y-11741714D01*
X11361607Y-11741714D02*
X11371131Y-11703619D01*
X11371131Y-11703619D02*
X11380655Y-11684571D01*
X11380655Y-11684571D02*
X11390179Y-11675048D01*
X11390179Y-11675048D02*
X11409226Y-11665524D01*
X11561607Y-11846476D02*
X11571131Y-11856000D01*
X11571131Y-11856000D02*
X11561607Y-11865524D01*
X11561607Y-11865524D02*
X11552083Y-11856000D01*
X11552083Y-11856000D02*
X11561607Y-11846476D01*
X11561607Y-11846476D02*
X11561607Y-11865524D01*
X11694941Y-11665524D02*
X11713988Y-11665524D01*
X11713988Y-11665524D02*
X11733036Y-11675048D01*
X11733036Y-11675048D02*
X11742560Y-11684571D01*
X11742560Y-11684571D02*
X11752083Y-11703619D01*
X11752083Y-11703619D02*
X11761607Y-11741714D01*
X11761607Y-11741714D02*
X11761607Y-11789333D01*
X11761607Y-11789333D02*
X11752083Y-11827428D01*
X11752083Y-11827428D02*
X11742560Y-11846476D01*
X11742560Y-11846476D02*
X11733036Y-11856000D01*
X11733036Y-11856000D02*
X11713988Y-11865524D01*
X11713988Y-11865524D02*
X11694941Y-11865524D01*
X11694941Y-11865524D02*
X11675893Y-11856000D01*
X11675893Y-11856000D02*
X11666369Y-11846476D01*
X11666369Y-11846476D02*
X11656845Y-11827428D01*
X11656845Y-11827428D02*
X11647322Y-11789333D01*
X11647322Y-11789333D02*
X11647322Y-11741714D01*
X11647322Y-11741714D02*
X11656845Y-11703619D01*
X11656845Y-11703619D02*
X11666369Y-11684571D01*
X11666369Y-11684571D02*
X11675893Y-11675048D01*
X11675893Y-11675048D02*
X11694941Y-11665524D01*
X11942560Y-11665524D02*
X11847322Y-11665524D01*
X11847322Y-11665524D02*
X11837798Y-11760762D01*
X11837798Y-11760762D02*
X11847322Y-11751238D01*
X11847322Y-11751238D02*
X11866369Y-11741714D01*
X11866369Y-11741714D02*
X11913988Y-11741714D01*
X11913988Y-11741714D02*
X11933036Y-11751238D01*
X11933036Y-11751238D02*
X11942560Y-11760762D01*
X11942560Y-11760762D02*
X11952083Y-11779809D01*
X11952083Y-11779809D02*
X11952083Y-11827428D01*
X11952083Y-11827428D02*
X11942560Y-11846476D01*
X11942560Y-11846476D02*
X11933036Y-11856000D01*
X11933036Y-11856000D02*
X11913988Y-11865524D01*
X11913988Y-11865524D02*
X11866369Y-11865524D01*
X11866369Y-11865524D02*
X11847322Y-11856000D01*
X11847322Y-11856000D02*
X11837798Y-11846476D01*
X12047322Y-11865524D02*
X12085417Y-11865524D01*
X12085417Y-11865524D02*
X12104464Y-11856000D01*
X12104464Y-11856000D02*
X12113988Y-11846476D01*
X12113988Y-11846476D02*
X12133036Y-11817905D01*
X12133036Y-11817905D02*
X12142560Y-11779809D01*
X12142560Y-11779809D02*
X12142560Y-11703619D01*
X12142560Y-11703619D02*
X12133036Y-11684571D01*
X12133036Y-11684571D02*
X12123512Y-11675048D01*
X12123512Y-11675048D02*
X12104464Y-11665524D01*
X12104464Y-11665524D02*
X12066369Y-11665524D01*
X12066369Y-11665524D02*
X12047322Y-11675048D01*
X12047322Y-11675048D02*
X12037798Y-11684571D01*
X12037798Y-11684571D02*
X12028274Y-11703619D01*
X12028274Y-11703619D02*
X12028274Y-11751238D01*
X12028274Y-11751238D02*
X12037798Y-11770286D01*
X12037798Y-11770286D02*
X12047322Y-11779809D01*
X12047322Y-11779809D02*
X12066369Y-11789333D01*
X12066369Y-11789333D02*
X12104464Y-11789333D01*
X12104464Y-11789333D02*
X12123512Y-11779809D01*
X12123512Y-11779809D02*
X12133036Y-11770286D01*
X12133036Y-11770286D02*
X12142560Y-11751238D01*
X12333036Y-11865524D02*
X12218750Y-11865524D01*
X12275893Y-11865524D02*
X12275893Y-11665524D01*
X12275893Y-11665524D02*
X12256845Y-11694095D01*
X12256845Y-11694095D02*
X12237798Y-11713143D01*
X12237798Y-11713143D02*
X12218750Y-11722667D01*
X12409226Y-11665524D02*
X12409226Y-11703619D01*
X12485417Y-11665524D02*
X12485417Y-11703619D01*
X12780655Y-11941714D02*
X12771131Y-11932190D01*
X12771131Y-11932190D02*
X12752084Y-11903619D01*
X12752084Y-11903619D02*
X12742560Y-11884571D01*
X12742560Y-11884571D02*
X12733036Y-11856000D01*
X12733036Y-11856000D02*
X12723512Y-11808381D01*
X12723512Y-11808381D02*
X12723512Y-11770286D01*
X12723512Y-11770286D02*
X12733036Y-11722667D01*
X12733036Y-11722667D02*
X12742560Y-11694095D01*
X12742560Y-11694095D02*
X12752084Y-11675048D01*
X12752084Y-11675048D02*
X12771131Y-11646476D01*
X12771131Y-11646476D02*
X12780655Y-11636952D01*
X12847322Y-11684571D02*
X12856845Y-11675048D01*
X12856845Y-11675048D02*
X12875893Y-11665524D01*
X12875893Y-11665524D02*
X12923512Y-11665524D01*
X12923512Y-11665524D02*
X12942560Y-11675048D01*
X12942560Y-11675048D02*
X12952084Y-11684571D01*
X12952084Y-11684571D02*
X12961607Y-11703619D01*
X12961607Y-11703619D02*
X12961607Y-11722667D01*
X12961607Y-11722667D02*
X12952084Y-11751238D01*
X12952084Y-11751238D02*
X12837798Y-11865524D01*
X12837798Y-11865524D02*
X12961607Y-11865524D01*
X13199703Y-11865524D02*
X13199703Y-11665524D01*
X13285417Y-11865524D02*
X13285417Y-11760762D01*
X13285417Y-11760762D02*
X13275893Y-11741714D01*
X13275893Y-11741714D02*
X13256846Y-11732190D01*
X13256846Y-11732190D02*
X13228274Y-11732190D01*
X13228274Y-11732190D02*
X13209226Y-11741714D01*
X13209226Y-11741714D02*
X13199703Y-11751238D01*
X13409226Y-11865524D02*
X13390179Y-11856000D01*
X13390179Y-11856000D02*
X13380655Y-11846476D01*
X13380655Y-11846476D02*
X13371131Y-11827428D01*
X13371131Y-11827428D02*
X13371131Y-11770286D01*
X13371131Y-11770286D02*
X13380655Y-11751238D01*
X13380655Y-11751238D02*
X13390179Y-11741714D01*
X13390179Y-11741714D02*
X13409226Y-11732190D01*
X13409226Y-11732190D02*
X13437798Y-11732190D01*
X13437798Y-11732190D02*
X13456846Y-11741714D01*
X13456846Y-11741714D02*
X13466369Y-11751238D01*
X13466369Y-11751238D02*
X13475893Y-11770286D01*
X13475893Y-11770286D02*
X13475893Y-11827428D01*
X13475893Y-11827428D02*
X13466369Y-11846476D01*
X13466369Y-11846476D02*
X13456846Y-11856000D01*
X13456846Y-11856000D02*
X13437798Y-11865524D01*
X13437798Y-11865524D02*
X13409226Y-11865524D01*
X13590179Y-11865524D02*
X13571131Y-11856000D01*
X13571131Y-11856000D02*
X13561607Y-11836952D01*
X13561607Y-11836952D02*
X13561607Y-11665524D01*
X13742560Y-11856000D02*
X13723512Y-11865524D01*
X13723512Y-11865524D02*
X13685417Y-11865524D01*
X13685417Y-11865524D02*
X13666369Y-11856000D01*
X13666369Y-11856000D02*
X13656846Y-11836952D01*
X13656846Y-11836952D02*
X13656846Y-11760762D01*
X13656846Y-11760762D02*
X13666369Y-11741714D01*
X13666369Y-11741714D02*
X13685417Y-11732190D01*
X13685417Y-11732190D02*
X13723512Y-11732190D01*
X13723512Y-11732190D02*
X13742560Y-11741714D01*
X13742560Y-11741714D02*
X13752084Y-11760762D01*
X13752084Y-11760762D02*
X13752084Y-11779809D01*
X13752084Y-11779809D02*
X13656846Y-11798857D01*
X13828274Y-11856000D02*
X13847322Y-11865524D01*
X13847322Y-11865524D02*
X13885417Y-11865524D01*
X13885417Y-11865524D02*
X13904465Y-11856000D01*
X13904465Y-11856000D02*
X13913988Y-11836952D01*
X13913988Y-11836952D02*
X13913988Y-11827428D01*
X13913988Y-11827428D02*
X13904465Y-11808381D01*
X13904465Y-11808381D02*
X13885417Y-11798857D01*
X13885417Y-11798857D02*
X13856846Y-11798857D01*
X13856846Y-11798857D02*
X13837798Y-11789333D01*
X13837798Y-11789333D02*
X13828274Y-11770286D01*
X13828274Y-11770286D02*
X13828274Y-11760762D01*
X13828274Y-11760762D02*
X13837798Y-11741714D01*
X13837798Y-11741714D02*
X13856846Y-11732190D01*
X13856846Y-11732190D02*
X13885417Y-11732190D01*
X13885417Y-11732190D02*
X13904465Y-11741714D01*
X13980655Y-11941714D02*
X13990179Y-11932190D01*
X13990179Y-11932190D02*
X14009227Y-11903619D01*
X14009227Y-11903619D02*
X14018750Y-11884571D01*
X14018750Y-11884571D02*
X14028274Y-11856000D01*
X14028274Y-11856000D02*
X14037798Y-11808381D01*
X14037798Y-11808381D02*
X14037798Y-11770286D01*
X14037798Y-11770286D02*
X14028274Y-11722667D01*
X14028274Y-11722667D02*
X14018750Y-11694095D01*
X14018750Y-11694095D02*
X14009227Y-11675048D01*
X14009227Y-11675048D02*
X13990179Y-11646476D01*
X13990179Y-11646476D02*
X13980655Y-11636952D01*
D14*
X9193855Y-12103105D02*
X9193855Y-11982895D01*
X9073645Y-11982895D01*
X9073645Y-12103105D01*
X9193855Y-12103105D01*
D11*
X9571131Y-12135524D02*
X9456845Y-12135524D01*
X9513988Y-12135524D02*
X9513988Y-11935524D01*
X9513988Y-11935524D02*
X9494940Y-11964095D01*
X9494940Y-11964095D02*
X9475893Y-11983143D01*
X9475893Y-11983143D02*
X9456845Y-11992667D01*
X9656845Y-12116476D02*
X9666369Y-12126000D01*
X9666369Y-12126000D02*
X9656845Y-12135524D01*
X9656845Y-12135524D02*
X9647321Y-12126000D01*
X9647321Y-12126000D02*
X9656845Y-12116476D01*
X9656845Y-12116476D02*
X9656845Y-12135524D01*
X9733036Y-11935524D02*
X9866369Y-11935524D01*
X9866369Y-11935524D02*
X9780655Y-12135524D01*
X9980655Y-11935524D02*
X9999702Y-11935524D01*
X9999702Y-11935524D02*
X10018750Y-11945048D01*
X10018750Y-11945048D02*
X10028274Y-11954571D01*
X10028274Y-11954571D02*
X10037798Y-11973619D01*
X10037798Y-11973619D02*
X10047321Y-12011714D01*
X10047321Y-12011714D02*
X10047321Y-12059333D01*
X10047321Y-12059333D02*
X10037798Y-12097428D01*
X10037798Y-12097428D02*
X10028274Y-12116476D01*
X10028274Y-12116476D02*
X10018750Y-12126000D01*
X10018750Y-12126000D02*
X9999702Y-12135524D01*
X9999702Y-12135524D02*
X9980655Y-12135524D01*
X9980655Y-12135524D02*
X9961607Y-12126000D01*
X9961607Y-12126000D02*
X9952083Y-12116476D01*
X9952083Y-12116476D02*
X9942560Y-12097428D01*
X9942560Y-12097428D02*
X9933036Y-12059333D01*
X9933036Y-12059333D02*
X9933036Y-12011714D01*
X9933036Y-12011714D02*
X9942560Y-11973619D01*
X9942560Y-11973619D02*
X9952083Y-11954571D01*
X9952083Y-11954571D02*
X9961607Y-11945048D01*
X9961607Y-11945048D02*
X9980655Y-11935524D01*
X10171131Y-11935524D02*
X10190179Y-11935524D01*
X10190179Y-11935524D02*
X10209226Y-11945048D01*
X10209226Y-11945048D02*
X10218750Y-11954571D01*
X10218750Y-11954571D02*
X10228274Y-11973619D01*
X10228274Y-11973619D02*
X10237798Y-12011714D01*
X10237798Y-12011714D02*
X10237798Y-12059333D01*
X10237798Y-12059333D02*
X10228274Y-12097428D01*
X10228274Y-12097428D02*
X10218750Y-12116476D01*
X10218750Y-12116476D02*
X10209226Y-12126000D01*
X10209226Y-12126000D02*
X10190179Y-12135524D01*
X10190179Y-12135524D02*
X10171131Y-12135524D01*
X10171131Y-12135524D02*
X10152083Y-12126000D01*
X10152083Y-12126000D02*
X10142560Y-12116476D01*
X10142560Y-12116476D02*
X10133036Y-12097428D01*
X10133036Y-12097428D02*
X10123512Y-12059333D01*
X10123512Y-12059333D02*
X10123512Y-12011714D01*
X10123512Y-12011714D02*
X10133036Y-11973619D01*
X10133036Y-11973619D02*
X10142560Y-11954571D01*
X10142560Y-11954571D02*
X10152083Y-11945048D01*
X10152083Y-11945048D02*
X10171131Y-11935524D01*
X10323512Y-12135524D02*
X10323512Y-12002190D01*
X10323512Y-12021238D02*
X10333036Y-12011714D01*
X10333036Y-12011714D02*
X10352083Y-12002190D01*
X10352083Y-12002190D02*
X10380655Y-12002190D01*
X10380655Y-12002190D02*
X10399702Y-12011714D01*
X10399702Y-12011714D02*
X10409226Y-12030762D01*
X10409226Y-12030762D02*
X10409226Y-12135524D01*
X10409226Y-12030762D02*
X10418750Y-12011714D01*
X10418750Y-12011714D02*
X10437798Y-12002190D01*
X10437798Y-12002190D02*
X10466369Y-12002190D01*
X10466369Y-12002190D02*
X10485417Y-12011714D01*
X10485417Y-12011714D02*
X10494941Y-12030762D01*
X10494941Y-12030762D02*
X10494941Y-12135524D01*
X10590179Y-12135524D02*
X10590179Y-12002190D01*
X10590179Y-12021238D02*
X10599702Y-12011714D01*
X10599702Y-12011714D02*
X10618750Y-12002190D01*
X10618750Y-12002190D02*
X10647322Y-12002190D01*
X10647322Y-12002190D02*
X10666369Y-12011714D01*
X10666369Y-12011714D02*
X10675893Y-12030762D01*
X10675893Y-12030762D02*
X10675893Y-12135524D01*
X10675893Y-12030762D02*
X10685417Y-12011714D01*
X10685417Y-12011714D02*
X10704464Y-12002190D01*
X10704464Y-12002190D02*
X10733036Y-12002190D01*
X10733036Y-12002190D02*
X10752083Y-12011714D01*
X10752083Y-12011714D02*
X10761607Y-12030762D01*
X10761607Y-12030762D02*
X10761607Y-12135524D01*
X11152083Y-11926000D02*
X10980655Y-12183143D01*
X11409226Y-11935524D02*
X11428274Y-11935524D01*
X11428274Y-11935524D02*
X11447322Y-11945048D01*
X11447322Y-11945048D02*
X11456845Y-11954571D01*
X11456845Y-11954571D02*
X11466369Y-11973619D01*
X11466369Y-11973619D02*
X11475893Y-12011714D01*
X11475893Y-12011714D02*
X11475893Y-12059333D01*
X11475893Y-12059333D02*
X11466369Y-12097428D01*
X11466369Y-12097428D02*
X11456845Y-12116476D01*
X11456845Y-12116476D02*
X11447322Y-12126000D01*
X11447322Y-12126000D02*
X11428274Y-12135524D01*
X11428274Y-12135524D02*
X11409226Y-12135524D01*
X11409226Y-12135524D02*
X11390179Y-12126000D01*
X11390179Y-12126000D02*
X11380655Y-12116476D01*
X11380655Y-12116476D02*
X11371131Y-12097428D01*
X11371131Y-12097428D02*
X11361607Y-12059333D01*
X11361607Y-12059333D02*
X11361607Y-12011714D01*
X11361607Y-12011714D02*
X11371131Y-11973619D01*
X11371131Y-11973619D02*
X11380655Y-11954571D01*
X11380655Y-11954571D02*
X11390179Y-11945048D01*
X11390179Y-11945048D02*
X11409226Y-11935524D01*
X11561607Y-12116476D02*
X11571131Y-12126000D01*
X11571131Y-12126000D02*
X11561607Y-12135524D01*
X11561607Y-12135524D02*
X11552083Y-12126000D01*
X11552083Y-12126000D02*
X11561607Y-12116476D01*
X11561607Y-12116476D02*
X11561607Y-12135524D01*
X11694941Y-11935524D02*
X11713988Y-11935524D01*
X11713988Y-11935524D02*
X11733036Y-11945048D01*
X11733036Y-11945048D02*
X11742560Y-11954571D01*
X11742560Y-11954571D02*
X11752083Y-11973619D01*
X11752083Y-11973619D02*
X11761607Y-12011714D01*
X11761607Y-12011714D02*
X11761607Y-12059333D01*
X11761607Y-12059333D02*
X11752083Y-12097428D01*
X11752083Y-12097428D02*
X11742560Y-12116476D01*
X11742560Y-12116476D02*
X11733036Y-12126000D01*
X11733036Y-12126000D02*
X11713988Y-12135524D01*
X11713988Y-12135524D02*
X11694941Y-12135524D01*
X11694941Y-12135524D02*
X11675893Y-12126000D01*
X11675893Y-12126000D02*
X11666369Y-12116476D01*
X11666369Y-12116476D02*
X11656845Y-12097428D01*
X11656845Y-12097428D02*
X11647322Y-12059333D01*
X11647322Y-12059333D02*
X11647322Y-12011714D01*
X11647322Y-12011714D02*
X11656845Y-11973619D01*
X11656845Y-11973619D02*
X11666369Y-11954571D01*
X11666369Y-11954571D02*
X11675893Y-11945048D01*
X11675893Y-11945048D02*
X11694941Y-11935524D01*
X11933036Y-11935524D02*
X11894941Y-11935524D01*
X11894941Y-11935524D02*
X11875893Y-11945048D01*
X11875893Y-11945048D02*
X11866369Y-11954571D01*
X11866369Y-11954571D02*
X11847322Y-11983143D01*
X11847322Y-11983143D02*
X11837798Y-12021238D01*
X11837798Y-12021238D02*
X11837798Y-12097428D01*
X11837798Y-12097428D02*
X11847322Y-12116476D01*
X11847322Y-12116476D02*
X11856845Y-12126000D01*
X11856845Y-12126000D02*
X11875893Y-12135524D01*
X11875893Y-12135524D02*
X11913988Y-12135524D01*
X11913988Y-12135524D02*
X11933036Y-12126000D01*
X11933036Y-12126000D02*
X11942560Y-12116476D01*
X11942560Y-12116476D02*
X11952083Y-12097428D01*
X11952083Y-12097428D02*
X11952083Y-12049809D01*
X11952083Y-12049809D02*
X11942560Y-12030762D01*
X11942560Y-12030762D02*
X11933036Y-12021238D01*
X11933036Y-12021238D02*
X11913988Y-12011714D01*
X11913988Y-12011714D02*
X11875893Y-12011714D01*
X11875893Y-12011714D02*
X11856845Y-12021238D01*
X11856845Y-12021238D02*
X11847322Y-12030762D01*
X11847322Y-12030762D02*
X11837798Y-12049809D01*
X12123512Y-11935524D02*
X12085417Y-11935524D01*
X12085417Y-11935524D02*
X12066369Y-11945048D01*
X12066369Y-11945048D02*
X12056845Y-11954571D01*
X12056845Y-11954571D02*
X12037798Y-11983143D01*
X12037798Y-11983143D02*
X12028274Y-12021238D01*
X12028274Y-12021238D02*
X12028274Y-12097428D01*
X12028274Y-12097428D02*
X12037798Y-12116476D01*
X12037798Y-12116476D02*
X12047322Y-12126000D01*
X12047322Y-12126000D02*
X12066369Y-12135524D01*
X12066369Y-12135524D02*
X12104464Y-12135524D01*
X12104464Y-12135524D02*
X12123512Y-12126000D01*
X12123512Y-12126000D02*
X12133036Y-12116476D01*
X12133036Y-12116476D02*
X12142560Y-12097428D01*
X12142560Y-12097428D02*
X12142560Y-12049809D01*
X12142560Y-12049809D02*
X12133036Y-12030762D01*
X12133036Y-12030762D02*
X12123512Y-12021238D01*
X12123512Y-12021238D02*
X12104464Y-12011714D01*
X12104464Y-12011714D02*
X12066369Y-12011714D01*
X12066369Y-12011714D02*
X12047322Y-12021238D01*
X12047322Y-12021238D02*
X12037798Y-12030762D01*
X12037798Y-12030762D02*
X12028274Y-12049809D01*
X12237798Y-12135524D02*
X12275893Y-12135524D01*
X12275893Y-12135524D02*
X12294941Y-12126000D01*
X12294941Y-12126000D02*
X12304464Y-12116476D01*
X12304464Y-12116476D02*
X12323512Y-12087905D01*
X12323512Y-12087905D02*
X12333036Y-12049809D01*
X12333036Y-12049809D02*
X12333036Y-11973619D01*
X12333036Y-11973619D02*
X12323512Y-11954571D01*
X12323512Y-11954571D02*
X12313988Y-11945048D01*
X12313988Y-11945048D02*
X12294941Y-11935524D01*
X12294941Y-11935524D02*
X12256845Y-11935524D01*
X12256845Y-11935524D02*
X12237798Y-11945048D01*
X12237798Y-11945048D02*
X12228274Y-11954571D01*
X12228274Y-11954571D02*
X12218750Y-11973619D01*
X12218750Y-11973619D02*
X12218750Y-12021238D01*
X12218750Y-12021238D02*
X12228274Y-12040286D01*
X12228274Y-12040286D02*
X12237798Y-12049809D01*
X12237798Y-12049809D02*
X12256845Y-12059333D01*
X12256845Y-12059333D02*
X12294941Y-12059333D01*
X12294941Y-12059333D02*
X12313988Y-12049809D01*
X12313988Y-12049809D02*
X12323512Y-12040286D01*
X12323512Y-12040286D02*
X12333036Y-12021238D01*
X12409226Y-11935524D02*
X12409226Y-11973619D01*
X12485417Y-11935524D02*
X12485417Y-11973619D01*
X12780655Y-12211714D02*
X12771131Y-12202190D01*
X12771131Y-12202190D02*
X12752084Y-12173619D01*
X12752084Y-12173619D02*
X12742560Y-12154571D01*
X12742560Y-12154571D02*
X12733036Y-12126000D01*
X12733036Y-12126000D02*
X12723512Y-12078381D01*
X12723512Y-12078381D02*
X12723512Y-12040286D01*
X12723512Y-12040286D02*
X12733036Y-11992667D01*
X12733036Y-11992667D02*
X12742560Y-11964095D01*
X12742560Y-11964095D02*
X12752084Y-11945048D01*
X12752084Y-11945048D02*
X12771131Y-11916476D01*
X12771131Y-11916476D02*
X12780655Y-11906952D01*
X12885417Y-12021238D02*
X12866369Y-12011714D01*
X12866369Y-12011714D02*
X12856845Y-12002190D01*
X12856845Y-12002190D02*
X12847322Y-11983143D01*
X12847322Y-11983143D02*
X12847322Y-11973619D01*
X12847322Y-11973619D02*
X12856845Y-11954571D01*
X12856845Y-11954571D02*
X12866369Y-11945048D01*
X12866369Y-11945048D02*
X12885417Y-11935524D01*
X12885417Y-11935524D02*
X12923512Y-11935524D01*
X12923512Y-11935524D02*
X12942560Y-11945048D01*
X12942560Y-11945048D02*
X12952084Y-11954571D01*
X12952084Y-11954571D02*
X12961607Y-11973619D01*
X12961607Y-11973619D02*
X12961607Y-11983143D01*
X12961607Y-11983143D02*
X12952084Y-12002190D01*
X12952084Y-12002190D02*
X12942560Y-12011714D01*
X12942560Y-12011714D02*
X12923512Y-12021238D01*
X12923512Y-12021238D02*
X12885417Y-12021238D01*
X12885417Y-12021238D02*
X12866369Y-12030762D01*
X12866369Y-12030762D02*
X12856845Y-12040286D01*
X12856845Y-12040286D02*
X12847322Y-12059333D01*
X12847322Y-12059333D02*
X12847322Y-12097428D01*
X12847322Y-12097428D02*
X12856845Y-12116476D01*
X12856845Y-12116476D02*
X12866369Y-12126000D01*
X12866369Y-12126000D02*
X12885417Y-12135524D01*
X12885417Y-12135524D02*
X12923512Y-12135524D01*
X12923512Y-12135524D02*
X12942560Y-12126000D01*
X12942560Y-12126000D02*
X12952084Y-12116476D01*
X12952084Y-12116476D02*
X12961607Y-12097428D01*
X12961607Y-12097428D02*
X12961607Y-12059333D01*
X12961607Y-12059333D02*
X12952084Y-12040286D01*
X12952084Y-12040286D02*
X12942560Y-12030762D01*
X12942560Y-12030762D02*
X12923512Y-12021238D01*
X13199703Y-12135524D02*
X13199703Y-11935524D01*
X13285417Y-12135524D02*
X13285417Y-12030762D01*
X13285417Y-12030762D02*
X13275893Y-12011714D01*
X13275893Y-12011714D02*
X13256846Y-12002190D01*
X13256846Y-12002190D02*
X13228274Y-12002190D01*
X13228274Y-12002190D02*
X13209226Y-12011714D01*
X13209226Y-12011714D02*
X13199703Y-12021238D01*
X13409226Y-12135524D02*
X13390179Y-12126000D01*
X13390179Y-12126000D02*
X13380655Y-12116476D01*
X13380655Y-12116476D02*
X13371131Y-12097428D01*
X13371131Y-12097428D02*
X13371131Y-12040286D01*
X13371131Y-12040286D02*
X13380655Y-12021238D01*
X13380655Y-12021238D02*
X13390179Y-12011714D01*
X13390179Y-12011714D02*
X13409226Y-12002190D01*
X13409226Y-12002190D02*
X13437798Y-12002190D01*
X13437798Y-12002190D02*
X13456846Y-12011714D01*
X13456846Y-12011714D02*
X13466369Y-12021238D01*
X13466369Y-12021238D02*
X13475893Y-12040286D01*
X13475893Y-12040286D02*
X13475893Y-12097428D01*
X13475893Y-12097428D02*
X13466369Y-12116476D01*
X13466369Y-12116476D02*
X13456846Y-12126000D01*
X13456846Y-12126000D02*
X13437798Y-12135524D01*
X13437798Y-12135524D02*
X13409226Y-12135524D01*
X13590179Y-12135524D02*
X13571131Y-12126000D01*
X13571131Y-12126000D02*
X13561607Y-12106952D01*
X13561607Y-12106952D02*
X13561607Y-11935524D01*
X13742560Y-12126000D02*
X13723512Y-12135524D01*
X13723512Y-12135524D02*
X13685417Y-12135524D01*
X13685417Y-12135524D02*
X13666369Y-12126000D01*
X13666369Y-12126000D02*
X13656846Y-12106952D01*
X13656846Y-12106952D02*
X13656846Y-12030762D01*
X13656846Y-12030762D02*
X13666369Y-12011714D01*
X13666369Y-12011714D02*
X13685417Y-12002190D01*
X13685417Y-12002190D02*
X13723512Y-12002190D01*
X13723512Y-12002190D02*
X13742560Y-12011714D01*
X13742560Y-12011714D02*
X13752084Y-12030762D01*
X13752084Y-12030762D02*
X13752084Y-12049809D01*
X13752084Y-12049809D02*
X13656846Y-12068857D01*
X13828274Y-12126000D02*
X13847322Y-12135524D01*
X13847322Y-12135524D02*
X13885417Y-12135524D01*
X13885417Y-12135524D02*
X13904465Y-12126000D01*
X13904465Y-12126000D02*
X13913988Y-12106952D01*
X13913988Y-12106952D02*
X13913988Y-12097428D01*
X13913988Y-12097428D02*
X13904465Y-12078381D01*
X13904465Y-12078381D02*
X13885417Y-12068857D01*
X13885417Y-12068857D02*
X13856846Y-12068857D01*
X13856846Y-12068857D02*
X13837798Y-12059333D01*
X13837798Y-12059333D02*
X13828274Y-12040286D01*
X13828274Y-12040286D02*
X13828274Y-12030762D01*
X13828274Y-12030762D02*
X13837798Y-12011714D01*
X13837798Y-12011714D02*
X13856846Y-12002190D01*
X13856846Y-12002190D02*
X13885417Y-12002190D01*
X13885417Y-12002190D02*
X13904465Y-12011714D01*
X13980655Y-12211714D02*
X13990179Y-12202190D01*
X13990179Y-12202190D02*
X14009227Y-12173619D01*
X14009227Y-12173619D02*
X14018750Y-12154571D01*
X14018750Y-12154571D02*
X14028274Y-12126000D01*
X14028274Y-12126000D02*
X14037798Y-12078381D01*
X14037798Y-12078381D02*
X14037798Y-12040286D01*
X14037798Y-12040286D02*
X14028274Y-11992667D01*
X14028274Y-11992667D02*
X14018750Y-11964095D01*
X14018750Y-11964095D02*
X14009227Y-11945048D01*
X14009227Y-11945048D02*
X13990179Y-11916476D01*
X13990179Y-11916476D02*
X13980655Y-11906952D01*
M02*
