%TF.GenerationSoftware,KiCad,Pcbnew,8.0.0*%
%TF.CreationDate,2024-03-23T17:17:28+01:00*%
%TF.ProjectId,Filter,46696c74-6572-42e6-9b69-6361645f7063,rev?*%
%TF.SameCoordinates,Original*%
%TF.FileFunction,Other,User*%
%FSLAX45Y45*%
G04 Gerber Fmt 4.5, Leading zero omitted, Abs format (unit mm)*
G04 Created by KiCad (PCBNEW 8.0.0) date 2024-03-23 17:17:28*
%MOMM*%
%LPD*%
G01*
G04 APERTURE LIST*
%ADD10C,0.050000*%
%TA.AperFunction,Profile*%
%ADD11C,0.100000*%
%TD*%
%TA.AperFunction,Profile*%
%ADD12C,0.200000*%
%TD*%
G04 APERTURE END LIST*
D10*
%TO.C,R1*%
X12273500Y-7560125D02*
X12273500Y-7784125D01*
X12273500Y-7784125D02*
X12729500Y-7784125D01*
X12729500Y-7560125D02*
X12273500Y-7560125D01*
X12729500Y-7784125D02*
X12729500Y-7560125D01*
%TO.C,R3*%
X18752750Y-7654000D02*
X18752750Y-7878000D01*
X18752750Y-7878000D02*
X19208750Y-7878000D01*
X19208750Y-7654000D02*
X18752750Y-7654000D01*
X19208750Y-7878000D02*
X19208750Y-7654000D01*
%TO.C,C21*%
X13932500Y-10475000D02*
X13932500Y-10705000D01*
X13932500Y-10705000D02*
X14392500Y-10705000D01*
X14392500Y-10475000D02*
X13932500Y-10475000D01*
X14392500Y-10705000D02*
X14392500Y-10475000D01*
%TO.C,C18*%
X19246500Y-7209000D02*
X19246500Y-7439000D01*
X19246500Y-7439000D02*
X19706500Y-7439000D01*
X19706500Y-7209000D02*
X19246500Y-7209000D01*
X19706500Y-7439000D02*
X19706500Y-7209000D01*
%TO.C,R12*%
X13930750Y-10718000D02*
X13930750Y-10942000D01*
X13930750Y-10942000D02*
X14386750Y-10942000D01*
X14386750Y-10718000D02*
X13930750Y-10718000D01*
X14386750Y-10942000D02*
X14386750Y-10718000D01*
%TO.C,C20*%
X13932500Y-10230000D02*
X13932500Y-10460000D01*
X13932500Y-10460000D02*
X14392500Y-10460000D01*
X14392500Y-10230000D02*
X13932500Y-10230000D01*
X14392500Y-10460000D02*
X14392500Y-10230000D01*
%TO.C,C16*%
X12362250Y-6965875D02*
X12362250Y-7425875D01*
X12362250Y-7425875D02*
X12592250Y-7425875D01*
X12592250Y-6965875D02*
X12362250Y-6965875D01*
X12592250Y-7425875D02*
X12592250Y-6965875D01*
%TO.C,R11*%
X13933250Y-9998000D02*
X13933250Y-10222000D01*
X13933250Y-10222000D02*
X14389250Y-10222000D01*
X14389250Y-9998000D02*
X13933250Y-9998000D01*
X14389250Y-10222000D02*
X14389250Y-9998000D01*
%TO.C,R2*%
X12105250Y-6964625D02*
X12105250Y-7420625D01*
X12105250Y-7420625D02*
X12329250Y-7420625D01*
X12329250Y-6964625D02*
X12105250Y-6964625D01*
X12329250Y-7420625D02*
X12329250Y-6964625D01*
%TO.C,R4*%
X19246750Y-7485000D02*
X19246750Y-7709000D01*
X19246750Y-7709000D02*
X19702750Y-7709000D01*
X19702750Y-7485000D02*
X19246750Y-7485000D01*
X19702750Y-7709000D02*
X19702750Y-7485000D01*
%TD*%
D11*
X11642500Y-6173000D02*
X20173000Y-6173000D01*
X20173000Y-11077000D01*
X11642500Y-11077000D01*
X11642500Y-6173000D01*
D12*
X12135351Y-6630000D02*
G75*
G02*
X11814649Y-6630000I-160351J0D01*
G01*
X11814649Y-6630000D02*
G75*
G02*
X12135351Y-6630000I160351J0D01*
G01*
X20028351Y-10633000D02*
G75*
G02*
X19707649Y-10633000I-160351J0D01*
G01*
X19707649Y-10633000D02*
G75*
G02*
X20028351Y-10633000I160351J0D01*
G01*
X20034351Y-6631000D02*
G75*
G02*
X19713649Y-6631000I-160351J0D01*
G01*
X19713649Y-6631000D02*
G75*
G02*
X20034351Y-6631000I160351J0D01*
G01*
X12119000Y-10634000D02*
G75*
G02*
X11815000Y-10634000I-152000J0D01*
G01*
X11815000Y-10634000D02*
G75*
G02*
X12119000Y-10634000I152000J0D01*
G01*
D11*
%TO.C,J1*%
X11718000Y-8340000D02*
X11718000Y-9200000D01*
%TO.C,J4*%
X20195000Y-9157000D02*
X20195000Y-8297000D01*
%TD*%
M02*
