%TF.GenerationSoftware,KiCad,Pcbnew,8.0.0*%
%TF.CreationDate,2024-03-23T17:17:28+01:00*%
%TF.ProjectId,Filter,46696c74-6572-42e6-9b69-6361645f7063,rev?*%
%TF.SameCoordinates,Original*%
%TF.FileFunction,Legend,Top*%
%TF.FilePolarity,Positive*%
%FSLAX45Y45*%
G04 Gerber Fmt 4.5, Leading zero omitted, Abs format (unit mm)*
G04 Created by KiCad (PCBNEW 8.0.0) date 2024-03-23 17:17:28*
%MOMM*%
%LPD*%
G01*
G04 APERTURE LIST*
%ADD10C,0.150000*%
%ADD11C,0.442696*%
%ADD12C,0.250000*%
%ADD13C,0.120000*%
%TA.AperFunction,Profile*%
%ADD14C,0.100000*%
%TD*%
%TA.AperFunction,Profile*%
%ADD15C,0.200000*%
%TD*%
G04 APERTURE END LIST*
D10*
X18863000Y-8888500D02*
X18963000Y-8888500D01*
X18963000Y-8995500D01*
X18863000Y-8995500D01*
X18863000Y-8888500D01*
X13396625Y-8733500D02*
X13496625Y-8733500D01*
X13496625Y-8840500D01*
X13396625Y-8840500D01*
X13396625Y-8733500D01*
D11*
X18935135Y-8940500D02*
G75*
G02*
X18890865Y-8940500I-22135J0D01*
G01*
X18890865Y-8940500D02*
G75*
G02*
X18935135Y-8940500I22135J0D01*
G01*
D10*
X14524000Y-10812000D02*
X15615000Y-10812000D01*
X15615000Y-11068000D01*
X14524000Y-11068000D01*
X14524000Y-10812000D01*
D11*
X13468760Y-8785500D02*
G75*
G02*
X13424490Y-8785500I-22135J0D01*
G01*
X13424490Y-8785500D02*
G75*
G02*
X13468760Y-8785500I22135J0D01*
G01*
D12*
X14630019Y-10931157D02*
X14590019Y-10931157D01*
X14590019Y-10994014D02*
X14590019Y-10874014D01*
X14590019Y-10874014D02*
X14647161Y-10874014D01*
X14755733Y-10994014D02*
X14687161Y-10994014D01*
X14721447Y-10994014D02*
X14721447Y-10874014D01*
X14721447Y-10874014D02*
X14710019Y-10891157D01*
X14710019Y-10891157D02*
X14698590Y-10902586D01*
X14698590Y-10902586D02*
X14687161Y-10908300D01*
D10*
X17233678Y-6267612D02*
X17267011Y-6267612D01*
X17281297Y-6319993D02*
X17233678Y-6319993D01*
X17233678Y-6319993D02*
X17233678Y-6219993D01*
X17233678Y-6219993D02*
X17281297Y-6219993D01*
X17338440Y-6319993D02*
X17328916Y-6315231D01*
X17328916Y-6315231D02*
X17324154Y-6305707D01*
X17324154Y-6305707D02*
X17324154Y-6219993D01*
X17414630Y-6315231D02*
X17405107Y-6319993D01*
X17405107Y-6319993D02*
X17386059Y-6319993D01*
X17386059Y-6319993D02*
X17376535Y-6315231D01*
X17376535Y-6315231D02*
X17371773Y-6305707D01*
X17371773Y-6305707D02*
X17371773Y-6267612D01*
X17371773Y-6267612D02*
X17376535Y-6258088D01*
X17376535Y-6258088D02*
X17386059Y-6253326D01*
X17386059Y-6253326D02*
X17405107Y-6253326D01*
X17405107Y-6253326D02*
X17414630Y-6258088D01*
X17414630Y-6258088D02*
X17419392Y-6267612D01*
X17419392Y-6267612D02*
X17419392Y-6277136D01*
X17419392Y-6277136D02*
X17371773Y-6286660D01*
X17505107Y-6315231D02*
X17495583Y-6319993D01*
X17495583Y-6319993D02*
X17476535Y-6319993D01*
X17476535Y-6319993D02*
X17467011Y-6315231D01*
X17467011Y-6315231D02*
X17462249Y-6310469D01*
X17462249Y-6310469D02*
X17457488Y-6300945D01*
X17457488Y-6300945D02*
X17457488Y-6272374D01*
X17457488Y-6272374D02*
X17462249Y-6262850D01*
X17462249Y-6262850D02*
X17467011Y-6258088D01*
X17467011Y-6258088D02*
X17476535Y-6253326D01*
X17476535Y-6253326D02*
X17495583Y-6253326D01*
X17495583Y-6253326D02*
X17505107Y-6258088D01*
X17533678Y-6253326D02*
X17571773Y-6253326D01*
X17547964Y-6219993D02*
X17547964Y-6305707D01*
X17547964Y-6305707D02*
X17552726Y-6315231D01*
X17552726Y-6315231D02*
X17562249Y-6319993D01*
X17562249Y-6319993D02*
X17571773Y-6319993D01*
X17605107Y-6319993D02*
X17605107Y-6253326D01*
X17605107Y-6272374D02*
X17609869Y-6262850D01*
X17609869Y-6262850D02*
X17614630Y-6258088D01*
X17614630Y-6258088D02*
X17624154Y-6253326D01*
X17624154Y-6253326D02*
X17633678Y-6253326D01*
X17681297Y-6319993D02*
X17671773Y-6315231D01*
X17671773Y-6315231D02*
X17667011Y-6310469D01*
X17667011Y-6310469D02*
X17662250Y-6300945D01*
X17662250Y-6300945D02*
X17662250Y-6272374D01*
X17662250Y-6272374D02*
X17667011Y-6262850D01*
X17667011Y-6262850D02*
X17671773Y-6258088D01*
X17671773Y-6258088D02*
X17681297Y-6253326D01*
X17681297Y-6253326D02*
X17695583Y-6253326D01*
X17695583Y-6253326D02*
X17705107Y-6258088D01*
X17705107Y-6258088D02*
X17709869Y-6262850D01*
X17709869Y-6262850D02*
X17714630Y-6272374D01*
X17714630Y-6272374D02*
X17714630Y-6300945D01*
X17714630Y-6300945D02*
X17709869Y-6310469D01*
X17709869Y-6310469D02*
X17705107Y-6315231D01*
X17705107Y-6315231D02*
X17695583Y-6319993D01*
X17695583Y-6319993D02*
X17681297Y-6319993D01*
X17757488Y-6253326D02*
X17757488Y-6319993D01*
X17757488Y-6262850D02*
X17762250Y-6258088D01*
X17762250Y-6258088D02*
X17771773Y-6253326D01*
X17771773Y-6253326D02*
X17786059Y-6253326D01*
X17786059Y-6253326D02*
X17795583Y-6258088D01*
X17795583Y-6258088D02*
X17800345Y-6267612D01*
X17800345Y-6267612D02*
X17800345Y-6319993D01*
X17847964Y-6319993D02*
X17847964Y-6253326D01*
X17847964Y-6219993D02*
X17843202Y-6224755D01*
X17843202Y-6224755D02*
X17847964Y-6229517D01*
X17847964Y-6229517D02*
X17852726Y-6224755D01*
X17852726Y-6224755D02*
X17847964Y-6219993D01*
X17847964Y-6219993D02*
X17847964Y-6229517D01*
X17938440Y-6315231D02*
X17928916Y-6319993D01*
X17928916Y-6319993D02*
X17909869Y-6319993D01*
X17909869Y-6319993D02*
X17900345Y-6315231D01*
X17900345Y-6315231D02*
X17895583Y-6310469D01*
X17895583Y-6310469D02*
X17890821Y-6300945D01*
X17890821Y-6300945D02*
X17890821Y-6272374D01*
X17890821Y-6272374D02*
X17895583Y-6262850D01*
X17895583Y-6262850D02*
X17900345Y-6258088D01*
X17900345Y-6258088D02*
X17909869Y-6253326D01*
X17909869Y-6253326D02*
X17928916Y-6253326D01*
X17928916Y-6253326D02*
X17938440Y-6258088D01*
X18024154Y-6319993D02*
X18024154Y-6267612D01*
X18024154Y-6267612D02*
X18019392Y-6258088D01*
X18019392Y-6258088D02*
X18009869Y-6253326D01*
X18009869Y-6253326D02*
X17990821Y-6253326D01*
X17990821Y-6253326D02*
X17981297Y-6258088D01*
X18024154Y-6315231D02*
X18014630Y-6319993D01*
X18014630Y-6319993D02*
X17990821Y-6319993D01*
X17990821Y-6319993D02*
X17981297Y-6315231D01*
X17981297Y-6315231D02*
X17976535Y-6305707D01*
X17976535Y-6305707D02*
X17976535Y-6296183D01*
X17976535Y-6296183D02*
X17981297Y-6286660D01*
X17981297Y-6286660D02*
X17990821Y-6281898D01*
X17990821Y-6281898D02*
X18014630Y-6281898D01*
X18014630Y-6281898D02*
X18024154Y-6277136D01*
X18086059Y-6319993D02*
X18076535Y-6315231D01*
X18076535Y-6315231D02*
X18071773Y-6305707D01*
X18071773Y-6305707D02*
X18071773Y-6219993D01*
X18138440Y-6319993D02*
X18128916Y-6315231D01*
X18128916Y-6315231D02*
X18124154Y-6305707D01*
X18124154Y-6305707D02*
X18124154Y-6219993D01*
X18167012Y-6253326D02*
X18190821Y-6319993D01*
X18214631Y-6253326D02*
X18190821Y-6319993D01*
X18190821Y-6319993D02*
X18181297Y-6343803D01*
X18181297Y-6343803D02*
X18176535Y-6348564D01*
X18176535Y-6348564D02*
X18167012Y-6353326D01*
X18324154Y-6315231D02*
X18333678Y-6319993D01*
X18333678Y-6319993D02*
X18352726Y-6319993D01*
X18352726Y-6319993D02*
X18362250Y-6315231D01*
X18362250Y-6315231D02*
X18367012Y-6305707D01*
X18367012Y-6305707D02*
X18367012Y-6300945D01*
X18367012Y-6300945D02*
X18362250Y-6291422D01*
X18362250Y-6291422D02*
X18352726Y-6286660D01*
X18352726Y-6286660D02*
X18338440Y-6286660D01*
X18338440Y-6286660D02*
X18328916Y-6281898D01*
X18328916Y-6281898D02*
X18324154Y-6272374D01*
X18324154Y-6272374D02*
X18324154Y-6267612D01*
X18324154Y-6267612D02*
X18328916Y-6258088D01*
X18328916Y-6258088D02*
X18338440Y-6253326D01*
X18338440Y-6253326D02*
X18352726Y-6253326D01*
X18352726Y-6253326D02*
X18362250Y-6258088D01*
X18400345Y-6253326D02*
X18419393Y-6319993D01*
X18419393Y-6319993D02*
X18438440Y-6272374D01*
X18438440Y-6272374D02*
X18457488Y-6319993D01*
X18457488Y-6319993D02*
X18476535Y-6253326D01*
X18514631Y-6319993D02*
X18514631Y-6253326D01*
X18514631Y-6219993D02*
X18509869Y-6224755D01*
X18509869Y-6224755D02*
X18514631Y-6229517D01*
X18514631Y-6229517D02*
X18519393Y-6224755D01*
X18519393Y-6224755D02*
X18514631Y-6219993D01*
X18514631Y-6219993D02*
X18514631Y-6229517D01*
X18547964Y-6253326D02*
X18586059Y-6253326D01*
X18562250Y-6219993D02*
X18562250Y-6305707D01*
X18562250Y-6305707D02*
X18567012Y-6315231D01*
X18567012Y-6315231D02*
X18576535Y-6319993D01*
X18576535Y-6319993D02*
X18586059Y-6319993D01*
X18662250Y-6315231D02*
X18652726Y-6319993D01*
X18652726Y-6319993D02*
X18633678Y-6319993D01*
X18633678Y-6319993D02*
X18624154Y-6315231D01*
X18624154Y-6315231D02*
X18619393Y-6310469D01*
X18619393Y-6310469D02*
X18614631Y-6300945D01*
X18614631Y-6300945D02*
X18614631Y-6272374D01*
X18614631Y-6272374D02*
X18619393Y-6262850D01*
X18619393Y-6262850D02*
X18624154Y-6258088D01*
X18624154Y-6258088D02*
X18633678Y-6253326D01*
X18633678Y-6253326D02*
X18652726Y-6253326D01*
X18652726Y-6253326D02*
X18662250Y-6258088D01*
X18705107Y-6319993D02*
X18705107Y-6219993D01*
X18747964Y-6319993D02*
X18747964Y-6267612D01*
X18747964Y-6267612D02*
X18743202Y-6258088D01*
X18743202Y-6258088D02*
X18733678Y-6253326D01*
X18733678Y-6253326D02*
X18719393Y-6253326D01*
X18719393Y-6253326D02*
X18709869Y-6258088D01*
X18709869Y-6258088D02*
X18705107Y-6262850D01*
X18833678Y-6315231D02*
X18824154Y-6319993D01*
X18824154Y-6319993D02*
X18805107Y-6319993D01*
X18805107Y-6319993D02*
X18795583Y-6315231D01*
X18795583Y-6315231D02*
X18790821Y-6305707D01*
X18790821Y-6305707D02*
X18790821Y-6267612D01*
X18790821Y-6267612D02*
X18795583Y-6258088D01*
X18795583Y-6258088D02*
X18805107Y-6253326D01*
X18805107Y-6253326D02*
X18824154Y-6253326D01*
X18824154Y-6253326D02*
X18833678Y-6258088D01*
X18833678Y-6258088D02*
X18838440Y-6267612D01*
X18838440Y-6267612D02*
X18838440Y-6277136D01*
X18838440Y-6277136D02*
X18790821Y-6286660D01*
X18924154Y-6319993D02*
X18924154Y-6219993D01*
X18924154Y-6315231D02*
X18914631Y-6319993D01*
X18914631Y-6319993D02*
X18895583Y-6319993D01*
X18895583Y-6319993D02*
X18886059Y-6315231D01*
X18886059Y-6315231D02*
X18881297Y-6310469D01*
X18881297Y-6310469D02*
X18876535Y-6300945D01*
X18876535Y-6300945D02*
X18876535Y-6272374D01*
X18876535Y-6272374D02*
X18881297Y-6262850D01*
X18881297Y-6262850D02*
X18886059Y-6258088D01*
X18886059Y-6258088D02*
X18895583Y-6253326D01*
X18895583Y-6253326D02*
X18914631Y-6253326D01*
X18914631Y-6253326D02*
X18924154Y-6258088D01*
X19033678Y-6253326D02*
X19071774Y-6253326D01*
X19047964Y-6319993D02*
X19047964Y-6234279D01*
X19047964Y-6234279D02*
X19052726Y-6224755D01*
X19052726Y-6224755D02*
X19062250Y-6219993D01*
X19062250Y-6219993D02*
X19071774Y-6219993D01*
X19105107Y-6319993D02*
X19105107Y-6253326D01*
X19105107Y-6219993D02*
X19100345Y-6224755D01*
X19100345Y-6224755D02*
X19105107Y-6229517D01*
X19105107Y-6229517D02*
X19109869Y-6224755D01*
X19109869Y-6224755D02*
X19105107Y-6219993D01*
X19105107Y-6219993D02*
X19105107Y-6229517D01*
X19167012Y-6319993D02*
X19157488Y-6315231D01*
X19157488Y-6315231D02*
X19152726Y-6305707D01*
X19152726Y-6305707D02*
X19152726Y-6219993D01*
X19190821Y-6253326D02*
X19228916Y-6253326D01*
X19205107Y-6219993D02*
X19205107Y-6305707D01*
X19205107Y-6305707D02*
X19209869Y-6315231D01*
X19209869Y-6315231D02*
X19219393Y-6319993D01*
X19219393Y-6319993D02*
X19228916Y-6319993D01*
X19300345Y-6315231D02*
X19290821Y-6319993D01*
X19290821Y-6319993D02*
X19271774Y-6319993D01*
X19271774Y-6319993D02*
X19262250Y-6315231D01*
X19262250Y-6315231D02*
X19257488Y-6305707D01*
X19257488Y-6305707D02*
X19257488Y-6267612D01*
X19257488Y-6267612D02*
X19262250Y-6258088D01*
X19262250Y-6258088D02*
X19271774Y-6253326D01*
X19271774Y-6253326D02*
X19290821Y-6253326D01*
X19290821Y-6253326D02*
X19300345Y-6258088D01*
X19300345Y-6258088D02*
X19305107Y-6267612D01*
X19305107Y-6267612D02*
X19305107Y-6277136D01*
X19305107Y-6277136D02*
X19257488Y-6286660D01*
X19347964Y-6319993D02*
X19347964Y-6253326D01*
X19347964Y-6272374D02*
X19352726Y-6262850D01*
X19352726Y-6262850D02*
X19357488Y-6258088D01*
X19357488Y-6258088D02*
X19367012Y-6253326D01*
X19367012Y-6253326D02*
X19376536Y-6253326D01*
X19409869Y-6310469D02*
X19414631Y-6315231D01*
X19414631Y-6315231D02*
X19409869Y-6319993D01*
X19409869Y-6319993D02*
X19405107Y-6315231D01*
X19405107Y-6315231D02*
X19409869Y-6310469D01*
X19409869Y-6310469D02*
X19409869Y-6319993D01*
X17233678Y-6480987D02*
X17233678Y-6380987D01*
X17233678Y-6380987D02*
X17257487Y-6380987D01*
X17257487Y-6380987D02*
X17271773Y-6385749D01*
X17271773Y-6385749D02*
X17281297Y-6395273D01*
X17281297Y-6395273D02*
X17286059Y-6404797D01*
X17286059Y-6404797D02*
X17290821Y-6423845D01*
X17290821Y-6423845D02*
X17290821Y-6438130D01*
X17290821Y-6438130D02*
X17286059Y-6457178D01*
X17286059Y-6457178D02*
X17281297Y-6466702D01*
X17281297Y-6466702D02*
X17271773Y-6476226D01*
X17271773Y-6476226D02*
X17257487Y-6480987D01*
X17257487Y-6480987D02*
X17233678Y-6480987D01*
X17371773Y-6476226D02*
X17362249Y-6480987D01*
X17362249Y-6480987D02*
X17343202Y-6480987D01*
X17343202Y-6480987D02*
X17333678Y-6476226D01*
X17333678Y-6476226D02*
X17328916Y-6466702D01*
X17328916Y-6466702D02*
X17328916Y-6428606D01*
X17328916Y-6428606D02*
X17333678Y-6419083D01*
X17333678Y-6419083D02*
X17343202Y-6414321D01*
X17343202Y-6414321D02*
X17362249Y-6414321D01*
X17362249Y-6414321D02*
X17371773Y-6419083D01*
X17371773Y-6419083D02*
X17376535Y-6428606D01*
X17376535Y-6428606D02*
X17376535Y-6438130D01*
X17376535Y-6438130D02*
X17328916Y-6447654D01*
X17414630Y-6476226D02*
X17424154Y-6480987D01*
X17424154Y-6480987D02*
X17443202Y-6480987D01*
X17443202Y-6480987D02*
X17452726Y-6476226D01*
X17452726Y-6476226D02*
X17457487Y-6466702D01*
X17457487Y-6466702D02*
X17457487Y-6461940D01*
X17457487Y-6461940D02*
X17452726Y-6452416D01*
X17452726Y-6452416D02*
X17443202Y-6447654D01*
X17443202Y-6447654D02*
X17428916Y-6447654D01*
X17428916Y-6447654D02*
X17419392Y-6442892D01*
X17419392Y-6442892D02*
X17414630Y-6433368D01*
X17414630Y-6433368D02*
X17414630Y-6428606D01*
X17414630Y-6428606D02*
X17419392Y-6419083D01*
X17419392Y-6419083D02*
X17428916Y-6414321D01*
X17428916Y-6414321D02*
X17443202Y-6414321D01*
X17443202Y-6414321D02*
X17452726Y-6419083D01*
X17500345Y-6480987D02*
X17500345Y-6414321D01*
X17500345Y-6380987D02*
X17495583Y-6385749D01*
X17495583Y-6385749D02*
X17500345Y-6390511D01*
X17500345Y-6390511D02*
X17505107Y-6385749D01*
X17505107Y-6385749D02*
X17500345Y-6380987D01*
X17500345Y-6380987D02*
X17500345Y-6390511D01*
X17590821Y-6414321D02*
X17590821Y-6495273D01*
X17590821Y-6495273D02*
X17586059Y-6504797D01*
X17586059Y-6504797D02*
X17581297Y-6509559D01*
X17581297Y-6509559D02*
X17571773Y-6514321D01*
X17571773Y-6514321D02*
X17557487Y-6514321D01*
X17557487Y-6514321D02*
X17547964Y-6509559D01*
X17590821Y-6476226D02*
X17581297Y-6480987D01*
X17581297Y-6480987D02*
X17562249Y-6480987D01*
X17562249Y-6480987D02*
X17552726Y-6476226D01*
X17552726Y-6476226D02*
X17547964Y-6471464D01*
X17547964Y-6471464D02*
X17543202Y-6461940D01*
X17543202Y-6461940D02*
X17543202Y-6433368D01*
X17543202Y-6433368D02*
X17547964Y-6423845D01*
X17547964Y-6423845D02*
X17552726Y-6419083D01*
X17552726Y-6419083D02*
X17562249Y-6414321D01*
X17562249Y-6414321D02*
X17581297Y-6414321D01*
X17581297Y-6414321D02*
X17590821Y-6419083D01*
X17638440Y-6414321D02*
X17638440Y-6480987D01*
X17638440Y-6423845D02*
X17643202Y-6419083D01*
X17643202Y-6419083D02*
X17652726Y-6414321D01*
X17652726Y-6414321D02*
X17667011Y-6414321D01*
X17667011Y-6414321D02*
X17676535Y-6419083D01*
X17676535Y-6419083D02*
X17681297Y-6428606D01*
X17681297Y-6428606D02*
X17681297Y-6480987D01*
X17767011Y-6476226D02*
X17757487Y-6480987D01*
X17757487Y-6480987D02*
X17738440Y-6480987D01*
X17738440Y-6480987D02*
X17728916Y-6476226D01*
X17728916Y-6476226D02*
X17724154Y-6466702D01*
X17724154Y-6466702D02*
X17724154Y-6428606D01*
X17724154Y-6428606D02*
X17728916Y-6419083D01*
X17728916Y-6419083D02*
X17738440Y-6414321D01*
X17738440Y-6414321D02*
X17757487Y-6414321D01*
X17757487Y-6414321D02*
X17767011Y-6419083D01*
X17767011Y-6419083D02*
X17771773Y-6428606D01*
X17771773Y-6428606D02*
X17771773Y-6438130D01*
X17771773Y-6438130D02*
X17724154Y-6447654D01*
X17857487Y-6480987D02*
X17857487Y-6380987D01*
X17857487Y-6476226D02*
X17847964Y-6480987D01*
X17847964Y-6480987D02*
X17828916Y-6480987D01*
X17828916Y-6480987D02*
X17819392Y-6476226D01*
X17819392Y-6476226D02*
X17814630Y-6471464D01*
X17814630Y-6471464D02*
X17809868Y-6461940D01*
X17809868Y-6461940D02*
X17809868Y-6433368D01*
X17809868Y-6433368D02*
X17814630Y-6423845D01*
X17814630Y-6423845D02*
X17819392Y-6419083D01*
X17819392Y-6419083D02*
X17828916Y-6414321D01*
X17828916Y-6414321D02*
X17847964Y-6414321D01*
X17847964Y-6414321D02*
X17857487Y-6419083D01*
X17981297Y-6480987D02*
X17981297Y-6380987D01*
X17981297Y-6419083D02*
X17990821Y-6414321D01*
X17990821Y-6414321D02*
X18009868Y-6414321D01*
X18009868Y-6414321D02*
X18019392Y-6419083D01*
X18019392Y-6419083D02*
X18024154Y-6423845D01*
X18024154Y-6423845D02*
X18028916Y-6433368D01*
X18028916Y-6433368D02*
X18028916Y-6461940D01*
X18028916Y-6461940D02*
X18024154Y-6471464D01*
X18024154Y-6471464D02*
X18019392Y-6476226D01*
X18019392Y-6476226D02*
X18009868Y-6480987D01*
X18009868Y-6480987D02*
X17990821Y-6480987D01*
X17990821Y-6480987D02*
X17981297Y-6476226D01*
X18062249Y-6414321D02*
X18086059Y-6480987D01*
X18109868Y-6414321D02*
X18086059Y-6480987D01*
X18086059Y-6480987D02*
X18076535Y-6504797D01*
X18076535Y-6504797D02*
X18071773Y-6509559D01*
X18071773Y-6509559D02*
X18062249Y-6514321D01*
X18219392Y-6452416D02*
X18267011Y-6452416D01*
X18209869Y-6480987D02*
X18243202Y-6380987D01*
X18243202Y-6380987D02*
X18276535Y-6480987D01*
X18309869Y-6414321D02*
X18309869Y-6480987D01*
X18309869Y-6423845D02*
X18314630Y-6419083D01*
X18314630Y-6419083D02*
X18324154Y-6414321D01*
X18324154Y-6414321D02*
X18338440Y-6414321D01*
X18338440Y-6414321D02*
X18347964Y-6419083D01*
X18347964Y-6419083D02*
X18352726Y-6428606D01*
X18352726Y-6428606D02*
X18352726Y-6480987D01*
X18443202Y-6480987D02*
X18443202Y-6380987D01*
X18443202Y-6476226D02*
X18433678Y-6480987D01*
X18433678Y-6480987D02*
X18414630Y-6480987D01*
X18414630Y-6480987D02*
X18405107Y-6476226D01*
X18405107Y-6476226D02*
X18400345Y-6471464D01*
X18400345Y-6471464D02*
X18395583Y-6461940D01*
X18395583Y-6461940D02*
X18395583Y-6433368D01*
X18395583Y-6433368D02*
X18400345Y-6423845D01*
X18400345Y-6423845D02*
X18405107Y-6419083D01*
X18405107Y-6419083D02*
X18414630Y-6414321D01*
X18414630Y-6414321D02*
X18433678Y-6414321D01*
X18433678Y-6414321D02*
X18443202Y-6419083D01*
X18490821Y-6480987D02*
X18490821Y-6414321D01*
X18490821Y-6433368D02*
X18495583Y-6423845D01*
X18495583Y-6423845D02*
X18500345Y-6419083D01*
X18500345Y-6419083D02*
X18509869Y-6414321D01*
X18509869Y-6414321D02*
X18519392Y-6414321D01*
X18590821Y-6476226D02*
X18581297Y-6480987D01*
X18581297Y-6480987D02*
X18562250Y-6480987D01*
X18562250Y-6480987D02*
X18552726Y-6476226D01*
X18552726Y-6476226D02*
X18547964Y-6466702D01*
X18547964Y-6466702D02*
X18547964Y-6428606D01*
X18547964Y-6428606D02*
X18552726Y-6419083D01*
X18552726Y-6419083D02*
X18562250Y-6414321D01*
X18562250Y-6414321D02*
X18581297Y-6414321D01*
X18581297Y-6414321D02*
X18590821Y-6419083D01*
X18590821Y-6419083D02*
X18595583Y-6428606D01*
X18595583Y-6428606D02*
X18595583Y-6438130D01*
X18595583Y-6438130D02*
X18547964Y-6447654D01*
X18628916Y-6414321D02*
X18652726Y-6480987D01*
X18676535Y-6414321D02*
X18652726Y-6480987D01*
X18652726Y-6480987D02*
X18643202Y-6504797D01*
X18643202Y-6504797D02*
X18638440Y-6509559D01*
X18638440Y-6509559D02*
X18628916Y-6514321D01*
X18790821Y-6480987D02*
X18790821Y-6380987D01*
X18828916Y-6414321D02*
X18852726Y-6480987D01*
X18852726Y-6480987D02*
X18876535Y-6414321D01*
X18957488Y-6480987D02*
X18957488Y-6428606D01*
X18957488Y-6428606D02*
X18952726Y-6419083D01*
X18952726Y-6419083D02*
X18943202Y-6414321D01*
X18943202Y-6414321D02*
X18924154Y-6414321D01*
X18924154Y-6414321D02*
X18914631Y-6419083D01*
X18957488Y-6476226D02*
X18947964Y-6480987D01*
X18947964Y-6480987D02*
X18924154Y-6480987D01*
X18924154Y-6480987D02*
X18914631Y-6476226D01*
X18914631Y-6476226D02*
X18909869Y-6466702D01*
X18909869Y-6466702D02*
X18909869Y-6457178D01*
X18909869Y-6457178D02*
X18914631Y-6447654D01*
X18914631Y-6447654D02*
X18924154Y-6442892D01*
X18924154Y-6442892D02*
X18947964Y-6442892D01*
X18947964Y-6442892D02*
X18957488Y-6438130D01*
X19005107Y-6414321D02*
X19005107Y-6480987D01*
X19005107Y-6423845D02*
X19009869Y-6419083D01*
X19009869Y-6419083D02*
X19019392Y-6414321D01*
X19019392Y-6414321D02*
X19033678Y-6414321D01*
X19033678Y-6414321D02*
X19043202Y-6419083D01*
X19043202Y-6419083D02*
X19047964Y-6428606D01*
X19047964Y-6428606D02*
X19047964Y-6480987D01*
X19109869Y-6480987D02*
X19100345Y-6476226D01*
X19100345Y-6476226D02*
X19095583Y-6471464D01*
X19095583Y-6471464D02*
X19090821Y-6461940D01*
X19090821Y-6461940D02*
X19090821Y-6433368D01*
X19090821Y-6433368D02*
X19095583Y-6423845D01*
X19095583Y-6423845D02*
X19100345Y-6419083D01*
X19100345Y-6419083D02*
X19109869Y-6414321D01*
X19109869Y-6414321D02*
X19124154Y-6414321D01*
X19124154Y-6414321D02*
X19133678Y-6419083D01*
X19133678Y-6419083D02*
X19138440Y-6423845D01*
X19138440Y-6423845D02*
X19143202Y-6433368D01*
X19143202Y-6433368D02*
X19143202Y-6461940D01*
X19143202Y-6461940D02*
X19138440Y-6471464D01*
X19138440Y-6471464D02*
X19133678Y-6476226D01*
X19133678Y-6476226D02*
X19124154Y-6480987D01*
X19124154Y-6480987D02*
X19109869Y-6480987D01*
X19176535Y-6414321D02*
X19200345Y-6480987D01*
X19200345Y-6480987D02*
X19224154Y-6414321D01*
X18600345Y-6551506D02*
X18605107Y-6546744D01*
X18605107Y-6546744D02*
X18614631Y-6541982D01*
X18614631Y-6541982D02*
X18638440Y-6541982D01*
X18638440Y-6541982D02*
X18647964Y-6546744D01*
X18647964Y-6546744D02*
X18652726Y-6551506D01*
X18652726Y-6551506D02*
X18657488Y-6561029D01*
X18657488Y-6561029D02*
X18657488Y-6570553D01*
X18657488Y-6570553D02*
X18652726Y-6584839D01*
X18652726Y-6584839D02*
X18595583Y-6641982D01*
X18595583Y-6641982D02*
X18657488Y-6641982D01*
X18690821Y-6541982D02*
X18757488Y-6541982D01*
X18757488Y-6541982D02*
X18714631Y-6641982D01*
X18795583Y-6632458D02*
X18800345Y-6637220D01*
X18800345Y-6637220D02*
X18795583Y-6641982D01*
X18795583Y-6641982D02*
X18790821Y-6637220D01*
X18790821Y-6637220D02*
X18795583Y-6632458D01*
X18795583Y-6632458D02*
X18795583Y-6641982D01*
X18862250Y-6541982D02*
X18871774Y-6541982D01*
X18871774Y-6541982D02*
X18881297Y-6546744D01*
X18881297Y-6546744D02*
X18886059Y-6551506D01*
X18886059Y-6551506D02*
X18890821Y-6561029D01*
X18890821Y-6561029D02*
X18895583Y-6580077D01*
X18895583Y-6580077D02*
X18895583Y-6603887D01*
X18895583Y-6603887D02*
X18890821Y-6622934D01*
X18890821Y-6622934D02*
X18886059Y-6632458D01*
X18886059Y-6632458D02*
X18881297Y-6637220D01*
X18881297Y-6637220D02*
X18871774Y-6641982D01*
X18871774Y-6641982D02*
X18862250Y-6641982D01*
X18862250Y-6641982D02*
X18852726Y-6637220D01*
X18852726Y-6637220D02*
X18847964Y-6632458D01*
X18847964Y-6632458D02*
X18843202Y-6622934D01*
X18843202Y-6622934D02*
X18838440Y-6603887D01*
X18838440Y-6603887D02*
X18838440Y-6580077D01*
X18838440Y-6580077D02*
X18843202Y-6561029D01*
X18843202Y-6561029D02*
X18847964Y-6551506D01*
X18847964Y-6551506D02*
X18852726Y-6546744D01*
X18852726Y-6546744D02*
X18862250Y-6541982D01*
X18943202Y-6641982D02*
X18962250Y-6641982D01*
X18962250Y-6641982D02*
X18971774Y-6637220D01*
X18971774Y-6637220D02*
X18976535Y-6632458D01*
X18976535Y-6632458D02*
X18986059Y-6618172D01*
X18986059Y-6618172D02*
X18990821Y-6599125D01*
X18990821Y-6599125D02*
X18990821Y-6561029D01*
X18990821Y-6561029D02*
X18986059Y-6551506D01*
X18986059Y-6551506D02*
X18981297Y-6546744D01*
X18981297Y-6546744D02*
X18971774Y-6541982D01*
X18971774Y-6541982D02*
X18952726Y-6541982D01*
X18952726Y-6541982D02*
X18943202Y-6546744D01*
X18943202Y-6546744D02*
X18938440Y-6551506D01*
X18938440Y-6551506D02*
X18933678Y-6561029D01*
X18933678Y-6561029D02*
X18933678Y-6584839D01*
X18933678Y-6584839D02*
X18938440Y-6594363D01*
X18938440Y-6594363D02*
X18943202Y-6599125D01*
X18943202Y-6599125D02*
X18952726Y-6603887D01*
X18952726Y-6603887D02*
X18971774Y-6603887D01*
X18971774Y-6603887D02*
X18981297Y-6599125D01*
X18981297Y-6599125D02*
X18986059Y-6594363D01*
X18986059Y-6594363D02*
X18990821Y-6584839D01*
X19033678Y-6632458D02*
X19038440Y-6637220D01*
X19038440Y-6637220D02*
X19033678Y-6641982D01*
X19033678Y-6641982D02*
X19028916Y-6637220D01*
X19028916Y-6637220D02*
X19033678Y-6632458D01*
X19033678Y-6632458D02*
X19033678Y-6641982D01*
X19076535Y-6551506D02*
X19081297Y-6546744D01*
X19081297Y-6546744D02*
X19090821Y-6541982D01*
X19090821Y-6541982D02*
X19114631Y-6541982D01*
X19114631Y-6541982D02*
X19124154Y-6546744D01*
X19124154Y-6546744D02*
X19128916Y-6551506D01*
X19128916Y-6551506D02*
X19133678Y-6561029D01*
X19133678Y-6561029D02*
X19133678Y-6570553D01*
X19133678Y-6570553D02*
X19128916Y-6584839D01*
X19128916Y-6584839D02*
X19071774Y-6641982D01*
X19071774Y-6641982D02*
X19133678Y-6641982D01*
X19195583Y-6541982D02*
X19205107Y-6541982D01*
X19205107Y-6541982D02*
X19214631Y-6546744D01*
X19214631Y-6546744D02*
X19219393Y-6551506D01*
X19219393Y-6551506D02*
X19224154Y-6561029D01*
X19224154Y-6561029D02*
X19228916Y-6580077D01*
X19228916Y-6580077D02*
X19228916Y-6603887D01*
X19228916Y-6603887D02*
X19224154Y-6622934D01*
X19224154Y-6622934D02*
X19219393Y-6632458D01*
X19219393Y-6632458D02*
X19214631Y-6637220D01*
X19214631Y-6637220D02*
X19205107Y-6641982D01*
X19205107Y-6641982D02*
X19195583Y-6641982D01*
X19195583Y-6641982D02*
X19186059Y-6637220D01*
X19186059Y-6637220D02*
X19181297Y-6632458D01*
X19181297Y-6632458D02*
X19176535Y-6622934D01*
X19176535Y-6622934D02*
X19171774Y-6603887D01*
X19171774Y-6603887D02*
X19171774Y-6580077D01*
X19171774Y-6580077D02*
X19176535Y-6561029D01*
X19176535Y-6561029D02*
X19181297Y-6551506D01*
X19181297Y-6551506D02*
X19186059Y-6546744D01*
X19186059Y-6546744D02*
X19195583Y-6541982D01*
X19267012Y-6551506D02*
X19271774Y-6546744D01*
X19271774Y-6546744D02*
X19281297Y-6541982D01*
X19281297Y-6541982D02*
X19305107Y-6541982D01*
X19305107Y-6541982D02*
X19314631Y-6546744D01*
X19314631Y-6546744D02*
X19319393Y-6551506D01*
X19319393Y-6551506D02*
X19324154Y-6561029D01*
X19324154Y-6561029D02*
X19324154Y-6570553D01*
X19324154Y-6570553D02*
X19319393Y-6584839D01*
X19319393Y-6584839D02*
X19262250Y-6641982D01*
X19262250Y-6641982D02*
X19324154Y-6641982D01*
X19357488Y-6541982D02*
X19419393Y-6541982D01*
X19419393Y-6541982D02*
X19386059Y-6580077D01*
X19386059Y-6580077D02*
X19400345Y-6580077D01*
X19400345Y-6580077D02*
X19409869Y-6584839D01*
X19409869Y-6584839D02*
X19414631Y-6589601D01*
X19414631Y-6589601D02*
X19419393Y-6599125D01*
X19419393Y-6599125D02*
X19419393Y-6622934D01*
X19419393Y-6622934D02*
X19414631Y-6632458D01*
X19414631Y-6632458D02*
X19409869Y-6637220D01*
X19409869Y-6637220D02*
X19400345Y-6641982D01*
X19400345Y-6641982D02*
X19371774Y-6641982D01*
X19371774Y-6641982D02*
X19362250Y-6637220D01*
X19362250Y-6637220D02*
X19357488Y-6632458D01*
D12*
X14850019Y-10926157D02*
X14810019Y-10926157D01*
X14810019Y-10989014D02*
X14810019Y-10869014D01*
X14810019Y-10869014D02*
X14867161Y-10869014D01*
X14907161Y-10880443D02*
X14912876Y-10874729D01*
X14912876Y-10874729D02*
X14924304Y-10869014D01*
X14924304Y-10869014D02*
X14952876Y-10869014D01*
X14952876Y-10869014D02*
X14964304Y-10874729D01*
X14964304Y-10874729D02*
X14970019Y-10880443D01*
X14970019Y-10880443D02*
X14975733Y-10891871D01*
X14975733Y-10891871D02*
X14975733Y-10903300D01*
X14975733Y-10903300D02*
X14970019Y-10920443D01*
X14970019Y-10920443D02*
X14901447Y-10989014D01*
X14901447Y-10989014D02*
X14975733Y-10989014D01*
X15347876Y-10879729D02*
X15336447Y-10874014D01*
X15336447Y-10874014D02*
X15319304Y-10874014D01*
X15319304Y-10874014D02*
X15302161Y-10879729D01*
X15302161Y-10879729D02*
X15290733Y-10891157D01*
X15290733Y-10891157D02*
X15285019Y-10902586D01*
X15285019Y-10902586D02*
X15279304Y-10925443D01*
X15279304Y-10925443D02*
X15279304Y-10942586D01*
X15279304Y-10942586D02*
X15285019Y-10965443D01*
X15285019Y-10965443D02*
X15290733Y-10976871D01*
X15290733Y-10976871D02*
X15302161Y-10988300D01*
X15302161Y-10988300D02*
X15319304Y-10994014D01*
X15319304Y-10994014D02*
X15330733Y-10994014D01*
X15330733Y-10994014D02*
X15347876Y-10988300D01*
X15347876Y-10988300D02*
X15353590Y-10982586D01*
X15353590Y-10982586D02*
X15353590Y-10942586D01*
X15353590Y-10942586D02*
X15330733Y-10942586D01*
X15405019Y-10994014D02*
X15405019Y-10874014D01*
X15405019Y-10874014D02*
X15473590Y-10994014D01*
X15473590Y-10994014D02*
X15473590Y-10874014D01*
X15530733Y-10994014D02*
X15530733Y-10874014D01*
X15530733Y-10874014D02*
X15559304Y-10874014D01*
X15559304Y-10874014D02*
X15576447Y-10879729D01*
X15576447Y-10879729D02*
X15587876Y-10891157D01*
X15587876Y-10891157D02*
X15593590Y-10902586D01*
X15593590Y-10902586D02*
X15599304Y-10925443D01*
X15599304Y-10925443D02*
X15599304Y-10942586D01*
X15599304Y-10942586D02*
X15593590Y-10965443D01*
X15593590Y-10965443D02*
X15587876Y-10976871D01*
X15587876Y-10976871D02*
X15576447Y-10988300D01*
X15576447Y-10988300D02*
X15559304Y-10994014D01*
X15559304Y-10994014D02*
X15530733Y-10994014D01*
X15112161Y-10874014D02*
X15055019Y-10874014D01*
X15055019Y-10874014D02*
X15049304Y-10931157D01*
X15049304Y-10931157D02*
X15055019Y-10925443D01*
X15055019Y-10925443D02*
X15066447Y-10919729D01*
X15066447Y-10919729D02*
X15095019Y-10919729D01*
X15095019Y-10919729D02*
X15106447Y-10925443D01*
X15106447Y-10925443D02*
X15112161Y-10931157D01*
X15112161Y-10931157D02*
X15117876Y-10942586D01*
X15117876Y-10942586D02*
X15117876Y-10971157D01*
X15117876Y-10971157D02*
X15112161Y-10982586D01*
X15112161Y-10982586D02*
X15106447Y-10988300D01*
X15106447Y-10988300D02*
X15095019Y-10994014D01*
X15095019Y-10994014D02*
X15066447Y-10994014D01*
X15066447Y-10994014D02*
X15055019Y-10988300D01*
X15055019Y-10988300D02*
X15049304Y-10982586D01*
X15152161Y-10874014D02*
X15192161Y-10994014D01*
X15192161Y-10994014D02*
X15232161Y-10874014D01*
D10*
X15124333Y-9288482D02*
X15076714Y-9288482D01*
X15076714Y-9288482D02*
X15076714Y-9188482D01*
X15148143Y-9188482D02*
X15214809Y-9188482D01*
X15214809Y-9188482D02*
X15171952Y-9288482D01*
X15053431Y-9522214D02*
X14996288Y-9522214D01*
X15024860Y-9522214D02*
X15024860Y-9422214D01*
X15024860Y-9422214D02*
X15015336Y-9436499D01*
X15015336Y-9436499D02*
X15005812Y-9446023D01*
X15005812Y-9446023D02*
X14996288Y-9450785D01*
X15139145Y-9455547D02*
X15139145Y-9522214D01*
X15096288Y-9455547D02*
X15096288Y-9507928D01*
X15096288Y-9507928D02*
X15101050Y-9517452D01*
X15101050Y-9517452D02*
X15110574Y-9522214D01*
X15110574Y-9522214D02*
X15124860Y-9522214D01*
X15124860Y-9522214D02*
X15134384Y-9517452D01*
X15134384Y-9517452D02*
X15139145Y-9512690D01*
X15186765Y-9522214D02*
X15186765Y-9422214D01*
X15186765Y-9469833D02*
X15243907Y-9469833D01*
X15243907Y-9522214D02*
X15243907Y-9422214D01*
X15006333Y-8591482D02*
X14958714Y-8591482D01*
X14958714Y-8591482D02*
X14958714Y-8491482D01*
X15053952Y-8534339D02*
X15044429Y-8529577D01*
X15044429Y-8529577D02*
X15039667Y-8524815D01*
X15039667Y-8524815D02*
X15034905Y-8515291D01*
X15034905Y-8515291D02*
X15034905Y-8510530D01*
X15034905Y-8510530D02*
X15039667Y-8501006D01*
X15039667Y-8501006D02*
X15044429Y-8496244D01*
X15044429Y-8496244D02*
X15053952Y-8491482D01*
X15053952Y-8491482D02*
X15073000Y-8491482D01*
X15073000Y-8491482D02*
X15082524Y-8496244D01*
X15082524Y-8496244D02*
X15087286Y-8501006D01*
X15087286Y-8501006D02*
X15092048Y-8510530D01*
X15092048Y-8510530D02*
X15092048Y-8515291D01*
X15092048Y-8515291D02*
X15087286Y-8524815D01*
X15087286Y-8524815D02*
X15082524Y-8529577D01*
X15082524Y-8529577D02*
X15073000Y-8534339D01*
X15073000Y-8534339D02*
X15053952Y-8534339D01*
X15053952Y-8534339D02*
X15044429Y-8539101D01*
X15044429Y-8539101D02*
X15039667Y-8543863D01*
X15039667Y-8543863D02*
X15034905Y-8553387D01*
X15034905Y-8553387D02*
X15034905Y-8572434D01*
X15034905Y-8572434D02*
X15039667Y-8581958D01*
X15039667Y-8581958D02*
X15044429Y-8586720D01*
X15044429Y-8586720D02*
X15053952Y-8591482D01*
X15053952Y-8591482D02*
X15073000Y-8591482D01*
X15073000Y-8591482D02*
X15082524Y-8586720D01*
X15082524Y-8586720D02*
X15087286Y-8581958D01*
X15087286Y-8581958D02*
X15092048Y-8572434D01*
X15092048Y-8572434D02*
X15092048Y-8553387D01*
X15092048Y-8553387D02*
X15087286Y-8543863D01*
X15087286Y-8543863D02*
X15082524Y-8539101D01*
X15082524Y-8539101D02*
X15073000Y-8534339D01*
X14820093Y-8257750D02*
X14829616Y-8257750D01*
X14829616Y-8257750D02*
X14839140Y-8262512D01*
X14839140Y-8262512D02*
X14843902Y-8267274D01*
X14843902Y-8267274D02*
X14848664Y-8276798D01*
X14848664Y-8276798D02*
X14853426Y-8295845D01*
X14853426Y-8295845D02*
X14853426Y-8319655D01*
X14853426Y-8319655D02*
X14848664Y-8338703D01*
X14848664Y-8338703D02*
X14843902Y-8348226D01*
X14843902Y-8348226D02*
X14839140Y-8352988D01*
X14839140Y-8352988D02*
X14829616Y-8357750D01*
X14829616Y-8357750D02*
X14820093Y-8357750D01*
X14820093Y-8357750D02*
X14810569Y-8352988D01*
X14810569Y-8352988D02*
X14805807Y-8348226D01*
X14805807Y-8348226D02*
X14801045Y-8338703D01*
X14801045Y-8338703D02*
X14796283Y-8319655D01*
X14796283Y-8319655D02*
X14796283Y-8295845D01*
X14796283Y-8295845D02*
X14801045Y-8276798D01*
X14801045Y-8276798D02*
X14805807Y-8267274D01*
X14805807Y-8267274D02*
X14810569Y-8262512D01*
X14810569Y-8262512D02*
X14820093Y-8257750D01*
X14896283Y-8348226D02*
X14901045Y-8352988D01*
X14901045Y-8352988D02*
X14896283Y-8357750D01*
X14896283Y-8357750D02*
X14891521Y-8352988D01*
X14891521Y-8352988D02*
X14896283Y-8348226D01*
X14896283Y-8348226D02*
X14896283Y-8357750D01*
X14939140Y-8267274D02*
X14943902Y-8262512D01*
X14943902Y-8262512D02*
X14953426Y-8257750D01*
X14953426Y-8257750D02*
X14977235Y-8257750D01*
X14977235Y-8257750D02*
X14986759Y-8262512D01*
X14986759Y-8262512D02*
X14991521Y-8267274D01*
X14991521Y-8267274D02*
X14996283Y-8276798D01*
X14996283Y-8276798D02*
X14996283Y-8286322D01*
X14996283Y-8286322D02*
X14991521Y-8300607D01*
X14991521Y-8300607D02*
X14934378Y-8357750D01*
X14934378Y-8357750D02*
X14996283Y-8357750D01*
X15029616Y-8257750D02*
X15096283Y-8257750D01*
X15096283Y-8257750D02*
X15053426Y-8357750D01*
X15177235Y-8291084D02*
X15177235Y-8357750D01*
X15134378Y-8291084D02*
X15134378Y-8343464D01*
X15134378Y-8343464D02*
X15139140Y-8352988D01*
X15139140Y-8352988D02*
X15148664Y-8357750D01*
X15148664Y-8357750D02*
X15162950Y-8357750D01*
X15162950Y-8357750D02*
X15172473Y-8352988D01*
X15172473Y-8352988D02*
X15177235Y-8348226D01*
X15224854Y-8357750D02*
X15224854Y-8257750D01*
X15224854Y-8305369D02*
X15281997Y-8305369D01*
X15281997Y-8357750D02*
X15281997Y-8257750D01*
X14247482Y-7784286D02*
X14199863Y-7817619D01*
X14247482Y-7841428D02*
X14147482Y-7841428D01*
X14147482Y-7841428D02*
X14147482Y-7803333D01*
X14147482Y-7803333D02*
X14152244Y-7793809D01*
X14152244Y-7793809D02*
X14157006Y-7789048D01*
X14157006Y-7789048D02*
X14166529Y-7784286D01*
X14166529Y-7784286D02*
X14180815Y-7784286D01*
X14180815Y-7784286D02*
X14190339Y-7789048D01*
X14190339Y-7789048D02*
X14195101Y-7793809D01*
X14195101Y-7793809D02*
X14199863Y-7803333D01*
X14199863Y-7803333D02*
X14199863Y-7841428D01*
X14247482Y-7689048D02*
X14247482Y-7746190D01*
X14247482Y-7717619D02*
X14147482Y-7717619D01*
X14147482Y-7717619D02*
X14161768Y-7727143D01*
X14161768Y-7727143D02*
X14171291Y-7736667D01*
X14171291Y-7736667D02*
X14176053Y-7746190D01*
X14147482Y-7627143D02*
X14147482Y-7617619D01*
X14147482Y-7617619D02*
X14152244Y-7608095D01*
X14152244Y-7608095D02*
X14157006Y-7603333D01*
X14157006Y-7603333D02*
X14166529Y-7598571D01*
X14166529Y-7598571D02*
X14185577Y-7593809D01*
X14185577Y-7593809D02*
X14209387Y-7593809D01*
X14209387Y-7593809D02*
X14228434Y-7598571D01*
X14228434Y-7598571D02*
X14237958Y-7603333D01*
X14237958Y-7603333D02*
X14242720Y-7608095D01*
X14242720Y-7608095D02*
X14247482Y-7617619D01*
X14247482Y-7617619D02*
X14247482Y-7627143D01*
X14247482Y-7627143D02*
X14242720Y-7636667D01*
X14242720Y-7636667D02*
X14237958Y-7641428D01*
X14237958Y-7641428D02*
X14228434Y-7646190D01*
X14228434Y-7646190D02*
X14209387Y-7650952D01*
X14209387Y-7650952D02*
X14185577Y-7650952D01*
X14185577Y-7650952D02*
X14166529Y-7646190D01*
X14166529Y-7646190D02*
X14157006Y-7641428D01*
X14157006Y-7641428D02*
X14152244Y-7636667D01*
X14152244Y-7636667D02*
X14147482Y-7627143D01*
X13955958Y-9234286D02*
X13960720Y-9239048D01*
X13960720Y-9239048D02*
X13965482Y-9253333D01*
X13965482Y-9253333D02*
X13965482Y-9262857D01*
X13965482Y-9262857D02*
X13960720Y-9277143D01*
X13960720Y-9277143D02*
X13951196Y-9286667D01*
X13951196Y-9286667D02*
X13941672Y-9291429D01*
X13941672Y-9291429D02*
X13922625Y-9296190D01*
X13922625Y-9296190D02*
X13908339Y-9296190D01*
X13908339Y-9296190D02*
X13889291Y-9291429D01*
X13889291Y-9291429D02*
X13879768Y-9286667D01*
X13879768Y-9286667D02*
X13870244Y-9277143D01*
X13870244Y-9277143D02*
X13865482Y-9262857D01*
X13865482Y-9262857D02*
X13865482Y-9253333D01*
X13865482Y-9253333D02*
X13870244Y-9239048D01*
X13870244Y-9239048D02*
X13875006Y-9234286D01*
X13965482Y-9139048D02*
X13965482Y-9196190D01*
X13965482Y-9167619D02*
X13865482Y-9167619D01*
X13865482Y-9167619D02*
X13879768Y-9177143D01*
X13879768Y-9177143D02*
X13889291Y-9186667D01*
X13889291Y-9186667D02*
X13894053Y-9196190D01*
X13865482Y-9048571D02*
X13865482Y-9096190D01*
X13865482Y-9096190D02*
X13913101Y-9100952D01*
X13913101Y-9100952D02*
X13908339Y-9096190D01*
X13908339Y-9096190D02*
X13903577Y-9086667D01*
X13903577Y-9086667D02*
X13903577Y-9062857D01*
X13903577Y-9062857D02*
X13908339Y-9053333D01*
X13908339Y-9053333D02*
X13913101Y-9048571D01*
X13913101Y-9048571D02*
X13922625Y-9043810D01*
X13922625Y-9043810D02*
X13946434Y-9043810D01*
X13946434Y-9043810D02*
X13955958Y-9048571D01*
X13955958Y-9048571D02*
X13960720Y-9053333D01*
X13960720Y-9053333D02*
X13965482Y-9062857D01*
X13965482Y-9062857D02*
X13965482Y-9086667D01*
X13965482Y-9086667D02*
X13960720Y-9096190D01*
X13960720Y-9096190D02*
X13955958Y-9100952D01*
X16222958Y-8914667D02*
X16227720Y-8919429D01*
X16227720Y-8919429D02*
X16232482Y-8933714D01*
X16232482Y-8933714D02*
X16232482Y-8943238D01*
X16232482Y-8943238D02*
X16227720Y-8957524D01*
X16227720Y-8957524D02*
X16218196Y-8967048D01*
X16218196Y-8967048D02*
X16208672Y-8971809D01*
X16208672Y-8971809D02*
X16189625Y-8976571D01*
X16189625Y-8976571D02*
X16175339Y-8976571D01*
X16175339Y-8976571D02*
X16156291Y-8971809D01*
X16156291Y-8971809D02*
X16146768Y-8967048D01*
X16146768Y-8967048D02*
X16137244Y-8957524D01*
X16137244Y-8957524D02*
X16132482Y-8943238D01*
X16132482Y-8943238D02*
X16132482Y-8933714D01*
X16132482Y-8933714D02*
X16137244Y-8919429D01*
X16137244Y-8919429D02*
X16142006Y-8914667D01*
X16132482Y-8881333D02*
X16132482Y-8814667D01*
X16132482Y-8814667D02*
X16232482Y-8857524D01*
X14262482Y-7006667D02*
X14214863Y-7040000D01*
X14262482Y-7063809D02*
X14162482Y-7063809D01*
X14162482Y-7063809D02*
X14162482Y-7025714D01*
X14162482Y-7025714D02*
X14167244Y-7016190D01*
X14167244Y-7016190D02*
X14172006Y-7011428D01*
X14172006Y-7011428D02*
X14181529Y-7006667D01*
X14181529Y-7006667D02*
X14195815Y-7006667D01*
X14195815Y-7006667D02*
X14205339Y-7011428D01*
X14205339Y-7011428D02*
X14210101Y-7016190D01*
X14210101Y-7016190D02*
X14214863Y-7025714D01*
X14214863Y-7025714D02*
X14214863Y-7063809D01*
X14162482Y-6973333D02*
X14162482Y-6906667D01*
X14162482Y-6906667D02*
X14262482Y-6949524D01*
X12268792Y-9153732D02*
X12268792Y-9225160D01*
X12268792Y-9225160D02*
X12264030Y-9239446D01*
X12264030Y-9239446D02*
X12254506Y-9248970D01*
X12254506Y-9248970D02*
X12240220Y-9253732D01*
X12240220Y-9253732D02*
X12230696Y-9253732D01*
X12368792Y-9253732D02*
X12311649Y-9253732D01*
X12340220Y-9253732D02*
X12340220Y-9153732D01*
X12340220Y-9153732D02*
X12330696Y-9168018D01*
X12330696Y-9168018D02*
X12321173Y-9177541D01*
X12321173Y-9177541D02*
X12311649Y-9182303D01*
X12991667Y-10062720D02*
X13005952Y-10067482D01*
X13005952Y-10067482D02*
X13029762Y-10067482D01*
X13029762Y-10067482D02*
X13039286Y-10062720D01*
X13039286Y-10062720D02*
X13044048Y-10057958D01*
X13044048Y-10057958D02*
X13048809Y-10048434D01*
X13048809Y-10048434D02*
X13048809Y-10038910D01*
X13048809Y-10038910D02*
X13044048Y-10029387D01*
X13044048Y-10029387D02*
X13039286Y-10024625D01*
X13039286Y-10024625D02*
X13029762Y-10019863D01*
X13029762Y-10019863D02*
X13010714Y-10015101D01*
X13010714Y-10015101D02*
X13001190Y-10010339D01*
X13001190Y-10010339D02*
X12996429Y-10005577D01*
X12996429Y-10005577D02*
X12991667Y-9996053D01*
X12991667Y-9996053D02*
X12991667Y-9986530D01*
X12991667Y-9986530D02*
X12996429Y-9977006D01*
X12996429Y-9977006D02*
X13001190Y-9972244D01*
X13001190Y-9972244D02*
X13010714Y-9967482D01*
X13010714Y-9967482D02*
X13034524Y-9967482D01*
X13034524Y-9967482D02*
X13048809Y-9972244D01*
X13082143Y-9967482D02*
X13105952Y-10067482D01*
X13105952Y-10067482D02*
X13125000Y-9996053D01*
X13125000Y-9996053D02*
X13144048Y-10067482D01*
X13144048Y-10067482D02*
X13167857Y-9967482D01*
X13258333Y-10067482D02*
X13201190Y-10067482D01*
X13229762Y-10067482D02*
X13229762Y-9967482D01*
X13229762Y-9967482D02*
X13220238Y-9981768D01*
X13220238Y-9981768D02*
X13210714Y-9991291D01*
X13210714Y-9991291D02*
X13201190Y-9996053D01*
X14284333Y-8212958D02*
X14279571Y-8217720D01*
X14279571Y-8217720D02*
X14265286Y-8222482D01*
X14265286Y-8222482D02*
X14255762Y-8222482D01*
X14255762Y-8222482D02*
X14241476Y-8217720D01*
X14241476Y-8217720D02*
X14231952Y-8208196D01*
X14231952Y-8208196D02*
X14227190Y-8198672D01*
X14227190Y-8198672D02*
X14222429Y-8179625D01*
X14222429Y-8179625D02*
X14222429Y-8165339D01*
X14222429Y-8165339D02*
X14227190Y-8146291D01*
X14227190Y-8146291D02*
X14231952Y-8136768D01*
X14231952Y-8136768D02*
X14241476Y-8127244D01*
X14241476Y-8127244D02*
X14255762Y-8122482D01*
X14255762Y-8122482D02*
X14265286Y-8122482D01*
X14265286Y-8122482D02*
X14279571Y-8127244D01*
X14279571Y-8127244D02*
X14284333Y-8132006D01*
X14370048Y-8122482D02*
X14351000Y-8122482D01*
X14351000Y-8122482D02*
X14341476Y-8127244D01*
X14341476Y-8127244D02*
X14336714Y-8132006D01*
X14336714Y-8132006D02*
X14327190Y-8146291D01*
X14327190Y-8146291D02*
X14322429Y-8165339D01*
X14322429Y-8165339D02*
X14322429Y-8203434D01*
X14322429Y-8203434D02*
X14327190Y-8212958D01*
X14327190Y-8212958D02*
X14331952Y-8217720D01*
X14331952Y-8217720D02*
X14341476Y-8222482D01*
X14341476Y-8222482D02*
X14360524Y-8222482D01*
X14360524Y-8222482D02*
X14370048Y-8217720D01*
X14370048Y-8217720D02*
X14374809Y-8212958D01*
X14374809Y-8212958D02*
X14379571Y-8203434D01*
X14379571Y-8203434D02*
X14379571Y-8179625D01*
X14379571Y-8179625D02*
X14374809Y-8170101D01*
X14374809Y-8170101D02*
X14370048Y-8165339D01*
X14370048Y-8165339D02*
X14360524Y-8160577D01*
X14360524Y-8160577D02*
X14341476Y-8160577D01*
X14341476Y-8160577D02*
X14331952Y-8165339D01*
X14331952Y-8165339D02*
X14327190Y-8170101D01*
X14327190Y-8170101D02*
X14322429Y-8179625D01*
X14390333Y-8925958D02*
X14385571Y-8930720D01*
X14385571Y-8930720D02*
X14371286Y-8935482D01*
X14371286Y-8935482D02*
X14361762Y-8935482D01*
X14361762Y-8935482D02*
X14347476Y-8930720D01*
X14347476Y-8930720D02*
X14337952Y-8921196D01*
X14337952Y-8921196D02*
X14333190Y-8911672D01*
X14333190Y-8911672D02*
X14328429Y-8892625D01*
X14328429Y-8892625D02*
X14328429Y-8878339D01*
X14328429Y-8878339D02*
X14333190Y-8859291D01*
X14333190Y-8859291D02*
X14337952Y-8849768D01*
X14337952Y-8849768D02*
X14347476Y-8840244D01*
X14347476Y-8840244D02*
X14361762Y-8835482D01*
X14361762Y-8835482D02*
X14371286Y-8835482D01*
X14371286Y-8835482D02*
X14385571Y-8840244D01*
X14385571Y-8840244D02*
X14390333Y-8845006D01*
X14437952Y-8935482D02*
X14457000Y-8935482D01*
X14457000Y-8935482D02*
X14466524Y-8930720D01*
X14466524Y-8930720D02*
X14471286Y-8925958D01*
X14471286Y-8925958D02*
X14480809Y-8911672D01*
X14480809Y-8911672D02*
X14485571Y-8892625D01*
X14485571Y-8892625D02*
X14485571Y-8854530D01*
X14485571Y-8854530D02*
X14480809Y-8845006D01*
X14480809Y-8845006D02*
X14476048Y-8840244D01*
X14476048Y-8840244D02*
X14466524Y-8835482D01*
X14466524Y-8835482D02*
X14447476Y-8835482D01*
X14447476Y-8835482D02*
X14437952Y-8840244D01*
X14437952Y-8840244D02*
X14433190Y-8845006D01*
X14433190Y-8845006D02*
X14428429Y-8854530D01*
X14428429Y-8854530D02*
X14428429Y-8878339D01*
X14428429Y-8878339D02*
X14433190Y-8887863D01*
X14433190Y-8887863D02*
X14437952Y-8892625D01*
X14437952Y-8892625D02*
X14447476Y-8897387D01*
X14447476Y-8897387D02*
X14466524Y-8897387D01*
X14466524Y-8897387D02*
X14476048Y-8892625D01*
X14476048Y-8892625D02*
X14480809Y-8887863D01*
X14480809Y-8887863D02*
X14485571Y-8878339D01*
X18915714Y-9137958D02*
X18910952Y-9142720D01*
X18910952Y-9142720D02*
X18896667Y-9147482D01*
X18896667Y-9147482D02*
X18887143Y-9147482D01*
X18887143Y-9147482D02*
X18872857Y-9142720D01*
X18872857Y-9142720D02*
X18863333Y-9133196D01*
X18863333Y-9133196D02*
X18858571Y-9123672D01*
X18858571Y-9123672D02*
X18853810Y-9104625D01*
X18853810Y-9104625D02*
X18853810Y-9090339D01*
X18853810Y-9090339D02*
X18858571Y-9071291D01*
X18858571Y-9071291D02*
X18863333Y-9061768D01*
X18863333Y-9061768D02*
X18872857Y-9052244D01*
X18872857Y-9052244D02*
X18887143Y-9047482D01*
X18887143Y-9047482D02*
X18896667Y-9047482D01*
X18896667Y-9047482D02*
X18910952Y-9052244D01*
X18910952Y-9052244D02*
X18915714Y-9057006D01*
X19010952Y-9147482D02*
X18953810Y-9147482D01*
X18982381Y-9147482D02*
X18982381Y-9047482D01*
X18982381Y-9047482D02*
X18972857Y-9061768D01*
X18972857Y-9061768D02*
X18963333Y-9071291D01*
X18963333Y-9071291D02*
X18953810Y-9076053D01*
X19044286Y-9047482D02*
X19110952Y-9047482D01*
X19110952Y-9047482D02*
X19068095Y-9147482D01*
X16690714Y-9982958D02*
X16685952Y-9987720D01*
X16685952Y-9987720D02*
X16671667Y-9992482D01*
X16671667Y-9992482D02*
X16662143Y-9992482D01*
X16662143Y-9992482D02*
X16647857Y-9987720D01*
X16647857Y-9987720D02*
X16638333Y-9978196D01*
X16638333Y-9978196D02*
X16633571Y-9968672D01*
X16633571Y-9968672D02*
X16628809Y-9949625D01*
X16628809Y-9949625D02*
X16628809Y-9935339D01*
X16628809Y-9935339D02*
X16633571Y-9916291D01*
X16633571Y-9916291D02*
X16638333Y-9906768D01*
X16638333Y-9906768D02*
X16647857Y-9897244D01*
X16647857Y-9897244D02*
X16662143Y-9892482D01*
X16662143Y-9892482D02*
X16671667Y-9892482D01*
X16671667Y-9892482D02*
X16685952Y-9897244D01*
X16685952Y-9897244D02*
X16690714Y-9902006D01*
X16785952Y-9992482D02*
X16728809Y-9992482D01*
X16757381Y-9992482D02*
X16757381Y-9892482D01*
X16757381Y-9892482D02*
X16747857Y-9906768D01*
X16747857Y-9906768D02*
X16738333Y-9916291D01*
X16738333Y-9916291D02*
X16728809Y-9921053D01*
X16819286Y-9892482D02*
X16881190Y-9892482D01*
X16881190Y-9892482D02*
X16847857Y-9930577D01*
X16847857Y-9930577D02*
X16862143Y-9930577D01*
X16862143Y-9930577D02*
X16871667Y-9935339D01*
X16871667Y-9935339D02*
X16876429Y-9940101D01*
X16876429Y-9940101D02*
X16881190Y-9949625D01*
X16881190Y-9949625D02*
X16881190Y-9973434D01*
X16881190Y-9973434D02*
X16876429Y-9982958D01*
X16876429Y-9982958D02*
X16871667Y-9987720D01*
X16871667Y-9987720D02*
X16862143Y-9992482D01*
X16862143Y-9992482D02*
X16833571Y-9992482D01*
X16833571Y-9992482D02*
X16824048Y-9987720D01*
X16824048Y-9987720D02*
X16819286Y-9982958D01*
X18441810Y-8066482D02*
X18441810Y-8147434D01*
X18441810Y-8147434D02*
X18446571Y-8156958D01*
X18446571Y-8156958D02*
X18451333Y-8161720D01*
X18451333Y-8161720D02*
X18460857Y-8166482D01*
X18460857Y-8166482D02*
X18479905Y-8166482D01*
X18479905Y-8166482D02*
X18489429Y-8161720D01*
X18489429Y-8161720D02*
X18494190Y-8156958D01*
X18494190Y-8156958D02*
X18498952Y-8147434D01*
X18498952Y-8147434D02*
X18498952Y-8066482D01*
X18541810Y-8076006D02*
X18546571Y-8071244D01*
X18546571Y-8071244D02*
X18556095Y-8066482D01*
X18556095Y-8066482D02*
X18579905Y-8066482D01*
X18579905Y-8066482D02*
X18589429Y-8071244D01*
X18589429Y-8071244D02*
X18594190Y-8076006D01*
X18594190Y-8076006D02*
X18598952Y-8085529D01*
X18598952Y-8085529D02*
X18598952Y-8095053D01*
X18598952Y-8095053D02*
X18594190Y-8109339D01*
X18594190Y-8109339D02*
X18537048Y-8166482D01*
X18537048Y-8166482D02*
X18598952Y-8166482D01*
X18181238Y-8289720D02*
X18195524Y-8294482D01*
X18195524Y-8294482D02*
X18219333Y-8294482D01*
X18219333Y-8294482D02*
X18228857Y-8289720D01*
X18228857Y-8289720D02*
X18233619Y-8284958D01*
X18233619Y-8284958D02*
X18238381Y-8275434D01*
X18238381Y-8275434D02*
X18238381Y-8265910D01*
X18238381Y-8265910D02*
X18233619Y-8256387D01*
X18233619Y-8256387D02*
X18228857Y-8251625D01*
X18228857Y-8251625D02*
X18219333Y-8246863D01*
X18219333Y-8246863D02*
X18200286Y-8242101D01*
X18200286Y-8242101D02*
X18190762Y-8237339D01*
X18190762Y-8237339D02*
X18186000Y-8232577D01*
X18186000Y-8232577D02*
X18181238Y-8223053D01*
X18181238Y-8223053D02*
X18181238Y-8213529D01*
X18181238Y-8213529D02*
X18186000Y-8204006D01*
X18186000Y-8204006D02*
X18190762Y-8199244D01*
X18190762Y-8199244D02*
X18200286Y-8194482D01*
X18200286Y-8194482D02*
X18224095Y-8194482D01*
X18224095Y-8194482D02*
X18238381Y-8199244D01*
X18281238Y-8294482D02*
X18281238Y-8194482D01*
X18281238Y-8194482D02*
X18338381Y-8294482D01*
X18338381Y-8294482D02*
X18338381Y-8194482D01*
X18376476Y-8194482D02*
X18443143Y-8194482D01*
X18443143Y-8194482D02*
X18400286Y-8294482D01*
X18524095Y-8227815D02*
X18524095Y-8294482D01*
X18500286Y-8189720D02*
X18476476Y-8261148D01*
X18476476Y-8261148D02*
X18538381Y-8261148D01*
X18633619Y-8284958D02*
X18628857Y-8289720D01*
X18628857Y-8289720D02*
X18614571Y-8294482D01*
X18614571Y-8294482D02*
X18605048Y-8294482D01*
X18605048Y-8294482D02*
X18590762Y-8289720D01*
X18590762Y-8289720D02*
X18581238Y-8280196D01*
X18581238Y-8280196D02*
X18576476Y-8270672D01*
X18576476Y-8270672D02*
X18571714Y-8251625D01*
X18571714Y-8251625D02*
X18571714Y-8237339D01*
X18571714Y-8237339D02*
X18576476Y-8218291D01*
X18576476Y-8218291D02*
X18581238Y-8208768D01*
X18581238Y-8208768D02*
X18590762Y-8199244D01*
X18590762Y-8199244D02*
X18605048Y-8194482D01*
X18605048Y-8194482D02*
X18614571Y-8194482D01*
X18614571Y-8194482D02*
X18628857Y-8199244D01*
X18628857Y-8199244D02*
X18633619Y-8204006D01*
X18709810Y-8242101D02*
X18724095Y-8246863D01*
X18724095Y-8246863D02*
X18728857Y-8251625D01*
X18728857Y-8251625D02*
X18733619Y-8261148D01*
X18733619Y-8261148D02*
X18733619Y-8275434D01*
X18733619Y-8275434D02*
X18728857Y-8284958D01*
X18728857Y-8284958D02*
X18724095Y-8289720D01*
X18724095Y-8289720D02*
X18714571Y-8294482D01*
X18714571Y-8294482D02*
X18676476Y-8294482D01*
X18676476Y-8294482D02*
X18676476Y-8194482D01*
X18676476Y-8194482D02*
X18709810Y-8194482D01*
X18709810Y-8194482D02*
X18719333Y-8199244D01*
X18719333Y-8199244D02*
X18724095Y-8204006D01*
X18724095Y-8204006D02*
X18728857Y-8213529D01*
X18728857Y-8213529D02*
X18728857Y-8223053D01*
X18728857Y-8223053D02*
X18724095Y-8232577D01*
X18724095Y-8232577D02*
X18719333Y-8237339D01*
X18719333Y-8237339D02*
X18709810Y-8242101D01*
X18709810Y-8242101D02*
X18676476Y-8242101D01*
X18762191Y-8194482D02*
X18819333Y-8194482D01*
X18790762Y-8294482D02*
X18790762Y-8194482D01*
X18843143Y-8194482D02*
X18905048Y-8194482D01*
X18905048Y-8194482D02*
X18871714Y-8232577D01*
X18871714Y-8232577D02*
X18886000Y-8232577D01*
X18886000Y-8232577D02*
X18895524Y-8237339D01*
X18895524Y-8237339D02*
X18900286Y-8242101D01*
X18900286Y-8242101D02*
X18905048Y-8251625D01*
X18905048Y-8251625D02*
X18905048Y-8275434D01*
X18905048Y-8275434D02*
X18900286Y-8284958D01*
X18900286Y-8284958D02*
X18895524Y-8289720D01*
X18895524Y-8289720D02*
X18886000Y-8294482D01*
X18886000Y-8294482D02*
X18857429Y-8294482D01*
X18857429Y-8294482D02*
X18847905Y-8289720D01*
X18847905Y-8289720D02*
X18843143Y-8284958D01*
X18943143Y-8204006D02*
X18947905Y-8199244D01*
X18947905Y-8199244D02*
X18957429Y-8194482D01*
X18957429Y-8194482D02*
X18981238Y-8194482D01*
X18981238Y-8194482D02*
X18990762Y-8199244D01*
X18990762Y-8199244D02*
X18995524Y-8204006D01*
X18995524Y-8204006D02*
X19000286Y-8213529D01*
X19000286Y-8213529D02*
X19000286Y-8223053D01*
X19000286Y-8223053D02*
X18995524Y-8237339D01*
X18995524Y-8237339D02*
X18938381Y-8294482D01*
X18938381Y-8294482D02*
X19000286Y-8294482D01*
X19090762Y-8194482D02*
X19043143Y-8194482D01*
X19043143Y-8194482D02*
X19038381Y-8242101D01*
X19038381Y-8242101D02*
X19043143Y-8237339D01*
X19043143Y-8237339D02*
X19052667Y-8232577D01*
X19052667Y-8232577D02*
X19076476Y-8232577D01*
X19076476Y-8232577D02*
X19086000Y-8237339D01*
X19086000Y-8237339D02*
X19090762Y-8242101D01*
X19090762Y-8242101D02*
X19095524Y-8251625D01*
X19095524Y-8251625D02*
X19095524Y-8275434D01*
X19095524Y-8275434D02*
X19090762Y-8284958D01*
X19090762Y-8284958D02*
X19086000Y-8289720D01*
X19086000Y-8289720D02*
X19076476Y-8294482D01*
X19076476Y-8294482D02*
X19052667Y-8294482D01*
X19052667Y-8294482D02*
X19043143Y-8289720D01*
X19043143Y-8289720D02*
X19038381Y-8284958D01*
X19128857Y-8194482D02*
X19190762Y-8194482D01*
X19190762Y-8194482D02*
X19157429Y-8232577D01*
X19157429Y-8232577D02*
X19171714Y-8232577D01*
X19171714Y-8232577D02*
X19181238Y-8237339D01*
X19181238Y-8237339D02*
X19186000Y-8242101D01*
X19186000Y-8242101D02*
X19190762Y-8251625D01*
X19190762Y-8251625D02*
X19190762Y-8275434D01*
X19190762Y-8275434D02*
X19186000Y-8284958D01*
X19186000Y-8284958D02*
X19181238Y-8289720D01*
X19181238Y-8289720D02*
X19171714Y-8294482D01*
X19171714Y-8294482D02*
X19143143Y-8294482D01*
X19143143Y-8294482D02*
X19133619Y-8289720D01*
X19133619Y-8289720D02*
X19128857Y-8284958D01*
X16686714Y-10365958D02*
X16681952Y-10370720D01*
X16681952Y-10370720D02*
X16667667Y-10375482D01*
X16667667Y-10375482D02*
X16658143Y-10375482D01*
X16658143Y-10375482D02*
X16643857Y-10370720D01*
X16643857Y-10370720D02*
X16634333Y-10361196D01*
X16634333Y-10361196D02*
X16629571Y-10351672D01*
X16629571Y-10351672D02*
X16624809Y-10332625D01*
X16624809Y-10332625D02*
X16624809Y-10318339D01*
X16624809Y-10318339D02*
X16629571Y-10299291D01*
X16629571Y-10299291D02*
X16634333Y-10289768D01*
X16634333Y-10289768D02*
X16643857Y-10280244D01*
X16643857Y-10280244D02*
X16658143Y-10275482D01*
X16658143Y-10275482D02*
X16667667Y-10275482D01*
X16667667Y-10275482D02*
X16681952Y-10280244D01*
X16681952Y-10280244D02*
X16686714Y-10285006D01*
X16781952Y-10375482D02*
X16724809Y-10375482D01*
X16753381Y-10375482D02*
X16753381Y-10275482D01*
X16753381Y-10275482D02*
X16743857Y-10289768D01*
X16743857Y-10289768D02*
X16734333Y-10299291D01*
X16734333Y-10299291D02*
X16724809Y-10304053D01*
X16867667Y-10308815D02*
X16867667Y-10375482D01*
X16843857Y-10270720D02*
X16820048Y-10342149D01*
X16820048Y-10342149D02*
X16881952Y-10342149D01*
X19081482Y-7593190D02*
X19081482Y-7536048D01*
X19181482Y-7564619D02*
X19081482Y-7564619D01*
X19091006Y-7507476D02*
X19086244Y-7502714D01*
X19086244Y-7502714D02*
X19081482Y-7493190D01*
X19081482Y-7493190D02*
X19081482Y-7469381D01*
X19081482Y-7469381D02*
X19086244Y-7459857D01*
X19086244Y-7459857D02*
X19091006Y-7455095D01*
X19091006Y-7455095D02*
X19100530Y-7450333D01*
X19100530Y-7450333D02*
X19110053Y-7450333D01*
X19110053Y-7450333D02*
X19124339Y-7455095D01*
X19124339Y-7455095D02*
X19181482Y-7512238D01*
X19181482Y-7512238D02*
X19181482Y-7450333D01*
X14419333Y-6619958D02*
X14414571Y-6624720D01*
X14414571Y-6624720D02*
X14400286Y-6629482D01*
X14400286Y-6629482D02*
X14390762Y-6629482D01*
X14390762Y-6629482D02*
X14376476Y-6624720D01*
X14376476Y-6624720D02*
X14366952Y-6615196D01*
X14366952Y-6615196D02*
X14362190Y-6605672D01*
X14362190Y-6605672D02*
X14357429Y-6586625D01*
X14357429Y-6586625D02*
X14357429Y-6572339D01*
X14357429Y-6572339D02*
X14362190Y-6553291D01*
X14362190Y-6553291D02*
X14366952Y-6543768D01*
X14366952Y-6543768D02*
X14376476Y-6534244D01*
X14376476Y-6534244D02*
X14390762Y-6529482D01*
X14390762Y-6529482D02*
X14400286Y-6529482D01*
X14400286Y-6529482D02*
X14414571Y-6534244D01*
X14414571Y-6534244D02*
X14419333Y-6539006D01*
X14457429Y-6539006D02*
X14462190Y-6534244D01*
X14462190Y-6534244D02*
X14471714Y-6529482D01*
X14471714Y-6529482D02*
X14495524Y-6529482D01*
X14495524Y-6529482D02*
X14505048Y-6534244D01*
X14505048Y-6534244D02*
X14509809Y-6539006D01*
X14509809Y-6539006D02*
X14514571Y-6548529D01*
X14514571Y-6548529D02*
X14514571Y-6558053D01*
X14514571Y-6558053D02*
X14509809Y-6572339D01*
X14509809Y-6572339D02*
X14452667Y-6629482D01*
X14452667Y-6629482D02*
X14514571Y-6629482D01*
X13778083Y-6499232D02*
X13744750Y-6451613D01*
X13720940Y-6499232D02*
X13720940Y-6399232D01*
X13720940Y-6399232D02*
X13759036Y-6399232D01*
X13759036Y-6399232D02*
X13768559Y-6403994D01*
X13768559Y-6403994D02*
X13773321Y-6408756D01*
X13773321Y-6408756D02*
X13778083Y-6418279D01*
X13778083Y-6418279D02*
X13778083Y-6432565D01*
X13778083Y-6432565D02*
X13773321Y-6442089D01*
X13773321Y-6442089D02*
X13768559Y-6446851D01*
X13768559Y-6446851D02*
X13759036Y-6451613D01*
X13759036Y-6451613D02*
X13720940Y-6451613D01*
X13868559Y-6399232D02*
X13820940Y-6399232D01*
X13820940Y-6399232D02*
X13816179Y-6446851D01*
X13816179Y-6446851D02*
X13820940Y-6442089D01*
X13820940Y-6442089D02*
X13830464Y-6437327D01*
X13830464Y-6437327D02*
X13854274Y-6437327D01*
X13854274Y-6437327D02*
X13863798Y-6442089D01*
X13863798Y-6442089D02*
X13868559Y-6446851D01*
X13868559Y-6446851D02*
X13873321Y-6456375D01*
X13873321Y-6456375D02*
X13873321Y-6480184D01*
X13873321Y-6480184D02*
X13868559Y-6489708D01*
X13868559Y-6489708D02*
X13863798Y-6494470D01*
X13863798Y-6494470D02*
X13854274Y-6499232D01*
X13854274Y-6499232D02*
X13830464Y-6499232D01*
X13830464Y-6499232D02*
X13820940Y-6494470D01*
X13820940Y-6494470D02*
X13816179Y-6489708D01*
X19711667Y-8152482D02*
X19711667Y-8223910D01*
X19711667Y-8223910D02*
X19706905Y-8238196D01*
X19706905Y-8238196D02*
X19697381Y-8247720D01*
X19697381Y-8247720D02*
X19683095Y-8252482D01*
X19683095Y-8252482D02*
X19673571Y-8252482D01*
X19802143Y-8185815D02*
X19802143Y-8252482D01*
X19778333Y-8147720D02*
X19754524Y-8219148D01*
X19754524Y-8219148D02*
X19816429Y-8219148D01*
X15157333Y-7001482D02*
X15109714Y-7001482D01*
X15109714Y-7001482D02*
X15109714Y-6901482D01*
X15243048Y-7001482D02*
X15185905Y-7001482D01*
X15214476Y-7001482D02*
X15214476Y-6901482D01*
X15214476Y-6901482D02*
X15204952Y-6915768D01*
X15204952Y-6915768D02*
X15195429Y-6925291D01*
X15195429Y-6925291D02*
X15185905Y-6930053D01*
X15005047Y-7186968D02*
X14957428Y-7186968D01*
X14957428Y-7186968D02*
X14952666Y-7234587D01*
X14952666Y-7234587D02*
X14957428Y-7229825D01*
X14957428Y-7229825D02*
X14966951Y-7225063D01*
X14966951Y-7225063D02*
X14990761Y-7225063D01*
X14990761Y-7225063D02*
X15000285Y-7229825D01*
X15000285Y-7229825D02*
X15005047Y-7234587D01*
X15005047Y-7234587D02*
X15009808Y-7244111D01*
X15009808Y-7244111D02*
X15009808Y-7267920D01*
X15009808Y-7267920D02*
X15005047Y-7277444D01*
X15005047Y-7277444D02*
X15000285Y-7282206D01*
X15000285Y-7282206D02*
X14990761Y-7286968D01*
X14990761Y-7286968D02*
X14966951Y-7286968D01*
X14966951Y-7286968D02*
X14957428Y-7282206D01*
X14957428Y-7282206D02*
X14952666Y-7277444D01*
X15052666Y-7277444D02*
X15057428Y-7282206D01*
X15057428Y-7282206D02*
X15052666Y-7286968D01*
X15052666Y-7286968D02*
X15047904Y-7282206D01*
X15047904Y-7282206D02*
X15052666Y-7277444D01*
X15052666Y-7277444D02*
X15052666Y-7286968D01*
X15147904Y-7186968D02*
X15100285Y-7186968D01*
X15100285Y-7186968D02*
X15095523Y-7234587D01*
X15095523Y-7234587D02*
X15100285Y-7229825D01*
X15100285Y-7229825D02*
X15109808Y-7225063D01*
X15109808Y-7225063D02*
X15133618Y-7225063D01*
X15133618Y-7225063D02*
X15143142Y-7229825D01*
X15143142Y-7229825D02*
X15147904Y-7234587D01*
X15147904Y-7234587D02*
X15152666Y-7244111D01*
X15152666Y-7244111D02*
X15152666Y-7267920D01*
X15152666Y-7267920D02*
X15147904Y-7277444D01*
X15147904Y-7277444D02*
X15143142Y-7282206D01*
X15143142Y-7282206D02*
X15133618Y-7286968D01*
X15133618Y-7286968D02*
X15109808Y-7286968D01*
X15109808Y-7286968D02*
X15100285Y-7282206D01*
X15100285Y-7282206D02*
X15095523Y-7277444D01*
X15238380Y-7220301D02*
X15238380Y-7286968D01*
X15195523Y-7220301D02*
X15195523Y-7272682D01*
X15195523Y-7272682D02*
X15200285Y-7282206D01*
X15200285Y-7282206D02*
X15209808Y-7286968D01*
X15209808Y-7286968D02*
X15224094Y-7286968D01*
X15224094Y-7286968D02*
X15233618Y-7282206D01*
X15233618Y-7282206D02*
X15238380Y-7277444D01*
X15285999Y-7286968D02*
X15285999Y-7186968D01*
X15285999Y-7234587D02*
X15343142Y-7234587D01*
X15343142Y-7286968D02*
X15343142Y-7186968D01*
X16456833Y-7411482D02*
X16409214Y-7411482D01*
X16409214Y-7411482D02*
X16409214Y-7311482D01*
X16485405Y-7321006D02*
X16490167Y-7316244D01*
X16490167Y-7316244D02*
X16499690Y-7311482D01*
X16499690Y-7311482D02*
X16523500Y-7311482D01*
X16523500Y-7311482D02*
X16533024Y-7316244D01*
X16533024Y-7316244D02*
X16537786Y-7321006D01*
X16537786Y-7321006D02*
X16542548Y-7330529D01*
X16542548Y-7330529D02*
X16542548Y-7340053D01*
X16542548Y-7340053D02*
X16537786Y-7354339D01*
X16537786Y-7354339D02*
X16480643Y-7411482D01*
X16480643Y-7411482D02*
X16542548Y-7411482D01*
X16299570Y-7035517D02*
X16304332Y-7030756D01*
X16304332Y-7030756D02*
X16313856Y-7025994D01*
X16313856Y-7025994D02*
X16337665Y-7025994D01*
X16337665Y-7025994D02*
X16347189Y-7030756D01*
X16347189Y-7030756D02*
X16351951Y-7035517D01*
X16351951Y-7035517D02*
X16356713Y-7045041D01*
X16356713Y-7045041D02*
X16356713Y-7054565D01*
X16356713Y-7054565D02*
X16351951Y-7068851D01*
X16351951Y-7068851D02*
X16294808Y-7125994D01*
X16294808Y-7125994D02*
X16356713Y-7125994D01*
X16399570Y-7116470D02*
X16404332Y-7121232D01*
X16404332Y-7121232D02*
X16399570Y-7125994D01*
X16399570Y-7125994D02*
X16394808Y-7121232D01*
X16394808Y-7121232D02*
X16399570Y-7116470D01*
X16399570Y-7116470D02*
X16399570Y-7125994D01*
X16490046Y-7025994D02*
X16470998Y-7025994D01*
X16470998Y-7025994D02*
X16461475Y-7030756D01*
X16461475Y-7030756D02*
X16456713Y-7035517D01*
X16456713Y-7035517D02*
X16447189Y-7049803D01*
X16447189Y-7049803D02*
X16442427Y-7068851D01*
X16442427Y-7068851D02*
X16442427Y-7106946D01*
X16442427Y-7106946D02*
X16447189Y-7116470D01*
X16447189Y-7116470D02*
X16451951Y-7121232D01*
X16451951Y-7121232D02*
X16461475Y-7125994D01*
X16461475Y-7125994D02*
X16480522Y-7125994D01*
X16480522Y-7125994D02*
X16490046Y-7121232D01*
X16490046Y-7121232D02*
X16494808Y-7116470D01*
X16494808Y-7116470D02*
X16499570Y-7106946D01*
X16499570Y-7106946D02*
X16499570Y-7083136D01*
X16499570Y-7083136D02*
X16494808Y-7073613D01*
X16494808Y-7073613D02*
X16490046Y-7068851D01*
X16490046Y-7068851D02*
X16480522Y-7064089D01*
X16480522Y-7064089D02*
X16461475Y-7064089D01*
X16461475Y-7064089D02*
X16451951Y-7068851D01*
X16451951Y-7068851D02*
X16447189Y-7073613D01*
X16447189Y-7073613D02*
X16442427Y-7083136D01*
X16585284Y-7059327D02*
X16585284Y-7125994D01*
X16542427Y-7059327D02*
X16542427Y-7111708D01*
X16542427Y-7111708D02*
X16547189Y-7121232D01*
X16547189Y-7121232D02*
X16556713Y-7125994D01*
X16556713Y-7125994D02*
X16570998Y-7125994D01*
X16570998Y-7125994D02*
X16580522Y-7121232D01*
X16580522Y-7121232D02*
X16585284Y-7116470D01*
X16632903Y-7125994D02*
X16632903Y-7025994D01*
X16632903Y-7073613D02*
X16690046Y-7073613D01*
X16690046Y-7125994D02*
X16690046Y-7025994D01*
X16427333Y-6808958D02*
X16422571Y-6813720D01*
X16422571Y-6813720D02*
X16408286Y-6818482D01*
X16408286Y-6818482D02*
X16398762Y-6818482D01*
X16398762Y-6818482D02*
X16384476Y-6813720D01*
X16384476Y-6813720D02*
X16374952Y-6804196D01*
X16374952Y-6804196D02*
X16370190Y-6794672D01*
X16370190Y-6794672D02*
X16365429Y-6775625D01*
X16365429Y-6775625D02*
X16365429Y-6761339D01*
X16365429Y-6761339D02*
X16370190Y-6742291D01*
X16370190Y-6742291D02*
X16374952Y-6732768D01*
X16374952Y-6732768D02*
X16384476Y-6723244D01*
X16384476Y-6723244D02*
X16398762Y-6718482D01*
X16398762Y-6718482D02*
X16408286Y-6718482D01*
X16408286Y-6718482D02*
X16422571Y-6723244D01*
X16422571Y-6723244D02*
X16427333Y-6728006D01*
X16513048Y-6751815D02*
X16513048Y-6818482D01*
X16489238Y-6713720D02*
X16465429Y-6785148D01*
X16465429Y-6785148D02*
X16527333Y-6785148D01*
X15685667Y-10530482D02*
X15685667Y-10601910D01*
X15685667Y-10601910D02*
X15680905Y-10616196D01*
X15680905Y-10616196D02*
X15671381Y-10625720D01*
X15671381Y-10625720D02*
X15657095Y-10630482D01*
X15657095Y-10630482D02*
X15647571Y-10630482D01*
X15723762Y-10530482D02*
X15785667Y-10530482D01*
X15785667Y-10530482D02*
X15752333Y-10568577D01*
X15752333Y-10568577D02*
X15766619Y-10568577D01*
X15766619Y-10568577D02*
X15776143Y-10573339D01*
X15776143Y-10573339D02*
X15780905Y-10578101D01*
X15780905Y-10578101D02*
X15785667Y-10587625D01*
X15785667Y-10587625D02*
X15785667Y-10611434D01*
X15785667Y-10611434D02*
X15780905Y-10620958D01*
X15780905Y-10620958D02*
X15776143Y-10625720D01*
X15776143Y-10625720D02*
X15766619Y-10630482D01*
X15766619Y-10630482D02*
X15738048Y-10630482D01*
X15738048Y-10630482D02*
X15728524Y-10625720D01*
X15728524Y-10625720D02*
X15723762Y-10620958D01*
X13120333Y-8199958D02*
X13115571Y-8204720D01*
X13115571Y-8204720D02*
X13101286Y-8209482D01*
X13101286Y-8209482D02*
X13091762Y-8209482D01*
X13091762Y-8209482D02*
X13077476Y-8204720D01*
X13077476Y-8204720D02*
X13067952Y-8195196D01*
X13067952Y-8195196D02*
X13063190Y-8185672D01*
X13063190Y-8185672D02*
X13058429Y-8166625D01*
X13058429Y-8166625D02*
X13058429Y-8152339D01*
X13058429Y-8152339D02*
X13063190Y-8133291D01*
X13063190Y-8133291D02*
X13067952Y-8123768D01*
X13067952Y-8123768D02*
X13077476Y-8114244D01*
X13077476Y-8114244D02*
X13091762Y-8109482D01*
X13091762Y-8109482D02*
X13101286Y-8109482D01*
X13101286Y-8109482D02*
X13115571Y-8114244D01*
X13115571Y-8114244D02*
X13120333Y-8119006D01*
X13210809Y-8109482D02*
X13163190Y-8109482D01*
X13163190Y-8109482D02*
X13158429Y-8157101D01*
X13158429Y-8157101D02*
X13163190Y-8152339D01*
X13163190Y-8152339D02*
X13172714Y-8147577D01*
X13172714Y-8147577D02*
X13196524Y-8147577D01*
X13196524Y-8147577D02*
X13206048Y-8152339D01*
X13206048Y-8152339D02*
X13210809Y-8157101D01*
X13210809Y-8157101D02*
X13215571Y-8166625D01*
X13215571Y-8166625D02*
X13215571Y-8190434D01*
X13215571Y-8190434D02*
X13210809Y-8199958D01*
X13210809Y-8199958D02*
X13206048Y-8204720D01*
X13206048Y-8204720D02*
X13196524Y-8209482D01*
X13196524Y-8209482D02*
X13172714Y-8209482D01*
X13172714Y-8209482D02*
X13163190Y-8204720D01*
X13163190Y-8204720D02*
X13158429Y-8199958D01*
X16473714Y-9456958D02*
X16468952Y-9461720D01*
X16468952Y-9461720D02*
X16454667Y-9466482D01*
X16454667Y-9466482D02*
X16445143Y-9466482D01*
X16445143Y-9466482D02*
X16430857Y-9461720D01*
X16430857Y-9461720D02*
X16421333Y-9452196D01*
X16421333Y-9452196D02*
X16416571Y-9442672D01*
X16416571Y-9442672D02*
X16411809Y-9423625D01*
X16411809Y-9423625D02*
X16411809Y-9409339D01*
X16411809Y-9409339D02*
X16416571Y-9390291D01*
X16416571Y-9390291D02*
X16421333Y-9380768D01*
X16421333Y-9380768D02*
X16430857Y-9371244D01*
X16430857Y-9371244D02*
X16445143Y-9366482D01*
X16445143Y-9366482D02*
X16454667Y-9366482D01*
X16454667Y-9366482D02*
X16468952Y-9371244D01*
X16468952Y-9371244D02*
X16473714Y-9376006D01*
X16568952Y-9466482D02*
X16511809Y-9466482D01*
X16540381Y-9466482D02*
X16540381Y-9366482D01*
X16540381Y-9366482D02*
X16530857Y-9380768D01*
X16530857Y-9380768D02*
X16521333Y-9390291D01*
X16521333Y-9390291D02*
X16511809Y-9395053D01*
X16664190Y-9466482D02*
X16607048Y-9466482D01*
X16635619Y-9466482D02*
X16635619Y-9366482D01*
X16635619Y-9366482D02*
X16626095Y-9380768D01*
X16626095Y-9380768D02*
X16616571Y-9390291D01*
X16616571Y-9390291D02*
X16607048Y-9395053D01*
X12318809Y-7334482D02*
X12375952Y-7334482D01*
X12347381Y-7434482D02*
X12347381Y-7334482D01*
X12461667Y-7434482D02*
X12404524Y-7434482D01*
X12433095Y-7434482D02*
X12433095Y-7334482D01*
X12433095Y-7334482D02*
X12423571Y-7348768D01*
X12423571Y-7348768D02*
X12414048Y-7358291D01*
X12414048Y-7358291D02*
X12404524Y-7363053D01*
X15178333Y-7817482D02*
X15130714Y-7817482D01*
X15130714Y-7817482D02*
X15130714Y-7717482D01*
X15254524Y-7750815D02*
X15254524Y-7817482D01*
X15230714Y-7712720D02*
X15206905Y-7784148D01*
X15206905Y-7784148D02*
X15268809Y-7784148D01*
X15092498Y-7441517D02*
X15097260Y-7436756D01*
X15097260Y-7436756D02*
X15106784Y-7431994D01*
X15106784Y-7431994D02*
X15130594Y-7431994D01*
X15130594Y-7431994D02*
X15140117Y-7436756D01*
X15140117Y-7436756D02*
X15144879Y-7441517D01*
X15144879Y-7441517D02*
X15149641Y-7451041D01*
X15149641Y-7451041D02*
X15149641Y-7460565D01*
X15149641Y-7460565D02*
X15144879Y-7474851D01*
X15144879Y-7474851D02*
X15087736Y-7531994D01*
X15087736Y-7531994D02*
X15149641Y-7531994D01*
X15235355Y-7465327D02*
X15235355Y-7531994D01*
X15192498Y-7465327D02*
X15192498Y-7517708D01*
X15192498Y-7517708D02*
X15197260Y-7527232D01*
X15197260Y-7527232D02*
X15206784Y-7531994D01*
X15206784Y-7531994D02*
X15221070Y-7531994D01*
X15221070Y-7531994D02*
X15230594Y-7527232D01*
X15230594Y-7527232D02*
X15235355Y-7522470D01*
X15282975Y-7531994D02*
X15282975Y-7431994D01*
X15282975Y-7479613D02*
X15340117Y-7479613D01*
X15340117Y-7531994D02*
X15340117Y-7431994D01*
X13270958Y-7122667D02*
X13275720Y-7127428D01*
X13275720Y-7127428D02*
X13280482Y-7141714D01*
X13280482Y-7141714D02*
X13280482Y-7151238D01*
X13280482Y-7151238D02*
X13275720Y-7165524D01*
X13275720Y-7165524D02*
X13266196Y-7175047D01*
X13266196Y-7175047D02*
X13256672Y-7179809D01*
X13256672Y-7179809D02*
X13237625Y-7184571D01*
X13237625Y-7184571D02*
X13223339Y-7184571D01*
X13223339Y-7184571D02*
X13204291Y-7179809D01*
X13204291Y-7179809D02*
X13194768Y-7175047D01*
X13194768Y-7175047D02*
X13185244Y-7165524D01*
X13185244Y-7165524D02*
X13180482Y-7151238D01*
X13180482Y-7151238D02*
X13180482Y-7141714D01*
X13180482Y-7141714D02*
X13185244Y-7127428D01*
X13185244Y-7127428D02*
X13190006Y-7122667D01*
X13280482Y-7027428D02*
X13280482Y-7084571D01*
X13280482Y-7056000D02*
X13180482Y-7056000D01*
X13180482Y-7056000D02*
X13194768Y-7065524D01*
X13194768Y-7065524D02*
X13204291Y-7075047D01*
X13204291Y-7075047D02*
X13209053Y-7084571D01*
X12483214Y-10090958D02*
X12478452Y-10095720D01*
X12478452Y-10095720D02*
X12464167Y-10100482D01*
X12464167Y-10100482D02*
X12454643Y-10100482D01*
X12454643Y-10100482D02*
X12440357Y-10095720D01*
X12440357Y-10095720D02*
X12430833Y-10086196D01*
X12430833Y-10086196D02*
X12426071Y-10076672D01*
X12426071Y-10076672D02*
X12421309Y-10057625D01*
X12421309Y-10057625D02*
X12421309Y-10043339D01*
X12421309Y-10043339D02*
X12426071Y-10024291D01*
X12426071Y-10024291D02*
X12430833Y-10014768D01*
X12430833Y-10014768D02*
X12440357Y-10005244D01*
X12440357Y-10005244D02*
X12454643Y-10000482D01*
X12454643Y-10000482D02*
X12464167Y-10000482D01*
X12464167Y-10000482D02*
X12478452Y-10005244D01*
X12478452Y-10005244D02*
X12483214Y-10010006D01*
X12578452Y-10100482D02*
X12521309Y-10100482D01*
X12549881Y-10100482D02*
X12549881Y-10000482D01*
X12549881Y-10000482D02*
X12540357Y-10014768D01*
X12540357Y-10014768D02*
X12530833Y-10024291D01*
X12530833Y-10024291D02*
X12521309Y-10029053D01*
X12626071Y-10100482D02*
X12645119Y-10100482D01*
X12645119Y-10100482D02*
X12654643Y-10095720D01*
X12654643Y-10095720D02*
X12659405Y-10090958D01*
X12659405Y-10090958D02*
X12668928Y-10076672D01*
X12668928Y-10076672D02*
X12673690Y-10057625D01*
X12673690Y-10057625D02*
X12673690Y-10019530D01*
X12673690Y-10019530D02*
X12668928Y-10010006D01*
X12668928Y-10010006D02*
X12664167Y-10005244D01*
X12664167Y-10005244D02*
X12654643Y-10000482D01*
X12654643Y-10000482D02*
X12635595Y-10000482D01*
X12635595Y-10000482D02*
X12626071Y-10005244D01*
X12626071Y-10005244D02*
X12621309Y-10010006D01*
X12621309Y-10010006D02*
X12616548Y-10019530D01*
X12616548Y-10019530D02*
X12616548Y-10043339D01*
X12616548Y-10043339D02*
X12621309Y-10052863D01*
X12621309Y-10052863D02*
X12626071Y-10057625D01*
X12626071Y-10057625D02*
X12635595Y-10062387D01*
X12635595Y-10062387D02*
X12654643Y-10062387D01*
X12654643Y-10062387D02*
X12664167Y-10057625D01*
X12664167Y-10057625D02*
X12668928Y-10052863D01*
X12668928Y-10052863D02*
X12673690Y-10043339D01*
X16427333Y-8290958D02*
X16422571Y-8295720D01*
X16422571Y-8295720D02*
X16408286Y-8300482D01*
X16408286Y-8300482D02*
X16398762Y-8300482D01*
X16398762Y-8300482D02*
X16384476Y-8295720D01*
X16384476Y-8295720D02*
X16374952Y-8286196D01*
X16374952Y-8286196D02*
X16370190Y-8276672D01*
X16370190Y-8276672D02*
X16365429Y-8257625D01*
X16365429Y-8257625D02*
X16365429Y-8243339D01*
X16365429Y-8243339D02*
X16370190Y-8224291D01*
X16370190Y-8224291D02*
X16374952Y-8214768D01*
X16374952Y-8214768D02*
X16384476Y-8205244D01*
X16384476Y-8205244D02*
X16398762Y-8200482D01*
X16398762Y-8200482D02*
X16408286Y-8200482D01*
X16408286Y-8200482D02*
X16422571Y-8205244D01*
X16422571Y-8205244D02*
X16427333Y-8210006D01*
X16484476Y-8243339D02*
X16474952Y-8238577D01*
X16474952Y-8238577D02*
X16470190Y-8233815D01*
X16470190Y-8233815D02*
X16465429Y-8224291D01*
X16465429Y-8224291D02*
X16465429Y-8219529D01*
X16465429Y-8219529D02*
X16470190Y-8210006D01*
X16470190Y-8210006D02*
X16474952Y-8205244D01*
X16474952Y-8205244D02*
X16484476Y-8200482D01*
X16484476Y-8200482D02*
X16503524Y-8200482D01*
X16503524Y-8200482D02*
X16513048Y-8205244D01*
X16513048Y-8205244D02*
X16517809Y-8210006D01*
X16517809Y-8210006D02*
X16522571Y-8219529D01*
X16522571Y-8219529D02*
X16522571Y-8224291D01*
X16522571Y-8224291D02*
X16517809Y-8233815D01*
X16517809Y-8233815D02*
X16513048Y-8238577D01*
X16513048Y-8238577D02*
X16503524Y-8243339D01*
X16503524Y-8243339D02*
X16484476Y-8243339D01*
X16484476Y-8243339D02*
X16474952Y-8248101D01*
X16474952Y-8248101D02*
X16470190Y-8252863D01*
X16470190Y-8252863D02*
X16465429Y-8262387D01*
X16465429Y-8262387D02*
X16465429Y-8281434D01*
X16465429Y-8281434D02*
X16470190Y-8290958D01*
X16470190Y-8290958D02*
X16474952Y-8295720D01*
X16474952Y-8295720D02*
X16484476Y-8300482D01*
X16484476Y-8300482D02*
X16503524Y-8300482D01*
X16503524Y-8300482D02*
X16513048Y-8295720D01*
X16513048Y-8295720D02*
X16517809Y-8290958D01*
X16517809Y-8290958D02*
X16522571Y-8281434D01*
X16522571Y-8281434D02*
X16522571Y-8262387D01*
X16522571Y-8262387D02*
X16517809Y-8252863D01*
X16517809Y-8252863D02*
X16513048Y-8248101D01*
X16513048Y-8248101D02*
X16503524Y-8243339D01*
X15866958Y-8625286D02*
X15871720Y-8630048D01*
X15871720Y-8630048D02*
X15876482Y-8644333D01*
X15876482Y-8644333D02*
X15876482Y-8653857D01*
X15876482Y-8653857D02*
X15871720Y-8668143D01*
X15871720Y-8668143D02*
X15862196Y-8677667D01*
X15862196Y-8677667D02*
X15852672Y-8682429D01*
X15852672Y-8682429D02*
X15833625Y-8687190D01*
X15833625Y-8687190D02*
X15819339Y-8687190D01*
X15819339Y-8687190D02*
X15800291Y-8682429D01*
X15800291Y-8682429D02*
X15790768Y-8677667D01*
X15790768Y-8677667D02*
X15781244Y-8668143D01*
X15781244Y-8668143D02*
X15776482Y-8653857D01*
X15776482Y-8653857D02*
X15776482Y-8644333D01*
X15776482Y-8644333D02*
X15781244Y-8630048D01*
X15781244Y-8630048D02*
X15786006Y-8625286D01*
X15876482Y-8530048D02*
X15876482Y-8587190D01*
X15876482Y-8558619D02*
X15776482Y-8558619D01*
X15776482Y-8558619D02*
X15790768Y-8568143D01*
X15790768Y-8568143D02*
X15800291Y-8577667D01*
X15800291Y-8577667D02*
X15805053Y-8587190D01*
X15776482Y-8468143D02*
X15776482Y-8458619D01*
X15776482Y-8458619D02*
X15781244Y-8449095D01*
X15781244Y-8449095D02*
X15786006Y-8444333D01*
X15786006Y-8444333D02*
X15795529Y-8439571D01*
X15795529Y-8439571D02*
X15814577Y-8434810D01*
X15814577Y-8434810D02*
X15838387Y-8434810D01*
X15838387Y-8434810D02*
X15857434Y-8439571D01*
X15857434Y-8439571D02*
X15866958Y-8444333D01*
X15866958Y-8444333D02*
X15871720Y-8449095D01*
X15871720Y-8449095D02*
X15876482Y-8458619D01*
X15876482Y-8458619D02*
X15876482Y-8468143D01*
X15876482Y-8468143D02*
X15871720Y-8477667D01*
X15871720Y-8477667D02*
X15866958Y-8482429D01*
X15866958Y-8482429D02*
X15857434Y-8487190D01*
X15857434Y-8487190D02*
X15838387Y-8491952D01*
X15838387Y-8491952D02*
X15814577Y-8491952D01*
X15814577Y-8491952D02*
X15795529Y-8487190D01*
X15795529Y-8487190D02*
X15786006Y-8482429D01*
X15786006Y-8482429D02*
X15781244Y-8477667D01*
X15781244Y-8477667D02*
X15776482Y-8468143D01*
X13388232Y-7730167D02*
X13340613Y-7763500D01*
X13388232Y-7787309D02*
X13288232Y-7787309D01*
X13288232Y-7787309D02*
X13288232Y-7749214D01*
X13288232Y-7749214D02*
X13292994Y-7739690D01*
X13292994Y-7739690D02*
X13297756Y-7734928D01*
X13297756Y-7734928D02*
X13307279Y-7730167D01*
X13307279Y-7730167D02*
X13321565Y-7730167D01*
X13321565Y-7730167D02*
X13331089Y-7734928D01*
X13331089Y-7734928D02*
X13335851Y-7739690D01*
X13335851Y-7739690D02*
X13340613Y-7749214D01*
X13340613Y-7749214D02*
X13340613Y-7787309D01*
X13331089Y-7673024D02*
X13326327Y-7682547D01*
X13326327Y-7682547D02*
X13321565Y-7687309D01*
X13321565Y-7687309D02*
X13312041Y-7692071D01*
X13312041Y-7692071D02*
X13307279Y-7692071D01*
X13307279Y-7692071D02*
X13297756Y-7687309D01*
X13297756Y-7687309D02*
X13292994Y-7682547D01*
X13292994Y-7682547D02*
X13288232Y-7673024D01*
X13288232Y-7673024D02*
X13288232Y-7653976D01*
X13288232Y-7653976D02*
X13292994Y-7644452D01*
X13292994Y-7644452D02*
X13297756Y-7639690D01*
X13297756Y-7639690D02*
X13307279Y-7634928D01*
X13307279Y-7634928D02*
X13312041Y-7634928D01*
X13312041Y-7634928D02*
X13321565Y-7639690D01*
X13321565Y-7639690D02*
X13326327Y-7644452D01*
X13326327Y-7644452D02*
X13331089Y-7653976D01*
X13331089Y-7653976D02*
X13331089Y-7673024D01*
X13331089Y-7673024D02*
X13335851Y-7682547D01*
X13335851Y-7682547D02*
X13340613Y-7687309D01*
X13340613Y-7687309D02*
X13350137Y-7692071D01*
X13350137Y-7692071D02*
X13369184Y-7692071D01*
X13369184Y-7692071D02*
X13378708Y-7687309D01*
X13378708Y-7687309D02*
X13383470Y-7682547D01*
X13383470Y-7682547D02*
X13388232Y-7673024D01*
X13388232Y-7673024D02*
X13388232Y-7653976D01*
X13388232Y-7653976D02*
X13383470Y-7644452D01*
X13383470Y-7644452D02*
X13378708Y-7639690D01*
X13378708Y-7639690D02*
X13369184Y-7634928D01*
X13369184Y-7634928D02*
X13350137Y-7634928D01*
X13350137Y-7634928D02*
X13340613Y-7639690D01*
X13340613Y-7639690D02*
X13335851Y-7644452D01*
X13335851Y-7644452D02*
X13331089Y-7653976D01*
X17724714Y-10370482D02*
X17677095Y-10370482D01*
X17677095Y-10370482D02*
X17677095Y-10270482D01*
X17810429Y-10370482D02*
X17753286Y-10370482D01*
X17781857Y-10370482D02*
X17781857Y-10270482D01*
X17781857Y-10270482D02*
X17772333Y-10284768D01*
X17772333Y-10284768D02*
X17762810Y-10294291D01*
X17762810Y-10294291D02*
X17753286Y-10299053D01*
X17848524Y-10280006D02*
X17853286Y-10275244D01*
X17853286Y-10275244D02*
X17862810Y-10270482D01*
X17862810Y-10270482D02*
X17886619Y-10270482D01*
X17886619Y-10270482D02*
X17896143Y-10275244D01*
X17896143Y-10275244D02*
X17900905Y-10280006D01*
X17900905Y-10280006D02*
X17905667Y-10289530D01*
X17905667Y-10289530D02*
X17905667Y-10299053D01*
X17905667Y-10299053D02*
X17900905Y-10313339D01*
X17900905Y-10313339D02*
X17843762Y-10370482D01*
X17843762Y-10370482D02*
X17905667Y-10370482D01*
X17565571Y-10474482D02*
X17575095Y-10474482D01*
X17575095Y-10474482D02*
X17584619Y-10479244D01*
X17584619Y-10479244D02*
X17589381Y-10484006D01*
X17589381Y-10484006D02*
X17594143Y-10493530D01*
X17594143Y-10493530D02*
X17598905Y-10512577D01*
X17598905Y-10512577D02*
X17598905Y-10536387D01*
X17598905Y-10536387D02*
X17594143Y-10555434D01*
X17594143Y-10555434D02*
X17589381Y-10564958D01*
X17589381Y-10564958D02*
X17584619Y-10569720D01*
X17584619Y-10569720D02*
X17575095Y-10574482D01*
X17575095Y-10574482D02*
X17565571Y-10574482D01*
X17565571Y-10574482D02*
X17556048Y-10569720D01*
X17556048Y-10569720D02*
X17551286Y-10564958D01*
X17551286Y-10564958D02*
X17546524Y-10555434D01*
X17546524Y-10555434D02*
X17541762Y-10536387D01*
X17541762Y-10536387D02*
X17541762Y-10512577D01*
X17541762Y-10512577D02*
X17546524Y-10493530D01*
X17546524Y-10493530D02*
X17551286Y-10484006D01*
X17551286Y-10484006D02*
X17556048Y-10479244D01*
X17556048Y-10479244D02*
X17565571Y-10474482D01*
X17641762Y-10564958D02*
X17646524Y-10569720D01*
X17646524Y-10569720D02*
X17641762Y-10574482D01*
X17641762Y-10574482D02*
X17637000Y-10569720D01*
X17637000Y-10569720D02*
X17641762Y-10564958D01*
X17641762Y-10564958D02*
X17641762Y-10574482D01*
X17732238Y-10507815D02*
X17732238Y-10574482D01*
X17708429Y-10469720D02*
X17684619Y-10541149D01*
X17684619Y-10541149D02*
X17746524Y-10541149D01*
X17827476Y-10474482D02*
X17808429Y-10474482D01*
X17808429Y-10474482D02*
X17798905Y-10479244D01*
X17798905Y-10479244D02*
X17794143Y-10484006D01*
X17794143Y-10484006D02*
X17784619Y-10498291D01*
X17784619Y-10498291D02*
X17779857Y-10517339D01*
X17779857Y-10517339D02*
X17779857Y-10555434D01*
X17779857Y-10555434D02*
X17784619Y-10564958D01*
X17784619Y-10564958D02*
X17789381Y-10569720D01*
X17789381Y-10569720D02*
X17798905Y-10574482D01*
X17798905Y-10574482D02*
X17817952Y-10574482D01*
X17817952Y-10574482D02*
X17827476Y-10569720D01*
X17827476Y-10569720D02*
X17832238Y-10564958D01*
X17832238Y-10564958D02*
X17837000Y-10555434D01*
X17837000Y-10555434D02*
X17837000Y-10531625D01*
X17837000Y-10531625D02*
X17832238Y-10522101D01*
X17832238Y-10522101D02*
X17827476Y-10517339D01*
X17827476Y-10517339D02*
X17817952Y-10512577D01*
X17817952Y-10512577D02*
X17798905Y-10512577D01*
X17798905Y-10512577D02*
X17789381Y-10517339D01*
X17789381Y-10517339D02*
X17784619Y-10522101D01*
X17784619Y-10522101D02*
X17779857Y-10531625D01*
X17922714Y-10507815D02*
X17922714Y-10574482D01*
X17879857Y-10507815D02*
X17879857Y-10560196D01*
X17879857Y-10560196D02*
X17884619Y-10569720D01*
X17884619Y-10569720D02*
X17894143Y-10574482D01*
X17894143Y-10574482D02*
X17908429Y-10574482D01*
X17908429Y-10574482D02*
X17917952Y-10569720D01*
X17917952Y-10569720D02*
X17922714Y-10564958D01*
X17970333Y-10574482D02*
X17970333Y-10474482D01*
X17970333Y-10522101D02*
X18027476Y-10522101D01*
X18027476Y-10574482D02*
X18027476Y-10474482D01*
X17663333Y-6996482D02*
X17615714Y-6996482D01*
X17615714Y-6996482D02*
X17615714Y-6896482D01*
X17687143Y-6896482D02*
X17749048Y-6896482D01*
X17749048Y-6896482D02*
X17715714Y-6934577D01*
X17715714Y-6934577D02*
X17730000Y-6934577D01*
X17730000Y-6934577D02*
X17739524Y-6939339D01*
X17739524Y-6939339D02*
X17744286Y-6944101D01*
X17744286Y-6944101D02*
X17749048Y-6953625D01*
X17749048Y-6953625D02*
X17749048Y-6977434D01*
X17749048Y-6977434D02*
X17744286Y-6986958D01*
X17744286Y-6986958D02*
X17739524Y-6991720D01*
X17739524Y-6991720D02*
X17730000Y-6996482D01*
X17730000Y-6996482D02*
X17701429Y-6996482D01*
X17701429Y-6996482D02*
X17691905Y-6991720D01*
X17691905Y-6991720D02*
X17687143Y-6986958D01*
X17546762Y-7145482D02*
X17499143Y-7145482D01*
X17499143Y-7145482D02*
X17494381Y-7193101D01*
X17494381Y-7193101D02*
X17499143Y-7188339D01*
X17499143Y-7188339D02*
X17508667Y-7183577D01*
X17508667Y-7183577D02*
X17532476Y-7183577D01*
X17532476Y-7183577D02*
X17542000Y-7188339D01*
X17542000Y-7188339D02*
X17546762Y-7193101D01*
X17546762Y-7193101D02*
X17551524Y-7202625D01*
X17551524Y-7202625D02*
X17551524Y-7226434D01*
X17551524Y-7226434D02*
X17546762Y-7235958D01*
X17546762Y-7235958D02*
X17542000Y-7240720D01*
X17542000Y-7240720D02*
X17532476Y-7245482D01*
X17532476Y-7245482D02*
X17508667Y-7245482D01*
X17508667Y-7245482D02*
X17499143Y-7240720D01*
X17499143Y-7240720D02*
X17494381Y-7235958D01*
X17594381Y-7235958D02*
X17599143Y-7240720D01*
X17599143Y-7240720D02*
X17594381Y-7245482D01*
X17594381Y-7245482D02*
X17589619Y-7240720D01*
X17589619Y-7240720D02*
X17594381Y-7235958D01*
X17594381Y-7235958D02*
X17594381Y-7245482D01*
X17689619Y-7145482D02*
X17642000Y-7145482D01*
X17642000Y-7145482D02*
X17637238Y-7193101D01*
X17637238Y-7193101D02*
X17642000Y-7188339D01*
X17642000Y-7188339D02*
X17651524Y-7183577D01*
X17651524Y-7183577D02*
X17675333Y-7183577D01*
X17675333Y-7183577D02*
X17684857Y-7188339D01*
X17684857Y-7188339D02*
X17689619Y-7193101D01*
X17689619Y-7193101D02*
X17694381Y-7202625D01*
X17694381Y-7202625D02*
X17694381Y-7226434D01*
X17694381Y-7226434D02*
X17689619Y-7235958D01*
X17689619Y-7235958D02*
X17684857Y-7240720D01*
X17684857Y-7240720D02*
X17675333Y-7245482D01*
X17675333Y-7245482D02*
X17651524Y-7245482D01*
X17651524Y-7245482D02*
X17642000Y-7240720D01*
X17642000Y-7240720D02*
X17637238Y-7235958D01*
X17780095Y-7178815D02*
X17780095Y-7245482D01*
X17737238Y-7178815D02*
X17737238Y-7231196D01*
X17737238Y-7231196D02*
X17742000Y-7240720D01*
X17742000Y-7240720D02*
X17751524Y-7245482D01*
X17751524Y-7245482D02*
X17765810Y-7245482D01*
X17765810Y-7245482D02*
X17775333Y-7240720D01*
X17775333Y-7240720D02*
X17780095Y-7235958D01*
X17827714Y-7245482D02*
X17827714Y-7145482D01*
X17827714Y-7193101D02*
X17884857Y-7193101D01*
X17884857Y-7245482D02*
X17884857Y-7145482D01*
X15023714Y-9997482D02*
X14976095Y-9997482D01*
X14976095Y-9997482D02*
X14976095Y-9897482D01*
X15109428Y-9997482D02*
X15052286Y-9997482D01*
X15080857Y-9997482D02*
X15080857Y-9897482D01*
X15080857Y-9897482D02*
X15071333Y-9911768D01*
X15071333Y-9911768D02*
X15061809Y-9921291D01*
X15061809Y-9921291D02*
X15052286Y-9926053D01*
X15171333Y-9897482D02*
X15180857Y-9897482D01*
X15180857Y-9897482D02*
X15190381Y-9902244D01*
X15190381Y-9902244D02*
X15195143Y-9907006D01*
X15195143Y-9907006D02*
X15199905Y-9916530D01*
X15199905Y-9916530D02*
X15204667Y-9935577D01*
X15204667Y-9935577D02*
X15204667Y-9959387D01*
X15204667Y-9959387D02*
X15199905Y-9978434D01*
X15199905Y-9978434D02*
X15195143Y-9987958D01*
X15195143Y-9987958D02*
X15190381Y-9992720D01*
X15190381Y-9992720D02*
X15180857Y-9997482D01*
X15180857Y-9997482D02*
X15171333Y-9997482D01*
X15171333Y-9997482D02*
X15161809Y-9992720D01*
X15161809Y-9992720D02*
X15157048Y-9987958D01*
X15157048Y-9987958D02*
X15152286Y-9978434D01*
X15152286Y-9978434D02*
X15147524Y-9959387D01*
X15147524Y-9959387D02*
X15147524Y-9935577D01*
X15147524Y-9935577D02*
X15152286Y-9916530D01*
X15152286Y-9916530D02*
X15157048Y-9907006D01*
X15157048Y-9907006D02*
X15161809Y-9902244D01*
X15161809Y-9902244D02*
X15171333Y-9897482D01*
X14886571Y-10108482D02*
X14896095Y-10108482D01*
X14896095Y-10108482D02*
X14905619Y-10113244D01*
X14905619Y-10113244D02*
X14910381Y-10118006D01*
X14910381Y-10118006D02*
X14915143Y-10127530D01*
X14915143Y-10127530D02*
X14919905Y-10146577D01*
X14919905Y-10146577D02*
X14919905Y-10170387D01*
X14919905Y-10170387D02*
X14915143Y-10189434D01*
X14915143Y-10189434D02*
X14910381Y-10198958D01*
X14910381Y-10198958D02*
X14905619Y-10203720D01*
X14905619Y-10203720D02*
X14896095Y-10208482D01*
X14896095Y-10208482D02*
X14886571Y-10208482D01*
X14886571Y-10208482D02*
X14877048Y-10203720D01*
X14877048Y-10203720D02*
X14872286Y-10198958D01*
X14872286Y-10198958D02*
X14867524Y-10189434D01*
X14867524Y-10189434D02*
X14862762Y-10170387D01*
X14862762Y-10170387D02*
X14862762Y-10146577D01*
X14862762Y-10146577D02*
X14867524Y-10127530D01*
X14867524Y-10127530D02*
X14872286Y-10118006D01*
X14872286Y-10118006D02*
X14877048Y-10113244D01*
X14877048Y-10113244D02*
X14886571Y-10108482D01*
X14962762Y-10198958D02*
X14967524Y-10203720D01*
X14967524Y-10203720D02*
X14962762Y-10208482D01*
X14962762Y-10208482D02*
X14958000Y-10203720D01*
X14958000Y-10203720D02*
X14962762Y-10198958D01*
X14962762Y-10198958D02*
X14962762Y-10208482D01*
X15053238Y-10141815D02*
X15053238Y-10208482D01*
X15029428Y-10103720D02*
X15005619Y-10175149D01*
X15005619Y-10175149D02*
X15067524Y-10175149D01*
X15148476Y-10108482D02*
X15129428Y-10108482D01*
X15129428Y-10108482D02*
X15119905Y-10113244D01*
X15119905Y-10113244D02*
X15115143Y-10118006D01*
X15115143Y-10118006D02*
X15105619Y-10132291D01*
X15105619Y-10132291D02*
X15100857Y-10151339D01*
X15100857Y-10151339D02*
X15100857Y-10189434D01*
X15100857Y-10189434D02*
X15105619Y-10198958D01*
X15105619Y-10198958D02*
X15110381Y-10203720D01*
X15110381Y-10203720D02*
X15119905Y-10208482D01*
X15119905Y-10208482D02*
X15138952Y-10208482D01*
X15138952Y-10208482D02*
X15148476Y-10203720D01*
X15148476Y-10203720D02*
X15153238Y-10198958D01*
X15153238Y-10198958D02*
X15158000Y-10189434D01*
X15158000Y-10189434D02*
X15158000Y-10165625D01*
X15158000Y-10165625D02*
X15153238Y-10156101D01*
X15153238Y-10156101D02*
X15148476Y-10151339D01*
X15148476Y-10151339D02*
X15138952Y-10146577D01*
X15138952Y-10146577D02*
X15119905Y-10146577D01*
X15119905Y-10146577D02*
X15110381Y-10151339D01*
X15110381Y-10151339D02*
X15105619Y-10156101D01*
X15105619Y-10156101D02*
X15100857Y-10165625D01*
X15243714Y-10141815D02*
X15243714Y-10208482D01*
X15200857Y-10141815D02*
X15200857Y-10194196D01*
X15200857Y-10194196D02*
X15205619Y-10203720D01*
X15205619Y-10203720D02*
X15215143Y-10208482D01*
X15215143Y-10208482D02*
X15229428Y-10208482D01*
X15229428Y-10208482D02*
X15238952Y-10203720D01*
X15238952Y-10203720D02*
X15243714Y-10198958D01*
X15291333Y-10208482D02*
X15291333Y-10108482D01*
X15291333Y-10156101D02*
X15348476Y-10156101D01*
X15348476Y-10208482D02*
X15348476Y-10108482D01*
X13722333Y-8036482D02*
X13689000Y-7988863D01*
X13665190Y-8036482D02*
X13665190Y-7936482D01*
X13665190Y-7936482D02*
X13703286Y-7936482D01*
X13703286Y-7936482D02*
X13712809Y-7941244D01*
X13712809Y-7941244D02*
X13717571Y-7946006D01*
X13717571Y-7946006D02*
X13722333Y-7955529D01*
X13722333Y-7955529D02*
X13722333Y-7969815D01*
X13722333Y-7969815D02*
X13717571Y-7979339D01*
X13717571Y-7979339D02*
X13712809Y-7984101D01*
X13712809Y-7984101D02*
X13703286Y-7988863D01*
X13703286Y-7988863D02*
X13665190Y-7988863D01*
X13769952Y-8036482D02*
X13789000Y-8036482D01*
X13789000Y-8036482D02*
X13798524Y-8031720D01*
X13798524Y-8031720D02*
X13803286Y-8026958D01*
X13803286Y-8026958D02*
X13812809Y-8012672D01*
X13812809Y-8012672D02*
X13817571Y-7993625D01*
X13817571Y-7993625D02*
X13817571Y-7955529D01*
X13817571Y-7955529D02*
X13812809Y-7946006D01*
X13812809Y-7946006D02*
X13808048Y-7941244D01*
X13808048Y-7941244D02*
X13798524Y-7936482D01*
X13798524Y-7936482D02*
X13779476Y-7936482D01*
X13779476Y-7936482D02*
X13769952Y-7941244D01*
X13769952Y-7941244D02*
X13765190Y-7946006D01*
X13765190Y-7946006D02*
X13760429Y-7955529D01*
X13760429Y-7955529D02*
X13760429Y-7979339D01*
X13760429Y-7979339D02*
X13765190Y-7988863D01*
X13765190Y-7988863D02*
X13769952Y-7993625D01*
X13769952Y-7993625D02*
X13779476Y-7998387D01*
X13779476Y-7998387D02*
X13798524Y-7998387D01*
X13798524Y-7998387D02*
X13808048Y-7993625D01*
X13808048Y-7993625D02*
X13812809Y-7988863D01*
X13812809Y-7988863D02*
X13817571Y-7979339D01*
X16129482Y-10256286D02*
X16129482Y-10303905D01*
X16129482Y-10303905D02*
X16029482Y-10303905D01*
X16129482Y-10170571D02*
X16129482Y-10227714D01*
X16129482Y-10199143D02*
X16029482Y-10199143D01*
X16029482Y-10199143D02*
X16043768Y-10208667D01*
X16043768Y-10208667D02*
X16053291Y-10218190D01*
X16053291Y-10218190D02*
X16058053Y-10227714D01*
X16129482Y-10075333D02*
X16129482Y-10132476D01*
X16129482Y-10103905D02*
X16029482Y-10103905D01*
X16029482Y-10103905D02*
X16043768Y-10113429D01*
X16043768Y-10113429D02*
X16053291Y-10122952D01*
X16053291Y-10122952D02*
X16058053Y-10132476D01*
X15834482Y-10420429D02*
X15834482Y-10410905D01*
X15834482Y-10410905D02*
X15839244Y-10401381D01*
X15839244Y-10401381D02*
X15844006Y-10396619D01*
X15844006Y-10396619D02*
X15853529Y-10391857D01*
X15853529Y-10391857D02*
X15872577Y-10387095D01*
X15872577Y-10387095D02*
X15896387Y-10387095D01*
X15896387Y-10387095D02*
X15915434Y-10391857D01*
X15915434Y-10391857D02*
X15924958Y-10396619D01*
X15924958Y-10396619D02*
X15929720Y-10401381D01*
X15929720Y-10401381D02*
X15934482Y-10410905D01*
X15934482Y-10410905D02*
X15934482Y-10420429D01*
X15934482Y-10420429D02*
X15929720Y-10429952D01*
X15929720Y-10429952D02*
X15924958Y-10434714D01*
X15924958Y-10434714D02*
X15915434Y-10439476D01*
X15915434Y-10439476D02*
X15896387Y-10444238D01*
X15896387Y-10444238D02*
X15872577Y-10444238D01*
X15872577Y-10444238D02*
X15853529Y-10439476D01*
X15853529Y-10439476D02*
X15844006Y-10434714D01*
X15844006Y-10434714D02*
X15839244Y-10429952D01*
X15839244Y-10429952D02*
X15834482Y-10420429D01*
X15924958Y-10344238D02*
X15929720Y-10339476D01*
X15929720Y-10339476D02*
X15934482Y-10344238D01*
X15934482Y-10344238D02*
X15929720Y-10349000D01*
X15929720Y-10349000D02*
X15924958Y-10344238D01*
X15924958Y-10344238D02*
X15934482Y-10344238D01*
X15934482Y-10244238D02*
X15934482Y-10301381D01*
X15934482Y-10272810D02*
X15834482Y-10272810D01*
X15834482Y-10272810D02*
X15848768Y-10282333D01*
X15848768Y-10282333D02*
X15858291Y-10291857D01*
X15858291Y-10291857D02*
X15863053Y-10301381D01*
X15834482Y-10210905D02*
X15834482Y-10149000D01*
X15834482Y-10149000D02*
X15872577Y-10182333D01*
X15872577Y-10182333D02*
X15872577Y-10168048D01*
X15872577Y-10168048D02*
X15877339Y-10158524D01*
X15877339Y-10158524D02*
X15882101Y-10153762D01*
X15882101Y-10153762D02*
X15891625Y-10149000D01*
X15891625Y-10149000D02*
X15915434Y-10149000D01*
X15915434Y-10149000D02*
X15924958Y-10153762D01*
X15924958Y-10153762D02*
X15929720Y-10158524D01*
X15929720Y-10158524D02*
X15934482Y-10168048D01*
X15934482Y-10168048D02*
X15934482Y-10196619D01*
X15934482Y-10196619D02*
X15929720Y-10206143D01*
X15929720Y-10206143D02*
X15924958Y-10210905D01*
X15867815Y-10063286D02*
X15934482Y-10063286D01*
X15867815Y-10106143D02*
X15920196Y-10106143D01*
X15920196Y-10106143D02*
X15929720Y-10101381D01*
X15929720Y-10101381D02*
X15934482Y-10091857D01*
X15934482Y-10091857D02*
X15934482Y-10077571D01*
X15934482Y-10077571D02*
X15929720Y-10068048D01*
X15929720Y-10068048D02*
X15924958Y-10063286D01*
X15934482Y-10015667D02*
X15834482Y-10015667D01*
X15882101Y-10015667D02*
X15882101Y-9958524D01*
X15934482Y-9958524D02*
X15834482Y-9958524D01*
X14348714Y-9624958D02*
X14343952Y-9629720D01*
X14343952Y-9629720D02*
X14329667Y-9634482D01*
X14329667Y-9634482D02*
X14320143Y-9634482D01*
X14320143Y-9634482D02*
X14305857Y-9629720D01*
X14305857Y-9629720D02*
X14296333Y-9620196D01*
X14296333Y-9620196D02*
X14291571Y-9610672D01*
X14291571Y-9610672D02*
X14286809Y-9591625D01*
X14286809Y-9591625D02*
X14286809Y-9577339D01*
X14286809Y-9577339D02*
X14291571Y-9558291D01*
X14291571Y-9558291D02*
X14296333Y-9548768D01*
X14296333Y-9548768D02*
X14305857Y-9539244D01*
X14305857Y-9539244D02*
X14320143Y-9534482D01*
X14320143Y-9534482D02*
X14329667Y-9534482D01*
X14329667Y-9534482D02*
X14343952Y-9539244D01*
X14343952Y-9539244D02*
X14348714Y-9544006D01*
X14443952Y-9634482D02*
X14386809Y-9634482D01*
X14415381Y-9634482D02*
X14415381Y-9534482D01*
X14415381Y-9534482D02*
X14405857Y-9548768D01*
X14405857Y-9548768D02*
X14396333Y-9558291D01*
X14396333Y-9558291D02*
X14386809Y-9563053D01*
X14482048Y-9544006D02*
X14486809Y-9539244D01*
X14486809Y-9539244D02*
X14496333Y-9534482D01*
X14496333Y-9534482D02*
X14520143Y-9534482D01*
X14520143Y-9534482D02*
X14529667Y-9539244D01*
X14529667Y-9539244D02*
X14534428Y-9544006D01*
X14534428Y-9544006D02*
X14539190Y-9553530D01*
X14539190Y-9553530D02*
X14539190Y-9563053D01*
X14539190Y-9563053D02*
X14534428Y-9577339D01*
X14534428Y-9577339D02*
X14477286Y-9634482D01*
X14477286Y-9634482D02*
X14539190Y-9634482D01*
X13760232Y-7005417D02*
X13712613Y-7038750D01*
X13760232Y-7062559D02*
X13660232Y-7062559D01*
X13660232Y-7062559D02*
X13660232Y-7024464D01*
X13660232Y-7024464D02*
X13664994Y-7014940D01*
X13664994Y-7014940D02*
X13669756Y-7010178D01*
X13669756Y-7010178D02*
X13679279Y-7005417D01*
X13679279Y-7005417D02*
X13693565Y-7005417D01*
X13693565Y-7005417D02*
X13703089Y-7010178D01*
X13703089Y-7010178D02*
X13707851Y-7014940D01*
X13707851Y-7014940D02*
X13712613Y-7024464D01*
X13712613Y-7024464D02*
X13712613Y-7062559D01*
X13660232Y-6919702D02*
X13660232Y-6938750D01*
X13660232Y-6938750D02*
X13664994Y-6948274D01*
X13664994Y-6948274D02*
X13669756Y-6953036D01*
X13669756Y-6953036D02*
X13684041Y-6962559D01*
X13684041Y-6962559D02*
X13703089Y-6967321D01*
X13703089Y-6967321D02*
X13741184Y-6967321D01*
X13741184Y-6967321D02*
X13750708Y-6962559D01*
X13750708Y-6962559D02*
X13755470Y-6957797D01*
X13755470Y-6957797D02*
X13760232Y-6948274D01*
X13760232Y-6948274D02*
X13760232Y-6929226D01*
X13760232Y-6929226D02*
X13755470Y-6919702D01*
X13755470Y-6919702D02*
X13750708Y-6914940D01*
X13750708Y-6914940D02*
X13741184Y-6910178D01*
X13741184Y-6910178D02*
X13717375Y-6910178D01*
X13717375Y-6910178D02*
X13707851Y-6914940D01*
X13707851Y-6914940D02*
X13703089Y-6919702D01*
X13703089Y-6919702D02*
X13698327Y-6929226D01*
X13698327Y-6929226D02*
X13698327Y-6948274D01*
X13698327Y-6948274D02*
X13703089Y-6957797D01*
X13703089Y-6957797D02*
X13707851Y-6962559D01*
X13707851Y-6962559D02*
X13717375Y-6967321D01*
X16433333Y-6436958D02*
X16428571Y-6441720D01*
X16428571Y-6441720D02*
X16414286Y-6446482D01*
X16414286Y-6446482D02*
X16404762Y-6446482D01*
X16404762Y-6446482D02*
X16390476Y-6441720D01*
X16390476Y-6441720D02*
X16380952Y-6432196D01*
X16380952Y-6432196D02*
X16376190Y-6422672D01*
X16376190Y-6422672D02*
X16371429Y-6403625D01*
X16371429Y-6403625D02*
X16371429Y-6389339D01*
X16371429Y-6389339D02*
X16376190Y-6370291D01*
X16376190Y-6370291D02*
X16380952Y-6360768D01*
X16380952Y-6360768D02*
X16390476Y-6351244D01*
X16390476Y-6351244D02*
X16404762Y-6346482D01*
X16404762Y-6346482D02*
X16414286Y-6346482D01*
X16414286Y-6346482D02*
X16428571Y-6351244D01*
X16428571Y-6351244D02*
X16433333Y-6356006D01*
X16466667Y-6346482D02*
X16528571Y-6346482D01*
X16528571Y-6346482D02*
X16495238Y-6384577D01*
X16495238Y-6384577D02*
X16509524Y-6384577D01*
X16509524Y-6384577D02*
X16519048Y-6389339D01*
X16519048Y-6389339D02*
X16523809Y-6394101D01*
X16523809Y-6394101D02*
X16528571Y-6403625D01*
X16528571Y-6403625D02*
X16528571Y-6427434D01*
X16528571Y-6427434D02*
X16523809Y-6436958D01*
X16523809Y-6436958D02*
X16519048Y-6441720D01*
X16519048Y-6441720D02*
X16509524Y-6446482D01*
X16509524Y-6446482D02*
X16480952Y-6446482D01*
X16480952Y-6446482D02*
X16471429Y-6441720D01*
X16471429Y-6441720D02*
X16466667Y-6436958D01*
X17121333Y-8694482D02*
X17073714Y-8694482D01*
X17073714Y-8694482D02*
X17073714Y-8594482D01*
X17202286Y-8594482D02*
X17154667Y-8594482D01*
X17154667Y-8594482D02*
X17149905Y-8642101D01*
X17149905Y-8642101D02*
X17154667Y-8637339D01*
X17154667Y-8637339D02*
X17164191Y-8632577D01*
X17164191Y-8632577D02*
X17188000Y-8632577D01*
X17188000Y-8632577D02*
X17197524Y-8637339D01*
X17197524Y-8637339D02*
X17202286Y-8642101D01*
X17202286Y-8642101D02*
X17207048Y-8651625D01*
X17207048Y-8651625D02*
X17207048Y-8675434D01*
X17207048Y-8675434D02*
X17202286Y-8684958D01*
X17202286Y-8684958D02*
X17197524Y-8689720D01*
X17197524Y-8689720D02*
X17188000Y-8694482D01*
X17188000Y-8694482D02*
X17164191Y-8694482D01*
X17164191Y-8694482D02*
X17154667Y-8689720D01*
X17154667Y-8689720D02*
X17149905Y-8684958D01*
X16925571Y-8849482D02*
X16935095Y-8849482D01*
X16935095Y-8849482D02*
X16944619Y-8854244D01*
X16944619Y-8854244D02*
X16949381Y-8859006D01*
X16949381Y-8859006D02*
X16954143Y-8868530D01*
X16954143Y-8868530D02*
X16958905Y-8887577D01*
X16958905Y-8887577D02*
X16958905Y-8911387D01*
X16958905Y-8911387D02*
X16954143Y-8930434D01*
X16954143Y-8930434D02*
X16949381Y-8939958D01*
X16949381Y-8939958D02*
X16944619Y-8944720D01*
X16944619Y-8944720D02*
X16935095Y-8949482D01*
X16935095Y-8949482D02*
X16925571Y-8949482D01*
X16925571Y-8949482D02*
X16916048Y-8944720D01*
X16916048Y-8944720D02*
X16911286Y-8939958D01*
X16911286Y-8939958D02*
X16906524Y-8930434D01*
X16906524Y-8930434D02*
X16901762Y-8911387D01*
X16901762Y-8911387D02*
X16901762Y-8887577D01*
X16901762Y-8887577D02*
X16906524Y-8868530D01*
X16906524Y-8868530D02*
X16911286Y-8859006D01*
X16911286Y-8859006D02*
X16916048Y-8854244D01*
X16916048Y-8854244D02*
X16925571Y-8849482D01*
X17001762Y-8939958D02*
X17006524Y-8944720D01*
X17006524Y-8944720D02*
X17001762Y-8949482D01*
X17001762Y-8949482D02*
X16997000Y-8944720D01*
X16997000Y-8944720D02*
X17001762Y-8939958D01*
X17001762Y-8939958D02*
X17001762Y-8949482D01*
X17092238Y-8882815D02*
X17092238Y-8949482D01*
X17068429Y-8844720D02*
X17044619Y-8916149D01*
X17044619Y-8916149D02*
X17106524Y-8916149D01*
X17187476Y-8849482D02*
X17168429Y-8849482D01*
X17168429Y-8849482D02*
X17158905Y-8854244D01*
X17158905Y-8854244D02*
X17154143Y-8859006D01*
X17154143Y-8859006D02*
X17144619Y-8873291D01*
X17144619Y-8873291D02*
X17139857Y-8892339D01*
X17139857Y-8892339D02*
X17139857Y-8930434D01*
X17139857Y-8930434D02*
X17144619Y-8939958D01*
X17144619Y-8939958D02*
X17149381Y-8944720D01*
X17149381Y-8944720D02*
X17158905Y-8949482D01*
X17158905Y-8949482D02*
X17177952Y-8949482D01*
X17177952Y-8949482D02*
X17187476Y-8944720D01*
X17187476Y-8944720D02*
X17192238Y-8939958D01*
X17192238Y-8939958D02*
X17197000Y-8930434D01*
X17197000Y-8930434D02*
X17197000Y-8906625D01*
X17197000Y-8906625D02*
X17192238Y-8897101D01*
X17192238Y-8897101D02*
X17187476Y-8892339D01*
X17187476Y-8892339D02*
X17177952Y-8887577D01*
X17177952Y-8887577D02*
X17158905Y-8887577D01*
X17158905Y-8887577D02*
X17149381Y-8892339D01*
X17149381Y-8892339D02*
X17144619Y-8897101D01*
X17144619Y-8897101D02*
X17139857Y-8906625D01*
X17282714Y-8882815D02*
X17282714Y-8949482D01*
X17239857Y-8882815D02*
X17239857Y-8935196D01*
X17239857Y-8935196D02*
X17244619Y-8944720D01*
X17244619Y-8944720D02*
X17254143Y-8949482D01*
X17254143Y-8949482D02*
X17268429Y-8949482D01*
X17268429Y-8949482D02*
X17277952Y-8944720D01*
X17277952Y-8944720D02*
X17282714Y-8939958D01*
X17330333Y-8949482D02*
X17330333Y-8849482D01*
X17330333Y-8897101D02*
X17387476Y-8897101D01*
X17387476Y-8949482D02*
X17387476Y-8849482D01*
X17664333Y-7827482D02*
X17616714Y-7827482D01*
X17616714Y-7827482D02*
X17616714Y-7727482D01*
X17740524Y-7727482D02*
X17721476Y-7727482D01*
X17721476Y-7727482D02*
X17711952Y-7732244D01*
X17711952Y-7732244D02*
X17707191Y-7737006D01*
X17707191Y-7737006D02*
X17697667Y-7751291D01*
X17697667Y-7751291D02*
X17692905Y-7770339D01*
X17692905Y-7770339D02*
X17692905Y-7808434D01*
X17692905Y-7808434D02*
X17697667Y-7817958D01*
X17697667Y-7817958D02*
X17702429Y-7822720D01*
X17702429Y-7822720D02*
X17711952Y-7827482D01*
X17711952Y-7827482D02*
X17731000Y-7827482D01*
X17731000Y-7827482D02*
X17740524Y-7822720D01*
X17740524Y-7822720D02*
X17745286Y-7817958D01*
X17745286Y-7817958D02*
X17750048Y-7808434D01*
X17750048Y-7808434D02*
X17750048Y-7784625D01*
X17750048Y-7784625D02*
X17745286Y-7775101D01*
X17745286Y-7775101D02*
X17740524Y-7770339D01*
X17740524Y-7770339D02*
X17731000Y-7765577D01*
X17731000Y-7765577D02*
X17711952Y-7765577D01*
X17711952Y-7765577D02*
X17702429Y-7770339D01*
X17702429Y-7770339D02*
X17697667Y-7775101D01*
X17697667Y-7775101D02*
X17692905Y-7784625D01*
X17518095Y-7993006D02*
X17523452Y-7988244D01*
X17523452Y-7988244D02*
X17533571Y-7983482D01*
X17533571Y-7983482D02*
X17557381Y-7983482D01*
X17557381Y-7983482D02*
X17566310Y-7988244D01*
X17566310Y-7988244D02*
X17570476Y-7993006D01*
X17570476Y-7993006D02*
X17574048Y-8002529D01*
X17574048Y-8002529D02*
X17572857Y-8012053D01*
X17572857Y-8012053D02*
X17566310Y-8026339D01*
X17566310Y-8026339D02*
X17502024Y-8083482D01*
X17502024Y-8083482D02*
X17563929Y-8083482D01*
X17607976Y-8073958D02*
X17612143Y-8078720D01*
X17612143Y-8078720D02*
X17606786Y-8083482D01*
X17606786Y-8083482D02*
X17602619Y-8078720D01*
X17602619Y-8078720D02*
X17607976Y-8073958D01*
X17607976Y-8073958D02*
X17606786Y-8083482D01*
X17685952Y-7983482D02*
X17695476Y-7983482D01*
X17695476Y-7983482D02*
X17704405Y-7988244D01*
X17704405Y-7988244D02*
X17708571Y-7993006D01*
X17708571Y-7993006D02*
X17712143Y-8002529D01*
X17712143Y-8002529D02*
X17714524Y-8021577D01*
X17714524Y-8021577D02*
X17711548Y-8045387D01*
X17711548Y-8045387D02*
X17704405Y-8064434D01*
X17704405Y-8064434D02*
X17698452Y-8073958D01*
X17698452Y-8073958D02*
X17693095Y-8078720D01*
X17693095Y-8078720D02*
X17682976Y-8083482D01*
X17682976Y-8083482D02*
X17673452Y-8083482D01*
X17673452Y-8083482D02*
X17664524Y-8078720D01*
X17664524Y-8078720D02*
X17660357Y-8073958D01*
X17660357Y-8073958D02*
X17656786Y-8064434D01*
X17656786Y-8064434D02*
X17654405Y-8045387D01*
X17654405Y-8045387D02*
X17657381Y-8021577D01*
X17657381Y-8021577D02*
X17664524Y-8002529D01*
X17664524Y-8002529D02*
X17670476Y-7993006D01*
X17670476Y-7993006D02*
X17675833Y-7988244D01*
X17675833Y-7988244D02*
X17685952Y-7983482D01*
X17800833Y-8016815D02*
X17792500Y-8083482D01*
X17757976Y-8016815D02*
X17751429Y-8069196D01*
X17751429Y-8069196D02*
X17755000Y-8078720D01*
X17755000Y-8078720D02*
X17763929Y-8083482D01*
X17763929Y-8083482D02*
X17778214Y-8083482D01*
X17778214Y-8083482D02*
X17788333Y-8078720D01*
X17788333Y-8078720D02*
X17793691Y-8073958D01*
X17840119Y-8083482D02*
X17852619Y-7983482D01*
X17846667Y-8031101D02*
X17903810Y-8031101D01*
X17897262Y-8083482D02*
X17909762Y-7983482D01*
X17759333Y-9488482D02*
X17711714Y-9488482D01*
X17711714Y-9488482D02*
X17711714Y-9388482D01*
X17797429Y-9488482D02*
X17816476Y-9488482D01*
X17816476Y-9488482D02*
X17826000Y-9483720D01*
X17826000Y-9483720D02*
X17830762Y-9478958D01*
X17830762Y-9478958D02*
X17840286Y-9464672D01*
X17840286Y-9464672D02*
X17845048Y-9445625D01*
X17845048Y-9445625D02*
X17845048Y-9407530D01*
X17845048Y-9407530D02*
X17840286Y-9398006D01*
X17840286Y-9398006D02*
X17835524Y-9393244D01*
X17835524Y-9393244D02*
X17826000Y-9388482D01*
X17826000Y-9388482D02*
X17806952Y-9388482D01*
X17806952Y-9388482D02*
X17797429Y-9393244D01*
X17797429Y-9393244D02*
X17792667Y-9398006D01*
X17792667Y-9398006D02*
X17787905Y-9407530D01*
X17787905Y-9407530D02*
X17787905Y-9431339D01*
X17787905Y-9431339D02*
X17792667Y-9440863D01*
X17792667Y-9440863D02*
X17797429Y-9445625D01*
X17797429Y-9445625D02*
X17806952Y-9450387D01*
X17806952Y-9450387D02*
X17826000Y-9450387D01*
X17826000Y-9450387D02*
X17835524Y-9445625D01*
X17835524Y-9445625D02*
X17840286Y-9440863D01*
X17840286Y-9440863D02*
X17845048Y-9431339D01*
X17688431Y-9722214D02*
X17631288Y-9722214D01*
X17659860Y-9722214D02*
X17659860Y-9622214D01*
X17659860Y-9622214D02*
X17650336Y-9636499D01*
X17650336Y-9636499D02*
X17640812Y-9646023D01*
X17640812Y-9646023D02*
X17631288Y-9650785D01*
X17774146Y-9655547D02*
X17774146Y-9722214D01*
X17731288Y-9655547D02*
X17731288Y-9707928D01*
X17731288Y-9707928D02*
X17736050Y-9717452D01*
X17736050Y-9717452D02*
X17745574Y-9722214D01*
X17745574Y-9722214D02*
X17759860Y-9722214D01*
X17759860Y-9722214D02*
X17769384Y-9717452D01*
X17769384Y-9717452D02*
X17774146Y-9712690D01*
X17821765Y-9722214D02*
X17821765Y-9622214D01*
X17821765Y-9669833D02*
X17878907Y-9669833D01*
X17878907Y-9722214D02*
X17878907Y-9622214D01*
X12673107Y-9397690D02*
X12754059Y-9397690D01*
X12754059Y-9397690D02*
X12763583Y-9392929D01*
X12763583Y-9392929D02*
X12768345Y-9388167D01*
X12768345Y-9388167D02*
X12773107Y-9378643D01*
X12773107Y-9378643D02*
X12773107Y-9359595D01*
X12773107Y-9359595D02*
X12768345Y-9350071D01*
X12768345Y-9350071D02*
X12763583Y-9345310D01*
X12763583Y-9345310D02*
X12754059Y-9340548D01*
X12754059Y-9340548D02*
X12673107Y-9340548D01*
X12773107Y-9240548D02*
X12773107Y-9297690D01*
X12773107Y-9269119D02*
X12673107Y-9269119D01*
X12673107Y-9269119D02*
X12687393Y-9278643D01*
X12687393Y-9278643D02*
X12696916Y-9288167D01*
X12696916Y-9288167D02*
X12701678Y-9297690D01*
X12934345Y-9752262D02*
X12939107Y-9737976D01*
X12939107Y-9737976D02*
X12939107Y-9714167D01*
X12939107Y-9714167D02*
X12934345Y-9704643D01*
X12934345Y-9704643D02*
X12929583Y-9699881D01*
X12929583Y-9699881D02*
X12920059Y-9695119D01*
X12920059Y-9695119D02*
X12910535Y-9695119D01*
X12910535Y-9695119D02*
X12901012Y-9699881D01*
X12901012Y-9699881D02*
X12896250Y-9704643D01*
X12896250Y-9704643D02*
X12891488Y-9714167D01*
X12891488Y-9714167D02*
X12886726Y-9733214D01*
X12886726Y-9733214D02*
X12881964Y-9742738D01*
X12881964Y-9742738D02*
X12877202Y-9747500D01*
X12877202Y-9747500D02*
X12867678Y-9752262D01*
X12867678Y-9752262D02*
X12858154Y-9752262D01*
X12858154Y-9752262D02*
X12848631Y-9747500D01*
X12848631Y-9747500D02*
X12843869Y-9742738D01*
X12843869Y-9742738D02*
X12839107Y-9733214D01*
X12839107Y-9733214D02*
X12839107Y-9709405D01*
X12839107Y-9709405D02*
X12843869Y-9695119D01*
X12939107Y-9652262D02*
X12839107Y-9652262D01*
X12839107Y-9652262D02*
X12939107Y-9595119D01*
X12939107Y-9595119D02*
X12839107Y-9595119D01*
X12839107Y-9557024D02*
X12839107Y-9490357D01*
X12839107Y-9490357D02*
X12939107Y-9533214D01*
X12872440Y-9409405D02*
X12939107Y-9409405D01*
X12834345Y-9433214D02*
X12905773Y-9457024D01*
X12905773Y-9457024D02*
X12905773Y-9395119D01*
X12929583Y-9299881D02*
X12934345Y-9304643D01*
X12934345Y-9304643D02*
X12939107Y-9318929D01*
X12939107Y-9318929D02*
X12939107Y-9328452D01*
X12939107Y-9328452D02*
X12934345Y-9342738D01*
X12934345Y-9342738D02*
X12924821Y-9352262D01*
X12924821Y-9352262D02*
X12915297Y-9357024D01*
X12915297Y-9357024D02*
X12896250Y-9361786D01*
X12896250Y-9361786D02*
X12881964Y-9361786D01*
X12881964Y-9361786D02*
X12862916Y-9357024D01*
X12862916Y-9357024D02*
X12853393Y-9352262D01*
X12853393Y-9352262D02*
X12843869Y-9342738D01*
X12843869Y-9342738D02*
X12839107Y-9328452D01*
X12839107Y-9328452D02*
X12839107Y-9318929D01*
X12839107Y-9318929D02*
X12843869Y-9304643D01*
X12843869Y-9304643D02*
X12848631Y-9299881D01*
X12886726Y-9223690D02*
X12891488Y-9209405D01*
X12891488Y-9209405D02*
X12896250Y-9204643D01*
X12896250Y-9204643D02*
X12905773Y-9199881D01*
X12905773Y-9199881D02*
X12920059Y-9199881D01*
X12920059Y-9199881D02*
X12929583Y-9204643D01*
X12929583Y-9204643D02*
X12934345Y-9209405D01*
X12934345Y-9209405D02*
X12939107Y-9218929D01*
X12939107Y-9218929D02*
X12939107Y-9257024D01*
X12939107Y-9257024D02*
X12839107Y-9257024D01*
X12839107Y-9257024D02*
X12839107Y-9223690D01*
X12839107Y-9223690D02*
X12843869Y-9214167D01*
X12843869Y-9214167D02*
X12848631Y-9209405D01*
X12848631Y-9209405D02*
X12858154Y-9204643D01*
X12858154Y-9204643D02*
X12867678Y-9204643D01*
X12867678Y-9204643D02*
X12877202Y-9209405D01*
X12877202Y-9209405D02*
X12881964Y-9214167D01*
X12881964Y-9214167D02*
X12886726Y-9223690D01*
X12886726Y-9223690D02*
X12886726Y-9257024D01*
X12839107Y-9171309D02*
X12839107Y-9114167D01*
X12939107Y-9142738D02*
X12839107Y-9142738D01*
X12839107Y-9090357D02*
X12839107Y-9028452D01*
X12839107Y-9028452D02*
X12877202Y-9061786D01*
X12877202Y-9061786D02*
X12877202Y-9047500D01*
X12877202Y-9047500D02*
X12881964Y-9037976D01*
X12881964Y-9037976D02*
X12886726Y-9033214D01*
X12886726Y-9033214D02*
X12896250Y-9028452D01*
X12896250Y-9028452D02*
X12920059Y-9028452D01*
X12920059Y-9028452D02*
X12929583Y-9033214D01*
X12929583Y-9033214D02*
X12934345Y-9037976D01*
X12934345Y-9037976D02*
X12939107Y-9047500D01*
X12939107Y-9047500D02*
X12939107Y-9076071D01*
X12939107Y-9076071D02*
X12934345Y-9085595D01*
X12934345Y-9085595D02*
X12929583Y-9090357D01*
X12848631Y-8990357D02*
X12843869Y-8985595D01*
X12843869Y-8985595D02*
X12839107Y-8976071D01*
X12839107Y-8976071D02*
X12839107Y-8952262D01*
X12839107Y-8952262D02*
X12843869Y-8942738D01*
X12843869Y-8942738D02*
X12848631Y-8937976D01*
X12848631Y-8937976D02*
X12858154Y-8933214D01*
X12858154Y-8933214D02*
X12867678Y-8933214D01*
X12867678Y-8933214D02*
X12881964Y-8937976D01*
X12881964Y-8937976D02*
X12939107Y-8995119D01*
X12939107Y-8995119D02*
X12939107Y-8933214D01*
X12839107Y-8842738D02*
X12839107Y-8890357D01*
X12839107Y-8890357D02*
X12886726Y-8895119D01*
X12886726Y-8895119D02*
X12881964Y-8890357D01*
X12881964Y-8890357D02*
X12877202Y-8880833D01*
X12877202Y-8880833D02*
X12877202Y-8857024D01*
X12877202Y-8857024D02*
X12881964Y-8847500D01*
X12881964Y-8847500D02*
X12886726Y-8842738D01*
X12886726Y-8842738D02*
X12896250Y-8837976D01*
X12896250Y-8837976D02*
X12920059Y-8837976D01*
X12920059Y-8837976D02*
X12929583Y-8842738D01*
X12929583Y-8842738D02*
X12934345Y-8847500D01*
X12934345Y-8847500D02*
X12939107Y-8857024D01*
X12939107Y-8857024D02*
X12939107Y-8880833D01*
X12939107Y-8880833D02*
X12934345Y-8890357D01*
X12934345Y-8890357D02*
X12929583Y-8895119D01*
X12839107Y-8804643D02*
X12839107Y-8742738D01*
X12839107Y-8742738D02*
X12877202Y-8776071D01*
X12877202Y-8776071D02*
X12877202Y-8761786D01*
X12877202Y-8761786D02*
X12881964Y-8752262D01*
X12881964Y-8752262D02*
X12886726Y-8747500D01*
X12886726Y-8747500D02*
X12896250Y-8742738D01*
X12896250Y-8742738D02*
X12920059Y-8742738D01*
X12920059Y-8742738D02*
X12929583Y-8747500D01*
X12929583Y-8747500D02*
X12934345Y-8752262D01*
X12934345Y-8752262D02*
X12939107Y-8761786D01*
X12939107Y-8761786D02*
X12939107Y-8790357D01*
X12939107Y-8790357D02*
X12934345Y-8799881D01*
X12934345Y-8799881D02*
X12929583Y-8804643D01*
D13*
%TO.C,L7*%
X14829682Y-9117000D02*
G75*
G02*
X15452318Y-9117000I311318J-126000D01*
G01*
X15452318Y-9369000D02*
G75*
G02*
X14829682Y-9369000I-311318J126000D01*
G01*
X15281400Y-9243000D02*
G75*
G02*
X15000600Y-9243000I-140400J0D01*
G01*
X15000600Y-9243000D02*
G75*
G02*
X15281400Y-9243000I140400J0D01*
G01*
%TO.C,L8*%
X14711682Y-8420000D02*
G75*
G02*
X15334318Y-8420000I311318J-126000D01*
G01*
X15334318Y-8672000D02*
G75*
G02*
X14711682Y-8672000I-311318J126000D01*
G01*
X15163400Y-8546000D02*
G75*
G02*
X14882600Y-8546000I-140400J0D01*
G01*
X14882600Y-8546000D02*
G75*
G02*
X15163400Y-8546000I140400J0D01*
G01*
%TO.C,R10*%
X13925750Y-7785206D02*
X13925750Y-7639794D01*
X14107750Y-7785206D02*
X14107750Y-7639794D01*
%TO.C,C15*%
X13829000Y-9491375D02*
X13829000Y-9633625D01*
X14011000Y-9491375D02*
X14011000Y-9633625D01*
%TO.C,C7*%
X16016900Y-8631000D02*
X16016900Y-9165000D01*
X16083500Y-8631000D02*
X16016900Y-8631000D01*
X16083500Y-9165000D02*
X16016900Y-9165000D01*
X16361100Y-8631000D02*
X16294500Y-8631000D01*
X16361100Y-8631000D02*
X16361100Y-9165000D01*
X16361100Y-9165000D02*
X16294500Y-9165000D01*
%TO.C,R7*%
X13934000Y-6923294D02*
X13934000Y-7068706D01*
X14116000Y-6923294D02*
X14116000Y-7068706D01*
%TO.C,J1*%
X11758000Y-8360000D02*
X12578000Y-8360000D01*
X11758000Y-9180000D02*
X11758000Y-8360000D01*
X11758000Y-9180000D02*
X12578000Y-9180000D01*
X12168000Y-9130000D02*
X12118000Y-9180000D01*
X12218000Y-9180000D02*
X12168000Y-9130000D01*
X12578000Y-9180000D02*
X12578000Y-8360000D01*
%TO.C,SW1*%
X12760000Y-10098000D02*
X12760000Y-10236300D01*
X12760000Y-10098000D02*
X12898300Y-10098000D01*
X12784000Y-10122000D02*
X12784000Y-10253000D01*
X12784000Y-10122000D02*
X13466000Y-10122000D01*
X12784000Y-10413000D02*
X12784000Y-10507000D01*
X12784000Y-10667000D02*
X12784000Y-10798000D01*
X12784000Y-10798000D02*
X13466000Y-10798000D01*
X12944000Y-10269500D02*
X12944000Y-10396500D01*
X12944000Y-10281500D02*
X13064667Y-10281500D01*
X12944000Y-10293500D02*
X13064667Y-10293500D01*
X12944000Y-10305500D02*
X13064667Y-10305500D01*
X12944000Y-10317500D02*
X13064667Y-10317500D01*
X12944000Y-10329500D02*
X13064667Y-10329500D01*
X12944000Y-10341500D02*
X13064667Y-10341500D01*
X12944000Y-10353500D02*
X13064667Y-10353500D01*
X12944000Y-10365500D02*
X13064667Y-10365500D01*
X12944000Y-10377500D02*
X13064667Y-10377500D01*
X12944000Y-10389500D02*
X13064667Y-10389500D01*
X12944000Y-10396500D02*
X13306000Y-10396500D01*
X12944000Y-10523500D02*
X12944000Y-10650500D01*
X12944000Y-10535500D02*
X13064667Y-10535500D01*
X12944000Y-10547500D02*
X13064667Y-10547500D01*
X12944000Y-10559500D02*
X13064667Y-10559500D01*
X12944000Y-10571500D02*
X13064667Y-10571500D01*
X12944000Y-10583500D02*
X13064667Y-10583500D01*
X12944000Y-10595500D02*
X13064667Y-10595500D01*
X12944000Y-10607500D02*
X13064667Y-10607500D01*
X12944000Y-10619500D02*
X13064667Y-10619500D01*
X12944000Y-10631500D02*
X13064667Y-10631500D01*
X12944000Y-10643500D02*
X13064667Y-10643500D01*
X12944000Y-10650500D02*
X13306000Y-10650500D01*
X13064667Y-10269500D02*
X13064667Y-10396500D01*
X13064667Y-10523500D02*
X13064667Y-10650500D01*
X13306000Y-10269500D02*
X12944000Y-10269500D01*
X13306000Y-10396500D02*
X13306000Y-10269500D01*
X13306000Y-10523500D02*
X12944000Y-10523500D01*
X13306000Y-10650500D02*
X13306000Y-10523500D01*
X13466000Y-10122000D02*
X13466000Y-10253000D01*
X13466000Y-10413000D02*
X13466000Y-10507000D01*
X13466000Y-10667000D02*
X13466000Y-10798000D01*
%TO.C,C6*%
X14034000Y-8003900D02*
X14034000Y-8070500D01*
X14034000Y-8003900D02*
X14568000Y-8003900D01*
X14034000Y-8281500D02*
X14034000Y-8348100D01*
X14034000Y-8348100D02*
X14568000Y-8348100D01*
X14568000Y-8003900D02*
X14568000Y-8070500D01*
X14568000Y-8281500D02*
X14568000Y-8348100D01*
%TO.C,C9*%
X14143000Y-8720900D02*
X14143000Y-8787500D01*
X14143000Y-8720900D02*
X14677000Y-8720900D01*
X14143000Y-8998500D02*
X14143000Y-9065100D01*
X14143000Y-9065100D02*
X14677000Y-9065100D01*
X14677000Y-8720900D02*
X14677000Y-8787500D01*
X14677000Y-8998500D02*
X14677000Y-9065100D01*
%TO.C,C17*%
X18512875Y-9000000D02*
X18655125Y-9000000D01*
X18512875Y-9182000D02*
X18655125Y-9182000D01*
%TO.C,C13*%
X16487000Y-9776900D02*
X16487000Y-9843500D01*
X16487000Y-9776900D02*
X17021000Y-9776900D01*
X16487000Y-10054500D02*
X16487000Y-10121100D01*
X16487000Y-10121100D02*
X17021000Y-10121100D01*
X17021000Y-9776900D02*
X17021000Y-9843500D01*
X17021000Y-10054500D02*
X17021000Y-10121100D01*
%TO.C,U2*%
X18710750Y-8311000D02*
X18490750Y-8311000D01*
X18710750Y-8311000D02*
X18930750Y-8311000D01*
X18710750Y-8858000D02*
X18490750Y-8858000D01*
X18710750Y-8858000D02*
X19070750Y-8858000D01*
%TO.C,C14*%
X16484000Y-10154900D02*
X16484000Y-10221500D01*
X16484000Y-10154900D02*
X17018000Y-10154900D01*
X16484000Y-10432500D02*
X16484000Y-10499100D01*
X16484000Y-10499100D02*
X17018000Y-10499100D01*
X17018000Y-10154900D02*
X17018000Y-10221500D01*
X17018000Y-10432500D02*
X17018000Y-10499100D01*
%TO.C,T2*%
X19276357Y-7517000D02*
G75*
G02*
X18995643Y-7517000I-140357J0D01*
G01*
X18995643Y-7517000D02*
G75*
G02*
X19276357Y-7517000I140357J0D01*
G01*
X19596109Y-7517000D02*
G75*
G02*
X18675891Y-7517000I-460109J0D01*
G01*
X18675891Y-7517000D02*
G75*
G02*
X19596109Y-7517000I460109J0D01*
G01*
%TO.C,C2*%
X14169000Y-6410900D02*
X14169000Y-6477500D01*
X14169000Y-6410900D02*
X14703000Y-6410900D01*
X14169000Y-6688500D02*
X14169000Y-6755100D01*
X14169000Y-6755100D02*
X14703000Y-6755100D01*
X14703000Y-6410900D02*
X14703000Y-6477500D01*
X14703000Y-6688500D02*
X14703000Y-6755100D01*
%TO.C,R5*%
X13717544Y-6541750D02*
X13862956Y-6541750D01*
X13717544Y-6723750D02*
X13862956Y-6723750D01*
%TO.C,J4*%
X19335000Y-8317000D02*
X19335000Y-9137000D01*
X19695000Y-8317000D02*
X19745000Y-8367000D01*
X19745000Y-8367000D02*
X19795000Y-8317000D01*
X20155000Y-8317000D02*
X19335000Y-8317000D01*
X20155000Y-8317000D02*
X20155000Y-9137000D01*
X20155000Y-9137000D02*
X19335000Y-9137000D01*
%TO.C,L1*%
X14799568Y-6810000D02*
G75*
G02*
X15548432Y-6810000I374432J-146000D01*
G01*
X15548432Y-7102000D02*
G75*
G02*
X14799568Y-7102000I-374432J146000D01*
G01*
X15353770Y-6956000D02*
G75*
G02*
X14994230Y-6956000I-179770J0D01*
G01*
X14994230Y-6956000D02*
G75*
G02*
X15353770Y-6956000I179770J0D01*
G01*
%TO.C,L2*%
X16099068Y-7220000D02*
G75*
G02*
X16847932Y-7220000I374432J-146000D01*
G01*
X16847932Y-7512000D02*
G75*
G02*
X16099068Y-7512000I-374432J146000D01*
G01*
X16653270Y-7366000D02*
G75*
G02*
X16293730Y-7366000I-179770J0D01*
G01*
X16293730Y-7366000D02*
G75*
G02*
X16653270Y-7366000I179770J0D01*
G01*
%TO.C,C4*%
X16174000Y-6596900D02*
X16174000Y-6663500D01*
X16174000Y-6596900D02*
X16708000Y-6596900D01*
X16174000Y-6874500D02*
X16174000Y-6941100D01*
X16174000Y-6941100D02*
X16708000Y-6941100D01*
X16708000Y-6596900D02*
X16708000Y-6663500D01*
X16708000Y-6874500D02*
X16708000Y-6941100D01*
%TO.C,J3*%
X14547000Y-10452000D02*
X14547000Y-10718000D01*
X15315000Y-10452000D02*
X14547000Y-10452000D01*
X15315000Y-10452000D02*
X15315000Y-10718000D01*
X15315000Y-10718000D02*
X14547000Y-10718000D01*
X15575000Y-10585000D02*
X15575000Y-10718000D01*
X15575000Y-10718000D02*
X15442000Y-10718000D01*
%TO.C,C5*%
X12868000Y-7992900D02*
X12868000Y-8059500D01*
X12868000Y-7992900D02*
X13402000Y-7992900D01*
X12868000Y-8270500D02*
X12868000Y-8337100D01*
X12868000Y-8337100D02*
X13402000Y-8337100D01*
X13402000Y-7992900D02*
X13402000Y-8059500D01*
X13402000Y-8270500D02*
X13402000Y-8337100D01*
%TO.C,C11*%
X16274000Y-9246900D02*
X16274000Y-9313500D01*
X16274000Y-9246900D02*
X16808000Y-9246900D01*
X16274000Y-9524500D02*
X16274000Y-9591100D01*
X16274000Y-9591100D02*
X16808000Y-9591100D01*
X16808000Y-9246900D02*
X16808000Y-9313500D01*
X16808000Y-9524500D02*
X16808000Y-9591100D01*
%TO.C,T1*%
X12855109Y-7389000D02*
G75*
G02*
X11934891Y-7389000I-460109J0D01*
G01*
X11934891Y-7389000D02*
G75*
G02*
X12855109Y-7389000I460109J0D01*
G01*
X12535357Y-7389000D02*
G75*
G02*
X12254643Y-7389000I-140357J0D01*
G01*
X12254643Y-7389000D02*
G75*
G02*
X12535357Y-7389000I140357J0D01*
G01*
%TO.C,L4*%
X14820568Y-7626000D02*
G75*
G02*
X15569432Y-7626000I374432J-146000D01*
G01*
X15569432Y-7918000D02*
G75*
G02*
X14820568Y-7918000I-374432J146000D01*
G01*
X15374770Y-7772000D02*
G75*
G02*
X15015230Y-7772000I-179770J0D01*
G01*
X15015230Y-7772000D02*
G75*
G02*
X15374770Y-7772000I179770J0D01*
G01*
%TO.C,C1*%
X13063900Y-6838000D02*
X13130500Y-6838000D01*
X13063900Y-7372000D02*
X13063900Y-6838000D01*
X13063900Y-7372000D02*
X13130500Y-7372000D01*
X13341500Y-6838000D02*
X13408100Y-6838000D01*
X13341500Y-7372000D02*
X13408100Y-7372000D01*
X13408100Y-7372000D02*
X13408100Y-6838000D01*
%TO.C,C19*%
X12618625Y-9779000D02*
X12476375Y-9779000D01*
X12618625Y-9961000D02*
X12476375Y-9961000D01*
%TO.C,C8*%
X16171000Y-8083900D02*
X16171000Y-8150500D01*
X16171000Y-8083900D02*
X16705000Y-8083900D01*
X16171000Y-8361500D02*
X16171000Y-8428100D01*
X16171000Y-8428100D02*
X16705000Y-8428100D01*
X16705000Y-8083900D02*
X16705000Y-8150500D01*
X16705000Y-8361500D02*
X16705000Y-8428100D01*
%TO.C,C10*%
X15668900Y-8290000D02*
X15735500Y-8290000D01*
X15668900Y-8824000D02*
X15668900Y-8290000D01*
X15668900Y-8824000D02*
X15735500Y-8824000D01*
X15946500Y-8290000D02*
X16013100Y-8290000D01*
X15946500Y-8824000D02*
X16013100Y-8824000D01*
X16013100Y-8824000D02*
X16013100Y-8290000D01*
%TO.C,R8*%
X13433750Y-7786206D02*
X13433750Y-7640794D01*
X13615750Y-7786206D02*
X13615750Y-7640794D01*
%TO.C,L12*%
X17477682Y-10199000D02*
G75*
G02*
X18100318Y-10199000I311318J-126000D01*
G01*
X18100318Y-10451000D02*
G75*
G02*
X17477682Y-10451000I-311318J126000D01*
G01*
X17929400Y-10325000D02*
G75*
G02*
X17648600Y-10325000I-140400J0D01*
G01*
X17648600Y-10325000D02*
G75*
G02*
X17929400Y-10325000I140400J0D01*
G01*
%TO.C,L3*%
X17305568Y-6805000D02*
G75*
G02*
X18054432Y-6805000I374432J-146000D01*
G01*
X18054432Y-7097000D02*
G75*
G02*
X17305568Y-7097000I-374432J146000D01*
G01*
X17859770Y-6951000D02*
G75*
G02*
X17500230Y-6951000I-179770J0D01*
G01*
X17500230Y-6951000D02*
G75*
G02*
X17859770Y-6951000I179770J0D01*
G01*
%TO.C,L10*%
X14776682Y-9826000D02*
G75*
G02*
X15399318Y-9826000I311318J-126000D01*
G01*
X15399318Y-10078000D02*
G75*
G02*
X14776682Y-10078000I-311318J126000D01*
G01*
X15228400Y-9952000D02*
G75*
G02*
X14947600Y-9952000I-140400J0D01*
G01*
X14947600Y-9952000D02*
G75*
G02*
X15228400Y-9952000I140400J0D01*
G01*
%TO.C,R9*%
X13616044Y-8079000D02*
X13761456Y-8079000D01*
X13616044Y-8261000D02*
X13761456Y-8261000D01*
%TO.C,L11*%
X15958000Y-10503318D02*
G75*
G02*
X15958000Y-9880682I126000J311318D01*
G01*
X16210000Y-9880682D02*
G75*
G02*
X16210000Y-10503318I-126000J-311318D01*
G01*
X16224400Y-10192000D02*
G75*
G02*
X15943600Y-10192000I-140400J0D01*
G01*
X15943600Y-10192000D02*
G75*
G02*
X16224400Y-10192000I140400J0D01*
G01*
%TO.C,C12*%
X14145000Y-9416900D02*
X14145000Y-9483500D01*
X14145000Y-9416900D02*
X14679000Y-9416900D01*
X14145000Y-9694500D02*
X14145000Y-9761100D01*
X14145000Y-9761100D02*
X14679000Y-9761100D01*
X14679000Y-9416900D02*
X14679000Y-9483500D01*
X14679000Y-9694500D02*
X14679000Y-9761100D01*
%TO.C,R6*%
X13440000Y-6939294D02*
X13440000Y-7084706D01*
X13622000Y-6939294D02*
X13622000Y-7084706D01*
%TO.C,C3*%
X16176000Y-6225900D02*
X16176000Y-6292500D01*
X16176000Y-6225900D02*
X16710000Y-6225900D01*
X16176000Y-6503500D02*
X16176000Y-6570100D01*
X16176000Y-6570100D02*
X16710000Y-6570100D01*
X16710000Y-6225900D02*
X16710000Y-6292500D01*
X16710000Y-6503500D02*
X16710000Y-6570100D01*
%TO.C,L5*%
X16763568Y-8503000D02*
G75*
G02*
X17512432Y-8503000I374432J-146000D01*
G01*
X17512432Y-8795000D02*
G75*
G02*
X16763568Y-8795000I-374432J146000D01*
G01*
X17317770Y-8649000D02*
G75*
G02*
X16958230Y-8649000I-179770J0D01*
G01*
X16958230Y-8649000D02*
G75*
G02*
X17317770Y-8649000I179770J0D01*
G01*
%TO.C,L6*%
X17306568Y-7636000D02*
G75*
G02*
X18055432Y-7636000I374432J-146000D01*
G01*
X18055432Y-7928000D02*
G75*
G02*
X17306568Y-7928000I-374432J146000D01*
G01*
X17860770Y-7782000D02*
G75*
G02*
X17501230Y-7782000I-179770J0D01*
G01*
X17501230Y-7782000D02*
G75*
G02*
X17860770Y-7782000I179770J0D01*
G01*
%TO.C,L9*%
X17464682Y-9317000D02*
G75*
G02*
X18087318Y-9317000I311318J-126000D01*
G01*
X18087318Y-9569000D02*
G75*
G02*
X17464682Y-9569000I-311318J126000D01*
G01*
X17916400Y-9443000D02*
G75*
G02*
X17635600Y-9443000I-140400J0D01*
G01*
X17635600Y-9443000D02*
G75*
G02*
X17916400Y-9443000I140400J0D01*
G01*
%TO.C,U1*%
X12967750Y-9305250D02*
X12967750Y-9085250D01*
X12967750Y-9305250D02*
X12967750Y-9525250D01*
X13514750Y-9305250D02*
X13514750Y-8945250D01*
X13514750Y-9305250D02*
X13514750Y-9525250D01*
%TD*%
D14*
X11642500Y-6173000D02*
X20173000Y-6173000D01*
X20173000Y-11077000D01*
X11642500Y-11077000D01*
X11642500Y-6173000D01*
D15*
X12135351Y-6630000D02*
G75*
G02*
X11814649Y-6630000I-160351J0D01*
G01*
X11814649Y-6630000D02*
G75*
G02*
X12135351Y-6630000I160351J0D01*
G01*
X20028351Y-10633000D02*
G75*
G02*
X19707649Y-10633000I-160351J0D01*
G01*
X19707649Y-10633000D02*
G75*
G02*
X20028351Y-10633000I160351J0D01*
G01*
X20034351Y-6631000D02*
G75*
G02*
X19713649Y-6631000I-160351J0D01*
G01*
X19713649Y-6631000D02*
G75*
G02*
X20034351Y-6631000I160351J0D01*
G01*
X12119000Y-10634000D02*
G75*
G02*
X11815000Y-10634000I-152000J0D01*
G01*
X11815000Y-10634000D02*
G75*
G02*
X12119000Y-10634000I152000J0D01*
G01*
D14*
%TO.C,J1*%
X11718000Y-8340000D02*
X11718000Y-9200000D01*
%TO.C,J4*%
X20195000Y-9157000D02*
X20195000Y-8297000D01*
%TD*%
M02*
