%TF.GenerationSoftware,KiCad,Pcbnew,7.0.1*%
%TF.CreationDate,2023-11-10T11:44:35+00:00*%
%TF.ProjectId,Filter,46696c74-6572-42e6-9b69-6361645f7063,rev?*%
%TF.SameCoordinates,Original*%
%TF.FileFunction,Other,User*%
%FSLAX45Y45*%
G04 Gerber Fmt 4.5, Leading zero omitted, Abs format (unit mm)*
G04 Created by KiCad (PCBNEW 7.0.1) date 2023-11-10 11:44:35*
%MOMM*%
%LPD*%
G01*
G04 APERTURE LIST*
%ADD10C,0.050000*%
G04 APERTURE END LIST*
D10*
%TO.C,R1*%
X12729500Y-7784125D02*
X12729500Y-7560125D01*
X12729500Y-7560125D02*
X12273500Y-7560125D01*
X12273500Y-7784125D02*
X12729500Y-7784125D01*
X12273500Y-7560125D02*
X12273500Y-7784125D01*
%TO.C,R3*%
X19208750Y-7878000D02*
X19208750Y-7654000D01*
X19208750Y-7654000D02*
X18752750Y-7654000D01*
X18752750Y-7878000D02*
X19208750Y-7878000D01*
X18752750Y-7654000D02*
X18752750Y-7878000D01*
%TO.C,C18*%
X19246500Y-7209000D02*
X19246500Y-7439000D01*
X19246500Y-7439000D02*
X19706500Y-7439000D01*
X19706500Y-7209000D02*
X19246500Y-7209000D01*
X19706500Y-7439000D02*
X19706500Y-7209000D01*
%TO.C,C16*%
X12362250Y-7425875D02*
X12592250Y-7425875D01*
X12592250Y-7425875D02*
X12592250Y-6965875D01*
X12362250Y-6965875D02*
X12362250Y-7425875D01*
X12592250Y-6965875D02*
X12362250Y-6965875D01*
%TO.C,R2*%
X12105250Y-7420625D02*
X12329250Y-7420625D01*
X12329250Y-7420625D02*
X12329250Y-6964625D01*
X12105250Y-6964625D02*
X12105250Y-7420625D01*
X12329250Y-6964625D02*
X12105250Y-6964625D01*
%TO.C,R4*%
X19246750Y-7485000D02*
X19246750Y-7709000D01*
X19246750Y-7709000D02*
X19702750Y-7709000D01*
X19702750Y-7485000D02*
X19246750Y-7485000D01*
X19702750Y-7709000D02*
X19702750Y-7485000D01*
%TD*%
M02*
