M48
; DRILL file {KiCad 7.0.1} date Ср 27 сен 2023 15:44:35
; FORMAT={-:-/ absolute / metric / decimal}
; #@! TF.CreationDate,2023-09-27T15:44:35+00:00
; #@! TF.GenerationSoftware,Kicad,Pcbnew,7.0.1
; #@! TF.FileFunction,Plated,1,2,PTH
FMAT,2
METRIC
; #@! TA.AperFunction,Plated,PTH,ViaDrill
T1C0.400
; #@! TA.AperFunction,Plated,PTH,ComponentDrill
T2C1.000
; #@! TA.AperFunction,Plated,PTH,ComponentDrill
T3C1.500
; #@! TA.AperFunction,Plated,PTH,ComponentDrill
T4C1.700
%
G90
G05
T1
X115.175Y-96.225
X119.325Y-92.95
X120.15Y-94.21
X155.425Y-94.875
X155.575Y-83.7
X155.7Y-97.825
X155.725Y-86.675
X156.85Y-96.4
X157.662Y-92.96
X159.65Y-99.3
X161.05Y-94.2
X162.95Y-95.525
X166.697Y-94.235
T2
X104.301Y-83.602
X104.301Y-94.602
X110.301Y-83.602
X110.301Y-94.602
X164.67Y-101.597
X167.21Y-101.597
X169.75Y-101.597
X172.29Y-101.597
T3
X96.737Y-88.942
X177.597Y-87.865
T4
X94.197Y-86.402
X94.197Y-91.483
X99.277Y-86.402
X99.277Y-91.483
X175.058Y-85.325
X175.058Y-90.405
X180.137Y-85.325
X180.137Y-90.405
T0
M30
