%TF.GenerationSoftware,KiCad,Pcbnew,8.0.0*%
%TF.CreationDate,2024-03-23T17:17:28+01:00*%
%TF.ProjectId,Filter,46696c74-6572-42e6-9b69-6361645f7063,rev?*%
%TF.SameCoordinates,Original*%
%TF.FileFunction,Soldermask,Top*%
%TF.FilePolarity,Negative*%
%FSLAX45Y45*%
G04 Gerber Fmt 4.5, Leading zero omitted, Abs format (unit mm)*
G04 Created by KiCad (PCBNEW 8.0.0) date 2024-03-23 17:17:28*
%MOMM*%
%LPD*%
G01*
G04 APERTURE LIST*
G04 Aperture macros list*
%AMRoundRect*
0 Rectangle with rounded corners*
0 $1 Rounding radius*
0 $2 $3 $4 $5 $6 $7 $8 $9 X,Y pos of 4 corners*
0 Add a 4 corners polygon primitive as box body*
4,1,4,$2,$3,$4,$5,$6,$7,$8,$9,$2,$3,0*
0 Add four circle primitives for the rounded corners*
1,1,$1+$1,$2,$3*
1,1,$1+$1,$4,$5*
1,1,$1+$1,$6,$7*
1,1,$1+$1,$8,$9*
0 Add four rect primitives between the rounded corners*
20,1,$1+$1,$2,$3,$4,$5,0*
20,1,$1+$1,$4,$5,$6,$7,0*
20,1,$1+$1,$6,$7,$8,$9,0*
20,1,$1+$1,$8,$9,$2,$3,0*%
G04 Aperture macros list end*
%ADD10C,2.000000*%
%ADD11RoundRect,0.250000X0.625000X-0.312500X0.625000X0.312500X-0.625000X0.312500X-0.625000X-0.312500X0*%
%ADD12RoundRect,0.250000X-0.650000X0.325000X-0.650000X-0.325000X0.650000X-0.325000X0.650000X0.325000X0*%
%ADD13C,1.600000*%
%ADD14RoundRect,0.250000X-0.625000X0.312500X-0.625000X-0.312500X0.625000X-0.312500X0.625000X0.312500X0*%
%ADD15RoundRect,0.200100X0.949900X-0.949900X0.949900X0.949900X-0.949900X0.949900X-0.949900X-0.949900X0*%
%ADD16C,2.500000*%
%ADD17R,2.440000X1.120000*%
%ADD18RoundRect,0.250000X-0.325000X-0.650000X0.325000X-0.650000X0.325000X0.650000X-0.325000X0.650000X0*%
%ADD19RoundRect,0.100000X0.637500X0.100000X-0.637500X0.100000X-0.637500X-0.100000X0.637500X-0.100000X0*%
%ADD20RoundRect,0.250000X-0.312500X-0.625000X0.312500X-0.625000X0.312500X0.625000X-0.312500X0.625000X0*%
%ADD21RoundRect,0.200100X-0.949900X0.949900X-0.949900X-0.949900X0.949900X-0.949900X0.949900X0.949900X0*%
%ADD22C,2.400000*%
%ADD23R,1.700000X1.700000*%
%ADD24O,1.700000X1.700000*%
%ADD25RoundRect,0.250000X0.325000X0.650000X-0.325000X0.650000X-0.325000X-0.650000X0.325000X-0.650000X0*%
%ADD26RoundRect,0.100000X-0.100000X0.637500X-0.100000X-0.637500X0.100000X-0.637500X0.100000X0.637500X0*%
%TA.AperFunction,Profile*%
%ADD27C,0.100000*%
%TD*%
%TA.AperFunction,Profile*%
%ADD28C,0.200000*%
%TD*%
G04 APERTURE END LIST*
D10*
%TO.C,L7*%
X14641000Y-9243000D03*
X15641000Y-9243000D03*
%TD*%
%TO.C,L8*%
X15523000Y-8546000D03*
X14523000Y-8546000D03*
%TD*%
D11*
%TO.C,R10*%
X14016750Y-7858750D03*
X14016750Y-7566250D03*
%TD*%
D12*
%TO.C,C15*%
X13920000Y-9415000D03*
X13920000Y-9710000D03*
%TD*%
D13*
%TO.C,C7*%
X16189000Y-8648000D03*
X16189000Y-9148000D03*
%TD*%
D14*
%TO.C,R7*%
X14025000Y-6849750D03*
X14025000Y-7142250D03*
%TD*%
D15*
%TO.C,J1*%
X12168000Y-8770000D03*
D16*
X11914000Y-9024000D03*
X12422000Y-9024000D03*
X11914000Y-8516000D03*
X12422000Y-8516000D03*
%TD*%
D17*
%TO.C,SW1*%
X12694500Y-10333000D03*
X12694500Y-10587000D03*
X13555500Y-10587000D03*
X13555500Y-10333000D03*
%TD*%
D13*
%TO.C,C6*%
X14051000Y-8176000D03*
X14551000Y-8176000D03*
%TD*%
%TO.C,C9*%
X14160000Y-8893000D03*
X14660000Y-8893000D03*
%TD*%
D18*
%TO.C,C17*%
X18436500Y-9091000D03*
X18731500Y-9091000D03*
%TD*%
D13*
%TO.C,C13*%
X16504000Y-9949000D03*
X17004000Y-9949000D03*
%TD*%
D19*
%TO.C,U2*%
X18997000Y-8812000D03*
X18997000Y-8747000D03*
X18997000Y-8682000D03*
X18997000Y-8617000D03*
X18997000Y-8552000D03*
X18997000Y-8487000D03*
X18997000Y-8422000D03*
X18997000Y-8357000D03*
X18424500Y-8357000D03*
X18424500Y-8422000D03*
X18424500Y-8487000D03*
X18424500Y-8552000D03*
X18424500Y-8617000D03*
X18424500Y-8682000D03*
X18424500Y-8747000D03*
X18424500Y-8812000D03*
%TD*%
D13*
%TO.C,C14*%
X16501000Y-10327000D03*
X17001000Y-10327000D03*
%TD*%
D10*
%TO.C,T2*%
X18836000Y-6967000D03*
X18836000Y-8067000D03*
X19436000Y-6967000D03*
X19436000Y-8067000D03*
%TD*%
D13*
%TO.C,C2*%
X14186000Y-6583000D03*
X14686000Y-6583000D03*
%TD*%
D20*
%TO.C,R5*%
X13644000Y-6632750D03*
X13936500Y-6632750D03*
%TD*%
D21*
%TO.C,J4*%
X19745000Y-8727000D03*
D16*
X19999000Y-8473000D03*
X19491000Y-8473000D03*
X19999000Y-8981000D03*
X19491000Y-8981000D03*
%TD*%
D22*
%TO.C,L1*%
X14524000Y-6956000D03*
X15824000Y-6956000D03*
%TD*%
%TO.C,L2*%
X15823500Y-7366000D03*
X17123500Y-7366000D03*
%TD*%
D13*
%TO.C,C4*%
X16191000Y-6769000D03*
X16691000Y-6769000D03*
%TD*%
D23*
%TO.C,J3*%
X15442000Y-10585000D03*
D24*
X15188000Y-10585000D03*
X14934000Y-10585000D03*
X14680000Y-10585000D03*
%TD*%
D13*
%TO.C,C5*%
X12885000Y-8165000D03*
X13385000Y-8165000D03*
%TD*%
%TO.C,C11*%
X16291000Y-9419000D03*
X16791000Y-9419000D03*
%TD*%
D10*
%TO.C,T1*%
X12945000Y-7089000D03*
X11845000Y-7089000D03*
X12945000Y-7689000D03*
X11845000Y-7689000D03*
%TD*%
D22*
%TO.C,L4*%
X14545000Y-7772000D03*
X15845000Y-7772000D03*
%TD*%
D13*
%TO.C,C1*%
X13236000Y-7355000D03*
X13236000Y-6855000D03*
%TD*%
D25*
%TO.C,C19*%
X12695000Y-9870000D03*
X12400000Y-9870000D03*
%TD*%
D13*
%TO.C,C8*%
X16188000Y-8256000D03*
X16688000Y-8256000D03*
%TD*%
%TO.C,C10*%
X15841000Y-8807000D03*
X15841000Y-8307000D03*
%TD*%
D11*
%TO.C,R8*%
X13524750Y-7859750D03*
X13524750Y-7567250D03*
%TD*%
D10*
%TO.C,L12*%
X17289000Y-10325000D03*
X18289000Y-10325000D03*
%TD*%
D22*
%TO.C,L3*%
X17030000Y-6951000D03*
X18330000Y-6951000D03*
%TD*%
D10*
%TO.C,L10*%
X14588000Y-9952000D03*
X15588000Y-9952000D03*
%TD*%
D20*
%TO.C,R9*%
X13542500Y-8170000D03*
X13835000Y-8170000D03*
%TD*%
D10*
%TO.C,L11*%
X16084000Y-9692000D03*
X16084000Y-10692000D03*
%TD*%
D13*
%TO.C,C12*%
X14162000Y-9589000D03*
X14662000Y-9589000D03*
%TD*%
D14*
%TO.C,R6*%
X13531000Y-6865750D03*
X13531000Y-7158250D03*
%TD*%
D13*
%TO.C,C3*%
X16193000Y-6398000D03*
X16693000Y-6398000D03*
%TD*%
D22*
%TO.C,L5*%
X16488000Y-8649000D03*
X17788000Y-8649000D03*
%TD*%
%TO.C,L6*%
X17031000Y-7782000D03*
X18331000Y-7782000D03*
%TD*%
D10*
%TO.C,L9*%
X17276000Y-9443000D03*
X18276000Y-9443000D03*
%TD*%
D26*
%TO.C,U1*%
X13468750Y-9019000D03*
X13403750Y-9019000D03*
X13338750Y-9019000D03*
X13273750Y-9019000D03*
X13208750Y-9019000D03*
X13143750Y-9019000D03*
X13078750Y-9019000D03*
X13013750Y-9019000D03*
X13013750Y-9591500D03*
X13078750Y-9591500D03*
X13143750Y-9591500D03*
X13208750Y-9591500D03*
X13273750Y-9591500D03*
X13338750Y-9591500D03*
X13403750Y-9591500D03*
X13468750Y-9591500D03*
%TD*%
D27*
X11642500Y-6173000D02*
X20173000Y-6173000D01*
X20173000Y-11077000D01*
X11642500Y-11077000D01*
X11642500Y-6173000D01*
D28*
X12135351Y-6630000D02*
G75*
G02*
X11814649Y-6630000I-160351J0D01*
G01*
X11814649Y-6630000D02*
G75*
G02*
X12135351Y-6630000I160351J0D01*
G01*
X20028351Y-10633000D02*
G75*
G02*
X19707649Y-10633000I-160351J0D01*
G01*
X19707649Y-10633000D02*
G75*
G02*
X20028351Y-10633000I160351J0D01*
G01*
X20034351Y-6631000D02*
G75*
G02*
X19713649Y-6631000I-160351J0D01*
G01*
X19713649Y-6631000D02*
G75*
G02*
X20034351Y-6631000I160351J0D01*
G01*
X12119000Y-10634000D02*
G75*
G02*
X11815000Y-10634000I-152000J0D01*
G01*
X11815000Y-10634000D02*
G75*
G02*
X12119000Y-10634000I152000J0D01*
G01*
D27*
%TO.C,J1*%
X11718000Y-8340000D02*
X11718000Y-9200000D01*
%TO.C,J4*%
X20195000Y-9157000D02*
X20195000Y-8297000D01*
%TD*%
M02*
